# Blender 4.5.0
# www.blender.org
mtllib tripo_convert_fb55ff9f-79a2-40e9-92c7-4998c7368a5b.mtl
o tripo_node_fb55ff9f-79a2-40e9-92c7-4998c7368a5b
v 0.115550 0.962746 -0.008996
v 0.131279 0.959278 -0.018926
v 0.137581 0.957684 0.011657
v 0.012065 0.677765 -0.013897
v 0.013077 0.650000 -0.028279
v 0.021146 0.000589 0.014490
v 0.013505 0.661111 0.024950
v 0.115215 0.963019 0.015979
v 0.004286 0.681630 0.014301
v -0.102236 0.971919 0.001509
v -0.105461 0.982674 0.009611
v -0.104900 0.997189 0.001601
v -0.106324 0.996211 0.005432
v -0.106891 0.977436 0.006274
v -0.124475 0.997777 0.009263
v -0.138942 0.995218 0.001213
v -0.107031 0.988162 0.009075
v -0.111040 0.997884 0.014449
v -0.056487 0.455555 0.018338
v 0.001401 0.394817 0.027549
v 0.028526 0.000227 -0.014897
v -0.000818 0.001734 0.013139
v -0.059731 0.455658 0.002936
v -0.051579 0.460579 -0.006273
v -0.008003 0.398576 -0.018800
v -0.008311 0.398033 -0.012569
v -0.010052 0.401195 -0.004503
v -0.004500 0.001946 -0.019153
v -0.010318 0.381088 -0.022984
v -0.063903 0.451174 -0.016977
v -0.105181 0.998555 -0.002996
v -0.131129 0.996848 -0.010459
v -0.114045 0.999048 -0.001542
v 0.115300 0.962744 -0.003759
v 0.122374 0.961211 -0.004885
v 0.120822 0.961579 -0.011106
v 0.111047 0.963827 -0.012403
v 0.107915 0.964390 -0.004949
v 0.117681 0.962473 -0.017975
v 0.134458 0.958505 -0.014618
v 0.139837 0.955950 -0.020140
v 0.132977 0.957151 -0.025141
v 0.125797 0.960552 -0.019022
v 0.127549 0.960100 -0.012516
v 0.124259 0.958384 -0.025677
v 0.132815 0.958919 0.014158
v 0.136298 0.957179 0.021660
v 0.142515 0.955230 0.016012
v 0.146864 0.953851 0.008054
v 0.138534 0.957411 0.006172
v 0.131264 0.959273 0.007441
v -0.002607 0.673444 -0.023636
v -0.019758 0.698551 -0.022864
v -0.012307 0.701891 -0.017694
v -0.006941 0.701668 -0.012727
v 0.019079 0.684552 -0.008870
v 0.027537 0.674432 -0.023261
v 0.038180 0.671123 -0.024493
v 0.027264 0.644571 -0.028275
v 0.000516 0.643039 -0.027432
v -0.012163 0.668582 -0.024330
v 0.014397 0.000935 0.015649
v 0.015006 0.000906 0.007599
v 0.023760 0.000453 0.008749
v 0.024961 0.000423 0.019150
v 0.015453 0.000916 0.023666
v 0.030586 0.000120 0.012030
v 0.004249 0.674949 0.019200
v -0.005469 0.668870 0.025209
v 0.006698 0.643627 0.028248
v 0.019678 0.645879 0.029080
v 0.031079 0.671983 0.024938
v 0.024763 0.680128 0.019513
v 0.112235 0.963610 0.011929
v 0.105557 0.962816 0.015642
v 0.111574 0.961705 0.020739
v 0.118506 0.960797 0.023995
v 0.119957 0.961887 0.016355
v 0.118452 0.962093 0.009936
v 0.021075 0.683785 0.014784
v 0.021461 0.688327 0.008220
v -0.005561 0.700327 0.011480
v -0.012614 0.699872 0.018575
v -0.102859 0.965498 -0.006321
v -0.104141 0.988246 -0.003002
v -0.103697 0.988908 0.002499
v -0.103207 0.987773 0.002774
v -0.103612 0.987726 0.003542
v -0.106696 0.990191 0.010943
v -0.106492 0.988901 0.011768
v -0.104705 0.967470 0.010855
v -0.103619 0.965942 0.007974
v -0.104658 0.987605 0.005525
v -0.104644 0.994257 0.001901
v -0.109095 0.999680 -0.002730
v -0.104040 0.997116 0.001614
v -0.104624 0.990657 0.002248
v -0.104209 0.997162 0.001951
v -0.114564 0.999019 0.003738
v -0.116746 0.998924 0.009614
v -0.106105 0.979582 0.003331
v -0.105921 0.976764 0.001153
v -0.106944 0.975940 0.007133
v -0.107560 0.983771 0.007854
v -0.106306 0.988820 0.004792
v -0.105392 0.976936 0.001819
v -0.105349 0.983906 0.002814
v -0.130014 0.996891 0.008347
v -0.132734 0.996773 0.015322
v -0.123209 0.998186 0.014932
v -0.121779 0.998001 0.005180
v -0.127282 0.997073 0.002857
v -0.135673 0.995869 0.005186
v -0.132077 0.996298 0.000475
v -0.137038 0.995599 -0.002949
v -0.143870 0.994423 0.001927
v -0.140789 0.995236 0.009754
v -0.143195 0.994657 -0.005501
v -0.052751 0.448068 0.019854
v -0.045670 0.451486 0.016534
v -0.052539 0.459153 0.015551
v -0.062587 0.453747 0.015338
v -0.061343 0.443853 0.017755
v -0.058609 0.456553 0.011249
v 0.007510 0.422918 0.029571
v -0.000289 0.422127 0.023135
v -0.004322 0.407230 0.020945
v 0.019766 0.392900 0.032722
v 0.020809 0.422820 0.031372
v 0.030382 0.000124 -0.009304
v 0.023341 0.000485 -0.009775
v 0.023688 0.000478 -0.016915
v 0.027843 0.000639 -0.023962
v 0.033965 0.000157 -0.019057
v 0.038131 0.000115 -0.011651
v -0.004842 0.001952 0.018729
v -0.011245 0.002313 0.009936
v -0.003458 0.001884 0.006535
v 0.005736 0.001385 0.014959
v 0.003890 0.001489 0.023183
v 0.005276 0.001420 0.006714
v -0.058903 0.456164 -0.002280
v -0.064961 0.452532 -0.003118
v -0.064053 0.453112 0.005110
v -0.054362 0.458926 0.005881
v -0.052038 0.460233 -0.000975
v -0.056197 0.457918 -0.008578
v -0.044532 0.463069 -0.000654
v -0.045676 0.462296 -0.009203
v -0.052090 0.459125 -0.014524
v 0.002254 0.421703 -0.023513
v 0.010402 0.421771 -0.030101
v 0.001395 0.391805 -0.027645
v -0.012090 0.402102 -0.015860
v -0.002890 0.419212 -0.021056
v -0.027316 0.409274 -0.020493
v -0.022099 0.411182 -0.016050
v -0.006070 0.420199 -0.013128
v -0.017595 0.411724 -0.010258
v -0.007921 0.419731 -0.004578
v -0.015871 0.411925 -0.003045
v -0.016261 0.411825 0.006026
v -0.008947 0.405726 0.006457
v -0.007856 0.002125 -0.013912
v -0.015175 0.002803 -0.017506
v -0.008873 0.002641 -0.024377
v -0.001911 0.002008 -0.028305
v 0.000509 0.001673 -0.019991
v -0.000984 0.001758 -0.012738
v -0.019386 0.389940 -0.022170
v 0.001192 0.356525 -0.031228
v -0.011414 0.354819 -0.022401
v -0.027373 0.380578 -0.017438
v -0.060942 0.443934 -0.018064
v -0.066117 0.441317 -0.012900
v -0.067541 0.450622 -0.012494
v -0.059484 0.454934 -0.016747
v -0.053950 0.447686 -0.019413
v -0.062389 0.454274 -0.010643
v -0.108072 0.996749 -0.012532
v -0.112534 0.999430 -0.009337
v -0.107364 0.987139 -0.013256
v -0.126820 0.997459 -0.009470
v -0.125688 0.997813 -0.016650
v -0.132880 0.996780 -0.015603
v -0.134058 0.996231 -0.006961
v -0.129350 0.996835 -0.004166
v -0.139015 0.995590 -0.012001
v -0.117511 0.998662 -0.004920
v -0.120070 0.998127 0.000711
v -0.124900 0.997430 -0.001931
v -0.121936 0.998122 -0.007879
v -0.118378 0.998800 -0.014289
v -0.115529 0.995396 -0.018652
v -0.124913 0.994442 -0.021707
v -0.115122 0.985719 -0.019224
v -0.124225 0.984357 -0.021860
v -0.133618 0.983130 -0.021384
v -0.134390 0.993751 -0.021358
v -0.141341 0.982196 -0.015915
v -0.142102 0.992120 -0.015859
v -0.146422 0.981477 -0.007542
v -0.147474 0.991079 -0.007131
v -0.147604 0.981358 0.003306
v -0.148418 0.990999 0.003131
v -0.143973 0.982111 0.013678
v -0.144642 0.992191 0.013411
v -0.135398 0.983280 0.020573
v -0.134843 0.993805 0.021242
v -0.124653 0.985190 0.021882
v -0.123363 0.996055 0.021446
v -0.113929 0.987682 0.018210
v -0.134984 0.957236 0.018439
v -0.126386 0.958824 0.021419
v -0.116868 0.965613 0.020969
v -0.125420 0.922788 0.020925
v -0.117196 0.924377 0.021032
v -0.108559 0.930310 0.017648
v -0.115154 0.888417 0.021055
v -0.107178 0.889678 0.019790
v -0.100557 0.890656 0.015139
v -0.103054 0.926423 0.013948
v -0.096017 0.891218 0.008400
v -0.099524 0.926734 0.007602
v -0.094405 0.891464 -0.000101
v -0.098049 0.929505 0.000048
v -0.096350 0.891221 -0.008719
v -0.100098 0.926522 -0.008262
v -0.100988 0.890551 -0.015463
v -0.104607 0.925573 -0.015184
v -0.107104 0.961060 -0.014653
v -0.111463 0.924735 -0.019933
v -0.114087 0.959630 -0.019733
v -0.119828 0.923744 -0.021051
v -0.122820 0.958410 -0.021399
v -0.128200 0.922762 -0.020149
v -0.131699 0.957172 -0.020597
v -0.134760 0.921988 -0.015122
v -0.138619 0.956238 -0.015383
v -0.138756 0.921475 -0.007599
v -0.143128 0.955701 -0.007577
v -0.140454 0.921156 0.001432
v -0.144563 0.955742 0.002378
v -0.138366 0.921295 0.010009
v -0.141959 0.956329 0.011896
v -0.132800 0.921880 0.016549
v -0.134258 0.885042 0.008545
v -0.129578 0.885912 0.015525
v -0.123113 0.887120 0.020586
v -0.124723 0.848219 0.017537
v -0.117997 0.850660 0.022960
v -0.109652 0.853560 0.023416
v -0.102539 0.817639 0.020728
v -0.095532 0.821209 0.021896
v -0.088272 0.824937 0.021458
v -0.101591 0.856065 0.021644
v -0.082372 0.827889 0.016802
v -0.094983 0.858067 0.016677
v -0.078105 0.830018 0.010051
v -0.090779 0.859422 0.009303
v -0.076308 0.830989 0.001256
v -0.088808 0.859991 0.000415
v -0.077619 0.830276 -0.007798
v -0.090903 0.859661 -0.008408
v -0.080661 0.828722 -0.015281
v -0.094415 0.858521 -0.016058
v -0.086535 0.825794 -0.020213
v -0.100974 0.856575 -0.021110
v -0.107744 0.889559 -0.020177
v -0.108743 0.854030 -0.023340
v -0.115905 0.888313 -0.021055
v -0.116865 0.851168 -0.023264
v -0.123638 0.887035 -0.020332
v -0.124301 0.848432 -0.018600
v -0.130094 0.885904 -0.015203
v -0.129671 0.846228 -0.010289
v -0.134147 0.885093 -0.007961
v -0.131839 0.845541 -0.000959
v -0.136357 0.884803 0.000288
v -0.130021 0.846211 0.009313
v -0.112430 0.812561 -0.001411
v -0.111147 0.813270 0.007679
v -0.107886 0.814961 0.015225
v -0.093164 0.780962 0.006859
v -0.090378 0.782512 0.014748
v -0.085109 0.785495 0.020118
v -0.072730 0.749547 0.014125
v -0.067307 0.752660 0.019376
v -0.060647 0.756470 0.021486
v -0.078147 0.789405 0.021654
v -0.053819 0.760341 0.021683
v -0.071021 0.793336 0.021516
v -0.047979 0.763648 0.017223
v -0.065408 0.796397 0.016944
v -0.043614 0.766090 0.011046
v -0.061182 0.798649 0.010502
v -0.041683 0.767155 0.002903
v -0.059282 0.799681 0.001994
v -0.042357 0.766763 -0.005770
v -0.060302 0.799155 -0.006751
v -0.044493 0.765475 -0.013785
v -0.062714 0.797815 -0.014362
v -0.049946 0.762376 -0.018952
v -0.068281 0.794724 -0.019379
v -0.056140 0.758817 -0.022058
v -0.074759 0.791098 -0.022086
v -0.093354 0.822378 -0.022080
v -0.081727 0.787264 -0.021733
v -0.100633 0.818627 -0.021728
v -0.087782 0.783953 -0.016964
v -0.106277 0.815729 -0.016676
v -0.092577 0.781312 -0.010507
v -0.110603 0.813483 -0.010079
v -0.094154 0.780437 -0.002092
v -0.074138 0.748692 -0.011196
v -0.075587 0.747897 -0.002898
v -0.075045 0.748221 0.005979
v -0.058208 0.717412 -0.003779
v -0.057996 0.717369 0.005184
v -0.055955 0.718389 0.013262
v -0.042692 0.687096 0.004509
v -0.040485 0.688225 0.013061
v -0.034709 0.691098 0.018930
v -0.050440 0.721404 0.018633
v -0.027903 0.694308 0.022523
v -0.043948 0.724915 0.021406
v -0.020432 0.697606 0.023100
v -0.037052 0.728649 0.021803
v -0.031006 0.731892 0.017491
v -0.026294 0.734386 0.011421
v -0.004278 0.701693 0.004004
v -0.024336 0.735453 0.003455
v -0.005136 0.702232 -0.004892
v -0.024863 0.735116 -0.005138
v -0.026766 0.734173 -0.012870
v -0.031915 0.731491 -0.018254
v -0.038129 0.728226 -0.021841
v -0.027556 0.694719 -0.022558
v -0.045135 0.724447 -0.021319
v -0.062968 0.754938 -0.021497
v -0.051376 0.721112 -0.017827
v -0.069085 0.751498 -0.017308
v -0.056680 0.718303 -0.012165
v -0.034513 0.691171 -0.019320
v -0.040107 0.688295 -0.013442
v -0.042112 0.687311 -0.004956
v -0.025457 0.661311 -0.014941
v -0.028180 0.659562 -0.005997
v -0.028508 0.659026 0.004305
v -0.016660 0.633319 -0.006568
v -0.017222 0.632814 0.004878
v -0.014865 0.633816 0.014777
v -0.026107 0.659981 0.013426
v -0.009089 0.636261 0.021625
v -0.020417 0.662496 0.019860
v -0.003100 0.639202 0.027072
v -0.013733 0.665415 0.024272
v -0.000385 0.603528 0.023498
v 0.006606 0.604309 0.028862
v 0.015954 0.605171 0.029643
v 0.011112 0.569634 0.029957
v 0.020683 0.570367 0.029818
v 0.030454 0.571085 0.029244
v 0.024894 0.605710 0.029468
v 0.039000 0.571723 0.023969
v 0.034466 0.605894 0.025326
v 0.032936 0.642548 0.025336
v 0.042826 0.606058 0.018521
v 0.041695 0.638735 0.018441
v 0.050772 0.666853 0.017417
v 0.042929 0.670045 0.023641
v 0.066231 0.692777 0.016055
v 0.060142 0.696265 0.021661
v 0.052405 0.700593 0.023178
v 0.045294 0.704331 0.021542
v 0.077953 0.725334 0.020458
v 0.070765 0.729170 0.022570
v 0.063536 0.733011 0.022206
v 0.057714 0.736103 0.017617
v 0.039245 0.706709 0.017061
v 0.088180 0.758278 0.022489
v 0.080590 0.761769 0.022709
v 0.074367 0.764473 0.017924
v 0.069418 0.766602 0.011425
v 0.053637 0.738271 0.011127
v 0.093741 0.792213 0.024287
v 0.086578 0.794303 0.018904
v 0.080677 0.795943 0.011942
v 0.077934 0.796684 0.002715
v 0.067174 0.767502 0.002624
v 0.091825 0.827333 0.019823
v 0.085123 0.828655 0.012660
v 0.082319 0.829346 0.002980
v 0.083787 0.829169 -0.007704
v 0.079242 0.796348 -0.007026
v 0.089796 0.863139 0.012541
v 0.087005 0.863466 0.002926
v 0.088559 0.863145 -0.007871
v 0.092882 0.862433 -0.017060
v 0.088358 0.828356 -0.017047
v 0.091808 0.899825 0.002957
v 0.093356 0.899824 -0.008128
v 0.097209 0.899377 -0.017060
v 0.104378 0.898428 -0.023166
v 0.099910 0.861396 -0.023452
v 0.097889 0.935797 -0.007505
v 0.101755 0.934897 -0.016809
v 0.109256 0.933626 -0.023147
v 0.118239 0.932110 -0.025849
v 0.112673 0.897238 -0.025886
v 0.104446 0.953894 -0.016819
v 0.112197 0.952399 -0.023360
v 0.122007 0.950522 -0.026026
v 0.131280 0.948792 -0.025837
v 0.127514 0.930526 -0.025499
v 0.113966 0.960603 -0.023441
v 0.105964 0.961984 -0.016558
v 0.100425 0.954798 -0.006641
v 0.101807 0.962761 -0.006402
v 0.100069 0.955085 0.005410
v 0.101779 0.963098 0.006301
v 0.108675 0.964224 0.005158
v 0.116308 0.962519 0.003570
v 0.124670 0.960721 0.009078
v 0.123474 0.960972 0.002216
v 0.130581 0.959426 0.000675
v 0.129382 0.959691 -0.006571
v 0.139352 0.957183 -0.001168
v 0.137521 0.957697 -0.009236
v 0.147866 0.953706 -0.002572
v 0.145030 0.954685 -0.012645
v 0.147691 0.945191 -0.002974
v 0.145235 0.945852 -0.013711
v 0.138602 0.947251 -0.020873
v 0.142061 0.928728 -0.013513
v 0.135351 0.929418 -0.020725
v 0.136345 0.894016 -0.013365
v 0.129657 0.894771 -0.020671
v 0.121621 0.895891 -0.025302
v 0.124766 0.858101 -0.020598
v 0.117213 0.859168 -0.025230
v 0.108307 0.860312 -0.025849
v 0.113383 0.824146 -0.025161
v 0.104326 0.825693 -0.025849
v 0.095706 0.827127 -0.023353
v 0.097699 0.791162 -0.025854
v 0.089939 0.793536 -0.022415
v 0.082907 0.795440 -0.015992
v 0.077236 0.763244 -0.021079
v 0.071258 0.765767 -0.015059
v 0.068229 0.766955 -0.006761
v 0.054929 0.737555 -0.014738
v 0.052616 0.738764 -0.006608
v 0.051697 0.739288 0.002683
v 0.034895 0.709065 -0.006058
v 0.033936 0.709821 0.002713
v 0.035851 0.708936 0.010742
v 0.019679 0.688963 0.001887
v 0.019544 0.687927 -0.002959
v 0.036806 0.707819 -0.013927
v 0.040013 0.705153 -0.018301
v 0.060506 0.734521 -0.020188
v 0.067296 0.730839 -0.023814
v 0.048814 0.701782 -0.024140
v 0.084216 0.760122 -0.023814
v 0.091461 0.756699 -0.023158
v 0.074547 0.727006 -0.023127
v 0.106344 0.788173 -0.025291
v 0.113445 0.785567 -0.020867
v 0.097707 0.753750 -0.018397
v 0.120705 0.822823 -0.020434
v 0.126882 0.821584 -0.013899
v 0.119814 0.783129 -0.013890
v 0.131074 0.857145 -0.013889
v 0.133311 0.856649 -0.004278
v 0.129079 0.821156 -0.003883
v 0.139007 0.893914 -0.003501
v 0.138492 0.894166 0.006975
v 0.133012 0.856504 0.006778
v 0.144927 0.928596 -0.003201
v 0.143670 0.928675 0.007620
v 0.139819 0.929247 0.016547
v 0.134560 0.894758 0.016105
v 0.146577 0.945445 0.008362
v 0.142507 0.946623 0.016929
v 0.135085 0.948376 0.022499
v 0.132457 0.930624 0.022311
v 0.123222 0.932220 0.024557
v 0.118304 0.896729 0.024534
v 0.127253 0.895665 0.022032
v 0.125413 0.950472 0.024599
v 0.116627 0.952286 0.024878
v 0.114045 0.933596 0.024721
v 0.126514 0.959051 0.024353
v 0.125887 0.960493 0.016406
v 0.106350 0.934721 0.020153
v 0.100905 0.898696 0.019600
v 0.108797 0.897844 0.024827
v 0.109758 0.953556 0.020685
v 0.103035 0.954674 0.015128
v 0.099477 0.935797 0.013826
v 0.097058 0.936210 0.003970
v 0.094197 0.899429 0.012878
v 0.095960 0.862254 0.019402
v 0.099948 0.825926 0.024726
v 0.104031 0.860971 0.024873
v 0.109253 0.824394 0.024512
v 0.113324 0.859380 0.024524
v 0.117886 0.822965 0.022063
v 0.122109 0.857919 0.022017
v 0.125019 0.821800 0.016278
v 0.129328 0.856884 0.016118
v 0.128482 0.821258 0.007395
v 0.117751 0.784474 0.016736
v 0.121523 0.783053 0.007960
v 0.122297 0.782464 -0.003523
v 0.103675 0.750842 0.006912
v 0.104260 0.750580 -0.002948
v 0.102584 0.751364 -0.011949
v 0.087203 0.720495 -0.003042
v 0.085597 0.721364 -0.012058
v 0.080621 0.723891 -0.018563
v 0.068568 0.691590 -0.012765
v 0.063209 0.694421 -0.019466
v 0.056579 0.697849 -0.023546
v 0.046832 0.667695 -0.020785
v 0.053500 0.665138 -0.013804
v 0.044203 0.637421 -0.014554
v 0.036817 0.640072 -0.022852
v 0.044501 0.606050 -0.015300
v 0.037058 0.606020 -0.023281
v 0.028266 0.606147 -0.029029
v 0.039875 0.571702 -0.023281
v 0.031514 0.571023 -0.029072
v 0.021457 0.570164 -0.029782
v 0.018188 0.607215 -0.029297
v 0.011196 0.569388 -0.030022
v 0.009259 0.604941 -0.029418
v 0.003249 0.568774 -0.024331
v 0.000934 0.603271 -0.025090
v -0.007227 0.638252 -0.023617
v -0.006450 0.601668 -0.018335
v -0.013920 0.635029 -0.016952
v -0.019481 0.664586 -0.021133
v -0.009454 0.601227 -0.007339
v -0.003762 0.568291 -0.017430
v -0.006423 0.568111 -0.007332
v -0.006826 0.568028 0.006188
v -0.010030 0.601620 0.005683
v -0.003811 0.568213 0.017493
v -0.007470 0.602495 0.016392
v 0.003408 0.568879 0.024781
v -0.003277 0.533467 0.017500
v 0.004514 0.533873 0.024930
v 0.012723 0.534246 0.030040
v 0.004018 0.495921 0.024800
v 0.012925 0.496092 0.030324
v 0.023990 0.496144 0.030007
v 0.023161 0.534420 0.029753
v 0.034346 0.496185 0.028591
v 0.033639 0.534356 0.028736
v 0.042883 0.496154 0.022088
v 0.041984 0.534248 0.022535
v 0.049314 0.496098 0.012757
v 0.048555 0.534141 0.014576
v 0.046599 0.572172 0.017155
v 0.051407 0.533895 0.004210
v 0.049809 0.572391 0.006629
v 0.046821 0.606093 0.007826
v 0.049614 0.572338 -0.005569
v 0.047621 0.606103 -0.004296
v 0.046902 0.636373 -0.003259
v 0.045718 0.636734 0.008385
v 0.055857 0.664404 -0.003156
v 0.055019 0.664924 0.008288
v 0.070334 0.690587 -0.003221
v 0.069651 0.690881 0.007413
v 0.086617 0.720743 0.006920
v 0.083780 0.722230 0.015192
v 0.100979 0.752083 0.014830
v 0.095245 0.754907 0.019985
v 0.111047 0.786668 0.022369
v 0.102423 0.789550 0.024561
v 0.046939 0.572103 -0.015998
v 0.050784 0.533653 -0.006970
v 0.047981 0.533587 -0.016673
v 0.041006 0.533399 -0.023309
v 0.046839 0.495644 -0.018390
v 0.039073 0.495075 -0.024825
v 0.030390 0.494668 -0.029344
v 0.032326 0.533438 -0.029097
v 0.019810 0.494611 -0.029932
v 0.021615 0.533555 -0.029825
v 0.010259 0.494692 -0.029758
v 0.011488 0.533689 -0.029901
v 0.002865 0.494631 -0.023826
v 0.003434 0.533807 -0.024007
v -0.003771 0.494539 -0.016767
v -0.003618 0.533768 -0.016909
v -0.006273 0.494700 -0.006190
v -0.006125 0.533515 -0.006568
v -0.006235 0.495132 0.006757
v -0.006268 0.533335 0.006589
v -0.003496 0.495614 0.017417
v -0.006168 0.454925 0.007206
v -0.003776 0.454787 0.017165
v 0.003001 0.454929 0.024417
v -0.005443 0.421201 0.015673
v 0.011738 0.455238 0.030718
v 0.023122 0.455713 0.030521
v 0.032832 0.422932 0.030257
v 0.033804 0.456114 0.029320
v 0.041950 0.422922 0.023186
v 0.042354 0.456360 0.022630
v 0.049027 0.422788 0.012806
v 0.049183 0.456697 0.012937
v 0.051735 0.422678 -0.000340
v 0.051896 0.457244 0.000858
v 0.052179 0.496039 0.002148
v 0.049348 0.457696 -0.010941
v 0.050114 0.495955 -0.008599
v 0.044858 0.457731 -0.020219
v 0.049229 0.422800 -0.012273
v 0.043346 0.422960 -0.021653
v 0.034579 0.423022 -0.028566
v 0.036766 0.457384 -0.026595
v 0.023056 0.422782 -0.030653
v 0.027383 0.457005 -0.029611
v 0.016551 0.456641 -0.030518
v 0.007606 0.456268 -0.028269
v 0.000789 0.455496 -0.022486
v -0.004284 0.454943 -0.015400
v -0.006396 0.455144 -0.005683
v -0.007585 0.420231 0.006725
v -0.007207 0.405530 0.014199
v 0.032306 0.391933 -0.030734
v 0.017615 0.393237 -0.032559
v 0.031264 0.355797 -0.032051
v 0.016125 0.356518 -0.034216
v 0.032150 0.316381 -0.033007
v 0.019616 0.316007 -0.033248
v 0.008165 0.315535 -0.031176
v 0.019009 0.278795 -0.032417
v 0.007305 0.278805 -0.030220
v -0.001964 0.278878 -0.022370
v -0.001887 0.314654 -0.023075
v -0.007291 0.278838 -0.010409
v -0.008087 0.313841 -0.010586
v -0.015215 0.347462 -0.009395
v -0.009532 0.313550 0.004210
v -0.016548 0.345689 0.005766
v -0.030283 0.374365 0.007544
v -0.031187 0.374909 -0.005974
v -0.044574 0.396559 0.009211
v -0.045621 0.396489 -0.003225
v -0.042492 0.398917 -0.014399
v -0.035609 0.403540 -0.020723
v -0.059948 0.421609 -0.002175
v -0.057441 0.422964 -0.012469
v -0.051269 0.426217 -0.019063
v -0.043488 0.430081 -0.020418
v -0.036562 0.433089 -0.016216
v -0.046304 0.451257 -0.016366
v -0.040677 0.453783 -0.009628
v -0.031193 0.434658 -0.008851
v -0.029434 0.434767 -0.001427
v -0.039176 0.454583 -0.000826
v -0.040631 0.453934 0.009018
v -0.030306 0.434123 0.006870
v -0.047618 0.462133 0.008816
v -0.034969 0.432393 0.015473
v -0.018790 0.410369 0.013772
v -0.043148 0.429584 0.020451
v -0.025052 0.406646 0.020467
v -0.052460 0.425206 0.017938
v -0.037374 0.400276 0.019390
v -0.024558 0.379341 0.019397
v -0.011664 0.388110 0.021969
v -0.058670 0.422218 0.009242
v -0.067763 0.440465 0.009244
v -0.068981 0.439659 -0.002841
v -0.068847 0.449966 0.007922
v -0.070758 0.448536 -0.003518
v -0.012177 0.347889 0.019319
v -0.004340 0.351576 0.027398
v -0.006189 0.313879 0.017355
v 0.002343 0.314244 0.026461
v 0.012337 0.314656 0.033007
v 0.006689 0.354073 0.032632
v 0.024773 0.315316 0.033166
v 0.021519 0.355555 0.033700
v 0.036651 0.315578 0.030491
v 0.034646 0.355528 0.029726
v 0.033714 0.390615 0.030499
v 0.043987 0.355127 0.022195
v 0.043035 0.389654 0.022884
v 0.049147 0.354760 0.011289
v 0.049519 0.389311 0.012148
v 0.051524 0.354597 -0.001556
v 0.052375 0.389288 -0.000784
v 0.048409 0.354795 -0.014171
v 0.049267 0.389837 -0.013146
v 0.041754 0.355246 -0.024149
v 0.042351 0.390801 -0.023278
v 0.050298 0.316583 -0.015572
v 0.042620 0.316574 -0.025693
v 0.047899 0.278233 -0.015663
v 0.040426 0.278507 -0.025173
v 0.030765 0.278551 -0.032099
v 0.038543 0.236604 -0.025163
v 0.029053 0.237311 -0.031919
v 0.017289 0.238061 -0.032370
v 0.026981 0.196675 -0.031969
v 0.015105 0.196861 -0.032364
v 0.003616 0.197055 -0.030066
v 0.005812 0.238981 -0.030392
v -0.005759 0.197254 -0.022042
v -0.003508 0.239257 -0.022448
v -0.010918 0.197336 -0.009744
v -0.009004 0.239298 -0.010130
v -0.012181 0.197314 0.004030
v -0.010410 0.239325 0.003863
v -0.008820 0.278660 0.003660
v -0.007140 0.239240 0.016784
v -0.005546 0.278471 0.016655
v 0.000737 0.238904 0.026145
v 0.002294 0.278652 0.026060
v 0.010231 0.238412 0.032195
v 0.012168 0.278990 0.032281
v 0.021781 0.237819 0.032367
v 0.023972 0.279244 0.032408
v 0.032931 0.237203 0.029609
v 0.034719 0.279317 0.029699
v 0.042575 0.236628 0.021860
v 0.044285 0.279090 0.021973
v 0.045785 0.316006 0.022718
v 0.049340 0.278651 0.009955
v 0.051376 0.316259 0.011055
v 0.051200 0.278286 -0.003073
v 0.053611 0.316456 -0.002661
v 0.047563 0.236323 0.009574
v 0.049217 0.236225 -0.003595
v 0.045919 0.236396 -0.016089
v 0.047505 0.195601 -0.003367
v 0.044247 0.196047 -0.015901
v 0.036918 0.196432 -0.025073
v 0.042226 0.152500 -0.016398
v 0.034582 0.152736 -0.025427
v 0.024670 0.153160 -0.032062
v 0.032728 0.114159 -0.025617
v 0.023233 0.114504 -0.032143
v 0.011844 0.114771 -0.032397
v 0.013014 0.153740 -0.032365
v 0.000421 0.115114 -0.030389
v 0.001532 0.154340 -0.029892
v -0.008467 0.115582 -0.022812
v -0.007643 0.154986 -0.022023
v -0.013987 0.116021 -0.011561
v -0.012585 0.155768 -0.010237
v -0.015985 0.116260 0.002891
v -0.014030 0.156407 0.003722
v -0.012524 0.116143 0.016730
v -0.010841 0.156503 0.016411
v -0.009019 0.197196 0.016565
v -0.003181 0.155893 0.025874
v -0.001565 0.196933 0.025734
v 0.007085 0.154860 0.032260
v 0.008545 0.196609 0.032269
v 0.019038 0.153887 0.032362
v 0.020516 0.196195 0.032364
v 0.029594 0.153212 0.029381
v 0.031202 0.195812 0.029578
v 0.038686 0.152767 0.022043
v 0.040631 0.195499 0.021965
v 0.043658 0.152596 0.010717
v 0.045662 0.195426 0.010101
v 0.045568 0.152506 -0.003629
v 0.042112 0.113757 0.010375
v 0.043682 0.113781 -0.004794
v 0.040302 0.113908 -0.017445
v 0.043463 0.075945 -0.006536
v 0.040004 0.075926 -0.018947
v 0.032003 0.075824 -0.026711
v 0.039811 0.039437 -0.020500
v 0.031191 0.039563 -0.027680
v 0.021355 0.039542 -0.033633
v 0.022159 0.075887 -0.032858
v 0.009279 0.039451 -0.033837
v 0.010201 0.076376 -0.033105
v -0.002771 0.039673 -0.032670
v -0.001182 0.077155 -0.031549
v -0.011894 0.039915 -0.025484
v -0.009948 0.077765 -0.024257
v -0.019110 0.039951 -0.015389
v -0.016487 0.078159 -0.013459
v -0.022520 0.039715 -0.000386
v -0.019125 0.078253 0.001799
v -0.018782 0.039643 0.016304
v -0.015405 0.077966 0.017122
v -0.009411 0.039825 0.027700
v -0.006585 0.077432 0.027351
v -0.004145 0.115636 0.026588
v 0.004614 0.076845 0.033052
v 0.006151 0.114956 0.032348
v 0.017247 0.076369 0.033077
v 0.017913 0.114213 0.032378
v 0.028572 0.076062 0.028970
v 0.028732 0.113807 0.028767
v 0.038090 0.075858 0.021416
v 0.037527 0.113747 0.021633
v 0.042737 0.075888 0.009083
v 0.039972 0.039282 0.020069
v 0.043727 0.039022 0.006586
v 0.043377 0.039179 -0.008425
v 0.044589 0.015490 0.003867
v 0.043069 0.015236 -0.010806
v 0.039408 0.015024 -0.021362
v 0.042619 0.005576 -0.012244
v 0.038310 0.005355 -0.022082
v 0.030668 0.005660 -0.027870
v 0.030754 0.015181 -0.028128
v 0.020377 0.006075 -0.033943
v 0.020451 0.015746 -0.034133
v 0.007277 0.006777 -0.034316
v 0.008176 0.016200 -0.034294
v -0.003716 0.007085 -0.033843
v -0.003189 0.016680 -0.033732
v -0.011998 0.007914 -0.027770
v -0.012116 0.017301 -0.027009
v -0.020123 0.008602 -0.019299
v -0.020304 0.017999 -0.017560
v -0.024156 0.008855 -0.004504
v -0.023915 0.018112 -0.002929
v -0.021672 0.008750 0.014091
v -0.020991 0.017742 0.014689
v -0.011825 0.008203 0.027725
v -0.011296 0.017111 0.027716
v 0.001705 0.007640 0.034394
v 0.002272 0.016821 0.034258
v 0.003175 0.039876 0.033800
v 0.017340 0.016391 0.034233
v 0.017026 0.039736 0.033782
v 0.030931 0.015798 0.027920
v 0.029545 0.039590 0.028545
v 0.040997 0.015572 0.018319
v 0.031387 0.006672 0.027540
v 0.041012 0.006105 0.017308
v 0.044759 0.005920 0.002600
v 0.036975 0.000331 0.015361
v 0.040044 0.000116 0.001564
v 0.032967 0.000000 0.000865
v 0.024836 0.000400 -0.000438
v 0.015395 0.000896 -0.001743
v 0.015699 0.000886 -0.011310
v 0.016731 0.000836 -0.020064
v 0.005189 0.001437 -0.002975
v 0.006291 0.001378 -0.012410
v 0.007059 0.001332 -0.021186
v 0.006870 0.001584 -0.029557
v 0.018698 0.000938 -0.028081
v -0.004038 0.001925 -0.003595
v -0.012529 0.002384 -0.004048
v -0.017785 0.003049 0.012714
v -0.019462 0.003020 -0.004695
v -0.009608 0.002624 0.024573
v 0.002126 0.002071 0.030231
v 0.016931 0.001446 0.030355
v 0.017480 0.007346 0.034376
v 0.029313 0.000996 0.024601
v -0.106889 0.991349 0.011188
v -0.106118 0.998917 0.007831
v -0.106996 0.971354 0.005081
v -0.105615 0.976919 0.001459
v -0.107409 0.975965 0.007052
v -0.104659 0.990258 0.001464
v -0.105353 0.990032 0.002990
v -0.105402 0.976962 0.000855
v -0.105405 0.974302 0.000523
v -0.105932 0.980345 0.002899
v -0.105197 0.980696 0.000714
v -0.104866 0.987234 0.000636
v -0.105529 0.987035 0.002731
v -0.105046 0.983895 0.000674
v -0.105783 0.983976 0.002902
vt 0.017787 0.242006
vt 0.023171 0.242030
vt 0.021691 0.249102
vt 0.015382 0.247207
vt 0.014496 0.237291
vt 0.022288 0.234523
vt 0.008475 0.243689
vt 0.006883 0.257331
vt 0.011158 0.260761
vt 0.005286 0.265792
vt 0.000479 0.258587
vt 0.007033 0.251805
vt 0.013627 0.253913
vt 0.000346 0.249723
vt 0.037967 0.265303
vt 0.040745 0.260645
vt 0.048307 0.264490
vt 0.042246 0.270414
vt 0.033895 0.274344
vt 0.032299 0.265967
vt 0.033927 0.258725
vt 0.008925 0.138658
vt 0.012384 0.120880
vt 0.043288 0.117967
vt 0.042510 0.127490
vt 0.040011 0.134570
vt 0.011208 0.148769
vt 0.687688 0.486411
vt 0.685588 0.501601
vt 0.659018 0.488931
vt 0.681518 0.470994
vt 0.683251 0.512654
vt 0.654907 0.503928
vt 0.650657 0.476950
vt 0.675563 0.461706
vt 0.120736 0.226248
vt 0.127741 0.225504
vt 0.126586 0.233717
vt 0.117675 0.231961
vt 0.117128 0.221219
vt 0.127186 0.217216
vt 0.110884 0.228147
vt 0.674089 0.094272
vt 0.687139 0.106127
vt 0.679777 0.114254
vt 0.655437 0.098582
vt 0.687249 0.077816
vt 0.694835 0.085997
vt 0.659259 0.085624
vt 0.043412 0.243016
vt 0.039396 0.239791
vt 0.043571 0.233099
vt 0.048518 0.239452
vt 0.051523 0.246658
vt 0.043583 0.247811
vt 0.037071 0.245942
vt 0.346059 0.106450
vt 0.351989 0.117881
vt 0.347466 0.124185
vt 0.324185 0.107053
vt 0.698146 0.090898
vt 0.693975 0.107649
vt 0.321915 0.097031
vt 0.352549 0.101014
vt 0.028156 0.063127
vt 0.034750 0.071106
vt 0.011416 0.067519
vt 0.010736 0.061927
vt 0.011893 0.061693
vt 0.011950 0.060871
vt 0.017185 0.054512
vt 0.009489 0.053012
vt 0.010812 0.052191
vt 0.032789 0.053356
vt 0.034333 0.056407
vt 0.012098 0.058748
vt 0.002252 0.062710
vt 0.005258 0.062437
vt 0.000846 0.067385
vt 0.097522 0.262030
vt 0.097762 0.266639
vt 0.097210 0.265931
vt 0.096984 0.266236
vt 0.094554 0.270326
vt 0.091212 0.268243
vt 0.049759 0.078156
vt 0.058028 0.074353
vt 0.055442 0.081559
vt 0.048753 0.081909
vt 0.089406 0.259706
vt 0.090306 0.253332
vt 0.097762 0.251684
vt 0.093612 0.085979
vt 0.091496 0.082827
vt 0.094460 0.080672
vt 0.095120 0.086911
vt 0.087063 0.087458
vt 0.081966 0.084045
vt 0.069050 0.077217
vt 0.069550 0.081909
vt 0.062387 0.080905
vt 0.062551 0.075548
vt 0.083103 0.249827
vt 0.077614 0.247912
vt 0.078564 0.240283
vt 0.087038 0.245345
vt 0.083550 0.254838
vt 0.077403 0.254209
vt 0.065987 0.249921
vt 0.070911 0.247958
vt 0.071873 0.253986
vt 0.065688 0.254627
vt 0.061849 0.246836
vt 0.068497 0.241309
vt 0.058839 0.253886
vt 0.101015 0.231480
vt 0.092357 0.232516
vt 0.092096 0.224433
vt 0.102442 0.225758
vt 0.456104 0.142120
vt 0.453551 0.148543
vt 0.443593 0.145756
vt 0.448899 0.137245
vt 0.221947 0.154355
vt 0.217691 0.157362
vt 0.215831 0.149835
vt 0.221314 0.147312
vt 0.400895 0.075264
vt 0.430286 0.072030
vt 0.428580 0.080835
vt 0.412909 0.083530
vt 0.401082 0.055699
vt 0.431743 0.058324
vt 0.111227 0.255888
vt 0.109689 0.250032
vt 0.116886 0.250979
vt 0.116061 0.258275
vt 0.111350 0.265226
vt 0.105381 0.259794
vt 0.101600 0.251927
vt 0.143195 0.229080
vt 0.147694 0.223614
vt 0.153690 0.233051
vt 0.145471 0.236024
vt 0.136586 0.226782
vt 0.139023 0.218473
vt 0.136516 0.235265
vt 0.208272 0.145727
vt 0.202932 0.144684
vt 0.204452 0.138349
vt 0.212020 0.142203
vt 0.209042 0.152134
vt 0.201555 0.151988
vt 0.196276 0.150553
vt 0.195825 0.145133
vt 0.199060 0.159483
vt 0.191274 0.155277
vt 0.188583 0.147021
vt 0.400214 0.494381
vt 0.424755 0.501975
vt 0.425467 0.509627
vt 0.394001 0.503795
vt 0.403485 0.490140
vt 0.421757 0.497235
vt 0.236479 0.233707
vt 0.215122 0.240443
vt 0.217061 0.233487
vt 0.230854 0.232002
vt 0.609033 0.166462
vt 0.586248 0.165320
vt 0.587357 0.156921
vt 0.604960 0.163398
vt 0.236410 0.229161
vt 0.219492 0.226390
vt 0.605669 0.174829
vt 0.586605 0.174250
vt 0.220209 0.219726
vt 0.232450 0.222359
vt 0.219621 0.212791
vt 0.229279 0.211253
vt 0.144850 0.262427
vt 0.148641 0.257276
vt 0.155933 0.261442
vt 0.149019 0.268072
vt 0.141600 0.271639
vt 0.139653 0.262957
vt 0.141663 0.255619
vt 0.381992 0.493432
vt 0.390143 0.483368
vt 0.355053 0.495088
vt 0.379899 0.476662
vt 0.357827 0.506892
vt 0.001263 0.364532
vt 0.008654 0.363114
vt 0.011426 0.368888
vt 0.001890 0.369466
vt 0.448358 0.432238
vt 0.452653 0.436367
vt 0.445733 0.442492
vt 0.441229 0.435895
vt 0.190798 0.134323
vt 0.196433 0.132400
vt 0.196211 0.138228
vt 0.189271 0.138872
vt 0.087191 0.277434
vt 0.084866 0.272524
vt 0.012596 0.077727
vt 0.002741 0.076891
vt 0.067412 0.264352
vt 0.071813 0.265588
vt 0.069343 0.272644
vt 0.063313 0.268143
vt 0.066448 0.259735
vt 0.072092 0.259533
vt 0.059480 0.261840
vt 0.087294 0.264729
vt 0.082497 0.266073
vt 0.082913 0.259713
vt 0.077230 0.259711
vt 0.077031 0.266563
vt 0.077142 0.274121
vt 0.046704 0.083338
vt 0.047143 0.091209
vt 0.041867 0.092478
vt 0.040915 0.082566
vt 0.042274 0.073241
vt 0.047560 0.076086
vt 0.997227 0.313543
vt 0.999236 0.323286
vt 0.989372 0.324646
vt 0.986986 0.315270
vt 0.984794 0.305885
vt 0.995571 0.304004
vt 0.067396 0.277404
vt 0.058981 0.272442
vt 0.983209 0.298649
vt 0.993276 0.296854
vt 0.054630 0.263635
vt 0.000680 0.166586
vt 0.010863 0.166614
vt 0.011524 0.175680
vt 0.001669 0.176049
vt 0.053998 0.253081
vt 0.011475 0.186889
vt 0.001586 0.186635
vt 0.058159 0.243350
vt 0.001559 0.315201
vt 0.010700 0.314172
vt 0.010916 0.325338
vt 0.001452 0.326422
vt 0.066652 0.235966
vt 0.993419 0.293824
vt 0.983210 0.291942
vt 0.985391 0.282325
vt 0.996196 0.282874
vt 0.079403 0.233748
vt 0.988600 0.271504
vt 0.999841 0.271530
vt 0.089974 0.239270
vt 0.000671 0.101934
vt 0.009998 0.097788
vt 0.012427 0.108310
vt 0.004163 0.115775
vt 0.958868 0.279239
vt 0.961490 0.270276
vt 0.969538 0.261540
vt 0.992414 0.261572
vt 0.924829 0.265216
vt 0.927416 0.257091
vt 0.031387 0.098304
vt 0.068788 0.086780
vt 0.067133 0.096638
vt 0.014239 0.118318
vt 0.934495 0.249616
vt 0.890957 0.250872
vt 0.893185 0.243181
vt 0.104962 0.084897
vt 0.106766 0.092984
vt 0.072927 0.101957
vt 0.034510 0.114327
vt 0.107795 0.101100
vt 0.073746 0.109042
vt 0.074923 0.050475
vt 0.074525 0.057284
vt 0.110939 0.056900
vt 0.110642 0.065743
vt 0.071639 0.065138
vt 0.110914 0.074389
vt 0.074727 0.073468
vt 0.280482 0.143819
vt 0.249226 0.135854
vt 0.250249 0.127599
vt 0.281169 0.135427
vt 0.311847 0.144271
vt 0.314425 0.154570
vt 0.965110 0.335793
vt 0.929084 0.341950
vt 0.927402 0.334605
vt 0.962802 0.328347
vt 0.009700 0.091580
vt 0.008934 0.082737
vt 0.032140 0.082435
vt 0.032979 0.092478
vt 0.039375 0.079267
vt 0.925511 0.326088
vt 0.960625 0.319427
vt 0.923686 0.317758
vt 0.958484 0.310596
vt 0.922370 0.311645
vt 0.956973 0.304153
vt 0.037478 0.167308
vt 0.072601 0.167746
vt 0.073050 0.175835
vt 0.037954 0.175735
vt 0.073244 0.185239
vt 0.037760 0.186053
vt 0.072926 0.193806
vt 0.036958 0.195525
vt 0.035506 0.310587
vt 0.035457 0.320480
vt 0.069166 0.314758
vt 0.070744 0.323332
vt 0.037406 0.329761
vt 0.013353 0.335718
vt 0.104194 0.309458
vt 0.105062 0.318066
vt 0.923047 0.273253
vt 0.886721 0.266011
vt 0.888700 0.258821
vt 0.848819 0.256435
vt 0.852085 0.249066
vt 0.856025 0.240915
vt 0.820208 0.230024
vt 0.824673 0.223186
vt 0.829331 0.216369
vt 0.859532 0.233364
vt 0.138343 0.078088
vt 0.172900 0.078608
vt 0.172569 0.086758
vt 0.139181 0.086678
vt 0.172042 0.095127
vt 0.139275 0.095250
vt 0.143499 0.056550
vt 0.173461 0.057016
vt 0.172416 0.066175
vt 0.142863 0.065821
vt 0.173158 0.075326
vt 0.143226 0.074663
vt 0.220165 0.130582
vt 0.188289 0.130978
vt 0.187512 0.122887
vt 0.219976 0.122188
vt 0.187733 0.114635
vt 0.221389 0.113697
vt 0.252621 0.119516
vt 0.891825 0.342002
vt 0.858777 0.352211
vt 0.855328 0.344354
vt 0.889701 0.333742
vt 0.893653 0.349227
vt 0.851584 0.336393
vt 0.887632 0.326075
vt 0.848164 0.329557
vt 0.885966 0.320115
vt 0.109601 0.167787
vt 0.148070 0.164350
vt 0.150260 0.173404
vt 0.110363 0.175598
vt 0.150834 0.183165
vt 0.110547 0.184252
vt 0.149944 0.193482
vt 0.110132 0.192488
vt 0.141453 0.305816
vt 0.142007 0.295593
vt 0.181183 0.298817
vt 0.180434 0.307732
vt 0.179843 0.316327
vt 0.141481 0.316017
vt 0.218356 0.310073
vt 0.217642 0.318735
vt 0.216991 0.326504
vt 0.179496 0.324203
vt 0.142004 0.324420
vt 0.255988 0.320993
vt 0.255301 0.328747
vt 0.789454 0.208836
vt 0.758038 0.187214
vt 0.762703 0.180602
vt 0.794258 0.202023
vt 0.767456 0.174135
vt 0.799108 0.195316
vt 0.209748 0.081443
vt 0.247851 0.083784
vt 0.247185 0.091848
vt 0.209191 0.089369
vt 0.246469 0.099948
vt 0.208559 0.097519
vt 0.245700 0.107488
vt 0.207773 0.105297
vt 0.205361 0.058175
vt 0.204251 0.067049
vt 0.237327 0.067802
vt 0.237728 0.076618
vt 0.204796 0.075909
vt 0.152672 0.133710
vt 0.115630 0.136420
vt 0.114440 0.128550
vt 0.151674 0.125968
vt 0.114231 0.120328
vt 0.151566 0.117794
vt 0.798927 0.392038
vt 0.767738 0.414079
vt 0.763388 0.407847
vt 0.794491 0.385561
vt 0.824575 0.363407
vt 0.828808 0.370172
vt 0.789878 0.378901
vt 0.820015 0.356422
vt 0.786014 0.373540
vt 0.816622 0.351463
vt 0.181388 0.165093
vt 0.213787 0.163514
vt 0.216451 0.170623
vt 0.183638 0.172293
vt 0.217225 0.179395
vt 0.184460 0.181349
vt 0.249724 0.168653
vt 0.250416 0.177291
vt 0.219065 0.301450
vt 0.257471 0.304036
vt 0.256740 0.312353
vt 0.293455 0.306338
vt 0.292895 0.314521
vt 0.292299 0.322922
vt 0.327693 0.316084
vt 0.327039 0.325009
vt 0.326687 0.333445
vt 0.291734 0.330812
vt 0.728124 0.166717
vt 0.699044 0.147308
vt 0.703109 0.140241
vt 0.732463 0.160133
vt 0.707351 0.132998
vt 0.737083 0.153550
vt 0.284561 0.086226
vt 0.320713 0.087885
vt 0.284063 0.094300
vt 0.283471 0.102568
vt 0.322895 0.113755
vt 0.282727 0.109997
vt 0.269561 0.068896
vt 0.303856 0.070242
vt 0.303304 0.079267
vt 0.269902 0.077643
vt 0.079405 0.138792
vt 0.040773 0.141893
vt 0.078409 0.131381
vt 0.078323 0.123296
vt 0.078706 0.115779
vt 0.738020 0.435687
vt 0.733955 0.429357
vt 0.705461 0.451020
vt 0.700764 0.443511
vt 0.729399 0.422669
vt 0.758748 0.401354
vt 0.725455 0.416998
vt 0.754730 0.395887
vt 0.246881 0.161869
vt 0.277867 0.160107
vt 0.280723 0.166456
vt 0.308422 0.157425
vt 0.311348 0.164023
vt 0.312239 0.172911
vt 0.281514 0.175193
vt 0.338896 0.161502
vt 0.340574 0.170940
vt 0.340951 0.181514
vt 0.312304 0.182650
vt 0.281400 0.184339
vt 0.367386 0.169658
vt 0.367715 0.181426
vt 0.359923 0.317910
vt 0.389037 0.319400
vt 0.388464 0.329589
vt 0.359473 0.327410
vt 0.388426 0.338840
vt 0.359363 0.336259
vt 0.671531 0.129444
vt 0.646083 0.114708
vt 0.649773 0.108136
vt 0.675283 0.122335
vt 0.388146 0.347004
vt 0.422155 0.339250
vt 0.424318 0.347453
vt 0.615299 0.094030
vt 0.617274 0.084581
vt 0.580438 0.085302
vt 0.582311 0.075761
vt 0.584194 0.066087
vt 0.618876 0.075659
vt 0.316156 0.225121
vt 0.349890 0.232647
vt 0.349010 0.242785
vt 0.316296 0.235378
vt 0.620199 0.066698
vt 0.657427 0.072477
vt 0.281312 0.231011
vt 0.315290 0.246399
vt 0.284115 0.242747
vt 0.258816 0.248196
vt 0.256535 0.237674
vt 0.686668 0.065855
vt 0.236660 0.259113
vt 0.234206 0.250355
vt 0.715455 0.051855
vt 0.718957 0.059911
vt 0.721942 0.067774
vt 0.747216 0.037455
vt 0.750281 0.044805
vt 0.753352 0.052595
vt 0.755837 0.059559
vt 0.723670 0.074866
vt 0.782034 0.030629
vt 0.784703 0.038648
vt 0.786746 0.046004
vt 0.788354 0.052283
vt 0.757587 0.064963
vt 0.817314 0.028658
vt 0.818620 0.036986
vt 0.819620 0.044243
vt 0.122430 0.446953
vt 0.123410 0.456100
vt 0.093263 0.456050
vt 0.092123 0.447295
vt 0.064553 0.150607
vt 0.063250 0.141187
vt 0.092190 0.140127
vt 0.093404 0.150150
vt 0.156073 0.445646
vt 0.157014 0.455252
vt 0.157168 0.466321
vt 0.123371 0.466194
vt 0.191563 0.445164
vt 0.192129 0.454715
vt 0.192140 0.465912
vt 0.191752 0.475744
vt 0.156685 0.476337
vt 0.229543 0.454034
vt 0.229891 0.465516
vt 0.229759 0.475031
vt 0.229087 0.481992
vt 0.190995 0.482986
vt 0.266887 0.464215
vt 0.266301 0.474126
vt 0.265310 0.481365
vt 0.958736 0.557971
vt 0.958022 0.567009
vt 0.921821 0.564947
vt 0.922273 0.556644
vt 0.959452 0.550815
vt 0.979137 0.551589
vt 0.978213 0.559002
vt 0.977214 0.568923
vt 0.976390 0.578556
vt 0.957351 0.576644
vt 0.986773 0.559947
vt 0.985485 0.570435
vt 0.985123 0.579485
vt 0.987565 0.552323
vt 0.003111 0.239463
vt 0.010547 0.231737
vt 0.294178 0.473446
vt 0.285853 0.473814
vt 0.286415 0.462995
vt 0.294608 0.462641
vt 0.021157 0.228080
vt 0.286354 0.450632
vt 0.294584 0.449641
vt 0.034178 0.228753
vt 0.032619 0.235829
vt 0.030642 0.243437
vt 0.035907 0.252165
vt 0.028924 0.250591
vt 0.027018 0.257674
vt 0.019641 0.256079
vt 0.024735 0.266396
vt 0.016541 0.264127
vt 0.022949 0.274792
vt 0.012739 0.271419
vt 0.996936 0.589691
vt 0.995896 0.599734
vt 0.987151 0.599249
vt 0.987877 0.588488
vt 0.022217 0.152375
vt 0.030389 0.151773
vt 0.031171 0.161732
vt 0.023641 0.161341
vt 0.044197 0.152151
vt 0.045594 0.162116
vt 0.975693 0.586642
vt 0.957144 0.585192
vt 0.984728 0.587070
vt 0.072493 0.152484
vt 0.073887 0.162497
vt 0.921163 0.582984
vt 0.921367 0.574247
vt 0.883197 0.581805
vt 0.883394 0.573565
vt 0.883645 0.564325
vt 0.847219 0.573295
vt 0.847864 0.563852
vt 0.848526 0.555173
vt 0.883969 0.555899
vt 0.811906 0.560678
vt 0.813642 0.552867
vt 0.155734 0.483528
vt 0.121118 0.483041
vt 0.122764 0.475740
vt 0.089755 0.481380
vt 0.092067 0.474573
vt 0.092992 0.465762
vt 0.062806 0.473537
vt 0.063770 0.464967
vt 0.064022 0.455364
vt 0.032952 0.463608
vt 0.033457 0.454526
vt 0.032348 0.446529
vt 0.062767 0.446949
vt 0.011817 0.454637
vt 0.011011 0.448353
vt 0.006150 0.441745
vt 0.029938 0.440463
vt 0.725561 0.079561
vt 0.107394 0.107191
vt 0.107774 0.102248
vt 0.132111 0.100712
vt 0.130961 0.109828
vt 0.132111 0.117579
vt 0.105393 0.113649
vt 0.010892 0.459610
vt 0.014734 0.154570
vt 0.031935 0.471874
vt 0.007590 0.465712
vt 0.029381 0.476736
vt 0.000645 0.470383
vt 0.720904 0.508477
vt 0.753103 0.523766
vt 0.750416 0.529231
vt 0.718383 0.511596
vt 0.747240 0.536173
vt 0.715667 0.520339
vt 0.783578 0.537434
vt 0.781437 0.543201
vt 0.778878 0.550363
vt 0.776131 0.558152
vt 0.744076 0.544014
vt 0.809742 0.569838
vt 0.807920 0.577758
vt 0.773881 0.565270
vt 0.846739 0.581335
vt 0.133291 0.160859
vt 0.132575 0.151674
vt 0.163818 0.152739
vt 0.163681 0.162497
vt 0.104106 0.161960
vt 0.103092 0.152596
vt 0.896494 0.588634
vt 0.895942 0.598264
vt 0.859402 0.598671
vt 0.859888 0.588623
vt 0.934461 0.589089
vt 0.934321 0.598944
vt 0.934476 0.609713
vt 0.895689 0.609603
vt 0.970226 0.588793
vt 0.970055 0.599088
vt 0.970015 0.610275
vt 0.970447 0.619761
vt 0.934926 0.619414
vt 0.987289 0.610951
vt 0.988342 0.620095
vt 0.010787 0.297251
vt 0.009716 0.287609
vt 0.025969 0.287170
vt 0.026604 0.296858
vt 0.995930 0.610699
vt 0.997191 0.619247
vt 0.002316 0.297112
vt 0.001311 0.288358
vt 0.963123 0.005954
vt 0.963661 0.015086
vt 0.926863 0.015944
vt 0.926835 0.007202
vt 0.058003 0.286225
vt 0.058126 0.295934
vt 0.981548 0.005327
vt 0.982545 0.014981
vt 0.983362 0.024003
vt 0.963986 0.024469
vt 0.990676 0.005257
vt 0.991430 0.014903
vt 0.992272 0.023234
vt 0.051523 0.254751
vt 0.043366 0.253786
vt 0.964243 0.033091
vt 0.926839 0.034503
vt 0.926882 0.025609
vt 0.983864 0.031748
vt 0.984230 0.039547
vt 0.964550 0.041161
vt 0.992393 0.030851
vt 0.992834 0.037864
vt 0.266295 0.442561
vt 0.266963 0.452392
vt 0.228891 0.444133
vt 0.187598 0.149780
vt 0.155589 0.150607
vt 0.154777 0.141006
vt 0.186294 0.140391
vt 0.285702 0.440995
vt 0.123548 0.150421
vt 0.122821 0.140998
vt 0.889068 0.035305
vt 0.852943 0.035368
vt 0.852448 0.026229
vt 0.888692 0.026142
vt 0.851978 0.016707
vt 0.888161 0.016646
vt 0.851541 0.008233
vt 0.887709 0.008025
vt 0.092780 0.285395
vt 0.125106 0.285017
vt 0.125490 0.294518
vt 0.093016 0.295027
vt 0.895925 0.619494
vt 0.859805 0.619673
vt 0.859395 0.610267
vt 0.821322 0.620396
vt 0.820015 0.611063
vt 0.819527 0.599237
vt 0.786593 0.611246
vt 0.786422 0.601101
vt 0.787275 0.592048
vt 0.820254 0.588857
vt 0.755190 0.602212
vt 0.756132 0.593138
vt 0.772115 0.571098
vt 0.739736 0.556904
vt 0.741633 0.550954
vt 0.806266 0.585160
vt 0.707565 0.542586
vt 0.709731 0.536196
vt 0.712451 0.528704
vt 0.680725 0.522168
vt 0.678980 0.529888
vt 0.649694 0.523221
vt 0.651425 0.514634
vt 0.000886 0.209756
vt 0.002236 0.198415
vt 0.029852 0.198276
vt 0.030671 0.209415
vt 0.616640 0.518359
vt 0.615721 0.508847
vt 0.581855 0.524773
vt 0.580155 0.515779
vt 0.578240 0.505566
vt 0.615785 0.498456
vt 0.576402 0.495182
vt 0.612555 0.489595
vt 0.575127 0.487706
vt 0.610125 0.481711
vt 0.645088 0.469932
vt 0.362490 0.151232
vt 0.398336 0.149493
vt 0.399963 0.157141
vt 0.365773 0.158747
vt 0.335561 0.154539
vt 0.670828 0.454979
vt 0.696524 0.437109
vt 0.400265 0.168683
vt 0.434192 0.158338
vt 0.434237 0.168925
vt 0.434095 0.182790
vt 0.399644 0.182049
vt 0.433671 0.194056
vt 0.398528 0.192738
vt 0.420737 0.318395
vt 0.420313 0.329389
vt 0.453136 0.326517
vt 0.455361 0.336544
vt 0.484995 0.321137
vt 0.487715 0.331515
vt 0.578777 0.093813
vt 0.543181 0.088626
vt 0.544512 0.079573
vt 0.613695 0.101849
vt 0.504391 0.084759
vt 0.505597 0.074911
vt 0.506951 0.063815
vt 0.545916 0.069118
vt 0.508214 0.053608
vt 0.547085 0.058712
vt 0.385075 0.238656
vt 0.421294 0.242588
vt 0.420612 0.253570
vt 0.384537 0.249297
vt 0.418565 0.264715
vt 0.383048 0.259670
vt 0.347590 0.253184
vt 0.601878 0.624942
vt 0.562879 0.621725
vt 0.562774 0.610861
vt 0.602260 0.613886
vt 0.636805 0.615734
vt 0.636595 0.627035
vt 0.602310 0.601420
vt 0.636938 0.603258
vt 0.668004 0.604704
vt 0.668248 0.616729
vt 0.670134 0.627401
vt 0.696968 0.604304
vt 0.697384 0.616096
vt 0.699201 0.625838
vt 0.724144 0.603221
vt 0.724338 0.614167
vt 0.726141 0.623337
vt 0.755344 0.612461
vt 0.756743 0.621195
vt 0.211725 0.271062
vt 0.209564 0.262765
vt 0.787743 0.619603
vt 0.186525 0.282374
vt 0.184606 0.274247
vt 0.779430 0.023521
vt 0.159642 0.291662
vt 0.158309 0.282510
vt 0.813694 0.010881
vt 0.815615 0.019555
vt 0.697770 0.593627
vt 0.725224 0.593623
vt 0.669128 0.593397
vt 0.636921 0.592276
vt 0.602109 0.590985
vt 0.562613 0.599472
vt 0.562577 0.589793
vt 0.060429 0.196402
vt 0.094469 0.195543
vt 0.095015 0.205417
vt 0.061405 0.206774
vt 0.127691 0.197093
vt 0.128206 0.207443
vt 0.542827 0.529880
vt 0.503425 0.531730
vt 0.502005 0.522503
vt 0.541828 0.520489
vt 0.500860 0.511686
vt 0.540843 0.509507
vt 0.499981 0.501976
vt 0.539953 0.499181
vt 0.499335 0.495027
vt 0.539421 0.491540
vt 0.469629 0.151465
vt 0.509869 0.152329
vt 0.509928 0.160192
vt 0.469638 0.159407
vt 0.433723 0.150595
vt 0.509613 0.171248
vt 0.469753 0.170228
vt 0.508946 0.184477
vt 0.469713 0.183699
vt 0.508232 0.195105
vt 0.469350 0.194565
vt 0.550232 0.185570
vt 0.550171 0.195525
vt 0.519333 0.314823
vt 0.556361 0.307846
vt 0.558858 0.317551
vt 0.522017 0.325014
vt 0.586245 0.300282
vt 0.587249 0.309553
vt 0.462439 0.081105
vt 0.463763 0.071321
vt 0.465586 0.059933
vt 0.433273 0.046397
vt 0.467254 0.049404
vt 0.459389 0.245126
vt 0.490954 0.246597
vt 0.490160 0.258407
vt 0.458381 0.256216
vt 0.487935 0.270749
vt 0.455907 0.267877
vt 0.483366 0.619174
vt 0.448538 0.618694
vt 0.448594 0.604999
vt 0.484089 0.606576
vt 0.523927 0.608281
vt 0.523837 0.619394
vt 0.484608 0.594734
vt 0.523896 0.597467
vt 0.484638 0.585642
vt 0.523600 0.587737
vt 0.448777 0.593012
vt 0.448910 0.583942
vt 0.160641 0.199371
vt 0.190864 0.201060
vt 0.190684 0.212521
vt 0.160823 0.209940
vt 0.464626 0.533108
vt 0.429234 0.534246
vt 0.427766 0.522345
vt 0.463205 0.523311
vt 0.461712 0.512239
vt 0.460487 0.503391
vt 0.459169 0.497089
vt 0.550067 0.154525
vt 0.550579 0.162271
vt 0.550233 0.172408
vt 0.585892 0.185768
vt 0.600813 0.185857
vt 0.600857 0.193609
vt 0.584713 0.194695
vt 0.397174 0.534939
vt 0.396969 0.519680
vt 0.360104 0.537487
vt 0.359249 0.521801
vt 0.319888 0.542372
vt 0.318230 0.529634
vt 0.316646 0.518229
vt 0.280165 0.532942
vt 0.279051 0.521243
vt 0.278405 0.512557
vt 0.314953 0.508870
vt 0.140563 0.351929
vt 0.177314 0.352558
vt 0.177451 0.365306
vt 0.141508 0.365298
vt 0.107080 0.367297
vt 0.099449 0.353649
vt 0.141849 0.380569
vt 0.108942 0.382928
vt 0.079694 0.386151
vt 0.079129 0.372415
vt 0.073234 0.360338
vt 0.115184 0.399216
vt 0.113204 0.411593
vt 0.086673 0.406109
vt 0.088937 0.394594
vt 0.057181 0.376680
vt 0.054626 0.364956
vt 0.397193 0.459674
vt 0.402439 0.465593
vt 0.031593 0.379207
vt 0.030150 0.368440
vt 0.420308 0.442162
vt 0.424075 0.447473
vt 0.428773 0.454861
vt 0.409145 0.473461
vt 0.026707 0.361110
vt 0.188144 0.240000
vt 0.190432 0.231911
vt 0.450240 0.450195
vt 0.432664 0.462001
vt 0.169897 0.229468
vt 0.171547 0.220231
vt 0.192607 0.222705
vt 0.457746 0.443672
vt 0.159843 0.227699
vt 0.161605 0.218916
vt 0.193409 0.215894
vt 0.053563 0.000887
vt 0.073028 0.000743
vt 0.073982 0.009606
vt 0.053796 0.008324
vt 0.073409 0.019817
vt 0.053219 0.016900
vt 0.171586 0.212176
vt 0.161429 0.211253
vt 0.092609 0.206509
vt 0.102876 0.207449
vt 0.103047 0.216696
vt 0.092208 0.214888
vt 0.209317 0.159855
vt 0.069415 0.212817
vt 0.069702 0.222695
vt 0.041995 0.217860
vt 0.042473 0.210078
vt 0.030557 0.015010
vt 0.030557 0.005692
vt 0.070963 0.232516
vt 0.041391 0.227990
vt 0.431161 0.125332
vt 0.425607 0.134616
vt 0.401933 0.116293
vt 0.409879 0.104436
vt 0.083960 0.418972
vt 0.108389 0.425187
vt 0.382073 0.100953
vt 0.392531 0.088556
vt 0.055244 0.410391
vt 0.057365 0.399375
vt 0.059821 0.388623
vt 0.034529 0.406034
vt 0.036896 0.395060
vt 0.039699 0.383746
vt 0.013186 0.379448
vt 0.012356 0.391692
vt 0.002612 0.390471
vt 0.004093 0.378952
vt 0.206316 0.132400
vt 0.216581 0.138418
vt 0.027968 0.393572
vt 0.025404 0.403506
vt 0.145522 0.416518
vt 0.142377 0.430824
vt 0.351430 0.084848
vt 0.356092 0.076076
vt 0.140386 0.442172
vt 0.176583 0.431362
vt 0.177722 0.443894
vt 0.318780 0.065173
vt 0.320358 0.054095
vt 0.359922 0.064405
vt 0.322492 0.041609
vt 0.363174 0.049456
vt 0.324162 0.030096
vt 0.364700 0.036860
vt 0.400396 0.041732
vt 0.521799 0.249914
vt 0.554918 0.254166
vt 0.554373 0.266483
vt 0.521751 0.262318
vt 0.414299 0.629194
vt 0.378863 0.628038
vt 0.378684 0.616412
vt 0.414170 0.617623
vt 0.519489 0.274439
vt 0.378678 0.603053
vt 0.414317 0.604135
vt 0.378932 0.590425
vt 0.414931 0.591767
vt 0.218026 0.190331
vt 0.248539 0.191233
vt 0.250066 0.203097
vt 0.219084 0.202508
vt 0.189068 0.190203
vt 0.397240 0.545993
vt 0.360822 0.548977
vt 0.217761 0.215341
vt 0.282921 0.190203
vt 0.284549 0.202954
vt 0.321347 0.553708
vt 0.315363 0.191641
vt 0.316558 0.203828
vt 0.282238 0.555460
vt 0.281114 0.544960
vt 0.239226 0.557877
vt 0.238801 0.547499
vt 0.238365 0.535407
vt 0.197063 0.549586
vt 0.196041 0.537445
vt 0.195140 0.525955
vt 0.238198 0.523824
vt 0.218169 0.343494
vt 0.261268 0.343923
vt 0.261214 0.353035
vt 0.218035 0.352519
vt 0.177240 0.343635
vt 0.261222 0.366112
vt 0.218091 0.365647
vt 0.261283 0.380321
vt 0.218103 0.380095
vt 0.177676 0.379842
vt 0.218160 0.392993
vt 0.177839 0.392816
vt 0.141479 0.393692
vt 0.209691 0.430160
vt 0.245267 0.428409
vt 0.246738 0.440803
vt 0.210662 0.442587
vt 0.282453 0.061171
vt 0.241706 0.058132
vt 0.242302 0.047532
vt 0.283941 0.050258
vt 0.243054 0.035793
vt 0.285587 0.038367
vt 0.243743 0.024925
vt 0.286932 0.027978
vt 0.627076 0.260785
vt 0.666585 0.263040
vt 0.666183 0.275753
vt 0.626339 0.273391
vt 0.591929 0.270929
vt 0.593384 0.258691
vt 0.338714 0.627999
vt 0.300776 0.626980
vt 0.300531 0.614225
vt 0.339187 0.615566
vt 0.300309 0.600723
vt 0.339555 0.601332
vt 0.300301 0.588133
vt 0.339736 0.588417
vt 0.257026 0.613546
vt 0.257075 0.599921
vt 0.257298 0.587432
vt 0.215317 0.599878
vt 0.215822 0.587348
vt 0.351117 0.192931
vt 0.385428 0.193590
vt 0.386434 0.205441
vt 0.352218 0.204751
vt 0.422680 0.194939
vt 0.423645 0.206937
vt 0.198012 0.560385
vt 0.153112 0.562491
vt 0.152358 0.551725
vt 0.113496 0.564574
vt 0.112708 0.554251
vt 0.111821 0.542609
vt 0.151763 0.539775
vt 0.111071 0.531144
vt 0.151283 0.528266
vt 0.305175 0.344184
vt 0.345483 0.343675
vt 0.345145 0.352284
vt 0.304658 0.353120
vt 0.344791 0.364325
vt 0.303944 0.365653
vt 0.344595 0.379299
vt 0.303329 0.380071
vt 0.344682 0.393118
vt 0.303200 0.392740
vt 0.261374 0.392834
vt 0.283401 0.426129
vt 0.320296 0.423971
vt 0.321913 0.436334
vt 0.284678 0.438132
vt 0.198602 0.055665
vt 0.156529 0.052526
vt 0.156664 0.041032
vt 0.199443 0.044386
vt 0.157075 0.028854
vt 0.200426 0.032256
vt 0.157635 0.018614
vt 0.201299 0.021887
vt 0.705440 0.265242
vt 0.745405 0.267751
vt 0.744922 0.279750
vt 0.704799 0.277674
vt 0.214851 0.626415
vt 0.170925 0.626217
vt 0.170946 0.614180
vt 0.214980 0.613823
vt 0.257133 0.626569
vt 0.171019 0.599328
vt 0.131030 0.613558
vt 0.131220 0.597894
vt 0.131396 0.585252
vt 0.171062 0.586559
vt 0.092371 0.595731
vt 0.092394 0.583340
vt 0.455906 0.196641
vt 0.489366 0.197387
vt 0.489959 0.208815
vt 0.456517 0.208014
vt 0.521590 0.198105
vt 0.521520 0.209630
vt 0.074218 0.567695
vt 0.037054 0.570524
vt 0.035872 0.559945
vt 0.073116 0.557081
vt 0.034551 0.547647
vt 0.072399 0.544839
vt 0.033591 0.535475
vt 0.072086 0.533325
vt 0.033113 0.526857
vt 0.072024 0.525042
vt 0.384496 0.342538
vt 0.384010 0.350844
vt 0.422915 0.349673
vt 0.422999 0.360694
vt 0.383716 0.362520
vt 0.423313 0.376367
vt 0.383680 0.378380
vt 0.423354 0.393075
vt 0.383941 0.393692
vt 0.390875 0.420143
vt 0.425102 0.416641
vt 0.426262 0.431630
vt 0.392722 0.433793
vt 0.358565 0.435404
vt 0.356839 0.422312
vt 0.115330 0.048728
vt 0.076053 0.046648
vt 0.076754 0.034375
vt 0.115830 0.037345
vt 0.077752 0.021582
vt 0.116454 0.025398
vt 0.078781 0.010790
vt 0.117321 0.015025
vt 0.782335 0.270848
vt 0.818112 0.273830
vt 0.817405 0.286285
vt 0.781505 0.282446
vt 0.130829 0.625488
vt 0.091927 0.624815
vt 0.092160 0.611779
vt 0.054411 0.622882
vt 0.054338 0.608745
vt 0.054625 0.593417
vt 0.030210 0.605637
vt 0.030049 0.590755
vt 0.029854 0.580277
vt 0.054928 0.581382
vt 0.020132 0.589222
vt 0.019909 0.579536
vt 0.012983 0.582027
vt 0.002971 0.581841
vt 0.002349 0.573478
vt 0.012081 0.572556
vt 0.542978 0.198681
vt 0.542693 0.209955
vt 0.001564 0.562380
vt 0.011449 0.561438
vt 0.000944 0.548942
vt 0.010666 0.548885
vt 0.000160 0.537770
vt 0.010021 0.537324
vt 0.000337 0.529839
vt 0.009939 0.528822
vt 0.446145 0.348072
vt 0.455784 0.347256
vt 0.455210 0.356707
vt 0.445562 0.358529
vt 0.455031 0.372229
vt 0.445521 0.373842
vt 0.455127 0.391006
vt 0.445882 0.391576
vt 0.444794 0.413483
vt 0.452955 0.412362
vt 0.454505 0.429555
vt 0.446489 0.430058
vt 0.013938 0.044363
vt 0.004785 0.043864
vt 0.005781 0.029089
vt 0.015218 0.029600
vt 0.038854 0.031430
vt 0.037340 0.045091
vt 0.016550 0.014367
vt 0.040339 0.017455
vt 0.852060 0.264677
vt 0.874380 0.266637
vt 0.875234 0.281554
vt 0.852673 0.278008
vt 0.817170 0.262163
vt 0.873928 0.295771
vt 0.851908 0.291790
vt 0.883825 0.282945
vt 0.882537 0.297251
vt 0.030095 0.620749
vt 0.020380 0.619612
vt 0.020395 0.604224
vt 0.014389 0.617920
vt 0.014351 0.603524
vt 0.014430 0.590172
vt 0.100512 0.238253
vt 0.104573 0.224311
vt 0.107706 0.239436
vt 0.115966 0.241309
vt 0.125572 0.243268
vt 0.124631 0.253056
vt 0.122995 0.261962
vt 0.135968 0.245204
vt 0.134216 0.254803
vt 0.132849 0.263749
vt 0.132505 0.272344
vt 0.120458 0.270051
vt 0.132039 0.277194
vt 0.118615 0.275949
vt 0.108456 0.269044
vt 0.143342 0.277434
vt 0.145400 0.246447
vt 0.154088 0.247471
vt 0.160607 0.230634
vt 0.161176 0.248592
vt 0.463077 0.396820
vt 0.460054 0.413048
vt 0.455782 0.394667
vt 0.460729 0.383746
vt 0.467674 0.387783
vt 0.152993 0.217937
vt 0.461202 0.427800
vt 0.141323 0.211364
vt 0.465186 0.438957
vt 0.459000 0.442550
vt 0.126140 0.210261
vt 0.000159 0.028690
vt 0.001261 0.013674
vt 0.007335 0.013157
vt 0.002272 0.002066
vt 0.008301 0.000159
vt 0.883020 0.267433
vt 0.113061 0.215344
vt 0.014840 0.628067
vt 0.020684 0.630949
vt 0.161176 0.263605
vt 0.152264 0.271754
vt 0.100997 0.262607
vt 0.014458 0.582966
vt 0.178324 0.418005
vt 0.599786 0.295593
vt 0.599072 0.303294
vt 0.294090 0.440463
vt 0.354059 0.088474
vt 0.085034 0.009000
vt 0.077952 0.009248
vt 0.075655 0.001139
vt 0.087193 0.001139
vt 0.031882 0.212200
vt 0.018023 0.226226
vt 0.410853 0.087327
vt 0.011774 0.119147
vt 0.004953 0.124185
vt 0.075303 0.078419
vt 0.070586 0.076330
vt 0.023780 0.008926
vt 0.019877 0.010569
vt 0.010058 0.010569
vt 0.017007 0.008235
vt 0.074358 0.084466
vt 0.073472 0.080672
vt 0.082509 0.088515
vt 0.024047 0.002442
vt 0.023850 0.001833
vt 0.026422 0.000851
vt 0.026422 0.007927
vt 0.020991 0.004741
vt 0.020083 0.002589
vt 0.010706 0.005629
vt 0.013530 0.004083
vt 0.014261 0.006176
vt 0.011328 0.007152
vt 0.016877 0.003319
vt 0.017364 0.005619
s 1
usemtl tripo_mat_fb55ff9f-79a2-40e9-92c7-4998c7368a5b
f 1/1 34/2 35/3 36/4
f 1/1 37/5 38/6 34/2
f 1/1 36/4 39/7 37/5
f 2/8 40/9 41/10 42/11
f 2/8 43/12 44/13 40/9
f 2/8 42/11 45/14 43/12
f 3/15 46/16 47/17 48/18
f 3/15 48/18 49/19 50/20
f 3/15 50/20 51/21 46/16
f 4/22 52/23 53/24 54/25
f 4/22 54/25 55/26 56/27
f 4/28 57/29 5/30 52/31
f 5/30 57/29 58/32 59/33
f 5/30 60/34 61/35 52/31
f 6/36 62/37 63/38 64/39
f 6/36 65/40 66/41 62/37
f 6/36 64/39 67/42 65/40
f 7/43 68/44 69/45 70/46
f 72/47 73/48 68/44 7/43
f 7/43 70/46 71/49 72/47
f 8/50 74/51 75/52 76/53
f 8/50 76/53 77/54 78/55
f 8/50 78/55 79/56 74/51
f 9/57 80/58 81/59 82/60
f 68/44 73/48 80/61 9/62
f 9/57 82/60 83/63 68/64
f 10/65 84/66 85/67 86/68
f 10/65 86/68 87/69 88/70
f 11/71 89/72 90/73 91/74
f 11/71 91/74 92/75 93/76
f 12/77 94/78 85/67 31/79
f 13/80 96/81 94/82 12/83
f 12/83 31/84 95/85 13/80
f 13/86 17/87 97/88 98/89
f 13/80 99/90 100/91 18/92
f 14/93 101/94 102/95 103/96
f 14/93 104/97 105/98 101/94
f 14/99 106/100 107/101 104/102
f 15/103 108/104 109/105 110/106
f 15/103 110/106 100/91 111/107
f 15/103 111/107 112/108 108/104
f 16/109 113/110 114/111 115/112
f 16/109 116/113 117/114 113/110
f 16/109 115/112 118/115 116/113
f 17/87 104/102 107/101 97/88
f 19/116 119/117 120/118 121/119
f 19/120 122/121 123/122 119/123
f 19/124 121/125 124/126 122/127
f 20/128 125/129 126/130 127/131
f 20/128 128/132 129/133 125/129
f 21/134 130/135 131/136 132/137
f 21/134 132/137 133/138 134/139
f 21/134 134/139 135/140 130/135
f 22/141 136/142 137/143 138/144
f 22/141 139/145 140/146 136/142
f 22/141 138/144 141/147 139/145
f 23/148 142/149 143/150 144/151
f 23/148 144/151 124/126 145/152
f 23/148 145/152 146/153 142/149
f 24/154 147/155 142/149 146/153
f 24/154 146/153 148/156 149/157
f 24/154 149/157 150/158 147/155
f 25/159 151/160 152/161 153/162
f 25/159 154/163 155/164 151/160
f 25/165 156/166 157/167 154/168
f 26/169 158/170 155/171 154/172
f 26/173 154/168 157/167 159/174
f 26/169 27/175 160/176 158/170
f 26/173 159/174 161/177 27/178
f 27/178 161/177 162/179 163/180
f 28/181 164/182 165/183 166/184
f 28/181 166/184 167/185 168/186
f 28/181 168/186 169/187 164/182
f 29/188 170/189 25/159 153/162
f 172/190 173/191 170/189 29/188
f 29/188 153/162 171/192 172/190
f 30/193 174/194 175/195 176/196
f 30/197 177/198 178/199 174/200
f 30/201 176/202 179/203 177/204
f 31/84 180/205 181/206 95/85
f 31/79 85/67 182/207 180/208
f 32/209 183/210 184/211 185/212
f 32/209 186/213 187/214 183/210
f 32/209 185/212 188/215 186/213
f 33/216 189/217 190/218 99/90
f 33/216 95/85 181/206 189/217
f 190/218 191/219 112/108 111/107
f 190/218 111/107 100/91 99/90
f 190/218 189/217 192/220 191/219
f 192/220 189/217 181/206 193/221
f 192/220 193/221 184/211 183/210
f 192/220 183/210 187/214 191/219
f 193/222 181/223 180/224 194/225
f 193/222 194/225 195/226 184/227
f 195/228 194/229 196/230 197/231
f 195/228 197/231 198/232 199/233
f 195/234 199/235 185/212 184/211
f 199/233 198/232 200/236 201/237
f 199/235 201/238 188/215 185/212
f 201/239 200/240 202/241 203/242
f 201/238 203/243 118/115 188/215
f 203/242 202/241 204/244 205/245
f 203/243 205/246 116/113 118/115
f 205/247 204/248 206/249 207/250
f 205/246 207/251 117/114 116/113
f 207/252 206/253 208/254 209/255
f 207/251 209/256 109/105 117/114
f 209/255 208/254 210/257 211/258
f 209/256 211/259 110/106 109/105
f 211/260 210/261 212/262 18/263
f 211/259 18/92 100/91 110/106
f 210/257 208/254 213/264 214/265
f 210/257 214/265 215/266 212/267
f 215/266 214/265 216/268 217/269
f 215/270 217/271 218/272 90/273
f 218/274 217/269 219/275 220/276
f 218/272 220/277 221/278 222/279
f 218/272 222/279 91/280 90/273
f 222/279 221/278 223/281 224/282
f 222/283 224/284 92/75 91/74
f 224/284 223/285 225/286 226/287
f 224/284 226/287 10/65 92/75
f 226/287 225/286 227/288 228/289
f 226/287 228/289 84/66 10/65
f 228/290 227/291 229/292 230/293
f 228/290 230/293 231/294 84/295
f 231/296 230/297 232/298 233/299
f 231/300 233/301 196/302 182/303
f 231/304 182/207 85/67 84/66
f 233/299 232/298 234/305 235/306
f 233/299 235/306 197/231 196/230
f 235/306 234/305 236/307 237/308
f 235/306 237/308 198/232 197/231
f 237/308 236/307 238/309 239/310
f 237/308 239/310 200/236 198/232
f 239/311 238/312 240/313 241/314
f 239/311 241/314 202/241 200/240
f 241/314 240/313 242/315 243/316
f 241/314 243/316 204/244 202/241
f 243/316 242/315 244/317 245/318
f 243/319 245/320 206/249 204/248
f 245/320 244/321 246/322 213/323
f 245/320 213/323 208/324 206/249
f 246/322 244/321 247/325 248/326
f 246/327 248/328 249/329 216/268
f 246/327 216/268 214/265 213/264
f 249/329 248/328 250/330 251/331
f 249/329 251/331 252/332 219/275
f 249/329 219/275 217/269 216/268
f 252/332 251/331 253/333 254/334
f 252/332 254/334 255/335 256/336
f 252/332 256/336 220/276 219/275
f 256/337 255/338 257/339 258/340
f 256/337 258/340 221/278 220/277
f 258/340 257/339 259/341 260/342
f 258/340 260/342 223/281 221/278
f 260/343 259/344 261/345 262/346
f 260/343 262/346 225/286 223/285
f 262/346 261/345 263/347 264/348
f 262/346 264/348 227/288 225/286
f 264/349 263/350 265/351 266/352
f 264/349 266/352 229/292 227/291
f 266/352 265/351 267/353 268/354
f 266/352 268/354 269/355 229/292
f 269/356 268/357 270/358 271/359
f 269/356 271/359 234/305 232/298
f 269/356 232/298 230/297 229/360
f 271/359 270/358 272/361 273/362
f 271/359 273/362 236/307 234/305
f 273/362 272/361 274/363 275/364
f 273/362 275/364 238/309 236/307
f 275/365 274/366 276/367 277/368
f 275/365 277/368 240/313 238/312
f 277/368 276/367 278/369 279/370
f 277/368 279/370 242/315 240/313
f 279/370 278/369 280/371 247/372
f 279/370 247/372 244/317 242/315
f 280/373 278/374 281/375 282/376
f 280/373 282/376 283/377 250/378
f 280/373 250/378 248/326 247/325
f 283/377 282/376 284/379 285/380
f 283/377 285/380 286/381 253/382
f 283/377 253/382 251/383 250/378
f 286/381 285/380 287/384 288/385
f 286/386 288/387 289/388 290/389
f 286/386 290/389 254/334 253/333
f 290/389 289/388 291/390 292/391
f 290/389 292/391 255/335 254/334
f 292/392 291/393 293/394 294/395
f 292/392 294/395 257/339 255/338
f 294/395 293/394 295/396 296/397
f 294/395 296/397 259/341 257/339
f 296/397 295/396 297/398 298/399
f 296/400 298/401 261/345 259/344
f 298/401 297/402 299/403 300/404
f 298/401 300/404 263/347 261/345
f 300/405 299/406 301/407 302/408
f 300/405 302/408 265/351 263/350
f 302/408 301/407 303/409 304/410
f 302/408 304/410 267/353 265/351
f 304/411 303/412 305/413 306/414
f 304/411 306/414 307/415 267/416
f 307/415 306/414 308/417 309/418
f 307/415 309/418 272/361 270/358
f 307/415 270/358 268/357 267/416
f 309/418 308/417 310/419 311/420
f 309/418 311/420 274/363 272/361
f 311/421 310/422 312/423 313/424
f 311/421 313/424 276/367 274/366
f 313/424 312/423 314/425 281/426
f 313/424 281/426 278/369 276/367
f 314/425 312/423 315/427 316/428
f 314/429 316/430 317/431 284/379
f 314/429 284/379 282/376 281/375
f 317/431 316/430 318/432 319/433
f 317/431 319/433 320/434 287/384
f 317/431 287/384 285/380 284/379
f 320/434 319/433 321/435 322/436
f 320/434 322/436 323/437 324/438
f 320/434 324/438 288/385 287/384
f 324/439 323/440 325/441 326/442
f 324/439 326/442 289/388 288/387
f 326/442 325/441 327/443 328/444
f 326/442 328/444 291/390 289/388
f 328/445 327/446 83/63 329/447
f 328/445 329/447 293/394 291/393
f 329/447 83/63 82/60 330/448
f 329/447 330/448 295/396 293/394
f 330/448 82/60 331/449 332/450
f 330/448 332/450 297/398 295/396
f 332/451 331/452 333/453 334/454
f 332/451 334/454 299/403 297/402
f 334/455 333/456 55/26 335/457
f 334/455 335/457 301/407 299/406
f 335/457 55/26 54/25 336/458
f 335/457 336/458 303/409 301/407
f 336/458 54/25 53/24 337/459
f 336/460 337/461 305/413 303/412
f 337/461 53/462 338/463 339/464
f 337/461 339/464 340/465 305/413
f 340/465 339/464 341/466 342/467
f 340/465 342/467 310/419 308/417
f 340/465 308/417 306/414 305/413
f 342/468 341/469 343/470 315/427
f 342/468 315/427 312/423 310/422
f 343/470 341/469 344/471 345/472
f 343/470 345/472 346/473 318/474
f 343/470 318/474 316/428 315/427
f 346/473 345/472 347/475 348/476
f 346/473 348/476 349/477 321/478
f 346/473 321/478 319/479 318/474
f 349/477 348/476 350/480 351/481
f 349/482 351/483 352/484 353/485
f 349/482 353/485 322/436 321/435
f 353/485 352/484 354/486 355/487
f 353/485 355/487 323/437 322/436
f 355/488 354/489 356/490 357/491
f 355/488 357/491 325/441 323/440
f 357/491 356/490 70/46 69/45
f 357/491 69/45 327/443 325/441
f 356/492 354/486 358/493 359/494
f 356/490 359/495 360/496 70/46
f 360/496 359/495 361/497 362/498
f 360/496 362/498 363/499 364/500
f 360/496 364/500 71/49 70/46
f 364/501 363/502 365/503 366/504
f 364/500 366/505 367/506 71/49
f 367/507 366/504 368/508 369/509
f 367/507 369/509 370/510 371/511
f 367/506 371/512 72/47 71/49
f 371/511 370/510 372/513 373/514
f 371/512 373/515 374/516 72/47
f 374/516 375/517 73/48 72/47
f 374/516 373/515 376/518 377/519
f 374/516 377/519 378/520 375/517
f 378/520 379/521 380/522 375/517
f 378/520 377/519 381/523 382/524
f 378/520 382/524 383/525 379/521
f 383/525 384/526 385/527 379/521
f 383/525 382/524 386/528 387/529
f 383/525 387/529 388/530 384/526
f 388/531 389/532 390/533 384/534
f 388/535 387/536 391/537 392/538
f 388/531 392/539 393/540 389/532
f 393/540 394/541 395/542 389/532
f 393/540 392/539 396/543 397/544
f 393/540 397/544 398/545 394/541
f 398/545 399/546 400/547 394/541
f 398/545 397/544 401/548 402/549
f 398/545 402/549 403/550 399/546
f 403/550 404/551 405/552 399/546
f 403/550 402/549 406/553 407/554
f 403/550 407/554 408/555 404/551
f 408/556 409/557 410/558 404/559
f 408/556 407/560 411/561 412/562
f 408/556 412/562 413/563 409/557
f 413/563 414/564 415/565 409/557
f 413/563 412/562 416/566 45/567
f 413/563 45/567 42/568 414/564
f 416/566 412/562 411/561 417/569
f 416/570 417/571 37/5 39/7
f 416/570 39/7 43/12 45/14
f 417/572 411/573 418/574 419/575
f 417/571 419/576 38/6 37/5
f 419/575 418/574 420/577 421/578
f 419/576 421/579 422/580 38/6
f 422/580 421/579 75/52 74/51
f 422/580 74/51 79/56 423/581
f 422/580 423/581 34/2 38/6
f 423/581 79/56 424/582 425/583
f 423/581 425/583 35/3 34/2
f 425/583 424/582 51/21 426/584
f 425/583 426/584 427/585 35/3
f 427/585 426/584 428/586 429/587
f 427/585 429/587 40/9 44/13
f 427/585 44/13 36/4 35/3
f 429/587 428/586 430/588 431/589
f 429/587 431/589 41/10 40/9
f 431/590 430/591 432/592 433/593
f 431/594 433/595 434/596 41/597
f 434/596 433/595 435/598 436/599
f 434/600 436/601 415/565 414/564
f 434/600 414/564 42/568 41/602
f 436/599 435/598 437/603 438/604
f 436/601 438/605 439/606 415/565
f 439/606 438/605 440/607 441/608
f 439/606 441/608 442/609 410/558
f 439/606 410/558 409/557 415/565
f 442/609 441/608 443/610 444/611
f 442/609 444/611 445/612 405/613
f 442/609 405/613 404/559 410/558
f 445/612 444/611 446/614 447/615
f 445/616 447/617 448/618 400/547
f 445/616 400/547 399/546 405/552
f 448/618 447/617 449/619 450/620
f 448/618 450/620 451/621 395/542
f 448/618 395/542 394/541 400/547
f 451/621 450/620 452/622 453/623
f 451/621 453/623 454/624 390/533
f 451/621 390/533 389/532 395/542
f 454/624 453/623 455/625 456/626
f 454/624 456/626 457/627 385/628
f 454/624 385/628 384/534 390/533
f 457/627 456/626 458/629 81/630
f 457/627 81/630 80/631 380/632
f 457/633 380/522 379/521 385/527
f 458/634 459/635 333/636 331/637
f 458/634 331/637 82/638 81/639
f 458/629 456/626 455/625 459/640
f 459/641 56/27 55/26 333/456
f 459/640 455/625 460/642 56/643
f 460/642 461/644 4/645 56/643
f 460/642 455/625 453/623 452/622
f 460/646 452/647 462/648 461/649
f 462/648 463/650 464/651 461/649
f 462/648 452/647 450/652 449/653
f 462/648 449/653 465/654 463/650
f 465/654 466/655 467/656 463/650
f 465/654 449/653 447/615 446/614
f 465/654 446/614 468/657 466/655
f 468/657 469/658 470/659 466/655
f 468/657 446/614 444/611 443/610
f 468/657 443/610 471/660 469/658
f 471/661 472/662 473/663 469/664
f 471/660 443/610 441/608 440/607
f 471/661 440/665 474/666 472/662
f 474/667 475/668 476/669 472/670
f 474/666 440/665 438/604 437/603
f 474/667 437/671 477/672 475/668
f 477/672 478/673 479/674 475/668
f 477/672 437/671 435/675 480/676
f 477/672 480/676 481/677 478/673
f 481/677 482/678 483/679 478/673
f 481/677 480/676 432/592 484/680
f 481/677 484/680 485/681 482/678
f 485/682 486/683 487/684 482/685
f 485/681 484/680 49/686 48/687
f 485/682 48/688 47/689 486/683
f 487/690 488/691 489/692 490/693
f 487/684 490/694 483/695 482/685
f 487/690 486/696 491/697 488/691
f 491/697 492/698 493/699 488/691
f 491/697 486/696 47/700 494/701
f 491/697 494/701 77/702 492/698
f 494/703 47/17 46/16 495/704
f 494/703 495/704 78/55 77/54
f 495/704 46/16 51/21 424/582
f 495/704 424/582 79/56 78/55
f 493/699 496/705 497/706 498/707
f 493/699 498/707 489/692 488/691
f 493/699 492/698 499/708 496/705
f 499/708 500/709 501/710 496/705
f 499/708 492/698 77/702 76/711
f 499/708 76/711 75/712 500/709
f 501/713 502/714 401/548 503/715
f 501/716 503/717 497/718 496/719
f 501/713 500/720 420/577 502/714
f 503/715 401/548 397/544 396/543
f 503/717 396/721 504/722 497/718
f 504/722 396/721 392/538 391/537
f 504/723 391/724 505/725 506/726
f 504/723 506/726 498/707 497/706
f 506/726 505/725 507/727 508/728
f 506/726 508/728 489/692 498/707
f 508/728 507/727 509/729 510/730
f 508/728 510/730 490/693 489/692
f 510/731 509/732 511/733 512/734
f 510/731 512/734 483/695 490/694
f 512/735 511/736 513/737 479/674
f 512/735 479/674 478/673 483/679
f 513/737 511/736 514/738 515/739
f 513/737 515/739 516/740 476/669
f 513/737 476/669 475/668 479/674
f 516/740 515/739 517/741 518/742
f 516/740 518/742 519/743 473/744
f 516/740 473/744 472/670 476/669
f 519/743 518/742 520/745 521/746
f 519/747 521/748 522/749 470/659
f 519/747 470/659 469/658 473/750
f 522/749 521/748 523/751 524/752
f 522/749 524/752 525/753 467/656
f 522/749 467/656 466/655 470/659
f 525/753 524/752 526/754 58/32
f 525/753 58/32 57/29 464/651
f 525/753 464/651 463/650 467/656
f 526/754 527/755 528/756 529/757
f 526/754 529/757 59/33 58/32
f 526/754 524/752 523/751 527/755
f 529/758 528/759 530/760 531/761
f 529/757 531/762 532/763 59/33
f 532/763 531/762 533/764 534/765
f 532/763 534/765 535/766 536/767
f 532/763 536/767 5/30 59/33
f 536/767 535/766 537/768 538/769
f 536/767 538/769 60/34 5/30
f 538/769 537/768 539/770 540/771
f 538/769 540/771 541/772 60/34
f 541/773 540/774 542/775 543/776
f 541/773 543/776 347/475 544/777
f 541/772 544/778 61/35 60/34
f 544/777 347/475 345/472 344/471
f 544/778 344/779 338/463 61/35
f 543/776 542/775 545/780 350/480
f 543/776 350/480 348/476 347/475
f 545/780 542/775 546/781 547/782
f 545/780 547/782 548/783 549/784
f 545/780 549/784 351/481 350/480
f 549/784 548/783 550/785 551/786
f 549/787 551/788 352/484 351/483
f 551/788 550/789 552/790 358/493
f 551/788 358/493 354/486 352/484
f 552/790 550/789 553/791 554/792
f 552/793 554/794 555/795 361/497
f 552/793 361/497 359/495 358/796
f 555/795 554/794 556/797 557/798
f 555/795 557/798 558/799 559/800
f 555/795 559/800 362/498 361/497
f 559/800 558/799 560/801 561/802
f 559/800 561/802 363/499 362/498
f 561/803 560/804 562/805 563/806
f 561/803 563/806 365/503 363/502
f 563/806 562/805 564/807 565/808
f 563/806 565/808 566/809 365/503
f 566/810 565/811 567/812 568/813
f 566/810 568/813 569/814 368/815
f 566/809 368/508 366/504 365/503
f 569/814 568/813 570/816 571/817
f 569/814 571/817 572/818 573/819
f 569/814 573/819 369/820 368/815
f 573/819 572/818 574/821 575/822
f 573/819 575/822 370/823 369/820
f 575/822 574/821 576/824 577/825
f 575/822 577/825 372/826 370/823
f 577/825 576/824 520/745 578/827
f 577/825 578/827 579/828 372/826
f 579/829 376/830 373/514 372/513
f 579/828 578/827 517/741 580/831
f 579/829 580/832 581/833 376/830
f 581/834 381/523 377/519 376/518
f 581/833 580/832 514/835 582/836
f 581/834 582/837 583/838 381/523
f 583/838 386/528 382/524 381/523
f 583/838 582/837 509/729 507/727
f 583/838 507/727 505/725 386/528
f 582/836 514/835 511/733 509/732
f 580/831 517/741 515/739 514/738
f 578/827 520/745 518/742 517/741
f 576/824 574/821 527/839 523/840
f 576/824 523/840 521/746 520/745
f 574/821 572/818 528/841 527/839
f 572/818 571/817 530/842 528/841
f 571/817 570/816 584/843 530/842
f 584/843 570/816 585/844 586/845
f 584/846 586/847 587/848 533/849
f 584/846 533/849 531/761 530/760
f 587/848 586/847 588/850 589/851
f 587/852 589/853 590/854 591/855
f 587/852 591/855 534/765 533/764
f 591/855 590/854 592/856 593/857
f 591/855 593/857 535/766 534/765
f 593/857 592/856 594/858 595/859
f 593/857 595/859 537/768 535/766
f 595/859 594/858 596/860 597/861
f 595/859 597/861 539/770 537/768
f 597/862 596/863 598/864 599/865
f 597/862 599/865 546/781 539/866
f 599/865 598/864 600/867 601/868
f 599/865 601/868 547/782 546/781
f 601/868 600/867 602/869 603/870
f 601/868 603/870 548/783 547/782
f 603/870 602/869 604/871 553/872
f 603/870 553/872 550/785 548/783
f 604/871 602/869 605/873 606/874
f 604/875 606/876 607/877 556/878
f 604/875 556/878 554/792 553/791
f 607/877 606/876 608/879 126/880
f 607/881 126/130 125/129 609/882
f 607/881 609/882 557/798 556/797
f 609/882 125/129 129/133 610/883
f 609/882 610/883 558/799 557/798
f 610/883 129/133 611/884 612/885
f 610/883 612/885 560/801 558/799
f 612/886 611/887 613/888 614/889
f 612/886 614/889 562/805 560/804
f 614/889 613/888 615/890 616/891
f 614/889 616/891 564/807 562/805
f 616/892 615/893 617/894 618/895
f 616/892 618/895 619/896 564/897
f 619/896 618/895 620/898 621/899
f 619/896 621/899 585/844 567/812
f 619/896 567/812 565/811 564/897
f 621/899 620/898 622/900 588/901
f 621/899 588/901 586/845 585/844
f 622/900 620/898 623/902 624/903
f 622/904 624/905 625/906 626/907
f 622/904 626/907 589/851 588/850
f 626/908 625/909 627/910 628/911
f 626/908 628/911 590/854 589/853
f 628/911 627/910 152/161 629/912
f 628/911 629/912 592/856 590/854
f 629/912 152/161 151/160 630/913
f 629/912 630/913 594/858 592/856
f 630/913 151/160 155/164 631/914
f 630/913 631/914 596/860 594/858
f 631/915 155/171 158/170 632/916
f 631/915 632/916 598/864 596/863
f 632/916 158/170 160/176 633/917
f 632/916 633/917 600/867 598/864
f 633/917 160/176 634/918 605/873
f 633/917 605/873 602/869 600/867
f 634/918 160/176 27/175 163/919
f 634/918 163/919 635/920 608/921
f 634/918 608/921 606/874 605/873
f 627/910 625/909 636/922 637/923
f 627/910 637/923 153/162 152/161
f 637/923 636/922 638/924 639/925
f 637/923 639/925 171/192 153/162
f 639/925 638/924 640/926 641/927
f 639/925 641/927 642/928 171/192
f 642/928 641/927 643/929 644/930
f 642/928 644/930 645/931 646/932
f 642/928 646/932 172/190 171/192
f 646/933 645/934 647/935 648/936
f 646/933 648/936 649/937 172/938
f 649/937 648/936 650/939 651/940
f 649/937 651/940 652/941 653/942
f 649/937 653/942 173/943 172/938
f 653/944 652/945 654/946 655/947
f 653/942 655/948 656/949 173/943
f 656/950 657/951 170/189 173/191
f 656/949 655/948 658/952 659/953
f 656/950 659/954 660/955 657/951
f 660/955 661/956 156/957 657/951
f 660/958 659/953 175/195 174/194
f 660/955 174/200 178/199 661/956
f 661/959 662/960 157/167 156/166
f 661/956 178/199 663/961 662/962
f 663/963 664/964 665/965 662/960
f 663/961 178/199 177/198 150/966
f 663/963 150/967 149/968 664/964
f 665/965 666/969 161/177 159/174
f 665/965 159/174 157/167 662/960
f 665/970 664/971 667/972 666/973
f 667/972 668/974 669/975 666/973
f 667/976 664/964 149/968 148/977
f 667/978 148/979 670/980 668/981
f 670/980 121/119 120/118 668/981
f 670/982 148/156 146/153 145/152
f 670/982 145/152 124/126 121/125
f 669/983 671/984 672/985 162/986
f 669/975 162/987 161/988 666/973
f 669/983 668/981 120/118 671/984
f 671/984 673/989 674/990 672/985
f 671/984 120/118 119/117 673/989
f 673/991 675/992 676/993 674/994
f 673/991 119/123 123/122 675/992
f 676/995 654/946 652/945 677/996
f 676/993 677/997 678/998 674/994
f 676/995 675/999 679/1000 654/946
f 679/1000 658/1001 655/947 654/946
f 679/1000 675/999 123/1002 680/1003
f 679/1000 680/1003 681/1004 658/1001
f 681/1005 175/195 659/953 658/952
f 681/1005 680/1006 682/1007 683/1008
f 681/1005 683/1008 176/196 175/195
f 683/1009 682/1010 144/151 143/150
f 683/1009 143/150 179/203 176/202
f 682/1011 680/1003 123/1002 122/1012
f 682/1010 122/127 124/126 144/151
f 677/996 652/945 651/1013 684/1014
f 677/997 684/1015 685/1016 678/998
f 685/1017 684/1014 686/1018 687/1019
f 685/1016 687/1020 688/1021 689/1022
f 685/1016 689/1022 20/128 678/998
f 689/1022 688/1021 690/1023 691/1024
f 689/1022 691/1024 128/132 20/128
f 691/1024 690/1023 692/1025 693/1026
f 691/1024 693/1026 694/1027 128/132
f 694/1028 693/1029 695/1030 696/1031
f 694/1028 696/1031 613/888 611/887
f 694/1027 611/884 129/133 128/132
f 696/1032 695/1033 697/1034 698/1035
f 696/1031 698/1036 615/890 613/888
f 698/1035 697/1034 699/1037 700/1038
f 698/1035 700/1038 617/894 615/893
f 700/1038 699/1037 701/1039 702/1040
f 700/1038 702/1040 623/902 617/894
f 702/1041 701/1042 703/1043 704/1044
f 702/1041 704/1044 624/905 623/1045
f 704/1046 703/1047 638/924 636/922
f 704/1044 636/1048 625/906 624/905
f 703/1043 701/1042 705/1049 706/1050
f 703/1047 706/1051 640/926 638/924
f 706/1050 705/1049 707/1052 708/1053
f 706/1051 708/1054 709/1055 640/926
f 709/1055 708/1054 710/1056 711/1057
f 709/1055 711/1057 712/1058 643/929
f 709/1055 643/929 641/927 640/926
f 712/1058 711/1057 713/1059 714/1060
f 712/1058 714/1060 715/1061 716/1062
f 712/1058 716/1062 644/930 643/929
f 716/1063 715/1064 717/1065 718/1066
f 716/1063 718/1066 645/934 644/1067
f 718/1066 717/1065 719/1068 720/1069
f 718/1066 720/1069 647/935 645/934
f 720/1069 719/1068 721/1070 722/1071
f 720/1069 722/1071 723/1072 647/935
f 723/1072 722/1071 724/1073 725/1074
f 723/1072 725/1074 686/1075 650/939
f 723/1072 650/939 648/936 647/935
f 725/1076 724/1077 726/1078 727/1079
f 725/1076 727/1079 687/1019 686/1018
f 727/1080 726/1081 728/1082 729/1083
f 727/1080 729/1083 688/1021 687/1020
f 729/1083 728/1082 730/1084 731/1085
f 729/1083 731/1085 690/1023 688/1021
f 731/1085 730/1084 732/1086 733/1087
f 731/1085 733/1087 692/1025 690/1023
f 733/1088 732/1089 734/1090 735/1091
f 733/1088 735/1091 736/1092 692/1093
f 736/1094 735/1095 737/1096 738/1097
f 736/1094 738/1097 697/1034 695/1033
f 736/1092 695/1030 693/1029 692/1093
f 738/1097 737/1096 739/1098 740/1099
f 738/1097 740/1099 699/1037 697/1034
f 740/1099 739/1098 707/1100 705/1101
f 740/1099 705/1101 701/1039 699/1037
f 739/1098 737/1096 741/1102 742/1103
f 739/1098 742/1103 743/1104 707/1100
f 743/1104 742/1103 744/1105 745/1106
f 743/1107 745/1108 746/1109 710/1110
f 743/1107 710/1110 708/1053 707/1052
f 746/1109 745/1108 747/1111 748/1112
f 746/1113 748/1114 749/1115 713/1059
f 746/1113 713/1059 711/1057 710/1056
f 749/1115 748/1114 750/1116 751/1117
f 749/1115 751/1117 752/1118 753/1119
f 749/1115 753/1119 714/1060 713/1059
f 753/1119 752/1118 754/1120 755/1121
f 753/1119 755/1121 715/1061 714/1060
f 755/1122 754/1123 756/1124 757/1125
f 755/1122 757/1125 717/1065 715/1064
f 757/1125 756/1124 758/1126 759/1127
f 757/1125 759/1127 719/1068 717/1065
f 759/1127 758/1126 760/1128 761/1129
f 759/1127 761/1129 721/1070 719/1068
f 761/1129 760/1128 762/1130 763/1131
f 761/1129 763/1131 764/1132 721/1070
f 764/1133 763/1134 765/1135 766/1136
f 764/1133 766/1136 726/1078 724/1077
f 764/1132 724/1073 722/1071 721/1070
f 766/1137 765/1138 767/1139 768/1140
f 766/1137 768/1140 728/1082 726/1081
f 768/1140 767/1139 769/1141 770/1142
f 768/1140 770/1142 730/1084 728/1082
f 770/1142 769/1141 771/1143 772/1144
f 770/1142 772/1144 732/1086 730/1084
f 772/1145 771/1146 773/1147 774/1148
f 772/1145 774/1148 734/1090 732/1089
f 774/1149 773/1150 775/1151 776/1152
f 774/1149 776/1152 741/1102 734/1153
f 776/1152 775/1151 777/1154 744/1105
f 776/1152 744/1105 742/1103 741/1102
f 777/1154 775/1151 778/1155 779/1156
f 777/1154 779/1156 780/1157 747/1158
f 777/1154 747/1158 745/1106 744/1105
f 780/1157 779/1156 781/1159 782/1160
f 780/1161 782/1162 783/1163 750/1164
f 780/1161 750/1164 748/1112 747/1111
f 783/1163 782/1162 784/1165 785/1166
f 783/1167 785/1168 786/1169 787/1170
f 783/1167 787/1170 751/1117 750/1116
f 787/1170 786/1169 788/1171 789/1172
f 787/1170 789/1172 752/1118 751/1117
f 789/1172 788/1171 790/1173 791/1174
f 789/1172 791/1174 754/1120 752/1118
f 791/1174 790/1173 792/1175 793/1176
f 791/1177 793/1178 756/1124 754/1123
f 793/1178 792/1179 794/1180 795/1181
f 793/1178 795/1181 758/1126 756/1124
f 795/1181 794/1180 796/1182 797/1183
f 795/1181 797/1183 760/1128 758/1126
f 797/1183 796/1182 798/1184 799/1185
f 797/1183 799/1185 762/1130 760/1128
f 799/1186 798/1187 800/1188 801/1189
f 799/1186 801/1189 802/1190 762/1191
f 802/1192 801/1193 803/1194 804/1195
f 802/1192 804/1195 767/1139 765/1138
f 802/1190 765/1135 763/1134 762/1191
f 804/1195 803/1194 805/1196 806/1197
f 804/1195 806/1197 769/1141 767/1139
f 806/1197 805/1196 807/1198 808/1199
f 806/1197 808/1199 771/1143 769/1141
f 808/1200 807/1201 809/1202 810/1203
f 808/1200 810/1203 773/1147 771/1146
f 810/1204 809/1205 811/1206 778/1155
f 810/1204 778/1155 775/1151 773/1150
f 811/1206 809/1205 812/1207 813/1208
f 811/1206 813/1208 814/1209 781/1159
f 811/1206 781/1159 779/1156 778/1155
f 814/1209 813/1208 815/1210 816/1211
f 814/1209 816/1211 817/1212 784/1213
f 814/1209 784/1213 782/1160 781/1159
f 817/1212 816/1211 818/1214 819/1215
f 817/1216 819/1217 820/1218 821/1219
f 817/1220 821/1221 785/1166 784/1165
f 821/1219 820/1218 822/1222 823/1223
f 821/1219 823/1223 786/1169 785/1168
f 823/1223 822/1222 824/1224 825/1225
f 823/1223 825/1225 788/1171 786/1169
f 825/1225 824/1224 826/1226 827/1227
f 825/1225 827/1227 790/1173 788/1171
f 827/1227 826/1226 828/1228 829/1229
f 827/1227 829/1229 792/1175 790/1173
f 829/1230 828/1231 830/1232 831/1233
f 829/1230 831/1233 794/1180 792/1179
f 831/1233 830/1232 832/1234 833/1235
f 831/1233 833/1235 796/1182 794/1180
f 833/1235 832/1234 834/1236 835/1237
f 833/1235 835/1237 798/1184 796/1182
f 835/1238 834/1239 836/1240 837/1241
f 835/1238 837/1241 800/1188 798/1187
f 837/1242 836/1243 838/1244 839/1245
f 837/1242 839/1245 840/1246 800/1247
f 840/1246 839/1245 841/1248 842/1249
f 840/1246 842/1249 805/1196 803/1194
f 840/1246 803/1194 801/1193 800/1247
f 842/1250 841/1251 843/1252 844/1253
f 842/1250 844/1253 807/1201 805/1254
f 844/1253 843/1252 845/1255 812/1256
f 844/1253 812/1256 809/1202 807/1201
f 845/1255 843/1252 846/1257 847/1258
f 845/1259 847/1260 848/1261 815/1210
f 845/1259 815/1210 813/1208 812/1207
f 848/1261 847/1260 849/1262 850/1263
f 848/1261 850/1263 135/1264 818/1214
f 848/1261 818/1214 816/1211 815/1210
f 850/1265 849/1266 67/42 851/1267
f 850/1265 851/1267 130/135 135/140
f 851/1267 67/42 64/39 852/1268
f 851/1267 852/1268 131/136 130/135
f 852/1268 64/39 63/38 853/1269
f 852/1268 853/1269 854/1270 131/136
f 854/1270 855/1271 132/137 131/136
f 854/1270 853/1269 856/1272 857/1273
f 854/1270 857/1273 858/1274 855/1271
f 858/1274 857/1273 169/187 168/186
f 858/1274 168/186 167/185 859/1275
f 858/1274 859/1275 860/1276 855/1271
f 860/1276 133/138 132/137 855/1271
f 860/1276 859/1275 824/1277 822/1278
f 860/1276 822/1278 820/1279 133/138
f 859/1275 167/185 826/1280 824/1277
f 857/1273 856/1272 861/1281 169/187
f 861/1281 856/1272 141/147 138/144
f 861/1281 138/144 137/143 862/1282
f 861/1281 862/1282 164/182 169/187
f 862/1282 137/143 863/1283 864/1284
f 862/1282 864/1284 165/183 164/182
f 864/1285 863/1286 834/1239 832/1287
f 864/1285 832/1287 830/1288 165/1289
f 863/1283 137/143 136/142 865/1290
f 863/1286 865/1291 836/1240 834/1239
f 865/1290 136/142 140/146 866/1292
f 865/1291 866/1293 838/1294 836/1240
f 866/1292 140/146 66/41 867/1295
f 866/1296 867/1297 868/1298 838/1244
f 868/1298 867/1297 869/1299 846/1300
f 868/1301 846/1257 843/1252 841/1251
f 868/1298 841/1248 839/1245 838/1244
f 869/1302 867/1295 66/41 65/40
f 869/1302 65/40 67/42 849/1266
f 869/1303 849/1262 847/1260 846/1304
f 856/1272 853/1269 63/38 141/147
f 830/1305 828/1306 166/184 165/183
f 828/1306 826/1280 167/185 166/184
f 820/1279 819/1307 134/139 133/138
f 819/1215 818/1214 135/1264 134/1308
f 741/1102 737/1096 735/1095 734/1153
f 686/1018 684/1014 651/1013 650/1309
f 657/951 156/957 25/159 170/189
f 623/902 620/898 618/895 617/894
f 608/879 635/1310 127/1311 126/880
f 585/844 570/816 568/813 567/812
f 546/781 542/775 540/774 539/866
f 505/725 391/724 387/529 386/528
f 502/714 406/553 402/549 401/548
f 502/714 420/577 418/574 406/553
f 500/720 75/1312 421/578 420/577
f 484/680 432/592 430/591 49/686
f 480/676 435/675 433/593 432/592
f 464/651 57/29 4/28 461/649
f 430/588 428/586 50/20 49/19
f 428/586 426/584 51/21 50/20
f 418/574 411/573 407/554 406/553
f 380/522 80/61 73/48 375/517
f 344/779 341/466 339/464 338/463
f 338/463 53/462 52/31 61/35
f 327/446 69/1313 68/64 83/63
f 196/302 194/225 180/224 182/303
f 191/219 187/214 114/111 112/108
f 188/215 118/115 115/112 186/213
f 187/214 186/213 115/112 114/111
f 179/203 143/150 142/149 147/155
f 179/203 147/155 150/158 177/204
f 163/1314 162/1315 672/1316 635/1317
f 141/147 63/38 62/37 139/145
f 140/146 139/145 62/37 66/41
f 635/1318 672/985 674/990 678/1319
f 127/131 635/1320 678/998 20/128
f 18/263 212/262 870/1321 871/1322
f 117/114 109/105 108/104 113/110
f 114/111 113/110 108/104 112/108
f 872/1323 14/99 103/1324
f 95/85 33/216 99/90 13/80
f 93/76 92/75 10/65 88/70
f 44/13 43/12 39/7 36/4
f 870/1321 212/262 215/270 90/273
f 96/1325 13/1326 18/1327 871/1328
f 86/68 85/67 94/78
f 89/72 11/71 93/76
f 106/100 14/99 872/1323
f 105/98 13/1329 98/1330
f 105/98 104/97 17/1331 13/1329
f 873/1332 877/1333 878/1334 874/1335
f 873/1332 879/1336 880/1337 877/1333
f 875/1338 881/1339 882/1340 876/1341
f 882/1340 881/1339 883/1342 884/1343
f 884/1343 883/1342 880/1337 879/1336
