# Blender 4.5.0
# www.blender.org
mtllib tripo_convert_1813e839-89a3-4f29-8d8c-2678e2fb3daa.mtl
o tripo_node_1813e839-89a3-4f29-8d8c-2678e2fb3daa
v 0.217754 0.988510 0.012934
v 0.222483 0.984724 -0.022647
v 0.222546 0.984985 -0.006248
v 0.249975 0.673719 -0.002572
v 0.003048 0.505769 -0.014287
v 0.255299 0.659194 0.007620
v 0.253187 0.667699 0.011011
v 0.004193 0.507351 0.010406
v -0.000208 0.499323 0.020447
v -0.000114 0.499601 0.020170
v 0.002666 0.504993 0.015304
v 0.231538 0.978435 0.019424
v -0.223516 0.993458 0.023753
v -0.031839 0.612684 0.025680
v -0.031511 0.632394 -0.000623
v -0.080499 0.001509 -0.008215
v -0.111723 0.005324 -0.000932
v -0.099085 0.003664 -0.012949
v -0.099348 0.003618 0.020270
v -0.034496 0.619156 -0.024562
v -0.017695 0.611428 -0.027414
v -0.220592 0.992186 -0.024024
v -0.210874 0.994435 -0.000685
v -0.231393 0.997817 -0.004056
v 0.214063 0.991025 0.018022
v 0.220414 0.986395 0.021624
v 0.222525 0.985031 0.013048
v 0.222571 0.984946 0.006208
v 0.216053 0.989745 0.006972
v 0.209300 0.994293 0.009610
v 0.217996 0.987824 -0.019735
v 0.222851 0.984662 -0.014745
v 0.227113 0.981508 -0.020827
v 0.219430 0.982018 -0.029477
v 0.211715 0.986645 -0.026664
v 0.227164 0.976574 -0.028434
v 0.222417 0.985110 -0.000626
v 0.229938 0.979626 -0.003058
v 0.227207 0.981630 -0.010190
v 0.218131 0.988032 -0.009109
v 0.215419 0.990048 -0.001484
v 0.250897 0.672409 0.002129
v 0.253329 0.667215 -0.000303
v 0.252109 0.669587 -0.005118
v 0.240388 0.676678 -0.004822
v 0.240358 0.676779 0.003820
v 0.243008 0.672702 -0.012785
v -0.001455 0.559899 -0.028022
v 0.006427 0.559491 -0.022278
v 0.004113 0.507732 -0.010156
v 0.034219 0.528392 -0.019429
v 0.040219 0.522836 -0.021963
v 0.242237 0.655878 -0.015630
v 0.245751 0.665221 -0.016321
v 0.253976 0.663738 -0.007508
v 0.250374 0.653244 -0.010825
v 0.255366 0.659969 0.002887
v 0.254014 0.665375 0.004244
v 0.254402 0.663585 0.009024
v 0.249087 0.653036 0.011211
v 0.250846 0.650374 0.004249
v 0.246950 0.659369 0.015791
v 0.252182 0.670409 0.006751
v 0.244110 0.666765 0.015982
v 0.241747 0.673387 0.011490
v 0.005628 0.509345 0.005490
v 0.000583 0.540158 0.023905
v 0.042804 0.520127 0.022181
v 0.036146 0.526803 0.020346
v 0.032094 0.529819 0.014875
v -0.013232 0.498413 0.027251
v -0.016948 0.460538 0.028439
v -0.007240 0.450176 0.022632
v 0.016004 0.488527 0.023497
v -0.011655 0.518662 0.028499
v 0.234692 0.976154 0.013943
v 0.227760 0.981207 0.012614
v 0.226500 0.982091 0.020943
v 0.232256 0.972744 0.026173
v 0.238105 0.968253 0.018926
v 0.224939 0.978187 0.029106
v -0.229866 0.996844 0.018705
v -0.235333 0.984728 0.019771
v -0.225582 0.982729 0.024212
v -0.214933 0.981119 0.022412
v -0.215714 0.994174 0.020676
v -0.222280 0.996598 0.013305
v -0.010206 0.598726 0.030546
v -0.006880 0.628188 0.029827
v -0.019812 0.632232 0.023996
v -0.047007 0.610684 0.026296
v -0.032170 0.565544 0.025688
v -0.024523 0.559823 0.029360
v -0.011548 0.553175 0.030366
v -0.034417 0.632499 0.011491
v -0.058052 0.657988 0.015467
v -0.064723 0.651295 0.024557
v -0.027191 0.635866 0.011774
v -0.027908 0.633940 -0.011123
v -0.037840 0.636745 -0.011206
v -0.036197 0.638085 -0.001057
v -0.081027 0.001403 -0.001683
v -0.088541 0.002681 -0.005611
v -0.085263 0.002385 -0.012777
v -0.073541 0.000646 -0.011165
v -0.071471 -0.000000 -0.000729
v -0.079928 0.002213 -0.019819
v -0.117454 0.006203 -0.001089
v -0.114719 0.005769 -0.009687
v -0.108559 0.004889 -0.005886
v -0.108343 0.004857 0.005022
v -0.114739 0.005984 0.008698
v -0.102687 0.004098 0.000185
v -0.103677 0.004229 -0.010154
v -0.108234 0.004882 -0.016483
v -0.099931 0.003757 -0.018852
v -0.091948 0.003093 -0.017398
v -0.094190 0.003239 -0.009783
v -0.098070 0.003564 -0.004904
v -0.099785 0.004110 0.026644
v -0.110319 0.006071 0.023848
v -0.105887 0.004539 0.017176
v -0.094289 0.003025 0.017594
v -0.090916 0.003365 0.025486
v -0.101365 0.003903 0.011728
v -0.046603 0.627559 -0.025814
v -0.040785 0.632681 -0.019907
v -0.025031 0.630438 -0.019144
v -0.036022 0.597481 -0.026234
v -0.055316 0.619105 -0.025797
v 0.000826 0.613342 -0.030324
v -0.018274 0.557642 -0.030544
v -0.028444 0.553405 -0.028839
v -0.226631 0.995407 -0.021174
v -0.220506 0.996269 -0.014547
v -0.214101 0.993635 -0.019954
v -0.222149 0.981808 -0.024423
v -0.231547 0.983612 -0.022376
v -0.212779 0.980490 -0.021059
v -0.214818 0.995019 -0.007226
v -0.221433 0.996455 -0.001162
v -0.215048 0.995209 0.006290
v -0.202469 0.991976 -0.000741
v -0.206599 0.992529 -0.012537
v -0.206701 0.992986 0.012578
v -0.228587 0.997455 0.004177
v -0.226994 0.997139 -0.009064
v -0.239103 0.997770 -0.005668
v -0.237727 0.997924 0.007926
v -0.233767 0.996946 -0.015093
v -0.239038 0.985074 -0.015741
v -0.243607 0.985827 -0.004802
v -0.245377 0.955801 -0.013634
v -0.248700 0.956340 -0.003047
v -0.247245 0.956107 0.008591
v -0.242502 0.985760 0.008949
v -0.241496 0.955115 0.018171
v -0.254454 0.913989 0.008840
v -0.248388 0.914243 0.018930
v -0.237866 0.914568 0.023778
v -0.231999 0.953360 0.023224
v -0.228151 0.915063 0.019741
v -0.220906 0.951197 0.021801
v -0.221776 0.914824 0.011661
v -0.212707 0.949299 0.013621
v -0.206259 0.979415 0.013877
v -0.209291 0.948618 0.001619
v -0.202461 0.978567 0.000551
v -0.211362 0.948878 -0.010538
v -0.205714 0.979090 -0.012727
v -0.218091 0.950470 -0.019892
v -0.220691 0.914773 -0.008553
v -0.225574 0.914986 -0.017021
v -0.233623 0.914829 -0.022601
v -0.228043 0.952597 -0.023842
v -0.244109 0.914280 -0.022086
v -0.238211 0.954526 -0.021124
v -0.252400 0.913855 -0.014205
v -0.233254 0.874646 -0.020373
v -0.239746 0.872398 -0.012465
v -0.242216 0.871615 -0.002228
v -0.255980 0.913770 -0.002969
v -0.241082 0.872051 0.008215
v -0.227058 0.834441 -0.002365
v -0.225931 0.834936 0.008276
v -0.221108 0.837078 0.017389
v -0.236309 0.873653 0.017236
v -0.212749 0.840782 0.022383
v -0.228021 0.876515 0.022590
v -0.203361 0.844917 0.020482
v -0.218104 0.880067 0.021098
v -0.196590 0.847885 0.012821
v -0.210835 0.882701 0.013256
v -0.194167 0.848963 0.002316
v -0.208062 0.883761 0.002393
v -0.219631 0.915293 0.001759
v -0.209094 0.883327 -0.008817
v -0.195157 0.848527 -0.008388
v -0.200082 0.846378 -0.017494
v -0.214618 0.881360 -0.018214
v -0.208402 0.842732 -0.022422
v -0.223774 0.878053 -0.022965
v -0.217761 0.838584 -0.020500
v -0.191848 0.807896 -0.023040
v -0.201297 0.803166 -0.020994
v -0.208042 0.799745 -0.013133
v -0.224504 0.835583 -0.012769
v -0.210517 0.798458 -0.002516
v -0.189031 0.764234 -0.013771
v -0.191608 0.762569 -0.002720
v -0.190464 0.763310 0.008614
v -0.209404 0.799020 0.008357
v -0.185651 0.766445 0.018313
v -0.204677 0.801436 0.017671
v -0.177515 0.771685 0.023811
v -0.196421 0.805643 0.022935
v -0.168118 0.777670 0.022184
v -0.186943 0.810448 0.021258
v -0.161306 0.782036 0.013959
v -0.180016 0.813971 0.013418
v -0.158764 0.783683 0.002708
v -0.177651 0.815191 0.002503
v -0.159629 0.783127 -0.008808
v -0.178552 0.814725 -0.008569
v -0.164528 0.779976 -0.018572
v -0.183301 0.812246 -0.018095
v -0.172961 0.774605 -0.023859
v -0.141837 0.749894 -0.019363
v -0.150071 0.743438 -0.024711
v -0.159118 0.736393 -0.022805
v -0.182287 0.768626 -0.021801
v -0.165714 0.731323 -0.014472
v -0.133835 0.705225 -0.023450
v -0.140898 0.699458 -0.015100
v -0.143947 0.696966 -0.003332
v -0.168703 0.729066 -0.003061
v -0.142860 0.697791 0.009141
v -0.167547 0.729937 0.008937
v -0.137802 0.701830 0.019438
v -0.162732 0.733573 0.019040
v -0.129568 0.708544 0.025326
v -0.154629 0.739832 0.024529
v -0.120362 0.716054 0.023645
v -0.145522 0.746955 0.023093
v -0.113361 0.721766 0.015279
v -0.138781 0.752236 0.014630
v -0.110778 0.723886 0.003075
v -0.135928 0.754472 0.002975
v -0.111658 0.723237 -0.009471
v -0.137040 0.753597 -0.009133
v -0.116631 0.719292 -0.019884
v -0.085333 0.692441 -0.009886
v -0.090379 0.688257 -0.020245
v -0.098275 0.681632 -0.026242
v -0.124759 0.712696 -0.025556
v -0.107201 0.673992 -0.024049
v -0.070834 0.651517 -0.026376
v -0.079824 0.644261 -0.024827
v -0.087024 0.638124 -0.017087
v -0.114319 0.667778 -0.016066
v -0.090437 0.634942 -0.004867
v -0.117482 0.664935 -0.003909
v -0.089690 0.635221 0.008451
v -0.116648 0.665670 0.008984
v -0.084395 0.639295 0.019579
v -0.111489 0.670133 0.019632
v -0.075958 0.645584 0.026429
v -0.103461 0.677059 0.025987
v -0.094223 0.684930 0.023972
v -0.086952 0.691051 0.015635
v -0.056369 0.660840 0.001748
v -0.084612 0.692998 0.002798
v -0.057972 0.660414 -0.010648
v -0.063139 0.657175 -0.020401
v -0.057633 0.608162 0.019194
v -0.063819 0.606034 0.007507
v -0.044772 0.574192 0.005133
v -0.040951 0.570107 0.016704
v -0.048683 0.540941 0.004317
v -0.044497 0.536590 0.017203
v -0.036170 0.531773 0.026361
v -0.049559 0.502309 0.017109
v -0.040629 0.500326 0.026469
v -0.028427 0.499193 0.030585
v -0.025454 0.526174 0.030388
v -0.046618 0.459277 0.026503
v -0.034232 0.458037 0.030537
v -0.053579 0.411518 0.026587
v -0.040083 0.409390 0.030666
v -0.026121 0.407152 0.028715
v -0.046546 0.359964 0.030858
v -0.032629 0.357708 0.028530
v -0.021533 0.355855 0.022033
v -0.014682 0.405602 0.022934
v -0.015001 0.354867 0.010841
v -0.007362 0.404732 0.011194
v -0.000369 0.445810 0.010910
v -0.006627 0.404817 -0.003705
v 0.000203 0.445873 -0.004426
v 0.026909 0.477850 -0.007179
v 0.026319 0.478383 0.010013
v 0.054234 0.505987 -0.007620
v 0.054506 0.505788 0.005593
v 0.050201 0.511173 0.016997
v 0.081289 0.532383 0.002931
v 0.078611 0.535309 0.012650
v 0.073033 0.541409 0.018504
v 0.066466 0.548394 0.018950
v 0.105947 0.561528 0.010798
v 0.101071 0.566327 0.017142
v 0.094457 0.572918 0.018522
v 0.088434 0.578956 0.015045
v 0.060724 0.554036 0.014583
v 0.128024 0.591991 0.016307
v 0.121765 0.598675 0.018724
v 0.115749 0.605115 0.015861
v 0.111822 0.609358 0.008782
v 0.084642 0.582786 0.007766
v 0.151307 0.621638 0.018362
v 0.146143 0.629312 0.017306
v 0.142184 0.635027 0.010520
v 0.140719 0.637212 0.001037
v 0.110567 0.610728 -0.000077
v 0.181601 0.645381 0.016574
v 0.179056 0.651192 0.010384
v 0.178005 0.653572 0.001814
v 0.178444 0.652596 -0.006955
v 0.141589 0.635932 -0.008524
v 0.214466 0.663873 0.011032
v 0.213358 0.666758 0.002981
v 0.213642 0.666286 -0.005820
v 0.215442 0.662166 -0.013355
v 0.180393 0.648273 -0.014481
v 0.183579 0.640836 -0.017859
v 0.150393 0.623143 -0.018776
v 0.145161 0.630873 -0.016329
v 0.218371 0.655011 -0.016988
v 0.221607 0.647147 -0.015989
v 0.186968 0.632656 -0.016686
v 0.189568 0.626385 -0.010639
v 0.158335 0.610969 -0.009319
v 0.155159 0.615861 -0.015934
v 0.223983 0.641331 -0.010605
v 0.224863 0.638588 -0.002845
v 0.190686 0.623793 -0.002264
v 0.251398 0.650248 -0.003626
v 0.224528 0.639217 0.005325
v 0.254996 0.661253 -0.002151
v 0.222878 0.643052 0.012622
v 0.188193 0.629660 0.014193
v 0.190189 0.624881 0.006769
v 0.155786 0.614746 0.014786
v 0.158548 0.610440 0.007772
v 0.159428 0.609198 -0.000905
v 0.132302 0.587455 0.009395
v 0.133765 0.585876 0.000280
v 0.132514 0.587218 -0.008976
v 0.107849 0.559680 0.001448
v 0.106891 0.560629 -0.008033
v 0.102781 0.564662 -0.015643
v 0.128240 0.591817 -0.016123
v 0.096366 0.570992 -0.018732
v 0.122108 0.598394 -0.018829
v 0.089735 0.577667 -0.016531
v 0.115997 0.604914 -0.016194
v 0.085267 0.582180 -0.009916
v 0.111947 0.609250 -0.009158
v 0.083366 0.584094 -0.001092
v 0.058415 0.556594 -0.010746
v 0.056353 0.558247 -0.002079
v 0.057576 0.556870 0.006899
v 0.029144 0.532312 -0.002359
v 0.029951 0.531336 0.007159
v 0.007051 0.511512 -0.000885
v 0.006028 0.509914 0.004038
v 0.018288 0.570078 -0.001770
v 0.017234 0.574279 0.009074
v 0.013375 0.578522 0.019008
v 0.003460 0.589730 0.028248
v 0.025960 0.617693 0.011258
v 0.018736 0.620814 0.022399
v 0.006731 0.624466 0.029294
v 0.026587 0.656798 0.022480
v 0.015939 0.660882 0.028999
v 0.003859 0.665193 0.030203
v -0.007974 0.669098 0.025071
v 0.039012 0.698813 0.029076
v 0.028929 0.705632 0.029397
v 0.019541 0.711784 0.023757
v 0.012855 0.715974 0.013925
v -0.017111 0.670605 0.014755
v 0.058141 0.743605 0.028942
v 0.049092 0.750250 0.023218
v 0.042890 0.754896 0.013101
v 0.040749 0.756675 0.000136
v 0.010555 0.717415 0.000506
v 0.076096 0.787886 0.022755
v 0.070347 0.792188 0.012504
v 0.068179 0.793771 -0.000481
v 0.070503 0.792029 -0.013447
v 0.042952 0.755277 -0.013082
v 0.096272 0.830370 0.011834
v 0.094316 0.831566 -0.001126
v 0.096699 0.829899 -0.013992
v 0.103014 0.825643 -0.023910
v 0.076840 0.787322 -0.023450
v 0.120173 0.871675 -0.001787
v 0.122498 0.870261 -0.014595
v 0.129200 0.866148 -0.024244
v 0.138417 0.860448 -0.029026
v 0.111963 0.819723 -0.028887
v 0.148399 0.910464 -0.015274
v 0.155343 0.906022 -0.024789
v 0.164522 0.900169 -0.029238
v 0.173885 0.894059 -0.027922
v 0.147853 0.854393 -0.028037
v 0.181460 0.944944 -0.025578
v 0.190460 0.938960 -0.029783
v 0.199833 0.932878 -0.028366
v 0.208810 0.927180 -0.021666
v 0.182477 0.888353 -0.021325
v 0.211385 0.970006 -0.030244
v 0.220069 0.964195 -0.028946
v 0.229074 0.958077 -0.022196
v 0.235113 0.953554 -0.009300
v 0.214696 0.923504 -0.009758
v 0.236131 0.970294 -0.021973
v 0.242060 0.964916 -0.008558
v 0.242139 0.964612 0.006855
v 0.235715 0.952965 0.005688
v 0.233458 0.977034 -0.016618
v 0.238195 0.973445 -0.006100
v 0.238033 0.973499 0.006090
v 0.229492 0.979838 0.005403
v 0.231640 0.955992 0.018375
v 0.212699 0.924896 0.016608
v 0.215923 0.922801 0.003814
v 0.186803 0.885550 0.015264
v 0.189755 0.883591 0.002764
v 0.188229 0.884565 -0.010302
v 0.164250 0.843590 0.002056
v 0.162470 0.844787 -0.010899
v 0.156541 0.848670 -0.021646
v 0.136253 0.803949 -0.011493
v 0.130181 0.807867 -0.021956
v 0.121316 0.813597 -0.028181
v 0.104522 0.767961 -0.022087
v 0.095426 0.774160 -0.028277
v 0.085806 0.780858 -0.028853
v 0.068113 0.736628 -0.028580
v 0.058400 0.743848 -0.028929
v 0.049288 0.750651 -0.023243
v 0.027796 0.705713 -0.029084
v 0.018647 0.711857 -0.023169
v 0.012348 0.716098 -0.012938
v -0.009839 0.665788 -0.024362
v -0.017968 0.669473 -0.013463
v -0.019857 0.672044 0.000418
v 0.000509 0.662825 -0.029488
v 0.013133 0.659729 -0.029577
v 0.038020 0.698912 -0.029375
v 0.047507 0.692625 -0.024234
v 0.024664 0.656069 -0.024079
v 0.077218 0.729907 -0.022657
v 0.083536 0.725225 -0.012676
v 0.054473 0.687925 -0.013924
v 0.110433 0.763920 -0.011971
v 0.112626 0.762415 0.000922
v 0.085556 0.723685 0.000311
v 0.138269 0.802681 0.001564
v 0.135584 0.804504 0.013978
v 0.110153 0.764058 0.013265
v 0.161381 0.845351 0.014601
v 0.154241 0.849703 0.024110
v 0.128910 0.809033 0.023596
v 0.179757 0.890283 0.024485
v 0.170739 0.896276 0.029121
v 0.145015 0.855451 0.028939
v 0.205256 0.929696 0.025624
v 0.196165 0.935591 0.029807
v 0.186857 0.941685 0.028393
v 0.161394 0.902363 0.028072
v 0.224993 0.960708 0.026651
v 0.216535 0.966523 0.030160
v 0.207528 0.972575 0.028850
v 0.199079 0.978120 0.022365
v 0.178394 0.947235 0.021790
v 0.216073 0.984172 0.028253
v 0.207328 0.989276 0.022360
v 0.200596 0.992692 0.011429
v 0.193402 0.981802 0.011286
v 0.191706 0.982945 -0.003171
v 0.171561 0.951661 -0.002962
v 0.173188 0.950634 0.010919
v 0.198740 0.993542 -0.003373
v 0.203254 0.991137 -0.017813
v 0.195111 0.980511 -0.017025
v 0.207463 0.994942 -0.002711
v 0.211408 0.992175 -0.014085
v 0.202618 0.975682 -0.026594
v 0.174325 0.949729 -0.016099
v 0.146128 0.911971 -0.002494
v 0.121590 0.870656 0.011264
v 0.147523 0.911170 0.010844
v 0.127085 0.867007 0.021821
v 0.152806 0.907841 0.021646
v 0.135580 0.861466 0.028112
v 0.101914 0.826793 0.022233
v 0.110512 0.821292 0.028260
v 0.119905 0.815124 0.028787
v 0.084839 0.781444 0.028512
v 0.094385 0.774674 0.028463
v 0.103743 0.768364 0.022777
v 0.067931 0.736453 0.028538
v 0.077265 0.729630 0.022782
v 0.083293 0.725247 0.013151
v 0.048426 0.692223 0.023707
v 0.054670 0.687902 0.013110
v 0.057039 0.686231 -0.000481
v 0.033754 0.653706 0.011941
v 0.036260 0.652344 -0.001405
v 0.032781 0.653308 -0.014559
v 0.028062 0.615389 -0.002218
v 0.024171 0.614237 -0.015245
v 0.014369 0.614087 -0.025328
v 0.013044 0.559385 -0.014427
v 0.005717 0.509620 -0.005759
v 0.030200 0.531640 -0.010619
v 0.063066 0.552105 -0.017746
v 0.069822 0.544868 -0.019649
v 0.076542 0.537557 -0.016142
v 0.049203 0.511828 -0.018610
v 0.020505 0.486261 -0.021643
v 0.080671 0.533088 -0.007553
v -0.003166 0.448675 -0.018711
v -0.011270 0.454147 -0.026859
v -0.009676 0.405297 -0.017942
v -0.018713 0.406500 -0.026543
v -0.031555 0.408258 -0.029755
v -0.025335 0.456809 -0.030012
v -0.017541 0.508588 -0.029677
v -0.039951 0.459406 -0.029463
v -0.033171 0.508286 -0.029345
v -0.050804 0.460741 -0.022574
v -0.044284 0.506972 -0.022187
v -0.039189 0.548871 -0.020990
v -0.052352 0.505747 -0.010033
v -0.046828 0.545013 -0.009097
v -0.045271 0.580265 -0.006719
v -0.042361 0.587418 -0.017942
v -0.065318 0.607261 -0.006392
v -0.062002 0.612012 -0.018586
v -0.054302 0.504250 0.003809
v -0.058733 0.461657 -0.010508
v -0.060699 0.461717 0.003529
v -0.055697 0.460746 0.016917
v -0.068026 0.413426 0.003066
v -0.063101 0.412842 0.016399
v -0.075425 0.364438 0.002645
v -0.070703 0.363680 0.015906
v -0.060574 0.362172 0.026769
v -0.078090 0.314516 0.015776
v -0.067938 0.313216 0.026691
v -0.054129 0.311410 0.030858
v -0.075867 0.264340 0.026187
v -0.062285 0.262215 0.030690
v -0.048491 0.260094 0.028738
v -0.040265 0.309629 0.028592
v -0.037008 0.258411 0.022241
v -0.029076 0.308103 0.022088
v -0.029943 0.257493 0.011034
v -0.022360 0.307089 0.010813
v -0.028079 0.257420 -0.002962
v -0.020900 0.306829 -0.003323
v -0.013886 0.354980 -0.003388
v -0.023127 0.306729 -0.015827
v -0.016183 0.355514 -0.016642
v -0.031643 0.308173 -0.024550
v -0.024884 0.356936 -0.025363
v -0.043872 0.309898 -0.029163
v -0.037085 0.358828 -0.029325
v -0.058523 0.311929 -0.030258
v -0.051706 0.361042 -0.030137
v -0.045660 0.410218 -0.029837
v -0.064695 0.362991 -0.023278
v -0.057760 0.411965 -0.022906
v -0.073069 0.364170 -0.010878
v -0.065877 0.413111 -0.010685
v -0.071781 0.313736 -0.023566
v -0.080229 0.314820 -0.011249
v -0.082850 0.315133 0.002450
v -0.087466 0.265893 -0.011370
v -0.090229 0.266523 0.001911
v -0.085587 0.265852 0.015000
v -0.097945 0.215515 0.001476
v -0.093459 0.214733 0.014698
v -0.084252 0.213210 0.025633
v -0.100800 0.164493 0.014558
v -0.091728 0.163333 0.025379
v -0.078972 0.161345 0.030199
v -0.070872 0.211212 0.030457
v -0.065123 0.159218 0.028942
v -0.057134 0.209139 0.028892
v -0.053462 0.157423 0.022861
v -0.045360 0.207386 0.022594
v -0.045678 0.156185 0.011980
v -0.037858 0.206370 0.011418
v -0.042886 0.155627 -0.001467
v -0.035503 0.206183 -0.002255
v -0.045758 0.155975 -0.014568
v -0.038120 0.206629 -0.015015
v -0.030324 0.258025 -0.015285
v -0.047173 0.207971 -0.024435
v -0.039078 0.258812 -0.024325
v -0.059729 0.209761 -0.029260
v -0.051531 0.260366 -0.029164
v -0.073855 0.211837 -0.030069
v -0.066042 0.262364 -0.030229
v -0.086505 0.213753 -0.023794
v -0.079110 0.264364 -0.023623
v -0.094838 0.215051 -0.011845
v -0.093729 0.162833 -0.024187
v -0.101982 0.164194 -0.012725
v -0.105549 0.164902 0.000892
v -0.108661 0.115149 -0.013827
v -0.112929 0.115787 0.000226
v -0.108345 0.115115 0.014284
v -0.120455 0.066194 -0.000221
v -0.115797 0.065417 0.013984
v -0.106455 0.063914 0.025285
v -0.099298 0.113776 0.025058
v -0.093547 0.061959 0.030291
v -0.086493 0.111974 0.030160
v -0.080414 0.060074 0.028884
v -0.072706 0.110073 0.028918
v -0.069156 0.058507 0.023074
v -0.061199 0.108371 0.022922
v -0.060829 0.057322 0.012661
v -0.053141 0.106971 0.012300
v -0.057531 0.056905 -0.000532
v -0.050117 0.106231 -0.001091
v -0.060689 0.057552 -0.013633
v -0.053476 0.106559 -0.014336
v -0.069866 0.059062 -0.023820
v -0.062762 0.107918 -0.024321
v -0.055133 0.157350 -0.024427
v -0.075155 0.109898 -0.029329
v -0.067748 0.159088 -0.029333
v -0.088345 0.112024 -0.029908
v -0.081344 0.160955 -0.029948
v -0.100274 0.113871 -0.024764
v -0.094947 0.062871 -0.029995
v -0.107055 0.064502 -0.025105
v -0.115614 0.065619 -0.014192
v -0.111899 0.026754 -0.025403
v -0.121098 0.027701 -0.014382
v -0.125892 0.028356 -0.000686
v -0.122658 0.015274 -0.014791
v -0.127729 0.016229 -0.001108
v -0.123024 0.015296 0.014216
v -0.121329 0.027518 0.013989
v -0.111688 0.013616 0.026302
v -0.111232 0.026378 0.025669
v -0.099927 0.011915 0.030524
v -0.098912 0.024741 0.030382
v -0.088981 0.010433 0.029027
v -0.086730 0.023033 0.029010
v -0.077437 0.008743 0.023450
v -0.075183 0.021423 0.023296
v -0.068307 0.007140 0.012775
v -0.066361 0.020219 0.012781
v -0.065027 0.006652 -0.000229
v -0.063095 0.019786 -0.000257
v -0.068154 0.007516 -0.012849
v -0.066256 0.020340 -0.013126
v -0.076573 0.009248 -0.022732
v -0.075073 0.021732 -0.023227
v -0.088521 0.011083 -0.028917
v -0.087080 0.023467 -0.029083
v -0.081968 0.060955 -0.029200
v -0.099848 0.025144 -0.030128
v -0.101058 0.012611 -0.030229
v -0.113062 0.014015 -0.025717
v -0.101132 0.004706 -0.026627
v -0.111979 0.006216 -0.022698
v -0.121041 0.007979 -0.013348
v -0.124788 0.008230 -0.001032
v -0.121522 0.007893 0.012689
v -0.089905 0.003742 -0.025677
v -0.073905 0.000640 0.010630
v -0.081687 0.001920 0.020314
v -0.088356 0.002219 0.013104
v -0.082977 0.001523 0.005953
v -0.096038 0.003355 0.006381
v -0.091465 0.002920 0.000447
v 0.185017 0.637293 0.017743
v 0.220109 0.649843 0.016709
v 0.216941 0.657692 0.016241
vt 0.441039 0.286441
vt 0.443266 0.280331
vt 0.449930 0.285077
vt 0.443855 0.291237
vt 0.438110 0.294548
vt 0.435033 0.287544
vt 0.433480 0.279548
vt 0.413728 0.308249
vt 0.413661 0.302361
vt 0.420578 0.304806
vt 0.417877 0.312041
vt 0.407095 0.309985
vt 0.405253 0.301129
vt 0.412350 0.317289
vt 0.427567 0.300429
vt 0.432239 0.297619
vt 0.434471 0.306419
vt 0.426884 0.307025
vt 0.422663 0.297355
vt 0.427554 0.290965
vt 0.136149 0.075499
vt 0.135582 0.070795
vt 0.140280 0.071382
vt 0.140280 0.076442
vt 0.128078 0.081280
vt 0.124758 0.073589
vt 0.134602 0.086913
vt 0.499599 0.626129
vt 0.553357 0.621858
vt 0.551969 0.630921
vt 0.500998 0.628689
vt 0.285134 0.442086
vt 0.283091 0.445950
vt 0.248004 0.437614
vt 0.246258 0.431352
vt 0.632399 0.853790
vt 0.641289 0.857502
vt 0.638527 0.867850
vt 0.628957 0.862568
vt 0.133441 0.326046
vt 0.129118 0.326970
vt 0.129280 0.321884
vt 0.133764 0.321779
vt 0.140365 0.331267
vt 0.134472 0.335768
vt 0.143330 0.324366
vt 0.134776 0.317610
vt 0.130703 0.316808
vt 0.133383 0.113877
vt 0.133043 0.104020
vt 0.140280 0.106001
vt 0.136738 0.115883
vt 0.129442 0.115883
vt 0.125216 0.105294
vt 0.495736 0.223843
vt 0.493231 0.228507
vt 0.467106 0.206225
vt 0.498604 0.219219
vt 0.451304 0.469929
vt 0.452860 0.472145
vt 0.412925 0.484456
vt 0.414176 0.475284
vt 0.289709 0.309055
vt 0.254496 0.320204
vt 0.255218 0.313605
vt 0.287526 0.304385
vt 0.211354 0.364906
vt 0.211670 0.364678
vt 0.211289 0.378862
vt 0.178646 0.381196
vt 0.197027 0.354077
vt 0.217406 0.359812
vt 0.187421 0.095553
vt 0.227215 0.103627
vt 0.231767 0.114359
vt 0.188425 0.114359
vt 0.228186 0.379058
vt 0.454385 0.297381
vt 0.451547 0.303183
vt 0.446474 0.296767
vt 0.452800 0.291543
vt 0.019313 0.050802
vt 0.019246 0.042618
vt 0.028565 0.043615
vt 0.024934 0.052326
vt 0.013317 0.052404
vt 0.010188 0.044646
vt 0.856614 0.443608
vt 0.857335 0.451777
vt 0.844524 0.452043
vt 0.846199 0.441643
vt 0.068542 0.164587
vt 0.067326 0.155494
vt 0.076650 0.152484
vt 0.076297 0.164677
vt 0.392546 0.428315
vt 0.394919 0.435275
vt 0.385070 0.435129
vt 0.384246 0.426522
vt 0.576930 0.153231
vt 0.571834 0.128608
vt 0.599650 0.135824
vt 0.598693 0.150061
vt 0.569961 0.165260
vt 0.534085 0.137813
vt 0.531640 0.128212
vt 0.530078 0.114640
vt 0.097398 0.015700
vt 0.115304 0.000341
vt 0.148405 0.007714
vt 0.146275 0.020239
vt 0.428464 0.271411
vt 0.406448 0.269924
vt 0.407747 0.256090
vt 0.414766 0.254379
vt 0.369985 0.499069
vt 0.372704 0.509222
vt 0.362768 0.509365
vt 0.363686 0.499515
vt 0.367273 0.487347
vt 0.372502 0.487022
vt 0.410328 0.433848
vt 0.406238 0.428988
vt 0.414174 0.426526
vt 0.416773 0.433713
vt 0.407488 0.440652
vt 0.398915 0.434893
vt 0.417895 0.442187
vt 0.427108 0.407437
vt 0.431222 0.403607
vt 0.435152 0.411429
vt 0.428268 0.413032
vt 0.420704 0.405642
vt 0.422692 0.398692
vt 0.420048 0.412864
vt 0.426468 0.424405
vt 0.427765 0.419329
vt 0.435247 0.420574
vt 0.431067 0.427906
vt 0.424555 0.432339
vt 0.420927 0.425553
vt 0.420296 0.419539
vt 0.404066 0.401276
vt 0.400083 0.396533
vt 0.409385 0.391191
vt 0.410732 0.398926
vt 0.402367 0.406587
vt 0.394733 0.403374
vt 0.411279 0.405794
vt 0.611638 0.598287
vt 0.620453 0.587653
vt 0.624471 0.595379
vt 0.621457 0.609647
vt 0.591033 0.594505
vt 0.612745 0.579098
vt 0.603675 0.611781
vt 0.604912 0.627615
vt 0.552279 0.605640
vt 0.548523 0.596713
vt 0.360575 0.461959
vt 0.358137 0.455230
vt 0.366371 0.454674
vt 0.367064 0.463162
vt 0.090288 0.082266
vt 0.099238 0.081170
vt 0.098032 0.089962
vt 0.088297 0.089160
vt 0.979695 0.462248
vt 0.980340 0.469632
vt 0.967743 0.469332
vt 0.969827 0.459832
vt 0.382566 0.452416
vt 0.375360 0.453954
vt 0.375305 0.445225
vt 0.384810 0.444876
vt 0.388246 0.458659
vt 0.377188 0.463534
vt 0.394919 0.446851
vt 0.366848 0.440195
vt 0.374514 0.436736
vt 0.366120 0.446565
vt 0.361023 0.436191
vt 0.371515 0.428129
vt 0.357753 0.446118
vt 0.040515 0.057332
vt 0.039215 0.048276
vt 0.050464 0.048276
vt 0.051843 0.057942
vt 0.001947 0.065902
vt 0.014300 0.066543
vt 0.014296 0.078057
vt 0.002072 0.076344
vt 0.043274 0.069007
vt 0.043220 0.079736
vt 0.042867 0.089611
vt 0.013811 0.089962
vt 0.013660 0.316296
vt 0.015511 0.329027
vt 0.003411 0.328969
vt 0.001914 0.316296
vt 0.040431 0.329109
vt 0.039491 0.339846
vt 0.013985 0.341395
vt 0.001506 0.341551
vt 0.076239 0.329731
vt 0.074271 0.340952
vt 0.815519 0.447943
vt 0.776145 0.439946
vt 0.780205 0.429533
vt 0.817351 0.437641
vt 0.783823 0.422750
vt 0.819125 0.427953
vt 0.848310 0.432639
vt 0.403284 0.071665
vt 0.367585 0.071517
vt 0.368406 0.062221
vt 0.403006 0.061748
vt 0.432762 0.060401
vt 0.432765 0.070781
vt 0.402405 0.049650
vt 0.432010 0.046967
vt 0.444442 0.045878
vt 0.445236 0.059430
vt 0.088437 0.152265
vt 0.088055 0.164677
vt 0.401297 0.038967
vt 0.430776 0.035581
vt 0.443117 0.036114
vt 0.965168 0.478474
vt 0.936143 0.471602
vt 0.938995 0.462423
vt 0.978123 0.478875
vt 0.903577 0.461015
vt 0.904916 0.453690
vt 0.905750 0.444486
vt 0.941948 0.452264
vt 0.905683 0.435172
vt 0.944018 0.444211
vt 0.125032 0.080182
vt 0.123947 0.089962
vt 0.043146 0.059600
vt 0.082478 0.058499
vt 0.084441 0.068567
vt 0.014261 0.057772
vt 0.030635 0.921550
vt 0.031838 0.910538
vt 0.071228 0.910093
vt 0.072271 0.920139
vt 0.120958 0.063021
vt 0.121983 0.073044
vt 0.085016 0.079934
vt 0.000799 0.282998
vt 0.042634 0.279473
vt 0.043136 0.289445
vt 0.001715 0.294284
vt 0.084217 0.089962
vt 0.081029 0.276373
vt 0.081482 0.286536
vt 0.082396 0.296486
vt 0.044468 0.299202
vt 0.004844 0.305099
vt 0.743412 0.416713
vt 0.715450 0.391561
vt 0.721840 0.384063
vt 0.749027 0.408878
vt 0.728723 0.378077
vt 0.755577 0.402115
vt 0.415594 0.033380
vt 0.413086 0.025346
vt 0.446612 0.017789
vt 0.451336 0.026380
vt 0.376964 0.028875
vt 0.375994 0.018604
vt 0.411586 0.014779
vt 0.443314 0.008596
vt 0.376020 0.009553
vt 0.411423 0.005286
vt 0.442978 0.000341
vt 0.368704 0.052439
vt 0.342199 0.049505
vt 0.340769 0.039401
vt 0.367248 0.043174
vt 0.313178 0.045228
vt 0.311791 0.035581
vt 0.872774 0.468721
vt 0.838557 0.478494
vt 0.837692 0.470711
vt 0.872145 0.460313
vt 0.835113 0.461196
vt 0.869915 0.450134
vt 0.071001 0.901227
vt 0.107889 0.896190
vt 0.108715 0.904648
vt 0.866831 0.442208
vt 0.831380 0.453083
vt 0.800842 0.472960
vt 0.796541 0.464760
vt 0.145898 0.898184
vt 0.147896 0.908556
vt 0.110318 0.914870
vt 0.149873 0.917394
vt 0.112105 0.923602
vt 0.073739 0.928648
vt 0.186007 0.900223
vt 0.188355 0.909472
vt 0.119133 0.273810
vt 0.158354 0.271790
vt 0.158632 0.282640
vt 0.119532 0.284195
vt 0.158735 0.293305
vt 0.120175 0.294356
vt 0.688759 0.365631
vt 0.663555 0.337596
vt 0.671279 0.330635
vt 0.695579 0.358301
vt 0.679853 0.325168
vt 0.703109 0.352389
vt 0.340407 0.032155
vt 0.303880 0.033545
vt 0.304031 0.022363
vt 0.339804 0.021473
vt 0.304482 0.012526
vt 0.339994 0.012122
vt 0.171476 0.496839
vt 0.200040 0.496544
vt 0.199537 0.507712
vt 0.170904 0.507577
vt 0.143534 0.507481
vt 0.144199 0.497099
vt 0.805231 0.490543
vt 0.773919 0.504845
vt 0.772159 0.496773
vt 0.804086 0.482745
vt 0.767965 0.486886
vt 0.742180 0.514405
vt 0.736937 0.504585
vt 0.730402 0.496504
vt 0.762454 0.478695
vt 0.183114 0.889593
vt 0.219651 0.877599
vt 0.223249 0.888426
vt 0.256013 0.864190
vt 0.260077 0.875463
vt 0.263117 0.885636
vt 0.226042 0.898288
vt 0.197612 0.271046
vt 0.236645 0.271067
vt 0.236856 0.282967
vt 0.197807 0.282533
vt 0.236352 0.294405
vt 0.197508 0.293661
vt 0.641605 0.306928
vt 0.621352 0.275033
vt 0.630461 0.268354
vt 0.650241 0.300338
vt 0.640349 0.263574
vt 0.659754 0.295434
vt 0.266943 0.032008
vt 0.228474 0.028806
vt 0.229604 0.016939
vt 0.267876 0.020377
vt 0.230455 0.006250
vt 0.268647 0.009871
vt 0.231294 0.496161
vt 0.265131 0.495925
vt 0.264654 0.508093
vt 0.230691 0.507904
vt 0.261716 0.518221
vt 0.227819 0.517855
vt 0.196367 0.517211
vt 0.299625 0.508349
vt 0.296708 0.518426
vt 0.711546 0.534355
vt 0.680428 0.555264
vt 0.675075 0.545509
vt 0.706198 0.524505
vt 0.667931 0.537586
vt 0.699234 0.516431
vt 0.644759 0.567646
vt 0.638056 0.559474
vt 0.292899 0.849873
vt 0.328668 0.834688
vt 0.332920 0.845716
vt 0.297286 0.861014
vt 0.336523 0.856544
vt 0.300662 0.871574
vt 0.276474 0.271236
vt 0.314899 0.271560
vt 0.315414 0.284056
vt 0.276645 0.283444
vt 0.315023 0.296323
vt 0.275849 0.295306
vt 0.601606 0.242045
vt 0.582896 0.208759
vt 0.591722 0.201452
vt 0.610853 0.235459
vt 0.600667 0.194410
vt 0.621068 0.230881
vt 0.189302 0.024960
vt 0.190611 0.012811
vt 0.298540 0.483624
vt 0.336653 0.483627
vt 0.337187 0.496910
vt 0.299992 0.496049
vt 0.191485 0.001888
vt 0.335980 0.508936
vt 0.361681 0.517821
vt 0.332603 0.518426
vt 0.649193 0.577132
vt 0.563794 0.175764
vt 0.354264 0.296902
vt 0.352581 0.284252
vt 0.388462 0.280994
vt 0.394090 0.291848
vt 0.402543 0.301440
vt 0.357734 0.306481
vt 0.003456 0.149511
vt 0.000427 0.137505
vt 0.027467 0.137367
vt 0.030733 0.150700
vt 0.534902 0.149720
vt 0.503326 0.141412
vt 0.502131 0.129750
vt 0.470520 0.134332
vt 0.472106 0.123035
vt 0.475391 0.110945
vt 0.500857 0.117465
vt 0.479750 0.098851
vt 0.498688 0.103847
vt 0.432853 0.114448
vt 0.436101 0.102192
vt 0.444191 0.089012
vt 0.387187 0.104436
vt 0.390011 0.090927
vt 0.392677 0.078946
vt 0.343008 0.079902
vt 0.345629 0.068076
vt 0.046282 0.117425
vt 0.088015 0.118586
vt 0.088693 0.131122
vt 0.047042 0.129790
vt 0.009473 0.130236
vt 0.001361 0.118114
vt 0.265416 0.322195
vt 0.313519 0.325824
vt 0.312472 0.338010
vt 0.264034 0.335083
vt 0.223933 0.333388
vt 0.221941 0.320312
vt 0.263528 0.349114
vt 0.223484 0.347785
vt 0.186384 0.354327
vt 0.186311 0.338145
vt 0.179924 0.322009
vt 0.152717 0.359233
vt 0.153028 0.347041
vt 0.149380 0.334832
vt 0.413904 0.493941
vt 0.451306 0.494029
vt 0.120910 0.354013
vt 0.119074 0.344017
vt 0.090120 0.012198
vt 0.062005 0.008903
vt 0.066927 0.001130
vt 0.094536 0.001130
vt 0.378691 0.483958
vt 0.379233 0.475191
vt 0.115027 0.336571
vt 0.087166 0.350414
vt 0.084142 0.342813
vt 0.343420 0.480107
vt 0.344046 0.471855
vt 0.345542 0.463087
vt 0.380939 0.466647
vt 0.308393 0.475234
vt 0.308495 0.467374
vt 0.309622 0.458465
vt 0.146618 0.313969
vt 0.146444 0.305628
vt 0.183252 0.305389
vt 0.183214 0.313784
vt 0.273093 0.466085
vt 0.272492 0.457177
vt 0.109367 0.315867
vt 0.108157 0.307427
vt 0.107913 0.297918
vt 0.146618 0.296934
vt 0.074640 0.318845
vt 0.072409 0.311227
vt 0.071720 0.302594
vt 0.064096 0.462427
vt 0.064540 0.454716
vt 0.103228 0.457964
vt 0.102943 0.466583
vt 0.040071 0.316283
vt 0.039042 0.307989
vt 0.028507 0.457867
vt 0.028804 0.450388
vt 0.029814 0.441949
vt 0.065539 0.446152
vt 0.001356 0.454321
vt 0.001651 0.447207
vt 0.001936 0.438221
vt 0.628006 0.797834
vt 0.621050 0.798903
vt 0.605756 0.767198
vt 0.613194 0.763986
vt 0.103328 0.448359
vt 0.031436 0.435079
vt 0.067099 0.439293
vt 0.632884 0.831743
vt 0.625052 0.834344
vt 0.612888 0.801675
vt 0.003881 0.431352
vt 0.606088 0.805591
vt 0.592653 0.776614
vt 0.598215 0.771866
vt 0.618770 0.837865
vt 0.315703 0.323311
vt 0.314865 0.315719
vt 0.345628 0.316584
vt 0.346642 0.324779
vt 0.292026 0.322429
vt 0.290989 0.315371
vt 0.291921 0.307776
vt 0.315673 0.307836
vt 0.127514 0.338502
vt 0.120832 0.338458
vt 0.119590 0.327391
vt 0.124543 0.327612
vt 0.120702 0.321633
vt 0.125087 0.321909
vt 0.318135 0.300903
vt 0.349626 0.300852
vt 0.346696 0.307877
vt 0.294313 0.301157
vt 0.005074 0.370168
vt 0.001293 0.362312
vt 0.024070 0.354734
vt 0.027205 0.362364
vt 0.375096 0.308217
vt 0.373658 0.316558
vt 0.027986 0.370771
vt 0.055806 0.356165
vt 0.056732 0.365162
vt 0.055688 0.373318
vt 0.026513 0.378146
vt 0.374534 0.324779
vt 0.088218 0.359767
vt 0.087456 0.368244
vt 0.571035 0.751470
vt 0.546612 0.726474
vt 0.551498 0.720467
vt 0.576425 0.745523
vt 0.558231 0.714148
vt 0.583341 0.739612
vt 0.564749 0.709501
vt 0.589637 0.735573
vt 0.140801 0.446720
vt 0.176650 0.443253
vt 0.177602 0.451937
vt 0.141499 0.455544
vt 0.177826 0.460541
vt 0.141532 0.464013
vt 0.213043 0.448944
vt 0.213542 0.457361
vt 0.183483 0.296708
vt 0.219665 0.296353
vt 0.219513 0.305151
vt 0.256013 0.296626
vt 0.255830 0.305730
vt 0.219177 0.313534
vt 0.285281 0.298337
vt 0.286911 0.303005
vt 0.492517 0.229881
vt 0.490495 0.234500
vt 0.433072 0.230628
vt 0.430041 0.219764
vt 0.427723 0.209044
vt 0.420651 0.196573
vt 0.387506 0.214355
vt 0.387246 0.201822
vt 0.259213 0.115883
vt 0.227893 0.101322
vt 0.230497 0.087697
vt 0.257083 0.099873
vt 0.600902 0.123186
vt 0.568260 0.114741
vt 0.199232 0.092606
vt 0.201122 0.080017
vt 0.637045 0.127579
vt 0.636873 0.138893
vt 0.636191 0.151923
vt 0.679306 0.120567
vt 0.682058 0.131306
vt 0.684228 0.143170
vt 0.323299 0.267215
vt 0.323891 0.255661
vt 0.376110 0.255730
vt 0.372031 0.267957
vt 0.726433 0.119262
vt 0.729163 0.131030
vt 0.276414 0.268469
vt 0.276349 0.256713
vt 0.275650 0.243983
vt 0.323514 0.242531
vt 0.231751 0.269218
vt 0.231644 0.257525
vt 0.231104 0.244804
vt 0.220792 0.398339
vt 0.220373 0.385696
vt 0.261689 0.387830
vt 0.262423 0.400588
vt 0.187253 0.257690
vt 0.186863 0.245118
vt 0.178848 0.396632
vt 0.178356 0.384073
vt 0.187498 0.427714
vt 0.187108 0.415613
vt 0.229508 0.415469
vt 0.229627 0.427791
vt 0.134832 0.395463
vt 0.134127 0.383026
vt 0.144167 0.428561
vt 0.143359 0.416547
vt 0.140819 0.406801
vt 0.184932 0.405760
vt 0.100870 0.429251
vt 0.100059 0.417132
vt 0.097582 0.407620
vt 0.872732 0.799627
vt 0.866252 0.808005
vt 0.829378 0.781172
vt 0.835774 0.772837
vt 0.065280 0.153282
vt 0.065566 0.164677
vt 0.029601 0.164677
vt 0.029593 0.153437
vt 0.908838 0.826073
vt 0.902375 0.834497
vt 0.895742 0.844433
vt 0.859642 0.817557
vt 0.937729 0.847380
vt 0.931574 0.855164
vt 0.924531 0.865107
vt 0.918520 0.874648
vt 0.890658 0.853564
vt 0.943082 0.862777
vt 0.935915 0.872572
vt 0.929032 0.882122
vt 0.003753 0.242024
vt 0.004802 0.227777
vt 0.017345 0.228754
vt 0.016204 0.242440
vt 0.437779 0.323254
vt 0.422875 0.323254
vt 0.425023 0.316444
vt 0.436635 0.316310
vt 0.446855 0.310378
vt 0.450892 0.316097
vt 0.031825 0.054892
vt 0.038120 0.047812
vt 0.441386 0.301986
vt 0.016355 0.215580
vt 0.050423 0.216491
vt 0.050789 0.229434
vt 0.049792 0.241637
vt 0.003200 0.215106
vt 0.094126 0.216337
vt 0.094458 0.228923
vt 0.093322 0.240548
vt 0.138687 0.228361
vt 0.137423 0.239790
vt 0.854550 0.826252
vt 0.817606 0.799487
vt 0.822769 0.790738
vt 0.779664 0.772222
vt 0.784837 0.763445
vt 0.791445 0.753778
vt 0.747716 0.736922
vt 0.754782 0.727098
vt 0.761762 0.718796
vt 0.797875 0.745623
vt 0.720044 0.699226
vt 0.727508 0.690962
vt 0.227721 0.405094
vt 0.270329 0.405487
vt 0.271971 0.416262
vt 0.315992 0.406886
vt 0.318020 0.417649
vt 0.318354 0.429989
vt 0.272111 0.428683
vt 0.367091 0.414751
vt 0.368997 0.428263
vt 0.306031 0.390296
vt 0.357124 0.390590
vt 0.356761 0.404067
vt 0.306756 0.403104
vt 0.392914 0.388892
vt 0.396443 0.399112
vt 0.375963 0.241639
vt 0.412303 0.244161
vt 0.357212 0.377477
vt 0.394524 0.380112
vt 0.185841 0.104407
vt 0.186024 0.115883
vt 0.140304 0.115883
vt 0.152582 0.100450
vt 0.362121 0.405094
vt 0.652454 0.631789
vt 0.648863 0.642871
vt 0.692336 0.660125
vt 0.685319 0.668661
vt 0.678260 0.678465
vt 0.644192 0.654861
vt 0.712504 0.708920
vt 0.706634 0.717686
vt 0.672305 0.687928
vt 0.742469 0.745423
vt 0.226993 0.238201
vt 0.228421 0.226971
vt 0.271926 0.225767
vt 0.270411 0.237123
vt 0.182636 0.239052
vt 0.183904 0.227595
vt 0.183618 0.215173
vt 0.228238 0.214690
vt 0.138518 0.215779
vt 0.137012 0.204625
vt 0.181820 0.204010
vt 0.092226 0.205425
vt 0.001688 0.115883
vt 0.000826 0.104518
vt 0.035335 0.101215
vt 0.035872 0.112717
vt 0.048564 0.205662
vt 0.900739 0.066153
vt 0.945209 0.057227
vt 0.947601 0.065558
vt 0.903261 0.074308
vt 0.949898 0.075961
vt 0.905552 0.084621
vt 0.980095 0.050438
vt 0.982606 0.058424
vt 0.984971 0.068523
vt 0.986881 0.079662
vt 0.951804 0.087151
vt 0.996009 0.055506
vt 0.998378 0.065314
vt 0.999809 0.076365
vt 0.001276 0.271411
vt 0.002400 0.258973
vt 0.014915 0.258677
vt 0.014661 0.271000
vt 0.444281 0.273579
vt 0.454018 0.279260
vt 0.431472 0.272408
vt 0.014313 0.244820
vt 0.049972 0.244682
vt 0.050499 0.257974
vt 0.050324 0.269927
vt 0.002093 0.244806
vt 0.001139 0.392287
vt 0.000599 0.377477
vt 0.012666 0.378760
vt 0.012825 0.392687
vt 0.417995 0.277712
vt 0.422144 0.283754
vt 0.414762 0.293128
vt 0.408209 0.288869
vt 0.024358 0.429291
vt 0.023376 0.416756
vt 0.057395 0.417230
vt 0.058145 0.429514
vt 0.046740 0.380340
vt 0.047117 0.393319
vt 0.012062 0.428409
vt 0.010048 0.416129
vt 0.090010 0.381846
vt 0.090612 0.394258
vt 0.095144 0.244726
vt 0.141105 0.244945
vt 0.141711 0.257420
vt 0.095621 0.257419
vt 0.141518 0.269210
vt 0.095342 0.269319
vt 0.907356 0.095836
vt 0.861569 0.104051
vt 0.859671 0.092937
vt 0.816539 0.111927
vt 0.814703 0.100825
vt 0.812337 0.090614
vt 0.857468 0.082644
vt 0.769830 0.109302
vt 0.766948 0.098948
vt 0.069403 0.098177
vt 0.103516 0.094935
vt 0.103978 0.107105
vt 0.070023 0.109787
vt 0.136253 0.089882
vt 0.137073 0.102272
vt 0.226566 0.203720
vt 0.269937 0.202091
vt 0.271782 0.213088
vt 0.312799 0.198854
vt 0.314477 0.210793
vt 0.314653 0.224209
vt 0.352006 0.211055
vt 0.351870 0.224238
vt 0.351294 0.235461
vt 0.313127 0.235833
vt 0.388349 0.227680
vt 0.389855 0.238953
vt 0.640131 0.665250
vt 0.603031 0.653963
vt 0.604434 0.641616
vt 0.550712 0.639602
vt 0.443809 0.242440
vt 0.492376 0.238935
vt 0.502272 0.631822
vt 0.280646 0.449832
vt 0.249210 0.447424
vt 0.249443 0.454784
vt 0.211943 0.439900
vt 0.541594 0.682900
vt 0.534498 0.687715
vt 0.515000 0.658386
vt 0.520374 0.654329
vt 0.526762 0.694371
vt 0.503611 0.666717
vt 0.496583 0.674577
vt 0.470808 0.647743
vt 0.480743 0.637655
vt 0.521351 0.700700
vt 0.120266 0.363532
vt 0.441063 0.621947
vt 0.445433 0.614183
vt 0.451958 0.604512
vt 0.403932 0.604931
vt 0.406443 0.593902
vt 0.409105 0.581365
vt 0.455545 0.590969
vt 0.504949 0.602469
vt 0.458706 0.578212
vt 0.505394 0.588478
vt 0.465377 0.819795
vt 0.506745 0.831963
vt 0.502942 0.843862
vt 0.463895 0.832455
vt 0.428363 0.823240
vt 0.426733 0.809896
vt 0.037072 0.168375
vt 0.077826 0.167292
vt 0.080190 0.181094
vt 0.041851 0.181666
vt 0.008072 0.184812
vt 0.001115 0.174016
vt 0.393306 0.821549
vt 0.385165 0.810165
vt 0.400474 0.831983
vt 0.369574 0.842145
vt 0.364539 0.831162
vt 0.359340 0.820692
vt 0.350425 0.271307
vt 0.382859 0.271046
vt 0.045595 0.194173
vt 0.013285 0.194961
vt 0.081499 0.194136
vt 0.123254 0.181035
vt 0.123086 0.194326
vt 0.058141 0.137085
vt 0.093690 0.137077
vt 0.094042 0.150953
vt 0.059354 0.150846
vt 0.134061 0.136915
vt 0.134157 0.150689
vt 0.430742 0.125774
vt 0.384772 0.116286
vt 0.175004 0.136805
vt 0.175336 0.150452
vt 0.337595 0.106540
vt 0.340075 0.093894
vt 0.290503 0.096493
vt 0.293181 0.083879
vt 0.296406 0.070182
vt 0.246151 0.074509
vt 0.249022 0.060790
vt 0.251737 0.048991
vt 0.299441 0.058539
vt 0.128492 0.118559
vt 0.170172 0.118204
vt 0.170763 0.131022
vt 0.128898 0.131131
vt 0.359971 0.328203
vt 0.408336 0.330567
vt 0.407077 0.342898
vt 0.358897 0.340515
vt 0.406420 0.356397
vt 0.358523 0.354056
vt 0.311844 0.351514
vt 0.359038 0.365111
vt 0.311778 0.363189
vt 0.263704 0.361513
vt 0.356212 0.595328
vt 0.309524 0.585245
vt 0.312254 0.574664
vt 0.358930 0.584578
vt 0.315003 0.562189
vt 0.361769 0.572368
vt 0.317795 0.548780
vt 0.364706 0.559101
vt 0.411696 0.568795
vt 0.548712 0.843261
vt 0.590566 0.854842
vt 0.585483 0.868127
vt 0.544123 0.856000
vt 0.170555 0.167334
vt 0.218352 0.167350
vt 0.218495 0.181594
vt 0.170682 0.181322
vt 0.122942 0.167266
vt 0.218228 0.194579
vt 0.170320 0.194437
vt 0.266444 0.167484
vt 0.266694 0.181677
vt 0.266433 0.194920
vt 0.314500 0.182031
vt 0.313982 0.194966
vt 0.216244 0.136908
vt 0.256869 0.136678
vt 0.257150 0.150136
vt 0.216459 0.150618
vt 0.299508 0.136564
vt 0.299989 0.150090
vt 0.243803 0.086915
vt 0.194767 0.076685
vt 0.196921 0.064794
vt 0.146713 0.066244
vt 0.149147 0.054625
vt 0.151871 0.041550
vt 0.199849 0.051184
vt 0.154625 0.029476
vt 0.202603 0.039323
vt 0.213021 0.117696
vt 0.255034 0.117629
vt 0.255919 0.130365
vt 0.213799 0.130637
vt 0.458057 0.332759
vt 0.506722 0.334999
vt 0.505568 0.347243
vt 0.456770 0.345184
vt 0.505114 0.360516
vt 0.456088 0.358520
vt 0.505382 0.371917
vt 0.456199 0.369661
vt 0.406287 0.367214
vt 0.262957 0.574847
vt 0.213857 0.563588
vt 0.216589 0.552272
vt 0.265100 0.563885
vt 0.219439 0.539433
vt 0.267720 0.551115
vt 0.222217 0.526602
vt 0.270469 0.537840
vt 0.673881 0.879960
vt 0.716415 0.893287
vt 0.711383 0.905960
vt 0.668686 0.893128
vt 0.627055 0.880458
vt 0.632130 0.867071
vt 0.314687 0.167910
vt 0.364121 0.168202
vt 0.364159 0.182032
vt 0.413821 0.168217
vt 0.413801 0.181586
vt 0.413361 0.195123
vt 0.363868 0.195123
vt 0.461640 0.180851
vt 0.461394 0.195032
vt 0.341758 0.136333
vt 0.382738 0.136020
vt 0.383238 0.150323
vt 0.341890 0.150330
vt 0.424205 0.135878
vt 0.424768 0.150346
vt 0.099369 0.056306
vt 0.051763 0.046191
vt 0.053996 0.034073
vt 0.101629 0.044664
vt 0.056808 0.020819
vt 0.104549 0.031518
vt 0.059531 0.009484
vt 0.107487 0.019567
vt 0.296407 0.117822
vt 0.338497 0.118031
vt 0.339231 0.130273
vt 0.297222 0.130380
vt 0.554436 0.337440
vt 0.602967 0.339816
vt 0.601621 0.351760
vt 0.553361 0.349530
vt 0.600903 0.364916
vt 0.553014 0.362828
vt 0.600970 0.376215
vt 0.553432 0.374238
vt 0.118250 0.541560
vt 0.071374 0.531178
vt 0.074355 0.519497
vt 0.121068 0.529838
vt 0.168270 0.540839
vt 0.165444 0.552595
vt 0.124113 0.517100
vt 0.171082 0.527916
vt 0.126870 0.505195
vt 0.173613 0.515610
vt 0.759368 0.906417
vt 0.800731 0.918852
vt 0.795831 0.930293
vt 0.754381 0.918574
vt 0.842409 0.930958
vt 0.837600 0.942393
vt 0.461536 0.167907
vt 0.509674 0.167876
vt 0.509967 0.180854
vt 0.546413 0.167693
vt 0.546995 0.180997
vt 0.546854 0.195055
vt 0.509902 0.195172
vt 0.559094 0.180645
vt 0.558726 0.194808
vt 0.455640 0.135772
vt 0.465718 0.135459
vt 0.466583 0.150953
vt 0.456393 0.150628
vt 0.015521 0.038273
vt 0.003871 0.035571
vt 0.006652 0.021443
vt 0.018354 0.025511
vt 0.009275 0.009505
vt 0.021243 0.012958
vt 0.011613 0.000191
vt 0.023803 0.002479
vt 0.369646 0.117628
vt 0.380215 0.117425
vt 0.381196 0.129775
vt 0.370502 0.130047
vt 0.639092 0.341452
vt 0.651498 0.341889
vt 0.650316 0.354324
vt 0.637626 0.353622
vt 0.649670 0.367305
vt 0.636933 0.366626
vt 0.649536 0.378146
vt 0.637092 0.377718
vt 0.035787 0.523203
vt 0.023512 0.520510
vt 0.026636 0.509636
vt 0.038627 0.511867
vt 0.029644 0.496877
vt 0.041507 0.499161
vt 0.077340 0.506884
vt 0.043860 0.487437
vt 0.079907 0.495076
vt 0.031870 0.485256
vt 0.874444 0.940090
vt 0.885221 0.942793
vt 0.880590 0.953944
vt 0.869648 0.951381
vt 0.892828 0.946396
vt 0.888405 0.956339
vt 0.885214 0.968513
vt 0.877917 0.967594
vt 0.558723 0.167266
vt 0.442187 0.409500
vt 0.442167 0.422225
vt 0.436402 0.398442
vt 0.565617 0.181010
vt 0.565694 0.193428
vt 0.424812 0.391191
vt 0.011165 0.090863
vt 0.024493 0.093401
vt 0.024307 0.100636
vt 0.008925 0.098678
vt 0.038984 0.090863
vt 0.039644 0.098442
vt 0.437269 0.432384
vt 0.428852 0.439376
vt 0.023886 0.485775
vt 0.022306 0.496138
vt 0.019725 0.507033
vt 0.016989 0.515663
vt 0.657616 0.366711
vt 0.657426 0.375816
vt 0.657863 0.355464
vt 0.392924 0.425345
vt 0.391793 0.413296
vt 0.401281 0.413759
vt 0.402393 0.422388
vt 0.658960 0.344329
vt 0.411216 0.413127
vt 0.412080 0.420348
vt 0.653185 0.333559
vt 0.660231 0.336998
vt 0.002109 0.008047
vt 0.004419 0.000635
vt 0.000191 0.018566
vt 0.221589 0.359932
vt 0.351726 0.199098
vt 0.169961 0.094678
vt 0.169108 0.082471
vt 0.723276 0.108688
vt 0.772479 0.120753
vt 0.186906 0.269365
vt 0.000849 0.164138
vt 0.000978 0.153428
vt 0.943239 0.841228
vt 0.953346 0.850322
vt 0.948811 0.855905
vt 0.001262 0.049073
vt 0.006593 0.054892
vt 0.993467 0.048427
vt 0.014308 0.205645
vt 0.001081 0.206354
vt 0.522186 0.102093
vt 0.278401 0.454190
vt 0.052870 0.348217
vt 0.274655 0.472828
vt 0.242025 0.479138
vt 0.239066 0.472542
vt 0.236956 0.464249
vt 0.208830 0.487595
vt 0.205971 0.481998
vt 0.203681 0.474203
vt 0.202833 0.466822
vt 0.236577 0.456856
vt 0.180727 0.489253
vt 0.178336 0.482151
vt 0.176996 0.474683
vt 0.183874 0.494029
vt 0.015339 0.320204
vt 0.014122 0.312073
vt 0.416438 0.469367
vt 0.376621 0.516980
vt 0.257688 0.381196
vt 0.245671 0.367681
vt 0.124169 0.065777
vt 0.135582 0.065936
vt 0.126608 0.316808
vt 0.648250 0.856890
vt 0.643995 0.867491
s 1
usemtl tripo_mat_1813e839-89a3-4f29-8d8c-2678e2fb3daa
f 1/1 25/2 26/3 27/4
f 1/1 27/4 28/5 29/6
f 1/1 29/6 30/7 25/2
f 2/8 31/9 32/10 33/11
f 2/8 34/12 35/13 31/9
f 2/8 33/11 36/14 34/12
f 3/15 37/16 38/17 39/18
f 3/15 39/18 32/10 40/19
f 3/15 40/19 41/20 37/16
f 4/21 42/22 43/23 44/24
f 4/21 45/25 46/26 42/22
f 4/21 44/24 47/27 45/25
f 5/28 48/29 49/30 50/31
f 5/32 50/33 51/34 52/35
f 53/36 54/37 55/38 56/39
f 6/40 57/41 58/42 59/43
f 6/40 60/44 61/45 57/41
f 6/40 59/43 62/46 60/44
f 7/47 59/43 58/42 63/48
f 7/49 64/50 62/51 59/52
f 7/49 63/53 65/54 64/50
f 8/55 66/56 67/57 11/58
f 8/59 11/60 68/61 69/62
f 8/63 69/64 70/65 66/66
f 9/67 10/68 71/69 72/70
f 74/71 11/72 10/68 9/67
f 9/73 72/74 73/75 74/76
f 10/68 11/72 75/77 71/69
f 12/78 76/79 77/80 78/81
f 12/82 79/83 80/84 76/85
f 12/82 78/86 81/87 79/83
f 13/88 82/89 83/90 84/91
f 13/92 84/93 85/94 86/95
f 13/96 86/97 87/98 82/99
f 14/100 88/101 89/102 90/103
f 14/100 91/104 92/105 93/106
f 14/100 93/106 94/107 88/101
f 14/108 95/109 96/110 97/111
f 14/112 90/113 98/114 95/115
f 15/116 99/117 100/118 101/119
f 15/116 101/119 95/120 98/121
f 16/122 102/123 103/124 104/125
f 16/122 105/126 106/127 102/123
f 16/122 104/125 107/128 105/126
f 17/129 108/130 109/131 110/132
f 17/129 111/133 112/134 108/130
f 17/129 110/132 113/135 111/133
f 18/136 114/137 115/138 116/139
f 18/136 116/139 117/140 118/141
f 18/136 118/141 119/142 114/137
f 19/143 120/144 121/145 122/146
f 19/143 123/147 124/148 120/144
f 19/143 122/146 125/149 123/147
f 20/150 126/151 127/152 128/153
f 129/154 130/155 126/151 20/150
f 20/150 128/153 21/156 129/154
f 21/156 131/157 48/29 132/158
f 21/156 132/158 133/159 129/154
f 22/160 134/161 135/162 136/163
f 22/164 137/165 138/166 134/167
f 22/168 136/169 139/170 137/171
f 23/172 140/173 141/174 142/175
f 23/172 143/176 144/177 140/173
f 23/172 142/175 145/178 143/176
f 24/179 146/180 141/174 147/181
f 24/179 148/182 149/183 146/180
f 24/179 147/181 150/184 148/182
f 150/185 134/186 138/187 151/188
f 150/189 151/190 152/191 148/192
f 150/184 147/181 135/162 134/161
f 152/191 151/190 153/193 154/194
f 152/191 154/194 155/195 156/196
f 152/197 156/198 149/199 148/200
f 156/198 155/201 157/202 83/203
f 156/198 83/203 82/204 149/199
f 157/202 155/201 158/205 159/206
f 157/207 159/208 160/209 161/210
f 157/207 161/210 84/91 83/90
f 161/210 160/209 162/211 163/212
f 161/210 163/212 85/213 84/91
f 163/214 162/215 164/216 165/217
f 163/214 165/217 166/218 85/219
f 166/218 165/217 167/220 168/221
f 166/218 168/221 143/222 145/223
f 166/224 145/225 86/95 85/94
f 168/221 167/220 169/226 170/227
f 168/221 170/227 144/228 143/222
f 170/229 169/230 171/231 139/170
f 170/229 139/170 136/169 144/232
f 171/231 169/230 172/233 173/234
f 171/231 173/234 174/235 175/236
f 171/231 175/236 137/171 139/170
f 175/236 174/235 176/237 177/238
f 175/239 177/240 138/166 137/165
f 177/241 176/242 178/243 153/193
f 177/241 153/193 151/190 138/244
f 178/245 176/246 179/247 180/248
f 178/243 180/249 181/250 182/251
f 178/243 182/251 154/194 153/193
f 182/252 181/253 183/254 158/255
f 182/251 158/256 155/195 154/194
f 183/254 181/253 184/257 185/258
f 183/254 185/258 186/259 187/260
f 183/254 187/260 159/261 158/255
f 187/262 186/263 188/264 189/265
f 187/262 189/265 160/209 159/208
f 189/265 188/264 190/266 191/267
f 189/268 191/269 162/270 160/271
f 191/269 190/272 192/273 193/274
f 191/269 193/274 164/275 162/270
f 193/274 192/273 194/276 195/277
f 193/274 195/277 196/278 164/275
f 196/279 195/280 197/281 172/282
f 196/279 172/282 169/226 167/220
f 196/279 167/220 165/217 164/216
f 197/281 195/280 194/283 198/284
f 197/285 198/286 199/287 200/288
f 197/285 200/288 173/234 172/233
f 200/288 199/287 201/289 202/290
f 200/288 202/290 174/235 173/234
f 202/291 201/292 203/293 179/247
f 202/290 179/294 176/237 174/235
f 203/295 201/289 204/296 205/297
f 203/293 205/298 206/299 207/300
f 203/293 207/300 180/248 179/247
f 207/300 206/299 208/301 184/302
f 207/300 184/302 181/303 180/248
f 208/301 206/299 209/304 210/305
f 208/306 210/307 211/308 212/309
f 208/306 212/309 185/258 184/257
f 212/309 211/308 213/310 214/311
f 212/309 214/311 186/259 185/258
f 214/312 213/313 215/314 216/315
f 214/312 216/315 188/264 186/263
f 216/315 215/314 217/316 218/317
f 216/315 218/317 190/266 188/264
f 218/318 217/319 219/320 220/321
f 218/318 220/321 192/273 190/272
f 220/321 219/320 221/322 222/323
f 220/321 222/323 194/276 192/273
f 222/324 221/325 223/326 224/327
f 222/324 224/327 198/328 194/329
f 224/330 223/331 225/332 226/333
f 224/330 226/333 199/287 198/286
f 226/333 225/332 227/334 204/296
f 226/333 204/296 201/289 199/287
f 227/334 225/332 228/335 229/336
f 227/334 229/336 230/337 231/338
f 227/334 231/338 205/297 204/296
f 231/339 230/340 232/341 209/304
f 231/339 209/304 206/299 205/298
f 232/341 230/340 233/342 234/343
f 232/341 234/343 235/344 236/345
f 232/341 236/345 210/305 209/304
f 236/346 235/347 237/348 238/349
f 236/346 238/349 211/308 210/307
f 238/349 237/348 239/350 240/351
f 238/349 240/351 213/310 211/308
f 240/352 239/353 241/354 242/355
f 240/352 242/355 215/314 213/313
f 242/355 241/354 243/356 244/357
f 242/355 244/357 217/316 215/314
f 244/358 243/359 245/360 246/361
f 244/358 246/361 219/320 217/319
f 246/361 245/360 247/362 248/363
f 246/361 248/363 221/322 219/320
f 248/364 247/365 249/366 250/367
f 248/364 250/367 223/326 221/325
f 250/367 249/366 251/368 228/369
f 250/367 228/369 225/370 223/326
f 251/368 249/366 252/371 253/372
f 251/373 253/374 254/375 255/376
f 251/373 255/376 229/336 228/335
f 255/376 254/375 256/377 233/378
f 255/376 233/378 230/337 229/336
f 256/377 254/375 257/379 258/380
f 256/381 258/382 259/383 260/384
f 256/381 260/384 234/343 233/342
f 260/384 259/383 261/385 262/386
f 260/384 262/386 235/344 234/343
f 262/387 261/388 263/389 264/390
f 262/387 264/390 237/348 235/347
f 264/390 263/389 265/391 266/392
f 264/390 266/392 239/350 237/348
f 266/393 265/394 267/395 268/396
f 266/393 268/396 241/354 239/353
f 268/396 267/395 97/397 269/398
f 268/396 269/398 243/356 241/354
f 269/399 97/111 96/110 270/400
f 269/399 270/400 245/360 243/359
f 270/401 96/402 271/403 272/404
f 270/400 272/405 247/362 245/360
f 272/404 271/403 273/406 252/371
f 272/404 252/371 249/366 247/365
f 273/406 271/403 101/119 100/118
f 273/406 100/118 127/407 274/408
f 273/406 274/408 253/372 252/371
f 274/409 127/152 126/151 257/379
f 274/409 257/379 254/375 253/374
f 271/403 96/402 95/120 101/119
f 267/395 265/394 275/410 91/104
f 267/395 91/104 14/100 97/397
f 275/411 276/412 277/413 278/414
f 275/411 278/414 92/415 91/416
f 275/411 265/391 263/389 276/412
f 278/417 277/418 279/419 280/420
f 278/421 280/422 281/423 92/105
f 281/423 280/422 282/424 283/425
f 281/423 283/425 284/426 285/427
f 281/423 285/427 93/106 92/105
f 285/427 284/426 71/428 75/429
f 285/427 75/429 94/107 93/106
f 284/426 283/425 286/430 287/431
f 284/426 287/431 72/432 71/428
f 287/431 286/430 288/433 289/434
f 287/431 289/434 290/435 72/432
f 290/435 289/434 291/436 292/437
f 290/438 292/439 293/440 294/441
f 290/438 294/441 73/442 72/443
f 294/444 293/445 295/446 296/447
f 294/444 296/447 297/448 73/449
f 297/448 296/447 298/450 299/451
f 297/448 299/451 300/452 301/453
f 297/448 301/453 74/454 73/449
f 301/453 300/452 302/455 303/456
f 301/453 303/456 304/457 74/454
f 304/458 68/61 11/60 74/459
f 304/457 303/456 305/460 306/461
f 304/462 306/463 307/464 68/465
f 307/466 308/467 69/62 68/61
f 307/468 306/461 309/469 310/470
f 307/466 310/471 311/472 308/467
f 311/472 312/473 313/474 308/467
f 311/472 310/471 314/475 315/476
f 311/472 315/476 316/477 312/473
f 316/478 317/479 318/480 312/481
f 316/477 315/476 319/482 320/483
f 316/478 320/484 321/485 317/479
f 321/485 322/486 323/487 317/479
f 321/485 320/484 324/488 325/489
f 321/485 325/489 326/490 322/486
f 326/491 327/492 328/493 322/494
f 326/490 325/489 329/495 330/496
f 326/491 330/497 331/498 327/492
f 331/498 332/499 333/500 327/492
f 331/498 330/497 46/501 45/502
f 331/498 45/502 47/503 332/499
f 333/504 334/505 335/506 336/507
f 333/500 336/508 328/493 327/492
f 333/500 332/499 337/509 334/510
f 337/511 338/512 339/513 334/505
f 337/509 332/499 47/503 54/514
f 337/511 54/37 53/36 338/512
f 339/513 340/515 341/516 342/517
f 339/513 342/517 335/506 334/505
f 339/513 338/512 343/518 340/515
f 343/519 344/520 345/521 340/522
f 343/518 338/512 53/36 56/39
f 343/519 56/523 346/524 344/520
f 346/524 61/525 347/526 344/520
f 346/527 56/528 55/529 348/530
f 346/527 348/530 57/41 61/45
f 348/530 55/529 44/531 43/532
f 348/530 43/532 58/42 57/41
f 347/526 349/533 350/534 351/535
f 347/526 351/535 345/521 344/520
f 347/526 61/525 60/536 349/533
f 351/537 350/538 352/539 353/540
f 351/535 353/541 354/542 345/521
f 354/543 353/540 355/544 356/545
f 354/543 356/545 357/546 341/547
f 354/542 341/548 340/522 345/521
f 357/546 356/545 358/549 359/550
f 357/551 359/552 360/553 361/554
f 357/551 361/554 342/517 341/516
f 361/554 360/553 362/555 363/556
f 361/554 363/556 335/506 342/517
f 363/556 362/555 364/557 365/558
f 363/556 365/558 336/507 335/506
f 365/559 364/560 366/561 367/562
f 365/559 367/562 328/493 336/508
f 367/562 366/561 368/563 323/564
f 367/562 323/564 322/494 328/493
f 368/563 366/561 369/565 370/566
f 368/567 370/568 371/569 318/480
f 368/567 318/480 317/479 323/487
f 371/569 370/568 372/570 373/571
f 371/569 373/571 70/65 313/572
f 371/569 313/572 312/481 318/480
f 373/571 372/570 374/573 375/574
f 375/575 374/576 376/577 377/578
f 375/575 377/578 378/579 66/56
f 378/579 379/580 67/57 66/56
f 378/579 377/578 380/581 381/582
f 378/583 381/584 382/585 379/586
f 382/587 89/102 88/101 379/588
f 382/585 381/584 383/589 384/590
f 382/587 384/591 385/592 89/102
f 385/592 386/593 90/103 89/102
f 385/592 384/591 387/594 388/595
f 385/592 388/595 389/596 386/593
f 389/597 390/598 391/599 386/600
f 389/596 388/595 392/601 393/602
f 389/597 393/603 394/604 390/598
f 394/604 395/605 396/606 390/598
f 394/604 393/603 397/607 398/608
f 394/604 398/608 399/609 395/605
f 399/610 400/611 401/612 395/613
f 399/609 398/608 402/614 403/615
f 399/610 403/616 404/617 400/611
f 404/618 405/619 406/620 400/621
f 404/617 403/616 407/622 408/623
f 404/618 408/624 409/625 405/619
f 409/625 410/626 411/627 405/619
f 409/625 408/624 412/628 413/629
f 409/625 413/629 414/630 410/626
f 414/631 415/632 416/633 410/634
f 414/635 413/636 417/637 418/638
f 414/631 418/639 419/640 415/632
f 419/640 420/641 421/642 415/632
f 419/640 418/639 422/643 423/644
f 419/640 423/644 424/645 420/641
f 424/645 425/646 426/647 420/641
f 424/645 423/644 36/648 427/649
f 424/645 427/649 428/650 425/646
f 428/651 429/652 430/653 425/654
f 428/655 427/656 431/657 432/658
f 428/655 432/658 433/659 429/660
f 433/661 76/85 80/84 429/662
f 433/659 432/658 38/17 434/663
f 433/659 434/663 77/80 76/79
f 434/663 38/17 37/16 28/5
f 434/663 28/5 27/4 77/80
f 432/658 431/657 39/18 38/17
f 431/657 427/656 36/14 33/11
f 431/657 33/11 32/10 39/18
f 430/653 435/664 436/665 437/666
f 430/653 437/666 426/667 425/654
f 430/653 429/652 80/668 435/664
f 437/666 436/665 438/669 439/670
f 437/666 439/670 440/671 426/667
f 440/671 439/670 441/672 442/673
f 440/674 442/675 443/676 421/642
f 440/674 421/642 420/641 426/647
f 443/676 442/675 444/677 445/678
f 443/676 445/678 446/679 416/633
f 443/676 416/633 415/632 421/642
f 446/679 445/678 447/680 448/681
f 446/679 448/681 449/682 411/683
f 446/679 411/683 410/634 416/633
f 449/682 448/681 450/684 451/685
f 449/686 451/687 452/688 406/620
f 449/686 406/620 405/619 411/627
f 452/688 451/687 453/689 454/690
f 452/688 454/690 455/691 401/692
f 452/688 401/692 400/621 406/620
f 455/691 454/690 456/693 457/694
f 455/695 457/696 458/697 396/698
f 455/695 396/698 395/613 401/612
f 458/697 457/696 99/699 15/700
f 458/701 15/702 98/114 391/599
f 458/701 391/599 390/598 396/606
f 457/696 456/703 128/704 99/699
f 456/705 459/706 21/707 128/708
f 456/693 454/690 453/689 459/709
f 459/710 460/711 131/157 21/156
f 459/710 453/712 461/713 460/711
f 461/713 462/714 463/715 460/711
f 461/713 453/712 451/685 450/684
f 461/713 450/684 464/716 462/714
f 464/716 465/717 466/718 462/714
f 464/716 450/684 448/681 447/680
f 464/716 447/680 467/719 465/717
f 467/720 468/721 469/722 465/723
f 467/719 447/680 445/678 444/677
f 467/720 444/724 470/725 468/721
f 470/725 471/726 472/727 468/721
f 470/725 444/724 442/673 441/672
f 470/725 441/672 473/728 471/726
f 473/728 474/729 475/730 471/726
f 473/728 441/672 439/670 438/669
f 473/728 438/669 476/731 474/729
f 476/732 477/733 478/734 474/735
f 476/731 438/669 436/665 479/736
f 476/737 479/738 480/739 477/740
f 480/739 481/741 482/742 477/740
f 480/739 479/738 483/743 484/744
f 480/739 484/744 485/745 481/741
f 485/745 486/746 487/747 481/741
f 485/745 484/744 81/748 488/749
f 485/745 488/749 489/750 486/746
f 489/751 490/752 491/753 486/754
f 489/755 488/756 26/3 25/2
f 489/755 25/2 30/7 490/757
f 491/753 492/758 493/759 494/760
f 491/753 494/760 487/761 486/754
f 491/753 490/752 495/762 492/758
f 495/763 496/764 497/765 492/766
f 495/767 490/757 30/7 498/768
f 495/767 498/768 499/769 496/770
f 499/769 31/9 35/13 496/770
f 499/769 498/768 41/20 40/19
f 499/769 40/19 32/10 31/9
f 498/768 30/7 29/6 41/20
f 497/771 500/772 417/773 501/774
f 497/765 501/775 493/776 492/766
f 497/771 496/777 35/778 500/772
f 501/774 417/773 413/629 412/628
f 501/775 412/779 502/780 493/776
f 502/780 412/779 408/623 407/622
f 502/781 407/782 503/783 504/784
f 502/781 504/784 494/760 493/759
f 504/784 503/783 505/785 506/786
f 504/784 506/786 487/761 494/760
f 506/787 505/788 507/789 482/742
f 506/787 482/742 481/741 487/747
f 507/789 505/788 508/790 509/791
f 507/789 509/791 510/792 478/793
f 507/789 478/793 477/740 482/742
f 510/792 509/791 511/794 512/795
f 510/796 512/797 513/798 475/799
f 510/796 475/799 474/735 478/734
f 513/798 512/797 514/800 515/801
f 513/802 515/803 516/804 472/727
f 513/802 472/727 471/726 475/730
f 516/804 515/803 517/805 518/806
f 516/804 518/806 519/807 469/722
f 516/804 469/722 468/721 472/727
f 519/807 518/806 520/808 521/809
f 519/807 521/809 522/810 466/811
f 519/807 466/811 465/723 469/722
f 522/810 521/809 523/812 524/813
f 522/814 524/815 525/816 463/715
f 522/814 463/715 462/714 466/718
f 525/816 524/815 526/817 49/30
f 525/816 49/30 48/29 131/157
f 525/816 131/157 460/711 463/715
f 526/818 376/577 374/576 527/819
f 526/817 527/820 50/31 49/30
f 526/818 524/813 523/812 376/577
f 527/821 528/822 51/34 50/33
f 528/822 372/823 370/566 369/565
f 528/822 369/565 529/824 51/34
f 529/825 530/826 52/827 51/828
f 529/824 369/565 366/561 364/560
f 529/825 364/557 362/555 530/826
f 530/826 531/829 532/830 52/827
f 530/826 362/555 360/553 531/829
f 532/830 302/831 300/832 533/833
f 532/830 533/833 5/28 52/827
f 532/830 531/829 534/834 302/831
f 534/835 305/460 303/456 302/455
f 534/834 531/829 360/553 359/552
f 534/835 359/550 358/549 305/460
f 533/833 300/832 299/836 535/837
f 533/833 535/837 536/838 5/28
f 536/838 535/837 537/839 538/840
f 536/838 538/840 539/841 540/842
f 541/843 540/842 542/844 543/845
f 541/843 543/845 133/159 132/158
f 541/843 132/158 48/29 5/28
f 543/846 542/847 544/848 545/849
f 543/846 545/849 546/850 133/851
f 546/852 545/853 547/854 548/855
f 546/852 548/855 549/856 550/857
f 546/850 550/858 129/859 133/851
f 550/858 549/860 551/861 552/862
f 550/858 552/862 130/863 129/859
f 552/862 551/861 261/385 259/383
f 552/862 259/383 258/382 130/863
f 551/864 549/865 277/413 276/412
f 551/864 276/412 263/389 261/388
f 549/856 548/855 279/866 277/867
f 548/855 547/854 553/868 279/866
f 553/868 547/854 554/869 555/870
f 553/871 555/872 556/873 282/874
f 553/871 282/874 280/420 279/419
f 556/873 555/872 557/875 558/876
f 556/877 558/878 288/433 286/430
f 556/877 286/430 283/425 282/424
f 558/876 557/875 559/879 560/880
f 558/878 560/881 561/882 288/433
f 561/882 560/881 562/883 563/884
f 561/882 563/884 564/885 291/436
f 561/882 291/436 289/434 288/433
f 564/885 563/884 565/886 566/887
f 564/885 566/887 567/888 568/889
f 564/885 568/889 292/437 291/436
f 568/890 567/891 569/892 570/893
f 568/890 570/893 293/440 292/439
f 570/894 569/895 571/896 572/897
f 570/894 572/897 295/446 293/445
f 572/897 571/896 573/898 574/899
f 572/897 574/899 575/900 295/446
f 575/900 574/899 576/901 577/902
f 575/900 577/902 537/903 298/450
f 575/900 298/450 296/447 295/446
f 577/904 576/905 578/906 579/907
f 577/904 579/907 538/840 537/839
f 579/907 578/906 580/908 581/909
f 579/907 581/909 539/841 538/840
f 581/909 580/908 582/910 583/911
f 581/909 583/911 584/912 539/841
f 584/913 583/914 585/915 586/916
f 584/913 586/916 544/848 542/847
f 584/912 542/844 540/842 539/841
f 586/917 585/918 587/919 588/920
f 586/917 588/920 554/869 544/921
f 588/920 587/919 559/922 557/923
f 588/920 557/923 555/870 554/869
f 587/919 585/918 589/924 590/925
f 587/919 590/925 591/926 559/922
f 591/926 590/925 592/927 593/928
f 591/929 593/930 594/931 562/932
f 591/929 562/932 560/880 559/879
f 594/931 593/930 595/933 596/934
f 594/935 596/936 597/937 565/886
f 594/935 565/886 563/884 562/883
f 597/937 596/936 598/938 599/939
f 597/937 599/939 600/940 601/941
f 597/937 601/941 566/887 565/886
f 601/941 600/940 602/942 603/943
f 601/941 603/943 567/888 566/887
f 603/944 602/945 604/946 605/947
f 603/944 605/947 569/892 567/891
f 605/948 604/949 606/950 607/951
f 605/948 607/951 571/896 569/895
f 607/951 606/950 608/952 609/953
f 607/951 609/953 573/898 571/896
f 609/953 608/952 610/954 611/955
f 609/953 611/955 612/956 573/898
f 612/957 611/958 613/959 614/960
f 612/957 614/960 578/906 576/905
f 612/956 576/901 574/899 573/898
f 614/960 613/959 615/961 616/962
f 614/960 616/962 580/908 578/906
f 616/962 615/961 617/963 618/964
f 616/962 618/964 582/910 580/908
f 618/965 617/966 619/967 620/968
f 618/965 620/968 589/969 582/970
f 620/971 619/972 621/973 592/927
f 620/971 592/927 590/925 589/924
f 621/973 619/972 622/974 623/975
f 621/973 623/975 624/976 595/977
f 621/973 595/977 593/928 592/927
f 624/976 623/975 625/978 626/979
f 624/980 626/981 627/982 598/983
f 624/980 598/983 596/934 595/933
f 627/982 626/981 628/984 629/985
f 627/986 629/987 630/988 631/989
f 627/986 631/989 599/939 598/938
f 631/989 630/988 632/990 633/991
f 631/989 633/991 600/940 599/939
f 633/991 632/990 634/992 635/993
f 633/991 635/993 602/942 600/940
f 635/994 634/995 636/996 637/997
f 635/994 637/997 604/946 602/945
f 637/998 636/999 638/1000 639/1001
f 637/998 639/1001 606/950 604/949
f 639/1001 638/1000 640/1002 641/1003
f 639/1001 641/1003 608/952 606/950
f 641/1003 640/1002 642/1004 643/1005
f 641/1003 643/1005 610/954 608/952
f 643/1006 642/1007 644/1008 645/1009
f 643/1006 645/1009 646/1010 610/1011
f 646/1010 645/1009 647/1012 648/1013
f 646/1010 648/1013 615/961 613/959
f 646/1010 613/959 611/958 610/1011
f 648/1013 647/1012 649/1014 650/1015
f 648/1013 650/1015 617/963 615/961
f 650/1016 649/1017 651/1018 622/1019
f 650/1016 622/1019 619/967 617/966
f 651/1018 649/1017 652/1020 653/1021
f 651/1022 653/1023 654/1024 625/978
f 651/1022 625/978 623/975 622/974
f 654/1024 653/1023 655/1025 656/1026
f 654/1024 656/1026 657/1027 628/1028
f 654/1024 628/1028 626/979 625/978
f 657/1027 656/1026 658/1029 659/1030
f 657/1031 659/1032 660/1033 661/1034
f 657/1031 661/1034 629/985 628/984
f 661/1035 660/1036 662/1037 663/1038
f 661/1035 663/1038 630/988 629/987
f 663/1038 662/1037 664/1039 665/1040
f 663/1038 665/1040 632/990 630/988
f 665/1040 664/1039 666/1041 667/1042
f 665/1040 667/1042 634/992 632/990
f 667/1043 666/1044 668/1045 669/1046
f 667/1043 669/1046 636/996 634/995
f 669/1047 668/1048 670/1049 671/1050
f 669/1047 671/1050 638/1000 636/999
f 671/1050 670/1049 672/1051 673/1052
f 671/1050 673/1052 640/1002 638/1000
f 673/1052 672/1051 674/1053 675/1054
f 673/1052 675/1054 642/1004 640/1002
f 675/1055 674/1056 676/1057 677/1058
f 675/1055 677/1058 644/1008 642/1007
f 677/1058 676/1057 678/1059 679/1060
f 677/1058 679/1060 680/1061 644/1008
f 680/1061 679/1060 681/1062 652/1063
f 680/1061 652/1063 649/1014 647/1012
f 680/1061 647/1012 645/1009 644/1008
f 681/1062 679/1060 678/1059 682/1064
f 681/1065 682/1066 683/1067 655/1068
f 681/1065 655/1068 653/1021 652/1020
f 683/1067 682/1066 684/1069 685/1070
f 683/1067 685/1070 686/1071 658/1072
f 683/1073 658/1029 656/1026 655/1025
f 686/1074 685/1075 115/138 109/131
f 686/1074 109/131 108/130 687/1076
f 686/1077 687/1078 659/1030 658/1029
f 687/1076 108/130 112/134 688/1079
f 687/1080 688/1081 660/1082 659/1083
f 688/1079 112/134 122/146 121/145
f 688/1081 121/1084 662/1085 660/1082
f 685/1075 684/1086 116/139 115/138
f 684/1086 689/1087 117/140 116/139
f 684/1088 682/1064 678/1059 689/1089
f 689/1087 107/128 104/125 117/140
f 689/1089 678/1059 676/1057 107/1090
f 676/1057 674/1056 105/1091 107/1090
f 674/1053 672/1051 106/1092 105/1093
f 672/1051 670/1049 690/1094 106/1092
f 690/1095 691/1096 692/1097 693/1098
f 690/1095 693/1098 102/123 106/127
f 690/1094 670/1049 668/1048 691/1099
f 693/1098 692/1097 694/1100 695/1101
f 693/1098 695/1101 103/124 102/123
f 695/1101 694/1100 113/135 119/142
f 695/1101 119/142 118/141 103/124
f 694/1100 125/149 111/133 113/135
f 694/1100 692/1097 123/147 125/149
f 692/1097 691/1096 124/148 123/147
f 691/1099 668/1048 666/1102 124/1103
f 666/1041 664/1039 120/1104 124/1105
f 664/1039 662/1037 121/1106 120/1104
f 589/969 585/915 583/914 582/970
f 554/869 547/854 545/853 544/921
f 537/903 535/1107 299/451 298/450
f 523/812 380/581 377/578 376/577
f 523/812 521/809 520/808 380/581
f 520/808 383/1108 381/582 380/581
f 520/808 518/806 517/805 383/1108
f 517/1109 387/1110 384/590 383/589
f 517/1109 515/801 514/800 387/1110
f 514/1111 392/601 388/595 387/594
f 514/1111 512/795 511/794 392/601
f 511/794 397/1112 393/602 392/601
f 511/794 509/791 508/790 397/1112
f 508/1113 402/614 398/608 397/607
f 508/1113 505/785 503/783 402/614
f 503/783 407/782 403/615 402/614
f 500/1114 422/1115 418/638 417/637
f 500/1116 35/1117 34/1118 422/643
f 488/1119 81/87 78/86 26/1120
f 484/744 483/743 79/1121 81/748
f 483/1122 479/736 436/665 435/664
f 483/1122 435/664 80/668 79/1123
f 423/644 422/643 34/1118 36/648
f 391/599 98/114 90/113 386/600
f 379/588 88/101 94/107 67/1124
f 374/1125 372/823 528/822 527/821
f 358/549 309/469 306/461 305/460
f 358/549 356/545 355/544 309/469
f 355/544 314/1126 310/470 309/469
f 355/544 353/540 352/539 314/1126
f 352/1127 319/482 315/476 314/475
f 352/1127 350/1128 696/1129 319/482
f 696/1129 324/1130 320/483 319/482
f 696/1129 350/1128 349/1131 697/1132
f 696/1129 697/1132 698/1133 324/1130
f 698/1133 329/1134 325/1135 324/1130
f 698/1133 697/1132 62/1136 64/1137
f 698/1133 64/1137 65/1138 329/1134
f 697/1132 349/1131 60/1139 62/1136
f 330/496 329/495 65/1140 46/1141
f 313/474 70/1142 69/62 308/467
f 258/380 257/379 126/151 130/155
f 149/183 82/99 87/98 146/180
f 147/181 141/174 140/173 135/162
f 146/180 87/98 142/175 141/174
f 145/178 142/175 87/98 86/97
f 144/177 136/163 135/162 140/173
f 128/1143 127/407 100/118 99/117
f 125/149 122/146 112/134 111/133
f 119/142 113/135 110/132 114/137
f 118/141 117/140 104/125 103/124
f 115/138 114/137 110/132 109/131
f 94/1144 75/77 11/72 67/1145
f 78/81 77/80 27/4 26/3
f 66/66 70/65 373/571 375/574
f 65/1146 63/1147 42/22 46/26
f 63/48 58/42 43/532 42/1148
f 55/38 54/37 47/1149 44/1150
f 41/20 29/6 28/5 37/16
f 540/842 541/843 5/28 536/838
