# This file uses centimeters as units for non-parametric coordinates.

mtllib Flower0.mtl
g default
v -0.238816 6.835707 1.690384
v -0.281017 6.781183 1.637804
v -0.166122 6.839623 1.689512
v -0.160963 6.787720 1.636322
v -0.043107 6.846364 1.688037
v -0.040907 6.794258 1.634924
v 0.079895 6.853021 1.686562
v 0.079148 6.800796 1.633442
v 0.152601 6.857022 1.685690
v 0.199204 6.807333 1.632044
v -0.468516 7.853094 1.701926
v -0.528013 7.875173 1.650215
v -0.277100 7.996836 1.700769
v -0.300729 8.045850 1.648840
v -0.106917 8.038449 1.699004
v -0.111440 8.092135 1.646877
v 0.064730 8.022172 1.696727
v 0.081357 8.073852 1.644320
v 0.270779 7.894112 1.693068
v 0.326185 7.921690 1.639972
v -0.529326 7.876074 1.544768
v -0.471141 7.854891 1.491222
v -0.302043 8.046750 1.543392
v -0.279725 7.998634 1.490064
v -0.112754 8.093035 1.541430
v -0.109542 8.040248 1.488299
v 0.080044 8.074752 1.538872
v 0.062105 8.023970 1.486023
v 0.268154 7.895909 1.482363
v 0.324872 7.922589 1.534524
v -0.241441 6.837504 1.479679
v -0.282331 6.782082 1.532357
v -0.168747 6.841421 1.478807
v -0.162275 6.788620 1.530959
v -0.045732 6.848162 1.477332
v -0.042220 6.795158 1.529477
v 0.077271 6.854819 1.475857
v 0.077835 6.801695 1.528078
v 0.149977 6.858820 1.474985
v 0.197890 6.808233 1.526597
v -0.694411 6.495446 1.693157
v -0.691561 6.427081 1.639895
v -0.641237 6.545175 1.692918
v -0.603787 6.509263 1.639461
v -0.551326 6.629414 1.692517
v -0.516013 6.591443 1.639112
v -0.461371 6.713581 1.692114
v -0.428240 6.673624 1.638678
v -0.408242 6.763382 1.691877
v -0.340466 6.755805 1.638327
v -1.524324 7.127086 1.708883
v -1.583962 7.106281 1.656808
v -1.470070 7.360234 1.710197
v -1.519541 7.383115 1.658368
v -1.366438 7.501505 1.710112
v -1.404275 7.540245 1.658273
v -1.224474 7.599374 1.709178
v -1.244818 7.650175 1.657225
v -0.984305 7.633734 1.706480
v -0.959448 7.691002 1.654018
v -1.585275 7.107180 1.551360
v -1.526949 7.128884 1.498179
v -1.520855 7.384015 1.552920
v -1.472694 7.362033 1.499492
v -1.405588 7.541145 1.552825
v -1.369062 7.503303 1.499407
v -1.246132 7.651075 1.551777
v -1.227099 7.601173 1.498473
v -0.986930 7.635532 1.495775
v -0.960762 7.691901 1.548570
v -0.697036 6.497245 1.482452
v -0.692874 6.427981 1.534449
v -0.643861 6.546972 1.482213
v -0.605100 6.510162 1.534098
v -0.553951 6.631212 1.481812
v -0.517327 6.592343 1.533665
v -0.463996 6.715379 1.481410
v -0.429553 6.674523 1.533314
v -0.410866 6.765180 1.481172
v -0.341780 6.756705 1.532880
v -0.824742 5.941953 1.690056
v -0.778481 5.891945 1.636412
v -0.815968 6.014224 1.690563
v -0.764059 6.011316 1.637209
v -0.801232 6.136545 1.691424
v -0.749637 6.130687 1.638090
v -0.786416 6.258840 1.692283
v -0.735216 6.250058 1.638887
v -0.777723 6.331138 1.692792
v -0.720793 6.369428 1.639768
v -1.866542 5.892293 1.702609
v -1.898723 5.838547 1.649912
v -1.974836 6.105755 1.705781
v -2.027309 6.092007 1.653675
v -1.986246 6.280581 1.707415
v -2.039999 6.286460 1.655493
v -1.940392 6.446803 1.708262
v -1.988495 6.473164 1.656445
v -1.778480 6.627505 1.707786
v -1.796112 6.687875 1.655880
v -1.900037 5.839447 1.544464
v -1.869167 5.894092 1.491905
v -2.028622 6.092906 1.548227
v -1.977461 6.107553 1.495076
v -2.041312 6.287360 1.550046
v -1.988871 6.282379 1.496710
v -1.989809 6.474063 1.550997
v -1.943017 6.448600 1.497557
v -1.781105 6.629303 1.497082
v -1.797425 6.688776 1.550433
v -0.827367 5.943750 1.479351
v -0.779794 5.892845 1.530966
v -0.818593 6.016022 1.479859
v -0.765372 6.012215 1.531846
v -0.803857 6.138343 1.480719
v -0.750950 6.131586 1.532643
v -0.789041 6.260638 1.481578
v -0.736528 6.250957 1.533523
v -0.780347 6.332936 1.482087
v -0.722107 6.370328 1.534321
v -0.568826 5.434211 1.682536
v -0.501106 5.426170 1.628982
v -0.608558 5.495209 1.683552
v -0.566785 5.526876 1.630618
v -0.675892 5.598376 1.685270
v -0.632463 5.627582 1.632337
v -0.743146 5.701575 1.686989
v -0.698141 5.728288 1.633972
v -0.782957 5.762542 1.688005
v -0.763819 5.828993 1.635692
v -1.335043 4.726490 1.686040
v -1.325016 4.665161 1.632752
v -1.555214 4.820383 1.689585
v -1.586441 4.776648 1.636959
v -1.676326 4.946961 1.692174
v -1.721150 4.917438 1.639839
v -1.748038 5.103758 1.694405
v -1.801699 5.093555 1.642345
v -1.740143 5.346251 1.696376
v -1.792319 5.381687 1.644687
v -1.326330 4.666061 1.527305
v -1.337668 4.728287 1.475336
v -1.587755 4.777548 1.531512
v -1.557838 4.822181 1.478880
v -1.722464 4.918337 1.534391
v -1.678951 4.948759 1.481470
v -1.803013 5.094455 1.536898
v -1.750663 5.105556 1.483700
v -1.742768 5.348049 1.485671
v -1.793633 5.382586 1.539239
v -0.571451 5.436009 1.471831
v -0.502420 5.427070 1.523535
v -0.611182 5.497007 1.472847
v -0.568097 5.527775 1.525256
v -0.678516 5.600175 1.474565
v -0.633776 5.628481 1.526890
v -0.745771 5.703373 1.476284
v -0.699454 5.729187 1.528609
v -0.785582 5.764341 1.477300
v -0.765132 5.829893 1.530245
v -0.046409 5.209799 1.674113
v 0.010776 5.247698 1.621083
v -0.116055 5.230982 1.675162
v -0.104272 5.282617 1.622772
v -0.233952 5.266723 1.676935
v -0.219318 5.317536 1.624545
v -0.351809 5.302538 1.678709
v -0.334365 5.352456 1.626234
v -0.421496 5.323647 1.679756
v -0.449411 5.387375 1.628007
v -0.178522 4.175166 1.666930
v -0.131285 4.135162 1.613359
v -0.407548 4.105558 1.669189
v -0.403226 4.052511 1.616041
v -0.581694 4.124661 1.671522
v -0.596922 4.073760 1.618636
v -0.737416 4.198666 1.674093
v -0.771833 4.156884 1.621524
v -0.887233 4.389485 1.677587
v -0.949847 4.383615 1.625676
v -0.132599 4.136062 1.507912
v -0.181147 4.176964 1.456226
v -0.404539 4.053411 1.510593
v -0.410173 4.107355 1.458484
v -0.598236 4.074659 1.513188
v -0.584318 4.126459 1.460817
v -0.773147 4.157783 1.516076
v -0.740040 4.200464 1.463388
v -0.889858 4.391283 1.466882
v -0.951160 4.384514 1.520228
v -0.049033 5.211597 1.463408
v 0.009462 5.248598 1.515636
v -0.118680 5.232780 1.464457
v -0.105584 5.283517 1.517409
v -0.236577 5.268521 1.466230
v -0.220631 5.318436 1.519098
v -0.354434 5.304336 1.468004
v -0.335677 5.353356 1.520871
v -0.424121 5.325445 1.469052
v -0.450724 5.388275 1.522560
v 0.498065 5.373722 1.668730
v 0.517650 5.440037 1.616410
v 0.431092 5.345178 1.669321
v 0.407066 5.392832 1.617343
v 0.317797 5.296769 1.670319
v 0.296483 5.345625 1.618360
v 0.204484 5.248442 1.671318
v 0.185899 5.298419 1.619292
v 0.137529 5.219815 1.671907
v 0.075316 5.251213 1.620309
v 1.061873 4.496294 1.654218
v 1.123910 4.496543 1.600807
v 0.931155 4.295754 1.654137
v 0.968698 4.258427 1.600709
v 0.785461 4.198443 1.655121
v 0.806647 4.150192 1.601804
v 0.618592 4.155030 1.656829
v 0.619217 4.101428 1.603723
v 0.381165 4.204887 1.660212
v 0.337104 4.160668 1.607743
v 1.122597 4.497442 1.495360
v 1.059249 4.498092 1.443514
v 0.967384 4.259326 1.495261
v 0.928530 4.297552 1.443432
v 0.805334 4.151092 1.496357
v 0.782836 4.200241 1.444416
v 0.617903 4.102327 1.498275
v 0.615968 4.156827 1.446124
v 0.378540 4.206685 1.449507
v 0.335791 4.161568 1.502295
v 0.495440 5.375520 1.458025
v 0.516336 5.440937 1.510963
v 0.428467 5.346977 1.458616
v 0.405754 5.393731 1.511980
v 0.315172 5.298567 1.459614
v 0.295170 5.346525 1.512913
v 0.201860 5.250240 1.460613
v 0.184587 5.299318 1.513929
v 0.134904 5.221613 1.461203
v 0.074003 5.252112 1.514862
v 0.809830 5.849279 1.668905
v 0.782345 5.913191 1.617150
v 0.776868 5.784364 1.668760
v 0.727967 5.805948 1.616871
v 0.721187 5.674455 1.668517
v 0.673590 5.698704 1.616675
v 0.665439 5.564600 1.668274
v 0.619213 5.591461 1.616395
v 0.632544 5.499632 1.668129
v 0.564836 5.484217 1.616199
v 1.805747 5.539614 1.653855
v 1.853250 5.580209 1.600969
v 1.834501 5.301977 1.651470
v 1.887392 5.298045 1.598136
v 1.785431 5.133786 1.650646
v 1.832812 5.110971 1.597219
v 1.685496 4.993266 1.650692
v 1.720563 4.953136 1.597271
v 1.471553 4.878834 1.652380
v 1.466355 4.817167 1.599277
v 1.851937 5.581108 1.495521
v 1.803123 5.541411 1.443151
v 1.886078 5.298945 1.492688
v 1.831877 5.303775 1.440765
v 1.831498 5.111871 1.491772
v 1.782806 5.135584 1.439941
v 1.719249 4.954036 1.491823
v 1.682871 4.995064 1.439987
v 1.468928 4.880632 1.441675
v 1.465041 4.818067 1.493830
v 0.807205 5.851077 1.458200
v 0.781031 5.914090 1.511703
v 0.774243 5.786162 1.458056
v 0.726655 5.806847 1.511508
v 0.718562 5.676253 1.457812
v 0.672277 5.699604 1.511228
v 0.662814 5.566398 1.457569
v 0.617900 5.592360 1.511032
v 0.629919 5.501430 1.457425
v 0.563523 5.485117 1.510752
v 0.743007 6.413951 1.674554
v 0.681006 6.445764 1.622958
v 0.759480 6.343039 1.673744
v 0.708278 6.328665 1.621577
v 0.787467 6.223059 1.672372
v 0.735552 6.211564 1.620279
v 0.815368 6.103077 1.671001
v 0.762824 6.094464 1.618898
v 0.831926 6.032168 1.670189
v 0.790098 5.977363 1.617602
v 1.705033 6.816944 1.666009
v 1.715469 6.879101 1.613769
v 1.879806 6.653404 1.662437
v 1.922988 6.684918 1.609527
v 1.950319 6.493030 1.660190
v 2.001418 6.506538 1.607028
v 1.964078 6.321156 1.658553
v 2.016873 6.313485 1.605188
v 1.873726 6.095978 1.657756
v 1.909516 6.045928 1.604242
v 1.714155 6.880001 1.508321
v 1.702409 6.818743 1.455305
v 1.921675 6.685817 1.504079
v 1.877181 6.655202 1.451733
v 2.000104 6.507439 1.501581
v 1.947695 6.494828 1.449485
v 2.015559 6.314385 1.499741
v 1.961453 6.322954 1.447848
v 1.871101 6.097776 1.447051
v 1.908203 6.046828 1.498795
v 0.740383 6.415749 1.463850
v 0.679692 6.446664 1.517511
v 0.756855 6.344837 1.463039
v 0.706966 6.329563 1.516214
v 0.784842 6.224857 1.461667
v 0.734238 6.212464 1.514832
v 0.812744 6.104875 1.460296
v 0.761512 6.095363 1.513535
v 0.829301 6.033966 1.459484
v 0.788784 5.978263 1.512155
v 0.328865 6.803521 1.683038
v 0.261052 6.788561 1.631114
v 0.387064 6.759793 1.681940
v 0.357213 6.716397 1.629258
v 0.485623 6.685882 1.680081
v 0.453375 6.644232 1.627487
v 0.584119 6.611914 1.678224
v 0.549536 6.572068 1.625631
v 0.642382 6.568243 1.677125
v 0.645698 6.499903 1.623860
v 0.806857 7.730608 1.684995
v 0.775034 7.785454 1.633218
v 1.045869 7.717687 1.681907
v 1.058832 7.770110 1.629551
v 1.202973 7.640172 1.679289
v 1.233573 7.683891 1.626639
v 1.323988 7.517364 1.676733
v 1.369500 7.545952 1.623769
v 1.399503 7.286804 1.673825
v 1.459228 7.272000 1.620313
v 0.773720 7.786354 1.527770
v 0.804232 7.732407 1.474290
v 1.057518 7.771010 1.524104
v 1.043245 7.719485 1.471202
v 1.232259 7.684792 1.521192
v 1.200348 7.641969 1.468584
v 1.368186 7.546852 1.518322
v 1.321363 7.519162 1.466029
v 1.396879 7.288602 1.463120
v 1.457915 7.272899 1.514866
v 0.326240 6.805319 1.472334
v 0.259738 6.789461 1.525667
v 0.384439 6.761591 1.471235
v 0.355900 6.717296 1.523895
v 0.482998 6.687680 1.469377
v 0.452061 6.645132 1.522040
v 0.581494 6.613712 1.467519
v 0.548223 6.572967 1.520267
v 0.639757 6.570040 1.466420
v 0.644384 6.500803 1.518413
v 0.405540 7.002562 1.723170
v 0.125343 6.986414 1.823229
v -0.222487 6.967473 1.827401
v -0.505093 6.952973 1.734090
v -0.614527 6.948455 1.578940
v -0.508990 6.955643 1.421212
v -0.228794 6.971792 1.321152
v 0.119037 6.990734 1.316980
v 0.401643 7.005233 1.410291
v 0.511077 7.009751 1.565441
v 0.714164 6.538296 1.812071
v 0.260796 6.512167 1.973971
v -0.302006 6.481519 1.980719
v -0.759271 6.458060 1.829741
v -0.936339 6.450749 1.578702
v -0.765577 6.462379 1.323492
v -0.312209 6.488509 1.161593
v 0.250593 6.519157 1.154844
v 0.707858 6.542617 1.305822
v 0.884927 6.549927 1.556861
v 0.746325 5.946510 1.806621
v 0.292957 5.920381 1.968521
v -0.269845 5.889733 1.975269
v -0.727110 5.866274 1.824291
v -0.904179 5.858963 1.573252
v -0.733416 5.870593 1.318042
v -0.280048 5.896723 1.156142
v 0.282754 5.927371 1.149393
v 0.740019 5.950830 1.300371
v 0.917087 5.958141 1.551411
v 0.489738 5.453247 1.708901
v 0.209542 5.437098 1.808960
v -0.138289 5.418156 1.813132
v -0.420895 5.403657 1.719821
v -0.530329 5.399139 1.564671
v -0.424792 5.406327 1.406943
v -0.144595 5.422476 1.306883
v 0.203235 5.441418 1.302711
v 0.485841 5.455916 1.396023
v 0.595275 5.460435 1.551173
v -0.061663 7.161975 1.573875
v 0.042411 5.246915 1.556237
v 0.255051 0.028554 -0.186350
v 0.097345 0.028554 -0.300930
v -0.097589 0.028554 -0.300930
v -0.255295 0.028554 -0.186350
v -0.315533 0.028554 -0.000956
v -0.255295 0.028554 0.184438
v -0.097589 0.028554 0.299018
v 0.097345 0.028554 0.299017
v 0.255051 0.028554 0.184438
v 0.315289 0.028554 -0.000956
v 0.255051 3.963192 -0.186350
v 0.097345 3.963192 -0.300930
v -0.097589 3.963192 -0.300930
v -0.255295 3.963192 -0.186350
v -0.315533 3.963192 -0.000956
v -0.255295 3.963192 0.184438
v -0.097589 3.963192 0.299018
v 0.097345 3.963192 0.299017
v 0.255051 3.963192 0.184438
v 0.315289 3.963192 -0.000956
v 0.255051 4.761274 0.054570
v 0.097345 4.802116 -0.052483
v -0.097589 4.802116 -0.052483
v -0.255295 4.761274 0.054570
v -0.315533 4.695190 0.227786
v -0.255295 4.629107 0.401003
v -0.097589 4.588264 0.508056
v 0.097345 4.588264 0.508056
v 0.255051 4.629106 0.401003
v 0.315289 4.695190 0.227786
v 0.255051 5.593727 0.536095
v 0.097345 5.681624 0.462593
v -0.097589 5.681624 0.462593
v -0.255295 5.593728 0.536096
v -0.315533 5.451506 0.655024
v -0.255295 5.309285 0.773953
v -0.097589 5.221388 0.847455
v 0.097345 5.221388 0.847455
v 0.255051 5.309284 0.773953
v 0.315289 5.451506 0.655024
v 0.255051 6.189611 1.209450
v 0.097345 6.304176 1.207660
v -0.097589 6.304176 1.207660
v -0.255295 6.189611 1.209451
v -0.315533 6.004240 1.212346
v -0.255295 5.818869 1.215242
v -0.097589 5.704303 1.217032
v 0.097345 5.704303 1.217032
v 0.255051 5.818868 1.215241
v 0.315289 6.004240 1.212346
vt 0.494227 0.182884
vt 0.497005 0.183250
vt 0.496150 0.192506
vt 0.498075 0.182884
vt 0.500000 0.182884
vt 0.501925 0.182884
vt 0.496591 0.190211
vt 0.505773 0.190583
vt 0.496150 0.207906
vt 0.503850 0.196360
vt 0.497005 0.205616
vt 0.498075 0.183204
vt 0.500000 0.183195
vt 0.498279 0.190266
vt 0.501925 0.183202
vt 0.500010 0.190268
vt 0.502995 0.183250
vt 0.503410 0.190209
vt 0.501723 0.190268
vt 0.498075 0.192506
vt 0.496150 0.196360
vt 0.500000 0.192506
vt 0.498075 0.196360
vt 0.501925 0.192506
vt 0.500000 0.196360
vt 0.503850 0.192506
vt 0.501925 0.196360
vt 0.496591 0.198655
vt 0.498279 0.198600
vt 0.500010 0.198598
vt 0.498075 0.205662
vt 0.501724 0.198598
vt 0.500000 0.205671
vt 0.503410 0.198657
vt 0.502995 0.205616
vt 0.501925 0.205664
vt 0.498075 0.207907
vt 0.496150 0.211759
vt 0.500000 0.207906
vt 0.498075 0.211757
vt 0.501925 0.207907
vt 0.500000 0.211759
vt 0.503850 0.207906
vt 0.503850 0.211759
vt 0.501925 0.211757
vt 0.505773 0.182884
vt 0.509626 0.182884
vt 0.509626 0.190583
vt 0.490374 0.182884
vt 0.494227 0.190583
vt 0.490374 0.190583
vt 0.497005 0.183250
vt 0.494227 0.182884
vt 0.498075 0.182884
vt 0.498075 0.183204
vt 0.496591 0.190211
vt 0.496150 0.192506
vt 0.500000 0.182884
vt 0.500000 0.183195
vt 0.501925 0.182884
vt 0.501925 0.183202
vt 0.505773 0.182884
vt 0.502995 0.183250
vt 0.505773 0.190583
vt 0.503410 0.190209
vt 0.498279 0.190266
vt 0.498075 0.192506
vt 0.500010 0.190268
vt 0.500000 0.192506
vt 0.501723 0.190268
vt 0.501925 0.192506
vt 0.496150 0.196360
vt 0.496591 0.198655
vt 0.497005 0.205616
vt 0.496150 0.207906
vt 0.498075 0.196360
vt 0.498279 0.198600
vt 0.500000 0.196360
vt 0.500010 0.198598
vt 0.501925 0.196360
vt 0.501724 0.198598
vt 0.503850 0.196360
vt 0.503410 0.198657
vt 0.503850 0.207906
vt 0.502995 0.205616
vt 0.498075 0.205662
vt 0.498075 0.207907
vt 0.500000 0.205671
vt 0.500000 0.207906
vt 0.501925 0.205664
vt 0.501925 0.207907
vt 0.503850 0.192506
vt 0.498075 0.211757
vt 0.496150 0.211759
vt 0.500000 0.211759
vt 0.501925 0.211757
vt 0.503850 0.211759
vt 0.509626 0.182884
vt 0.509626 0.190583
vt 0.490374 0.182884
vt 0.494227 0.190583
vt 0.490374 0.190583
vt 0.497005 0.183250
vt 0.494227 0.182884
vt 0.498075 0.182884
vt 0.498075 0.183204
vt 0.496591 0.190211
vt 0.496150 0.192506
vt 0.500000 0.182884
vt 0.500000 0.183195
vt 0.501925 0.182884
vt 0.501925 0.183202
vt 0.505773 0.182884
vt 0.502995 0.183250
vt 0.505773 0.190583
vt 0.503410 0.190209
vt 0.498279 0.190266
vt 0.498075 0.192506
vt 0.500010 0.190268
vt 0.500000 0.192506
vt 0.501723 0.190268
vt 0.501925 0.192506
vt 0.496150 0.196360
vt 0.496591 0.198655
vt 0.497005 0.205616
vt 0.496150 0.207906
vt 0.498075 0.196360
vt 0.498279 0.198600
vt 0.500000 0.196360
vt 0.500010 0.198598
vt 0.501925 0.196360
vt 0.501724 0.198598
vt 0.503850 0.196360
vt 0.503410 0.198657
vt 0.503850 0.207906
vt 0.502995 0.205616
vt 0.498075 0.205662
vt 0.498075 0.207907
vt 0.500000 0.205671
vt 0.500000 0.207906
vt 0.501925 0.205664
vt 0.501925 0.207907
vt 0.503850 0.192506
vt 0.498075 0.211757
vt 0.496150 0.211759
vt 0.500000 0.211759
vt 0.501925 0.211757
vt 0.503850 0.211759
vt 0.509626 0.182884
vt 0.509626 0.190583
vt 0.490374 0.182884
vt 0.494227 0.190583
vt 0.490374 0.190583
vt 0.497005 0.183250
vt 0.494227 0.182884
vt 0.498075 0.182884
vt 0.498075 0.183204
vt 0.496591 0.190211
vt 0.496150 0.192506
vt 0.500000 0.182884
vt 0.500000 0.183195
vt 0.501925 0.182884
vt 0.501925 0.183202
vt 0.505773 0.182884
vt 0.502995 0.183250
vt 0.505773 0.190583
vt 0.503410 0.190209
vt 0.498279 0.190266
vt 0.498075 0.192506
vt 0.500010 0.190268
vt 0.500000 0.192506
vt 0.501723 0.190268
vt 0.501925 0.192506
vt 0.496150 0.196360
vt 0.496591 0.198655
vt 0.497005 0.205616
vt 0.496150 0.207906
vt 0.498075 0.196360
vt 0.498279 0.198600
vt 0.500000 0.196360
vt 0.500010 0.198598
vt 0.501925 0.196360
vt 0.501724 0.198598
vt 0.503850 0.196360
vt 0.503410 0.198657
vt 0.503850 0.207906
vt 0.502995 0.205616
vt 0.498075 0.205662
vt 0.498075 0.207907
vt 0.500000 0.205671
vt 0.500000 0.207906
vt 0.501925 0.205664
vt 0.501925 0.207907
vt 0.503850 0.192506
vt 0.498075 0.211757
vt 0.496150 0.211759
vt 0.500000 0.211759
vt 0.501925 0.211757
vt 0.503850 0.211759
vt 0.509626 0.182884
vt 0.509626 0.190583
vt 0.490374 0.182884
vt 0.494227 0.190583
vt 0.490374 0.190583
vt 0.497005 0.183250
vt 0.494227 0.182884
vt 0.498075 0.182884
vt 0.498075 0.183204
vt 0.496591 0.190211
vt 0.496150 0.192506
vt 0.500000 0.182884
vt 0.500000 0.183195
vt 0.501925 0.182884
vt 0.501925 0.183202
vt 0.505773 0.182884
vt 0.502995 0.183250
vt 0.505773 0.190583
vt 0.503410 0.190209
vt 0.498279 0.190266
vt 0.498075 0.192506
vt 0.500010 0.190268
vt 0.500000 0.192506
vt 0.501723 0.190268
vt 0.501925 0.192506
vt 0.496150 0.196360
vt 0.496591 0.198655
vt 0.497005 0.205616
vt 0.496150 0.207906
vt 0.498075 0.196360
vt 0.498279 0.198600
vt 0.500000 0.196360
vt 0.500010 0.198598
vt 0.501925 0.196360
vt 0.501724 0.198598
vt 0.503850 0.196360
vt 0.503410 0.198657
vt 0.503850 0.207906
vt 0.502995 0.205616
vt 0.498075 0.205662
vt 0.498075 0.207907
vt 0.500000 0.205671
vt 0.500000 0.207906
vt 0.501925 0.205664
vt 0.501925 0.207907
vt 0.503850 0.192506
vt 0.498075 0.211757
vt 0.496150 0.211759
vt 0.500000 0.211759
vt 0.501925 0.211757
vt 0.503850 0.211759
vt 0.509626 0.182884
vt 0.509626 0.190583
vt 0.490374 0.182884
vt 0.494227 0.190583
vt 0.490374 0.190583
vt 0.497005 0.183250
vt 0.494227 0.182884
vt 0.498075 0.182884
vt 0.498075 0.183204
vt 0.496591 0.190211
vt 0.496150 0.192506
vt 0.500000 0.182884
vt 0.500000 0.183195
vt 0.501925 0.182884
vt 0.501925 0.183202
vt 0.505773 0.182884
vt 0.502995 0.183250
vt 0.505773 0.190583
vt 0.503410 0.190209
vt 0.498279 0.190266
vt 0.498075 0.192506
vt 0.500010 0.190268
vt 0.500000 0.192506
vt 0.501723 0.190268
vt 0.501925 0.192506
vt 0.496150 0.196360
vt 0.496591 0.198655
vt 0.497005 0.205616
vt 0.496150 0.207906
vt 0.498075 0.196360
vt 0.498279 0.198600
vt 0.500000 0.196360
vt 0.500010 0.198598
vt 0.501925 0.196360
vt 0.501724 0.198598
vt 0.503850 0.196360
vt 0.503410 0.198657
vt 0.503850 0.207906
vt 0.502995 0.205616
vt 0.498075 0.205662
vt 0.498075 0.207907
vt 0.500000 0.205671
vt 0.500000 0.207906
vt 0.501925 0.205664
vt 0.501925 0.207907
vt 0.503850 0.192506
vt 0.498075 0.211757
vt 0.496150 0.211759
vt 0.500000 0.211759
vt 0.501925 0.211757
vt 0.503850 0.211759
vt 0.509626 0.182884
vt 0.509626 0.190583
vt 0.490374 0.182884
vt 0.494227 0.190583
vt 0.490374 0.190583
vt 0.497005 0.183250
vt 0.494227 0.182884
vt 0.498075 0.182884
vt 0.498075 0.183204
vt 0.496591 0.190211
vt 0.496150 0.192506
vt 0.500000 0.182884
vt 0.500000 0.183195
vt 0.501925 0.182884
vt 0.501925 0.183202
vt 0.505773 0.182884
vt 0.502995 0.183250
vt 0.505773 0.190583
vt 0.503410 0.190209
vt 0.498279 0.190266
vt 0.498075 0.192506
vt 0.500010 0.190268
vt 0.500000 0.192506
vt 0.501723 0.190268
vt 0.501925 0.192506
vt 0.496150 0.196360
vt 0.496591 0.198655
vt 0.497005 0.205616
vt 0.496150 0.207906
vt 0.498075 0.196360
vt 0.498279 0.198600
vt 0.500000 0.196360
vt 0.500010 0.198598
vt 0.501925 0.196360
vt 0.501724 0.198598
vt 0.503850 0.196360
vt 0.503410 0.198657
vt 0.503850 0.207906
vt 0.502995 0.205616
vt 0.498075 0.205662
vt 0.498075 0.207907
vt 0.500000 0.205671
vt 0.500000 0.207906
vt 0.501925 0.205664
vt 0.501925 0.207907
vt 0.503850 0.192506
vt 0.498075 0.211757
vt 0.496150 0.211759
vt 0.500000 0.211759
vt 0.501925 0.211757
vt 0.503850 0.211759
vt 0.509626 0.182884
vt 0.509626 0.190583
vt 0.490374 0.182884
vt 0.494227 0.190583
vt 0.490374 0.190583
vt 0.497005 0.183250
vt 0.494227 0.182884
vt 0.498075 0.182884
vt 0.498075 0.183204
vt 0.496591 0.190211
vt 0.496150 0.192506
vt 0.500000 0.182884
vt 0.500000 0.183195
vt 0.501925 0.182884
vt 0.501925 0.183202
vt 0.505773 0.182884
vt 0.502995 0.183250
vt 0.505773 0.190583
vt 0.503410 0.190209
vt 0.498279 0.190266
vt 0.498075 0.192506
vt 0.500010 0.190268
vt 0.500000 0.192506
vt 0.501723 0.190268
vt 0.501925 0.192506
vt 0.496150 0.196360
vt 0.496591 0.198655
vt 0.497005 0.205616
vt 0.496150 0.207906
vt 0.498075 0.196360
vt 0.498279 0.198600
vt 0.500000 0.196360
vt 0.500010 0.198598
vt 0.501925 0.196360
vt 0.501724 0.198598
vt 0.503850 0.196360
vt 0.503410 0.198657
vt 0.503850 0.207906
vt 0.502995 0.205616
vt 0.498075 0.205662
vt 0.498075 0.207907
vt 0.500000 0.205671
vt 0.500000 0.207906
vt 0.501925 0.205664
vt 0.501925 0.207907
vt 0.503850 0.192506
vt 0.498075 0.211757
vt 0.496150 0.211759
vt 0.500000 0.211759
vt 0.501925 0.211757
vt 0.503850 0.211759
vt 0.509626 0.182884
vt 0.509626 0.190583
vt 0.490374 0.182884
vt 0.494227 0.190583
vt 0.490374 0.190583
vt 0.497005 0.183250
vt 0.494227 0.182884
vt 0.498075 0.182884
vt 0.498075 0.183204
vt 0.496591 0.190211
vt 0.496150 0.192506
vt 0.500000 0.182884
vt 0.500000 0.183195
vt 0.501925 0.182884
vt 0.501925 0.183202
vt 0.505773 0.182884
vt 0.502995 0.183250
vt 0.505773 0.190583
vt 0.503410 0.190209
vt 0.498279 0.190266
vt 0.498075 0.192506
vt 0.500010 0.190268
vt 0.500000 0.192506
vt 0.501723 0.190268
vt 0.501925 0.192506
vt 0.496150 0.196360
vt 0.496591 0.198655
vt 0.497005 0.205616
vt 0.496150 0.207906
vt 0.498075 0.196360
vt 0.498279 0.198600
vt 0.500000 0.196360
vt 0.500010 0.198598
vt 0.501925 0.196360
vt 0.501724 0.198598
vt 0.503850 0.196360
vt 0.503410 0.198657
vt 0.503850 0.207906
vt 0.502995 0.205616
vt 0.498075 0.205662
vt 0.498075 0.207907
vt 0.500000 0.205671
vt 0.500000 0.207906
vt 0.501925 0.205664
vt 0.501925 0.207907
vt 0.503850 0.192506
vt 0.498075 0.211757
vt 0.496150 0.211759
vt 0.500000 0.211759
vt 0.501925 0.211757
vt 0.503850 0.211759
vt 0.509626 0.182884
vt 0.509626 0.190583
vt 0.490374 0.182884
vt 0.494227 0.190583
vt 0.490374 0.190583
vt 0.486866 0.723414
vt 0.489457 0.723414
vt 0.489457 0.728595
vt 0.486866 0.728595
vt 0.492047 0.723414
vt 0.492047 0.728595
vt 0.494638 0.723414
vt 0.494638 0.728595
vt 0.497229 0.723414
vt 0.497229 0.728595
vt 0.499819 0.723414
vt 0.499819 0.728595
vt 0.502410 0.723414
vt 0.502410 0.728595
vt 0.505000 0.723414
vt 0.505000 0.728595
vt 0.507591 0.723414
vt 0.507591 0.728595
vt 0.510181 0.723414
vt 0.510181 0.728595
vt 0.512772 0.723414
vt 0.512772 0.728595
vt 0.489457 0.733776
vt 0.486866 0.733776
vt 0.492047 0.733776
vt 0.494638 0.733776
vt 0.497229 0.733776
vt 0.499819 0.733776
vt 0.502410 0.733776
vt 0.505000 0.733776
vt 0.507591 0.733776
vt 0.510181 0.733776
vt 0.512772 0.733776
vt 0.489457 0.738957
vt 0.486866 0.738957
vt 0.492047 0.738957
vt 0.494638 0.738957
vt 0.497229 0.738957
vt 0.499819 0.738957
vt 0.502410 0.738957
vt 0.505000 0.738957
vt 0.507591 0.738957
vt 0.510181 0.738957
vt 0.512772 0.738957
vt 0.488162 0.718233
vt 0.490752 0.718233
vt 0.493343 0.718233
vt 0.495933 0.718233
vt 0.498524 0.718233
vt 0.501114 0.718233
vt 0.503705 0.718233
vt 0.506295 0.718233
vt 0.508886 0.718233
vt 0.511477 0.718233
vt 0.488162 0.744138
vt 0.490752 0.744138
vt 0.493343 0.744138
vt 0.495933 0.744138
vt 0.498524 0.744138
vt 0.501114 0.744138
vt 0.503705 0.744138
vt 0.506295 0.744138
vt 0.508886 0.744138
vt 0.511477 0.744138
vt 0.536574 0.541802
vt 0.538112 0.541802
vt 0.538112 0.564879
vt 0.536574 0.564879
vt 0.539651 0.541802
vt 0.539651 0.564879
vt 0.541189 0.541802
vt 0.541189 0.564879
vt 0.542728 0.541802
vt 0.542728 0.564879
vt 0.544266 0.541802
vt 0.544266 0.564879
vt 0.545804 0.541802
vt 0.545804 0.564879
vt 0.547343 0.541802
vt 0.547343 0.564879
vt 0.548881 0.541802
vt 0.548881 0.564879
vt 0.550420 0.541802
vt 0.550420 0.564879
vt 0.551958 0.541802
vt 0.551958 0.564879
vt 0.552045 0.558992
vt 0.547237 0.562485
vt 0.547237 0.562485
vt 0.552045 0.558992
vt 0.541295 0.562485
vt 0.541295 0.562485
vt 0.536487 0.558992
vt 0.536487 0.558992
vt 0.534651 0.553340
vt 0.534651 0.553340
vt 0.536487 0.547689
vt 0.536487 0.547689
vt 0.541295 0.544196
vt 0.541295 0.544196
vt 0.547237 0.544196
vt 0.547237 0.544196
vt 0.552045 0.547689
vt 0.552045 0.547689
vt 0.553881 0.553340
vt 0.553881 0.553340
vt 0.547237 0.562485
vt 0.552045 0.558992
vt 0.541295 0.562485
vt 0.536487 0.558992
vt 0.534651 0.553340
vt 0.536487 0.547689
vt 0.541295 0.544196
vt 0.547237 0.544196
vt 0.552045 0.547689
vt 0.553881 0.553340
vt 0.547237 0.562485
vt 0.552045 0.558992
vt 0.541295 0.562485
vt 0.536487 0.558992
vt 0.534651 0.553340
vt 0.536487 0.547689
vt 0.541295 0.544196
vt 0.547237 0.544196
vt 0.552045 0.547689
vt 0.553881 0.553340
vn 0.047187 -0.712343 0.700243
vn 0.047187 -0.712343 0.700243
vn 0.047189 -0.712345 0.700241
vn 0.047189 -0.712345 0.700241
vn -0.680882 -0.161830 0.714290
vn -0.680882 -0.161830 0.714290
vn -0.680882 -0.161830 0.714290
vn -0.680882 -0.161830 0.714290
vn 0.047191 -0.712347 0.700239
vn 0.047191 -0.712347 0.700239
vn 0.047189 -0.712347 0.700240
vn 0.047189 -0.712347 0.700240
vn 0.047187 -0.712345 0.700241
vn 0.047187 -0.712345 0.700241
vn 0.711313 -0.086018 0.697592
vn 0.711313 -0.086018 0.697592
vn 0.711313 -0.086018 0.697592
vn 0.711313 -0.086018 0.697592
vn -0.415715 0.559368 0.717139
vn -0.415715 0.559368 0.717139
vn -0.312504 0.615709 0.723355
vn -0.312505 0.615709 0.723355
vn -0.042644 0.694124 0.718592
vn -0.042644 0.694124 0.718592
vn 0.260309 0.644912 0.718559
vn 0.260308 0.644913 0.718559
vn 0.382068 0.594528 0.707504
vn 0.382068 0.594528 0.707504
vn -0.698494 -0.149763 -0.699769
vn -0.698494 -0.149763 -0.699769
vn -0.698494 -0.149763 -0.699769
vn -0.698494 -0.149763 -0.699769
vn -0.433325 0.571423 -0.696925
vn -0.433325 0.571423 -0.696925
vn -0.330291 0.627888 -0.704745
vn -0.330291 0.627887 -0.704745
vn -0.060380 0.706271 -0.705362
vn -0.060380 0.706271 -0.705362
vn 0.242467 0.657130 -0.713716
vn 0.242468 0.657130 -0.713716
vn 0.364452 0.606590 -0.706558
vn 0.364452 0.606589 -0.706558
vn 0.693692 -0.073950 -0.716466
vn 0.693692 -0.073950 -0.716466
vn 0.693692 -0.073950 -0.716466
vn 0.693692 -0.073950 -0.716466
vn 0.029583 -0.700288 -0.713247
vn 0.029583 -0.700289 -0.713247
vn 0.029580 -0.700285 -0.713250
vn 0.029580 -0.700285 -0.713250
vn 0.029580 -0.700278 -0.713257
vn 0.029580 -0.700278 -0.713257
vn 0.029581 -0.700276 -0.713259
vn 0.029581 -0.700276 -0.713259
vn 0.029580 -0.700278 -0.713257
vn 0.029580 -0.700278 -0.713257
vn 0.012454 -0.008532 0.999886
vn 0.012455 -0.008532 0.999886
vn 0.012455 -0.008532 0.999886
vn 0.012454 -0.008532 0.999886
vn 0.012455 -0.008532 0.999886
vn 0.012455 -0.008532 0.999886
vn 0.012454 -0.008532 0.999886
vn 0.012454 -0.008532 0.999886
vn 0.012455 -0.008532 0.999886
vn 0.012455 -0.008532 0.999886
vn -0.600365 0.799598 0.014309
vn -0.461804 0.886882 0.013326
vn -0.461803 0.886882 0.013326
vn -0.600365 0.799598 0.014309
vn -0.072977 0.997289 0.009418
vn -0.072977 0.997289 0.009418
vn 0.362968 0.931795 0.003430
vn 0.362967 0.931796 0.003430
vn 0.527873 0.849323 0.000675
vn 0.527873 0.849323 0.000675
vn -0.012457 0.008532 -0.999886
vn -0.012456 0.008532 -0.999886
vn -0.012456 0.008532 -0.999886
vn -0.012457 0.008532 -0.999886
vn -0.012454 0.008532 -0.999886
vn -0.012454 0.008532 -0.999886
vn -0.012454 0.008532 -0.999886
vn -0.012454 0.008532 -0.999886
vn -0.012456 0.008532 -0.999886
vn -0.012456 0.008532 -0.999886
vn 0.054262 -0.998484 -0.009206
vn 0.054262 -0.998484 -0.009202
vn 0.054262 -0.998484 -0.009202
vn 0.054262 -0.998484 -0.009206
vn 0.054264 -0.998484 -0.009195
vn 0.054264 -0.998484 -0.009195
vn 0.054264 -0.998484 -0.009195
vn 0.054264 -0.998484 -0.009195
vn 0.054262 -0.998484 -0.009199
vn 0.054262 -0.998484 -0.009199
vn 0.993492 -0.113115 -0.013341
vn 0.993492 -0.113115 -0.013341
vn 0.993492 -0.113115 -0.013341
vn 0.993492 -0.113115 -0.013341
vn -0.975371 -0.220330 0.010271
vn -0.975371 -0.220330 0.010271
vn -0.975371 -0.220330 0.010271
vn -0.975371 -0.220330 0.010271
vn 0.492213 -0.522382 0.696307
vn 0.492213 -0.522382 0.696307
vn 0.492207 -0.522382 0.696311
vn 0.492208 -0.522382 0.696311
vn -0.419433 -0.568711 0.707562
vn -0.419433 -0.568711 0.707562
vn -0.419433 -0.568711 0.707562
vn -0.419433 -0.568711 0.707562
vn 0.492203 -0.522375 0.696319
vn 0.492203 -0.522375 0.696319
vn 0.492201 -0.522371 0.696324
vn 0.492201 -0.522371 0.696324
vn 0.492200 -0.522374 0.696322
vn 0.492200 -0.522374 0.696322
vn 0.598416 0.384281 0.703012
vn 0.598416 0.384281 0.703012
vn 0.598416 0.384281 0.703012
vn 0.598416 0.384281 0.703012
vn -0.679840 0.154160 0.716974
vn -0.679840 0.154160 0.716974
vn -0.637002 0.263590 0.724395
vn -0.637002 0.263591 0.724395
vn -0.480655 0.497146 0.722368
vn -0.480656 0.497146 0.722368
vn -0.216940 0.654153 0.724583
vn -0.216940 0.654153 0.724583
vn -0.091250 0.693919 0.714247
vn -0.091250 0.693919 0.714247
vn -0.437046 -0.556645 -0.706496
vn -0.437046 -0.556645 -0.706496
vn -0.437046 -0.556645 -0.706496
vn -0.437046 -0.556645 -0.706496
vn -0.697446 0.166225 -0.697092
vn -0.697446 0.166225 -0.697092
vn -0.654787 0.275778 -0.703705
vn -0.654786 0.275778 -0.703705
vn -0.498395 0.509299 -0.701581
vn -0.498395 0.509300 -0.701581
vn -0.234781 0.666371 -0.707692
vn -0.234781 0.666371 -0.707692
vn -0.108861 0.705978 -0.699818
vn -0.108862 0.705978 -0.699818
vn 0.580795 0.396343 -0.711048
vn 0.580795 0.396343 -0.711048
vn 0.580795 0.396343 -0.711048
vn 0.580795 0.396343 -0.711048
vn 0.474583 -0.510313 -0.717183
vn 0.474583 -0.510313 -0.717183
vn 0.474592 -0.510310 -0.717179
vn 0.474593 -0.510310 -0.717179
vn 0.474594 -0.510312 -0.717177
vn 0.474594 -0.510312 -0.717176
vn 0.474591 -0.510315 -0.717176
vn 0.474591 -0.510315 -0.717176
vn 0.474593 -0.510315 -0.717175
vn 0.474593 -0.510315 -0.717175
vn 0.012456 -0.008531 0.999886
vn 0.012455 -0.008532 0.999886
vn 0.012455 -0.008532 0.999886
vn 0.012456 -0.008531 0.999886
vn 0.012455 -0.008531 0.999886
vn 0.012455 -0.008531 0.999886
vn 0.012456 -0.008531 0.999886
vn 0.012456 -0.008531 0.999886
vn 0.012455 -0.008532 0.999886
vn 0.012455 -0.008532 0.999886
vn -0.973898 0.226551 0.014065
vn -0.923846 0.382478 0.014771
vn -0.923847 0.382477 0.014771
vn -0.973898 0.226551 0.014065
vn -0.696927 0.716989 0.014797
vn -0.696928 0.716989 0.014797
vn -0.320850 0.947053 0.012079
vn -0.320850 0.947053 0.012079
vn -0.141503 0.989885 0.010213
vn -0.141503 0.989885 0.010213
vn -0.012458 0.008529 -0.999886
vn -0.012455 0.008531 -0.999886
vn -0.012456 0.008531 -0.999886
vn -0.012458 0.008529 -0.999886
vn -0.012455 0.008531 -0.999886
vn -0.012455 0.008531 -0.999886
vn -0.012456 0.008531 -0.999886
vn -0.012456 0.008531 -0.999886
vn -0.012455 0.008532 -0.999886
vn -0.012455 0.008532 -0.999886
vn 0.683359 -0.729934 -0.014744
vn 0.683358 -0.729934 -0.014742
vn 0.683358 -0.729934 -0.014742
vn 0.683359 -0.729934 -0.014744
vn 0.683358 -0.729934 -0.014742
vn 0.683358 -0.729934 -0.014742
vn 0.683359 -0.729934 -0.014742
vn 0.683359 -0.729934 -0.014742
vn 0.683360 -0.729933 -0.014742
vn 0.683360 -0.729933 -0.014742
vn 0.833833 0.551988 -0.005677
vn 0.833833 0.551988 -0.005677
vn 0.833833 0.551988 -0.005677
vn 0.833833 0.551988 -0.005677
vn -0.605624 -0.795750 0.000744
vn -0.605624 -0.795750 0.000744
vn -0.605624 -0.795750 0.000744
vn -0.605624 -0.795750 0.000744
vn 0.711031 -0.090805 0.697273
vn 0.711031 -0.090805 0.697273
vn 0.711029 -0.090804 0.697274
vn 0.711030 -0.090804 0.697274
vn 0.042395 -0.712307 0.700586
vn 0.042395 -0.712307 0.700586
vn 0.042395 -0.712307 0.700586
vn 0.042395 -0.712307 0.700586
vn 0.711030 -0.090803 0.697274
vn 0.711030 -0.090803 0.697274
vn 0.711032 -0.090804 0.697272
vn 0.711032 -0.090804 0.697272
vn 0.711031 -0.090807 0.697272
vn 0.711031 -0.090807 0.697272
vn 0.209634 0.671945 0.710312
vn 0.209634 0.671945 0.710312
vn 0.209634 0.671945 0.710312
vn 0.209634 0.671945 0.710312
vn -0.621738 -0.326001 0.712155
vn -0.621738 -0.326001 0.712155
vn -0.659280 -0.214713 0.720589
vn -0.659280 -0.214713 0.720589
vn -0.689620 0.064708 0.721275
vn -0.689620 0.064708 0.721275
vn -0.588509 0.354452 0.726651
vn -0.588509 0.354452 0.726651
vn -0.517751 0.465799 0.717611
vn -0.517751 0.465799 0.717611
vn 0.024781 -0.700242 -0.713476
vn 0.024781 -0.700242 -0.713476
vn 0.024781 -0.700242 -0.713476
vn 0.024781 -0.700242 -0.713476
vn -0.639348 -0.313932 -0.701912
vn -0.639348 -0.313932 -0.701912
vn -0.677060 -0.202524 -0.707513
vn -0.677059 -0.202524 -0.707513
vn -0.707345 0.076859 -0.702678
vn -0.707345 0.076859 -0.702678
vn -0.606344 0.366668 -0.705621
vn -0.606344 0.366669 -0.705621
vn -0.535364 0.477858 -0.696446
vn -0.535364 0.477858 -0.696446
vn 0.192018 0.684004 -0.703753
vn 0.192018 0.684004 -0.703753
vn 0.192018 0.684004 -0.703753
vn 0.192018 0.684004 -0.703753
vn 0.693425 -0.078745 -0.716213
vn 0.693425 -0.078745 -0.716213
vn 0.693423 -0.078743 -0.716215
vn 0.693423 -0.078742 -0.716215
vn 0.693419 -0.078741 -0.716219
vn 0.693419 -0.078741 -0.716219
vn 0.693416 -0.078741 -0.716222
vn 0.693416 -0.078741 -0.716222
vn 0.693416 -0.078743 -0.716222
vn 0.693416 -0.078743 -0.716222
vn 0.012455 -0.008536 0.999886
vn 0.012455 -0.008535 0.999886
vn 0.012455 -0.008535 0.999886
vn 0.012455 -0.008536 0.999886
vn 0.012456 -0.008533 0.999886
vn 0.012456 -0.008533 0.999886
vn 0.012456 -0.008531 0.999886
vn 0.012456 -0.008531 0.999886
vn 0.012456 -0.008530 0.999886
vn 0.012456 -0.008530 0.999886
vn -0.891733 -0.452503 0.007248
vn -0.953612 -0.300893 0.009313
vn -0.953612 -0.300894 0.009313
vn -0.891733 -0.452503 0.007248
vn -0.994778 0.101201 0.013256
vn -0.994778 0.101201 0.013256
vn -0.854536 0.519174 0.015074
vn -0.854536 0.519174 0.015074
vn -0.744667 0.667268 0.014968
vn -0.744667 0.667269 0.014968
vn -0.012455 0.008533 -0.999886
vn -0.012456 0.008534 -0.999886
vn -0.012456 0.008534 -0.999886
vn -0.012455 0.008533 -0.999886
vn -0.012456 0.008533 -0.999886
vn -0.012456 0.008533 -0.999886
vn -0.012456 0.008531 -0.999886
vn -0.012456 0.008531 -0.999886
vn -0.012456 0.008530 -0.999886
vn -0.012456 0.008530 -0.999886
vn 0.992703 -0.119839 -0.013388
vn 0.992703 -0.119840 -0.013388
vn 0.992703 -0.119840 -0.013388
vn 0.992703 -0.119839 -0.013388
vn 0.992703 -0.119840 -0.013389
vn 0.992703 -0.119840 -0.013389
vn 0.992703 -0.119839 -0.013388
vn 0.992703 -0.119839 -0.013388
vn 0.992703 -0.119840 -0.013388
vn 0.992703 -0.119840 -0.013388
vn 0.284014 0.958809 0.004652
vn 0.284014 0.958809 0.004652
vn 0.284014 0.958809 0.004652
vn 0.284014 0.958809 0.004652
vn 0.047501 -0.998830 -0.009108
vn 0.047501 -0.998830 -0.009108
vn 0.047501 -0.998830 -0.009108
vn 0.047501 -0.998830 -0.009108
vn 0.601282 0.380432 0.702660
vn 0.601282 0.380432 0.702660
vn 0.601278 0.380437 0.702661
vn 0.601278 0.380437 0.702661
vn 0.488506 -0.525433 0.696622
vn 0.488506 -0.525433 0.696622
vn 0.488506 -0.525433 0.696622
vn 0.488506 -0.525433 0.696622
vn 0.601275 0.380439 0.702662
vn 0.601275 0.380439 0.702662
vn 0.601278 0.380437 0.702661
vn 0.601278 0.380437 0.702661
vn 0.601281 0.380435 0.702659
vn 0.601281 0.380435 0.702659
vn -0.273115 0.642376 0.716073
vn -0.273115 0.642376 0.716073
vn -0.273115 0.642376 0.716073
vn -0.273115 0.642376 0.716073
vn -0.268600 -0.656442 0.704938
vn -0.268600 -0.656442 0.704938
vn -0.368910 -0.595403 0.713723
vn -0.368911 -0.595403 0.713723
vn -0.571750 -0.400856 0.715833
vn -0.571750 -0.400856 0.715833
vn -0.680532 -0.113965 0.723801
vn -0.680532 -0.113965 0.723801
vn -0.697869 0.016898 0.716026
vn -0.697869 0.016898 0.716026
vn 0.470892 -0.513367 -0.717436
vn 0.470892 -0.513367 -0.717436
vn 0.470892 -0.513367 -0.717436
vn 0.470892 -0.513367 -0.717436
vn -0.286213 -0.644375 -0.709128
vn -0.286213 -0.644375 -0.709128
vn -0.386695 -0.583211 -0.714375
vn -0.386695 -0.583211 -0.714375
vn -0.589479 -0.388699 -0.708116
vn -0.589479 -0.388699 -0.708116
vn -0.698365 -0.101742 -0.708474
vn -0.698365 -0.101742 -0.708474
vn -0.715475 0.028965 -0.698038
vn -0.715475 0.028965 -0.698038
vn -0.290727 0.654440 -0.697987
vn -0.290727 0.654440 -0.697987
vn -0.290727 0.654440 -0.697987
vn -0.290728 0.654440 -0.697987
vn 0.583666 0.392503 -0.710827
vn 0.583666 0.392503 -0.710827
vn 0.583670 0.392498 -0.710827
vn 0.583670 0.392498 -0.710827
vn 0.583669 0.392495 -0.710829
vn 0.583669 0.392495 -0.710829
vn 0.583664 0.392494 -0.710834
vn 0.583664 0.392494 -0.710834
vn 0.583661 0.392492 -0.710837
vn 0.583661 0.392492 -0.710837
vn 0.012458 -0.008536 0.999886
vn 0.012456 -0.008533 0.999886
vn 0.012456 -0.008533 0.999886
vn 0.012458 -0.008536 0.999886
vn 0.012455 -0.008532 0.999886
vn 0.012455 -0.008532 0.999886
vn 0.012456 -0.008532 0.999886
vn 0.012456 -0.008532 0.999886
vn 0.012456 -0.008532 0.999886
vn 0.012456 -0.008532 0.999886
vn -0.392316 -0.919826 -0.002965
vn -0.537172 -0.843473 -0.000507
vn -0.537172 -0.843473 -0.000507
vn -0.392316 -0.919826 -0.002965
vn -0.827160 -0.561939 0.005510
vn -0.827160 -0.561939 0.005510
vn -0.988375 -0.151632 0.011019
vn -0.988376 -0.151632 0.011019
vn -0.999393 0.032432 0.012727
vn -0.999393 0.032432 0.012727
vn -0.012456 0.008534 -0.999886
vn -0.012455 0.008532 -0.999886
vn -0.012456 0.008532 -0.999886
vn -0.012456 0.008534 -0.999886
vn -0.012455 0.008532 -0.999886
vn -0.012455 0.008532 -0.999886
vn -0.012456 0.008532 -0.999886
vn -0.012456 0.008532 -0.999886
vn -0.012456 0.008532 -0.999886
vn -0.012456 0.008532 -0.999886
vn 0.837551 0.546329 -0.005771
vn 0.837551 0.546329 -0.005769
vn 0.837551 0.546329 -0.005769
vn 0.837551 0.546329 -0.005771
vn 0.837551 0.546329 -0.005770
vn 0.837551 0.546329 -0.005770
vn 0.837551 0.546329 -0.005771
vn 0.837551 0.546329 -0.005771
vn 0.837551 0.546329 -0.005770
vn 0.837551 0.546329 -0.005770
vn -0.398699 0.916993 0.012792
vn -0.398699 0.916993 0.012792
vn -0.398699 0.916993 0.012792
vn -0.398699 0.916993 0.012792
vn 0.678400 -0.734545 -0.014721
vn 0.678400 -0.734545 -0.014721
vn 0.678400 -0.734545 -0.014721
vn 0.678400 -0.734545 -0.014721
vn 0.214299 0.670846 0.709959
vn 0.214299 0.670846 0.709959
vn 0.214301 0.670846 0.709958
vn 0.214301 0.670846 0.709958
vn 0.710160 -0.095524 0.697530
vn 0.710160 -0.095524 0.697530
vn 0.710160 -0.095524 0.697530
vn 0.710160 -0.095524 0.697530
vn 0.214299 0.670847 0.709958
vn 0.214299 0.670847 0.709958
vn 0.214297 0.670845 0.709960
vn 0.214297 0.670845 0.709960
vn 0.214298 0.670842 0.709963
vn 0.214298 0.670842 0.709963
vn -0.623947 0.309409 0.717604
vn -0.623947 0.309409 0.717604
vn -0.623947 0.309409 0.717604
vn -0.623947 0.309409 0.717604
vn 0.214340 -0.682552 0.698699
vn 0.214340 -0.682552 0.698699
vn 0.098238 -0.700346 0.707011
vn 0.098238 -0.700346 0.707011
vn -0.182201 -0.681696 0.708586
vn -0.182201 -0.681696 0.708586
vn -0.449955 -0.531916 0.717360
vn -0.449955 -0.531916 0.717361
vn -0.547328 -0.442730 0.710227
vn -0.547328 -0.442730 0.710227
vn 0.692544 -0.083457 -0.716532
vn 0.692544 -0.083457 -0.716532
vn 0.692544 -0.083457 -0.716532
vn 0.692544 -0.083457 -0.716532
vn 0.196726 -0.670484 -0.715368
vn 0.196726 -0.670484 -0.715367
vn 0.080449 -0.688156 -0.721089
vn 0.080449 -0.688156 -0.721089
vn -0.199937 -0.669538 -0.715363
vn -0.199937 -0.669538 -0.715363
vn -0.467791 -0.519688 -0.714910
vn -0.467790 -0.519688 -0.714910
vn -0.564935 -0.430659 -0.703833
vn -0.564935 -0.430659 -0.703833
vn -0.641562 0.321475 -0.696456
vn -0.641562 0.321475 -0.696456
vn -0.641562 0.321475 -0.696456
vn -0.641562 0.321475 -0.696456
vn 0.196694 0.682906 -0.703528
vn 0.196694 0.682906 -0.703528
vn 0.196692 0.682905 -0.703528
vn 0.196692 0.682905 -0.703529
vn 0.196690 0.682902 -0.703532
vn 0.196690 0.682902 -0.703532
vn 0.196692 0.682900 -0.703534
vn 0.196691 0.682900 -0.703534
vn 0.196694 0.682900 -0.703533
vn 0.196694 0.682900 -0.703533
vn 0.012458 -0.008533 0.999886
vn 0.012457 -0.008533 0.999886
vn 0.012457 -0.008533 0.999886
vn 0.012458 -0.008533 0.999886
vn 0.012457 -0.008533 0.999886
vn 0.012457 -0.008533 0.999886
vn 0.012454 -0.008531 0.999886
vn 0.012455 -0.008532 0.999886
vn 0.012452 -0.008531 0.999886
vn 0.012452 -0.008531 0.999886
vn 0.290670 -0.956751 -0.011789
vn 0.130617 -0.991382 -0.010091
vn 0.130617 -0.991382 -0.010091
vn 0.290670 -0.956751 -0.011789
vn -0.272506 -0.962142 -0.004816
vn -0.272506 -0.962142 -0.004816
vn -0.659744 -0.751489 0.001809
vn -0.659743 -0.751489 0.001809
vn -0.786493 -0.617583 0.004530
vn -0.786492 -0.617583 0.004530
vn -0.012453 0.008532 -0.999886
vn -0.012456 0.008532 -0.999886
vn -0.012455 0.008532 -0.999886
vn -0.012453 0.008532 -0.999886
vn -0.012457 0.008533 -0.999886
vn -0.012457 0.008533 -0.999886
vn -0.012455 0.008532 -0.999886
vn -0.012455 0.008531 -0.999886
vn -0.012453 0.008531 -0.999886
vn -0.012453 0.008531 -0.999886
vn 0.290498 0.956865 0.004546
vn 0.290499 0.956864 0.004547
vn 0.290499 0.956864 0.004547
vn 0.290498 0.956865 0.004546
vn 0.290500 0.956864 0.004548
vn 0.290500 0.956864 0.004548
vn 0.290500 0.956864 0.004547
vn 0.290500 0.956864 0.004547
vn 0.290500 0.956864 0.004547
vn 0.290500 0.956864 0.004547
vn -0.894855 0.446105 0.014953
vn -0.894855 0.446105 0.014953
vn -0.894855 0.446105 0.014953
vn -0.894855 0.446105 0.014953
vn 0.991868 -0.126559 -0.013436
vn 0.991868 -0.126559 -0.013436
vn 0.991868 -0.126559 -0.013436
vn 0.991868 -0.126559 -0.013436
vn -0.268831 0.644539 0.715751
vn -0.268831 0.644539 0.715751
vn -0.268833 0.644538 0.715751
vn -0.268833 0.644538 0.715751
vn 0.603648 0.376261 0.702878
vn 0.603648 0.376261 0.702878
vn 0.603648 0.376261 0.702878
vn 0.603648 0.376261 0.702878
vn -0.268834 0.644534 0.715754
vn -0.268834 0.644534 0.715754
vn -0.268831 0.644531 0.715758
vn -0.268831 0.644531 0.715758
vn -0.268829 0.644532 0.715758
vn -0.268829 0.644532 0.715758
vn -0.678713 -0.171156 0.714181
vn -0.678713 -0.171156 0.714181
vn -0.678713 -0.171156 0.714181
vn -0.678713 -0.171156 0.714181
vn 0.601113 -0.392111 0.696356
vn 0.601113 -0.392111 0.696356
vn 0.523584 -0.480444 0.703586
vn 0.523584 -0.480444 0.703586
vn 0.296749 -0.646406 0.702922
vn 0.296750 -0.646406 0.702922
vn -0.004663 -0.703832 0.710351
vn -0.004662 -0.703832 0.710351
vn -0.136561 -0.698020 0.702936
vn -0.136561 -0.698021 0.702936
vn 0.586026 0.388324 -0.711181
vn 0.586026 0.388324 -0.711181
vn 0.586026 0.388324 -0.711181
vn 0.586026 0.388324 -0.711181
vn 0.583488 -0.380042 -0.717712
vn 0.583488 -0.380042 -0.717712
vn 0.505786 -0.468253 -0.724513
vn 0.505787 -0.468252 -0.724513
vn 0.279011 -0.634251 -0.721026
vn 0.279010 -0.634252 -0.721026
vn -0.022503 -0.691608 -0.721923
vn -0.022503 -0.691608 -0.721923
vn -0.154175 -0.685950 -0.711128
vn -0.154175 -0.685950 -0.711128
vn -0.696322 -0.159089 -0.699876
vn -0.696322 -0.159089 -0.699876
vn -0.696322 -0.159089 -0.699876
vn -0.696322 -0.159089 -0.699876
vn -0.286440 0.656592 -0.697738
vn -0.286440 0.656592 -0.697738
vn -0.286438 0.656591 -0.697740
vn -0.286438 0.656591 -0.697740
vn -0.286436 0.656589 -0.697742
vn -0.286436 0.656589 -0.697742
vn -0.286436 0.656589 -0.697743
vn -0.286436 0.656589 -0.697743
vn -0.286436 0.656590 -0.697742
vn -0.286436 0.656590 -0.697742
vn 0.012461 -0.008530 0.999886
vn 0.012457 -0.008531 0.999886
vn 0.012456 -0.008532 0.999886
vn 0.012461 -0.008530 0.999886
vn 0.012453 -0.008533 0.999886
vn 0.012453 -0.008533 0.999886
vn 0.012455 -0.008533 0.999886
vn 0.012454 -0.008533 0.999886
vn 0.012456 -0.008532 0.999886
vn 0.012456 -0.008532 0.999886
vn 0.837648 -0.546001 -0.015093
vn 0.737289 -0.675412 -0.014948
vn 0.737289 -0.675412 -0.014948
vn 0.837648 -0.546001 -0.015093
vn 0.409657 -0.912149 -0.012887
vn 0.409657 -0.912148 -0.012887
vn -0.022409 -0.999715 -0.008250
vn -0.022409 -0.999715 -0.008250
vn -0.205582 -0.978623 -0.005788
vn -0.205582 -0.978623 -0.005788
vn -0.012458 0.008531 -0.999886
vn -0.012456 0.008532 -0.999886
vn -0.012456 0.008532 -0.999886
vn -0.012458 0.008531 -0.999886
vn -0.012454 0.008533 -0.999886
vn -0.012454 0.008533 -0.999886
vn -0.012454 0.008533 -0.999886
vn -0.012454 0.008533 -0.999886
vn -0.012455 0.008532 -0.999886
vn -0.012455 0.008532 -0.999886
vn -0.392480 0.919672 0.012738
vn -0.392480 0.919672 0.012738
vn -0.392480 0.919672 0.012738
vn -0.392480 0.919672 0.012738
vn -0.392480 0.919672 0.012736
vn -0.392480 0.919672 0.012736
vn -0.392481 0.919672 0.012735
vn -0.392481 0.919672 0.012735
vn -0.392481 0.919672 0.012735
vn -0.392481 0.919672 0.012735
vn -0.972299 -0.233520 0.010120
vn -0.972299 -0.233520 0.010120
vn -0.972299 -0.233520 0.010120
vn -0.972299 -0.233520 0.010120
vn 0.841230 0.540645 -0.005864
vn 0.841230 0.540645 -0.005864
vn 0.841230 0.540645 -0.005864
vn 0.841230 0.540645 -0.005864
vn -0.622057 0.313820 0.717330
vn -0.622057 0.313820 0.717330
vn -0.622058 0.313820 0.717329
vn -0.622058 0.313820 0.717329
vn 0.218798 0.669167 0.710171
vn 0.218798 0.669167 0.710171
vn 0.218798 0.669167 0.710171
vn 0.218798 0.669167 0.710171
vn -0.622058 0.313818 0.717330
vn -0.622058 0.313818 0.717330
vn -0.622055 0.313819 0.717332
vn -0.622055 0.313819 0.717332
vn -0.622054 0.313823 0.717331
vn -0.622053 0.313823 0.717331
vn -0.411778 -0.574465 0.707409
vn -0.411778 -0.574465 0.707410
vn -0.411778 -0.574465 0.707410
vn -0.411778 -0.574465 0.707410
vn 0.710738 0.078982 0.699009
vn 0.710738 0.078982 0.699009
vn 0.708100 -0.038586 0.705057
vn 0.708100 -0.038586 0.705057
vn 0.641002 -0.311502 0.701486
vn 0.641002 -0.311502 0.701486
vn 0.446986 -0.549285 0.706039
vn 0.446986 -0.549284 0.706039
vn 0.342222 -0.629527 0.697553
vn 0.342222 -0.629527 0.697553
vn 0.201179 0.681219 -0.703894
vn 0.201179 0.681220 -0.703894
vn 0.201179 0.681219 -0.703894
vn 0.201179 0.681219 -0.703894
vn 0.693112 0.091045 -0.715057
vn 0.693112 0.091045 -0.715057
vn 0.690298 -0.026399 -0.723043
vn 0.690298 -0.026399 -0.723043
vn 0.623250 -0.299343 -0.722463
vn 0.623250 -0.299343 -0.722463
vn 0.429136 -0.537053 -0.726235
vn 0.429135 -0.537053 -0.726235
vn 0.324603 -0.617453 -0.716509
vn 0.324603 -0.617453 -0.716509
vn -0.429384 -0.562384 -0.706649
vn -0.429384 -0.562384 -0.706649
vn -0.429384 -0.562384 -0.706649
vn -0.429384 -0.562384 -0.706649
vn -0.639659 0.325879 -0.696160
vn -0.639659 0.325879 -0.696160
vn -0.639662 0.325879 -0.696158
vn -0.639662 0.325879 -0.696158
vn -0.639658 0.325877 -0.696162
vn -0.639658 0.325877 -0.696162
vn -0.639655 0.325876 -0.696166
vn -0.639655 0.325876 -0.696166
vn -0.639657 0.325876 -0.696164
vn -0.639657 0.325876 -0.696164
vn 0.012456 -0.008532 0.999886
vn 0.012456 -0.008531 0.999886
vn 0.012456 -0.008531 0.999886
vn 0.012456 -0.008532 0.999886
vn 0.012455 -0.008532 0.999886
vn 0.012455 -0.008532 0.999886
vn 0.012455 -0.008532 0.999886
vn 0.012455 -0.008532 0.999886
vn 0.012455 -0.008532 0.999886
vn 0.012455 -0.008532 0.999886
vn 0.992682 0.120227 -0.011341
vn 0.998975 -0.043410 -0.012816
vn 0.998975 -0.043410 -0.012816
vn 0.992682 0.120227 -0.011341
vn 0.900137 -0.435350 -0.014929
vn 0.900137 -0.435350 -0.014929
vn 0.625409 -0.780163 -0.014448
vn 0.625409 -0.780164 -0.014448
vn 0.471520 -0.881754 -0.013397
vn 0.471520 -0.881754 -0.013397
vn -0.012454 0.008535 -0.999886
vn -0.012455 0.008532 -0.999886
vn -0.012455 0.008533 -0.999886
vn -0.012454 0.008535 -0.999886
vn -0.012455 0.008532 -0.999886
vn -0.012455 0.008532 -0.999886
vn -0.012455 0.008532 -0.999886
vn -0.012455 0.008532 -0.999886
vn -0.012456 0.008532 -0.999886
vn -0.012456 0.008532 -0.999886
vn -0.891813 0.452156 0.014967
vn -0.891814 0.452156 0.014968
vn -0.891814 0.452156 0.014968
vn -0.891814 0.452156 0.014967
vn -0.891814 0.452155 0.014970
vn -0.891814 0.452155 0.014970
vn -0.891814 0.452155 0.014968
vn -0.891814 0.452155 0.014968
vn -0.891814 0.452155 0.014967
vn -0.891814 0.452155 0.014967
vn -0.594793 -0.803878 0.000551
vn -0.594793 -0.803878 0.000551
vn -0.594793 -0.803878 0.000551
vn -0.594793 -0.803878 0.000551
vn 0.296972 0.954876 0.004447
vn 0.296972 0.954876 0.004447
vn 0.296972 0.954876 0.004447
vn 0.296972 0.954876 0.004447
vn -0.680085 -0.166555 0.713963
vn -0.680085 -0.166555 0.713963
vn -0.680089 -0.166559 0.713959
vn -0.680088 -0.166559 0.713959
vn -0.264307 0.646136 0.715996
vn -0.264307 0.646136 0.715996
vn -0.264307 0.646136 0.715996
vn -0.264307 0.646136 0.715996
vn -0.680092 -0.166560 0.713956
vn -0.680092 -0.166560 0.713956
vn -0.680093 -0.166558 0.713956
vn -0.680093 -0.166558 0.713956
vn -0.680092 -0.166557 0.713956
vn -0.680092 -0.166557 0.713956
vn 0.051957 -0.711791 0.700467
vn 0.051957 -0.711791 0.700467
vn 0.051957 -0.711791 0.700467
vn 0.051957 -0.711791 0.700467
vn 0.491916 0.510293 0.705422
vn 0.491916 0.510293 0.705422
vn 0.565445 0.418474 0.710740
vn 0.565445 0.418474 0.710740
vn 0.689465 0.166320 0.704965
vn 0.689465 0.166319 0.704965
vn 0.693656 -0.140574 0.706456
vn 0.693656 -0.140575 0.706456
vn 0.664997 -0.269293 0.696606
vn 0.664997 -0.269293 0.696606
vn -0.281921 0.658198 -0.698066
vn -0.281920 0.658198 -0.698066
vn -0.281920 0.658198 -0.698066
vn -0.281920 0.658198 -0.698066
vn 0.474302 0.522355 -0.708648
vn 0.474302 0.522355 -0.708648
vn 0.547651 0.430656 -0.717366
vn 0.547652 0.430656 -0.717366
vn 0.671717 0.178467 -0.718989
vn 0.671718 0.178466 -0.718989
vn 0.675807 -0.128350 -0.725818
vn 0.675807 -0.128351 -0.725818
vn 0.647376 -0.257220 -0.717456
vn 0.647376 -0.257220 -0.717456
vn 0.034342 -0.699728 -0.713584
vn 0.034342 -0.699728 -0.713584
vn 0.034342 -0.699728 -0.713584
vn 0.034342 -0.699728 -0.713584
vn -0.697703 -0.154498 -0.699529
vn -0.697703 -0.154498 -0.699529
vn -0.697702 -0.154497 -0.699531
vn -0.697702 -0.154496 -0.699531
vn -0.697694 -0.154496 -0.699538
vn -0.697694 -0.154496 -0.699538
vn -0.697690 -0.154496 -0.699543
vn -0.697690 -0.154496 -0.699543
vn -0.697691 -0.154495 -0.699542
vn -0.697691 -0.154495 -0.699542
vn 0.012454 -0.008529 0.999886
vn 0.012455 -0.008531 0.999886
vn 0.012455 -0.008532 0.999886
vn 0.012454 -0.008529 0.999886
vn 0.012455 -0.008530 0.999886
vn 0.012455 -0.008530 0.999886
vn 0.012455 -0.008532 0.999886
vn 0.012455 -0.008531 0.999886
vn 0.012456 -0.008537 0.999886
vn 0.012456 -0.008537 0.999886
vn 0.683229 0.730201 -0.002283
vn 0.793230 0.608904 -0.004687
vn 0.793230 0.608904 -0.004687
vn 0.683229 0.730201 -0.002283
vn 0.969433 0.245153 -0.009984
vn 0.969433 0.245154 -0.009984
vn 0.980592 -0.195566 -0.013886
vn 0.980593 -0.195564 -0.013886
vn 0.927994 -0.372303 -0.014741
vn 0.927994 -0.372303 -0.014741
vn -0.012455 0.008532 -0.999886
vn -0.012455 0.008533 -0.999886
vn -0.012455 0.008532 -0.999886
vn -0.012455 0.008532 -0.999886
vn -0.012455 0.008530 -0.999886
vn -0.012455 0.008530 -0.999886
vn -0.012455 0.008531 -0.999886
vn -0.012455 0.008532 -0.999886
vn -0.012455 0.008537 -0.999886
vn -0.012455 0.008537 -0.999886
vn -0.973858 -0.226930 0.010194
vn -0.973858 -0.226930 0.010196
vn -0.973858 -0.226930 0.010196
vn -0.973858 -0.226930 0.010194
vn -0.973858 -0.226930 0.010196
vn -0.973858 -0.226930 0.010196
vn -0.973857 -0.226931 0.010196
vn -0.973857 -0.226931 0.010196
vn -0.973857 -0.226932 0.010196
vn -0.973857 -0.226932 0.010196
vn 0.061023 -0.998093 -0.009278
vn 0.061023 -0.998093 -0.009278
vn 0.061023 -0.998093 -0.009278
vn 0.061023 -0.998093 -0.009278
vn -0.386243 0.922310 0.012677
vn -0.386243 0.922310 0.012677
vn -0.386243 0.922310 0.012677
vn -0.386243 0.922310 0.012677
vn -0.415787 -0.571824 0.707205
vn -0.415787 -0.571824 0.707205
vn -0.415787 -0.571826 0.707203
vn -0.415787 -0.571826 0.707203
vn -0.619623 0.317953 0.717616
vn -0.619623 0.317953 0.717616
vn -0.619623 0.317953 0.717616
vn -0.619623 0.317953 0.717616
vn -0.415788 -0.571826 0.707203
vn -0.415788 -0.571826 0.707203
vn -0.415788 -0.571823 0.707205
vn -0.415788 -0.571823 0.707205
vn -0.415788 -0.571822 0.707205
vn -0.415788 -0.571822 0.707205
vn 0.495498 -0.518891 0.696587
vn 0.495498 -0.518891 0.696587
vn 0.495498 -0.518891 0.696587
vn 0.495498 -0.518891 0.696588
vn 0.047052 0.700018 0.712574
vn 0.047052 0.700018 0.712574
vn 0.162380 0.676879 0.717960
vn 0.162381 0.676879 0.717960
vn 0.419472 0.563473 0.711717
vn 0.419473 0.563472 0.711718
vn 0.619933 0.331050 0.711400
vn 0.619932 0.331050 0.711400
vn 0.680734 0.214124 0.700537
vn 0.680734 0.214124 0.700537
vn -0.637224 0.330013 -0.696446
vn -0.637224 0.330013 -0.696446
vn -0.637224 0.330013 -0.696446
vn -0.637224 0.330013 -0.696446
vn 0.029435 0.712070 -0.701491
vn 0.029435 0.712070 -0.701491
vn 0.144589 0.689051 -0.710142
vn 0.144590 0.689051 -0.710142
vn 0.401731 0.575612 -0.712238
vn 0.401731 0.575612 -0.712238
vn 0.602084 0.343270 -0.720875
vn 0.602085 0.343269 -0.720875
vn 0.663113 0.226191 -0.713526
vn 0.663113 0.226191 -0.713526
vn 0.477883 -0.506823 -0.717467
vn 0.477883 -0.506823 -0.717467
vn 0.477883 -0.506823 -0.717467
vn 0.477883 -0.506823 -0.717467
vn -0.433399 -0.559763 -0.706280
vn -0.433399 -0.559763 -0.706279
vn -0.433395 -0.559762 -0.706282
vn -0.433395 -0.559762 -0.706282
vn -0.433389 -0.559758 -0.706289
vn -0.433389 -0.559758 -0.706289
vn -0.433388 -0.559755 -0.706293
vn -0.433388 -0.559755 -0.706293
vn -0.433391 -0.559755 -0.706290
vn -0.433391 -0.559755 -0.706290
vn 0.012457 -0.008532 0.999886
vn 0.012456 -0.008532 0.999886
vn 0.012455 -0.008532 0.999886
vn 0.012457 -0.008532 0.999886
vn 0.012455 -0.008532 0.999886
vn 0.012455 -0.008532 0.999886
vn 0.012456 -0.008532 0.999886
vn 0.012456 -0.008532 0.999886
vn 0.012457 -0.008533 0.999886
vn 0.012457 -0.008533 0.999886
vn 0.054086 0.998505 0.007847
vn 0.216324 0.976305 0.005638
vn 0.216323 0.976305 0.005638
vn 0.054086 0.998505 0.007847
vn 0.585120 0.810947 -0.000366
vn 0.585119 0.810947 -0.000366
vn 0.876946 0.480541 -0.006824
vn 0.876946 0.480540 -0.006824
vn 0.950250 0.311353 -0.009182
vn 0.950250 0.311353 -0.009182
vn -0.012459 0.008534 -0.999886
vn -0.012456 0.008532 -0.999886
vn -0.012456 0.008533 -0.999886
vn -0.012459 0.008534 -0.999886
vn -0.012455 0.008532 -0.999886
vn -0.012455 0.008532 -0.999886
vn -0.012455 0.008532 -0.999886
vn -0.012455 0.008532 -0.999886
vn -0.012456 0.008533 -0.999886
vn -0.012456 0.008533 -0.999886
vn -0.600224 -0.799832 0.000642
vn -0.600223 -0.799833 0.000648
vn -0.600223 -0.799833 0.000648
vn -0.600224 -0.799832 0.000642
vn -0.600222 -0.799833 0.000654
vn -0.600222 -0.799833 0.000654
vn -0.600222 -0.799833 0.000654
vn -0.600222 -0.799833 0.000654
vn -0.600222 -0.799833 0.000655
vn -0.600222 -0.799833 0.000655
vn 0.688286 -0.725289 -0.014768
vn 0.688286 -0.725289 -0.014768
vn 0.688286 -0.725289 -0.014768
vn 0.688286 -0.725289 -0.014768
vn -0.888731 0.458184 0.014983
vn -0.888731 0.458184 0.014983
vn -0.888731 0.458184 0.014983
vn -0.888731 0.458184 0.014983
vn 0.294402 0.364847 0.883297
vn 0.294402 0.364847 0.883297
vn 0.294402 0.364847 0.883297
vn 0.294402 0.364847 0.883297
vn -0.004991 0.301621 0.953415
vn -0.004991 0.301621 0.953415
vn -0.004991 0.301621 0.953415
vn -0.004991 0.301621 0.953415
vn -0.311070 0.331875 0.890558
vn -0.311070 0.331875 0.890558
vn -0.311070 0.331875 0.890558
vn -0.311070 0.331875 0.890558
vn -0.727592 0.470216 0.499506
vn -0.727592 0.470216 0.499506
vn -0.727592 0.470216 0.499506
vn -0.727592 0.470216 0.499506
vn -0.739708 0.478514 -0.473135
vn -0.739708 0.478514 -0.473135
vn -0.739708 0.478514 -0.473135
vn -0.739708 0.478514 -0.473135
vn -0.333086 0.346955 -0.876742
vn -0.333086 0.346955 -0.876742
vn -0.333086 0.346955 -0.876742
vn -0.333086 0.346955 -0.876742
vn -0.028674 0.317842 -0.947710
vn -0.028674 0.317842 -0.947710
vn -0.028674 0.317842 -0.947710
vn -0.028674 0.317842 -0.947710
vn 0.272388 0.379926 -0.884003
vn 0.272388 0.379926 -0.884003
vn 0.272388 0.379926 -0.884003
vn 0.272388 0.379926 -0.884003
vn 0.671856 0.555382 -0.490062
vn 0.671856 0.555382 -0.490062
vn 0.671856 0.555382 -0.490062
vn 0.671856 0.555382 -0.490062
vn 0.683969 0.547082 0.482584
vn 0.683969 0.547082 0.482584
vn 0.683969 0.547082 0.482584
vn 0.683969 0.547082 0.482584
vn 0.335800 0.009574 0.941885
vn 0.335800 0.009574 0.941885
vn 0.335800 0.009574 0.941885
vn 0.335800 0.009574 0.941885
vn 0.012454 -0.008532 0.999886
vn 0.012454 -0.008532 0.999886
vn 0.012454 -0.008532 0.999886
vn 0.012454 -0.008532 0.999886
vn -0.312235 -0.025715 0.949657
vn -0.312235 -0.025715 0.949657
vn -0.312235 -0.025715 0.949657
vn -0.312235 -0.025715 0.949657
vn -0.815488 -0.049629 0.576643
vn -0.815488 -0.049629 0.576643
vn -0.815488 -0.049629 0.576643
vn -0.815488 -0.049629 0.576643
vn -0.829607 -0.039956 -0.556916
vn -0.829607 -0.039956 -0.556916
vn -0.829607 -0.039956 -0.556916
vn -0.829607 -0.039956 -0.556916
vn -0.335799 -0.009574 -0.941885
vn -0.335799 -0.009574 -0.941885
vn -0.335799 -0.009574 -0.941885
vn -0.335799 -0.009574 -0.941885
vn -0.012455 0.008532 -0.999886
vn -0.012455 0.008532 -0.999886
vn -0.012455 0.008532 -0.999886
vn -0.012455 0.008532 -0.999886
vn 0.312235 0.025715 -0.949657
vn 0.312235 0.025715 -0.949657
vn 0.312235 0.025715 -0.949657
vn 0.312235 0.025715 -0.949657
vn 0.815487 0.049629 -0.576643
vn 0.815487 0.049629 -0.576643
vn 0.815487 0.049629 -0.576643
vn 0.815487 0.049629 -0.576643
vn 0.829607 0.039956 0.556915
vn 0.829608 0.039956 0.556916
vn 0.829607 0.039956 0.556915
vn 0.829608 0.039956 0.556916
vn 0.333086 -0.346955 0.876742
vn 0.333086 -0.346955 0.876742
vn 0.333086 -0.346955 0.876742
vn 0.333086 -0.346955 0.876742
vn 0.028673 -0.317842 0.947710
vn 0.028673 -0.317842 0.947710
vn 0.028673 -0.317842 0.947710
vn 0.028673 -0.317842 0.947710
vn -0.272387 -0.379926 0.884003
vn -0.272387 -0.379926 0.884003
vn -0.272387 -0.379926 0.884003
vn -0.272387 -0.379926 0.884003
vn -0.671855 -0.555382 0.490063
vn -0.671855 -0.555382 0.490063
vn -0.671855 -0.555382 0.490063
vn -0.671855 -0.555382 0.490063
vn -0.683971 -0.547082 -0.482581
vn -0.683971 -0.547082 -0.482581
vn -0.683971 -0.547082 -0.482581
vn -0.683971 -0.547082 -0.482581
vn -0.294402 -0.364845 -0.883298
vn -0.294402 -0.364845 -0.883298
vn -0.294402 -0.364845 -0.883298
vn -0.294402 -0.364845 -0.883298
vn 0.004991 -0.301620 -0.953415
vn 0.004991 -0.301620 -0.953415
vn 0.004991 -0.301620 -0.953415
vn 0.004991 -0.301620 -0.953415
vn 0.311070 -0.331875 -0.890559
vn 0.311070 -0.331875 -0.890559
vn 0.311070 -0.331875 -0.890559
vn 0.311070 -0.331875 -0.890559
vn 0.727592 -0.470215 -0.499508
vn 0.727592 -0.470215 -0.499508
vn 0.727592 -0.470215 -0.499508
vn 0.727592 -0.470215 -0.499508
vn 0.739707 -0.478515 0.473136
vn 0.739707 -0.478515 0.473136
vn 0.739707 -0.478515 0.473136
vn 0.739707 -0.478515 0.473136
vn 0.130555 0.854111 0.503438
vn 0.130555 0.854111 0.503438
vn 0.130555 0.854111 0.503438
vn -0.036662 0.803968 0.593542
vn -0.036662 0.803968 0.593542
vn -0.036662 0.803968 0.593542
vn -0.210444 0.835546 0.507520
vn -0.210444 0.835546 0.507520
vn -0.210444 0.835546 0.507520
vn -0.349680 0.910641 0.220131
vn -0.349680 0.910641 0.220131
vn -0.349679 0.910641 0.220131
vn -0.354860 0.914191 -0.195777
vn -0.354860 0.914191 -0.195777
vn -0.354860 0.914191 -0.195777
vn -0.222841 0.844036 -0.487796
vn -0.222841 0.844036 -0.487796
vn -0.222841 0.844036 -0.487796
vn -0.051265 0.813971 -0.578639
vn -0.051265 0.813971 -0.578639
vn -0.051265 0.813971 -0.578639
vn 0.118155 0.862602 -0.491891
vn 0.118155 0.862602 -0.491891
vn 0.118155 0.862602 -0.491891
vn 0.248722 0.947061 -0.203007
vn 0.248722 0.947061 -0.203007
vn 0.248722 0.947061 -0.203007
vn 0.253903 0.943512 0.212883
vn 0.253903 0.943512 0.212883
vn 0.253903 0.943512 0.212883
vn 0.222840 -0.844034 0.487800
vn 0.222840 -0.844034 0.487800
vn 0.222840 -0.844034 0.487800
vn 0.051266 -0.813972 0.578637
vn 0.051266 -0.813972 0.578637
vn 0.051266 -0.813972 0.578637
vn -0.118156 -0.862606 0.491884
vn -0.118156 -0.862606 0.491884
vn -0.118156 -0.862606 0.491884
vn -0.248722 -0.947060 0.203016
vn -0.248722 -0.947060 0.203016
vn -0.248722 -0.947060 0.203016
vn -0.253903 -0.943512 -0.212883
vn -0.253903 -0.943512 -0.212883
vn -0.253903 -0.943512 -0.212883
vn -0.130554 -0.854111 -0.503438
vn -0.130554 -0.854111 -0.503438
vn -0.130554 -0.854111 -0.503438
vn 0.036663 -0.803968 -0.593542
vn 0.036663 -0.803968 -0.593542
vn 0.036663 -0.803968 -0.593542
vn 0.210442 -0.835542 -0.507528
vn 0.210442 -0.835542 -0.507527
vn 0.210442 -0.835542 -0.507528
vn 0.349680 -0.910642 -0.220125
vn 0.349680 -0.910642 -0.220125
vn 0.349680 -0.910642 -0.220125
vn 0.354860 -0.914191 0.195777
vn 0.354860 -0.914191 0.195777
vn 0.354860 -0.914191 0.195777
vn 0.587785 0.000000 -0.809017
vn 0.587785 0.000000 -0.809017
vn 0.587785 0.000000 -0.809017
vn 0.587785 0.000000 -0.809017
vn -0.000000 0.000000 -1.000000
vn -0.000000 0.000000 -1.000000
vn -0.000000 0.000000 -1.000000
vn -0.000000 0.000000 -1.000000
vn -0.587785 0.000000 -0.809017
vn -0.587785 0.000000 -0.809017
vn -0.587785 0.000000 -0.809017
vn -0.587785 0.000000 -0.809017
vn -0.951057 0.000000 -0.309017
vn -0.951057 0.000000 -0.309017
vn -0.951057 0.000000 -0.309017
vn -0.951057 0.000000 -0.309017
vn -0.951056 0.000000 0.309017
vn -0.951056 0.000000 0.309017
vn -0.951056 0.000000 0.309017
vn -0.951056 0.000000 0.309017
vn -0.587785 0.000000 0.809017
vn -0.587785 0.000000 0.809017
vn -0.587785 0.000000 0.809017
vn -0.587785 0.000000 0.809017
vn 0.000000 0.000000 1.000000
vn 0.000000 0.000000 1.000000
vn 0.000000 0.000000 1.000000
vn 0.000000 0.000000 1.000000
vn 0.587785 0.000000 0.809017
vn 0.587785 0.000000 0.809017
vn 0.587785 0.000000 0.809017
vn 0.587785 0.000000 0.809017
vn 0.951056 0.000000 0.309017
vn 0.951056 0.000000 0.309017
vn 0.951056 0.000000 0.309017
vn 0.951056 0.000000 0.309017
vn 0.951057 0.000000 -0.309017
vn 0.951057 0.000000 -0.309017
vn 0.951057 0.000000 -0.309017
vn 0.951057 0.000000 -0.309017
vn 0.579100 0.233503 -0.781101
vn 0.579100 0.233503 -0.781101
vn 0.579100 0.233503 -0.781101
vn 0.579100 0.233503 -0.781101
vn 0.000000 0.283959 -0.958836
vn 0.000000 0.283959 -0.958836
vn 0.000000 0.283959 -0.958836
vn 0.000000 0.283959 -0.958836
vn -0.579100 0.233502 -0.781101
vn -0.579100 0.233502 -0.781101
vn -0.579101 0.233503 -0.781101
vn -0.579100 0.233502 -0.781101
vn -0.948889 0.092613 -0.301716
vn -0.948889 0.092613 -0.301716
vn -0.948889 0.092613 -0.301716
vn -0.948889 0.092613 -0.301716
vn -0.948768 -0.095906 0.301069
vn -0.948768 -0.095906 0.301069
vn -0.948767 -0.095906 0.301069
vn -0.948768 -0.095906 0.301069
vn -0.577778 -0.255548 0.775157
vn -0.577778 -0.255548 0.775157
vn -0.577778 -0.255548 0.775157
vn -0.577778 -0.255548 0.775157
vn 0.000000 -0.317158 0.948373
vn 0.000000 -0.317158 0.948373
vn 0.000000 -0.317158 0.948373
vn 0.000000 -0.317158 0.948373
vn 0.577778 -0.255548 0.775157
vn 0.577778 -0.255548 0.775157
vn 0.577778 -0.255548 0.775157
vn 0.577778 -0.255548 0.775157
vn 0.948768 -0.095906 0.301068
vn 0.948768 -0.095906 0.301068
vn 0.948768 -0.095906 0.301068
vn 0.948768 -0.095906 0.301068
vn 0.948889 0.092613 -0.301716
vn 0.948889 0.092613 -0.301716
vn 0.948889 0.092613 -0.301716
vn 0.948889 0.092613 -0.301716
vn 0.573501 0.412143 -0.707979
vn 0.573501 0.412143 -0.707979
vn 0.573501 0.412143 -0.707979
vn 0.573501 0.412143 -0.707979
vn 0.000000 0.505356 -0.862911
vn 0.000000 0.505357 -0.862911
vn 0.000000 0.505356 -0.862911
vn 0.000000 0.505356 -0.862911
vn -0.573501 0.412143 -0.707979
vn -0.573501 0.412143 -0.707979
vn -0.573501 0.412143 -0.707979
vn -0.573501 0.412143 -0.707979
vn -0.947506 0.158753 -0.277543
vn -0.947506 0.158753 -0.277543
vn -0.947506 0.158753 -0.277543
vn -0.947506 0.158753 -0.277543
vn -0.947389 -0.155764 0.279627
vn -0.947389 -0.155764 0.279627
vn -0.947389 -0.155764 0.279627
vn -0.947389 -0.155764 0.279627
vn -0.572249 -0.391005 0.720864
vn -0.572249 -0.391005 0.720865
vn -0.572249 -0.391005 0.720864
vn -0.572250 -0.391005 0.720864
vn 0.000000 -0.472466 0.881349
vn 0.000000 -0.472466 0.881349
vn 0.000000 -0.472466 0.881349
vn 0.000000 -0.472466 0.881349
vn 0.572249 -0.391005 0.720865
vn 0.572249 -0.391005 0.720865
vn 0.572249 -0.391005 0.720865
vn 0.572249 -0.391005 0.720865
vn 0.947389 -0.155764 0.279627
vn 0.947389 -0.155764 0.279627
vn 0.947389 -0.155764 0.279627
vn 0.947389 -0.155764 0.279627
vn 0.947506 0.158753 -0.277544
vn 0.947506 0.158753 -0.277544
vn 0.947506 0.158753 -0.277543
vn 0.947506 0.158753 -0.277544
vn 0.540524 0.638196 -0.548216
vn 0.540524 0.638196 -0.548216
vn 0.540524 0.638196 -0.548216
vn 0.540524 0.638196 -0.548216
vn 0.000000 0.767378 -0.641195
vn 0.000000 0.767378 -0.641195
vn 0.000000 0.767378 -0.641195
vn 0.000000 0.767378 -0.641195
vn -0.540523 0.638196 -0.548216
vn -0.540523 0.638196 -0.548216
vn -0.540523 0.638196 -0.548216
vn -0.540523 0.638196 -0.548216
vn -0.936809 0.255755 -0.238702
vn -0.936809 0.255755 -0.238702
vn -0.936809 0.255755 -0.238702
vn -0.936809 0.255755 -0.238702
vn -0.933307 -0.245941 0.261631
vn -0.933307 -0.245941 0.261631
vn -0.933307 -0.245941 0.261631
vn -0.933307 -0.245941 0.261631
vn -0.508776 -0.544679 0.666687
vn -0.508776 -0.544679 0.666687
vn -0.508776 -0.544679 0.666687
vn -0.508776 -0.544679 0.666687
vn 0.000000 -0.607750 0.794129
vn 0.000000 -0.607750 0.794129
vn 0.000000 -0.607750 0.794129
vn 0.000000 -0.607750 0.794129
vn 0.508776 -0.544679 0.666687
vn 0.508776 -0.544679 0.666687
vn 0.508776 -0.544679 0.666687
vn 0.508776 -0.544679 0.666687
vn 0.933307 -0.245940 0.261631
vn 0.933307 -0.245940 0.261631
vn 0.933307 -0.245940 0.261631
vn 0.933307 -0.245940 0.261631
vn 0.936808 0.255756 -0.238703
vn 0.936808 0.255756 -0.238703
vn 0.936808 0.255756 -0.238703
vn 0.936808 0.255756 -0.238703
s 1
g pCube11
usemtl lambert2SG
f 1/2/1 2/1/2 4/4/3 3/12/4
s off
f 2/1/5 1/2/6 11/7/7 12/3/8
s 1
f 3/12/4 4/4/3 6/5/9 5/13/10
f 5/13/10 6/5/9 8/6/11 7/15/12
f 7/15/12 8/6/11 10/46/13 9/17/14
s off
f 9/17/15 10/46/16 20/8/17 19/18/18
s 2
f 12/3/19 11/7/20 13/14/21 14/20/22
f 14/20/22 13/14/21 15/16/23 16/22/24
f 16/22/24 15/16/23 17/19/25 18/24/26
f 18/24/26 17/19/25 19/18/27 20/8/28
s off
f 21/21/29 22/28/30 31/11/31 32/9/32
s 3
f 22/28/33 21/21/34 23/23/35 24/29/36
f 24/29/36 23/23/35 25/25/37 26/30/38
f 26/30/38 25/25/37 27/27/39 28/32/40
f 28/32/40 27/27/39 30/10/41 29/34/42
s off
f 29/34/43 30/10/44 40/43/45 39/35/46
s 4
f 32/9/47 31/11/48 33/31/49 34/37/50
f 34/37/50 33/31/49 35/33/51 36/39/52
f 36/39/52 35/33/51 37/36/53 38/41/54
f 38/41/54 37/36/53 39/35/55 40/43/56
s 5
f 1/2/57 3/12/58 13/14/59 11/7/60
f 3/12/58 5/13/61 15/16/62 13/14/59
f 5/13/61 7/15/63 17/19/64 15/16/62
f 7/15/63 9/17/65 19/18/66 17/19/64
s 6
f 12/3/67 14/20/68 23/23/69 21/21/70
f 14/20/68 16/22/71 25/25/72 23/23/69
f 16/22/71 18/24/73 27/27/74 25/25/72
f 18/24/73 20/26/75 30/10/76 27/27/74
s 7
f 22/28/77 24/29/78 33/31/79 31/11/80
f 24/29/78 26/30/81 35/33/82 33/31/79
f 26/30/81 28/32/83 37/36/84 35/33/82
f 28/32/83 29/34/85 39/35/86 37/36/84
s 8
f 32/9/87 34/37/88 4/40/89 2/38/90
f 34/37/88 36/39/91 6/42/92 4/40/89
f 36/39/91 38/41/93 8/45/94 6/42/92
f 38/41/93 40/43/95 10/44/96 8/45/94
s off
f 10/46/97 40/47/98 30/48/99 20/8/100
f 32/49/101 2/1/102 12/50/103 21/51/104
s 9
f 41/52/105 42/53/106 44/54/107 43/55/108
s off
f 42/53/109 41/52/110 51/56/111 52/57/112
s 9
f 43/55/108 44/54/107 46/58/113 45/59/114
f 45/59/114 46/58/113 48/60/115 47/61/116
f 47/61/116 48/60/115 50/62/117 49/63/118
s off
f 49/63/119 50/62/120 60/64/121 59/65/122
s 10
f 52/57/123 51/56/124 53/66/125 54/67/126
f 54/67/126 53/66/125 55/68/127 56/69/128
f 56/69/128 55/68/127 57/70/129 58/71/130
f 58/71/130 57/70/129 59/65/131 60/64/132
s off
f 61/72/133 62/73/134 71/74/135 72/75/136
s 11
f 62/73/137 61/72/138 63/76/139 64/77/140
f 64/77/140 63/76/139 65/78/141 66/79/142
f 66/79/142 65/78/141 67/80/143 68/81/144
f 68/81/144 67/80/143 70/82/145 69/83/146
s off
f 69/83/147 70/82/148 80/84/149 79/85/150
s 12
f 72/75/151 71/74/152 73/86/153 74/87/154
f 74/87/154 73/86/153 75/88/155 76/89/156
f 76/89/156 75/88/155 77/90/157 78/91/158
f 78/91/158 77/90/157 79/85/159 80/84/160
s 13
f 41/52/161 43/55/162 53/66/163 51/56/164
f 43/55/162 45/59/165 55/68/166 53/66/163
f 45/59/165 47/61/167 57/70/168 55/68/166
f 47/61/167 49/63/169 59/65/170 57/70/168
s 14
f 52/57/171 54/67/172 63/76/173 61/72/174
f 54/67/172 56/69/175 65/78/176 63/76/173
f 56/69/175 58/71/177 67/80/178 65/78/176
f 58/71/177 60/92/179 70/82/180 67/80/178
s 15
f 62/73/181 64/77/182 73/86/183 71/74/184
f 64/77/182 66/79/185 75/88/186 73/86/183
f 66/79/185 68/81/187 77/90/188 75/88/186
f 68/81/187 69/83/189 79/85/190 77/90/188
s 16
f 72/75/191 74/87/192 44/93/193 42/94/194
f 74/87/192 76/89/195 46/95/196 44/93/193
f 76/89/195 78/91/197 48/96/198 46/95/196
f 78/91/197 80/84/199 50/97/200 48/96/198
s off
f 50/62/201 80/98/202 70/99/203 60/64/204
f 72/100/205 42/53/206 52/101/207 61/102/208
s 17
f 81/103/209 82/104/210 84/105/211 83/106/212
s off
f 82/104/213 81/103/214 91/107/215 92/108/216
s 17
f 83/106/212 84/105/211 86/109/217 85/110/218
f 85/110/218 86/109/217 88/111/219 87/112/220
f 87/112/220 88/111/219 90/113/221 89/114/222
s off
f 89/114/223 90/113/224 100/115/225 99/116/226
s 18
f 92/108/227 91/107/228 93/117/229 94/118/230
f 94/118/230 93/117/229 95/119/231 96/120/232
f 96/120/232 95/119/231 97/121/233 98/122/234
f 98/122/234 97/121/233 99/116/235 100/115/236
s off
f 101/123/237 102/124/238 111/125/239 112/126/240
s 19
f 102/124/241 101/123/242 103/127/243 104/128/244
f 104/128/244 103/127/243 105/129/245 106/130/246
f 106/130/246 105/129/245 107/131/247 108/132/248
f 108/132/248 107/131/247 110/133/249 109/134/250
s off
f 109/134/251 110/133/252 120/135/253 119/136/254
s 20
f 112/126/255 111/125/256 113/137/257 114/138/258
f 114/138/258 113/137/257 115/139/259 116/140/260
f 116/140/260 115/139/259 117/141/261 118/142/262
f 118/142/262 117/141/261 119/136/263 120/135/264
s 21
f 81/103/265 83/106/266 93/117/267 91/107/268
f 83/106/266 85/110/269 95/119/270 93/117/267
f 85/110/269 87/112/271 97/121/272 95/119/270
f 87/112/271 89/114/273 99/116/274 97/121/272
s 22
f 92/108/275 94/118/276 103/127/277 101/123/278
f 94/118/276 96/120/279 105/129/280 103/127/277
f 96/120/279 98/122/281 107/131/282 105/129/280
f 98/122/281 100/143/283 110/133/284 107/131/282
s 23
f 102/124/285 104/128/286 113/137/287 111/125/288
f 104/128/286 106/130/289 115/139/290 113/137/287
f 106/130/289 108/132/291 117/141/292 115/139/290
f 108/132/291 109/134/293 119/136/294 117/141/292
s 24
f 112/126/295 114/138/296 84/144/297 82/145/298
f 114/138/296 116/140/299 86/146/300 84/144/297
f 116/140/299 118/142/301 88/147/302 86/146/300
f 118/142/301 120/135/303 90/148/304 88/147/302
s off
f 90/113/305 120/149/306 110/150/307 100/115/308
f 112/151/309 82/104/310 92/152/311 101/153/312
s 25
f 121/154/313 122/155/314 124/156/315 123/157/316
s off
f 122/155/317 121/154/318 131/158/319 132/159/320
s 25
f 123/157/316 124/156/315 126/160/321 125/161/322
f 125/161/322 126/160/321 128/162/323 127/163/324
f 127/163/324 128/162/323 130/164/325 129/165/326
s off
f 129/165/327 130/164/328 140/166/329 139/167/330
s 26
f 132/159/331 131/158/332 133/168/333 134/169/334
f 134/169/334 133/168/333 135/170/335 136/171/336
f 136/171/336 135/170/335 137/172/337 138/173/338
f 138/173/338 137/172/337 139/167/339 140/166/340
s off
f 141/174/341 142/175/342 151/176/343 152/177/344
s 27
f 142/175/345 141/174/346 143/178/347 144/179/348
f 144/179/348 143/178/347 145/180/349 146/181/350
f 146/181/350 145/180/349 147/182/351 148/183/352
f 148/183/352 147/182/351 150/184/353 149/185/354
s off
f 149/185/355 150/184/356 160/186/357 159/187/358
s 28
f 152/177/359 151/176/360 153/188/361 154/189/362
f 154/189/362 153/188/361 155/190/363 156/191/364
f 156/191/364 155/190/363 157/192/365 158/193/366
f 158/193/366 157/192/365 159/187/367 160/186/368
s 29
f 121/154/369 123/157/370 133/168/371 131/158/372
f 123/157/370 125/161/373 135/170/374 133/168/371
f 125/161/373 127/163/375 137/172/376 135/170/374
f 127/163/375 129/165/377 139/167/378 137/172/376
s 30
f 132/159/379 134/169/380 143/178/381 141/174/382
f 134/169/380 136/171/383 145/180/384 143/178/381
f 136/171/383 138/173/385 147/182/386 145/180/384
f 138/173/385 140/194/387 150/184/388 147/182/386
s 31
f 142/175/389 144/179/390 153/188/391 151/176/392
f 144/179/390 146/181/393 155/190/394 153/188/391
f 146/181/393 148/183/395 157/192/396 155/190/394
f 148/183/395 149/185/397 159/187/398 157/192/396
s 32
f 152/177/399 154/189/400 124/195/401 122/196/402
f 154/189/400 156/191/403 126/197/404 124/195/401
f 156/191/403 158/193/405 128/198/406 126/197/404
f 158/193/405 160/186/407 130/199/408 128/198/406
s off
f 130/164/409 160/200/410 150/201/411 140/166/412
f 152/202/413 122/155/414 132/203/415 141/204/416
s 33
f 161/205/417 162/206/418 164/207/419 163/208/420
s off
f 162/206/421 161/205/422 171/209/423 172/210/424
s 33
f 163/208/420 164/207/419 166/211/425 165/212/426
f 165/212/426 166/211/425 168/213/427 167/214/428
f 167/214/428 168/213/427 170/215/429 169/216/430
s off
f 169/216/431 170/215/432 180/217/433 179/218/434
s 34
f 172/210/435 171/209/436 173/219/437 174/220/438
f 174/220/438 173/219/437 175/221/439 176/222/440
f 176/222/440 175/221/439 177/223/441 178/224/442
f 178/224/442 177/223/441 179/218/443 180/217/444
s off
f 181/225/445 182/226/446 191/227/447 192/228/448
s 35
f 182/226/449 181/225/450 183/229/451 184/230/452
f 184/230/452 183/229/451 185/231/453 186/232/454
f 186/232/454 185/231/453 187/233/455 188/234/456
f 188/234/456 187/233/455 190/235/457 189/236/458
s off
f 189/236/459 190/235/460 200/237/461 199/238/462
s 36
f 192/228/463 191/227/464 193/239/465 194/240/466
f 194/240/466 193/239/465 195/241/467 196/242/468
f 196/242/468 195/241/467 197/243/469 198/244/470
f 198/244/470 197/243/469 199/238/471 200/237/472
s 37
f 161/205/473 163/208/474 173/219/475 171/209/476
f 163/208/474 165/212/477 175/221/478 173/219/475
f 165/212/477 167/214/479 177/223/480 175/221/478
f 167/214/479 169/216/481 179/218/482 177/223/480
s 38
f 172/210/483 174/220/484 183/229/485 181/225/486
f 174/220/484 176/222/487 185/231/488 183/229/485
f 176/222/487 178/224/489 187/233/490 185/231/488
f 178/224/489 180/245/491 190/235/492 187/233/490
s 39
f 182/226/493 184/230/494 193/239/495 191/227/496
f 184/230/494 186/232/497 195/241/498 193/239/495
f 186/232/497 188/234/499 197/243/500 195/241/498
f 188/234/499 189/236/501 199/238/502 197/243/500
s 40
f 192/228/503 194/240/504 164/246/505 162/247/506
f 194/240/504 196/242/507 166/248/508 164/246/505
f 196/242/507 198/244/509 168/249/510 166/248/508
f 198/244/509 200/237/511 170/250/512 168/249/510
s off
f 170/215/513 200/251/514 190/252/515 180/217/516
f 192/253/517 162/206/518 172/254/519 181/255/520
s 41
f 201/256/521 202/257/522 204/258/523 203/259/524
s off
f 202/257/525 201/256/526 211/260/527 212/261/528
s 41
f 203/259/524 204/258/523 206/262/529 205/263/530
f 205/263/530 206/262/529 208/264/531 207/265/532
f 207/265/532 208/264/531 210/266/533 209/267/534
s off
f 209/267/535 210/266/536 220/268/537 219/269/538
s 42
f 212/261/539 211/260/540 213/270/541 214/271/542
f 214/271/542 213/270/541 215/272/543 216/273/544
f 216/273/544 215/272/543 217/274/545 218/275/546
f 218/275/546 217/274/545 219/269/547 220/268/548
s off
f 221/276/549 222/277/550 231/278/551 232/279/552
s 43
f 222/277/553 221/276/554 223/280/555 224/281/556
f 224/281/556 223/280/555 225/282/557 226/283/558
f 226/283/558 225/282/557 227/284/559 228/285/560
f 228/285/560 227/284/559 230/286/561 229/287/562
s off
f 229/287/563 230/286/564 240/288/565 239/289/566
s 44
f 232/279/567 231/278/568 233/290/569 234/291/570
f 234/291/570 233/290/569 235/292/571 236/293/572
f 236/293/572 235/292/571 237/294/573 238/295/574
f 238/295/574 237/294/573 239/289/575 240/288/576
s 45
f 201/256/577 203/259/578 213/270/579 211/260/580
f 203/259/578 205/263/581 215/272/582 213/270/579
f 205/263/581 207/265/583 217/274/584 215/272/582
f 207/265/583 209/267/585 219/269/586 217/274/584
s 46
f 212/261/587 214/271/588 223/280/589 221/276/590
f 214/271/588 216/273/591 225/282/592 223/280/589
f 216/273/591 218/275/593 227/284/594 225/282/592
f 218/275/593 220/296/595 230/286/596 227/284/594
s 47
f 222/277/597 224/281/598 233/290/599 231/278/600
f 224/281/598 226/283/601 235/292/602 233/290/599
f 226/283/601 228/285/603 237/294/604 235/292/602
f 228/285/603 229/287/605 239/289/606 237/294/604
s 48
f 232/279/607 234/291/608 204/297/609 202/298/610
f 234/291/608 236/293/611 206/299/612 204/297/609
f 236/293/611 238/295/613 208/300/614 206/299/612
f 238/295/613 240/288/615 210/301/616 208/300/614
s off
f 210/266/617 240/302/618 230/303/619 220/268/620
f 232/304/621 202/257/622 212/305/623 221/306/624
s 49
f 241/307/625 242/308/626 244/309/627 243/310/628
s off
f 242/308/629 241/307/630 251/311/631 252/312/632
s 49
f 243/310/628 244/309/627 246/313/633 245/314/634
f 245/314/634 246/313/633 248/315/635 247/316/636
f 247/316/636 248/315/635 250/317/637 249/318/638
s off
f 249/318/639 250/317/640 260/319/641 259/320/642
s 50
f 252/312/643 251/311/644 253/321/645 254/322/646
f 254/322/646 253/321/645 255/323/647 256/324/648
f 256/324/648 255/323/647 257/325/649 258/326/650
f 258/326/650 257/325/649 259/320/651 260/319/652
s off
f 261/327/653 262/328/654 271/329/655 272/330/656
s 51
f 262/328/657 261/327/658 263/331/659 264/332/660
f 264/332/660 263/331/659 265/333/661 266/334/662
f 266/334/662 265/333/661 267/335/663 268/336/664
f 268/336/664 267/335/663 270/337/665 269/338/666
s off
f 269/338/667 270/337/668 280/339/669 279/340/670
s 52
f 272/330/671 271/329/672 273/341/673 274/342/674
f 274/342/674 273/341/673 275/343/675 276/344/676
f 276/344/676 275/343/675 277/345/677 278/346/678
f 278/346/678 277/345/677 279/340/679 280/339/680
s 53
f 241/307/681 243/310/682 253/321/683 251/311/684
f 243/310/682 245/314/685 255/323/686 253/321/683
f 245/314/685 247/316/687 257/325/688 255/323/686
f 247/316/687 249/318/689 259/320/690 257/325/688
s 54
f 252/312/691 254/322/692 263/331/693 261/327/694
f 254/322/692 256/324/695 265/333/696 263/331/693
f 256/324/695 258/326/697 267/335/698 265/333/696
f 258/326/697 260/347/699 270/337/700 267/335/698
s 55
f 262/328/701 264/332/702 273/341/703 271/329/704
f 264/332/702 266/334/705 275/343/706 273/341/703
f 266/334/705 268/336/707 277/345/708 275/343/706
f 268/336/707 269/338/709 279/340/710 277/345/708
s 56
f 272/330/711 274/342/712 244/348/713 242/349/714
f 274/342/712 276/344/715 246/350/716 244/348/713
f 276/344/715 278/346/717 248/351/718 246/350/716
f 278/346/717 280/339/719 250/352/720 248/351/718
s off
f 250/317/721 280/353/722 270/354/723 260/319/724
f 272/355/725 242/308/726 252/356/727 261/357/728
s 57
f 281/358/729 282/359/730 284/360/731 283/361/732
s off
f 282/359/733 281/358/734 291/362/735 292/363/736
s 57
f 283/361/732 284/360/731 286/364/737 285/365/738
f 285/365/738 286/364/737 288/366/739 287/367/740
f 287/367/740 288/366/739 290/368/741 289/369/742
s off
f 289/369/743 290/368/744 300/370/745 299/371/746
s 58
f 292/363/747 291/362/748 293/372/749 294/373/750
f 294/373/750 293/372/749 295/374/751 296/375/752
f 296/375/752 295/374/751 297/376/753 298/377/754
f 298/377/754 297/376/753 299/371/755 300/370/756
s off
f 301/378/757 302/379/758 311/380/759 312/381/760
s 59
f 302/379/761 301/378/762 303/382/763 304/383/764
f 304/383/764 303/382/763 305/384/765 306/385/766
f 306/385/766 305/384/765 307/386/767 308/387/768
f 308/387/768 307/386/767 310/388/769 309/389/770
s off
f 309/389/771 310/388/772 320/390/773 319/391/774
s 60
f 312/381/775 311/380/776 313/392/777 314/393/778
f 314/393/778 313/392/777 315/394/779 316/395/780
f 316/395/780 315/394/779 317/396/781 318/397/782
f 318/397/782 317/396/781 319/391/783 320/390/784
s 61
f 281/358/785 283/361/786 293/372/787 291/362/788
f 283/361/786 285/365/789 295/374/790 293/372/787
f 285/365/789 287/367/791 297/376/792 295/374/790
f 287/367/791 289/369/793 299/371/794 297/376/792
s 62
f 292/363/795 294/373/796 303/382/797 301/378/798
f 294/373/796 296/375/799 305/384/800 303/382/797
f 296/375/799 298/377/801 307/386/802 305/384/800
f 298/377/801 300/398/803 310/388/804 307/386/802
s 63
f 302/379/805 304/383/806 313/392/807 311/380/808
f 304/383/806 306/385/809 315/394/810 313/392/807
f 306/385/809 308/387/811 317/396/812 315/394/810
f 308/387/811 309/389/813 319/391/814 317/396/812
s 64
f 312/381/815 314/393/816 284/399/817 282/400/818
f 314/393/816 316/395/819 286/401/820 284/399/817
f 316/395/819 318/397/821 288/402/822 286/401/820
f 318/397/821 320/390/823 290/403/824 288/402/822
s off
f 290/368/825 320/404/826 310/405/827 300/370/828
f 312/406/829 282/359/830 292/407/831 301/408/832
s 65
f 321/409/833 322/410/834 324/411/835 323/412/836
s off
f 322/410/837 321/409/838 331/413/839 332/414/840
s 65
f 323/412/836 324/411/835 326/415/841 325/416/842
f 325/416/842 326/415/841 328/417/843 327/418/844
f 327/418/844 328/417/843 330/419/845 329/420/846
s off
f 329/420/847 330/419/848 340/421/849 339/422/850
s 66
f 332/414/851 331/413/852 333/423/853 334/424/854
f 334/424/854 333/423/853 335/425/855 336/426/856
f 336/426/856 335/425/855 337/427/857 338/428/858
f 338/428/858 337/427/857 339/422/859 340/421/860
s off
f 341/429/861 342/430/862 351/431/863 352/432/864
s 67
f 342/430/865 341/429/866 343/433/867 344/434/868
f 344/434/868 343/433/867 345/435/869 346/436/870
f 346/436/870 345/435/869 347/437/871 348/438/872
f 348/438/872 347/437/871 350/439/873 349/440/874
s off
f 349/440/875 350/439/876 360/441/877 359/442/878
s 68
f 352/432/879 351/431/880 353/443/881 354/444/882
f 354/444/882 353/443/881 355/445/883 356/446/884
f 356/446/884 355/445/883 357/447/885 358/448/886
f 358/448/886 357/447/885 359/442/887 360/441/888
s 69
f 321/409/889 323/412/890 333/423/891 331/413/892
f 323/412/890 325/416/893 335/425/894 333/423/891
f 325/416/893 327/418/895 337/427/896 335/425/894
f 327/418/895 329/420/897 339/422/898 337/427/896
s 70
f 332/414/899 334/424/900 343/433/901 341/429/902
f 334/424/900 336/426/903 345/435/904 343/433/901
f 336/426/903 338/428/905 347/437/906 345/435/904
f 338/428/905 340/449/907 350/439/908 347/437/906
s 71
f 342/430/909 344/434/910 353/443/911 351/431/912
f 344/434/910 346/436/913 355/445/914 353/443/911
f 346/436/913 348/438/915 357/447/916 355/445/914
f 348/438/915 349/440/917 359/442/918 357/447/916
s 72
f 352/432/919 354/444/920 324/450/921 322/451/922
f 354/444/920 356/446/923 326/452/924 324/450/921
f 356/446/923 358/448/925 328/453/926 326/452/924
f 358/448/925 360/441/927 330/454/928 328/453/926
s off
f 330/419/929 360/455/930 350/456/931 340/421/932
f 352/457/933 322/410/934 332/458/935 341/459/936
f 361/460/937 362/461/938 372/462/939 371/463/940
f 362/461/941 363/464/942 373/465/943 372/462/944
f 363/464/945 364/466/946 374/467/947 373/465/948
f 364/466/949 365/468/950 375/469/951 374/467/952
f 365/468/953 366/470/954 376/471/955 375/469/956
f 366/470/957 367/472/958 377/473/959 376/471/960
f 367/472/961 368/474/962 378/475/963 377/473/964
f 368/474/965 369/476/966 379/477/967 378/475/968
f 369/476/969 370/478/970 380/479/971 379/477/972
f 370/478/973 361/480/974 371/481/975 380/479/976
f 371/463/977 372/462/978 382/482/979 381/483/980
f 372/462/981 373/465/982 383/484/983 382/482/984
f 373/465/985 374/467/986 384/485/987 383/484/988
f 374/467/989 375/469/990 385/486/991 384/485/992
f 375/469/993 376/471/994 386/487/995 385/486/996
f 376/471/997 377/473/998 387/488/999 386/487/1000
f 377/473/1001 378/475/1002 388/489/1003 387/488/1004
f 378/475/1005 379/477/1006 389/490/1007 388/489/1008
f 379/477/1009 380/479/1010 390/491/1011 389/490/1012
f 380/479/1013 371/481/1014 381/492/1015 390/491/1016
f 381/483/1017 382/482/1018 392/493/1019 391/494/1020
f 382/482/1021 383/484/1022 393/495/1023 392/493/1024
f 383/484/1025 384/485/1026 394/496/1027 393/495/1028
f 384/485/1029 385/486/1030 395/497/1031 394/496/1032
f 385/486/1033 386/487/1034 396/498/1035 395/497/1036
f 386/487/1037 387/488/1038 397/499/1039 396/498/1040
f 387/488/1041 388/489/1042 398/500/1043 397/499/1044
f 388/489/1045 389/490/1046 399/501/1047 398/500/1048
f 389/490/1049 390/491/1050 400/502/1051 399/501/1052
f 390/491/1053 381/492/1054 391/503/1055 400/502/1056
f 362/461/1057 361/460/1058 401/504/1059
f 363/464/1060 362/461/1061 401/505/1062
f 364/466/1063 363/464/1064 401/506/1065
f 365/468/1066 364/466/1067 401/507/1068
f 366/470/1069 365/468/1070 401/508/1071
f 367/472/1072 366/470/1073 401/509/1074
f 368/474/1075 367/472/1076 401/510/1077
f 369/476/1078 368/474/1079 401/511/1080
f 370/478/1081 369/476/1082 401/512/1083
f 361/480/1084 370/478/1085 401/513/1086
f 391/494/1087 392/493/1088 402/514/1089
f 392/493/1090 393/495/1091 402/515/1092
f 393/495/1093 394/496/1094 402/516/1095
f 394/496/1096 395/497/1097 402/517/1098
f 395/497/1099 396/498/1100 402/518/1101
f 396/498/1102 397/499/1103 402/519/1104
f 397/499/1105 398/500/1106 402/520/1107
f 398/500/1108 399/501/1109 402/521/1110
f 399/501/1111 400/502/1112 402/522/1113
f 400/502/1114 391/503/1115 402/523/1116
f 403/524/1117 404/525/1118 414/526/1119 413/527/1120
f 404/525/1121 405/528/1122 415/529/1123 414/526/1124
f 405/528/1125 406/530/1126 416/531/1127 415/529/1128
f 406/530/1129 407/532/1130 417/533/1131 416/531/1132
f 407/532/1133 408/534/1134 418/535/1135 417/533/1136
f 408/534/1137 409/536/1138 419/537/1139 418/535/1140
f 409/536/1141 410/538/1142 420/539/1143 419/537/1144
f 410/538/1145 411/540/1146 421/541/1147 420/539/1148
f 411/540/1149 412/542/1150 422/543/1151 421/541/1152
f 412/542/1153 403/544/1154 413/545/1155 422/543/1156
f 413/546/1157 414/547/1158 424/548/1159 423/549/1160
f 414/547/1161 415/550/1162 425/551/1163 424/548/1164
f 415/550/1165 416/552/1166 426/553/1167 425/551/1168
f 416/552/1169 417/554/1170 427/555/1171 426/553/1172
f 417/554/1173 418/556/1174 428/557/1175 427/555/1176
f 418/556/1177 419/558/1178 429/559/1179 428/557/1180
f 419/558/1181 420/560/1182 430/561/1183 429/559/1184
f 420/560/1185 421/562/1186 431/563/1187 430/561/1188
f 421/562/1189 422/564/1190 432/565/1191 431/563/1192
f 422/564/1193 413/546/1194 423/549/1195 432/565/1196
f 423/549/1197 424/548/1198 434/566/1199 433/567/1200
f 424/548/1201 425/551/1202 435/568/1203 434/566/1204
f 425/551/1205 426/553/1206 436/569/1207 435/568/1208
f 426/553/1209 427/555/1210 437/570/1211 436/569/1212
f 427/555/1213 428/557/1214 438/571/1215 437/570/1216
f 428/557/1217 429/559/1218 439/572/1219 438/571/1220
f 429/559/1221 430/561/1222 440/573/1223 439/572/1224
f 430/561/1225 431/563/1226 441/574/1227 440/573/1228
f 431/563/1229 432/565/1230 442/575/1231 441/574/1232
f 432/565/1233 423/549/1234 433/567/1235 442/575/1236
f 433/567/1237 434/566/1238 444/576/1239 443/577/1240
f 434/566/1241 435/568/1242 445/578/1243 444/576/1244
f 435/568/1245 436/569/1246 446/579/1247 445/578/1248
f 436/569/1249 437/570/1250 447/580/1251 446/579/1252
f 437/570/1253 438/571/1254 448/581/1255 447/580/1256
f 438/571/1257 439/572/1258 449/582/1259 448/581/1260
f 439/572/1261 440/573/1262 450/583/1263 449/582/1264
f 440/573/1265 441/574/1266 451/584/1267 450/583/1268
f 441/574/1269 442/575/1270 452/585/1271 451/584/1272
f 442/575/1273 433/567/1274 443/577/1275 452/585/1276
