# This file uses centimeters as units for non-parametric coordinates.

mtllib Flower_Stage1.mtl
g default
v -0.343772 0.000394 -0.287517
v -0.171886 0.000394 -0.384961
v 0.000000 0.000394 -0.384961
v 0.171886 0.000394 -0.384961
v 0.343772 0.000394 -0.287517
v -0.500000 0.279483 -0.621004
v -0.250000 0.279483 -0.670903
v 0.000000 0.279483 -0.755297
v 0.250000 0.279483 -0.670903
v 0.500000 0.279483 -0.621004
v -0.500000 0.710694 -0.746247
v -0.250000 0.710694 -0.746247
v 0.000000 0.710694 -0.856306
v 0.250000 0.710694 -0.746247
v 0.500000 0.710694 -0.746247
v -0.277055 0.995434 -0.993712
v -0.138527 1.111553 -1.075887
v 0.000000 1.179974 -1.134105
v 0.138527 1.111553 -1.075887
v 0.277055 0.995434 -0.993712
v -0.277055 0.976581 -1.022581
v -0.138527 1.092700 -1.104756
v 0.000000 1.161121 -1.162974
v 0.138527 1.092700 -1.104756
v 0.277055 0.976581 -1.022581
v -0.500000 0.691840 -0.775116
v -0.250000 0.691840 -0.775116
v 0.000000 0.691840 -0.885175
v 0.250000 0.691840 -0.775116
v 0.500000 0.691840 -0.775116
v -0.500000 0.260630 -0.649873
v -0.250000 0.260630 -0.699772
v 0.000000 0.260630 -0.784166
v 0.250000 0.260630 -0.699772
v 0.500000 0.260630 -0.649873
v -0.343772 -0.018459 -0.316386
v -0.171886 -0.018459 -0.413830
v 0.000000 -0.018459 -0.413830
v 0.171886 -0.018459 -0.413830
v 0.343772 -0.018459 -0.316386
v -0.117087 0.000394 0.343772
v -0.214531 0.000394 0.171886
v -0.214531 0.000394 0.000000
v -0.214531 0.000394 -0.171886
v -0.117087 0.000394 -0.343772
v -0.450574 0.279483 0.500000
v -0.500473 0.279483 0.250000
v -0.584867 0.279483 0.000000
v -0.500473 0.279483 -0.250000
v -0.450574 0.279483 -0.500000
v -0.575817 0.710694 0.500000
v -0.575817 0.710694 0.250000
v -0.685876 0.710694 0.000000
v -0.575817 0.710694 -0.250000
v -0.575817 0.710694 -0.500000
v -0.823282 0.995434 0.277055
v -0.905457 1.111553 0.138527
v -0.963675 1.179974 0.000000
v -0.905457 1.111553 -0.138527
v -0.823282 0.995434 -0.277055
v -0.852151 0.976581 0.277055
v -0.934326 1.092700 0.138527
v -0.992544 1.161121 0.000000
v -0.934326 1.092700 -0.138527
v -0.852151 0.976581 -0.277055
v -0.604686 0.691840 0.500000
v -0.604686 0.691840 0.250000
v -0.714744 0.691840 0.000000
v -0.604686 0.691840 -0.250000
v -0.604686 0.691840 -0.500000
v -0.479443 0.260630 0.500000
v -0.529342 0.260630 0.250000
v -0.613736 0.260630 0.000000
v -0.529342 0.260630 -0.250000
v -0.479443 0.260630 -0.500000
v -0.145956 -0.018459 0.343772
v -0.243400 -0.018459 0.171886
v -0.243400 -0.018459 0.000000
v -0.243400 -0.018459 -0.171886
v -0.145956 -0.018459 -0.343772
v 0.343772 0.000394 0.287517
v 0.171886 0.000394 0.384961
v 0.000000 0.000394 0.384961
v -0.171886 0.000394 0.384961
v -0.343772 0.000394 0.287517
v 0.500000 0.279483 0.621004
v 0.250000 0.279483 0.670903
v 0.000000 0.279483 0.755297
v -0.250000 0.279483 0.670903
v -0.500000 0.279483 0.621004
v 0.500000 0.710694 0.746247
v 0.250000 0.710694 0.746247
v 0.000000 0.710694 0.856306
v -0.250000 0.710694 0.746247
v -0.500000 0.710694 0.746247
v 0.277055 0.995434 0.993712
v 0.138527 1.111553 1.075887
v 0.000000 1.179974 1.134105
v -0.138527 1.111553 1.075887
v -0.277055 0.995434 0.993712
v 0.277055 0.976581 1.022581
v 0.138527 1.092700 1.104756
v 0.000000 1.161121 1.162974
v -0.138527 1.092700 1.104756
v -0.277055 0.976581 1.022581
v 0.500000 0.691840 0.775116
v 0.250000 0.691840 0.775116
v 0.000000 0.691840 0.885175
v -0.250000 0.691840 0.775116
v -0.500000 0.691840 0.775116
v 0.500000 0.260630 0.649873
v 0.250000 0.260630 0.699772
v 0.000000 0.260630 0.784166
v -0.250000 0.260630 0.699772
v -0.500000 0.260630 0.649873
v 0.343772 -0.018459 0.316386
v 0.171886 -0.018459 0.413830
v 0.000000 -0.018459 0.413830
v -0.171886 -0.018459 0.413830
v -0.343772 -0.018459 0.316386
v 0.146585 0.000394 -0.343772
v 0.244029 0.000394 -0.171886
v 0.244029 0.000394 0.000000
v 0.244029 0.000394 0.171886
v 0.146585 0.000394 0.343772
v 0.480072 0.279483 -0.500000
v 0.529971 0.279483 -0.250000
v 0.614365 0.279483 0.000000
v 0.529971 0.279483 0.250000
v 0.480072 0.279483 0.500000
v 0.605315 0.710694 -0.500000
v 0.605315 0.710694 -0.250000
v 0.715373 0.710694 0.000000
v 0.605315 0.710694 0.250000
v 0.605315 0.710694 0.500000
v 0.852779 0.995434 -0.277055
v 0.934955 1.111553 -0.138527
v 0.993173 1.179974 0.000000
v 0.934955 1.111553 0.138527
v 0.852779 0.995434 0.277055
v 0.881648 0.976581 -0.277055
v 0.963823 1.092700 -0.138527
v 1.022042 1.161121 0.000000
v 0.963823 1.092700 0.138527
v 0.881648 0.976581 0.277055
v 0.634183 0.691840 -0.500000
v 0.634183 0.691840 -0.250000
v 0.744242 0.691840 0.000000
v 0.634183 0.691840 0.250000
v 0.634183 0.691840 0.500000
v 0.508940 0.260630 -0.500000
v 0.558839 0.260630 -0.250000
v 0.643233 0.260630 0.000000
v 0.558839 0.260630 0.250000
v 0.508940 0.260630 0.500000
v 0.175453 -0.018459 -0.343772
v 0.272897 -0.018459 -0.171886
v 0.272897 -0.018459 0.000000
v 0.272897 -0.018459 0.171886
v 0.175453 -0.018459 0.343772
vt 0.444423 0.610503
vt 0.446194 0.610503
vt 0.447965 0.610503
vt 0.449736 0.610503
vt 0.451508 0.610503
vt 0.444423 0.612864
vt 0.446194 0.612864
vt 0.447965 0.612864
vt 0.449736 0.612864
vt 0.451508 0.612864
vt 0.444423 0.615226
vt 0.446194 0.615226
vt 0.447965 0.615226
vt 0.449736 0.615226
vt 0.451508 0.615226
vt 0.444423 0.617588
vt 0.446194 0.617588
vt 0.447965 0.617588
vt 0.449736 0.617588
vt 0.451508 0.617588
vt 0.444423 0.624672
vt 0.446194 0.624672
vt 0.447965 0.624672
vt 0.449736 0.624672
vt 0.451508 0.624672
vt 0.444423 0.627034
vt 0.446194 0.627034
vt 0.447965 0.627034
vt 0.449736 0.627034
vt 0.451508 0.627034
vt 0.444423 0.629396
vt 0.446194 0.629396
vt 0.447965 0.629396
vt 0.449736 0.629396
vt 0.451508 0.629396
vt 0.444423 0.631757
vt 0.446194 0.631757
vt 0.447965 0.631757
vt 0.449736 0.631757
vt 0.451508 0.631757
vt 0.444423 0.638842
vt 0.446194 0.638842
vt 0.447965 0.638842
vt 0.449736 0.638842
vt 0.451508 0.638842
vt 0.458592 0.610503
vt 0.458592 0.612864
vt 0.458592 0.615226
vt 0.458592 0.617588
vt 0.437338 0.610503
vt 0.437338 0.612864
vt 0.437338 0.615226
vt 0.437338 0.617588
vt 0.444423 0.610503
vt 0.446194 0.610503
vt 0.446194 0.612864
vt 0.444423 0.612864
vt 0.447965 0.610503
vt 0.447965 0.612864
vt 0.449736 0.610503
vt 0.449736 0.612864
vt 0.451508 0.610503
vt 0.451508 0.612864
vt 0.446194 0.615226
vt 0.444423 0.615226
vt 0.447965 0.615226
vt 0.449736 0.615226
vt 0.451508 0.615226
vt 0.446194 0.617588
vt 0.444423 0.617588
vt 0.447965 0.617588
vt 0.449736 0.617588
vt 0.451508 0.617588
vt 0.446194 0.624672
vt 0.444423 0.624672
vt 0.447965 0.624672
vt 0.449736 0.624672
vt 0.451508 0.624672
vt 0.446194 0.627034
vt 0.444423 0.627034
vt 0.447965 0.627034
vt 0.449736 0.627034
vt 0.451508 0.627034
vt 0.446194 0.629396
vt 0.444423 0.629396
vt 0.447965 0.629396
vt 0.449736 0.629396
vt 0.451508 0.629396
vt 0.446194 0.631757
vt 0.444423 0.631757
vt 0.447965 0.631757
vt 0.449736 0.631757
vt 0.451508 0.631757
vt 0.446194 0.638842
vt 0.444423 0.638842
vt 0.447965 0.638842
vt 0.449736 0.638842
vt 0.451508 0.638842
vt 0.458592 0.610503
vt 0.458592 0.612864
vt 0.458592 0.615226
vt 0.458592 0.617588
vt 0.437338 0.610503
vt 0.437338 0.612864
vt 0.437338 0.615226
vt 0.437338 0.617588
vt 0.444423 0.610503
vt 0.446194 0.610503
vt 0.446194 0.612864
vt 0.444423 0.612864
vt 0.447965 0.610503
vt 0.447965 0.612864
vt 0.449736 0.610503
vt 0.449736 0.612864
vt 0.451508 0.610503
vt 0.451508 0.612864
vt 0.446194 0.615226
vt 0.444423 0.615226
vt 0.447965 0.615226
vt 0.449736 0.615226
vt 0.451508 0.615226
vt 0.446194 0.617588
vt 0.444423 0.617588
vt 0.447965 0.617588
vt 0.449736 0.617588
vt 0.451508 0.617588
vt 0.446194 0.624672
vt 0.444423 0.624672
vt 0.447965 0.624672
vt 0.449736 0.624672
vt 0.451508 0.624672
vt 0.446194 0.627034
vt 0.444423 0.627034
vt 0.447965 0.627034
vt 0.449736 0.627034
vt 0.451508 0.627034
vt 0.446194 0.629396
vt 0.444423 0.629396
vt 0.447965 0.629396
vt 0.449736 0.629396
vt 0.451508 0.629396
vt 0.446194 0.631757
vt 0.444423 0.631757
vt 0.447965 0.631757
vt 0.449736 0.631757
vt 0.451508 0.631757
vt 0.446194 0.638842
vt 0.444423 0.638842
vt 0.447965 0.638842
vt 0.449736 0.638842
vt 0.451508 0.638842
vt 0.458592 0.610503
vt 0.458592 0.612864
vt 0.458592 0.615226
vt 0.458592 0.617588
vt 0.437338 0.610503
vt 0.437338 0.612864
vt 0.437338 0.615226
vt 0.437338 0.617588
vt 0.444423 0.610503
vt 0.446194 0.610503
vt 0.446194 0.612864
vt 0.444423 0.612864
vt 0.447965 0.610503
vt 0.447965 0.612864
vt 0.449736 0.610503
vt 0.449736 0.612864
vt 0.451508 0.610503
vt 0.451508 0.612864
vt 0.446194 0.615226
vt 0.444423 0.615226
vt 0.447965 0.615226
vt 0.449736 0.615226
vt 0.451508 0.615226
vt 0.446194 0.617588
vt 0.444423 0.617588
vt 0.447965 0.617588
vt 0.449736 0.617588
vt 0.451508 0.617588
vt 0.446194 0.624672
vt 0.444423 0.624672
vt 0.447965 0.624672
vt 0.449736 0.624672
vt 0.451508 0.624672
vt 0.446194 0.627034
vt 0.444423 0.627034
vt 0.447965 0.627034
vt 0.449736 0.627034
vt 0.451508 0.627034
vt 0.446194 0.629396
vt 0.444423 0.629396
vt 0.447965 0.629396
vt 0.449736 0.629396
vt 0.451508 0.629396
vt 0.446194 0.631757
vt 0.444423 0.631757
vt 0.447965 0.631757
vt 0.449736 0.631757
vt 0.451508 0.631757
vt 0.446194 0.638842
vt 0.444423 0.638842
vt 0.447965 0.638842
vt 0.449736 0.638842
vt 0.451508 0.638842
vt 0.458592 0.610503
vt 0.458592 0.612864
vt 0.458592 0.615226
vt 0.458592 0.617588
vt 0.437338 0.610503
vt 0.437338 0.612864
vt 0.437338 0.615226
vt 0.437338 0.617588
vn 0.212530 0.764537 0.608534
vn 0.170552 0.764542 0.621601
vn 0.213186 0.493022 0.843493
vn 0.156518 0.490648 0.857185
vn 0.000000 0.769201 0.639007
vn 0.000000 0.452841 0.891591
vn -0.170552 0.764542 0.621601
vn -0.213186 0.493022 0.843493
vn -0.212530 0.764538 0.608534
vn -0.156518 0.490648 0.857186
vn 0.185231 0.376324 0.907783
vn 0.057453 0.367482 0.928254
vn 0.000000 0.388537 0.921433
vn -0.185231 0.376324 0.907783
vn -0.057453 0.367482 0.928254
vn 0.214047 0.552984 0.805228
vn -0.035462 0.653640 0.755974
vn 0.000000 0.549351 0.835592
vn -0.214047 0.552984 0.805228
vn 0.035462 0.653640 0.755974
vn -0.716189 0.584335 -0.381610
vn -0.643489 0.640892 -0.418545
vn -0.638227 0.644570 -0.420947
vn -0.716189 0.584335 -0.381610
vn -0.000001 0.837269 -0.546791
vn -0.000001 0.837269 -0.546791
vn 0.643489 0.640892 -0.418544
vn 0.638227 0.644570 -0.420946
vn 0.716189 0.584335 -0.381609
vn 0.716189 0.584335 -0.381609
vn 0.035461 -0.653640 -0.755975
vn -0.214047 -0.552985 -0.805228
vn -0.185231 -0.376324 -0.907783
vn -0.057454 -0.367482 -0.928254
vn 0.000000 -0.549351 -0.835592
vn 0.000000 -0.388537 -0.921433
vn 0.214047 -0.552984 -0.805228
vn 0.185231 -0.376324 -0.907783
vn -0.035462 -0.653640 -0.755975
vn 0.057453 -0.367482 -0.928254
vn -0.213186 -0.493022 -0.843493
vn -0.156518 -0.490648 -0.857185
vn 0.000000 -0.452841 -0.891591
vn 0.213186 -0.493022 -0.843493
vn 0.156518 -0.490648 -0.857185
vn -0.170552 -0.764542 -0.621601
vn -0.212529 -0.764538 -0.608534
vn 0.000000 -0.769201 -0.639007
vn 0.170552 -0.764542 -0.621601
vn 0.212529 -0.764537 -0.608534
vn 0.296084 -0.799726 0.522276
vn 0.129598 -0.830207 0.542182
vn 0.170932 -0.824946 0.538746
vn 0.296084 -0.799726 0.522276
vn 0.000000 -0.837268 0.546793
vn 0.000000 -0.837268 0.546793
vn -0.129598 -0.830207 0.542182
vn -0.170932 -0.824946 0.538746
vn -0.296084 -0.799726 0.522276
vn -0.296084 -0.799726 0.522276
vn 0.936166 -0.294347 0.192229
vn 0.936166 -0.294347 0.192229
vn 0.983120 -0.153189 0.100043
vn 0.983518 -0.151388 0.098867
vn 0.967173 0.212765 -0.138950
vn 0.958608 0.238395 -0.155688
vn 0.858792 0.428953 -0.280135
vn 0.858792 0.428953 -0.280135
vn -0.936166 -0.294347 0.192229
vn -0.936166 -0.294347 0.192229
vn -0.983518 -0.151388 0.098867
vn -0.983120 -0.153189 0.100043
vn -0.958608 0.238394 -0.155688
vn -0.967173 0.212765 -0.138950
vn -0.858792 0.428952 -0.280135
vn -0.858792 0.428952 -0.280135
vn 0.608534 0.764538 -0.212530
vn 0.621601 0.764542 -0.170552
vn 0.843493 0.493022 -0.213186
vn 0.857185 0.490648 -0.156518
vn 0.639007 0.769201 0.000000
vn 0.891591 0.452841 0.000000
vn 0.621601 0.764542 0.170552
vn 0.843493 0.493022 0.213186
vn 0.608534 0.764538 0.212530
vn 0.857185 0.490648 0.156518
vn 0.907783 0.376324 -0.185231
vn 0.928254 0.367482 -0.057453
vn 0.921433 0.388537 0.000000
vn 0.907783 0.376324 0.185231
vn 0.928254 0.367482 0.057453
vn 0.805228 0.552984 -0.214047
vn 0.755975 0.653640 0.035462
vn 0.835592 0.549351 0.000000
vn 0.805228 0.552984 0.214047
vn 0.755975 0.653640 -0.035462
vn -0.381610 0.584336 0.716188
vn -0.418545 0.640892 0.643488
vn -0.420947 0.644570 0.638227
vn -0.381609 0.584336 0.716188
vn -0.546793 0.837268 0.000000
vn -0.546793 0.837268 0.000000
vn -0.418546 0.640891 -0.643489
vn -0.420948 0.644569 -0.638227
vn -0.381610 0.584334 -0.716189
vn -0.381610 0.584334 -0.716189
vn -0.755975 -0.653640 -0.035462
vn -0.805228 -0.552985 0.214047
vn -0.907783 -0.376324 0.185231
vn -0.928254 -0.367482 0.057453
vn -0.835591 -0.549351 0.000000
vn -0.921433 -0.388537 0.000000
vn -0.805228 -0.552984 -0.214047
vn -0.907783 -0.376324 -0.185231
vn -0.755975 -0.653640 0.035462
vn -0.928254 -0.367482 -0.057453
vn -0.843493 -0.493022 0.213186
vn -0.857185 -0.490648 0.156518
vn -0.891591 -0.452841 0.000000
vn -0.843493 -0.493022 -0.213186
vn -0.857185 -0.490648 -0.156518
vn -0.621601 -0.764542 0.170552
vn -0.608534 -0.764538 0.212529
vn -0.639007 -0.769201 0.000000
vn -0.621601 -0.764542 -0.170552
vn -0.608534 -0.764538 -0.212530
vn 0.522276 -0.799726 -0.296084
vn 0.542182 -0.830207 -0.129598
vn 0.538746 -0.824946 -0.170932
vn 0.522276 -0.799726 -0.296084
vn 0.546793 -0.837268 0.000000
vn 0.546793 -0.837268 0.000000
vn 0.542182 -0.830207 0.129598
vn 0.538746 -0.824946 0.170932
vn 0.522276 -0.799726 0.296084
vn 0.522276 -0.799726 0.296084
vn 0.192230 -0.294348 -0.936166
vn 0.192230 -0.294348 -0.936166
vn 0.100043 -0.153189 -0.983120
vn 0.098867 -0.151388 -0.983518
vn -0.138950 0.212765 -0.967173
vn -0.155688 0.238394 -0.958608
vn -0.280136 0.428952 -0.858792
vn -0.280136 0.428952 -0.858792
vn 0.192230 -0.294348 0.936166
vn 0.192230 -0.294348 0.936166
vn 0.098867 -0.151388 0.983518
vn 0.100043 -0.153189 0.983120
vn -0.155688 0.238394 0.958608
vn -0.138950 0.212765 0.967173
vn -0.280136 0.428952 0.858792
vn -0.280136 0.428952 0.858792
vn -0.212530 0.764537 -0.608534
vn -0.170552 0.764542 -0.621601
vn -0.213186 0.493022 -0.843493
vn -0.156518 0.490648 -0.857185
vn 0.000000 0.769201 -0.639007
vn 0.000000 0.452841 -0.891591
vn 0.170552 0.764542 -0.621601
vn 0.213186 0.493022 -0.843493
vn 0.212530 0.764538 -0.608534
vn 0.156518 0.490648 -0.857186
vn -0.185231 0.376324 -0.907783
vn -0.057453 0.367482 -0.928254
vn 0.000000 0.388537 -0.921433
vn 0.185231 0.376324 -0.907783
vn 0.057453 0.367482 -0.928254
vn -0.214047 0.552984 -0.805228
vn 0.035462 0.653640 -0.755974
vn 0.000000 0.549351 -0.835592
vn 0.214047 0.552984 -0.805228
vn -0.035462 0.653640 -0.755974
vn 0.716189 0.584335 0.381610
vn 0.643489 0.640892 0.418545
vn 0.638227 0.644570 0.420947
vn 0.716189 0.584335 0.381610
vn 0.000001 0.837269 0.546791
vn 0.000001 0.837269 0.546791
vn -0.643489 0.640892 0.418544
vn -0.638227 0.644570 0.420946
vn -0.716189 0.584335 0.381609
vn -0.716189 0.584335 0.381609
vn -0.035461 -0.653640 0.755975
vn 0.214047 -0.552985 0.805228
vn 0.185231 -0.376324 0.907783
vn 0.057454 -0.367482 0.928254
vn -0.000000 -0.549351 0.835592
vn -0.000000 -0.388537 0.921433
vn -0.214047 -0.552984 0.805228
vn -0.185231 -0.376324 0.907783
vn 0.035462 -0.653640 0.755975
vn -0.057453 -0.367482 0.928254
vn 0.213186 -0.493022 0.843493
vn 0.156518 -0.490648 0.857185
vn 0.000000 -0.452841 0.891591
vn -0.213186 -0.493022 0.843493
vn -0.156518 -0.490648 0.857185
vn 0.170552 -0.764542 0.621601
vn 0.212529 -0.764538 0.608534
vn 0.000000 -0.769201 0.639007
vn -0.170552 -0.764542 0.621601
vn -0.212529 -0.764537 0.608534
vn -0.296084 -0.799726 -0.522276
vn -0.129598 -0.830207 -0.542182
vn -0.170932 -0.824946 -0.538746
vn -0.296084 -0.799726 -0.522276
vn 0.000000 -0.837268 -0.546793
vn 0.000000 -0.837268 -0.546793
vn 0.129598 -0.830207 -0.542182
vn 0.170932 -0.824946 -0.538746
vn 0.296084 -0.799726 -0.522276
vn 0.296084 -0.799726 -0.522276
vn -0.936166 -0.294347 -0.192229
vn -0.936166 -0.294347 -0.192229
vn -0.983120 -0.153189 -0.100043
vn -0.983518 -0.151388 -0.098867
vn -0.967173 0.212765 0.138950
vn -0.958608 0.238395 0.155688
vn -0.858792 0.428953 0.280135
vn -0.858792 0.428953 0.280135
vn 0.936166 -0.294347 -0.192229
vn 0.936166 -0.294347 -0.192229
vn 0.983518 -0.151388 -0.098867
vn 0.983120 -0.153189 -0.100043
vn 0.958608 0.238394 0.155688
vn 0.967173 0.212765 0.138950
vn 0.858792 0.428952 0.280135
vn 0.858792 0.428952 0.280135
vn -0.608534 0.764538 0.212530
vn -0.621601 0.764542 0.170552
vn -0.843493 0.493022 0.213186
vn -0.857185 0.490648 0.156518
vn -0.639007 0.769201 -0.000000
vn -0.891591 0.452841 0.000000
vn -0.621601 0.764542 -0.170552
vn -0.843493 0.493022 -0.213186
vn -0.608534 0.764538 -0.212530
vn -0.857185 0.490648 -0.156518
vn -0.907783 0.376324 0.185231
vn -0.928254 0.367482 0.057453
vn -0.921433 0.388537 0.000000
vn -0.907783 0.376324 -0.185231
vn -0.928254 0.367482 -0.057453
vn -0.805228 0.552985 0.214047
vn -0.755975 0.653640 -0.035462
vn -0.835591 0.549351 0.000000
vn -0.805228 0.552985 -0.214047
vn -0.755975 0.653640 0.035462
vn 0.381610 0.584335 -0.716189
vn 0.418545 0.640892 -0.643489
vn 0.420947 0.644570 -0.638227
vn 0.381610 0.584335 -0.716189
vn 0.546793 0.837268 -0.000000
vn 0.546793 0.837268 -0.000000
vn 0.418546 0.640890 0.643489
vn 0.420948 0.644568 0.638228
vn 0.381611 0.584334 0.716190
vn 0.381611 0.584334 0.716190
vn 0.755975 -0.653640 0.035462
vn 0.805228 -0.552985 -0.214047
vn 0.907783 -0.376324 -0.185231
vn 0.928254 -0.367482 -0.057453
vn 0.835591 -0.549351 -0.000000
vn 0.921433 -0.388537 0.000000
vn 0.805228 -0.552984 0.214047
vn 0.907783 -0.376324 0.185231
vn 0.755975 -0.653640 -0.035462
vn 0.928254 -0.367482 0.057453
vn 0.843493 -0.493022 -0.213186
vn 0.857185 -0.490648 -0.156518
vn 0.891591 -0.452841 0.000000
vn 0.843493 -0.493022 0.213186
vn 0.857186 -0.490648 0.156518
vn 0.621601 -0.764542 -0.170552
vn 0.608534 -0.764538 -0.212530
vn 0.639007 -0.769201 0.000000
vn 0.621601 -0.764542 0.170552
vn 0.608534 -0.764538 0.212530
vn -0.522276 -0.799726 0.296084
vn -0.542182 -0.830207 0.129598
vn -0.538746 -0.824946 0.170932
vn -0.522276 -0.799726 0.296084
vn -0.546793 -0.837268 0.000000
vn -0.546793 -0.837268 0.000000
vn -0.542182 -0.830207 -0.129598
vn -0.538746 -0.824946 -0.170932
vn -0.522276 -0.799726 -0.296084
vn -0.522276 -0.799726 -0.296084
vn -0.192230 -0.294347 0.936166
vn -0.192230 -0.294347 0.936166
vn -0.100043 -0.153189 0.983120
vn -0.098867 -0.151388 0.983518
vn 0.138950 0.212765 0.967173
vn 0.155688 0.238394 0.958608
vn 0.280136 0.428952 0.858792
vn 0.280136 0.428952 0.858792
vn -0.192230 -0.294347 -0.936166
vn -0.192230 -0.294347 -0.936166
vn -0.098867 -0.151388 -0.983518
vn -0.100043 -0.153189 -0.983120
vn 0.155688 0.238394 -0.958608
vn 0.138950 0.212765 -0.967173
vn 0.280136 0.428952 -0.858792
vn 0.280136 0.428952 -0.858792
s 1
g pCube5
usemtl lambert2SG
f 1/1/1 2/2/2 7/7/3 6/6/4
f 2/2/2 3/3/5 8/8/6 7/7/3
f 3/3/5 4/4/7 9/9/8 8/8/6
f 4/4/7 5/5/9 10/10/10 9/9/8
f 6/6/4 7/7/3 12/12/11 11/11/12
f 7/7/3 8/8/6 13/13/13 12/12/11
f 8/8/6 9/9/8 14/14/14 13/13/13
f 9/9/8 10/10/10 15/15/15 14/14/14
f 11/11/12 12/12/11 17/17/16 16/16/17
f 12/12/11 13/13/13 18/18/18 17/17/16
f 13/13/13 14/14/14 19/19/19 18/18/18
f 14/14/14 15/15/15 20/20/20 19/19/19
s 2
f 16/16/21 17/17/22 22/22/23 21/21/24
f 17/17/22 18/18/25 23/23/26 22/22/23
f 18/18/25 19/19/27 24/24/28 23/23/26
f 19/19/27 20/20/29 25/25/30 24/24/28
s 3
f 21/21/31 22/22/32 27/27/33 26/26/34
f 22/22/32 23/23/35 28/28/36 27/27/33
f 23/23/35 24/24/37 29/29/38 28/28/36
f 24/24/37 25/25/39 30/30/40 29/29/38
f 26/26/34 27/27/33 32/32/41 31/31/42
f 27/27/33 28/28/36 33/33/43 32/32/41
f 28/28/36 29/29/38 34/34/44 33/33/43
f 29/29/38 30/30/40 35/35/45 34/34/44
f 31/31/42 32/32/41 37/37/46 36/36/47
f 32/32/41 33/33/43 38/38/48 37/37/46
f 33/33/43 34/34/44 39/39/49 38/38/48
f 34/34/44 35/35/45 40/40/50 39/39/49
s 4
f 36/36/51 37/37/52 2/42/53 1/41/54
f 37/37/52 38/38/55 3/43/56 2/42/53
f 38/38/55 39/39/57 4/44/58 3/43/56
f 39/39/57 40/40/59 5/45/60 4/44/58
s 5
f 5/5/61 40/46/62 35/47/63 10/10/64
f 10/10/64 35/47/63 30/48/65 15/15/66
f 15/15/66 30/48/65 25/49/67 20/20/68
s 6
f 36/50/69 1/1/70 6/6/71 31/51/72
f 31/51/72 6/6/71 11/11/73 26/52/74
f 26/52/74 11/11/73 16/16/75 21/53/76
s 7
f 41/54/77 42/55/78 47/56/79 46/57/80
f 42/55/78 43/58/81 48/59/82 47/56/79
f 43/58/81 44/60/83 49/61/84 48/59/82
f 44/60/83 45/62/85 50/63/86 49/61/84
f 46/57/80 47/56/79 52/64/87 51/65/88
f 47/56/79 48/59/82 53/66/89 52/64/87
f 48/59/82 49/61/84 54/67/90 53/66/89
f 49/61/84 50/63/86 55/68/91 54/67/90
f 51/65/88 52/64/87 57/69/92 56/70/93
f 52/64/87 53/66/89 58/71/94 57/69/92
f 53/66/89 54/67/90 59/72/95 58/71/94
f 54/67/90 55/68/91 60/73/96 59/72/95
s 8
f 56/70/97 57/69/98 62/74/99 61/75/100
f 57/69/98 58/71/101 63/76/102 62/74/99
f 58/71/101 59/72/103 64/77/104 63/76/102
f 59/72/103 60/73/105 65/78/106 64/77/104
s 9
f 61/75/107 62/74/108 67/79/109 66/80/110
f 62/74/108 63/76/111 68/81/112 67/79/109
f 63/76/111 64/77/113 69/82/114 68/81/112
f 64/77/113 65/78/115 70/83/116 69/82/114
f 66/80/110 67/79/109 72/84/117 71/85/118
f 67/79/109 68/81/112 73/86/119 72/84/117
f 68/81/112 69/82/114 74/87/120 73/86/119
f 69/82/114 70/83/116 75/88/121 74/87/120
f 71/85/118 72/84/117 77/89/122 76/90/123
f 72/84/117 73/86/119 78/91/124 77/89/122
f 73/86/119 74/87/120 79/92/125 78/91/124
f 74/87/120 75/88/121 80/93/126 79/92/125
s 10
f 76/90/127 77/89/128 42/94/129 41/95/130
f 77/89/128 78/91/131 43/96/132 42/94/129
f 78/91/131 79/92/133 44/97/134 43/96/132
f 79/92/133 80/93/135 45/98/136 44/97/134
s 11
f 45/62/137 80/99/138 75/100/139 50/63/140
f 50/63/140 75/100/139 70/101/141 55/68/142
f 55/68/142 70/101/141 65/102/143 60/73/144
s 12
f 76/103/145 41/54/146 46/57/147 71/104/148
f 71/104/148 46/57/147 51/65/149 66/105/150
f 66/105/150 51/65/149 56/70/151 61/106/152
s 13
f 81/107/153 82/108/154 87/109/155 86/110/156
f 82/108/154 83/111/157 88/112/158 87/109/155
f 83/111/157 84/113/159 89/114/160 88/112/158
f 84/113/159 85/115/161 90/116/162 89/114/160
f 86/110/156 87/109/155 92/117/163 91/118/164
f 87/109/155 88/112/158 93/119/165 92/117/163
f 88/112/158 89/114/160 94/120/166 93/119/165
f 89/114/160 90/116/162 95/121/167 94/120/166
f 91/118/164 92/117/163 97/122/168 96/123/169
f 92/117/163 93/119/165 98/124/170 97/122/168
f 93/119/165 94/120/166 99/125/171 98/124/170
f 94/120/166 95/121/167 100/126/172 99/125/171
s 14
f 96/123/173 97/122/174 102/127/175 101/128/176
f 97/122/174 98/124/177 103/129/178 102/127/175
f 98/124/177 99/125/179 104/130/180 103/129/178
f 99/125/179 100/126/181 105/131/182 104/130/180
s 15
f 101/128/183 102/127/184 107/132/185 106/133/186
f 102/127/184 103/129/187 108/134/188 107/132/185
f 103/129/187 104/130/189 109/135/190 108/134/188
f 104/130/189 105/131/191 110/136/192 109/135/190
f 106/133/186 107/132/185 112/137/193 111/138/194
f 107/132/185 108/134/188 113/139/195 112/137/193
f 108/134/188 109/135/190 114/140/196 113/139/195
f 109/135/190 110/136/192 115/141/197 114/140/196
f 111/138/194 112/137/193 117/142/198 116/143/199
f 112/137/193 113/139/195 118/144/200 117/142/198
f 113/139/195 114/140/196 119/145/201 118/144/200
f 114/140/196 115/141/197 120/146/202 119/145/201
s 16
f 116/143/203 117/142/204 82/147/205 81/148/206
f 117/142/204 118/144/207 83/149/208 82/147/205
f 118/144/207 119/145/209 84/150/210 83/149/208
f 119/145/209 120/146/211 85/151/212 84/150/210
s 17
f 85/115/213 120/152/214 115/153/215 90/116/216
f 90/116/216 115/153/215 110/154/217 95/121/218
f 95/121/218 110/154/217 105/155/219 100/126/220
s 18
f 116/156/221 81/107/222 86/110/223 111/157/224
f 111/157/224 86/110/223 91/118/225 106/158/226
f 106/158/226 91/118/225 96/123/227 101/159/228
s 19
f 121/160/229 122/161/230 127/162/231 126/163/232
f 122/161/230 123/164/233 128/165/234 127/162/231
f 123/164/233 124/166/235 129/167/236 128/165/234
f 124/166/235 125/168/237 130/169/238 129/167/236
f 126/163/232 127/162/231 132/170/239 131/171/240
f 127/162/231 128/165/234 133/172/241 132/170/239
f 128/165/234 129/167/236 134/173/242 133/172/241
f 129/167/236 130/169/238 135/174/243 134/173/242
f 131/171/240 132/170/239 137/175/244 136/176/245
f 132/170/239 133/172/241 138/177/246 137/175/244
f 133/172/241 134/173/242 139/178/247 138/177/246
f 134/173/242 135/174/243 140/179/248 139/178/247
s 20
f 136/176/249 137/175/250 142/180/251 141/181/252
f 137/175/250 138/177/253 143/182/254 142/180/251
f 138/177/253 139/178/255 144/183/256 143/182/254
f 139/178/255 140/179/257 145/184/258 144/183/256
s 21
f 141/181/259 142/180/260 147/185/261 146/186/262
f 142/180/260 143/182/263 148/187/264 147/185/261
f 143/182/263 144/183/265 149/188/266 148/187/264
f 144/183/265 145/184/267 150/189/268 149/188/266
f 146/186/262 147/185/261 152/190/269 151/191/270
f 147/185/261 148/187/264 153/192/271 152/190/269
f 148/187/264 149/188/266 154/193/272 153/192/271
f 149/188/266 150/189/268 155/194/273 154/193/272
f 151/191/270 152/190/269 157/195/274 156/196/275
f 152/190/269 153/192/271 158/197/276 157/195/274
f 153/192/271 154/193/272 159/198/277 158/197/276
f 154/193/272 155/194/273 160/199/278 159/198/277
s 22
f 156/196/279 157/195/280 122/200/281 121/201/282
f 157/195/280 158/197/283 123/202/284 122/200/281
f 158/197/283 159/198/285 124/203/286 123/202/284
f 159/198/285 160/199/287 125/204/288 124/203/286
s 23
f 125/168/289 160/205/290 155/206/291 130/169/292
f 130/169/292 155/206/291 150/207/293 135/174/294
f 135/174/294 150/207/293 145/208/295 140/179/296
s 24
f 156/209/297 121/160/298 126/163/299 151/210/300
f 151/210/300 126/163/299 131/171/301 146/211/302
f 146/211/302 131/171/301 136/176/303 141/212/304
