# This file uses centimeters as units for non-parametric coordinates.

mtllib Flower_Stage2.mtl
g default
v 0.215165 0.030496 -0.156327
v 0.082186 0.030496 -0.252942
v -0.082186 0.030496 -0.252942
v -0.215165 0.030496 -0.156327
v -0.265959 0.030496 0.000000
v -0.215165 0.030496 0.156327
v -0.082186 0.030496 0.252942
v 0.082186 0.030496 0.252942
v 0.215165 0.030496 0.156327
v 0.265959 0.030496 0.000000
v 0.215165 3.893519 -0.156327
v 0.082186 3.893519 -0.252942
v -0.082186 3.893519 -0.252942
v -0.215165 3.893519 -0.156327
v -0.265959 3.893519 0.000000
v -0.215165 3.893519 0.156327
v -0.082186 3.893519 0.252942
v 0.082186 3.893519 0.252942
v 0.215165 3.893519 0.156327
v 0.265959 3.893519 0.000000
v -0.069757 3.882857 -0.097528
v -0.125594 3.882857 -0.048557
v -0.133286 3.882857 0.018961
v -0.089895 3.882857 0.079237
v -0.011994 3.882857 0.109246
v 0.070661 3.882857 0.097528
v 0.126498 3.882857 0.048557
v 0.134190 3.882857 -0.018961
v 0.090798 3.882857 -0.079237
v 0.012897 3.882857 -0.109246
v -0.133093 3.959447 -0.185509
v -0.239302 3.959447 -0.092360
v -0.253933 3.959447 0.036067
v -0.171397 3.959447 0.150717
v -0.023221 3.959447 0.207799
v 0.133997 3.959447 0.185509
v 0.240206 3.959447 0.092360
v 0.254836 3.959447 -0.036067
v 0.172301 3.959447 -0.150717
v 0.024125 3.959447 -0.207799
v -0.183357 4.078738 -0.255331
v -0.329541 4.078738 -0.127123
v -0.349679 4.078738 0.049641
v -0.236078 4.078738 0.207445
v -0.032131 4.078738 0.286011
v 0.184261 4.078738 0.255331
v 0.330445 4.078738 0.127123
v 0.350582 4.078738 -0.049641
v 0.236982 4.078738 -0.207444
v 0.033035 4.078738 -0.286011
v -0.215629 4.229054 -0.300159
v -0.387478 4.229054 -0.149442
v -0.411151 4.229054 0.058357
v -0.277606 4.229054 0.243866
v -0.037852 4.229054 0.336226
v 0.216532 4.229054 0.300159
v 0.388381 4.229054 0.149442
v 0.412055 4.229054 -0.058357
v 0.278509 4.229054 -0.243866
v 0.038756 4.229054 -0.336226
v -0.226749 4.395681 -0.315606
v -0.407442 4.395681 -0.157133
v -0.432333 4.395681 0.061360
v -0.291915 4.395681 0.256415
v -0.039823 4.395681 0.353529
v 0.227652 4.395681 0.315606
v 0.408345 4.395681 0.157133
v 0.433237 4.395681 -0.061360
v 0.292819 4.395681 -0.256415
v 0.040727 4.395681 -0.353529
v -0.215629 4.562308 -0.300159
v -0.387478 4.562308 -0.149442
v -0.411151 4.562308 0.058357
v -0.277606 4.562308 0.243866
v -0.037852 4.562308 0.336226
v 0.216532 4.562308 0.300159
v 0.388381 4.562308 0.149442
v 0.412055 4.562308 -0.058357
v 0.278509 4.562308 -0.243866
v 0.038756 4.562308 -0.336226
v -0.183357 4.712624 -0.255331
v -0.329541 4.712624 -0.127123
v -0.349679 4.712624 0.049641
v -0.236078 4.712624 0.207445
v -0.032131 4.712624 0.286011
v 0.184261 4.712624 0.255331
v 0.330445 4.712624 0.127123
v 0.350582 4.712624 -0.049641
v 0.236982 4.712624 -0.207444
v 0.033035 4.712624 -0.286011
v -0.133093 4.831915 -0.185509
v -0.239302 4.831915 -0.092360
v -0.253933 4.831915 0.036067
v -0.171397 4.831915 0.150717
v -0.023221 4.831915 0.207799
v 0.133997 4.831915 0.185509
v 0.240206 4.831915 0.092360
v 0.254836 4.831915 -0.036067
v 0.172301 4.831915 -0.150717
v 0.024125 4.831915 -0.207799
v -0.069757 4.908504 -0.097528
v -0.125594 4.908504 -0.048557
v -0.133286 4.908504 0.018961
v -0.089895 4.908504 0.079237
v -0.011994 4.908504 0.109246
v 0.070661 4.908504 0.097528
v 0.126498 4.908504 0.048557
v 0.134190 4.908504 -0.018961
v 0.090798 4.908504 -0.079237
v 0.012897 4.908504 -0.109246
v 0.000452 3.856466 0.000000
v 0.000452 4.934896 0.000000
v -0.269846 3.883169 0.240914
v -0.134923 3.866879 0.330239
v 0.000000 3.862950 0.336426
v 0.134923 3.862471 0.336779
v 0.269846 3.873675 0.235320
v -0.500000 4.815390 0.317029
v -0.250000 5.050928 0.499385
v 0.000000 5.234849 0.592942
v 0.250000 5.050928 0.499385
v 0.500000 4.815391 0.392760
v -0.500000 4.833320 0.218714
v -0.250000 5.068857 0.401068
v 0.000000 5.252779 0.494626
v 0.250000 5.068857 0.401068
v 0.500000 4.833320 0.294444
v -0.269846 3.892846 0.187853
v -0.134923 3.876556 0.277179
v 0.000000 3.872626 0.283365
v 0.134923 3.872147 0.283719
v 0.269846 3.883351 0.182260
v -0.378134 4.317272 0.346617
v -0.378134 4.330832 0.272263
v -0.189067 4.441652 0.459181
v 0.000000 4.528188 0.546737
v 0.189067 4.441652 0.428916
v 0.378134 4.330832 0.318528
v 0.378134 4.317272 0.392881
v 0.189067 4.428093 0.533534
v 0.000000 4.471272 0.620740
v -0.189067 4.428093 0.533534
v -0.456295 4.653112 0.118339
v -0.456295 4.636750 0.208062
v -0.228148 4.827560 0.466979
v 0.000000 4.880183 0.558092
v 0.228148 4.827560 0.532382
v 0.456295 4.636750 0.319404
v 0.456295 4.653112 0.237089
v 0.228148 4.843922 0.355093
v 0.000000 4.992918 0.404428
v -0.228148 4.843922 0.377256
v 0.269877 3.873676 -0.215761
v 0.134955 3.857377 -0.305087
v 0.000032 3.853438 -0.311274
v -0.134891 3.852950 -0.311627
v -0.269814 3.864145 -0.210168
v 0.499967 4.805913 -0.291878
v 0.249950 5.041433 -0.474233
v -0.000062 5.225338 -0.567790
v -0.250050 5.041399 -0.474233
v -0.500033 4.805844 -0.367608
v 0.499965 4.823843 -0.193561
v 0.249949 5.059362 -0.375916
v -0.000063 5.243267 -0.469473
v -0.250051 5.059328 -0.375916
v -0.500035 4.823773 -0.269292
v 0.269876 3.883352 -0.162701
v 0.134954 3.867054 -0.252027
v 0.000032 3.863115 -0.258213
v -0.134891 3.862626 -0.258566
v -0.269815 3.873821 -0.157108
v 0.378135 4.307786 -0.321464
v 0.378134 4.321346 -0.247111
v 0.189059 4.432154 -0.434029
v -0.000013 4.518676 -0.521585
v -0.189074 4.432127 -0.403764
v -0.378134 4.321294 -0.293376
v -0.378133 4.307734 -0.367729
v -0.189074 4.418569 -0.508382
v -0.000010 4.461761 -0.595588
v 0.189060 4.418594 -0.508382
v 0.456273 4.643632 -0.093188
v 0.456274 4.627270 -0.182910
v 0.228113 4.818064 -0.441827
v -0.000038 4.870672 -0.532940
v -0.228182 4.818033 -0.507230
v -0.456316 4.627207 -0.294252
v -0.456317 4.643569 -0.211937
v -0.228183 4.834394 -0.329941
v -0.000046 4.983406 -0.379276
v 0.228112 4.834426 -0.352104
v 0.128514 3.851971 0.383357
v 0.336420 3.861698 0.163603
v 0.342694 3.857910 0.028680
v 0.343058 3.857439 -0.106243
v 0.218725 3.866341 -0.300662
v 0.390324 4.867919 0.528680
v 0.537140 5.108226 0.278680
v 0.696824 5.288453 0.028680
v 0.502590 5.108106 -0.221320
v 0.416672 4.846459 -0.471320
v 0.291627 4.883615 0.528680
v 0.438442 5.123923 0.278680
v 0.598126 5.304149 0.028680
v 0.403893 5.123802 -0.221320
v 0.317975 4.862156 -0.471320
v 0.052601 3.860442 0.353891
v 0.283154 3.859796 0.163603
v 0.289428 3.856008 0.028680
v 0.289792 3.865911 -0.106243
v 0.165459 3.874812 -0.300662
v 0.316866 4.312346 0.519547
v 0.242225 4.324217 0.519547
v 0.596399 4.439245 0.217747
v 0.617810 4.480957 0.028680
v 0.566141 4.438560 -0.160387
v 0.265329 4.325266 -0.470153
v 0.339971 4.313395 -0.470153
v 0.671041 4.427374 -0.160387
v 0.682406 4.425734 0.028680
v 0.671041 4.427374 0.217747
v 0.268762 4.642927 0.589990
v 0.358832 4.628603 0.589991
v 0.648567 4.825231 0.256827
v 0.675996 4.765690 0.028680
v 0.713953 4.826713 -0.199468
v 0.427405 4.631125 -0.494085
v 0.344741 4.645617 -0.494085
v 0.536338 4.839053 -0.199468
v 0.508220 4.874913 0.028680
v 0.558496 4.839555 0.256827
v -0.158925 3.841850 -0.362416
v -0.349615 3.856277 -0.127809
v -0.345766 3.854062 0.007240
v -0.335991 3.855100 0.141805
v -0.197312 3.864825 0.326224
v -0.462588 4.858886 -0.499795
v -0.587797 5.103541 -0.242368
v -0.726435 5.288261 0.016743
v -0.515761 5.108624 0.253595
v -0.413899 4.848870 0.499547
v -0.364019 4.873513 -0.507390
v -0.489228 5.118168 -0.249963
v -0.627865 5.302889 0.009148
v -0.417191 5.123252 0.246000
v -0.315329 4.863497 0.491951
v -0.080931 3.849828 -0.338834
v -0.296521 3.853798 -0.131784
v -0.292672 3.851584 0.003265
v -0.282794 3.862994 0.137706
v -0.144115 3.872719 0.322125
v -0.394181 4.302688 -0.489570
v -0.319636 4.313750 -0.495315
v -0.648959 4.435962 -0.169178
v -0.655681 4.480009 0.020452
v -0.590369 4.439167 0.205600
v -0.268263 4.326089 0.493245
v -0.342808 4.315027 0.498989
v -0.695078 4.429118 0.213606
v -0.720640 4.425490 0.025959
v -0.723504 4.424900 -0.163434
v -0.348222 4.631923 -0.567367
v -0.438176 4.618574 -0.560436
v -0.700075 4.822028 -0.208837
v -0.710867 4.765337 0.021420
v -0.730956 4.829308 0.251028
v -0.425032 4.633931 0.525621
v -0.342461 4.647528 0.519244
v -0.553731 4.839725 0.237550
v -0.542488 4.872733 0.007524
v -0.610122 4.835377 -0.215768
vt 0.535436 0.609794
vt 0.537435 0.609794
vt 0.539435 0.609794
vt 0.541434 0.609794
vt 0.543433 0.609794
vt 0.545433 0.609794
vt 0.547432 0.609794
vt 0.549432 0.609794
vt 0.551431 0.609794
vt 0.553430 0.609794
vt 0.555430 0.609794
vt 0.535436 0.639785
vt 0.537435 0.639785
vt 0.539435 0.639785
vt 0.541434 0.639785
vt 0.543433 0.639785
vt 0.545433 0.639785
vt 0.547432 0.639785
vt 0.549432 0.639785
vt 0.551431 0.639785
vt 0.553430 0.639785
vt 0.555430 0.639785
vt 0.339798 0.719257
vt 0.342692 0.719257
vt 0.342692 0.722151
vt 0.339798 0.722151
vt 0.345585 0.719257
vt 0.345585 0.722151
vt 0.348479 0.719257
vt 0.348479 0.722151
vt 0.351372 0.719257
vt 0.351372 0.722151
vt 0.354266 0.719257
vt 0.354266 0.722151
vt 0.357159 0.719257
vt 0.357159 0.722151
vt 0.360053 0.719257
vt 0.360053 0.722151
vt 0.362946 0.719257
vt 0.362946 0.722151
vt 0.365840 0.719257
vt 0.365840 0.722151
vt 0.368733 0.719257
vt 0.368733 0.722151
vt 0.342692 0.725044
vt 0.339798 0.725044
vt 0.345585 0.725044
vt 0.348479 0.725044
vt 0.351372 0.725044
vt 0.354266 0.725044
vt 0.357159 0.725044
vt 0.360053 0.725044
vt 0.362946 0.725044
vt 0.365840 0.725044
vt 0.368733 0.725044
vt 0.342692 0.727938
vt 0.339798 0.727938
vt 0.345585 0.727938
vt 0.348479 0.727938
vt 0.351372 0.727938
vt 0.354266 0.727938
vt 0.357159 0.727938
vt 0.360053 0.727938
vt 0.362946 0.727938
vt 0.365840 0.727938
vt 0.368733 0.727938
vt 0.342692 0.730831
vt 0.339798 0.730831
vt 0.345585 0.730831
vt 0.348479 0.730831
vt 0.351372 0.730831
vt 0.354266 0.730831
vt 0.357159 0.730831
vt 0.360053 0.730831
vt 0.362946 0.730831
vt 0.365840 0.730831
vt 0.368733 0.730831
vt 0.342692 0.733725
vt 0.339798 0.733725
vt 0.345585 0.733725
vt 0.348479 0.733725
vt 0.351372 0.733725
vt 0.354266 0.733725
vt 0.357159 0.733725
vt 0.360053 0.733725
vt 0.362946 0.733725
vt 0.365840 0.733725
vt 0.368733 0.733725
vt 0.342692 0.736618
vt 0.339798 0.736618
vt 0.345585 0.736618
vt 0.348479 0.736618
vt 0.351372 0.736618
vt 0.354266 0.736618
vt 0.357159 0.736618
vt 0.360053 0.736618
vt 0.362946 0.736618
vt 0.365840 0.736618
vt 0.368733 0.736618
vt 0.342692 0.739512
vt 0.339798 0.739512
vt 0.345585 0.739512
vt 0.348479 0.739512
vt 0.351372 0.739512
vt 0.354266 0.739512
vt 0.357159 0.739512
vt 0.360053 0.739512
vt 0.362946 0.739512
vt 0.365840 0.739512
vt 0.368733 0.739512
vt 0.342692 0.742405
vt 0.339798 0.742405
vt 0.345585 0.742405
vt 0.348479 0.742405
vt 0.351372 0.742405
vt 0.354266 0.742405
vt 0.357159 0.742405
vt 0.360053 0.742405
vt 0.362946 0.742405
vt 0.365840 0.742405
vt 0.368733 0.742405
vt 0.341245 0.716364
vt 0.344138 0.716364
vt 0.347032 0.716364
vt 0.349925 0.716364
vt 0.352819 0.716364
vt 0.355712 0.716364
vt 0.358606 0.716364
vt 0.361499 0.716364
vt 0.364393 0.716364
vt 0.367286 0.716364
vt 0.341245 0.745299
vt 0.344138 0.745299
vt 0.347032 0.745299
vt 0.349925 0.745299
vt 0.352819 0.745299
vt 0.355712 0.745299
vt 0.358606 0.745299
vt 0.361499 0.745299
vt 0.364393 0.745299
vt 0.367286 0.745299
vt 0.403465 0.647756
vt 0.405097 0.647756
vt 0.405097 0.650827
vt 0.403465 0.650827
vt 0.406729 0.647756
vt 0.406729 0.650827
vt 0.408360 0.647756
vt 0.408360 0.650827
vt 0.409992 0.647756
vt 0.409992 0.650827
vt 0.403465 0.654283
vt 0.405097 0.654283
vt 0.405097 0.660810
vt 0.403465 0.660810
vt 0.406729 0.654283
vt 0.406729 0.660810
vt 0.408360 0.654283
vt 0.408360 0.660810
vt 0.409992 0.654283
vt 0.409992 0.660810
vt 0.403465 0.664266
vt 0.405097 0.664266
vt 0.405097 0.667336
vt 0.403465 0.667336
vt 0.406729 0.664266
vt 0.406729 0.667336
vt 0.408360 0.664266
vt 0.408360 0.667336
vt 0.409992 0.664266
vt 0.409992 0.667336
vt 0.405097 0.673863
vt 0.403465 0.673863
vt 0.406729 0.673863
vt 0.408360 0.673863
vt 0.409992 0.673863
vt 0.416519 0.647756
vt 0.416519 0.650827
vt 0.396939 0.647756
vt 0.396939 0.650827
vt 0.396939 0.653044
vt 0.403465 0.653044
vt 0.396939 0.654283
vt 0.405097 0.662049
vt 0.403465 0.662049
vt 0.406729 0.662049
vt 0.408360 0.662049
vt 0.409992 0.662049
vt 0.409992 0.653044
vt 0.416519 0.653044
vt 0.416519 0.654283
vt 0.408360 0.653044
vt 0.406729 0.653044
vt 0.405097 0.653044
vt 0.403465 0.647756
vt 0.405097 0.647756
vt 0.405097 0.650827
vt 0.403465 0.650827
vt 0.406729 0.647756
vt 0.406729 0.650827
vt 0.408360 0.647756
vt 0.408360 0.650827
vt 0.409992 0.647756
vt 0.409992 0.650827
vt 0.403465 0.654283
vt 0.405097 0.654283
vt 0.405097 0.660810
vt 0.403465 0.660810
vt 0.406729 0.654283
vt 0.406729 0.660810
vt 0.408360 0.654283
vt 0.408360 0.660810
vt 0.409992 0.654283
vt 0.409992 0.660810
vt 0.403465 0.664266
vt 0.405097 0.664266
vt 0.405097 0.667336
vt 0.403465 0.667336
vt 0.406729 0.664266
vt 0.406729 0.667336
vt 0.408360 0.664266
vt 0.408360 0.667336
vt 0.409992 0.664266
vt 0.409992 0.667336
vt 0.405097 0.673863
vt 0.403465 0.673863
vt 0.406729 0.673863
vt 0.408360 0.673863
vt 0.409992 0.673863
vt 0.416519 0.647756
vt 0.416519 0.650827
vt 0.396939 0.647756
vt 0.396939 0.650827
vt 0.396939 0.653044
vt 0.403465 0.653044
vt 0.396939 0.654283
vt 0.405097 0.662049
vt 0.403465 0.662049
vt 0.406729 0.662049
vt 0.408360 0.662049
vt 0.409992 0.662049
vt 0.409992 0.653044
vt 0.416519 0.653044
vt 0.416519 0.654283
vt 0.408360 0.653044
vt 0.406729 0.653044
vt 0.405097 0.653044
vt 0.403465 0.647756
vt 0.405097 0.647756
vt 0.405097 0.650827
vt 0.403465 0.650827
vt 0.406729 0.647756
vt 0.406729 0.650827
vt 0.408360 0.647756
vt 0.408360 0.650827
vt 0.409992 0.647756
vt 0.409992 0.650827
vt 0.403465 0.654283
vt 0.405097 0.654283
vt 0.405097 0.660810
vt 0.403465 0.660810
vt 0.406729 0.654283
vt 0.406729 0.660810
vt 0.408360 0.654283
vt 0.408360 0.660810
vt 0.409992 0.654283
vt 0.409992 0.660810
vt 0.403465 0.664266
vt 0.405097 0.664266
vt 0.405097 0.667336
vt 0.403465 0.667336
vt 0.406729 0.664266
vt 0.406729 0.667336
vt 0.408360 0.664266
vt 0.408360 0.667336
vt 0.409992 0.664266
vt 0.409992 0.667336
vt 0.405097 0.673863
vt 0.403465 0.673863
vt 0.406729 0.673863
vt 0.408360 0.673863
vt 0.409992 0.673863
vt 0.416519 0.647756
vt 0.416519 0.650827
vt 0.396939 0.647756
vt 0.396939 0.650827
vt 0.396939 0.653044
vt 0.403465 0.653044
vt 0.396939 0.654283
vt 0.405097 0.662049
vt 0.403465 0.662049
vt 0.406729 0.662049
vt 0.408360 0.662049
vt 0.409992 0.662049
vt 0.409992 0.653044
vt 0.416519 0.653044
vt 0.416519 0.654283
vt 0.408360 0.653044
vt 0.406729 0.653044
vt 0.405097 0.653044
vt 0.403465 0.647756
vt 0.405097 0.647756
vt 0.405097 0.650827
vt 0.403465 0.650827
vt 0.406729 0.647756
vt 0.406729 0.650827
vt 0.408360 0.647756
vt 0.408360 0.650827
vt 0.409992 0.647756
vt 0.409992 0.650827
vt 0.403465 0.654283
vt 0.405097 0.654283
vt 0.405097 0.660810
vt 0.403465 0.660810
vt 0.406729 0.654283
vt 0.406729 0.660810
vt 0.408360 0.654283
vt 0.408360 0.660810
vt 0.409992 0.654283
vt 0.409992 0.660810
vt 0.403465 0.664266
vt 0.405097 0.664266
vt 0.405097 0.667336
vt 0.403465 0.667336
vt 0.406729 0.664266
vt 0.406729 0.667336
vt 0.408360 0.664266
vt 0.408360 0.667336
vt 0.409992 0.664266
vt 0.409992 0.667336
vt 0.405097 0.673863
vt 0.403465 0.673863
vt 0.406729 0.673863
vt 0.408360 0.673863
vt 0.409992 0.673863
vt 0.416519 0.647756
vt 0.416519 0.650827
vt 0.396939 0.647756
vt 0.396939 0.650827
vt 0.396939 0.653044
vt 0.403465 0.653044
vt 0.396939 0.654283
vt 0.405097 0.662049
vt 0.403465 0.662049
vt 0.406729 0.662049
vt 0.408360 0.662049
vt 0.409992 0.662049
vt 0.409992 0.653044
vt 0.416519 0.653044
vt 0.416519 0.654283
vt 0.408360 0.653044
vt 0.406729 0.653044
vt 0.405097 0.653044
vn 0.587785 0.000000 -0.809017
vn 0.587785 0.000000 -0.809017
vn 0.587785 0.000000 -0.809017
vn 0.587785 0.000000 -0.809017
vn 0.000000 0.000000 -1.000000
vn 0.000000 0.000000 -1.000000
vn 0.000000 0.000000 -1.000000
vn 0.000000 0.000000 -1.000000
vn -0.587785 0.000000 -0.809017
vn -0.587785 0.000000 -0.809017
vn -0.587785 0.000000 -0.809017
vn -0.587785 0.000000 -0.809017
vn -0.951057 0.000000 -0.309017
vn -0.951057 0.000000 -0.309017
vn -0.951057 0.000000 -0.309017
vn -0.951057 0.000000 -0.309017
vn -0.951056 0.000000 0.309017
vn -0.951056 0.000000 0.309017
vn -0.951056 0.000000 0.309017
vn -0.951056 0.000000 0.309017
vn -0.587785 0.000000 0.809017
vn -0.587785 0.000000 0.809017
vn -0.587785 0.000000 0.809017
vn -0.587785 0.000000 0.809017
vn 0.000000 0.000000 1.000000
vn 0.000000 0.000000 1.000000
vn 0.000000 0.000000 1.000000
vn 0.000000 0.000000 1.000000
vn 0.587785 0.000000 0.809017
vn 0.587785 0.000000 0.809017
vn 0.587785 0.000000 0.809017
vn 0.587785 0.000000 0.809017
vn 0.951057 0.000000 0.309017
vn 0.951057 0.000000 0.309017
vn 0.951057 0.000000 0.309017
vn 0.951057 0.000000 0.309017
vn 0.951057 0.000000 -0.309017
vn 0.951057 0.000000 -0.309017
vn 0.951057 0.000000 -0.309017
vn 0.951057 0.000000 -0.309017
vn -0.381642 -0.815472 -0.435150
vn -0.381642 -0.815472 -0.435150
vn -0.381642 -0.815472 -0.435150
vn -0.381642 -0.815472 -0.435150
vn -0.541148 -0.838665 -0.061650
vn -0.541148 -0.838665 -0.061650
vn -0.541148 -0.838665 -0.061650
vn -0.541148 -0.838665 -0.061650
vn -0.469739 -0.815471 0.338160
vn -0.469739 -0.815471 0.338160
vn -0.469739 -0.815471 0.338160
vn -0.469739 -0.815471 0.338160
vn -0.224188 -0.781706 0.581959
vn -0.224188 -0.781706 0.581959
vn -0.224188 -0.781706 0.581959
vn -0.224188 -0.781706 0.581959
vn 0.087545 -0.781705 0.617473
vn 0.087545 -0.781705 0.617473
vn 0.087545 -0.781705 0.617473
vn 0.087545 -0.781705 0.617473
vn 0.381642 -0.815472 0.435150
vn 0.381642 -0.815472 0.435150
vn 0.381642 -0.815472 0.435150
vn 0.381642 -0.815472 0.435150
vn 0.541148 -0.838665 0.061650
vn 0.541148 -0.838665 0.061650
vn 0.541148 -0.838665 0.061650
vn 0.541148 -0.838665 0.061650
vn 0.469739 -0.815471 -0.338160
vn 0.469739 -0.815471 -0.338160
vn 0.469739 -0.815471 -0.338160
vn 0.469739 -0.815471 -0.338160
vn 0.224188 -0.781706 -0.581959
vn 0.224188 -0.781706 -0.581959
vn 0.224188 -0.781705 -0.581959
vn 0.224188 -0.781706 -0.581959
vn -0.087545 -0.781705 -0.617473
vn -0.087545 -0.781705 -0.617473
vn -0.087545 -0.781705 -0.617473
vn -0.087545 -0.781705 -0.617473
vn -0.535640 -0.583167 -0.610742
vn -0.535640 -0.583167 -0.610742
vn -0.535640 -0.583167 -0.610742
vn -0.535640 -0.583167 -0.610742
vn -0.781694 -0.617272 -0.089054
vn -0.781694 -0.617272 -0.089054
vn -0.781694 -0.617272 -0.089054
vn -0.781694 -0.617272 -0.089054
vn -0.659287 -0.583168 0.474611
vn -0.659287 -0.583168 0.474611
vn -0.659287 -0.583168 0.474611
vn -0.659287 -0.583168 0.474611
vn -0.302962 -0.538253 0.786446
vn -0.302962 -0.538253 0.786446
vn -0.302962 -0.538253 0.786446
vn -0.302962 -0.538253 0.786446
vn 0.118306 -0.538252 0.834439
vn 0.118306 -0.538252 0.834439
vn 0.118306 -0.538252 0.834439
vn 0.118306 -0.538252 0.834439
vn 0.535640 -0.583167 0.610742
vn 0.535640 -0.583167 0.610742
vn 0.535640 -0.583167 0.610742
vn 0.535640 -0.583167 0.610742
vn 0.781694 -0.617272 0.089054
vn 0.781694 -0.617272 0.089054
vn 0.781694 -0.617272 0.089054
vn 0.781694 -0.617272 0.089054
vn 0.659287 -0.583168 -0.474611
vn 0.659287 -0.583168 -0.474611
vn 0.659287 -0.583168 -0.474611
vn 0.659287 -0.583168 -0.474611
vn 0.302962 -0.538253 -0.786446
vn 0.302962 -0.538253 -0.786446
vn 0.302962 -0.538253 -0.786446
vn 0.302962 -0.538253 -0.786446
vn -0.118306 -0.538252 -0.834439
vn -0.118306 -0.538252 -0.834439
vn -0.118306 -0.538252 -0.834439
vn -0.118306 -0.538252 -0.834439
vn -0.619244 -0.343517 -0.706068
vn -0.619244 -0.343517 -0.706068
vn -0.619244 -0.343517 -0.706068
vn -0.619244 -0.343517 -0.706068
vn -0.922584 -0.371202 -0.105103
vn -0.922584 -0.371202 -0.105103
vn -0.922584 -0.371202 -0.105103
vn -0.922584 -0.371202 -0.105103
vn -0.762191 -0.343517 0.548691
vn -0.762191 -0.343517 0.548691
vn -0.762191 -0.343516 0.548691
vn -0.762191 -0.343517 0.548691
vn -0.341835 -0.309442 0.887352
vn -0.341835 -0.309442 0.887352
vn -0.341835 -0.309442 0.887352
vn -0.341835 -0.309442 0.887352
vn 0.133486 -0.309442 0.941503
vn 0.133486 -0.309442 0.941503
vn 0.133486 -0.309442 0.941503
vn 0.133486 -0.309442 0.941503
vn 0.619245 -0.343517 0.706068
vn 0.619245 -0.343517 0.706068
vn 0.619245 -0.343517 0.706068
vn 0.619245 -0.343517 0.706068
vn 0.922584 -0.371202 0.105103
vn 0.922584 -0.371202 0.105103
vn 0.922584 -0.371202 0.105103
vn 0.922584 -0.371202 0.105103
vn 0.762191 -0.343517 -0.548691
vn 0.762191 -0.343517 -0.548691
vn 0.762191 -0.343517 -0.548691
vn 0.762191 -0.343517 -0.548691
vn 0.341835 -0.309442 -0.887352
vn 0.341835 -0.309442 -0.887352
vn 0.341835 -0.309442 -0.887352
vn 0.341835 -0.309442 -0.887352
vn -0.133486 -0.309442 -0.941503
vn -0.133486 -0.309442 -0.941503
vn -0.133486 -0.309442 -0.941503
vn -0.133486 -0.309442 -0.941503
vn -0.655149 -0.112972 -0.747005
vn -0.655149 -0.112972 -0.747005
vn -0.655149 -0.112972 -0.747005
vn -0.655149 -0.112972 -0.747005
vn -0.985990 -0.123317 -0.112327
vn -0.985990 -0.123317 -0.112327
vn -0.985990 -0.123317 -0.112327
vn -0.985990 -0.123317 -0.112327
vn -0.806383 -0.112972 0.580504
vn -0.806383 -0.112972 0.580504
vn -0.806383 -0.112972 0.580504
vn -0.806383 -0.112972 0.580504
vn -0.357653 -0.100640 0.928416
vn -0.357653 -0.100640 0.928416
vn -0.357653 -0.100640 0.928416
vn -0.357653 -0.100640 0.928416
vn 0.139663 -0.100640 0.985071
vn 0.139663 -0.100640 0.985071
vn 0.139663 -0.100640 0.985071
vn 0.139663 -0.100640 0.985071
vn 0.655149 -0.112972 0.747005
vn 0.655149 -0.112972 0.747005
vn 0.655149 -0.112972 0.747005
vn 0.655149 -0.112972 0.747005
vn 0.985990 -0.123317 0.112327
vn 0.985990 -0.123317 0.112327
vn 0.985990 -0.123317 0.112327
vn 0.985990 -0.123317 0.112327
vn 0.806383 -0.112972 -0.580504
vn 0.806383 -0.112972 -0.580504
vn 0.806383 -0.112972 -0.580504
vn 0.806383 -0.112972 -0.580504
vn 0.357653 -0.100640 -0.928416
vn 0.357653 -0.100640 -0.928416
vn 0.357653 -0.100640 -0.928416
vn 0.357653 -0.100640 -0.928416
vn -0.139663 -0.100640 -0.985072
vn -0.139663 -0.100640 -0.985072
vn -0.139663 -0.100640 -0.985072
vn -0.139663 -0.100640 -0.985072
vn -0.655148 0.112972 -0.747006
vn -0.655148 0.112972 -0.747006
vn -0.655148 0.112972 -0.747006
vn -0.655148 0.112972 -0.747006
vn -0.985990 0.123317 -0.112327
vn -0.985990 0.123317 -0.112327
vn -0.985990 0.123317 -0.112327
vn -0.985990 0.123317 -0.112327
vn -0.806382 0.112972 0.580504
vn -0.806383 0.112972 0.580504
vn -0.806382 0.112972 0.580504
vn -0.806382 0.112972 0.580504
vn -0.357654 0.100640 0.928416
vn -0.357654 0.100640 0.928416
vn -0.357654 0.100640 0.928416
vn -0.357654 0.100640 0.928416
vn 0.139663 0.100640 0.985071
vn 0.139663 0.100640 0.985071
vn 0.139663 0.100640 0.985071
vn 0.139663 0.100640 0.985071
vn 0.655149 0.112972 0.747006
vn 0.655149 0.112972 0.747006
vn 0.655149 0.112972 0.747006
vn 0.655149 0.112972 0.747006
vn 0.985990 0.123317 0.112327
vn 0.985990 0.123317 0.112327
vn 0.985990 0.123317 0.112327
vn 0.985990 0.123317 0.112327
vn 0.806383 0.112972 -0.580504
vn 0.806382 0.112972 -0.580504
vn 0.806382 0.112972 -0.580504
vn 0.806382 0.112972 -0.580504
vn 0.357654 0.100640 -0.928416
vn 0.357654 0.100640 -0.928416
vn 0.357654 0.100640 -0.928416
vn 0.357654 0.100640 -0.928416
vn -0.139663 0.100640 -0.985072
vn -0.139663 0.100640 -0.985072
vn -0.139663 0.100640 -0.985072
vn -0.139663 0.100640 -0.985072
vn -0.619245 0.343517 -0.706068
vn -0.619245 0.343517 -0.706068
vn -0.619245 0.343517 -0.706068
vn -0.619245 0.343517 -0.706068
vn -0.922584 0.371202 -0.105104
vn -0.922584 0.371202 -0.105104
vn -0.922584 0.371202 -0.105104
vn -0.922584 0.371202 -0.105104
vn -0.762190 0.343516 0.548692
vn -0.762190 0.343516 0.548692
vn -0.762190 0.343516 0.548692
vn -0.762190 0.343516 0.548692
vn -0.341835 0.309443 0.887352
vn -0.341835 0.309443 0.887352
vn -0.341835 0.309443 0.887352
vn -0.341835 0.309443 0.887352
vn 0.133486 0.309442 0.941503
vn 0.133486 0.309442 0.941503
vn 0.133486 0.309442 0.941503
vn 0.133486 0.309442 0.941503
vn 0.619245 0.343517 0.706068
vn 0.619245 0.343517 0.706068
vn 0.619245 0.343517 0.706068
vn 0.619245 0.343517 0.706068
vn 0.922584 0.371202 0.105103
vn 0.922584 0.371202 0.105103
vn 0.922585 0.371202 0.105103
vn 0.922585 0.371202 0.105103
vn 0.762191 0.343517 -0.548691
vn 0.762191 0.343517 -0.548691
vn 0.762191 0.343517 -0.548691
vn 0.762191 0.343517 -0.548691
vn 0.341836 0.309442 -0.887352
vn 0.341836 0.309442 -0.887352
vn 0.341836 0.309442 -0.887352
vn 0.341836 0.309442 -0.887352
vn -0.133486 0.309442 -0.941503
vn -0.133486 0.309442 -0.941503
vn -0.133486 0.309442 -0.941503
vn -0.133486 0.309442 -0.941503
vn -0.535641 0.583167 -0.610741
vn -0.535641 0.583167 -0.610741
vn -0.535641 0.583167 -0.610741
vn -0.535641 0.583167 -0.610741
vn -0.781694 0.617271 -0.089054
vn -0.781694 0.617271 -0.089054
vn -0.781694 0.617271 -0.089054
vn -0.781694 0.617271 -0.089054
vn -0.659288 0.583167 0.474612
vn -0.659288 0.583167 0.474612
vn -0.659288 0.583167 0.474612
vn -0.659288 0.583167 0.474612
vn -0.302963 0.538254 0.786446
vn -0.302963 0.538253 0.786445
vn -0.302963 0.538254 0.786445
vn -0.302963 0.538253 0.786445
vn 0.118307 0.538253 0.834438
vn 0.118307 0.538253 0.834438
vn 0.118307 0.538253 0.834438
vn 0.118307 0.538253 0.834438
vn 0.535640 0.583167 0.610742
vn 0.535640 0.583167 0.610742
vn 0.535640 0.583167 0.610742
vn 0.535640 0.583167 0.610742
vn 0.781694 0.617271 0.089055
vn 0.781694 0.617271 0.089055
vn 0.781694 0.617271 0.089055
vn 0.781694 0.617271 0.089055
vn 0.659287 0.583167 -0.474613
vn 0.659287 0.583167 -0.474613
vn 0.659287 0.583167 -0.474613
vn 0.659287 0.583167 -0.474613
vn 0.302963 0.538253 -0.786446
vn 0.302963 0.538253 -0.786446
vn 0.302963 0.538253 -0.786446
vn 0.302963 0.538253 -0.786445
vn -0.118307 0.538253 -0.834438
vn -0.118307 0.538253 -0.834438
vn -0.118307 0.538253 -0.834438
vn -0.118307 0.538253 -0.834438
vn -0.381641 0.815472 -0.435151
vn -0.381641 0.815472 -0.435151
vn -0.381641 0.815472 -0.435151
vn -0.381641 0.815472 -0.435151
vn -0.541147 0.838666 -0.061645
vn -0.541147 0.838666 -0.061645
vn -0.541147 0.838666 -0.061645
vn -0.541147 0.838666 -0.061645
vn -0.469739 0.815473 0.338156
vn -0.469739 0.815473 0.338156
vn -0.469739 0.815473 0.338156
vn -0.469739 0.815473 0.338156
vn -0.224188 0.781707 0.581958
vn -0.224188 0.781707 0.581958
vn -0.224188 0.781707 0.581958
vn -0.224188 0.781707 0.581958
vn 0.087545 0.781705 0.617473
vn 0.087545 0.781705 0.617473
vn 0.087545 0.781705 0.617473
vn 0.087545 0.781705 0.617473
vn 0.381641 0.815472 0.435150
vn 0.381641 0.815472 0.435150
vn 0.381641 0.815472 0.435150
vn 0.381641 0.815472 0.435150
vn 0.541147 0.838666 0.061645
vn 0.541147 0.838666 0.061645
vn 0.541147 0.838666 0.061645
vn 0.541147 0.838665 0.061645
vn 0.469740 0.815474 -0.338153
vn 0.469740 0.815474 -0.338153
vn 0.469740 0.815474 -0.338153
vn 0.469740 0.815474 -0.338153
vn 0.224188 0.781706 -0.581959
vn 0.224188 0.781706 -0.581959
vn 0.224188 0.781706 -0.581959
vn 0.224188 0.781706 -0.581959
vn -0.087545 0.781705 -0.617473
vn -0.087545 0.781705 -0.617473
vn -0.087545 0.781705 -0.617473
vn -0.087545 0.781705 -0.617473
vn -0.142063 -0.976516 -0.161972
vn -0.142063 -0.976516 -0.161972
vn -0.142063 -0.976516 -0.161972
vn -0.196611 -0.980226 -0.022400
vn -0.196611 -0.980226 -0.022400
vn -0.196611 -0.980226 -0.022400
vn -0.174856 -0.976515 0.125872
vn -0.174856 -0.976515 0.125872
vn -0.174856 -0.976515 0.125872
vn -0.086529 -0.970597 0.224618
vn -0.086529 -0.970597 0.224618
vn -0.086529 -0.970597 0.224618
vn 0.033790 -0.970598 0.238321
vn 0.033790 -0.970598 0.238321
vn 0.033790 -0.970598 0.238322
vn 0.142063 -0.976514 0.161985
vn 0.142062 -0.976514 0.161985
vn 0.142063 -0.976514 0.161985
vn 0.196611 -0.980226 0.022400
vn 0.196611 -0.980226 0.022400
vn 0.196611 -0.980226 0.022400
vn 0.174856 -0.976513 -0.125885
vn 0.174856 -0.976513 -0.125885
vn 0.174856 -0.976513 -0.125885
vn 0.086529 -0.970598 -0.224617
vn 0.086529 -0.970598 -0.224617
vn 0.086529 -0.970598 -0.224617
vn -0.033789 -0.970598 -0.238321
vn -0.033789 -0.970598 -0.238321
vn -0.033789 -0.970598 -0.238321
vn -0.142060 0.976514 -0.161985
vn -0.142060 0.976514 -0.161985
vn -0.142060 0.976514 -0.161985
vn -0.196608 0.980226 -0.022413
vn -0.196608 0.980226 -0.022413
vn -0.196607 0.980226 -0.022413
vn -0.174853 0.976514 0.125885
vn -0.174853 0.976514 0.125885
vn -0.174853 0.976514 0.125885
vn -0.086528 0.970599 0.224614
vn -0.086528 0.970599 0.224614
vn -0.086528 0.970599 0.224614
vn 0.033789 0.970598 0.238323
vn 0.033789 0.970598 0.238323
vn 0.033789 0.970598 0.238323
vn 0.142060 0.976516 0.161972
vn 0.142060 0.976516 0.161972
vn 0.142060 0.976516 0.161972
vn 0.196608 0.980227 0.022387
vn 0.196608 0.980227 0.022387
vn 0.196608 0.980227 0.022387
vn 0.174854 0.976517 -0.125859
vn 0.174854 0.976517 -0.125859
vn 0.174854 0.976517 -0.125859
vn 0.086528 0.970599 -0.224614
vn 0.086528 0.970599 -0.224614
vn 0.086528 0.970599 -0.224614
vn -0.033789 0.970599 -0.238318
vn -0.033789 0.970599 -0.238318
vn -0.033789 0.970599 -0.238318
vn -0.555729 -0.327872 0.763980
vn -0.390039 -0.362642 0.846381
vn -0.522329 -0.123066 0.843817
vn -0.668523 -0.138299 0.730719
vn -0.010410 -0.390096 0.920715
vn -0.053207 -0.128963 0.990221
vn 0.343016 -0.373545 0.861861
vn 0.421186 -0.177877 0.889361
vn 0.485748 -0.358121 0.797369
vn 0.559070 -0.219670 0.799491
vn -0.726657 0.675854 0.123250
vn -0.668900 0.731292 0.133359
vn -0.687281 0.714606 0.130316
vn -0.726657 0.675854 0.123250
vn 0.000000 0.983776 0.179402
vn 0.000000 0.983776 0.179402
vn 0.662756 0.736686 0.134343
vn 0.672749 0.727867 0.132734
vn 0.708298 0.694461 0.126642
vn 0.708298 0.694461 0.126642
vn 0.679994 0.105077 -0.725649
vn 0.503520 0.089044 -0.859383
vn 0.377720 0.327983 -0.865884
vn 0.568280 0.295939 -0.767775
vn -0.045654 -0.005847 -0.998940
vn -0.036890 0.337963 -0.940436
vn -0.422806 0.087411 -0.901995
vn -0.347055 0.312578 -0.884222
vn -0.495521 0.141586 -0.856979
vn -0.454010 0.304284 -0.837428
vn 0.000002 -0.983775 -0.179408
vn -0.008429 -0.983740 -0.179401
vn -0.012735 -0.983695 -0.179393
vn 0.000002 -0.983775 -0.179408
vn -0.011870 -0.983706 -0.179391
vn -0.011573 -0.983710 -0.179392
vn -0.032357 -0.983261 -0.179306
vn -0.021645 -0.983546 -0.179358
vn -0.053139 -0.982386 -0.179147
vn -0.053139 -0.982386 -0.179147
vn 0.973904 -0.223280 -0.040719
vn 0.973903 -0.223280 -0.040719
vn 0.971028 -0.234902 -0.043874
vn 0.971549 -0.232845 -0.043316
vn -0.971770 -0.232104 -0.042326
vn -0.971770 -0.232104 -0.042326
vn -0.969578 -0.240812 -0.043915
vn -0.968437 -0.245214 -0.044718
vn -0.970857 -0.235772 -0.042995
vn -0.969899 -0.239556 -0.043686
vn -0.975861 -0.214849 -0.039179
vn -0.975861 -0.214849 -0.039179
vn 0.466463 0.327362 -0.821734
vn 0.213233 0.268369 -0.939420
vn 0.499483 0.003319 -0.866318
vn 0.708103 0.007149 -0.706073
vn -0.006810 0.253644 -0.967274
vn -0.032896 0.046783 -0.998363
vn -0.125079 0.273248 -0.953777
vn -0.376531 0.002292 -0.926401
vn -0.199382 0.272344 -0.941316
vn -0.459708 -0.004831 -0.888057
vn 0.970371 -0.237349 -0.045231
vn 0.970944 -0.235082 -0.044775
vn 0.974149 -0.221941 -0.042132
vn 0.974149 -0.221941 -0.042132
vn 0.402328 -0.029249 0.915028
vn 0.594028 -0.057130 0.802414
vn 0.445185 -0.161031 0.880840
vn 0.301304 -0.057140 0.951815
vn -0.066060 0.012562 0.997737
vn -0.039533 -0.070248 0.996746
vn -0.516142 -0.063405 0.854153
vn -0.345342 -0.190468 0.918945
vn -0.698778 -0.031713 0.714635
vn -0.437979 -0.360964 0.823335
vn 0.555751 -0.327834 -0.763980
vn 0.390063 -0.362615 -0.846381
vn 0.522338 -0.123031 -0.843817
vn 0.668533 -0.138253 -0.730718
vn 0.010436 -0.390095 -0.920716
vn 0.053216 -0.128960 -0.990221
vn -0.342990 -0.373568 -0.861861
vn -0.421173 -0.177906 -0.889361
vn -0.485724 -0.358154 -0.797370
vn -0.559054 -0.219708 -0.799491
vn 0.726611 0.675904 -0.123254
vn 0.668850 0.731338 -0.133359
vn 0.687232 0.714653 -0.130318
vn 0.726611 0.675904 -0.123254
vn -0.000067 0.983777 -0.179398
vn -0.000067 0.983777 -0.179398
vn -0.662808 0.736640 -0.134342
vn -0.672800 0.727820 -0.132734
vn -0.708346 0.694411 -0.126644
vn -0.708346 0.694411 -0.126644
vn -0.680001 0.105030 0.725649
vn -0.503526 0.089009 0.859383
vn -0.377743 0.327957 0.865884
vn -0.568301 0.295900 0.767774
vn 0.045654 -0.005843 0.998940
vn 0.036867 0.337966 0.940436
vn 0.422800 0.087441 0.901995
vn 0.347033 0.312602 0.884222
vn 0.495511 0.141620 0.856979
vn 0.453989 0.304316 0.837429
vn 0.000069 -0.983775 0.179405
vn 0.008499 -0.983740 0.179398
vn 0.012804 -0.983695 0.179389
vn 0.000069 -0.983775 0.179405
vn 0.011937 -0.983705 0.179393
vn 0.011641 -0.983708 0.179394
vn 0.032423 -0.983259 0.179307
vn 0.021712 -0.983544 0.179362
vn 0.053205 -0.982384 0.179142
vn 0.053205 -0.982384 0.179142
vn -0.973888 -0.223347 0.040719
vn -0.973888 -0.223347 0.040719
vn -0.971012 -0.234969 0.043874
vn -0.971533 -0.232912 0.043316
vn 0.971786 -0.232037 0.042327
vn 0.971786 -0.232037 0.042327
vn 0.969594 -0.240745 0.043915
vn 0.968454 -0.245148 0.044718
vn 0.970873 -0.235705 0.042996
vn 0.969916 -0.239490 0.043686
vn 0.975876 -0.214781 0.039180
vn 0.975876 -0.214781 0.039180
vn -0.466487 0.327329 0.821733
vn -0.213252 0.268354 0.939420
vn -0.499483 0.003284 0.866317
vn -0.708104 0.007101 0.706073
vn 0.006792 0.253645 0.967274
vn 0.032892 0.046785 0.998363
vn 0.125059 0.273256 0.953777
vn 0.376531 0.002318 0.926401
vn 0.199364 0.272356 0.941316
vn 0.459708 -0.004799 0.888057
vn -0.970354 -0.237417 0.045231
vn -0.970928 -0.235149 0.044775
vn -0.974134 -0.222008 0.042133
vn -0.974134 -0.222008 0.042133
vn -0.402325 -0.029277 -0.915028
vn -0.594024 -0.057171 -0.802414
vn -0.445174 -0.161061 -0.880840
vn -0.301300 -0.057160 -0.951815
vn 0.066059 0.012567 -0.997737
vn 0.039538 -0.070244 -0.996746
vn 0.516147 -0.063369 -0.854153
vn 0.345355 -0.190444 -0.918945
vn 0.698781 -0.031665 -0.714634
vn 0.438004 -0.360934 -0.823334
vn 0.659493 -0.448099 0.603553
vn 0.747778 -0.485881 0.452490
vn 0.837351 -0.285280 0.466324
vn 0.693281 -0.333927 0.638635
vn 0.859974 -0.510194 0.012086
vn 0.950212 -0.309200 0.038628
vn 0.791276 -0.477070 -0.382475
vn 0.857502 -0.317319 -0.404969
vn 0.711296 -0.435517 -0.551709
vn 0.725250 -0.350568 -0.592550
vn 0.108779 0.683982 0.721343
vn 0.116563 0.732925 0.670249
vn 0.113750 0.715240 0.689560
vn 0.108779 0.683982 0.721343
vn 0.157036 0.987414 0.018814
vn 0.157001 0.987193 -0.028283
vn 0.114450 0.719634 -0.684857
vn 0.111762 0.702731 -0.702623
vn 0.106310 0.668447 -0.736123
vn 0.106310 0.668447 -0.736123
vn -0.673205 0.313009 -0.669940
vn -0.853562 0.256708 -0.453357
vn -0.744258 0.471936 -0.472605
vn -0.627445 0.438080 -0.643738
vn -0.987933 0.146317 0.050782
vn -0.885892 0.462497 0.035954
vn -0.888136 0.238787 0.392677
vn -0.819088 0.426238 0.383948
vn -0.769103 0.292792 0.568114
vn -0.741756 0.391751 0.544361
vn -0.036728 -0.997439 -0.061365
vn -0.021308 -0.998891 -0.041986
vn -0.003123 -0.999812 -0.019120
vn -0.036728 -0.997439 -0.061365
vn -0.012201 -0.999923 -0.002173
vn -0.013731 -0.999901 -0.003192
vn -0.125251 -0.991808 0.025093
vn -0.107743 -0.994142 0.008507
vn -0.156827 -0.986085 0.055144
vn -0.156827 -0.986085 0.055144
vn -0.054250 -0.341086 -0.938465
vn -0.054250 -0.341086 -0.938465
vn -0.036436 -0.227417 -0.973116
vn -0.034060 -0.212257 -0.976620
vn -0.216098 -0.222153 0.950763
vn -0.216098 -0.222153 0.950763
vn -0.135199 -0.218984 0.966316
vn -0.145035 -0.219447 0.964784
vn 0.001543 0.009721 0.999952
vn -0.000655 -0.004099 0.999991
vn 0.038677 0.243211 0.969202
vn 0.038677 0.243211 0.969202
vn -0.716222 -0.183181 -0.673403
vn -0.894274 -0.100182 -0.436162
vn -0.879591 -0.066042 -0.471125
vn -0.725206 0.031668 -0.687803
vn -0.997084 -0.041441 0.064082
vn -0.992836 -0.101597 0.062890
vn -0.887769 -0.120360 0.444275
vn -0.895468 -0.085733 0.436791
vn -0.766030 -0.244378 0.594539
vn -0.798451 0.024244 0.601571
vn -0.000033 0.000089 -1.000000
vn 0.001568 0.009679 -0.999952
vn 0.017703 0.106346 -0.994172
vn 0.017703 0.106346 -0.994172
vn 0.864902 0.081540 -0.495273
vn 0.730905 -0.069012 -0.678981
vn 0.655515 0.294370 -0.695447
vn 0.825579 0.249325 -0.506219
vn 0.996111 0.074538 0.046969
vn 0.986661 0.162342 0.012055
vn 0.851961 0.034919 0.522440
vn 0.860479 0.120166 0.495112
vn 0.731816 -0.062803 0.678603
vn 0.728034 0.161746 0.666187
vn -0.694350 -0.493652 -0.523627
vn -0.763385 -0.528335 -0.371627
vn -0.867674 -0.307476 -0.390642
vn -0.736552 -0.368394 -0.567255
vn -0.835797 -0.546064 0.057077
vn -0.942222 -0.333035 0.036133
vn -0.745291 -0.508855 0.430823
vn -0.822914 -0.328437 0.463618
vn -0.661387 -0.466143 0.587604
vn -0.677082 -0.369406 0.636474
vn -0.155890 0.677027 -0.719258
vn -0.159324 0.726619 -0.668312
vn -0.158147 0.708690 -0.687567
vn -0.155890 0.677027 -0.719258
vn -0.148178 0.988783 -0.018760
vn -0.144605 0.989087 0.028202
vn -0.055479 0.728424 0.682876
vn -0.051631 0.711693 0.700591
vn -0.044017 0.677729 0.733993
vn -0.044017 0.677729 0.733993
vn 0.719662 0.346187 0.601864
vn 0.883731 0.279845 0.375108
vn 0.763013 0.514209 0.391664
vn 0.667180 0.482242 0.567727
vn 0.978049 0.165606 -0.126474
vn 0.860140 0.498880 -0.106200
vn 0.855245 0.253873 -0.451780
vn 0.774486 0.461104 -0.433076
vn 0.722492 0.314152 -0.615885
vn 0.692374 0.425602 -0.582651
vn 0.031314 -0.997032 0.070337
vn 0.014468 -0.998533 0.052188
vn -0.005392 -0.999512 0.030763
vn 0.031314 -0.997032 0.070337
vn 0.002386 -0.999910 0.013186
vn 0.003988 -0.999893 0.014087
vn 0.113140 -0.993323 -0.022579
vn 0.096906 -0.995282 -0.004699
vn 0.142420 -0.988278 -0.054981
vn 0.142420 -0.988278 -0.054981
vn 0.120099 -0.321612 0.939224
vn 0.120099 -0.321612 0.939224
vn 0.106968 -0.215030 0.970732
vn 0.104198 -0.193527 0.975546
vn 0.140705 -0.223695 -0.964450
vn 0.140705 -0.223695 -0.964450
vn 0.057211 -0.224879 -0.972706
vn 0.071265 -0.224790 -0.971798
vn -0.076618 -0.001418 -0.997060
vn -0.074566 -0.015261 -0.997099
vn -0.109010 0.232788 -0.966399
vn -0.109010 0.232788 -0.966399
vn 0.762960 -0.183392 0.619887
vn 0.923491 -0.104976 0.368978
vn 0.911818 -0.070291 0.404533
vn 0.775139 0.031494 0.631006
vn 0.988984 -0.052934 -0.138238
vn 0.984239 -0.113023 -0.136013
vn 0.850617 -0.134902 -0.508185
vn 0.859201 -0.100279 -0.501714
vn 0.716699 -0.259265 -0.647398
vn 0.751171 0.008895 -0.660048
vn 0.075211 0.011244 0.997104
vn 0.073707 0.020850 0.997062
vn 0.058144 0.117614 0.991356
vn 0.058144 0.117614 0.991356
vn -0.824369 0.096409 0.557782
vn -0.678445 -0.053525 0.732699
vn -0.598420 0.309182 0.739121
vn -0.782667 0.263870 0.563742
vn -0.996033 0.084778 0.027040
vn -0.983112 0.172858 0.060095
vn -0.888435 0.038300 -0.457402
vn -0.894026 0.123934 -0.430532
vn -0.781346 -0.062451 -0.620965
vn -0.774409 0.162168 -0.611549
s off
g pCylinder2
usemtl lambert3SG
f 1/1/1 2/2/2 12/13/3 11/12/4
f 2/2/5 3/3/6 13/14/7 12/13/8
f 3/3/9 4/4/10 14/15/11 13/14/12
f 4/4/13 5/5/14 15/16/15 14/15/16
f 5/5/17 6/6/18 16/17/19 15/16/20
f 6/6/21 7/7/22 17/18/23 16/17/24
f 7/7/25 8/8/26 18/19/27 17/18/28
f 8/8/29 9/9/30 19/20/31 18/19/32
f 9/9/33 10/10/34 20/21/35 19/20/36
f 10/10/37 1/11/38 11/22/39 20/21/40
usemtl lambert2SG
f 21/23/41 22/24/42 32/25/43 31/26/44
f 22/24/45 23/27/46 33/28/47 32/25/48
f 23/27/49 24/29/50 34/30/51 33/28/52
f 24/29/53 25/31/54 35/32/55 34/30/56
f 25/31/57 26/33/58 36/34/59 35/32/60
f 26/33/61 27/35/62 37/36/63 36/34/64
f 27/35/65 28/37/66 38/38/67 37/36/68
f 28/37/69 29/39/70 39/40/71 38/38/72
f 29/39/73 30/41/74 40/42/75 39/40/76
f 30/41/77 21/43/78 31/44/79 40/42/80
f 31/26/81 32/25/82 42/45/83 41/46/84
f 32/25/85 33/28/86 43/47/87 42/45/88
f 33/28/89 34/30/90 44/48/91 43/47/92
f 34/30/93 35/32/94 45/49/95 44/48/96
f 35/32/97 36/34/98 46/50/99 45/49/100
f 36/34/101 37/36/102 47/51/103 46/50/104
f 37/36/105 38/38/106 48/52/107 47/51/108
f 38/38/109 39/40/110 49/53/111 48/52/112
f 39/40/113 40/42/114 50/54/115 49/53/116
f 40/42/117 31/44/118 41/55/119 50/54/120
f 41/46/121 42/45/122 52/56/123 51/57/124
f 42/45/125 43/47/126 53/58/127 52/56/128
f 43/47/129 44/48/130 54/59/131 53/58/132
f 44/48/133 45/49/134 55/60/135 54/59/136
f 45/49/137 46/50/138 56/61/139 55/60/140
f 46/50/141 47/51/142 57/62/143 56/61/144
f 47/51/145 48/52/146 58/63/147 57/62/148
f 48/52/149 49/53/150 59/64/151 58/63/152
f 49/53/153 50/54/154 60/65/155 59/64/156
f 50/54/157 41/55/158 51/66/159 60/65/160
f 51/57/161 52/56/162 62/67/163 61/68/164
f 52/56/165 53/58/166 63/69/167 62/67/168
f 53/58/169 54/59/170 64/70/171 63/69/172
f 54/59/173 55/60/174 65/71/175 64/70/176
f 55/60/177 56/61/178 66/72/179 65/71/180
f 56/61/181 57/62/182 67/73/183 66/72/184
f 57/62/185 58/63/186 68/74/187 67/73/188
f 58/63/189 59/64/190 69/75/191 68/74/192
f 59/64/193 60/65/194 70/76/195 69/75/196
f 60/65/197 51/66/198 61/77/199 70/76/200
f 61/68/201 62/67/202 72/78/203 71/79/204
f 62/67/205 63/69/206 73/80/207 72/78/208
f 63/69/209 64/70/210 74/81/211 73/80/212
f 64/70/213 65/71/214 75/82/215 74/81/216
f 65/71/217 66/72/218 76/83/219 75/82/220
f 66/72/221 67/73/222 77/84/223 76/83/224
f 67/73/225 68/74/226 78/85/227 77/84/228
f 68/74/229 69/75/230 79/86/231 78/85/232
f 69/75/233 70/76/234 80/87/235 79/86/236
f 70/76/237 61/77/238 71/88/239 80/87/240
f 71/79/241 72/78/242 82/89/243 81/90/244
f 72/78/245 73/80/246 83/91/247 82/89/248
f 73/80/249 74/81/250 84/92/251 83/91/252
f 74/81/253 75/82/254 85/93/255 84/92/256
f 75/82/257 76/83/258 86/94/259 85/93/260
f 76/83/261 77/84/262 87/95/263 86/94/264
f 77/84/265 78/85/266 88/96/267 87/95/268
f 78/85/269 79/86/270 89/97/271 88/96/272
f 79/86/273 80/87/274 90/98/275 89/97/276
f 80/87/277 71/88/278 81/99/279 90/98/280
f 81/90/281 82/89/282 92/100/283 91/101/284
f 82/89/285 83/91/286 93/102/287 92/100/288
f 83/91/289 84/92/290 94/103/291 93/102/292
f 84/92/293 85/93/294 95/104/295 94/103/296
f 85/93/297 86/94/298 96/105/299 95/104/300
f 86/94/301 87/95/302 97/106/303 96/105/304
f 87/95/305 88/96/306 98/107/307 97/106/308
f 88/96/309 89/97/310 99/108/311 98/107/312
f 89/97/313 90/98/314 100/109/315 99/108/316
f 90/98/317 81/99/318 91/110/319 100/109/320
f 91/101/321 92/100/322 102/111/323 101/112/324
f 92/100/325 93/102/326 103/113/327 102/111/328
f 93/102/329 94/103/330 104/114/331 103/113/332
f 94/103/333 95/104/334 105/115/335 104/114/336
f 95/104/337 96/105/338 106/116/339 105/115/340
f 96/105/341 97/106/342 107/117/343 106/116/344
f 97/106/345 98/107/346 108/118/347 107/117/348
f 98/107/349 99/108/350 109/119/351 108/118/352
f 99/108/353 100/109/354 110/120/355 109/119/356
f 100/109/357 91/110/358 101/121/359 110/120/360
f 22/24/361 21/23/362 111/122/363
f 23/27/364 22/24/365 111/123/366
f 24/29/367 23/27/368 111/124/369
f 25/31/370 24/29/371 111/125/372
f 26/33/373 25/31/374 111/126/375
f 27/35/376 26/33/377 111/127/378
f 28/37/379 27/35/380 111/128/381
f 29/39/382 28/37/383 111/129/384
f 30/41/385 29/39/386 111/130/387
f 21/43/388 30/41/389 111/131/390
f 101/112/391 102/111/392 112/132/393
f 102/111/394 103/113/395 112/133/396
f 103/113/397 104/114/398 112/134/399
f 104/114/400 105/115/401 112/135/402
f 105/115/403 106/116/404 112/136/405
f 106/116/406 107/117/407 112/137/408
f 107/117/409 108/118/410 112/138/411
f 108/118/412 109/119/413 112/139/414
f 109/119/415 110/120/416 112/140/417
f 110/120/418 101/121/419 112/141/420
s 1
f 113/142/421 114/143/422 142/144/423 133/145/424
f 114/143/422 115/146/425 141/147/426 142/144/423
f 115/146/425 116/148/427 140/149/428 141/147/426
f 116/148/427 117/150/429 139/151/430 140/149/428
s 2
f 118/152/431 119/153/432 124/154/433 123/155/434
f 119/153/432 120/156/435 125/157/436 124/154/433
f 120/156/435 121/158/437 126/159/438 125/157/436
f 121/158/437 122/160/439 127/161/440 126/159/438
s 3
f 134/162/441 135/163/442 129/164/443 128/165/444
f 135/163/442 136/166/445 130/167/446 129/164/443
f 136/166/445 137/168/447 131/169/448 130/167/446
f 137/168/447 138/170/449 132/171/450 131/169/448
s 4
f 128/165/451 129/164/452 114/172/453 113/173/454
f 129/164/452 130/167/455 115/174/456 114/172/453
f 130/167/455 131/169/457 116/175/458 115/174/456
f 131/169/457 132/171/459 117/176/460 116/175/458
s 5
f 117/150/461 132/177/462 138/178/463 139/151/464
s 6
f 128/179/465 113/142/466 133/145/467 134/180/468
f 143/181/469 144/182/470 118/152/471 123/183/472
s 3
f 123/155/473 124/154/474 152/184/475 143/185/476
f 124/154/474 125/157/477 151/186/478 152/184/475
f 125/157/477 126/159/479 150/187/480 151/186/478
f 126/159/479 127/161/481 149/188/482 150/187/480
s 5
f 148/189/483 149/190/484 127/191/485 122/160/486
s 1
f 147/192/487 148/189/488 122/160/489 121/158/490
f 146/193/491 147/192/487 121/158/490 120/156/492
f 145/194/493 146/193/491 120/156/492 119/153/494
f 144/182/495 145/194/493 119/153/494 118/152/496
s 6
f 134/180/468 133/145/467 144/182/470 143/181/469
s 1
f 133/145/424 142/144/423 145/194/493 144/182/495
f 142/144/423 141/147/426 146/193/491 145/194/493
f 141/147/426 140/149/428 147/192/487 146/193/491
f 140/149/428 139/151/430 148/189/488 147/192/487
s 5
f 139/151/464 138/178/463 149/190/484 148/189/483
s 3
f 150/187/480 149/188/482 138/170/449 137/168/447
f 151/186/478 150/187/480 137/168/447 136/166/445
f 152/184/475 151/186/478 136/166/445 135/163/442
f 143/185/476 152/184/475 135/163/442 134/162/441
s 8
f 153/195/497 154/196/498 182/197/499 173/198/500
f 154/196/498 155/199/501 181/200/502 182/197/499
f 155/199/501 156/201/503 180/202/504 181/200/502
f 156/201/503 157/203/505 179/204/506 180/202/504
s 9
f 158/205/507 159/206/508 164/207/509 163/208/510
f 159/206/508 160/209/511 165/210/512 164/207/509
f 160/209/511 161/211/513 166/212/514 165/210/512
f 161/211/513 162/213/515 167/214/516 166/212/514
s 10
f 174/215/517 175/216/518 169/217/519 168/218/520
f 175/216/518 176/219/521 170/220/522 169/217/519
f 176/219/521 177/221/523 171/222/524 170/220/522
f 177/221/523 178/223/525 172/224/526 171/222/524
s 11
f 168/218/527 169/217/528 154/225/529 153/226/530
f 169/217/528 170/220/531 155/227/532 154/225/529
f 170/220/531 171/222/533 156/228/534 155/227/532
f 171/222/533 172/224/535 157/229/536 156/228/534
s 12
f 157/203/537 172/230/538 178/231/539 179/204/540
s 13
f 168/232/541 153/195/542 173/198/543 174/233/544
f 183/234/545 184/235/546 158/205/547 163/236/548
s 10
f 163/208/549 164/207/550 192/237/551 183/238/552
f 164/207/550 165/210/553 191/239/554 192/237/551
f 165/210/553 166/212/555 190/240/556 191/239/554
f 166/212/555 167/214/557 189/241/558 190/240/556
s 12
f 188/242/559 189/243/560 167/244/561 162/213/562
s 8
f 187/245/563 188/242/564 162/213/565 161/211/566
f 186/246/567 187/245/563 161/211/566 160/209/568
f 185/247/569 186/246/567 160/209/568 159/206/570
f 184/235/571 185/247/569 159/206/570 158/205/572
s 13
f 174/233/544 173/198/543 184/235/546 183/234/545
s 8
f 173/198/500 182/197/499 185/247/569 184/235/571
f 182/197/499 181/200/502 186/246/567 185/247/569
f 181/200/502 180/202/504 187/245/563 186/246/567
f 180/202/504 179/204/506 188/242/564 187/245/563
s 12
f 179/204/540 178/231/539 189/243/560 188/242/559
s 10
f 190/240/556 189/241/558 178/223/525 177/221/523
f 191/239/554 190/240/556 177/221/523 176/219/521
f 192/237/551 191/239/554 176/219/521 175/216/518
f 183/238/552 192/237/551 175/216/518 174/215/517
s 15
f 193/248/573 194/249/574 222/250/575 213/251/576
f 194/249/574 195/252/577 221/253/578 222/250/575
f 195/252/577 196/254/579 220/255/580 221/253/578
f 196/254/579 197/256/581 219/257/582 220/255/580
s 16
f 198/258/583 199/259/584 204/260/585 203/261/586
f 199/259/584 200/262/587 205/263/588 204/260/585
f 200/262/587 201/264/589 206/265/590 205/263/588
f 201/264/589 202/266/591 207/267/592 206/265/590
s 17
f 214/268/593 215/269/594 209/270/595 208/271/596
f 215/269/594 216/272/597 210/273/598 209/270/595
f 216/272/597 217/274/599 211/275/600 210/273/598
f 217/274/599 218/276/601 212/277/602 211/275/600
s 18
f 208/271/603 209/270/604 194/278/605 193/279/606
f 209/270/604 210/273/607 195/280/608 194/278/605
f 210/273/607 211/275/609 196/281/610 195/280/608
f 211/275/609 212/277/611 197/282/612 196/281/610
s 19
f 197/256/613 212/283/614 218/284/615 219/257/616
s 20
f 208/285/617 193/248/618 213/251/619 214/286/620
f 223/287/621 224/288/622 198/258/623 203/289/624
s 17
f 203/261/625 204/260/626 232/290/627 223/291/628
f 204/260/626 205/263/629 231/292/630 232/290/627
f 205/263/629 206/265/631 230/293/632 231/292/630
f 206/265/631 207/267/633 229/294/634 230/293/632
s 19
f 228/295/635 229/296/636 207/297/637 202/266/638
s 15
f 227/298/639 228/295/640 202/266/641 201/264/642
f 226/299/643 227/298/639 201/264/642 200/262/644
f 225/300/645 226/299/643 200/262/644 199/259/646
f 224/288/647 225/300/645 199/259/646 198/258/648
s 20
f 214/286/620 213/251/619 224/288/622 223/287/621
s 15
f 213/251/576 222/250/575 225/300/645 224/288/647
f 222/250/575 221/253/578 226/299/643 225/300/645
f 221/253/578 220/255/580 227/298/639 226/299/643
f 220/255/580 219/257/582 228/295/640 227/298/639
s 19
f 219/257/616 218/284/615 229/296/636 228/295/635
s 17
f 230/293/632 229/294/634 218/276/601 217/274/599
f 231/292/630 230/293/632 217/274/599 216/272/597
f 232/290/627 231/292/630 216/272/597 215/269/594
f 223/291/628 232/290/627 215/269/594 214/268/593
s 22
f 233/301/649 234/302/650 262/303/651 253/304/652
f 234/302/650 235/305/653 261/306/654 262/303/651
f 235/305/653 236/307/655 260/308/656 261/306/654
f 236/307/655 237/309/657 259/310/658 260/308/656
s 23
f 238/311/659 239/312/660 244/313/661 243/314/662
f 239/312/660 240/315/663 245/316/664 244/313/661
f 240/315/663 241/317/665 246/318/666 245/316/664
f 241/317/665 242/319/667 247/320/668 246/318/666
s 24
f 254/321/669 255/322/670 249/323/671 248/324/672
f 255/322/670 256/325/673 250/326/674 249/323/671
f 256/325/673 257/327/675 251/328/676 250/326/674
f 257/327/675 258/329/677 252/330/678 251/328/676
s 25
f 248/324/679 249/323/680 234/331/681 233/332/682
f 249/323/680 250/326/683 235/333/684 234/331/681
f 250/326/683 251/328/685 236/334/686 235/333/684
f 251/328/685 252/330/687 237/335/688 236/334/686
s 26
f 237/309/689 252/336/690 258/337/691 259/310/692
s 27
f 248/338/693 233/301/694 253/304/695 254/339/696
f 263/340/697 264/341/698 238/311/699 243/342/700
s 24
f 243/314/701 244/313/702 272/343/703 263/344/704
f 244/313/702 245/316/705 271/345/706 272/343/703
f 245/316/705 246/318/707 270/346/708 271/345/706
f 246/318/707 247/320/709 269/347/710 270/346/708
s 26
f 268/348/711 269/349/712 247/350/713 242/319/714
s 22
f 267/351/715 268/348/716 242/319/717 241/317/718
f 266/352/719 267/351/715 241/317/718 240/315/720
f 265/353/721 266/352/719 240/315/720 239/312/722
f 264/341/723 265/353/721 239/312/722 238/311/724
s 27
f 254/339/696 253/304/695 264/341/698 263/340/697
s 22
f 253/304/652 262/303/651 265/353/721 264/341/723
f 262/303/651 261/306/654 266/352/719 265/353/721
f 261/306/654 260/308/656 267/351/715 266/352/719
f 260/308/656 259/310/658 268/348/716 267/351/715
s 26
f 259/310/692 258/337/691 269/349/712 268/348/711
s 24
f 270/346/708 269/347/710 258/329/677 257/327/675
f 271/345/706 270/346/708 257/327/675 256/325/673
f 272/343/703 271/345/706 256/325/673 255/322/670
f 263/344/704 272/343/703 255/322/670 254/321/669
