# This file uses centimeters as units for non-parametric coordinates.

mtllib bedV1.mtl
g default
v -0.960096 -0.008244 0.661315
v -0.855581 -0.008244 0.661315
v -0.751066 -0.008244 0.661315
v -0.646551 -0.008244 0.661315
v -0.542036 -0.008244 0.661315
v -0.437521 -0.008244 0.661315
v -0.333006 -0.008244 0.661315
v -0.960096 0.054758 0.661315
v -0.855581 0.054758 0.661315
v -0.751066 0.054758 0.661315
v -0.646551 0.054758 0.661315
v -0.542036 0.054758 0.661315
v -0.437521 0.054758 0.661315
v -0.333006 0.054758 0.661315
v -0.960096 0.054758 0.529052
v -0.333006 0.054758 0.529052
v -0.960096 0.054758 0.396789
v -0.333006 0.054758 0.396789
v -0.960096 0.054758 0.264526
v -0.333006 0.054758 0.264526
v -0.960096 0.054758 0.132263
v -0.333006 0.054758 0.132263
v -0.960096 0.054758 0.000000
v -0.333006 0.054758 0.000000
v -0.960096 0.054758 -0.132263
v -0.333006 0.054758 -0.132263
v -0.960096 0.054758 -0.264526
v -0.855581 0.054758 -0.264526
v -0.751066 0.054758 -0.264526
v -0.646551 0.054758 -0.264526
v -0.542036 0.054758 -0.264526
v -0.437521 0.054758 -0.264526
v -0.333006 0.054758 -0.264526
v -0.960096 0.054758 -0.396789
v -0.855581 0.054758 -0.396789
v -0.751066 0.054758 -0.396789
v -0.646551 0.054758 -0.396789
v -0.542036 0.054758 -0.396789
v -0.437521 0.054758 -0.396789
v -0.333006 0.054758 -0.396789
v -0.960096 0.054758 -0.529052
v -0.855581 0.054758 -0.529052
v -0.437521 0.054758 -0.529052
v -0.333006 0.054758 -0.529052
v -0.960096 0.054758 -0.661315
v -0.855581 0.054758 -0.661315
v -0.751066 0.054758 -0.661315
v -0.646551 0.054758 -0.661315
v -0.542036 0.054758 -0.661315
v -0.437521 0.054758 -0.661315
v -0.333006 0.054758 -0.661315
v -0.960096 -0.008244 -0.661315
v -0.855581 -0.008244 -0.661315
v -0.751066 -0.008244 -0.661315
v -0.646551 -0.008244 -0.661315
v -0.542036 -0.008244 -0.661315
v -0.437521 -0.008244 -0.661315
v -0.333006 -0.008244 -0.661315
v -0.960096 -0.008244 -0.529052
v -0.855581 -0.008244 -0.529052
v -0.751066 -0.008244 -0.529052
v -0.646551 -0.008244 -0.529052
v -0.542036 -0.008244 -0.529052
v -0.437521 -0.008244 -0.529052
v -0.333006 -0.008244 -0.529052
v -0.960096 -0.008244 -0.396789
v -0.855581 -0.008244 -0.396789
v -0.751066 -0.008244 -0.396789
v -0.646551 -0.008244 -0.396789
v -0.542036 -0.008244 -0.396789
v -0.437521 -0.008244 -0.396789
v -0.333006 -0.008244 -0.396789
v -0.960096 -0.008244 -0.264526
v -0.855581 -0.008244 -0.264526
v -0.751066 -0.008244 -0.264526
v -0.646551 -0.008244 -0.264526
v -0.542036 -0.008244 -0.264526
v -0.437521 -0.008244 -0.264526
v -0.333006 -0.008244 -0.264526
v -0.960096 -0.008244 -0.132263
v -0.855581 -0.008244 -0.132263
v -0.751066 -0.008244 -0.132263
v -0.646551 -0.008244 -0.132263
v -0.542036 -0.008244 -0.132263
v -0.437521 -0.008244 -0.132263
v -0.333006 -0.008244 -0.132263
v -0.960096 -0.008244 -0.000000
v -0.855581 -0.008244 -0.000000
v -0.751066 -0.008244 -0.000000
v -0.646551 -0.008244 -0.000000
v -0.542036 -0.008244 -0.000000
v -0.437521 -0.008244 -0.000000
v -0.333006 -0.008244 -0.000000
v -0.960096 -0.008244 0.132263
v -0.855581 -0.008244 0.132263
v -0.751066 -0.008244 0.132263
v -0.646551 -0.008244 0.132263
v -0.542036 -0.008244 0.132263
v -0.437521 -0.008244 0.132263
v -0.333006 -0.008244 0.132263
v -0.960096 -0.008244 0.264526
v -0.855581 -0.008244 0.264526
v -0.751066 -0.008244 0.264526
v -0.646551 -0.008244 0.264526
v -0.542036 -0.008244 0.264526
v -0.437521 -0.008244 0.264526
v -0.333006 -0.008244 0.264526
v -0.960096 -0.008244 0.396789
v -0.855581 -0.008244 0.396789
v -0.751066 -0.008244 0.396789
v -0.646551 -0.008244 0.396789
v -0.542036 -0.008244 0.396789
v -0.437521 -0.008244 0.396789
v -0.333006 -0.008244 0.396789
v -0.960096 -0.008244 0.529052
v -0.855581 -0.008244 0.529052
v -0.751066 -0.008244 0.529052
v -0.646551 -0.008244 0.529052
v -0.542036 -0.008244 0.529052
v -0.437521 -0.008244 0.529052
v -0.333006 -0.008244 0.529052
v -0.900730 0.108017 0.529052
v -0.773640 0.082773 0.529052
v -0.646551 0.108017 0.529052
v -0.519462 0.082773 0.529052
v -0.392372 0.108017 0.529052
v -0.900730 0.108017 0.396789
v -0.773640 0.108017 0.396789
v -0.646551 0.108017 0.396789
v -0.519462 0.108017 0.396789
v -0.392372 0.108017 0.396789
v -0.900730 0.108017 0.264526
v -0.773640 0.082773 0.264526
v -0.646551 0.108017 0.264526
v -0.519462 0.082773 0.264526
v -0.392372 0.108017 0.264526
v -0.900730 0.108017 0.132263
v -0.773640 0.108017 0.132263
v -0.646551 0.108017 0.132263
v -0.519462 0.108017 0.132263
v -0.392372 0.108017 0.132263
v -0.900730 0.108017 0.000000
v -0.773640 0.082773 0.000000
v -0.646551 0.108017 0.000000
v -0.519462 0.082773 0.000000
v -0.392372 0.108017 0.000000
v -0.900730 0.108017 -0.132263
v -0.773640 0.108017 -0.132263
v -0.646551 0.108017 -0.132263
v -0.519462 0.108017 -0.132263
v -0.392372 0.108017 -0.132263
v -1.004938 0.069876 0.661290
v -0.986834 0.108017 0.638510
v -0.900730 0.088218 0.621104
v -0.899646 0.073262 0.688994
v -1.013387 0.081124 0.547080
v -0.977680 0.087225 0.529052
v -0.773640 0.108017 0.640586
v -0.772205 0.071154 0.704151
v -0.646551 0.088218 0.623583
v -0.646551 0.070268 0.704151
v -0.519462 0.108017 0.640586
v -0.520897 0.071154 0.704151
v -0.392372 0.088218 0.621104
v -0.393456 0.073262 0.687985
v -0.306268 0.108017 0.638510
v -0.293047 0.075058 0.656279
v -0.325995 0.108017 0.529052
v -0.279715 0.065501 0.547080
v -1.013387 0.081124 0.407421
v -0.984745 0.108017 0.396789
v -0.308357 0.108017 0.396789
v -0.279715 0.065501 0.407421
v -1.013387 0.081124 0.267763
v -0.977680 0.087225 0.264526
v -0.315413 0.080590 0.264526
v -0.279715 0.065501 0.267763
v -1.013387 0.081124 0.128104
v -0.984745 0.108017 0.132263
v -0.308357 0.108017 0.132263
v -0.279715 0.065501 0.128104
v -1.013387 0.081124 -0.011555
v -0.977680 0.087225 0.000000
v -0.315413 0.080590 0.000000
v -0.279715 0.065501 -0.011555
v -1.013387 0.081124 -0.151213
v -0.984745 0.108017 -0.132263
v -0.308357 0.108017 -0.132263
v -0.279715 0.065501 -0.151213
v -0.899646 0.091195 -0.290872
v -0.900730 0.090660 -0.232606
v -0.986834 0.108017 -0.241721
v -0.999135 0.060396 -0.269720
v -0.772205 0.089087 -0.290872
v -0.773640 0.108017 -0.243797
v -0.646551 0.088201 -0.290872
v -0.646551 0.090660 -0.235085
v -0.520897 0.089087 -0.290872
v -0.519462 0.108017 -0.243797
v -0.393456 0.091195 -0.290872
v -0.392372 0.090660 -0.232606
v -0.308240 0.108017 -0.240623
v -0.293924 0.052827 -0.262583
v -0.894252 0.096582 -0.372320
v -0.770401 0.096582 -0.372320
v -0.865208 0.096582 -0.529052
v -0.646551 0.096582 -0.372320
v -0.522701 0.096582 -0.372320
v -0.398850 0.096582 -0.372320
v -0.421481 0.096582 -0.529052
v -0.770401 0.096582 -0.685783
v -0.894252 0.096582 -0.685783
v -0.646551 0.096582 -0.664884
v -0.522701 0.096582 -0.685783
v -0.398850 0.096582 -0.685783
v -0.855581 0.143257 -0.396789
v -0.756297 0.126571 -0.410650
v -0.751066 0.137854 -0.529052
v -0.855581 0.143257 -0.529052
v -0.651781 0.115215 -0.410650
v -0.651781 0.126571 -0.542913
v -0.547266 0.126571 -0.410650
v -0.542036 0.135371 -0.529052
v -0.437521 0.143257 -0.396789
v -0.437521 0.143257 -0.529052
v -0.751066 0.143257 -0.661315
v -0.855581 0.143257 -0.661315
v -0.646551 0.143257 -0.653820
v -0.542036 0.143257 -0.661315
v -0.437521 0.143257 -0.661315
vt 0.466605 0.234559
vt 0.491367 0.226202
vt 0.521412 0.221488
vt 0.551573 0.222125
vt 0.581876 0.225176
vt 0.611408 0.233794
vt 0.635805 0.247066
vt 0.512786 0.325343
vt 0.544208 0.327347
vt 0.575582 0.329475
vt 0.510165 0.358582
vt 0.541973 0.360431
vt 0.573752 0.362693
vt 0.508327 0.391738
vt 0.539757 0.393621
vt 0.571143 0.395726
vt 0.506252 0.424943
vt 0.537630 0.426743
vt 0.569118 0.428730
vt 0.445253 0.540467
vt 0.472653 0.544152
vt 0.503882 0.537398
vt 0.531768 0.537347
vt 0.559542 0.539227
vt 0.589316 0.547920
vt 0.616373 0.546280
vt 0.438113 0.581246
vt 0.462029 0.583880
vt 0.506391 0.585458
vt 0.527825 0.588114
vt 0.551450 0.586648
vt 0.596609 0.586614
vt 0.620865 0.587422
vt 0.440866 0.625154
vt 0.467852 0.624813
vt 0.498743 0.634329
vt 0.527038 0.635182
vt 0.555424 0.634961
vt 0.588049 0.625866
vt 0.615317 0.627471
vt 0.442956 0.644488
vt 0.469803 0.643133
vt 0.498661 0.647951
vt 0.527715 0.648847
vt 0.557122 0.647402
vt 0.586321 0.642967
vt 0.612073 0.645648
vt 0.446732 0.681243
vt 0.472988 0.678894
vt 0.500375 0.679278
vt 0.528237 0.679030
vt 0.555974 0.678034
vt 0.582483 0.677546
vt 0.608573 0.679434
vt 0.449468 0.715801
vt 0.475550 0.713283
vt 0.502103 0.712067
vt 0.528860 0.711202
vt 0.555408 0.710602
vt 0.581593 0.710514
vt 0.607734 0.711297
vt 0.451593 0.749648
vt 0.477598 0.747182
vt 0.503750 0.745418
vt 0.529973 0.744181
vt 0.556148 0.743376
vt 0.582266 0.742959
vt 0.608412 0.742889
vt 0.453566 0.783409
vt 0.479547 0.780906
vt 0.505572 0.778861
vt 0.531637 0.777290
vt 0.557722 0.776130
vt 0.583826 0.775286
vt 0.609961 0.774641
vt 0.455731 0.817218
vt 0.481706 0.814526
vt 0.507719 0.812219
vt 0.533769 0.810342
vt 0.559847 0.808849
vt 0.585947 0.807644
vt 0.612066 0.806608
vt 0.458263 0.851035
vt 0.484226 0.848034
vt 0.510250 0.845443
vt 0.536309 0.843301
vt 0.562382 0.841553
vt 0.588464 0.840087
vt 0.614562 0.838779
vt 0.461236 0.884784
vt 0.487164 0.881390
vt 0.513175 0.878515
vt 0.539206 0.876176
vt 0.565230 0.874274
vt 0.591259 0.872652
vt 0.617323 0.871154
vt 0.464704 0.918381
vt 0.490560 0.914537
vt 0.516480 0.911425
vt 0.542378 0.908998
vt 0.568266 0.907053
vt 0.594188 0.905370
vt 0.620202 0.903745
vt 0.468781 0.951701
vt 0.494504 0.947403
vt 0.520095 0.944223
vt 0.545656 0.941830
vt 0.571281 0.939932
vt 0.597042 0.938259
vt 0.623001 0.936548
vt 0.473809 0.984294
vt 0.499005 0.980143
vt 0.523800 0.977070
vt 0.548680 0.974769
vt 0.573881 0.972934
vt 0.599496 0.971272
vt 0.625491 0.969453
vt 0.928495 0.100435
vt 0.898868 0.115054
vt 0.869172 0.129728
vt 0.839579 0.144620
vt 0.810087 0.159692
vt 0.780678 0.174906
vt 0.751336 0.190235
vt 0.722051 0.205658
vt 0.692835 0.221153
vt 0.663855 0.236571
vt 0.935504 0.114524
vt 0.905824 0.129210
vt 0.876205 0.143826
vt 0.846706 0.158670
vt 0.817292 0.173702
vt 0.787946 0.188884
vt 0.758654 0.204187
vt 0.729407 0.219589
vt 0.700170 0.235067
vt 0.670598 0.250438
vt 0.227383 0.010824
vt 0.252463 0.032638
vt 0.276960 0.055038
vt 0.301176 0.077683
vt 0.325189 0.100513
vt 0.349047 0.123487
vt 0.372780 0.146577
vt 0.396414 0.169757
vt 0.419967 0.192970
vt 0.443464 0.215763
vt 0.217146 0.022724
vt 0.241931 0.044377
vt 0.266262 0.066608
vt 0.290365 0.089146
vt 0.314295 0.111896
vt 0.338087 0.134808
vt 0.361769 0.157848
vt 0.385362 0.180991
vt 0.408905 0.204233
vt 0.432796 0.227596
vt 0.455834 0.480909
vt 0.467483 0.265586
vt 0.484793 0.267560
vt 0.483443 0.291396
vt 0.516056 0.264743
vt 0.548220 0.269306
vt 0.515000 0.291884
vt 0.580682 0.268971
vt 0.546412 0.294203
vt 0.611103 0.275805
vt 0.577858 0.296094
vt 0.628317 0.277334
vt 0.625418 0.302038
vt 0.463664 0.290589
vt 0.481306 0.324265
vt 0.609095 0.299925
vt 0.627086 0.334623
vt 0.460673 0.323369
vt 0.478014 0.357399
vt 0.606826 0.332407
vt 0.626840 0.367993
vt 0.457739 0.356711
vt 0.476696 0.390641
vt 0.605847 0.365624
vt 0.622738 0.400858
vt 0.455979 0.390244
vt 0.474495 0.423664
vt 0.602485 0.398607
vt 0.622020 0.434201
vt 0.454150 0.423692
vt 0.601008 0.431508
vt 0.616137 0.466059
vt 0.454818 0.456581
vt 0.474859 0.456915
vt 0.504832 0.458044
vt 0.472208 0.482758
vt 0.535363 0.460042
vt 0.501258 0.485805
vt 0.566100 0.461410
vt 0.533482 0.485202
vt 0.596163 0.463937
vt 0.565724 0.488943
vt 0.611780 0.488620
vt 0.595619 0.489391
vt 0.492302 0.240544
vt 0.461174 0.256989
vt 0.461270 0.249901
vt 0.455395 0.285338
vt 0.521830 0.236619
vt 0.481686 0.250583
vt 0.550777 0.237712
vt 0.516192 0.247242
vt 0.579672 0.240329
vt 0.549854 0.248943
vt 0.608462 0.248701
vt 0.583371 0.251606
vt 0.637120 0.263443
vt 0.616984 0.260179
vt 0.654357 0.302046
vt 0.634978 0.271059
vt 0.439643 0.287089
vt 0.451143 0.320197
vt 0.653100 0.337074
vt 0.640693 0.298401
vt 0.436066 0.322138
vt 0.448647 0.355558
vt 0.650297 0.370363
vt 0.639829 0.333264
vt 0.433692 0.356182
vt 0.446188 0.391150
vt 0.648627 0.403904
vt 0.636730 0.368250
vt 0.431443 0.390093
vt 0.444885 0.427002
vt 0.645367 0.437695
vt 0.635100 0.403407
vt 0.430055 0.424588
vt 0.445112 0.461900
vt 0.641579 0.473781
vt 0.631561 0.438720
vt 0.449068 0.499173
vt 0.469242 0.497011
vt 0.430046 0.460801
vt 0.450323 0.493244
vt 0.476250 0.508620
vt 0.499983 0.498121
vt 0.503738 0.508220
vt 0.532352 0.498360
vt 0.531564 0.508125
vt 0.564868 0.500856
vt 0.559193 0.510105
vt 0.596726 0.503618
vt 0.615334 0.507030
vt 0.628033 0.473303
vt 0.587243 0.513807
vt 0.616194 0.501655
vt 0.479236 0.549537
vt 0.501118 0.547444
vt 0.470532 0.584253
vt 0.531026 0.547771
vt 0.560687 0.549169
vt 0.582015 0.552704
vt 0.587678 0.586642
vt 0.496346 0.624579
vt 0.474510 0.619632
vt 0.527493 0.626074
vt 0.559122 0.625530
vt 0.581265 0.620773
vt 0.486887 0.559889
vt 0.505930 0.558463
vt 0.482319 0.584750
vt 0.529277 0.557361
vt 0.552610 0.559509
vt 0.573203 0.562336
vt 0.575525 0.586692
vt 0.504963 0.614184
vt 0.484142 0.611174
vt 0.527984 0.614518
vt 0.551055 0.615056
vt 0.572048 0.612402
vn 0.000000 0.000000 1.000000
vn 0.000000 0.000000 1.000000
vn -0.020365 -0.368155 0.929541
vn -0.027258 -0.268891 0.962785
vn 0.000000 0.000000 1.000000
vn -0.009095 -0.480980 0.876685
vn 0.000000 0.000000 1.000000
vn 0.000000 -0.505437 0.862863
vn 0.000000 0.000000 1.000000
vn 0.009496 -0.479443 0.877521
vn 0.000000 0.000000 1.000000
vn 0.025918 -0.352267 0.935540
vn 0.000000 0.000000 1.000000
vn 0.039602 -0.221457 0.974366
vn 0.011179 0.997528 0.069370
vn -0.000000 0.999074 0.043016
vn 0.000000 1.000000 0.000000
vn 0.010723 0.999943 0.000000
vn 0.000000 0.997515 0.070453
vn 0.000000 1.000000 0.000000
vn 0.000000 0.999074 0.043016
vn 0.000000 1.000000 0.000000
vn -0.073600 0.995453 0.060473
vn -0.028116 0.999379 -0.021240
vn 0.000000 1.000000 0.000000
vn 0.010723 0.999943 0.000000
vn 0.000000 1.000000 0.000000
vn 0.000000 1.000000 0.000000
vn 0.005258 0.999986 0.000000
vn 0.000000 1.000000 0.000000
vn 0.010723 0.999943 0.000000
vn -0.000000 1.000000 0.000000
vn 0.000000 1.000000 0.000000
vn 0.005258 0.999986 0.000000
vn 0.000000 1.000000 0.000000
vn 0.010723 0.999943 0.000000
vn -0.000000 1.000000 0.000000
vn 0.000000 1.000000 0.000000
vn 0.005258 0.999986 0.000000
vn 0.000000 0.999864 0.016509
vn 0.005545 0.999905 0.012587
vn -0.000000 0.999864 0.016467
vn -0.000000 0.999864 0.016509
vn 0.003459 0.999821 0.018574
vn 0.000000 1.000000 0.000000
vn 0.000000 1.000000 0.000000
vn 0.000000 1.000000 0.000000
vn 0.000000 1.000000 0.000000
vn 0.000000 1.000000 0.000000
vn 0.000000 1.000000 0.000000
vn 0.000000 1.000000 0.000000
vn 0.000000 1.000000 0.000000
vn 0.000000 1.000000 0.000000
vn 0.000000 1.000000 0.000000
vn 0.000000 1.000000 0.000000
vn 0.000000 1.000000 0.000000
vn 0.000000 1.000000 0.000000
vn 0.000000 1.000000 0.000000
vn 0.000000 1.000000 0.000000
vn 0.000000 1.000000 0.000000
vn 0.110796 0.992732 0.046996
vn 0.114797 0.990116 0.080577
vn 0.076048 0.995178 0.061952
vn 0.066815 0.997211 0.033248
vn 0.006246 0.996357 0.085051
vn 0.007711 0.996067 0.088269
vn -0.102860 0.992490 0.066200
vn -0.076408 0.995233 0.060615
vn -0.115949 0.992726 0.032430
vn -0.076453 0.996588 0.031114
vn 0.000000 1.000000 0.000000
vn 0.000000 1.000000 0.000000
vn 0.000000 1.000000 0.000000
vn 0.000000 1.000000 0.000000
vn 0.040925 0.997709 0.053867
vn 0.025835 0.999458 0.020415
vn 0.004793 0.995386 0.095832
vn -0.040656 0.997153 0.063505
vn -0.037686 0.998846 0.029779
vn 0.000000 1.000000 0.000000
vn 0.000000 1.000000 0.000000
vn 0.000000 0.000000 -1.000000
vn 0.000000 0.000000 -1.000000
vn 0.000000 0.000000 -1.000000
vn 0.000000 0.000000 -1.000000
vn 0.000000 0.000000 -1.000000
vn 0.000000 0.000000 -1.000000
vn 0.000000 0.000000 -1.000000
vn 0.000000 0.000000 -1.000000
vn 0.000000 0.000000 -1.000000
vn 0.000000 0.000000 -1.000000
vn 0.000000 0.000000 -1.000000
vn 0.000000 0.000000 -1.000000
vn 0.000000 0.000000 -1.000000
vn 0.000000 0.000000 -1.000000
vn 0.000000 -1.000000 0.000000
vn 0.000000 -1.000000 0.000000
vn 0.000000 -1.000000 0.000000
vn 0.000000 -1.000000 0.000000
vn 0.000000 -1.000000 0.000000
vn 0.000000 -1.000000 0.000000
vn 0.000000 -1.000000 0.000000
vn 0.000000 -1.000000 0.000000
vn 0.000000 -1.000000 0.000000
vn 0.000000 -1.000000 0.000000
vn 0.000000 -1.000000 0.000000
vn 0.000000 -1.000000 0.000000
vn 0.000000 -1.000000 0.000000
vn 0.000000 -1.000000 0.000000
vn 0.000000 -1.000000 0.000000
vn 0.000000 -1.000000 0.000000
vn 0.000000 -1.000000 0.000000
vn 0.000000 -1.000000 0.000000
vn 0.000000 -1.000000 0.000000
vn 0.000000 -1.000000 0.000000
vn 0.000000 -1.000000 0.000000
vn 0.000000 -1.000000 0.000000
vn 0.000000 -1.000000 0.000000
vn 0.000000 -1.000000 0.000000
vn 0.000000 -1.000000 0.000000
vn 0.000000 -1.000000 0.000000
vn 0.000000 -1.000000 0.000000
vn 0.000000 -1.000000 0.000000
vn 0.000000 -1.000000 0.000000
vn 0.000000 -1.000000 0.000000
vn 0.000000 -1.000000 0.000000
vn 0.000000 -1.000000 0.000000
vn 0.000000 -1.000000 0.000000
vn 0.000000 -1.000000 0.000000
vn 0.000000 -1.000000 0.000000
vn 0.000000 -1.000000 0.000000
vn 0.000000 -1.000000 0.000000
vn 0.000000 -1.000000 0.000000
vn 0.000000 -1.000000 0.000000
vn 0.000000 -1.000000 0.000000
vn 0.000000 -1.000000 0.000000
vn 0.000000 -1.000000 0.000000
vn 0.000000 -1.000000 0.000000
vn 0.000000 -1.000000 0.000000
vn 0.000000 -1.000000 0.000000
vn 0.000000 -1.000000 0.000000
vn 0.000000 -1.000000 0.000000
vn 0.000000 -1.000000 0.000000
vn 0.000000 -1.000000 0.000000
vn 0.000000 -1.000000 0.000000
vn 0.000000 -1.000000 0.000000
vn 0.000000 -1.000000 0.000000
vn 0.000000 -1.000000 0.000000
vn 0.000000 -1.000000 0.000000
vn 0.000000 -1.000000 0.000000
vn 0.000000 -1.000000 0.000000
vn 0.000000 -1.000000 0.000000
vn 0.000000 -1.000000 0.000000
vn 0.000000 -1.000000 0.000000
vn 0.000000 -1.000000 0.000000
vn 0.000000 -1.000000 0.000000
vn 0.000000 -1.000000 0.000000
vn 0.000000 -1.000000 0.000000
vn 0.000000 -1.000000 0.000000
vn 0.000000 -1.000000 0.000000
vn 0.000000 -1.000000 0.000000
vn 0.000000 -1.000000 0.000000
vn 0.000000 -1.000000 0.000000
vn 0.000000 -1.000000 0.000000
vn 0.000000 -1.000000 0.000000
vn 0.000000 -1.000000 0.000000
vn 0.000000 -1.000000 0.000000
vn 0.000000 -1.000000 0.000000
vn 0.000000 -1.000000 0.000000
vn 0.000000 -1.000000 0.000000
vn 0.000000 -1.000000 0.000000
vn 0.000000 -1.000000 0.000000
vn 1.000000 0.000000 0.000000
vn 1.000000 0.000000 0.000000
vn 1.000000 0.000000 0.000000
vn 1.000000 0.000000 0.000000
vn 1.000000 0.000000 0.000000
vn 1.000000 0.000000 0.000000
vn 1.000000 0.000000 0.000000
vn 1.000000 0.000000 0.000000
vn 1.000000 0.000000 0.000000
vn 1.000000 0.000000 0.000000
vn 1.000000 0.000000 0.000000
vn 1.000000 0.000000 0.000000
vn 1.000000 0.000000 0.000000
vn 1.000000 0.000000 0.000000
vn 1.000000 0.000000 0.000000
vn 1.000000 0.000000 0.000000
vn 1.000000 0.000000 0.000000
vn 1.000000 0.000000 0.000000
vn 1.000000 0.000000 0.000000
vn 1.000000 0.000000 0.000000
vn 1.000000 0.000000 0.000000
vn 1.000000 0.000000 0.000000
vn -1.000000 0.000000 0.000000
vn -1.000000 0.000000 0.000000
vn -1.000000 0.000000 0.000000
vn -1.000000 0.000000 0.000000
vn -1.000000 0.000000 0.000000
vn -1.000000 0.000000 0.000000
vn -1.000000 0.000000 0.000000
vn -1.000000 0.000000 0.000000
vn -1.000000 0.000000 0.000000
vn -1.000000 0.000000 0.000000
vn -1.000000 0.000000 0.000000
vn -1.000000 0.000000 0.000000
vn -1.000000 0.000000 0.000000
vn -1.000000 0.000000 0.000000
vn -1.000000 0.000000 0.000000
vn -1.000000 0.000000 0.000000
vn -1.000000 0.000000 0.000000
vn -1.000000 0.000000 0.000000
vn -1.000000 0.000000 0.000000
vn -1.000000 0.000000 0.000000
vn -1.000000 0.000000 0.000000
vn -1.000000 0.000000 0.000000
vn -0.650166 0.759012 -0.034439
vn -0.650166 0.759012 -0.034439
vn -0.529465 0.847788 0.030369
vn -0.561681 0.827238 0.013871
vn 0.046088 0.858206 0.511233
vn 0.046088 0.858206 0.511233
vn -0.054685 0.904574 0.422796
vn -0.054304 0.904432 0.423149
vn 0.005831 0.932638 0.360767
vn -0.003565 0.932410 0.361385
vn -0.450069 0.892984 -0.004177
vn -0.448724 0.893670 0.000953
vn 0.000000 0.935023 0.354588
vn 0.000000 0.935023 0.354588
vn -0.005437 0.932225 0.361838
vn 0.004041 0.931951 0.362563
vn 0.065294 0.910697 0.407882
vn 0.053316 0.907379 0.416919
vn -0.061911 0.864753 0.498366
vn -0.061911 0.864753 0.498366
vn 0.795660 0.603705 -0.049654
vn 0.795660 0.603705 -0.049654
vn 0.752287 0.658146 0.030137
vn 0.764442 0.644625 0.009308
vn 0.715378 0.698639 -0.011738
vn 0.735072 0.677193 0.032839
vn -0.463489 0.886103 0.000340
vn -0.463603 0.886042 -0.001106
vn 0.672924 0.739711 -0.000583
vn 0.672880 0.739752 0.000218
vn -0.449142 0.893459 0.001635
vn -0.448936 0.893564 -0.000373
vn 0.661074 0.750320 -0.000275
vn 0.661212 0.750197 0.001639
vn -0.463174 0.886267 -0.001208
vn -0.464627 0.885498 0.003942
vn 0.673300 0.739366 0.002079
vn 0.672739 0.739880 -0.000777
vn -0.793665 0.605339 -0.060500
vn -0.740347 0.671476 -0.031725
vn 0.836788 0.547196 -0.019015
vn 0.876494 0.477996 -0.057251
vn -0.846800 0.523752 -0.092804
vn -0.846801 0.523752 -0.092804
vn 0.899128 0.429847 -0.082461
vn 0.899128 0.429847 -0.082461
vn -0.077411 0.955721 -0.283910
vn -0.078616 0.951776 -0.296549
vn 0.003768 0.982215 -0.187724
vn 0.010504 0.981908 -0.189068
vn -0.093981 0.878959 -0.467546
vn -0.093981 0.878959 -0.467546
vn 0.000000 0.979273 -0.202543
vn 0.000000 0.979273 -0.202543
vn -0.003768 0.982215 -0.187724
vn -0.010504 0.981908 -0.189068
vn 0.104016 0.939120 -0.327466
vn 0.100103 0.945042 -0.311248
vn 0.154210 0.828204 -0.538793
vn 0.154210 0.828204 -0.538793
vn -0.006651 0.999964 -0.005232
vn 0.013581 0.999714 -0.019680
vn -0.076784 0.996042 0.044770
vn -0.000031 0.999647 -0.026575
vn 0.000000 0.999651 -0.026416
vn 0.000031 0.999647 -0.026575
vn -0.060567 0.998026 0.016612
vn -0.140360 0.983925 0.110413
vn -0.063222 0.996760 0.049733
vn -0.128108 0.991760 -0.000000
vn 0.094912 0.993658 -0.060289
vn -0.128108 0.991760 0.000000
vn 0.167959 0.985794 0.000000
vn -0.128108 0.991760 0.000000
vn 0.167959 0.985794 0.000000
vn -0.128108 0.991760 0.000000
vn 0.167959 0.985794 0.000000
vn -0.019013 0.999809 0.004540
vn 0.043712 0.998826 0.020871
vn -0.010934 0.996550 -0.082276
vn 0.105555 0.990941 -0.083034
vn 0.000126 0.996700 -0.081176
vn 0.000000 0.996738 -0.080710
vn -0.000126 0.996700 -0.081176
vn 0.012034 0.996554 -0.082074
vn -0.106222 0.990916 -0.082471
vn -0.053005 -0.848416 0.526670
vn -0.075512 -0.744896 0.662894
vn -0.421714 -0.906642 -0.012525
vn -0.393637 -0.918826 -0.028435
vn -0.393637 -0.918826 -0.028435
vn -0.433173 -0.901291 -0.005944
vn -0.021173 -0.922148 0.386258
vn 0.000000 -0.937411 0.348226
vn 0.022224 -0.921400 0.387980
vn 0.078737 -0.807987 0.583915
vn 0.119481 -0.668153 0.734367
vn 0.308537 -0.949643 0.054621
vn 0.245202 -0.969193 0.023237
vn 0.261045 -0.964827 0.031038
vn 0.308537 -0.949643 0.054621
vn -0.443446 -0.896301 0.000000
vn -0.443446 -0.896301 0.000000
vn 0.197626 -0.980277 0.000000
vn 0.197626 -0.980277 0.000000
vn -0.443447 -0.896301 0.000000
vn -0.443447 -0.896301 0.000000
vn 0.197626 -0.980277 0.000000
vn 0.197626 -0.980277 0.000000
vn -0.443447 -0.896301 0.000000
vn -0.443447 -0.896301 0.000000
vn 0.197626 -0.980277 0.000000
vn 0.197626 -0.980277 0.000000
vn -0.443446 -0.896301 0.000000
vn -0.443446 -0.896301 0.000000
vn 0.197626 -0.980277 0.000000
vn 0.197626 -0.980277 0.000000
vn -0.400374 -0.916015 0.024844
vn -0.429342 -0.903105 0.008216
vn 0.158841 -0.987123 0.018889
vn 0.175975 -0.984338 0.010567
vn -0.001282 -0.597467 -0.801893
vn 0.005886 -0.592318 -0.805683
vn 0.005886 -0.592318 -0.805683
vn -0.003340 -0.598935 -0.800791
vn -0.340511 -0.938437 0.058214
vn -0.340511 -0.938437 0.058214
vn -0.003873 -0.607536 -0.794283
vn -0.004104 -0.606504 -0.795070
vn 0.000000 -0.614253 -0.789109
vn 0.000000 -0.614253 -0.789109
vn 0.003873 -0.607536 -0.794283
vn 0.004104 -0.606504 -0.795070
vn 0.004663 -0.594251 -0.804266
vn 0.005106 -0.597713 -0.801694
vn 0.103205 -0.993611 0.045670
vn 0.103205 -0.993611 0.045670
vn 0.003165 -0.582477 -0.812841
vn 0.003165 -0.582477 -0.812841
vn 0.000000 -0.504963 0.863141
vn 0.000000 -0.504963 0.863141
vn 0.000000 -0.504963 0.863141
vn 0.000000 -0.504963 0.863141
vn -0.873574 -0.478707 -0.087793
vn -0.873574 -0.478707 -0.087793
vn -0.873574 -0.478707 -0.087793
vn -0.873574 -0.478707 -0.087793
vn 0.000000 -0.504963 0.863141
vn 0.000000 -0.504963 0.863141
vn 0.000000 -0.504963 0.863141
vn 0.000000 -0.504963 0.863141
vn 0.000000 -0.504963 0.863141
vn 0.000000 -0.504963 0.863141
vn 0.000000 -0.504963 0.863141
vn 0.000000 -0.504963 0.863141
vn 0.000000 -0.504963 0.863141
vn 0.000000 -0.504963 0.863141
vn 0.000000 -0.504963 0.863141
vn 0.000000 -0.504963 0.863141
vn 0.843806 -0.532565 -0.066076
vn 0.843806 -0.532565 -0.066076
vn 0.843806 -0.532565 -0.066076
vn 0.843806 -0.532565 -0.066076
vn 0.000000 -0.504963 -0.863141
vn 0.000000 -0.504963 -0.863141
vn 0.000000 -0.504963 -0.863141
vn 0.000000 -0.504963 -0.863141
vn -0.873574 -0.478707 0.087793
vn -0.873574 -0.478707 0.087793
vn -0.873574 -0.478707 0.087793
vn -0.873574 -0.478707 0.087793
vn 0.086981 -0.298469 -0.950447
vn 0.086981 -0.298469 -0.950447
vn 0.086981 -0.298469 -0.950447
vn 0.086981 -0.298469 -0.950447
vn -0.086981 -0.298469 -0.950447
vn -0.086981 -0.298469 -0.950447
vn -0.086981 -0.298469 -0.950447
vn -0.086981 -0.298469 -0.950447
vn 0.843806 -0.532565 0.066076
vn 0.843806 -0.532564 0.066076
vn 0.843806 -0.532565 0.066076
vn 0.843806 -0.532565 0.066076
vn 0.000000 -0.504963 -0.863141
vn 0.000000 -0.504963 -0.863141
vn 0.000000 -0.504963 -0.863141
vn 0.000000 -0.504963 -0.863141
vn 0.093974 0.591365 0.800910
vn 0.093974 0.591365 0.800910
vn 0.093974 0.591365 0.800910
vn 0.093974 0.591365 0.800910
vn -0.893991 0.438986 -0.089844
vn -0.893991 0.438986 -0.089844
vn -0.893991 0.438986 -0.089844
vn -0.893991 0.438986 -0.089844
vn 0.041847 0.841529 0.538589
vn 0.041847 0.841529 0.538588
vn 0.041847 0.841529 0.538589
vn 0.041847 0.841529 0.538589
vn -0.041589 0.836346 0.546622
vn -0.041589 0.836346 0.546622
vn -0.041589 0.836346 0.546622
vn -0.041589 0.836346 0.546622
vn -0.089641 0.585839 0.805455
vn -0.089641 0.585839 0.805455
vn -0.089641 0.585839 0.805455
vn -0.089641 0.585839 0.805454
vn 0.868421 0.491143 -0.068003
vn 0.868421 0.491143 -0.068003
vn 0.868421 0.491143 -0.068003
vn 0.868421 0.491143 -0.068003
vn 0.000000 0.464303 -0.885677
vn 0.000000 0.464302 -0.885677
vn 0.000000 0.464303 -0.885677
vn 0.000000 0.464303 -0.885677
vn -0.893991 0.438986 0.089845
vn -0.893991 0.438986 0.089845
vn -0.893991 0.438986 0.089845
vn -0.893991 0.438986 0.089845
vn 0.116380 0.332178 -0.936009
vn 0.116380 0.332178 -0.936009
vn 0.116380 0.332178 -0.936009
vn 0.116380 0.332178 -0.936009
vn -0.116380 0.332178 -0.936009
vn -0.116380 0.332178 -0.936009
vn -0.116380 0.332178 -0.936009
vn -0.116380 0.332178 -0.936009
vn 0.868421 0.491143 0.068003
vn 0.868421 0.491143 0.068003
vn 0.868421 0.491143 0.068003
vn 0.868421 0.491143 0.068003
vn 0.000000 0.464302 -0.885677
vn 0.000000 0.464302 -0.885677
vn 0.000000 0.464302 -0.885677
vn 0.000000 0.464302 -0.885677
s 1
g bed
usemtl lambert2SG
f 1/1/1 2/2/2 9/202/3 8/204/4
f 2/2/2 3/3/5 10/206/6 9/202/3
f 3/3/5 4/4/7 11/208/8 10/206/6
f 4/4/7 5/5/9 12/210/10 11/208/8
f 5/5/9 6/6/11 13/212/12 12/210/10
f 6/6/11 7/7/13 14/214/14 13/212/12
s 2
f 122/161/15 123/164/16 128/8/17 127/172/18
f 123/164/16 124/166/19 129/9/20 128/8/17
f 124/166/19 125/168/21 130/10/22 129/9/20
f 125/168/21 126/173/23 131/177/24 130/10/22
f 127/172/18 128/8/17 133/11/25 132/176/26
f 128/8/17 129/9/20 134/12/27 133/11/25
f 129/9/20 130/10/22 135/13/28 134/12/27
f 130/10/22 131/177/24 136/181/29 135/13/28
f 132/176/26 133/11/25 138/14/30 137/180/31
f 133/11/25 134/12/27 139/15/32 138/14/30
f 134/12/27 135/13/28 140/16/33 139/15/32
f 135/13/28 136/181/29 141/185/34 140/16/33
f 137/180/31 138/14/30 143/17/35 142/184/36
f 138/14/30 139/15/32 144/18/37 143/17/35
f 139/15/32 140/16/33 145/19/38 144/18/37
f 140/16/33 141/185/34 146/188/39 145/19/38
f 142/184/36 143/17/35 148/192/40 147/191/41
f 143/17/35 144/18/37 149/194/42 148/192/40
f 144/18/37 145/19/38 150/196/43 149/194/42
f 145/19/38 146/188/39 151/198/44 150/196/43
s 3
f 27/238/45 28/242/46 35/21/47 34/20/48
f 28/242/46 29/244/49 36/22/50 35/21/47
f 29/244/49 30/246/51 37/23/52 36/22/50
f 30/246/51 31/248/53 38/24/54 37/23/52
f 31/248/53 32/252/55 39/25/56 38/24/54
f 32/252/55 33/250/57 40/26/58 39/25/56
f 34/20/48 35/21/47 42/28/59 41/27/60
s 4
f 216/266/61 217/267/62 218/29/63 219/268/64
f 217/267/62 220/269/65 221/30/66 218/29/63
f 220/269/65 222/270/67 223/31/68 221/30/66
f 222/270/67 224/271/69 225/272/70 223/31/68
s 3
f 39/25/56 40/26/58 44/33/71 43/32/72
f 41/27/60 42/28/59 46/35/73 45/34/74
s 4
f 219/268/64 218/29/63 226/273/75 227/274/76
f 218/29/63 221/30/66 228/275/77 226/273/75
f 221/30/66 223/31/68 229/276/78 228/275/77
f 223/31/68 225/272/70 230/277/79 229/276/78
s 3
f 43/32/72 44/33/71 51/40/80 50/39/81
s 5
f 45/34/82 46/35/83 53/42/84 52/41/85
f 46/35/83 47/36/86 54/43/87 53/42/84
f 47/36/86 48/37/88 55/44/89 54/43/87
f 48/37/88 49/38/90 56/45/91 55/44/89
f 49/38/90 50/39/92 57/46/93 56/45/91
f 50/39/92 51/40/94 58/47/95 57/46/93
s 6
f 52/41/96 53/42/97 60/49/98 59/48/99
f 53/42/97 54/43/100 61/50/101 60/49/98
f 54/43/100 55/44/102 62/51/103 61/50/101
f 55/44/102 56/45/104 63/52/105 62/51/103
f 56/45/104 57/46/106 64/53/107 63/52/105
f 57/46/106 58/47/108 65/54/109 64/53/107
f 59/48/99 60/49/98 67/56/110 66/55/111
f 60/49/98 61/50/101 68/57/112 67/56/110
f 61/50/101 62/51/103 69/58/113 68/57/112
f 62/51/103 63/52/105 70/59/114 69/58/113
f 63/52/105 64/53/107 71/60/115 70/59/114
f 64/53/107 65/54/109 72/61/116 71/60/115
f 66/55/111 67/56/110 74/63/117 73/62/118
f 67/56/110 68/57/112 75/64/119 74/63/117
f 68/57/112 69/58/113 76/65/120 75/64/119
f 69/58/113 70/59/114 77/66/121 76/65/120
f 70/59/114 71/60/115 78/67/122 77/66/121
f 71/60/115 72/61/116 79/68/123 78/67/122
f 73/62/118 74/63/117 81/70/124 80/69/125
f 74/63/117 75/64/119 82/71/126 81/70/124
f 75/64/119 76/65/120 83/72/127 82/71/126
f 76/65/120 77/66/121 84/73/128 83/72/127
f 77/66/121 78/67/122 85/74/129 84/73/128
f 78/67/122 79/68/123 86/75/130 85/74/129
f 80/69/125 81/70/124 88/77/131 87/76/132
f 81/70/124 82/71/126 89/78/133 88/77/131
f 82/71/126 83/72/127 90/79/134 89/78/133
f 83/72/127 84/73/128 91/80/135 90/79/134
f 84/73/128 85/74/129 92/81/136 91/80/135
f 85/74/129 86/75/130 93/82/137 92/81/136
f 87/76/132 88/77/131 95/84/138 94/83/139
f 88/77/131 89/78/133 96/85/140 95/84/138
f 89/78/133 90/79/134 97/86/141 96/85/140
f 90/79/134 91/80/135 98/87/142 97/86/141
f 91/80/135 92/81/136 99/88/143 98/87/142
f 92/81/136 93/82/137 100/89/144 99/88/143
f 94/83/139 95/84/138 102/91/145 101/90/146
f 95/84/138 96/85/140 103/92/147 102/91/145
f 96/85/140 97/86/141 104/93/148 103/92/147
f 97/86/141 98/87/142 105/94/149 104/93/148
f 98/87/142 99/88/143 106/95/150 105/94/149
f 99/88/143 100/89/144 107/96/151 106/95/150
f 101/90/146 102/91/145 109/98/152 108/97/153
f 102/91/145 103/92/147 110/99/154 109/98/152
f 103/92/147 104/93/148 111/100/155 110/99/154
f 104/93/148 105/94/149 112/101/156 111/100/155
f 105/94/149 106/95/150 113/102/157 112/101/156
f 106/95/150 107/96/151 114/103/158 113/102/157
f 108/97/153 109/98/152 116/105/159 115/104/160
f 109/98/152 110/99/154 117/106/161 116/105/159
f 110/99/154 111/100/155 118/107/162 117/106/161
f 111/100/155 112/101/156 119/108/163 118/107/162
f 112/101/156 113/102/157 120/109/164 119/108/163
f 113/102/157 114/103/158 121/110/165 120/109/164
f 115/104/160 116/105/159 2/112/166 1/111/167
f 116/105/159 117/106/161 3/113/168 2/112/166
f 117/106/161 118/107/162 4/114/169 3/113/168
f 118/107/162 119/108/163 5/115/170 4/114/169
f 119/108/163 120/109/164 6/116/171 5/115/170
f 120/109/164 121/110/165 7/117/172 6/116/171
s 7
f 65/119/173 58/118/174 51/128/175 44/129/176
f 72/120/177 65/119/173 44/129/176 40/130/178
f 79/121/179 72/120/177 40/130/178 33/131/180
f 86/122/181 79/121/179 33/131/180 26/132/182
f 93/123/183 86/122/181 26/132/182 24/133/184
f 100/124/185 93/123/183 24/133/184 22/134/186
f 107/125/187 100/124/185 22/134/186 20/135/188
f 114/126/189 107/125/187 20/135/188 18/136/190
f 121/127/191 114/126/189 18/136/190 16/137/192
f 7/7/193 121/127/191 16/137/192 14/214/194
s 8
f 52/138/195 59/139/196 41/149/197 45/148/198
f 59/139/196 66/140/199 34/150/200 41/149/197
f 66/140/199 73/141/201 27/151/202 34/150/200
f 73/141/201 80/142/203 25/152/204 27/151/202
f 80/142/203 87/143/205 23/153/206 25/152/204
f 87/143/205 94/144/207 21/154/208 23/153/206
f 94/144/207 101/145/209 19/155/210 21/154/208
f 101/145/209 108/146/211 17/156/212 19/155/210
f 108/146/211 115/147/213 15/157/214 17/156/212
f 115/147/213 1/1/215 8/204/216 15/157/214
s 9
f 152/203/217 153/159/218 157/171/219 156/205/220
s 10
f 153/159/221 152/203/222 155/207/223 154/160/224
f 154/160/224 155/207/223 159/209/225 158/162/226
s 9
f 156/205/220 157/171/219 171/175/227 170/219/228
s 10
f 158/162/226 159/209/225 161/211/229 160/163/230
f 160/163/230 161/211/229 163/213/231 162/165/232
f 162/165/232 163/213/231 165/215/233 164/167/234
f 164/167/234 165/215/233 167/217/235 166/169/236
s 11
f 166/169/237 167/217/238 169/221/239 168/170/240
f 168/170/240 169/221/239 173/225/241 172/174/242
s 9
f 170/219/228 171/175/227 175/179/243 174/223/244
s 11
f 172/174/242 173/225/241 177/229/245 176/178/246
s 9
f 174/223/244 175/179/243 179/183/247 178/227/248
s 11
f 176/178/246 177/229/245 181/233/249 180/182/250
s 9
f 178/227/248 179/183/247 183/187/251 182/231/252
s 11
f 180/182/250 181/233/249 185/237/253 184/186/254
s 9
f 182/231/252 183/187/251 187/190/255 186/235/256
s 11
f 184/186/254 185/237/253 189/251/257 188/189/258
s 9
f 186/235/256 187/190/255 192/158/259 193/241/260
s 11
f 188/189/258 189/251/257 203/253/261 202/200/262
s 12
f 190/239/263 191/193/264 195/195/265 194/243/266
f 191/193/264 190/239/263 193/241/267 192/158/268
f 194/243/266 195/195/265 197/197/269 196/245/270
f 196/245/270 197/197/269 199/199/271 198/247/272
f 198/247/272 199/199/271 201/201/273 200/249/274
f 200/249/274 201/201/273 202/200/275 203/253/276
s 2
f 153/159/277 154/160/278 122/161/15 157/171/279
f 154/160/278 158/162/280 123/164/16 122/161/15
f 158/162/280 160/163/281 124/166/19 123/164/16
f 160/163/281 162/165/282 125/168/21 124/166/19
f 162/165/282 164/167/283 126/173/23 125/168/21
f 164/167/283 166/169/284 168/170/285 126/173/23
f 157/171/279 122/161/15 127/172/18 171/175/286
f 126/173/23 168/170/285 172/174/287 131/177/24
f 171/175/286 127/172/18 132/176/26 175/179/288
f 131/177/24 172/174/287 176/178/289 136/181/29
f 175/179/288 132/176/26 137/180/31 179/183/290
f 136/181/29 176/178/289 180/182/291 141/185/34
f 179/183/290 137/180/31 142/184/36 183/187/292
f 141/185/34 180/182/291 184/186/293 146/188/39
f 183/187/292 142/184/36 147/191/41 187/190/294
f 146/188/39 184/186/293 188/189/295 151/198/44
f 187/190/294 147/191/41 191/193/296 192/158/297
f 147/191/41 148/192/40 195/195/298 191/193/296
f 148/192/40 149/194/42 197/197/299 195/195/298
f 149/194/42 150/196/43 199/199/300 197/197/299
f 150/196/43 151/198/44 201/201/301 199/199/300
f 151/198/44 188/189/295 202/200/302 201/201/301
s 1
f 8/204/4 9/202/3 155/207/303 152/203/304
s 13
f 15/218/305 8/204/306 152/203/307 156/205/308
s 1
f 9/202/3 10/206/6 159/209/309 155/207/303
f 10/206/6 11/208/8 161/211/310 159/209/309
f 11/208/8 12/210/10 163/213/311 161/211/310
f 12/210/10 13/212/12 165/215/312 163/213/311
f 13/212/12 14/214/14 167/217/313 165/215/312
s 14
f 14/214/314 16/216/315 169/221/316 167/217/317
s 13
f 17/222/318 15/218/305 156/205/308 170/219/319
s 14
f 16/216/315 18/220/320 173/225/321 169/221/316
s 13
f 19/226/322 17/222/318 170/219/319 174/223/323
s 14
f 18/220/320 20/224/324 177/229/325 173/225/321
s 13
f 21/230/326 19/226/322 174/223/323 178/227/327
s 14
f 20/224/324 22/228/328 181/233/329 177/229/325
s 13
f 23/234/330 21/230/326 178/227/327 182/231/331
s 14
f 22/228/328 24/232/332 185/237/333 181/233/329
s 13
f 25/240/334 23/234/330 182/231/331 186/235/335
s 14
f 24/232/332 26/236/336 189/251/337 185/237/333
s 15
f 28/242/338 27/238/339 193/241/340 190/239/341
s 13
f 27/238/342 25/240/334 186/235/335 193/241/343
s 15
f 29/244/344 28/242/338 190/239/341 194/243/345
f 30/246/346 29/244/344 194/243/345 196/245/347
f 31/248/348 30/246/346 196/245/347 198/247/349
f 32/252/350 31/248/348 198/247/349 200/249/351
s 14
f 26/236/336 33/250/352 203/253/353 189/251/337
s 15
f 33/250/354 32/252/350 200/249/351 203/253/355
s off
f 35/21/356 36/22/357 205/255/358 204/254/359
f 42/28/360 35/21/361 204/254/362 206/256/363
f 36/22/364 37/23/365 207/257/366 205/255/367
f 37/23/368 38/24/369 208/258/370 207/257/371
f 38/24/372 39/25/373 209/259/374 208/258/375
f 39/25/376 43/32/377 210/260/378 209/259/379
f 47/36/380 46/35/381 212/262/382 211/261/383
f 46/35/384 42/28/385 206/256/386 212/262/387
f 48/37/388 47/36/389 211/261/390 213/263/391
f 49/38/392 48/37/393 213/263/394 214/264/395
f 43/32/396 50/39/397 215/265/398 210/260/399
f 50/39/400 49/38/401 214/264/402 215/265/403
f 204/254/404 205/255/405 217/267/406 216/266/407
f 206/256/408 204/254/409 216/266/410 219/268/411
f 205/255/412 207/257/413 220/269/414 217/267/415
f 207/257/416 208/258/417 222/270/418 220/269/419
f 208/258/420 209/259/421 224/271/422 222/270/423
f 209/259/424 210/260/425 225/272/426 224/271/427
f 211/261/428 212/262/429 227/274/430 226/273/431
f 212/262/432 206/256/433 219/268/434 227/274/435
f 213/263/436 211/261/437 226/273/438 228/275/439
f 214/264/440 213/263/441 228/275/442 229/276/443
f 210/260/444 215/265/445 230/277/446 225/272/447
f 215/265/448 214/264/449 229/276/450 230/277/451
