# This file uses centimeters as units for non-parametric coordinates.

mtllib ChestV1.mtl
g default
v -0.057428 0.450196 0.516449
v -0.069115 0.451137 0.516449
v -0.078567 0.444201 0.516449
v -0.079439 0.432534 0.516449
v -0.072572 0.423062 0.516449
v -0.060963 0.422395 0.516449
v -0.051433 0.429057 0.516449
v -0.050456 0.440754 0.516449
v -0.057428 0.450196 0.519241
v -0.069115 0.451137 0.516913
v -0.078567 0.444201 0.519241
v -0.079439 0.432534 0.516913
v -0.072572 0.423062 0.519241
v -0.060963 0.422395 0.516913
v -0.051433 0.429057 0.519241
v -0.050456 0.440754 0.516913
v -0.065000 0.436629 0.516449
v -0.065000 0.436629 0.516913
v -0.065757 0.435272 0.519241
v -0.061942 0.421819 0.519241
v -0.066357 0.437386 0.519241
v -0.079810 0.433571 0.519241
v -0.079210 0.431457 0.519241
v -0.064243 0.437985 0.519241
v -0.050790 0.441801 0.519241
v -0.050190 0.439687 0.519241
v -0.070172 0.450839 0.519241
v -0.068058 0.451438 0.519241
v -0.063643 0.435872 0.519241
v -0.059828 0.422419 0.519241
vt 0.610485 0.045765
vt 0.500000 0.000000
vt 0.389515 0.045765
vt 0.343750 0.156250
vt 0.389515 0.266735
vt 0.500000 0.312500
vt 0.610485 0.266735
vt 0.656250 0.156250
vt 0.375000 0.312500
vt 0.406250 0.312500
vt 0.437500 0.312500
vt 0.468750 0.312500
vt 0.500000 0.312500
vt 0.531250 0.312500
vt 0.562500 0.312500
vt 0.593750 0.312500
vt 0.625000 0.312500
vt 0.375000 0.687500
vt 0.406250 0.687500
vt 0.437500 0.687500
vt 0.468750 0.687500
vt 0.500000 0.687500
vt 0.531250 0.687500
vt 0.562500 0.687500
vt 0.593750 0.687500
vt 0.625000 0.687500
vt 0.815142 0.717930
vt 0.746895 0.744352
vt 0.717321 0.811294
vt 0.743743 0.879541
vt 0.810685 0.909115
vt 0.878932 0.882693
vt 0.908506 0.815751
vt 0.882084 0.747504
vt 0.500000 0.156250
vt 0.812913 0.813522
vt 0.803354 0.813299
vt 0.743937 0.751046
vt 0.528125 0.687500
vt 0.812691 0.823082
vt 0.750437 0.882498
vt 0.465625 0.687500
vt 0.741101 0.872716
vt 0.471875 0.687500
vt 0.822473 0.813745
vt 0.884726 0.754329
vt 0.596875 0.687500
vt 0.875389 0.744546
vt 0.590625 0.687500
vt 0.872107 0.885335
vt 0.409375 0.687500
vt 0.881889 0.875998
vt 0.403125 0.687500
vt 0.813136 0.803963
vt 0.753720 0.741710
vt 0.534375 0.687500
vn 0.094208 0.992994 -0.071330
vn 0.094208 0.992994 -0.071330
vn 0.094208 0.992994 -0.071330
vn 0.094208 0.992994 -0.071330
vn 0.094208 0.992994 -0.071330
vn -0.601480 0.795697 -0.071330
vn -0.601480 0.795697 -0.071330
vn -0.601480 0.795697 -0.071330
vn -0.601480 0.795697 -0.071330
vn -0.601480 0.795697 -0.071330
vn -0.992440 0.090648 -0.082736
vn -0.992440 0.090648 -0.082736
vn -0.992440 0.090648 -0.082736
vn -0.992440 0.090648 -0.082736
vn -0.992440 0.090648 -0.082736
vn -0.797094 -0.598160 -0.082735
vn -0.797094 -0.598160 -0.082735
vn -0.797094 -0.598160 -0.082735
vn -0.797094 -0.598160 -0.082735
vn -0.797095 -0.598160 -0.082735
vn -0.080115 -0.989992 -0.116176
vn -0.080115 -0.989992 -0.116176
vn -0.080115 -0.989992 -0.116176
vn -0.080115 -0.989992 -0.116176
vn -0.080115 -0.989992 -0.116176
vn 0.587910 -0.800541 -0.116176
vn 0.587910 -0.800541 -0.116176
vn 0.587910 -0.800541 -0.116176
vn 0.587910 -0.800540 -0.116176
vn 0.587910 -0.800541 -0.116176
vn 0.993223 -0.096026 -0.065482
vn 0.993223 -0.096026 -0.065482
vn 0.993223 -0.096026 -0.065482
vn 0.993223 -0.096026 -0.065482
vn 0.993223 -0.096026 -0.065482
vn 0.794937 0.603148 -0.065482
vn 0.794937 0.603148 -0.065482
vn 0.794937 0.603148 -0.065482
vn 0.794937 0.603148 -0.065482
vn 0.794937 0.603148 -0.065482
vn -0.000000 -0.000000 -1.000000
vn -0.000000 -0.000000 -1.000000
vn -0.000000 -0.000000 -1.000000
vn -0.000000 -0.000000 -1.000000
vn -0.000000 -0.000000 -1.000000
vn -0.000000 -0.000000 -1.000000
vn -0.000000 -0.000000 -1.000000
vn -0.000000 -0.000000 -1.000000
vn -0.000000 -0.000000 -1.000000
vn -0.211454 -0.379441 0.900728
vn -0.429449 -0.121792 0.894841
vn 0.000000 -0.000000 1.000000
vn 0.000000 0.000000 1.000000
vn 0.379175 -0.211002 0.900946
vn 0.429449 0.121792 0.894841
vn 0.000000 0.000000 1.000000
vn 0.121472 -0.428321 0.895425
vn -0.000000 0.000000 1.000000
vn 0.209505 0.378658 0.901513
vn -0.121472 0.428321 0.895425
vn 0.000000 0.000000 1.000000
vn 0.424997 0.120529 0.897134
vn 0.000000 0.000000 1.000000
vn -0.377095 0.213236 0.901293
vn -0.424997 -0.120529 0.897134
vn -0.000000 0.000000 1.000000
vn -0.121956 0.430027 0.894541
vn 0.121956 -0.430027 0.894541
vn 0.000000 0.000000 1.000000
vn -0.000000 -0.000000 1.000000
s off
g pCylinder10 screws chest
usemtl lambert6SG
f 1/9/1 2/10/2 10/19/3 28/53/4 9/18/5
f 2/10/6 3/11/7 11/20/8 27/51/9 10/19/10
f 3/11/11 4/12/12 12/21/13 22/42/14 11/20/15
f 4/12/16 5/13/17 13/22/18 23/44/19 12/21/20
f 5/13/21 6/14/22 14/23/23 20/39/24 13/22/25
f 6/14/26 7/15/27 15/24/28 30/56/29 14/23/30
f 7/15/31 8/16/32 16/25/33 26/49/34 15/24/35
f 8/16/36 1/17/37 9/26/38 25/47/39 16/25/40
s 1
f 2/2/41 1/1/42 17/35/43
f 3/3/44 2/2/41 17/35/43
f 4/4/45 3/3/44 17/35/43
f 5/5/46 4/4/45 17/35/43
f 6/6/47 5/5/46 17/35/43
f 7/7/48 6/6/47 17/35/43
f 8/8/49 7/7/48 17/35/43
f 1/1/42 8/8/49 17/35/43
s 2
f 24/45/50 28/52/51 10/32/52 18/36/53
f 21/40/54 27/50/55 11/31/56
f 21/40/54 22/41/57 12/30/58 18/36/53
f 19/37/59 23/43/60 13/29/61
f 19/37/59 20/38/62 14/28/63 18/36/53
f 29/54/64 30/55/65 15/27/66
f 26/48/67 29/54/64 15/27/66
f 24/45/50 25/46/68 9/33/69
f 13/29/61 20/38/62 19/37/59
f 11/31/56 22/41/57 21/40/54
f 12/30/58 23/43/60 19/37/59 18/36/53
f 16/34/70 25/46/68 24/45/50 18/36/53
f 10/32/52 27/50/55 21/40/54 18/36/53
f 9/33/69 28/52/51 24/45/50
f 14/28/63 30/55/65 29/54/64 18/36/53
f 26/48/67 16/34/70 18/36/53 29/54/64
g default
v 0.084716 0.440501 0.516449
v 0.077339 0.449613 0.516449
v 0.065797 0.451676 0.516449
v 0.056747 0.444262 0.516449
v 0.054622 0.432757 0.516449
v 0.062144 0.423890 0.516449
v 0.073541 0.421582 0.516449
v 0.082686 0.428940 0.516449
v 0.084716 0.440501 0.519241
v 0.077339 0.449613 0.516913
v 0.065797 0.451676 0.519241
v 0.056747 0.444262 0.516913
v 0.054622 0.432757 0.519241
v 0.062144 0.423890 0.516913
v 0.073541 0.421582 0.519241
v 0.082686 0.428940 0.516913
v 0.069669 0.436629 0.516449
v 0.069669 0.436629 0.516913
v 0.068164 0.436242 0.519241
v 0.061052 0.424202 0.519241
v 0.069282 0.438133 0.519241
v 0.057242 0.445245 0.519241
v 0.056124 0.443353 0.519241
v 0.071174 0.437016 0.519241
v 0.083213 0.429904 0.519241
v 0.082096 0.428012 0.519241
v 0.076394 0.450173 0.519241
v 0.078285 0.449056 0.519241
v 0.070056 0.435124 0.519241
v 0.062944 0.423084 0.519241
vt 0.610485 0.045765
vt 0.500000 0.000000
vt 0.389515 0.045765
vt 0.343750 0.156250
vt 0.389515 0.266735
vt 0.500000 0.312500
vt 0.610485 0.266735
vt 0.656250 0.156250
vt 0.375000 0.312500
vt 0.406250 0.312500
vt 0.437500 0.312500
vt 0.468750 0.312500
vt 0.500000 0.312500
vt 0.531250 0.312500
vt 0.562500 0.312500
vt 0.593750 0.312500
vt 0.625000 0.312500
vt 0.375000 0.687500
vt 0.406250 0.687500
vt 0.437500 0.687500
vt 0.468750 0.687500
vt 0.500000 0.687500
vt 0.531250 0.687500
vt 0.562500 0.687500
vt 0.593750 0.687500
vt 0.625000 0.687500
vt 0.809712 0.714288
vt 0.739297 0.744568
vt 0.710918 0.815770
vt 0.741198 0.886185
vt 0.812400 0.914564
vt 0.882815 0.884284
vt 0.911195 0.813082
vt 0.880914 0.742667
vt 0.500000 0.156250
vt 0.811056 0.814426
vt 0.801042 0.814561
vt 0.736459 0.751688
vt 0.528125 0.687500
vt 0.811191 0.824440
vt 0.748318 0.889023
vt 0.465625 0.687500
vt 0.738170 0.879144
vt 0.471875 0.687500
vt 0.821070 0.814292
vt 0.883942 0.749709
vt 0.596875 0.687500
vt 0.873794 0.739829
vt 0.590625 0.687500
vt 0.875774 0.887312
vt 0.409375 0.687500
vt 0.885653 0.877164
vt 0.403125 0.687500
vt 0.810922 0.804412
vt 0.746339 0.741540
vt 0.534375 0.687500
vn 0.784103 0.616518 -0.071330
vn 0.784103 0.616518 -0.071330
vn 0.784103 0.616518 -0.071330
vn 0.784103 0.616518 -0.071330
vn 0.784103 0.616518 -0.071330
vn 0.161489 0.984293 -0.071330
vn 0.161489 0.984293 -0.071330
vn 0.161489 0.984293 -0.071330
vn 0.161489 0.984293 -0.071330
vn 0.161489 0.984293 -0.071330
vn -0.618714 0.781247 -0.082736
vn -0.618714 0.781247 -0.082736
vn -0.618714 0.781247 -0.082736
vn -0.618714 0.781248 -0.082736
vn -0.618714 0.781247 -0.082736
vn -0.982852 0.164790 -0.082735
vn -0.982852 0.164790 -0.082735
vn -0.982852 0.164790 -0.082735
vn -0.982853 0.164790 -0.082735
vn -0.982853 0.164790 -0.082735
vn -0.772211 -0.624654 -0.116176
vn -0.772211 -0.624654 -0.116176
vn -0.772211 -0.624654 -0.116176
vn -0.772211 -0.624654 -0.116176
vn -0.772211 -0.624654 -0.116176
vn -0.174354 -0.977805 -0.116176
vn -0.174354 -0.977805 -0.116176
vn -0.174354 -0.977805 -0.116176
vn -0.174354 -0.977805 -0.116176
vn -0.174354 -0.977805 -0.116176
vn 0.615359 -0.785523 -0.065482
vn 0.615359 -0.785523 -0.065482
vn 0.615359 -0.785523 -0.065482
vn 0.615359 -0.785523 -0.065482
vn 0.615359 -0.785523 -0.065482
vn 0.984977 -0.159788 -0.065482
vn 0.984977 -0.159788 -0.065482
vn 0.984977 -0.159788 -0.065482
vn 0.984977 -0.159788 -0.065482
vn 0.984977 -0.159788 -0.065482
vn 0.000000 -0.000000 -1.000000
vn 0.000000 -0.000000 -1.000000
vn 0.000000 -0.000000 -1.000000
vn 0.000000 -0.000000 -1.000000
vn 0.000000 -0.000000 -1.000000
vn 0.000000 -0.000000 -1.000000
vn 0.000000 -0.000000 -1.000000
vn 0.000000 -0.000000 -1.000000
vn 0.000000 -0.000000 -1.000000
vn -0.420610 -0.108515 0.900728
vn -0.384341 0.227028 0.894841
vn -0.000000 -0.000000 1.000000
vn 0.000000 0.000000 1.000000
vn 0.108659 -0.420106 0.900946
vn 0.384341 -0.227028 0.894841
vn -0.000000 0.000000 1.000000
vn -0.226432 -0.383331 0.895425
vn 0.000000 0.000000 1.000000
vn 0.418698 0.109387 0.901513
vn 0.226432 0.383331 0.895425
vn -0.000000 0.000000 1.000000
vn 0.380356 -0.224675 0.897134
vn 0.000000 -0.000000 1.000000
vn -0.105607 0.420140 0.901293
vn -0.380356 0.224675 0.897134
vn 0.000000 0.000000 1.000000
vn 0.227334 0.384858 0.894541
vn -0.227334 -0.384858 0.894541
vn -0.000000 0.000000 1.000000
vn -0.000000 0.000000 1.000000
s off
g screws chest pCylinder9
usemtl lambert6SG
f 31/65/71 32/66/72 40/75/73 58/109/74 39/74/75
f 32/66/76 33/67/77 41/76/78 57/107/79 40/75/80
f 33/67/81 34/68/82 42/77/83 52/98/84 41/76/85
f 34/68/86 35/69/87 43/78/88 53/100/89 42/77/90
f 35/69/91 36/70/92 44/79/93 50/95/94 43/78/95
f 36/70/96 37/71/97 45/80/98 60/112/99 44/79/100
f 37/71/101 38/72/102 46/81/103 56/105/104 45/80/105
f 38/72/106 31/73/107 39/82/108 55/103/109 46/81/110
s 1
f 32/58/111 31/57/112 47/91/113
f 33/59/114 32/58/111 47/91/113
f 34/60/115 33/59/114 47/91/113
f 35/61/116 34/60/115 47/91/113
f 36/62/117 35/61/116 47/91/113
f 37/63/118 36/62/117 47/91/113
f 38/64/119 37/63/118 47/91/113
f 31/57/112 38/64/119 47/91/113
s 2
f 54/101/120 58/108/121 40/88/122 48/92/123
f 51/96/124 57/106/125 41/87/126
f 51/96/124 52/97/127 42/86/128 48/92/123
f 49/93/129 53/99/130 43/85/131
f 49/93/129 50/94/132 44/84/133 48/92/123
f 59/110/134 60/111/135 45/83/136
f 56/104/137 59/110/134 45/83/136
f 54/101/120 55/102/138 39/89/139
f 43/85/131 50/94/132 49/93/129
f 41/87/126 52/97/127 51/96/124
f 42/86/128 53/99/130 49/93/129 48/92/123
f 46/90/140 55/102/138 54/101/120 48/92/123
f 40/88/122 57/106/125 51/96/124 48/92/123
f 39/89/139 58/108/121 54/101/120
f 44/84/133 60/111/135 59/110/134 48/92/123
f 56/104/137 46/90/140 48/92/123 59/110/134
g default
v 0.084993 0.630769 0.516449
v 0.078428 0.640483 0.516449
v 0.067107 0.643532 0.516449
v 0.057452 0.636925 0.516449
v 0.054344 0.625645 0.516449
v 0.061076 0.616164 0.516449
v 0.072231 0.612883 0.516449
v 0.081975 0.619426 0.516449
v 0.084993 0.630769 0.519241
v 0.078428 0.640483 0.516913
v 0.067107 0.643532 0.519241
v 0.057452 0.636925 0.516913
v 0.054344 0.625645 0.519241
v 0.061076 0.616164 0.516913
v 0.072231 0.612883 0.519241
v 0.081975 0.619426 0.516913
v 0.069669 0.628207 0.516449
v 0.069669 0.628207 0.516913
v 0.068136 0.627951 0.519241
v 0.060014 0.616568 0.519241
v 0.069413 0.629740 0.519241
v 0.058030 0.637862 0.519241
v 0.056754 0.636073 0.519241
v 0.071201 0.628463 0.519241
v 0.082584 0.620341 0.519241
v 0.081308 0.618553 0.519241
v 0.077535 0.641122 0.519241
v 0.079323 0.639846 0.519241
v 0.069925 0.626675 0.519241
v 0.061803 0.615292 0.519241
vt 0.610485 0.045765
vt 0.500000 0.000000
vt 0.389515 0.045765
vt 0.343750 0.156250
vt 0.389515 0.266735
vt 0.500000 0.312500
vt 0.610485 0.266735
vt 0.656250 0.156250
vt 0.375000 0.312500
vt 0.406250 0.312500
vt 0.437500 0.312500
vt 0.468750 0.312500
vt 0.500000 0.312500
vt 0.531250 0.312500
vt 0.562500 0.312500
vt 0.593750 0.312500
vt 0.625000 0.312500
vt 0.375000 0.687500
vt 0.406250 0.687500
vt 0.437500 0.687500
vt 0.468750 0.687500
vt 0.500000 0.687500
vt 0.531250 0.687500
vt 0.562500 0.687500
vt 0.593750 0.687500
vt 0.625000 0.687500
vt 0.808263 0.715187
vt 0.738984 0.744548
vt 0.710757 0.814297
vt 0.740117 0.883576
vt 0.809866 0.911803
vt 0.879146 0.882442
vt 0.907372 0.812694
vt 0.878012 0.743414
vt 0.500000 0.156250
vt 0.809065 0.813495
vt 0.799234 0.813575
vt 0.736161 0.751523
vt 0.528125 0.687500
vt 0.809145 0.823326
vt 0.747092 0.886399
vt 0.465625 0.687500
vt 0.737181 0.876648
vt 0.471875 0.687500
vt 0.818895 0.813415
vt 0.880948 0.750342
vt 0.596875 0.687500
vt 0.871037 0.740591
vt 0.590625 0.687500
vt 0.872218 0.885378
vt 0.409375 0.687500
vt 0.881968 0.875468
vt 0.403125 0.687500
vt 0.808984 0.803664
vt 0.745911 0.741612
vt 0.534375 0.687500
vn 0.834276 0.546714 -0.071330
vn 0.834276 0.546714 -0.071330
vn 0.834276 0.546714 -0.071330
vn 0.834276 0.546714 -0.071330
vn 0.834276 0.546714 -0.071330
vn 0.245641 0.966733 -0.071330
vn 0.245641 0.966733 -0.071330
vn 0.245641 0.966733 -0.071330
vn 0.245641 0.966733 -0.071330
vn 0.245641 0.966733 -0.071330
vn -0.549148 0.831620 -0.082736
vn -0.549148 0.831620 -0.082736
vn -0.549148 0.831620 -0.082736
vn -0.549148 0.831620 -0.082736
vn -0.549148 0.831620 -0.082736
vn -0.965013 0.248806 -0.082735
vn -0.965013 0.248806 -0.082735
vn -0.965013 0.248806 -0.082735
vn -0.965013 0.248806 -0.082735
vn -0.965013 0.248806 -0.082735
vn -0.823129 -0.555844 -0.116176
vn -0.823129 -0.555844 -0.116176
vn -0.823129 -0.555844 -0.116176
vn -0.823129 -0.555844 -0.116176
vn -0.823129 -0.555844 -0.116176
vn -0.257900 -0.959162 -0.116176
vn -0.257900 -0.959162 -0.116176
vn -0.257900 -0.959162 -0.116176
vn -0.257900 -0.959161 -0.116176
vn -0.257900 -0.959162 -0.116176
vn 0.545436 -0.835590 -0.065482
vn 0.545436 -0.835590 -0.065482
vn 0.545436 -0.835590 -0.065482
vn 0.545436 -0.835590 -0.065482
vn 0.545436 -0.835590 -0.065482
vn 0.967561 -0.244005 -0.065482
vn 0.967561 -0.244005 -0.065482
vn 0.967561 -0.244005 -0.065482
vn 0.967561 -0.244005 -0.065482
vn 0.967561 -0.244005 -0.065482
vn -0.000000 -0.000000 -1.000000
vn -0.000000 -0.000000 -1.000000
vn -0.000000 -0.000000 -1.000000
vn -0.000000 -0.000000 -1.000000
vn -0.000000 -0.000000 -1.000000
vn -0.000000 -0.000000 -1.000000
vn -0.000000 -0.000000 -1.000000
vn -0.000000 -0.000000 -1.000000
vn -0.000000 -0.000000 -1.000000
vn -0.428391 -0.071896 0.900728
vn -0.363365 0.259279 0.894841
vn -0.000000 -0.000000 1.000000
vn 0.000000 0.000000 1.000000
vn 0.072083 -0.427902 0.900946
vn 0.363365 -0.259279 0.894841
vn 0.000000 0.000000 1.000000
vn -0.258597 -0.362411 0.895425
vn 0.000000 0.000000 1.000000
vn 0.426562 0.072929 0.901513
vn 0.258597 0.362411 0.895425
vn 0.000000 0.000000 1.000000
vn 0.359598 -0.256591 0.897134
vn 0.000000 -0.000000 1.000000
vn -0.069039 0.427673 0.901293
vn -0.359598 0.256591 0.897134
vn 0.000000 0.000000 1.000000
vn 0.259627 0.363854 0.894541
vn -0.259627 -0.363854 0.894541
vn 0.000000 0.000000 1.000000
vn -0.000000 0.000000 1.000000
s off
g screws chest pCylinder8
usemtl lambert6SG
f 61/121/141 62/122/142 70/131/143 88/165/144 69/130/145
f 62/122/146 63/123/147 71/132/148 87/163/149 70/131/150
f 63/123/151 64/124/152 72/133/153 82/154/154 71/132/155
f 64/124/156 65/125/157 73/134/158 83/156/159 72/133/160
f 65/125/161 66/126/162 74/135/163 80/151/164 73/134/165
f 66/126/166 67/127/167 75/136/168 90/168/169 74/135/170
f 67/127/171 68/128/172 76/137/173 86/161/174 75/136/175
f 68/128/176 61/129/177 69/138/178 85/159/179 76/137/180
s 1
f 62/114/181 61/113/182 77/147/183
f 63/115/184 62/114/181 77/147/183
f 64/116/185 63/115/184 77/147/183
f 65/117/186 64/116/185 77/147/183
f 66/118/187 65/117/186 77/147/183
f 67/119/188 66/118/187 77/147/183
f 68/120/189 67/119/188 77/147/183
f 61/113/182 68/120/189 77/147/183
s 2
f 84/157/190 88/164/191 70/144/192 78/148/193
f 81/152/194 87/162/195 71/143/196
f 81/152/194 82/153/197 72/142/198 78/148/193
f 79/149/199 83/155/200 73/141/201
f 79/149/199 80/150/202 74/140/203 78/148/193
f 89/166/204 90/167/205 75/139/206
f 86/160/207 89/166/204 75/139/206
f 84/157/190 85/158/208 69/145/209
f 73/141/201 80/150/202 79/149/199
f 71/143/196 82/153/197 81/152/194
f 72/142/198 83/155/200 79/149/199 78/148/193
f 76/146/210 85/158/208 84/157/190 78/148/193
f 70/144/192 87/162/195 81/152/194 78/148/193
f 69/145/209 88/164/191 84/157/190
f 74/140/203 90/167/205 89/166/204 78/148/193
f 86/160/207 76/146/210 78/148/193 89/166/204
g default
v -0.051133 0.634541 0.516449
v -0.059931 0.642292 0.516449
v -0.071655 0.642395 0.516449
v -0.079337 0.633571 0.516449
v -0.079508 0.621873 0.516449
v -0.070609 0.614390 0.516449
v -0.058987 0.614020 0.516449
v -0.051201 0.622804 0.516449
v -0.051133 0.634541 0.519241
v -0.059931 0.642292 0.516913
v -0.071655 0.642395 0.519241
v -0.079337 0.633571 0.516913
v -0.079508 0.621873 0.519241
v -0.070609 0.614390 0.516913
v -0.058987 0.614020 0.519241
v -0.051201 0.622804 0.516913
v -0.065321 0.628207 0.516449
v -0.065321 0.628207 0.516913
v -0.066739 0.627574 0.519241
v -0.071737 0.614514 0.519241
v -0.065954 0.629626 0.519241
v -0.079014 0.634624 0.519241
v -0.079799 0.632572 0.519241
v -0.063902 0.628841 0.519241
v -0.050842 0.623843 0.519241
v -0.051628 0.621791 0.519241
v -0.060956 0.642686 0.519241
v -0.058904 0.641900 0.519241
v -0.064687 0.626789 0.519241
v -0.069685 0.613729 0.519241
vt 0.610485 0.045765
vt 0.500000 0.000000
vt 0.389515 0.045765
vt 0.343750 0.156250
vt 0.389515 0.266735
vt 0.500000 0.312500
vt 0.610485 0.266735
vt 0.656250 0.156250
vt 0.375000 0.312500
vt 0.406250 0.312500
vt 0.437500 0.312500
vt 0.468750 0.312500
vt 0.500000 0.312500
vt 0.531250 0.312500
vt 0.562500 0.312500
vt 0.593750 0.312500
vt 0.625000 0.312500
vt 0.375000 0.687500
vt 0.406250 0.687500
vt 0.437500 0.687500
vt 0.468750 0.687500
vt 0.500000 0.687500
vt 0.531250 0.687500
vt 0.562500 0.687500
vt 0.593750 0.687500
vt 0.625000 0.687500
vt 0.812482 0.714253
vt 0.742919 0.742935
vt 0.714012 0.812405
vt 0.742694 0.881968
vt 0.812164 0.910875
vt 0.881727 0.882193
vt 0.910634 0.812723
vt 0.881952 0.743160
vt 0.500000 0.156250
vt 0.812323 0.812564
vt 0.802492 0.812548
vt 0.740028 0.749882
vt 0.528125 0.687500
vt 0.812307 0.822395
vt 0.749641 0.884859
vt 0.465625 0.687500
vt 0.739826 0.875012
vt 0.471875 0.687500
vt 0.822154 0.812580
vt 0.884820 0.750116
vt 0.596875 0.687500
vt 0.875005 0.740269
vt 0.590625 0.687500
vt 0.874770 0.885061
vt 0.409375 0.687500
vt 0.884618 0.875246
vt 0.403125 0.687500
vt 0.812339 0.802733
vt 0.749875 0.740067
vt 0.534375 0.687500
vn 0.669942 0.738979 -0.071330
vn 0.669942 0.738979 -0.071330
vn 0.669942 0.738979 -0.071330
vn 0.669942 0.738979 -0.071330
vn 0.669942 0.738979 -0.071330
vn -0.005415 0.997438 -0.071330
vn -0.005415 0.997438 -0.071330
vn -0.005415 0.997438 -0.071330
vn -0.005415 0.997438 -0.071330
vn -0.005415 0.997438 -0.071330
vn -0.740667 0.666759 -0.082736
vn -0.740667 0.666759 -0.082736
vn -0.740667 0.666759 -0.082736
vn -0.740667 0.666759 -0.082736
vn -0.740667 0.666759 -0.082736
vn -0.996570 -0.001919 -0.082735
vn -0.996570 -0.001919 -0.082735
vn -0.996570 -0.001919 -0.082735
vn -0.996570 -0.001919 -0.082735
vn -0.996570 -0.001919 -0.082735
vn -0.656857 -0.745012 -0.116176
vn -0.656857 -0.745012 -0.116176
vn -0.656857 -0.745012 -0.116176
vn -0.656857 -0.745012 -0.116176
vn -0.656857 -0.745012 -0.116176
vn -0.008355 -0.993194 -0.116176
vn -0.008355 -0.993194 -0.116176
vn -0.008355 -0.993194 -0.116176
vn -0.008355 -0.993193 -0.116176
vn -0.008355 -0.993194 -0.116176
vn 0.738073 -0.671535 -0.065482
vn 0.738073 -0.671535 -0.065482
vn 0.738074 -0.671535 -0.065482
vn 0.738074 -0.671535 -0.065482
vn 0.738073 -0.671535 -0.065482
vn 0.997828 0.007206 -0.065482
vn 0.997828 0.007206 -0.065482
vn 0.997828 0.007206 -0.065482
vn 0.997828 0.007206 -0.065482
vn 0.997828 0.007206 -0.065482
vn -0.000000 -0.000000 -1.000000
vn -0.000000 -0.000000 -1.000000
vn -0.000000 -0.000000 -1.000000
vn -0.000000 -0.000000 -1.000000
vn -0.000000 -0.000000 -1.000000
vn -0.000000 -0.000000 -1.000000
vn -0.000000 -0.000000 -1.000000
vn -0.000000 -0.000000 -1.000000
vn -0.000000 -0.000000 -1.000000
vn -0.396535 -0.177336 0.900728
vn -0.416899 0.159547 0.894841
vn -0.000000 -0.000000 1.000000
vn 0.000000 0.000000 1.000000
vn 0.177394 -0.396014 0.900946
vn 0.416899 -0.159547 0.894841
vn 0.000000 0.000000 1.000000
vn -0.159128 -0.415803 0.895425
vn 0.000000 0.000000 1.000000
vn 0.394505 0.177876 0.901513
vn 0.159128 0.415803 0.895425
vn 0.000000 0.000000 1.000000
vn 0.412577 -0.157893 0.897134
vn 0.000000 -0.000000 1.000000
vn -0.174391 0.396558 0.901293
vn -0.412577 0.157893 0.897134
vn 0.000000 0.000000 1.000000
vn 0.159762 0.417460 0.894541
vn -0.159762 -0.417460 0.894541
vn 0.000000 0.000000 1.000000
vn -0.000000 0.000000 1.000000
s off
g screws chest pCylinder7
usemtl lambert6SG
f 91/177/211 92/178/212 100/187/213 118/221/214 99/186/215
f 92/178/216 93/179/217 101/188/218 117/219/219 100/187/220
f 93/179/221 94/180/222 102/189/223 112/210/224 101/188/225
f 94/180/226 95/181/227 103/190/228 113/212/229 102/189/230
f 95/181/231 96/182/232 104/191/233 110/207/234 103/190/235
f 96/182/236 97/183/237 105/192/238 120/224/239 104/191/240
f 97/183/241 98/184/242 106/193/243 116/217/244 105/192/245
f 98/184/246 91/185/247 99/194/248 115/215/249 106/193/250
s 1
f 92/170/251 91/169/252 107/203/253
f 93/171/254 92/170/251 107/203/253
f 94/172/255 93/171/254 107/203/253
f 95/173/256 94/172/255 107/203/253
f 96/174/257 95/173/256 107/203/253
f 97/175/258 96/174/257 107/203/253
f 98/176/259 97/175/258 107/203/253
f 91/169/252 98/176/259 107/203/253
s 2
f 114/213/260 118/220/261 100/200/262 108/204/263
f 111/208/264 117/218/265 101/199/266
f 111/208/264 112/209/267 102/198/268 108/204/263
f 109/205/269 113/211/270 103/197/271
f 109/205/269 110/206/272 104/196/273 108/204/263
f 119/222/274 120/223/275 105/195/276
f 116/216/277 119/222/274 105/195/276
f 114/213/260 115/214/278 99/201/279
f 103/197/271 110/206/272 109/205/269
f 101/199/266 112/209/267 111/208/264
f 102/198/268 113/211/270 109/205/269 108/204/263
f 106/202/280 115/214/278 114/213/260 108/204/263
f 100/200/262 117/218/265 111/208/264 108/204/263
f 99/201/279 118/220/261 114/213/260
f 104/196/273 120/223/275 119/222/274 108/204/263
f 116/216/277 106/202/280 108/204/263 119/222/274
g default
v 0.007982 1.371775 0.312229
v -0.003732 1.372163 0.311933
v -0.012909 1.366363 0.316362
v -0.013328 1.357071 0.323458
v -0.006100 1.349760 0.329041
v 0.005525 1.349588 0.329173
v 0.014791 1.355171 0.324909
v 0.015315 1.364490 0.317792
v 0.007982 1.373469 0.314448
v -0.003732 1.372445 0.312302
v -0.012909 1.368058 0.318581
v -0.013328 1.357353 0.323827
v -0.006100 1.351455 0.331261
v 0.005525 1.349870 0.329542
v 0.014791 1.356866 0.327128
v 0.015315 1.364772 0.318161
v 0.000941 1.360767 0.320635
v 0.000941 1.361049 0.321004
v 0.000237 1.361362 0.323695
v 0.004570 1.350795 0.331765
v -0.000444 1.363022 0.322427
v -0.013739 1.359578 0.325057
v -0.013058 1.357918 0.326325
v 0.001645 1.363563 0.322014
v 0.014940 1.367007 0.319384
v 0.015621 1.365346 0.320652
v -0.004777 1.373588 0.314358
v -0.002688 1.374129 0.313945
v 0.002326 1.361903 0.323282
v 0.006659 1.351336 0.331351
vt 0.610485 0.045765
vt 0.500000 0.000000
vt 0.389515 0.045765
vt 0.343750 0.156250
vt 0.389515 0.266735
vt 0.500000 0.312500
vt 0.610485 0.266735
vt 0.656250 0.156250
vt 0.375000 0.312500
vt 0.406250 0.312500
vt 0.437500 0.312500
vt 0.468750 0.312500
vt 0.500000 0.312500
vt 0.531250 0.312500
vt 0.562500 0.312500
vt 0.593750 0.312500
vt 0.625000 0.312500
vt 0.375000 0.687500
vt 0.406250 0.687500
vt 0.437500 0.687500
vt 0.468750 0.687500
vt 0.500000 0.687500
vt 0.531250 0.687500
vt 0.562500 0.687500
vt 0.593750 0.687500
vt 0.625000 0.687500
vt 0.808786 0.714256
vt 0.739490 0.743576
vt 0.711222 0.813308
vt 0.740541 0.882605
vt 0.810274 0.910873
vt 0.879570 0.881553
vt 0.907838 0.811821
vt 0.878519 0.742524
vt 0.500000 0.156250
vt 0.809530 0.812564
vt 0.799699 0.812639
vt 0.736663 0.750549
vt 0.528125 0.687500
vt 0.809604 0.822395
vt 0.747515 0.885431
vt 0.465625 0.687500
vt 0.737609 0.875675
vt 0.471875 0.687500
vt 0.819361 0.812490
vt 0.881451 0.749454
vt 0.596875 0.687500
vt 0.871545 0.739697
vt 0.590625 0.687500
vt 0.872641 0.884485
vt 0.409375 0.687500
vt 0.882397 0.874580
vt 0.403125 0.687500
vt 0.809456 0.802733
vt 0.746419 0.740644
vt 0.534375 0.687500
vn 0.055703 0.748192 -0.661140
vn 0.055703 0.748192 -0.661140
vn 0.055703 0.748192 -0.661140
vn 0.055703 0.748192 -0.661140
vn 0.055703 0.748192 -0.661140
vn -0.631827 0.570108 -0.525139
vn -0.631827 0.570108 -0.525139
vn -0.631827 0.570108 -0.525139
vn -0.631827 0.570108 -0.525139
vn -0.631827 0.570108 -0.525139
vn -0.995205 -0.008756 -0.097417
vn -0.995205 -0.008756 -0.097417
vn -0.995205 -0.008756 -0.097417
vn -0.995205 -0.008756 -0.097417
vn -0.995205 -0.008756 -0.097417
vn -0.773345 -0.549764 0.315748
vn -0.773345 -0.549764 0.315748
vn -0.773345 -0.549764 0.315748
vn -0.773345 -0.549764 0.315748
vn -0.773345 -0.549764 0.315748
vn -0.041737 -0.859180 0.509969
vn -0.041737 -0.859180 0.509969
vn -0.041737 -0.859180 0.509969
vn -0.041737 -0.859180 0.509969
vn -0.041737 -0.859180 0.509969
vn 0.618454 -0.688177 0.379376
vn 0.618454 -0.688177 0.379376
vn 0.618454 -0.688177 0.379376
vn 0.618454 -0.688177 0.379376
vn 0.618454 -0.688177 0.379376
vn 0.996195 -0.085451 -0.017136
vn 0.996195 -0.085451 -0.017136
vn 0.996195 -0.085451 -0.017136
vn 0.996195 -0.085451 -0.017136
vn 0.996195 -0.085451 -0.017136
vn 0.770996 0.463700 -0.436518
vn 0.770996 0.463700 -0.436518
vn 0.770996 0.463700 -0.436518
vn 0.770996 0.463700 -0.436518
vn 0.770996 0.463699 -0.436517
vn -0.000000 -0.606942 -0.794746
vn -0.000000 -0.606942 -0.794746
vn -0.000000 -0.606942 -0.794746
vn -0.000000 -0.606942 -0.794746
vn -0.000000 -0.606942 -0.794746
vn -0.000000 -0.606942 -0.794746
vn -0.000000 -0.606942 -0.794746
vn -0.000000 -0.606942 -0.794746
vn -0.000000 -0.606942 -0.794746
vn -0.196609 0.238852 0.950944
vn -0.424413 0.433185 0.795125
vn 0.000000 0.606942 0.794746
vn 0.000000 0.606942 0.794746
vn 0.387058 0.390918 0.835086
vn 0.424413 0.653048 0.627218
vn 0.000000 0.606942 0.794746
vn 0.137959 0.207056 0.968553
vn -0.000000 0.606942 0.794746
vn 0.194692 0.854322 0.481902
vn -0.137959 0.879886 0.454718
vn 0.000000 0.606942 0.794746
vn 0.420014 0.653300 0.629911
vn 0.000000 0.606942 0.794746
vn -0.385066 0.704774 0.595833
vn -0.420013 0.435717 0.796077
vn -0.000000 0.606942 0.794746
vn -0.138508 0.880689 0.452992
vn 0.138508 0.205180 0.968874
vn 0.000000 0.606942 0.794746
vn -0.000000 0.606942 0.794746
s off
g screws chest pCylinder6
usemtl lambert6SG
f 121/233/281 122/234/282 130/243/283 148/277/284 129/242/285
f 122/234/286 123/235/287 131/244/288 147/275/289 130/243/290
f 123/235/291 124/236/292 132/245/293 142/266/294 131/244/295
f 124/236/296 125/237/297 133/246/298 143/268/299 132/245/300
f 125/237/301 126/238/302 134/247/303 140/263/304 133/246/305
f 126/238/306 127/239/307 135/248/308 150/280/309 134/247/310
f 127/239/311 128/240/312 136/249/313 146/273/314 135/248/315
f 128/240/316 121/241/317 129/250/318 145/271/319 136/249/320
s 1
f 122/226/321 121/225/322 137/259/323
f 123/227/324 122/226/321 137/259/323
f 124/228/325 123/227/324 137/259/323
f 125/229/326 124/228/325 137/259/323
f 126/230/327 125/229/326 137/259/323
f 127/231/328 126/230/327 137/259/323
f 128/232/329 127/231/328 137/259/323
f 121/225/322 128/232/329 137/259/323
s 2
f 144/269/330 148/276/331 130/256/332 138/260/333
f 141/264/334 147/274/335 131/255/336
f 141/264/334 142/265/337 132/254/338 138/260/333
f 139/261/339 143/267/340 133/253/341
f 139/261/339 140/262/342 134/252/343 138/260/333
f 149/278/344 150/279/345 135/251/346
f 146/272/347 149/278/344 135/251/346
f 144/269/330 145/270/348 129/257/349
f 133/253/341 140/262/342 139/261/339
f 131/255/336 142/265/337 141/264/334
f 132/254/338 143/267/340 139/261/339 138/260/333
f 136/258/350 145/270/348 144/269/330 138/260/333
f 130/256/332 147/274/335 141/264/334 138/260/333
f 129/257/349 148/276/331 144/269/330
f 134/252/343 150/279/345 149/278/344 138/260/333
f 146/272/347 136/258/350 138/260/333 149/278/344
g default
v 0.058263 1.454723 0.235123
v 0.047251 1.451524 0.237566
v 0.041559 1.443377 0.243788
v 0.045640 1.434663 0.250443
v 0.055835 1.430103 0.253926
v 0.066661 1.433475 0.251351
v 0.072538 1.441448 0.245261
v 0.068541 1.450219 0.238563
v 0.058263 1.456418 0.237343
v 0.047251 1.451806 0.237936
v 0.041559 1.445072 0.246007
v 0.045640 1.434945 0.250812
v 0.055835 1.431797 0.256145
v 0.066661 1.433757 0.251720
v 0.072538 1.443143 0.247481
v 0.068541 1.450501 0.238932
v 0.057049 1.442413 0.244524
v 0.057049 1.442695 0.244894
v 0.056928 1.442877 0.247684
v 0.066013 1.434429 0.254136
v 0.055500 1.444204 0.246670
v 0.044870 1.436984 0.252184
v 0.046298 1.435656 0.253198
v 0.057170 1.445339 0.245804
v 0.067800 1.452559 0.240290
v 0.069228 1.451232 0.241303
v 0.046415 1.452652 0.240218
v 0.048085 1.453787 0.239352
v 0.058598 1.444011 0.246818
v 0.067683 1.435563 0.253269
vt 0.610485 0.045765
vt 0.500000 0.000000
vt 0.389515 0.045765
vt 0.343750 0.156250
vt 0.389515 0.266735
vt 0.500000 0.312500
vt 0.610485 0.266735
vt 0.656250 0.156250
vt 0.375000 0.312500
vt 0.406250 0.312500
vt 0.437500 0.312500
vt 0.468750 0.312500
vt 0.500000 0.312500
vt 0.531250 0.312500
vt 0.562500 0.312500
vt 0.593750 0.312500
vt 0.625000 0.312500
vt 0.375000 0.687500
vt 0.406250 0.687500
vt 0.437500 0.687500
vt 0.468750 0.687500
vt 0.500000 0.687500
vt 0.531250 0.687500
vt 0.562500 0.687500
vt 0.593750 0.687500
vt 0.625000 0.687500
vt 0.809081 0.719352
vt 0.742451 0.747709
vt 0.715387 0.814875
vt 0.743743 0.881505
vt 0.810909 0.908569
vt 0.877540 0.880213
vt 0.904604 0.813047
vt 0.876248 0.746416
vt 0.500000 0.156250
vt 0.809995 0.813961
vt 0.800535 0.814052
vt 0.739744 0.754425
vt 0.528125 0.687500
vt 0.810087 0.823422
vt 0.750460 0.884212
vt 0.465625 0.687500
vt 0.740908 0.874842
vt 0.471875 0.687500
vt 0.819456 0.813869
vt 0.879083 0.753079
vt 0.596875 0.687500
vt 0.869531 0.743710
vt 0.590625 0.687500
vt 0.870877 0.883048
vt 0.409375 0.687500
vt 0.880246 0.873496
vt 0.403125 0.687500
vt 0.809904 0.804500
vt 0.749114 0.744873
vt 0.534375 0.687500
vn -0.329121 0.705032 -0.628179
vn -0.329121 0.705032 -0.628179
vn -0.329121 0.705032 -0.628179
vn -0.329121 0.705032 -0.628179
vn -0.329121 0.705032 -0.628179
vn -0.878830 0.331647 -0.343028
vn -0.878830 0.331647 -0.343028
vn -0.878830 0.331647 -0.343028
vn -0.878830 0.331647 -0.343028
vn -0.878830 0.331647 -0.343028
vn -0.939600 -0.314170 0.135826
vn -0.939600 -0.314170 0.135826
vn -0.939600 -0.314170 0.135826
vn -0.939600 -0.314170 0.135826
vn -0.939600 -0.314170 0.135826
vn -0.474430 -0.746729 0.466168
vn -0.474430 -0.746729 0.466168
vn -0.474430 -0.746729 0.466168
vn -0.474430 -0.746729 0.466168
vn -0.474430 -0.746729 0.466168
vn 0.340672 -0.811992 0.473932
vn 0.340672 -0.811992 0.473932
vn 0.340672 -0.811992 0.473932
vn 0.340672 -0.811992 0.473932
vn 0.340672 -0.811992 0.473932
vn 0.868523 -0.453454 0.200120
vn 0.868523 -0.453454 0.200120
vn 0.868523 -0.453454 0.200120
vn 0.868523 -0.453454 0.200120
vn 0.868523 -0.453454 0.200120
vn 0.942557 0.220586 -0.250854
vn 0.942557 0.220586 -0.250854
vn 0.942557 0.220586 -0.250854
vn 0.942557 0.220586 -0.250854
vn 0.942557 0.220586 -0.250854
vn 0.470386 0.659655 -0.586167
vn 0.470386 0.659655 -0.586167
vn 0.470386 0.659655 -0.586167
vn 0.470386 0.659655 -0.586167
vn 0.470386 0.659655 -0.586167
vn -0.000000 -0.606942 -0.794746
vn -0.000000 -0.606942 -0.794746
vn -0.000000 -0.606942 -0.794746
vn -0.000000 -0.606942 -0.794746
vn -0.000000 -0.606942 -0.794746
vn -0.000000 -0.606942 -0.794746
vn -0.000000 -0.606942 -0.794746
vn -0.000000 -0.606942 -0.794746
vn -0.000000 -0.606942 -0.794746
vn -0.033658 0.202504 0.978703
vn -0.339336 0.312625 0.887196
vn 0.000000 0.606942 0.794746
vn -0.000000 0.606942 0.794746
vn 0.432646 0.520311 0.736270
vn 0.339336 0.773607 0.535147
vn 0.000000 0.606942 0.794746
vn 0.289257 0.274493 0.917052
vn -0.000000 0.606942 0.794746
vn 0.032214 0.890140 0.454548
vn -0.289256 0.812449 0.506219
vn 0.000000 0.606942 0.794746
vn 0.335818 0.772610 0.538795
vn 0.000000 0.606942 0.794746
vn -0.431690 0.575847 0.694294
vn -0.335818 0.316407 0.887194
vn -0.000000 0.606942 0.794746
vn -0.290409 0.812984 0.504699
vn 0.290409 0.272885 0.917168
vn 0.000000 0.606942 0.794746
vn -0.000000 0.606942 0.794746
s off
g screws chest pCylinder5
usemtl lambert6SG
f 151/289/351 152/290/352 160/299/353 178/333/354 159/298/355
f 152/290/356 153/291/357 161/300/358 177/331/359 160/299/360
f 153/291/361 154/292/362 162/301/363 172/322/364 161/300/365
f 154/292/366 155/293/367 163/302/368 173/324/369 162/301/370
f 155/293/371 156/294/372 164/303/373 170/319/374 163/302/375
f 156/294/376 157/295/377 165/304/378 180/336/379 164/303/380
f 157/295/381 158/296/382 166/305/383 176/329/384 165/304/385
f 158/296/386 151/297/387 159/306/388 175/327/389 166/305/390
s 1
f 152/282/391 151/281/392 167/315/393
f 153/283/394 152/282/391 167/315/393
f 154/284/395 153/283/394 167/315/393
f 155/285/396 154/284/395 167/315/393
f 156/286/397 155/285/396 167/315/393
f 157/287/398 156/286/397 167/315/393
f 158/288/399 157/287/398 167/315/393
f 151/281/392 158/288/399 167/315/393
s 2
f 174/325/400 178/332/401 160/312/402 168/316/403
f 171/320/404 177/330/405 161/311/406
f 171/320/404 172/321/407 162/310/408 168/316/403
f 169/317/409 173/323/410 163/309/411
f 169/317/409 170/318/412 164/308/413 168/316/403
f 179/334/414 180/335/415 165/307/416
f 176/328/417 179/334/414 165/307/416
f 174/325/400 175/326/418 159/313/419
f 163/309/411 170/318/412 169/317/409
f 161/311/406 172/321/407 171/320/404
f 162/310/408 173/323/410 169/317/409 168/316/403
f 166/314/420 175/326/418 174/325/400 168/316/403
f 160/312/402 177/330/405 171/320/404 168/316/403
f 159/313/419 178/332/401 174/325/400
f 164/308/413 180/335/415 179/334/414 168/316/403
f 176/328/417 166/314/420 168/316/403 179/334/414
g default
v -0.040771 1.447864 0.240361
v -0.049851 1.453759 0.235860
v -0.061571 1.453493 0.236063
v -0.068919 1.446257 0.241588
v -0.068653 1.436962 0.248687
v -0.059481 1.431282 0.253025
v -0.047853 1.431333 0.252986
v -0.040401 1.438540 0.247482
v -0.040771 1.449559 0.242581
v -0.049851 1.454041 0.236229
v -0.061571 1.455187 0.238282
v -0.068919 1.446539 0.241958
v -0.068653 1.438657 0.250907
v -0.059481 1.431564 0.253394
v -0.047853 1.433028 0.255205
v -0.040401 1.438822 0.247851
v -0.054712 1.442413 0.244524
v -0.054712 1.442695 0.244894
v -0.056106 1.443563 0.247160
v -0.060613 1.433043 0.255194
v -0.055398 1.445216 0.245898
v -0.068635 1.448798 0.243162
v -0.069343 1.447145 0.244425
v -0.053318 1.444653 0.246328
v -0.040081 1.441071 0.249063
v -0.040789 1.439418 0.250326
v -0.050891 1.455736 0.237864
v -0.048811 1.455173 0.238293
v -0.054026 1.443000 0.247590
v -0.058533 1.432480 0.255624
vt 0.610485 0.045765
vt 0.500000 0.000000
vt 0.389515 0.045765
vt 0.343750 0.156250
vt 0.389515 0.266735
vt 0.500000 0.312500
vt 0.610485 0.266735
vt 0.656250 0.156250
vt 0.375000 0.312500
vt 0.406250 0.312500
vt 0.437500 0.312500
vt 0.468750 0.312500
vt 0.500000 0.312500
vt 0.531250 0.312500
vt 0.562500 0.312500
vt 0.593750 0.312500
vt 0.625000 0.312500
vt 0.375000 0.687500
vt 0.406250 0.687500
vt 0.437500 0.687500
vt 0.468750 0.687500
vt 0.500000 0.687500
vt 0.531250 0.687500
vt 0.562500 0.687500
vt 0.593750 0.687500
vt 0.625000 0.687500
vt 0.810104 0.713111
vt 0.739804 0.741369
vt 0.710077 0.811060
vt 0.738335 0.881359
vt 0.808025 0.911086
vt 0.878325 0.882829
vt 0.908052 0.813138
vt 0.879794 0.742839
vt 0.500000 0.156250
vt 0.809065 0.812099
vt 0.799166 0.811995
vt 0.736832 0.748338
vt 0.528125 0.687500
vt 0.808961 0.821998
vt 0.745304 0.884332
vt 0.465625 0.687500
vt 0.735509 0.874329
vt 0.471875 0.687500
vt 0.818963 0.812203
vt 0.882620 0.749869
vt 0.596875 0.687500
vt 0.872825 0.739866
vt 0.590625 0.687500
vt 0.871295 0.885654
vt 0.409375 0.687500
vt 0.881297 0.875859
vt 0.403125 0.687500
vt 0.809169 0.802200
vt 0.746834 0.738543
vt 0.534375 0.687500
vn 0.641897 0.563469 -0.520069
vn 0.641897 0.563469 -0.520069
vn 0.641897 0.563469 -0.520069
vn 0.641897 0.563469 -0.520069
vn 0.641897 0.563469 -0.520069
vn -0.042635 0.748704 -0.661532
vn -0.042635 0.748704 -0.661532
vn -0.042635 0.748704 -0.661532
vn -0.042634 0.748704 -0.661532
vn -0.042634 0.748704 -0.661532
vn -0.765034 0.457352 -0.453379
vn -0.765034 0.457352 -0.453379
vn -0.765034 0.457352 -0.453379
vn -0.765034 0.457352 -0.453380
vn -0.765034 0.457352 -0.453379
vn -0.995804 -0.081297 -0.042017
vn -0.995804 -0.081297 -0.042017
vn -0.995804 -0.081297 -0.042017
vn -0.995804 -0.081297 -0.042017
vn -0.995804 -0.081297 -0.042017
vn -0.628596 -0.681677 0.374411
vn -0.628596 -0.681677 0.374411
vn -0.628596 -0.681677 0.374411
vn -0.628596 -0.681677 0.374411
vn -0.628596 -0.681677 0.374411
vn 0.028716 -0.859547 0.510250
vn 0.028716 -0.859547 0.510250
vn 0.028716 -0.859547 0.510250
vn 0.028716 -0.859547 0.510250
vn 0.028716 -0.859547 0.510250
vn 0.762620 -0.551182 0.338539
vn 0.762620 -0.551182 0.338539
vn 0.762620 -0.551182 0.338539
vn 0.762621 -0.551182 0.338539
vn 0.762620 -0.551182 0.338539
vn 0.996864 -0.004426 -0.079013
vn 0.996864 -0.004426 -0.079013
vn 0.996864 -0.004426 -0.079013
vn 0.996864 -0.004426 -0.079013
vn 0.996864 -0.004426 -0.079013
vn 0.000000 -0.606942 -0.794746
vn 0.000000 -0.606942 -0.794746
vn 0.000000 -0.606942 -0.794746
vn 0.000000 -0.606942 -0.794746
vn 0.000000 -0.606942 -0.794746
vn 0.000000 -0.606942 -0.794746
vn 0.000000 -0.606942 -0.794746
vn 0.000000 -0.606942 -0.794746
vn 0.000000 -0.606942 -0.794746
vn -0.389641 0.394090 0.832390
vn -0.422562 0.657463 0.623846
vn -0.000000 0.606942 0.794746
vn 0.000000 0.606942 0.794746
vn 0.192049 0.237572 0.952196
vn 0.422562 0.428770 0.798497
vn 0.000000 0.606942 0.794746
vn -0.143500 0.208523 0.967433
vn 0.000000 0.606942 0.794746
vn 0.387592 0.700134 0.599654
vn 0.143500 0.878419 0.455839
vn 0.000000 0.606942 0.794746
vn 0.418182 0.431348 0.799414
vn 0.000000 0.606942 0.794746
vn -0.189068 0.856804 0.479730
vn -0.418182 0.657669 0.626574
vn 0.000000 0.606942 0.794746
vn 0.144071 0.879216 0.454117
vn -0.144071 0.206653 0.967749
vn 0.000000 0.606942 0.794746
vn -0.000000 0.606942 0.794746
s off
g screws chest pCylinder4
usemtl lambert6SG
f 181/345/421 182/346/422 190/355/423 208/389/424 189/354/425
f 182/346/426 183/347/427 191/356/428 207/387/429 190/355/430
f 183/347/431 184/348/432 192/357/433 202/378/434 191/356/435
f 184/348/436 185/349/437 193/358/438 203/380/439 192/357/440
f 185/349/441 186/350/442 194/359/443 200/375/444 193/358/445
f 186/350/446 187/351/447 195/360/448 210/392/449 194/359/450
f 187/351/451 188/352/452 196/361/453 206/385/454 195/360/455
f 188/352/456 181/353/457 189/362/458 205/383/459 196/361/460
s 1
f 182/338/461 181/337/462 197/371/463
f 183/339/464 182/338/461 197/371/463
f 184/340/465 183/339/464 197/371/463
f 185/341/466 184/340/465 197/371/463
f 186/342/467 185/341/466 197/371/463
f 187/343/468 186/342/467 197/371/463
f 188/344/469 187/343/468 197/371/463
f 181/337/462 188/344/469 197/371/463
s 2
f 204/381/470 208/388/471 190/368/472 198/372/473
f 201/376/474 207/386/475 191/367/476
f 201/376/474 202/377/477 192/366/478 198/372/473
f 199/373/479 203/379/480 193/365/481
f 199/373/479 200/374/482 194/364/483 198/372/473
f 209/390/484 210/391/485 195/363/486
f 206/384/487 209/390/484 195/363/486
f 204/381/470 205/382/488 189/369/489
f 193/365/481 200/374/482 199/373/479
f 191/367/476 202/377/477 201/376/474
f 192/366/478 203/379/480 199/373/479 198/372/473
f 196/370/490 205/382/488 204/381/470 198/372/473
f 190/368/472 207/386/475 201/376/474 198/372/473
f 189/369/489 208/388/471 204/381/470
f 194/364/483 210/391/485 209/390/484 198/372/473
f 206/384/487 196/370/490 198/372/473 209/390/484
g default
v -0.165765 0.691623 -0.512926
v -0.337578 0.691623 -0.512926
v -0.206612 0.721507 -0.546803
v -0.165765 0.706567 -0.529866
v -0.206612 0.695888 -0.557899
v -0.165765 0.693756 -0.535414
v -0.206612 0.668639 -0.551816
v -0.165765 0.680130 -0.532373
v -0.206612 0.650169 -0.530879
v -0.165765 0.670894 -0.521903
v -0.206612 0.647534 -0.503085
v -0.165765 0.669576 -0.508005
v -0.206612 0.661739 -0.479049
v -0.165765 0.676679 -0.495986
v -0.206612 0.687358 -0.467953
v -0.165765 0.689491 -0.490437
v -0.206612 0.714607 -0.474036
v -0.165765 0.703116 -0.493479
v -0.206612 0.733077 -0.494972
v -0.165765 0.712352 -0.503948
v -0.206612 0.735713 -0.522767
v -0.165765 0.713670 -0.517847
v -0.337578 0.706567 -0.529866
v -0.296731 0.721507 -0.546803
v -0.337578 0.693756 -0.535414
v -0.296731 0.695888 -0.557899
v -0.337578 0.680130 -0.532373
v -0.296731 0.668639 -0.551816
v -0.337578 0.670894 -0.521903
v -0.296731 0.650169 -0.530879
v -0.337578 0.669576 -0.508005
v -0.296731 0.647534 -0.503085
v -0.337578 0.676679 -0.495986
v -0.296731 0.661739 -0.479049
v -0.337578 0.689490 -0.490437
v -0.296731 0.687358 -0.467953
v -0.337578 0.703116 -0.493479
v -0.296731 0.714607 -0.474036
v -0.337578 0.712352 -0.503948
v -0.296731 0.733077 -0.494972
v -0.337578 0.713670 -0.517847
v -0.296731 0.735713 -0.522767
vt 0.148783 0.683324
vt 0.155033 0.594171
vt 0.167534 0.594171
vt 0.392534 0.594171
vt 0.380033 0.594171
vt 0.180033 0.594171
vt 0.192534 0.594171
vt 0.205033 0.594171
vt 0.217534 0.594171
vt 0.230033 0.594171
vt 0.242534 0.594171
vt 0.255033 0.594171
vt 0.267534 0.594171
vt 0.280033 0.594171
vt 0.292534 0.594171
vt 0.305033 0.594171
vt 0.317534 0.594171
vt 0.330033 0.594171
vt 0.342534 0.594171
vt 0.355033 0.594171
vt 0.367534 0.594171
vt 0.336994 0.691170
vt 0.297928 0.662786
vt 0.249639 0.662786
vt 0.210572 0.691170
vt 0.195650 0.737095
vt 0.210572 0.783020
vt 0.249639 0.811404
vt 0.297928 0.811404
vt 0.336994 0.783020
vt 0.273783 0.737095
vt 0.351916 0.737095
vt 0.400192 0.828936
vt 0.430033 0.737095
vt 0.322067 0.885697
vt 0.225499 0.885697
vt 0.147374 0.828936
vt 0.117533 0.737095
vt 0.147374 0.645253
vt 0.225499 0.588492
vt 0.322067 0.588492
vt 0.400192 0.645253
vt 0.297928 0.811404
vt 0.249639 0.811404
vt 0.210572 0.783020
vt 0.195650 0.737095
vt 0.210572 0.691169
vt 0.249639 0.662786
vt 0.297928 0.662786
vt 0.336994 0.691169
vt 0.351916 0.737095
vt 0.336994 0.783020
vt 0.273783 0.737095
vt 0.173783 0.683324
vt 0.148783 0.880019
vt 0.198783 0.683324
vt 0.173783 0.880019
vt 0.223783 0.683323
vt 0.198783 0.880019
vt 0.248783 0.683324
vt 0.223783 0.880019
vt 0.273783 0.683324
vt 0.248783 0.880019
vt 0.298783 0.683324
vt 0.273783 0.880019
vt 0.323783 0.683324
vt 0.298783 0.880019
vt 0.348783 0.683324
vt 0.323783 0.880019
vt 0.373783 0.683324
vt 0.348783 0.880019
vt 0.398783 0.683324
vt 0.398783 0.880019
vt 0.373783 0.880019
vn 0.483879 0.578932 -0.656277
vn 0.483879 0.578932 -0.656276
vn 0.483879 0.082617 -0.871226
vn 0.483879 0.082619 -0.871226
vn 0.483880 0.854115 -0.190650
vn 0.483880 0.854115 -0.190650
vn 0.483879 -0.445255 -0.753398
vn 0.483879 -0.445256 -0.753397
vn 0.483879 -0.803055 -0.347798
vn 0.483879 -0.803055 -0.347799
vn 0.483879 -0.854116 0.190650
vn 0.483879 -0.854115 0.190650
vn 0.483879 -0.578932 0.656276
vn 0.483879 -0.578932 0.656276
vn 0.483879 -0.082614 0.871226
vn 0.483879 -0.082617 0.871226
vn 0.483879 0.445253 0.753399
vn 0.483879 0.445254 0.753398
vn 0.483880 0.803055 0.347798
vn 0.483879 0.803055 0.347798
vn 1.000000 0.000000 0.000000
vn 1.000000 0.000000 0.000000
vn 1.000000 0.000000 0.000000
vn 1.000000 0.000000 0.000000
vn 1.000000 0.000000 0.000000
vn 1.000000 0.000000 0.000000
vn 1.000000 0.000000 0.000000
vn 1.000000 0.000000 0.000000
vn 1.000000 0.000000 0.000000
vn 1.000000 0.000000 0.000000
vn 1.000000 0.000000 0.000000
vn -0.483879 0.578932 -0.656277
vn -0.483879 0.578932 -0.656277
vn -0.483879 0.082618 -0.871226
vn -0.483879 0.082617 -0.871226
vn -0.483880 0.854115 -0.190650
vn -0.483880 0.854115 -0.190650
vn -0.483879 -0.445256 -0.753398
vn -0.483879 -0.445255 -0.753398
vn -0.483879 -0.803055 -0.347798
vn -0.483879 -0.803055 -0.347799
vn -0.483880 -0.854115 0.190650
vn -0.483880 -0.854115 0.190650
vn -0.483879 -0.578933 0.656276
vn -0.483879 -0.578933 0.656276
vn -0.483879 -0.082616 0.871226
vn -0.483880 -0.082615 0.871226
vn -0.483879 0.445254 0.753399
vn -0.483880 0.445253 0.753399
vn -0.483879 0.803055 0.347798
vn -0.483879 0.803055 0.347798
vn -1.000000 0.000000 0.000000
vn -1.000000 0.000000 0.000000
vn -1.000000 0.000000 0.000000
vn -1.000000 0.000000 0.000000
vn -1.000000 0.000000 0.000000
vn -1.000000 0.000000 0.000000
vn -1.000000 0.000000 0.000000
vn -1.000000 0.000000 0.000000
vn -1.000000 0.000000 0.000000
vn -1.000000 0.000000 0.000000
vn -1.000000 0.000000 0.000000
vn 0.000000 0.397425 -0.917634
vn 0.000000 0.397425 -0.917634
vn 0.000000 0.397425 -0.917634
vn 0.000000 0.397425 -0.917634
vn 0.000000 -0.217852 -0.975982
vn 0.000000 -0.217852 -0.975982
vn 0.000000 -0.217852 -0.975982
vn 0.000000 -0.217852 -0.975982
vn -0.000000 -0.749917 -0.661532
vn -0.000000 -0.749917 -0.661532
vn -0.000000 -0.749917 -0.661532
vn -0.000000 -0.749917 -0.661532
vn -0.000000 -0.995533 -0.094412
vn -0.000000 -0.995533 -0.094412
vn -0.000000 -0.995533 -0.094412
vn -0.000000 -0.995533 -0.094412
vn 0.000000 -0.860891 0.508789
vn 0.000000 -0.860891 0.508789
vn 0.000000 -0.860891 0.508789
vn 0.000000 -0.860891 0.508789
vn 0.000000 -0.397422 0.917636
vn 0.000000 -0.397422 0.917636
vn 0.000000 -0.397422 0.917636
vn 0.000000 -0.397422 0.917636
vn 0.000000 0.217852 0.975982
vn 0.000000 0.217852 0.975982
vn 0.000000 0.217852 0.975982
vn 0.000000 0.217852 0.975982
vn 0.000000 0.749914 0.661535
vn 0.000000 0.749914 0.661535
vn 0.000000 0.749914 0.661535
vn 0.000000 0.749914 0.661535
vn 0.000000 0.995533 0.094410
vn 0.000000 0.995533 0.094410
vn 0.000000 0.995533 0.094410
vn 0.000000 0.995533 0.094410
vn 0.000000 0.860891 -0.508790
vn 0.000000 0.860891 -0.508790
vn 0.000000 0.860891 -0.508790
vn 0.000000 0.860891 -0.508790
s 1
g chest pCylinder3 hinges
usemtl lambert5SG
f 213/393/491 214/394/492 216/395/493 215/446/494
f 214/396/492 213/464/491 231/462/495 232/397/496
f 215/446/494 216/398/493 218/399/497 217/448/498
f 217/448/498 218/400/497 220/401/499 219/450/500
f 219/450/500 220/402/499 222/403/501 221/452/502
f 221/452/502 222/404/501 224/405/503 223/454/504
f 223/454/504 224/406/503 226/407/505 225/456/506
f 225/456/506 226/408/505 228/409/507 227/458/508
f 227/458/508 228/410/507 230/411/509 229/460/510
f 229/460/510 230/412/509 232/413/496 231/462/495
s 2
f 216/415/511 214/414/512 211/423/513
f 218/416/514 216/415/511 211/423/513
f 220/417/515 218/416/514 211/423/513
f 222/418/516 220/417/515 211/423/513
f 224/419/517 222/418/516 211/423/513
f 226/420/518 224/419/517 211/423/513
f 228/421/519 226/420/518 211/423/513
f 230/422/520 228/421/519 211/423/513
f 232/424/521 230/422/520 211/423/513
f 214/414/512 232/424/521 211/423/513
s 3
f 233/444/522 234/425/523 236/427/524 235/435/525
f 234/425/523 233/444/522 251/443/526 252/426/527
f 235/435/525 236/427/524 238/428/528 237/436/529
f 237/436/529 238/428/528 240/429/530 239/437/531
f 239/437/531 240/429/530 242/430/532 241/438/533
f 241/438/533 242/430/532 244/431/534 243/439/535
f 243/439/535 244/431/534 246/432/536 245/440/537
f 245/440/537 246/432/536 248/433/538 247/441/539
f 247/441/539 248/433/538 250/434/540 249/442/541
f 249/442/541 250/434/540 252/426/527 251/443/526
s 4
f 233/444/542 235/435/543 212/445/544
f 235/435/543 237/436/545 212/445/544
f 237/436/545 239/437/546 212/445/544
f 239/437/546 241/438/547 212/445/544
f 241/438/547 243/439/548 212/445/544
f 243/439/548 245/440/549 212/445/544
f 245/440/549 247/441/550 212/445/544
f 247/441/550 249/442/551 212/445/544
f 249/442/551 251/443/552 212/445/544
f 251/443/552 233/444/542 212/445/544
s off
f 213/393/553 215/446/554 236/449/555 234/447/556
f 215/446/557 217/448/558 238/451/559 236/449/560
f 217/448/561 219/450/562 240/453/563 238/451/564
f 219/450/565 221/452/566 242/455/567 240/453/568
f 221/452/569 223/454/570 244/457/571 242/455/572
f 223/454/573 225/456/574 246/459/575 244/457/576
f 225/456/577 227/458/578 248/461/579 246/459/580
f 227/458/581 229/460/582 250/463/583 248/461/584
f 229/460/585 231/462/586 252/466/587 250/463/588
f 231/462/589 213/464/590 234/465/591 252/466/592
g default
v 0.359238 0.691623 -0.512926
v 0.187426 0.691623 -0.512926
v 0.318392 0.721507 -0.546803
v 0.359238 0.706567 -0.529866
v 0.318392 0.695888 -0.557899
v 0.359238 0.693756 -0.535414
v 0.318392 0.668639 -0.551816
v 0.359238 0.680130 -0.532373
v 0.318392 0.650169 -0.530879
v 0.359238 0.670894 -0.521903
v 0.318392 0.647534 -0.503085
v 0.359238 0.669576 -0.508005
v 0.318392 0.661739 -0.479049
v 0.359238 0.676679 -0.495986
v 0.318392 0.687358 -0.467953
v 0.359238 0.689491 -0.490437
v 0.318392 0.714607 -0.474036
v 0.359238 0.703116 -0.493479
v 0.318392 0.733077 -0.494972
v 0.359238 0.712352 -0.503948
v 0.318392 0.735713 -0.522767
v 0.359238 0.713670 -0.517847
v 0.187426 0.706567 -0.529866
v 0.228273 0.721507 -0.546803
v 0.187426 0.693756 -0.535414
v 0.228273 0.695888 -0.557899
v 0.187426 0.680130 -0.532373
v 0.228273 0.668639 -0.551816
v 0.187426 0.670894 -0.521903
v 0.228273 0.650169 -0.530879
v 0.187426 0.669576 -0.508005
v 0.228273 0.647534 -0.503085
v 0.187426 0.676679 -0.495986
v 0.228273 0.661739 -0.479049
v 0.187426 0.689490 -0.490437
v 0.228273 0.687358 -0.467953
v 0.187426 0.703116 -0.493479
v 0.228273 0.714607 -0.474036
v 0.187426 0.712352 -0.503948
v 0.228273 0.733077 -0.494972
v 0.187426 0.713670 -0.517847
v 0.228273 0.735713 -0.522767
vt 0.183415 0.667358
vt 0.189664 0.578206
vt 0.202166 0.578206
vt 0.427165 0.578206
vt 0.414664 0.578206
vt 0.214664 0.578206
vt 0.227166 0.578206
vt 0.239664 0.578206
vt 0.252165 0.578206
vt 0.264664 0.578206
vt 0.277166 0.578206
vt 0.289664 0.578206
vt 0.302166 0.578206
vt 0.314664 0.578206
vt 0.327165 0.578206
vt 0.339664 0.578206
vt 0.352166 0.578206
vt 0.364664 0.578206
vt 0.377165 0.578206
vt 0.389664 0.578206
vt 0.402165 0.578206
vt 0.371626 0.675204
vt 0.332559 0.646821
vt 0.284270 0.646821
vt 0.245204 0.675204
vt 0.230282 0.721129
vt 0.245204 0.767055
vt 0.284270 0.795438
vt 0.332559 0.795438
vt 0.371626 0.767055
vt 0.308415 0.721130
vt 0.386548 0.721130
vt 0.434824 0.812971
vt 0.464665 0.721129
vt 0.356699 0.869732
vt 0.260131 0.869732
vt 0.182006 0.812971
vt 0.152165 0.721129
vt 0.182006 0.629288
vt 0.260131 0.572527
vt 0.356699 0.572527
vt 0.434824 0.629288
vt 0.332559 0.795438
vt 0.284270 0.795438
vt 0.245204 0.767055
vt 0.230282 0.721129
vt 0.245204 0.675204
vt 0.284270 0.646820
vt 0.332559 0.646820
vt 0.371626 0.675204
vt 0.386548 0.721129
vt 0.371626 0.767055
vt 0.308415 0.721129
vt 0.208415 0.667358
vt 0.183415 0.864053
vt 0.233415 0.667358
vt 0.208415 0.864053
vt 0.258415 0.667358
vt 0.233415 0.864053
vt 0.283415 0.667358
vt 0.258415 0.864053
vt 0.308415 0.667358
vt 0.283415 0.864053
vt 0.333415 0.667358
vt 0.308415 0.864053
vt 0.358415 0.667358
vt 0.333415 0.864053
vt 0.383415 0.667358
vt 0.358415 0.864053
vt 0.408415 0.667358
vt 0.383415 0.864053
vt 0.433415 0.667358
vt 0.433415 0.864053
vt 0.408415 0.864053
vn 0.483879 0.578932 -0.656277
vn 0.483879 0.578932 -0.656276
vn 0.483879 0.082617 -0.871226
vn 0.483879 0.082619 -0.871226
vn 0.483880 0.854115 -0.190650
vn 0.483880 0.854115 -0.190650
vn 0.483879 -0.445255 -0.753398
vn 0.483879 -0.445256 -0.753397
vn 0.483879 -0.803055 -0.347798
vn 0.483879 -0.803055 -0.347799
vn 0.483879 -0.854116 0.190650
vn 0.483879 -0.854115 0.190650
vn 0.483879 -0.578932 0.656276
vn 0.483879 -0.578932 0.656276
vn 0.483879 -0.082614 0.871226
vn 0.483879 -0.082617 0.871226
vn 0.483879 0.445253 0.753399
vn 0.483879 0.445254 0.753398
vn 0.483880 0.803055 0.347798
vn 0.483879 0.803055 0.347798
vn 1.000000 0.000000 0.000000
vn 1.000000 0.000000 0.000000
vn 1.000000 0.000000 0.000000
vn 1.000000 0.000000 0.000000
vn 1.000000 0.000000 0.000000
vn 1.000000 0.000000 0.000000
vn 1.000000 0.000000 0.000000
vn 1.000000 0.000000 0.000000
vn 1.000000 0.000000 0.000000
vn 1.000000 0.000000 0.000000
vn 1.000000 0.000000 0.000000
vn -0.483879 0.578932 -0.656277
vn -0.483879 0.578932 -0.656277
vn -0.483879 0.082618 -0.871226
vn -0.483879 0.082617 -0.871226
vn -0.483880 0.854115 -0.190650
vn -0.483880 0.854115 -0.190650
vn -0.483879 -0.445256 -0.753398
vn -0.483879 -0.445255 -0.753398
vn -0.483879 -0.803055 -0.347798
vn -0.483879 -0.803055 -0.347799
vn -0.483880 -0.854115 0.190650
vn -0.483880 -0.854115 0.190650
vn -0.483879 -0.578933 0.656276
vn -0.483879 -0.578933 0.656276
vn -0.483879 -0.082616 0.871226
vn -0.483880 -0.082615 0.871226
vn -0.483879 0.445254 0.753399
vn -0.483880 0.445253 0.753399
vn -0.483879 0.803055 0.347798
vn -0.483879 0.803055 0.347798
vn -1.000000 0.000000 0.000000
vn -1.000000 0.000000 0.000000
vn -1.000000 0.000000 0.000000
vn -1.000000 0.000000 0.000000
vn -1.000000 0.000000 0.000000
vn -1.000000 0.000000 0.000000
vn -1.000000 0.000000 0.000000
vn -1.000000 0.000000 0.000000
vn -1.000000 0.000000 0.000000
vn -1.000000 0.000000 0.000000
vn -1.000000 0.000000 0.000000
vn 0.000000 0.397425 -0.917634
vn 0.000000 0.397425 -0.917634
vn 0.000000 0.397425 -0.917634
vn 0.000000 0.397425 -0.917634
vn 0.000000 -0.217852 -0.975982
vn 0.000000 -0.217852 -0.975982
vn 0.000000 -0.217852 -0.975982
vn 0.000000 -0.217852 -0.975982
vn -0.000000 -0.749917 -0.661532
vn -0.000000 -0.749917 -0.661532
vn -0.000000 -0.749917 -0.661532
vn -0.000000 -0.749917 -0.661532
vn -0.000000 -0.995533 -0.094412
vn -0.000000 -0.995533 -0.094412
vn -0.000000 -0.995533 -0.094412
vn -0.000000 -0.995533 -0.094412
vn 0.000000 -0.860891 0.508789
vn 0.000000 -0.860891 0.508789
vn 0.000000 -0.860891 0.508789
vn 0.000000 -0.860891 0.508789
vn 0.000000 -0.397422 0.917636
vn 0.000000 -0.397422 0.917636
vn 0.000000 -0.397422 0.917636
vn 0.000000 -0.397422 0.917636
vn 0.000000 0.217852 0.975982
vn 0.000000 0.217852 0.975982
vn 0.000000 0.217852 0.975982
vn 0.000000 0.217852 0.975982
vn 0.000000 0.749914 0.661535
vn 0.000000 0.749914 0.661535
vn 0.000000 0.749914 0.661535
vn 0.000000 0.749914 0.661535
vn 0.000000 0.995533 0.094410
vn 0.000000 0.995533 0.094410
vn 0.000000 0.995533 0.094410
vn 0.000000 0.995533 0.094410
vn 0.000000 0.860891 -0.508790
vn 0.000000 0.860891 -0.508790
vn 0.000000 0.860891 -0.508790
vn 0.000000 0.860891 -0.508790
s 1
g chest hinges pCylinder1
usemtl lambert5SG
f 255/467/593 256/468/594 258/469/595 257/520/596
f 256/470/594 255/538/593 273/536/597 274/471/598
f 257/520/596 258/472/595 260/473/599 259/522/600
f 259/522/600 260/474/599 262/475/601 261/524/602
f 261/524/602 262/476/601 264/477/603 263/526/604
f 263/526/604 264/478/603 266/479/605 265/528/606
f 265/528/606 266/480/605 268/481/607 267/530/608
f 267/530/608 268/482/607 270/483/609 269/532/610
f 269/532/610 270/484/609 272/485/611 271/534/612
f 271/534/612 272/486/611 274/487/598 273/536/597
s 2
f 258/489/613 256/488/614 253/497/615
f 260/490/616 258/489/613 253/497/615
f 262/491/617 260/490/616 253/497/615
f 264/492/618 262/491/617 253/497/615
f 266/493/619 264/492/618 253/497/615
f 268/494/620 266/493/619 253/497/615
f 270/495/621 268/494/620 253/497/615
f 272/496/622 270/495/621 253/497/615
f 274/498/623 272/496/622 253/497/615
f 256/488/614 274/498/623 253/497/615
s 3
f 275/518/624 276/499/625 278/501/626 277/509/627
f 276/499/625 275/518/624 293/517/628 294/500/629
f 277/509/627 278/501/626 280/502/630 279/510/631
f 279/510/631 280/502/630 282/503/632 281/511/633
f 281/511/633 282/503/632 284/504/634 283/512/635
f 283/512/635 284/504/634 286/505/636 285/513/637
f 285/513/637 286/505/636 288/506/638 287/514/639
f 287/514/639 288/506/638 290/507/640 289/515/641
f 289/515/641 290/507/640 292/508/642 291/516/643
f 291/516/643 292/508/642 294/500/629 293/517/628
s 4
f 275/518/644 277/509/645 254/519/646
f 277/509/645 279/510/647 254/519/646
f 279/510/647 281/511/648 254/519/646
f 281/511/648 283/512/649 254/519/646
f 283/512/649 285/513/650 254/519/646
f 285/513/650 287/514/651 254/519/646
f 287/514/651 289/515/652 254/519/646
f 289/515/652 291/516/653 254/519/646
f 291/516/653 293/517/654 254/519/646
f 293/517/654 275/518/644 254/519/646
s off
f 255/467/655 257/520/656 278/523/657 276/521/658
f 257/520/659 259/522/660 280/525/661 278/523/662
f 259/522/663 261/524/664 282/527/665 280/525/666
f 261/524/667 263/526/668 284/529/669 282/527/670
f 263/526/671 265/528/672 286/531/673 284/529/674
f 265/528/675 267/530/676 288/533/677 286/531/678
f 267/530/679 269/532/680 290/535/681 288/533/682
f 269/532/683 271/534/684 292/537/685 290/535/686
f 271/534/687 273/536/688 294/540/689 292/537/690
f 273/536/691 255/538/692 276/539/693 294/540/694
g default
v -0.500000 0.018091 0.500000
v 0.500000 0.018091 0.500000
v -0.500000 0.654678 0.500000
v 0.500000 0.654678 0.500000
v -0.500000 0.654678 -0.500000
v 0.500000 0.654678 -0.500000
v -0.500000 0.018091 -0.500000
v 0.500000 0.018091 -0.500000
v -0.413264 0.654678 0.413264
v 0.413264 0.654678 0.413264
v 0.413264 0.654678 -0.413264
v -0.413264 0.654678 -0.413264
v -0.413264 0.091879 0.413264
v 0.413264 0.091879 0.413264
v 0.413264 0.091879 -0.413264
v -0.413264 0.091879 -0.413264
vt 1.998885 0.706115
vt 1.998885 1.431052
vt 1.408655 0.706115
vt 1.418026 1.431052
vt 0.897600 0.362036
vt 0.900845 1.522280
vt 1.585256 0.362036
vt 1.588501 1.522280
vt 1.088797 0.800059
vt 1.088797 1.058974
vt 2.002130 1.991670
vt 1.418026 1.991670
vt 1.998885 -0.005211
vt 1.424152 -0.005211
vt 1.416104 0.890676
vt 1.429201 1.427212
vt 1.092690 1.426431
vt 1.092689 0.894407
vt 1.325961 1.009270
vt 1.325961 1.268186
vt 1.175604 1.268187
vt 1.175604 1.009270
vn 0.000000 0.000000 1.000000
vn 0.000000 0.000000 1.000000
vn 0.000000 0.000000 1.000000
vn 0.000000 0.000000 1.000000
vn 0.000000 1.000000 0.000000
vn 0.000000 1.000000 0.000000
vn 0.000000 1.000000 0.000000
vn 0.000000 1.000000 0.000000
vn 0.000000 0.000000 -1.000000
vn 0.000000 0.000000 -1.000000
vn 0.000000 0.000000 -1.000000
vn 0.000000 0.000000 -1.000000
vn 0.000000 -1.000000 0.000000
vn 0.000000 -1.000000 0.000000
vn 0.000000 -1.000000 0.000000
vn 0.000000 -1.000000 0.000000
vn 1.000000 0.000000 0.000000
vn 1.000000 0.000000 0.000000
vn 1.000000 0.000000 0.000000
vn 1.000000 0.000000 0.000000
vn -1.000000 0.000000 0.000000
vn -1.000000 0.000000 0.000000
vn -1.000000 0.000000 0.000000
vn -1.000000 0.000000 0.000000
vn 0.000000 1.000000 -0.000000
vn 0.000000 1.000000 -0.000000
vn 0.000000 1.000000 -0.000000
vn 0.000000 1.000000 -0.000000
vn 0.000000 1.000000 0.000000
vn 0.000000 1.000000 0.000000
vn 0.000000 1.000000 0.000000
vn 0.000000 1.000000 0.000000
vn 0.000000 1.000000 0.000000
vn 0.000000 1.000000 0.000000
vn 0.000000 1.000000 0.000000
vn 0.000000 1.000000 0.000000
vn 0.000000 1.000000 0.000000
vn 0.000000 1.000000 0.000000
vn 0.000000 1.000000 0.000000
vn 0.000000 1.000000 0.000000
vn 0.000000 0.000000 -1.000000
vn 0.000000 0.000000 -1.000000
vn 0.000000 0.000000 -1.000000
vn 0.000000 0.000000 -1.000000
vn -1.000000 0.000000 0.000000
vn -1.000000 0.000000 0.000000
vn -1.000000 0.000000 0.000000
vn -1.000000 0.000000 0.000000
vn 0.000000 0.000000 1.000000
vn 0.000000 0.000000 1.000000
vn 0.000000 0.000000 1.000000
vn 0.000000 0.000000 1.000000
vn 1.000000 0.000000 0.000000
vn 1.000000 0.000000 0.000000
vn 1.000000 0.000000 0.000000
vn 1.000000 0.000000 0.000000
s off
g chest bottomeChest chest
usemtl lambert3SG
f 295/541/695 296/542/696 298/544/697 297/543/698
f 307/559/699 308/560/700 309/561/701 310/562/702
f 299/545/703 300/546/704 302/548/705 301/547/706
f 301/547/707 302/548/708 296/550/709 295/549/710
f 296/542/711 302/551/712 300/552/713 298/544/714
f 301/553/715 295/541/716 297/543/717 299/554/718
f 297/543/719 298/544/720 304/556/721 303/555/722
f 298/544/723 300/546/724 305/557/725 304/556/726
f 300/546/727 299/545/728 306/558/729 305/557/730
f 299/545/731 297/543/732 303/555/733 306/558/734
f 303/555/735 304/556/736 308/560/737 307/559/738
f 304/556/739 305/557/740 309/561/741 308/560/742
f 305/557/743 306/558/744 310/562/745 309/561/746
f 306/558/747 303/555/748 307/559/749 310/562/750
g default
v -0.500000 1.317695 0.313223
v 0.500000 1.317695 0.313223
v -0.500000 1.538673 0.149574
v 0.500000 1.538673 0.149574
v -0.500000 0.943536 -0.654051
v 0.500000 0.943536 -0.654051
v -0.500000 0.722558 -0.490402
v 0.500000 0.722558 -0.490402
v -0.421850 0.769068 -0.427599
v 0.421850 0.769068 -0.427599
v 0.421850 1.271185 0.250420
v -0.421850 1.271185 0.250420
v -0.421850 0.939376 -0.553722
v 0.421850 0.939376 -0.553722
v 0.421850 1.441493 0.124296
v -0.421850 1.441493 0.124296
vt 2.009737 1.007566
vt 2.007730 1.550081
vt 1.787476 1.007083
vt 1.785391 1.504665
vt 1.338699 0.995844
vt 1.335552 1.510986
vt 1.291080 0.984887
vt 1.287195 1.565122
vt 0.676096 0.965285
vt 0.671092 1.577059
vt 2.005179 2.041687
vt 1.782878 1.996018
vt 2.010698 0.515973
vt 1.788399 0.515706
vt 0.814688 1.049307
vt 0.809066 1.498180
vt 0.284518 1.498180
vt 0.290141 1.049307
vt 0.766894 1.102724
vt 0.766894 1.481319
vt 0.393529 1.481319
vt 0.393529 1.102724
vn 0.000000 0.595137 0.803624
vn 0.000000 0.595137 0.803624
vn 0.000000 0.595137 0.803624
vn 0.000000 0.595137 0.803624
vn 0.000000 0.803624 -0.595137
vn 0.000000 0.803624 -0.595137
vn 0.000000 0.803624 -0.595137
vn 0.000000 0.803624 -0.595137
vn 0.000000 -0.595137 -0.803624
vn 0.000000 -0.595137 -0.803624
vn 0.000000 -0.595137 -0.803624
vn 0.000000 -0.595137 -0.803624
vn 0.000000 -0.803624 0.595137
vn 0.000000 -0.803624 0.595137
vn 0.000000 -0.803624 0.595137
vn 0.000000 -0.803624 0.595137
vn 1.000000 0.000000 0.000000
vn 1.000000 0.000000 0.000000
vn 1.000000 0.000000 0.000000
vn 1.000000 0.000000 0.000000
vn -1.000000 0.000000 0.000000
vn -1.000000 0.000000 0.000000
vn -1.000000 0.000000 0.000000
vn -1.000000 0.000000 0.000000
vn 0.000000 -0.803624 0.595137
vn 0.000000 -0.803624 0.595137
vn 0.000000 -0.803624 0.595137
vn 0.000000 -0.803624 0.595137
vn 0.000000 -0.803624 0.595137
vn 0.000000 -0.803624 0.595137
vn 0.000000 -0.803624 0.595137
vn 0.000000 -0.803624 0.595137
vn 0.000000 -0.803625 0.595137
vn 0.000000 -0.803625 0.595137
vn 0.000000 -0.803624 0.595137
vn 0.000000 -0.803624 0.595137
vn 0.000000 -0.803624 0.595137
vn 0.000000 -0.803624 0.595137
vn 0.000000 -0.803624 0.595137
vn 0.000000 -0.803624 0.595137
vn 0.000000 0.595137 0.803624
vn 0.000000 0.595137 0.803624
vn 0.000000 0.595137 0.803624
vn 0.000000 0.595137 0.803624
vn -1.000000 0.000000 0.000000
vn -1.000000 0.000000 0.000000
vn -1.000000 0.000000 0.000000
vn -1.000000 0.000000 0.000000
vn 0.000000 -0.595137 -0.803624
vn 0.000000 -0.595137 -0.803624
vn 0.000000 -0.595137 -0.803624
vn 0.000000 -0.595137 -0.803624
vn 1.000000 0.000000 0.000000
vn 1.000000 0.000000 0.000000
vn 1.000000 0.000000 0.000000
vn 1.000000 0.000000 0.000000
s off
g chest chest topChest
usemtl lambert4SG
f 311/563/751 312/564/752 314/566/753 313/565/754
f 313/565/755 314/566/756 316/568/757 315/567/758
f 315/567/759 316/568/760 318/570/761 317/569/762
f 323/581/763 324/582/764 325/583/765 326/584/766
f 312/564/767 318/573/768 316/574/769 314/566/770
f 317/575/771 311/563/772 313/565/773 315/576/774
f 317/569/775 318/570/776 320/578/777 319/577/778
f 318/570/779 312/572/780 321/579/781 320/578/782
f 312/572/783 311/571/784 322/580/785 321/579/786
f 311/571/787 317/569/788 319/577/789 322/580/790
f 319/577/791 320/578/792 324/582/793 323/581/794
f 320/578/795 321/579/796 325/583/797 324/582/798
f 321/579/799 322/580/800 326/584/801 325/583/802
f 322/580/803 319/577/804 323/581/805 326/584/806
g default
v -0.095551 0.413212 0.516250
v 0.099598 0.413212 0.516250
v -0.095551 0.654728 0.516250
v 0.099598 0.654728 0.516250
v -0.095551 0.654728 0.494595
v 0.099598 0.654728 0.494595
v -0.095551 0.413212 0.494595
v 0.099598 0.413212 0.494595
vt 0.294599 0.118980
vt 0.406981 0.118980
vt 0.294599 0.258063
vt 0.406981 0.258063
vt 0.294599 0.270534
vt 0.406981 0.270534
vt 0.294599 0.409617
vt 0.406981 0.409617
vt 0.294599 0.422088
vt 0.406981 0.422088
vt 0.422617 0.118980
vt 0.422617 0.258063
vt 0.285294 0.118980
vt 0.285294 0.258063
vn 0.000000 0.000000 1.000000
vn 0.000000 0.000000 1.000000
vn 0.000000 0.000000 1.000000
vn 0.000000 0.000000 1.000000
vn 0.000000 1.000000 0.000000
vn 0.000000 1.000000 0.000000
vn 0.000000 1.000000 0.000000
vn 0.000000 1.000000 0.000000
vn 0.000000 0.000000 -1.000000
vn 0.000000 0.000000 -1.000000
vn 0.000000 0.000000 -1.000000
vn 0.000000 0.000000 -1.000000
vn 0.000000 -1.000000 0.000000
vn 0.000000 -1.000000 0.000000
vn 0.000000 -1.000000 0.000000
vn 0.000000 -1.000000 0.000000
vn 1.000000 0.000000 0.000000
vn 1.000000 0.000000 0.000000
vn 1.000000 0.000000 0.000000
vn 1.000000 0.000000 0.000000
vn -1.000000 0.000000 0.000000
vn -1.000000 0.000000 0.000000
vn -1.000000 0.000000 0.000000
vn -1.000000 0.000000 0.000000
s off
g chest bottomLockPad lockpads
usemtl lambert5SG
f 327/585/807 328/586/808 330/588/809 329/587/810
f 329/587/811 330/588/812 332/590/813 331/589/814
f 331/589/815 332/590/816 334/592/817 333/591/818
f 333/591/819 334/592/820 328/594/821 327/593/822
f 328/586/823 334/595/824 332/596/825 330/588/826
f 333/597/827 327/585/828 329/587/829 331/598/830
g default
v 0.000000 0.506565 0.513498
v 0.000000 0.511575 0.528917
v 0.000000 0.524691 0.538446
v 0.000000 0.540903 0.538446
v 0.000000 0.554019 0.528917
v 0.000000 0.559029 0.513498
v -0.015419 0.501555 0.513498
v -0.015419 0.507522 0.531861
v -0.015419 0.523142 0.543211
v -0.015419 0.542451 0.543211
v -0.015419 0.558072 0.531861
v -0.015419 0.564038 0.513498
v -0.024948 0.488439 0.513498
v -0.024948 0.496911 0.539571
v -0.024948 0.519089 0.555685
v -0.024948 0.546504 0.555685
v -0.024948 0.568683 0.539571
v -0.024948 0.577154 0.513498
v -0.024948 0.472227 0.513498
v -0.024948 0.483795 0.549100
v -0.024948 0.514080 0.571103
v -0.024948 0.551514 0.571103
v -0.024948 0.581799 0.549100
v -0.024948 0.593367 0.513498
v -0.015419 0.459111 0.513498
v -0.015419 0.473184 0.556809
v -0.015419 0.510026 0.583577
v -0.015419 0.555567 0.583577
v -0.015419 0.592410 0.556809
v -0.015419 0.606483 0.513498
v -0.000000 0.454101 0.513498
v -0.000000 0.469130 0.559754
v -0.000000 0.508478 0.588342
v -0.000000 0.557115 0.588342
v -0.000000 0.596463 0.559754
v -0.000000 0.611492 0.513498
v 0.015419 0.459111 0.513498
v 0.015419 0.473184 0.556809
v 0.015419 0.510026 0.583577
v 0.015419 0.555567 0.583577
v 0.015419 0.592410 0.556809
v 0.015419 0.606483 0.513498
v 0.024948 0.472227 0.513498
v 0.024948 0.483795 0.549100
v 0.024948 0.514080 0.571103
v 0.024948 0.551514 0.571103
v 0.024948 0.581799 0.549100
v 0.024948 0.593367 0.513498
v 0.024948 0.488439 0.513498
v 0.024948 0.496911 0.539571
v 0.024948 0.519089 0.555685
v 0.024948 0.546504 0.555685
v 0.024948 0.568683 0.539571
v 0.024948 0.577154 0.513498
v 0.015419 0.501555 0.513498
v 0.015419 0.507522 0.531861
v 0.015419 0.523142 0.543211
v 0.015419 0.542451 0.543211
v 0.015419 0.558072 0.531861
v 0.015419 0.564038 0.513498
vt 0.882453 0.265403
vt 0.882651 0.237266
vt 0.882848 0.209129
vt 0.883045 0.180993
vt 0.883243 0.152856
vt 0.883440 0.124719
vt 0.854317 0.265205
vt 0.854514 0.237069
vt 0.854711 0.208932
vt 0.854909 0.180795
vt 0.855106 0.152659
vt 0.855303 0.124522
vt 0.826180 0.265008
vt 0.826377 0.236871
vt 0.826575 0.208735
vt 0.826772 0.180598
vt 0.826969 0.152461
vt 0.827167 0.124325
vt 0.798043 0.264811
vt 0.798241 0.236674
vt 0.798438 0.208537
vt 0.798635 0.180401
vt 0.798833 0.152264
vt 0.799030 0.124127
vt 0.769907 0.264613
vt 0.770104 0.236477
vt 0.770301 0.208340
vt 0.770499 0.180203
vt 0.770696 0.152067
vt 0.770893 0.123930
vt 0.741770 0.264416
vt 0.741967 0.236279
vt 0.742165 0.208143
vt 0.742362 0.180006
vt 0.742559 0.151869
vt 0.742757 0.123733
vt 0.713633 0.264219
vt 0.713831 0.236082
vt 0.714028 0.207945
vt 0.714225 0.179809
vt 0.714423 0.151672
vt 0.714620 0.123535
vt 0.685497 0.264021
vt 0.685694 0.235885
vt 0.685891 0.207748
vt 0.686089 0.179611
vt 0.686286 0.151475
vt 0.686483 0.123338
vt 0.657360 0.263824
vt 0.657557 0.235687
vt 0.657755 0.207551
vt 0.657952 0.179414
vt 0.658149 0.151277
vt 0.658347 0.123140
vt 0.629223 0.263627
vt 0.629421 0.235490
vt 0.629618 0.207353
vt 0.629815 0.179217
vt 0.630013 0.151080
vt 0.630210 0.122943
vt 0.601086 0.263429
vt 0.601284 0.235293
vt 0.601481 0.207156
vt 0.601679 0.179019
vt 0.601876 0.150882
vt 0.602073 0.122746
vn -0.295242 0.908661 -0.295242
vn -0.295242 0.908661 -0.295242
vn -0.295242 0.908661 -0.295242
vn -0.295242 0.908661 -0.295242
vn -0.295242 0.561583 -0.772953
vn -0.295242 0.561583 -0.772953
vn -0.295242 0.561583 -0.772953
vn -0.295242 0.561583 -0.772953
vn -0.295242 0.000000 -0.955423
vn -0.295242 0.000000 -0.955423
vn -0.295242 0.000000 -0.955423
vn -0.295242 0.000000 -0.955423
vn -0.295242 -0.561583 -0.772953
vn -0.295242 -0.561583 -0.772953
vn -0.295242 -0.561583 -0.772953
vn -0.295242 -0.561583 -0.772953
vn -0.295242 -0.908661 -0.295242
vn -0.295242 -0.908661 -0.295242
vn -0.295242 -0.908661 -0.295242
vn -0.295242 -0.908661 -0.295242
vn -0.794654 0.577350 -0.187593
vn -0.794654 0.577350 -0.187593
vn -0.794654 0.577350 -0.187593
vn -0.794654 0.577350 -0.187593
vn -0.794654 0.356822 -0.491123
vn -0.794654 0.356822 -0.491123
vn -0.794654 0.356822 -0.491124
vn -0.794654 0.356822 -0.491123
vn -0.794654 -0.000000 -0.607062
vn -0.794654 -0.000000 -0.607062
vn -0.794654 -0.000000 -0.607062
vn -0.794654 -0.000000 -0.607062
vn -0.794654 -0.356822 -0.491123
vn -0.794654 -0.356822 -0.491123
vn -0.794654 -0.356822 -0.491124
vn -0.794654 -0.356822 -0.491124
vn -0.794654 -0.577350 -0.187592
vn -0.794654 -0.577350 -0.187592
vn -0.794654 -0.577350 -0.187592
vn -0.794654 -0.577350 -0.187592
vn -1.000000 0.000000 -0.000000
vn -1.000000 0.000000 -0.000000
vn -1.000000 0.000000 -0.000000
vn -1.000000 0.000000 -0.000000
vn -1.000000 0.000000 -0.000000
vn -1.000000 0.000000 -0.000000
vn -1.000000 0.000000 -0.000000
vn -1.000000 0.000000 -0.000000
vn -1.000000 -0.000000 -0.000000
vn -1.000000 -0.000000 -0.000000
vn -1.000000 -0.000000 -0.000000
vn -1.000000 -0.000000 -0.000000
vn -1.000000 -0.000000 -0.000000
vn -1.000000 -0.000000 -0.000000
vn -1.000000 -0.000000 -0.000000
vn -1.000000 -0.000000 -0.000000
vn -1.000000 -0.000000 -0.000000
vn -1.000000 -0.000000 -0.000000
vn -1.000000 -0.000000 -0.000000
vn -1.000000 -0.000000 -0.000000
vn -0.794655 -0.577350 0.187592
vn -0.794655 -0.577350 0.187592
vn -0.794655 -0.577350 0.187592
vn -0.794655 -0.577350 0.187592
vn -0.794655 -0.356822 0.491123
vn -0.794655 -0.356822 0.491123
vn -0.794655 -0.356822 0.491123
vn -0.794655 -0.356822 0.491123
vn -0.794655 0.000000 0.607062
vn -0.794655 0.000000 0.607062
vn -0.794655 0.000000 0.607062
vn -0.794655 0.000000 0.607062
vn -0.794655 0.356822 0.491123
vn -0.794655 0.356822 0.491123
vn -0.794655 0.356822 0.491123
vn -0.794655 0.356822 0.491123
vn -0.794655 0.577350 0.187592
vn -0.794655 0.577350 0.187592
vn -0.794655 0.577350 0.187592
vn -0.794655 0.577350 0.187592
vn -0.295242 -0.908661 0.295242
vn -0.295242 -0.908661 0.295242
vn -0.295242 -0.908661 0.295242
vn -0.295242 -0.908661 0.295242
vn -0.295242 -0.561583 0.772953
vn -0.295242 -0.561583 0.772953
vn -0.295242 -0.561583 0.772953
vn -0.295242 -0.561583 0.772953
vn -0.295242 0.000000 0.955423
vn -0.295242 0.000000 0.955423
vn -0.295242 0.000000 0.955423
vn -0.295242 0.000000 0.955423
vn -0.295242 0.561583 0.772953
vn -0.295242 0.561583 0.772953
vn -0.295242 0.561583 0.772953
vn -0.295242 0.561583 0.772953
vn -0.295241 0.908661 0.295242
vn -0.295241 0.908661 0.295242
vn -0.295241 0.908661 0.295242
vn -0.295241 0.908661 0.295242
vn 0.295242 -0.908661 0.295242
vn 0.295242 -0.908661 0.295242
vn 0.295242 -0.908661 0.295242
vn 0.295242 -0.908661 0.295242
vn 0.295242 -0.561583 0.772953
vn 0.295242 -0.561583 0.772953
vn 0.295242 -0.561583 0.772953
vn 0.295242 -0.561583 0.772953
vn 0.295242 0.000000 0.955423
vn 0.295242 0.000000 0.955423
vn 0.295242 0.000000 0.955423
vn 0.295242 0.000000 0.955423
vn 0.295242 0.561583 0.772953
vn 0.295242 0.561583 0.772953
vn 0.295242 0.561583 0.772953
vn 0.295242 0.561583 0.772953
vn 0.295241 0.908661 0.295242
vn 0.295241 0.908661 0.295242
vn 0.295241 0.908661 0.295242
vn 0.295241 0.908661 0.295242
vn 0.794655 -0.577350 0.187593
vn 0.794655 -0.577350 0.187592
vn 0.794655 -0.577350 0.187593
vn 0.794654 -0.577350 0.187592
vn 0.794654 -0.356822 0.491124
vn 0.794654 -0.356822 0.491124
vn 0.794654 -0.356822 0.491124
vn 0.794654 -0.356822 0.491124
vn 0.794654 0.000000 0.607062
vn 0.794654 0.000000 0.607062
vn 0.794654 0.000000 0.607062
vn 0.794654 0.000000 0.607062
vn 0.794654 0.356822 0.491123
vn 0.794654 0.356822 0.491123
vn 0.794654 0.356822 0.491123
vn 0.794654 0.356822 0.491123
vn 0.794654 0.577350 0.187593
vn 0.794654 0.577350 0.187593
vn 0.794654 0.577350 0.187593
vn 0.794654 0.577350 0.187593
vn 1.000000 -0.000000 0.000000
vn 1.000000 -0.000000 0.000000
vn 1.000000 -0.000000 0.000000
vn 1.000000 -0.000000 0.000000
vn 1.000000 -0.000000 0.000000
vn 1.000000 -0.000000 0.000000
vn 1.000000 -0.000000 0.000000
vn 1.000000 -0.000000 0.000000
vn 1.000000 0.000000 0.000000
vn 1.000000 0.000000 0.000000
vn 1.000000 0.000000 0.000000
vn 1.000000 0.000000 0.000000
vn 1.000000 0.000000 0.000000
vn 1.000000 0.000000 0.000000
vn 1.000000 0.000000 0.000000
vn 1.000000 0.000000 0.000000
vn 1.000000 0.000000 0.000000
vn 1.000000 0.000000 0.000000
vn 1.000000 0.000000 0.000000
vn 1.000000 0.000000 0.000000
vn 0.794655 0.577350 -0.187593
vn 0.794655 0.577350 -0.187593
vn 0.794655 0.577350 -0.187593
vn 0.794655 0.577350 -0.187593
vn 0.794655 0.356822 -0.491123
vn 0.794655 0.356822 -0.491123
vn 0.794655 0.356822 -0.491123
vn 0.794655 0.356822 -0.491123
vn 0.794655 -0.000000 -0.607062
vn 0.794655 -0.000000 -0.607062
vn 0.794655 -0.000000 -0.607062
vn 0.794655 -0.000000 -0.607062
vn 0.794655 -0.356822 -0.491123
vn 0.794655 -0.356822 -0.491123
vn 0.794655 -0.356822 -0.491123
vn 0.794655 -0.356822 -0.491123
vn 0.794655 -0.577350 -0.187592
vn 0.794655 -0.577350 -0.187592
vn 0.794655 -0.577350 -0.187592
vn 0.794655 -0.577350 -0.187592
vn 0.295242 0.908661 -0.295242
vn 0.295242 0.908661 -0.295242
vn 0.295242 0.908661 -0.295242
vn 0.295242 0.908661 -0.295242
vn 0.295242 0.561583 -0.772953
vn 0.295242 0.561583 -0.772953
vn 0.295242 0.561583 -0.772953
vn 0.295242 0.561583 -0.772953
vn 0.295242 -0.000000 -0.955423
vn 0.295242 -0.000000 -0.955423
vn 0.295242 -0.000000 -0.955423
vn 0.295242 -0.000000 -0.955423
vn 0.295242 -0.561583 -0.772953
vn 0.295242 -0.561583 -0.772953
vn 0.295242 -0.561583 -0.772953
vn 0.295242 -0.561583 -0.772953
vn 0.295242 -0.908661 -0.295242
vn 0.295242 -0.908661 -0.295242
vn 0.295242 -0.908661 -0.295242
vn 0.295242 -0.908661 -0.295242
s off
g chest lockpads bottomLock
usemtl lambert5SG
f 336/600/831 335/599/832 341/605/833 342/606/834
f 337/601/835 336/600/836 342/606/837 343/607/838
f 338/602/839 337/601/840 343/607/841 344/608/842
f 339/603/843 338/602/844 344/608/845 345/609/846
f 340/604/847 339/603/848 345/609/849 346/610/850
f 342/606/851 341/605/852 347/611/853 348/612/854
f 343/607/855 342/606/856 348/612/857 349/613/858
f 344/608/859 343/607/860 349/613/861 350/614/862
f 345/609/863 344/608/864 350/614/865 351/615/866
f 346/610/867 345/609/868 351/615/869 352/616/870
f 348/612/871 347/611/872 353/617/873 354/618/874
f 349/613/875 348/612/876 354/618/877 355/619/878
f 350/614/879 349/613/880 355/619/881 356/620/882
f 351/615/883 350/614/884 356/620/885 357/621/886
f 352/616/887 351/615/888 357/621/889 358/622/890
f 354/618/891 353/617/892 359/623/893 360/624/894
f 355/619/895 354/618/896 360/624/897 361/625/898
f 356/620/899 355/619/900 361/625/901 362/626/902
f 357/621/903 356/620/904 362/626/905 363/627/906
f 358/622/907 357/621/908 363/627/909 364/628/910
f 360/624/911 359/623/912 365/629/913 366/630/914
f 361/625/915 360/624/916 366/630/917 367/631/918
f 362/626/919 361/625/920 367/631/921 368/632/922
f 363/627/923 362/626/924 368/632/925 369/633/926
f 364/628/927 363/627/928 369/633/929 370/634/930
f 366/630/931 365/629/932 371/635/933 372/636/934
f 367/631/935 366/630/936 372/636/937 373/637/938
f 368/632/939 367/631/940 373/637/941 374/638/942
f 369/633/943 368/632/944 374/638/945 375/639/946
f 370/634/947 369/633/948 375/639/949 376/640/950
f 372/636/951 371/635/952 377/641/953 378/642/954
f 373/637/955 372/636/956 378/642/957 379/643/958
f 374/638/959 373/637/960 379/643/961 380/644/962
f 375/639/963 374/638/964 380/644/965 381/645/966
f 376/640/967 375/639/968 381/645/969 382/646/970
f 378/642/971 377/641/972 383/647/973 384/648/974
f 379/643/975 378/642/976 384/648/977 385/649/978
f 380/644/979 379/643/980 385/649/981 386/650/982
f 381/645/983 380/644/984 386/650/985 387/651/986
f 382/646/987 381/645/988 387/651/989 388/652/990
f 384/648/991 383/647/992 389/653/993 390/654/994
f 385/649/995 384/648/996 390/654/997 391/655/998
f 386/650/999 385/649/1000 391/655/1001 392/656/1002
f 387/651/1003 386/650/1004 392/656/1005 393/657/1006
f 388/652/1007 387/651/1008 393/657/1009 394/658/1010
f 390/654/1011 389/653/1012 335/659/1013 336/660/1014
f 391/655/1015 390/654/1016 336/660/1017 337/661/1018
f 392/656/1019 391/655/1020 337/661/1021 338/662/1022
f 393/657/1023 392/656/1024 338/662/1025 339/663/1026
f 394/658/1027 393/657/1028 339/663/1029 340/664/1030
g default
v -0.102214 1.331782 0.329606
v 0.092935 1.331782 0.329606
v -0.102214 1.467051 0.226810
v 0.092935 1.467051 0.226810
v -0.102214 1.453948 0.209569
v 0.092935 1.453948 0.209569
v -0.102214 1.318680 0.312364
v 0.092935 1.318680 0.312364
vt 0.281610 0.126518
vt 0.428023 0.126518
vt 0.281610 0.253984
vt 0.428023 0.253984
vt 0.281610 0.270231
vt 0.428023 0.270231
vt 0.281610 0.397696
vt 0.428023 0.397696
vt 0.281610 0.413943
vt 0.428023 0.413943
vt 0.447618 0.126518
vt 0.447618 0.253984
vt 0.268712 0.126518
vt 0.268712 0.253984
vn 0.000000 0.605052 0.796186
vn 0.000000 0.605052 0.796186
vn 0.000000 0.605052 0.796186
vn 0.000000 0.605052 0.796186
vn 0.000000 0.796186 -0.605052
vn 0.000000 0.796186 -0.605052
vn 0.000000 0.796186 -0.605052
vn 0.000000 0.796186 -0.605052
vn 0.000000 -0.605052 -0.796186
vn 0.000000 -0.605052 -0.796186
vn 0.000000 -0.605052 -0.796186
vn 0.000000 -0.605052 -0.796186
vn 0.000000 -0.796186 0.605052
vn 0.000000 -0.796186 0.605052
vn 0.000000 -0.796186 0.605052
vn 0.000000 -0.796186 0.605052
vn 1.000000 0.000000 0.000000
vn 1.000000 0.000000 0.000000
vn 1.000000 0.000000 0.000000
vn 1.000000 0.000000 0.000000
vn -1.000000 0.000000 0.000000
vn -1.000000 0.000000 0.000000
vn -1.000000 0.000000 0.000000
vn -1.000000 0.000000 0.000000
s off
g chest lockpads topLockPad
usemtl lambert5SG
f 395/665/1031 396/666/1032 398/668/1033 397/667/1034
f 397/667/1035 398/668/1036 400/670/1037 399/669/1038
f 399/669/1039 400/670/1040 402/672/1041 401/671/1042
f 401/671/1043 402/672/1044 396/674/1045 395/673/1046
f 396/666/1047 402/675/1048 400/676/1049 398/668/1050
f 401/677/1051 395/665/1052 397/667/1053 399/678/1054
g default
v -0.035022 1.235638 0.412284
v -0.011674 1.235638 0.412284
v 0.011674 1.235638 0.412284
v 0.035022 1.235638 0.412284
v -0.031208 1.268879 0.386540
v -0.010403 1.268879 0.386540
v 0.010403 1.268879 0.386540
v 0.031208 1.268879 0.386540
v -0.040538 1.302876 0.361886
v -0.013513 1.302876 0.361886
v 0.013513 1.302876 0.361886
v 0.040538 1.302876 0.361886
v -0.045432 1.336624 0.336859
v -0.015144 1.336624 0.336859
v 0.015144 1.336624 0.336859
v 0.045432 1.336624 0.336859
v -0.039873 1.371664 0.313530
v -0.015144 1.370074 0.311438
v 0.015144 1.370074 0.311438
v 0.039873 1.371664 0.313530
v -0.059973 1.386555 0.287404
v -0.045432 1.397979 0.278722
v -0.015144 1.397979 0.278722
v 0.015144 1.397979 0.278722
v 0.045432 1.397979 0.278722
v 0.059973 1.386555 0.287404
v -0.075720 1.364529 0.304142
v -0.045432 1.364529 0.304142
v -0.015144 1.364529 0.304142
v 0.015144 1.364529 0.304142
v 0.045432 1.364529 0.304142
v 0.075720 1.364529 0.304142
v -0.056967 1.331079 0.329562
v -0.045432 1.331079 0.329562
v -0.015144 1.331079 0.329562
v 0.015144 1.331079 0.329562
v 0.045432 1.331079 0.329562
v 0.056967 1.331079 0.329562
v -0.067564 1.297928 0.355376
v -0.040538 1.297928 0.355376
v -0.013513 1.297928 0.355376
v 0.013513 1.297928 0.355376
v 0.040538 1.297928 0.355376
v 0.067564 1.297928 0.355376
v -0.049670 1.265174 0.381449
v -0.031208 1.265070 0.381528
v -0.010403 1.265070 0.381528
v 0.010403 1.265070 0.381528
v 0.031208 1.265070 0.381528
v 0.049670 1.265174 0.381449
v -0.055674 1.232566 0.408613
v -0.035022 1.231364 0.406660
v -0.011674 1.231364 0.406660
v 0.011674 1.231364 0.406660
v 0.035022 1.231364 0.406660
v 0.058369 1.231364 0.406660
v -0.026582 1.199756 0.434251
v -0.018080 1.198949 0.433440
v -0.006027 1.198949 0.433440
v 0.006027 1.198949 0.433440
v 0.018080 1.198949 0.433440
v 0.030133 1.198949 0.433440
v -0.025755 1.220369 0.434691
v -0.030133 1.200086 0.434937
v -0.016550 1.220321 0.434725
v -0.018080 1.200052 0.434892
v -0.005524 1.220364 0.434695
v -0.006027 1.200086 0.434937
v 0.005524 1.220364 0.434695
v 0.006027 1.200086 0.434937
v 0.016550 1.220321 0.434725
v 0.018080 1.200052 0.434892
v 0.025747 1.220381 0.434683
v 0.030133 1.200086 0.434937
v -0.051638 1.385965 0.302992
v -0.059973 1.391014 0.293272
v -0.039428 1.393830 0.300603
v -0.045432 1.402438 0.284591
v -0.013359 1.394290 0.301209
v -0.015144 1.402438 0.284591
v 0.013359 1.394290 0.301209
v 0.015144 1.402438 0.284591
v 0.039428 1.393830 0.300603
v 0.045432 1.402438 0.284591
v 0.051638 1.385965 0.302992
v 0.059973 1.391014 0.293272
v -0.049766 1.249516 0.414355
v -0.058369 1.234517 0.410809
v 0.049876 1.249516 0.414355
v 0.058369 1.234517 0.410809
v -0.042171 1.275750 0.393997
v -0.049670 1.267901 0.385038
v 0.042174 1.275750 0.393998
v 0.049670 1.267901 0.385038
v -0.052632 1.306528 0.366652
v -0.067564 1.301792 0.360459
v 0.052623 1.306528 0.366651
v 0.067564 1.301792 0.360459
v -0.051141 1.337618 0.340400
v -0.056967 1.335538 0.335429
v 0.051144 1.337618 0.340400
v 0.056967 1.335538 0.335429
v -0.055951 1.368084 0.310344
v -0.075720 1.368989 0.310010
v 0.055951 1.368084 0.310344
v 0.075720 1.368989 0.310010
vt 0.309798 0.787434
vt 0.309798 0.784236
vt 0.309798 0.770050
vt 0.309798 0.769671
vt 0.309798 0.760720
vt 0.309798 0.760720
vt 0.222520 0.734086
vt 0.395126 0.683889
vt 0.369573 0.720612
vt 0.309798 0.720612
vt 0.309798 0.720612
vt 0.250144 0.720612
vt 0.222520 0.684940
vt 0.361300 0.683889
vt 0.361300 0.717708
vt 0.309798 0.717708
vt 0.309798 0.717708
vt 0.254935 0.717708
vt 0.254935 0.684940
vt 0.309798 0.683889
vt 0.309798 0.717708
vt 0.309798 0.748008
vt 0.309798 0.743733
vt 0.309798 0.717708
vt 0.309798 0.684940
vt 0.309798 0.729482
vt 0.309798 0.753197
vt 0.309798 0.780934
vt 0.309798 0.776462
vt 0.309798 0.749391
vt 0.309798 0.725883
vt 0.309798 0.763160
vt 0.309798 0.785150
vt 0.309798 0.814019
vt 0.309798 0.814019
vt 0.309798 0.780778
vt 0.309798 0.752091
vt 0.309798 0.764588
vt 0.342090 0.896612
vt 0.337900 0.896612
vt 0.342090 0.869140
vt 0.337900 0.883268
vt 0.309798 0.883268
vt 0.309798 0.878347
vt 0.309798 0.882607
vt 0.309798 0.892179
vt 0.286422 0.892179
vt 0.286422 0.896340
vt 0.395126 0.734086
vt 0.384375 0.734086
vt 0.232805 0.734086
vt 0.337900 0.869140
vt 0.337900 0.843795
vt 0.309798 0.869140
vt 0.309798 0.869930
vt 0.309798 0.825137
vt 0.286422 0.869930
vt 0.309798 0.825137
vt 0.284368 0.869930
vt 0.262762 0.843617
vt 0.360487 0.843795
vt 0.337900 0.810379
vt 0.286422 0.843617
vt 0.262762 0.810259
vt 0.360487 0.810379
vt 0.368348 0.770050
vt 0.286422 0.810259
vt 0.232805 0.794711
vt 0.384375 0.796028
vt 0.368348 0.760720
vt 0.248710 0.769671
vt 0.232805 0.760720
vt 0.384375 0.760720
vt 0.248710 0.760720
vt 0.232805 0.734085
vt 0.384375 0.734085
vt 0.368348 0.734085
vt 0.332418 0.734085
vt 0.368348 0.734086
vt 0.309798 0.734085
vt 0.328335 0.734086
vt 0.248710 0.734085
vt 0.288874 0.734086
vt 0.250144 0.734086
vt 0.372685 0.734086
vt 0.395126 0.734086
vt 0.333734 0.734086
vt 0.369573 0.734086
vt 0.288874 0.734086
vt 0.309798 0.734086
vt 0.250144 0.734086
vt 0.309798 0.734086
vt 0.222520 0.734086
vt 0.250144 0.734086
vt 0.309798 0.772977
vt 0.309798 0.762203
vt 0.309798 0.773497
vt 0.309798 0.770596
vt 0.309798 0.769413
vt 0.309798 0.770534
vt 0.309798 0.766795
vt 0.309798 0.767217
vt 0.309798 0.755508
vt 0.309798 0.755508
vt 0.309798 0.765151
vt 0.284368 0.896340
vt 0.277302 0.896340
vt 0.243752 0.861241
vt 0.248771 0.861241
vt 0.243752 0.829963
vt 0.248771 0.826537
vt 0.220880 0.810888
vt 0.220880 0.805605
vt 0.220880 0.780359
vt 0.220880 0.760720
vt 0.195259 0.746747
vt 0.195259 0.734085
vt 0.157683 0.746747
vt 0.157683 0.734086
vt 0.350553 0.896612
vt 0.375419 0.858707
vt 0.379709 0.858707
vt 0.375419 0.824571
vt 0.379709 0.827348
vt 0.396524 0.796028
vt 0.396524 0.805225
vt 0.396524 0.760720
vt 0.396524 0.777237
vt 0.420285 0.734086
vt 0.420285 0.753024
vt 0.458971 0.734086
vt 0.458971 0.753024
vn 0.238696 0.630943 0.738197
vn -0.000139 0.726788 0.686862
vn 0.000000 0.599503 0.800372
vn 0.179187 0.594753 0.783684
vn 0.000139 0.726788 0.686862
vn -0.238374 0.630745 0.738470
vn -0.179072 0.594641 0.783795
vn 0.000000 0.599503 0.800372
vn 0.000000 0.591539 0.806276
vn 0.193149 0.619502 0.760862
vn -0.193165 0.619490 0.760867
vn 0.000000 0.591539 0.806276
vn 0.014998 0.593135 0.804963
vn 0.098902 0.594710 0.797833
vn -0.098905 0.594720 0.797826
vn -0.014998 0.593135 0.804963
vn 0.018771 0.540363 0.841223
vn -0.025622 0.498047 0.866772
vn -0.018771 0.540363 0.841223
vn 0.025621 0.498048 0.866771
vn 0.000000 -0.605058 -0.796181
vn -0.000000 -0.605058 -0.796181
vn 0.000000 -0.605058 -0.796181
vn 0.000000 -0.605058 -0.796181
vn -0.000000 -0.605058 -0.796181
vn -0.000000 -0.605058 -0.796182
vn 0.000000 -0.605058 -0.796182
vn 0.000000 -0.605058 -0.796182
vn 0.000000 -0.605058 -0.796182
vn 0.000000 -0.605058 -0.796181
vn 0.000000 -0.605058 -0.796181
vn 0.000000 -0.605058 -0.796181
vn 0.000000 -0.609517 -0.792773
vn 0.000000 -0.609246 -0.792981
vn -0.000000 -0.608136 -0.793833
vn 0.000000 -0.608136 -0.793833
vn 0.000000 -0.609517 -0.792773
vn 0.000000 -0.609246 -0.792981
vn -0.000018 -0.618460 -0.785816
vn -0.000032 -0.618617 -0.785693
vn 0.000000 -0.618404 -0.785860
vn 0.000018 -0.618460 -0.785816
vn 0.000000 -0.618405 -0.785860
vn 0.000032 -0.618617 -0.785693
vn -0.011760 -0.614188 -0.789072
vn -0.024081 -0.618950 -0.785061
vn 0.000000 -0.610583 -0.791952
vn 0.000007 -0.610829 -0.791762
vn 0.000000 -0.610583 -0.791952
vn 0.000022 -0.611561 -0.791197
vn -0.037222 -0.624103 -0.780455
vn -0.092436 -0.647842 -0.756146
vn -0.000000 -0.621770 -0.783200
vn -0.000008 -0.615645 -0.788023
vn 0.000000 -0.621770 -0.783200
vn -0.000017 -0.613063 -0.790034
vn -0.053192 -0.653646 -0.754929
vn -0.115705 -0.670555 -0.732781
vn -0.000000 -0.636912 -0.770936
vn 0.000000 -0.636912 -0.770936
vn 0.000000 -0.636912 -0.770936
vn 0.000000 -0.636912 -0.770936
vn 0.999247 0.030889 -0.023474
vn 0.999247 0.030889 -0.023474
vn 0.999247 0.030889 -0.023474
vn 0.999247 0.030889 -0.023474
vn 0.997268 0.058817 -0.044698
vn 0.997268 0.058817 -0.044698
vn 0.997268 0.058817 -0.044698
vn 0.997268 0.058817 -0.044698
vn 0.999543 -0.024060 0.018285
vn 0.999543 -0.024060 0.018285
vn 0.999543 -0.024060 0.018285
vn 0.999543 -0.024060 0.018285
vn 0.000000 0.796182 -0.605058
vn 0.000000 0.796182 -0.605058
vn 0.000000 0.796182 -0.605058
vn 0.000000 0.796182 -0.605058
vn -0.999543 -0.024060 0.018285
vn -0.999543 -0.024060 0.018285
vn -0.999543 -0.024060 0.018285
vn -0.999543 -0.024060 0.018285
vn -0.997268 0.058817 -0.044698
vn -0.997268 0.058817 -0.044698
vn -0.997268 0.058817 -0.044698
vn -0.997268 0.058817 -0.044698
vn -0.999247 0.030889 -0.023474
vn -0.999247 0.030889 -0.023474
vn -0.999247 0.030889 -0.023474
vn -0.999247 0.030889 -0.023474
vn 0.000000 -0.796182 0.605058
vn 0.000000 -0.796182 0.605058
vn 0.000000 -0.796182 0.605058
vn 0.000000 -0.796182 0.605058
vn 0.000579 0.010108 0.999949
vn 0.000579 0.010108 0.999949
vn -0.000085 0.010123 0.999949
vn -0.000092 0.010123 0.999949
vn -0.550216 0.125228 0.825579
vn -0.550216 0.125228 0.825579
vn -0.550216 0.125228 0.825579
vn -0.550216 0.125228 0.825579
vn -0.000361 0.011024 0.999939
vn -0.000351 0.011050 0.999939
vn 0.000361 0.011024 0.999939
vn 0.000351 0.011050 0.999939
vn 0.000264 0.010243 0.999947
vn 0.000269 0.010242 0.999948
vn -0.000209 0.010358 0.999946
vn -0.000209 0.010358 0.999946
vn 0.550515 0.123883 0.825582
vn 0.550515 0.123883 0.825582
vn 0.550515 0.123883 0.825582
vn 0.550515 0.123883 0.825582
vn -0.296935 0.743805 0.598819
vn -0.228126 0.655426 0.719983
vn -0.167148 0.569762 0.804632
vn -0.167148 0.569762 0.804632
vn -0.308864 0.758038 0.574441
vn -0.308864 0.758038 0.574441
vn -0.012194 0.888315 0.459073
vn -0.012194 0.888315 0.459073
vn -0.004960 0.894057 0.447926
vn -0.006082 0.893179 0.449660
vn 0.004960 0.894057 0.447926
vn 0.006082 0.893179 0.449660
vn 0.012194 0.888315 0.459073
vn 0.012194 0.888315 0.459073
vn 0.308864 0.758038 0.574441
vn 0.308864 0.758038 0.574441
vn 0.296935 0.743805 0.598819
vn 0.228126 0.655426 0.719983
vn 0.167148 0.569762 0.804632
vn 0.167148 0.569762 0.804632
vn -0.850231 0.447222 0.277670
vn -0.850231 0.447222 0.277670
vn -0.820227 0.419677 0.388714
vn -0.772570 0.381531 0.507514
vn 0.851946 0.446293 0.273881
vn 0.851946 0.446293 0.273881
vn 0.773694 0.381227 0.506027
vn 0.821770 0.419079 0.386092
vn -0.627925 0.338543 0.700785
vn -0.609983 0.393822 0.687623
vn 0.609889 0.393915 0.687653
vn 0.627839 0.338667 0.700802
vn -0.494358 0.591508 0.636968
vn -0.371277 0.604778 0.704554
vn 0.371261 0.604750 0.704587
vn 0.494286 0.591476 0.637054
vn -0.188348 0.603217 0.775019
vn -0.188348 0.603217 0.775019
vn 0.188371 0.603214 0.775015
vn 0.188371 0.603214 0.775015
vn 0.494110 0.799862 0.340700
vn 0.198064 0.846031 0.494977
vn 0.583186 0.530959 0.614797
vn -0.000263 0.826165 0.563429
vn 0.000263 0.826165 0.563429
vn -0.197881 0.846106 0.494921
vn -0.492686 0.800498 0.341269
vn -0.581450 0.531503 0.615971
vn 0.591177 0.460284 0.662305
vn -0.589749 0.460435 0.663472
vn 0.555890 0.607297 0.567607
vn -0.555996 0.607226 0.567578
vn 0.410698 0.580354 0.703219
vn -0.410777 0.580383 0.703148
vn -0.107226 0.584036 0.804614
vn 0.107214 0.584046 0.804609
vn 0.019335 0.447012 0.894319
vn -0.210962 0.461444 0.861722
vn 0.013742 0.410659 0.911685
vn -0.013742 0.410659 0.911685
vn -0.019335 0.447012 0.894319
vn 0.210962 0.461444 0.861722
vn -0.811174 0.465611 -0.353841
vn -0.702388 0.566718 -0.430677
vn -0.702388 0.566718 -0.430677
vn -0.811174 0.465611 -0.353841
vn 0.000000 0.796182 -0.605058
vn 0.000000 0.796182 -0.605058
vn 0.000000 0.796182 -0.605058
vn 0.000000 0.796182 -0.605058
vn 0.000000 0.796182 -0.605058
vn 0.000000 0.796182 -0.605058
vn 0.000000 0.796182 -0.605058
vn 0.000000 0.796182 -0.605058
vn 0.702388 0.566718 -0.430677
vn 0.811174 0.465611 -0.353841
vn 0.811174 0.465611 -0.353841
vn 0.702388 0.566718 -0.430677
vn -0.011715 -0.839308 0.543529
vn -0.001510 -0.802000 0.597322
vn -0.004139 -0.811943 0.583722
vn -0.011715 -0.839308 0.543529
vn 0.000000 -0.796182 0.605058
vn 0.000000 -0.796182 0.605058
vn 0.000000 -0.796182 0.605058
vn 0.000000 -0.796182 0.605058
vn 0.000000 -0.796182 0.605058
vn 0.000000 -0.796182 0.605058
vn 0.000000 -0.796182 0.605058
vn 0.000000 -0.796182 0.605058
vn 0.829960 -0.444129 0.337514
vn 0.829960 -0.444129 0.337514
vn 0.829960 -0.444129 0.337514
vn 0.829960 -0.444129 0.337514
vn 0.979381 0.160847 -0.122236
vn 0.979381 0.160847 -0.122236
vn 0.979381 0.160847 -0.122236
vn 0.979381 0.160847 -0.122236
vn 0.919491 -0.312987 0.237854
vn 0.919491 -0.312987 0.237854
vn 0.919492 -0.312987 0.237854
vn 0.919491 -0.312987 0.237854
vn 0.969630 0.194727 -0.147982
vn 0.969630 0.194727 -0.147982
vn 0.969630 0.194727 -0.147982
vn 0.969630 0.194727 -0.147982
vn 0.913160 -0.324524 0.246622
vn 0.913160 -0.324524 0.246622
vn 0.913160 -0.324524 0.246622
vn 0.913160 -0.324524 0.246622
vn 0.869059 0.393878 -0.299327
vn 0.869059 0.393878 -0.299327
vn -0.483004 -0.748319 -0.454671
vn -0.483005 -0.748318 -0.454671
vn -0.483005 -0.748319 -0.454671
vn -0.483005 -0.748318 -0.454671
vn -0.927670 -0.084978 -0.363602
vn -0.927670 -0.084978 -0.363602
vn -0.927670 -0.084978 -0.363602
vn -0.927670 -0.084978 -0.363602
vn -0.919491 -0.312987 0.237854
vn -0.919491 -0.312987 0.237854
vn -0.919491 -0.312987 0.237854
vn -0.919492 -0.312987 0.237854
vn -0.969630 0.194727 -0.147982
vn -0.969630 0.194727 -0.147982
vn -0.969630 0.194727 -0.147982
vn -0.969630 0.194727 -0.147982
vn -0.913160 -0.324524 0.246622
vn -0.913160 -0.324524 0.246622
vn -0.913160 -0.324524 0.246622
vn -0.913160 -0.324524 0.246622
vn -0.869059 0.393878 -0.299327
vn -0.869059 0.393878 -0.299327
s 1
g chest lockpads topLock
usemtl lambert5SG
f 403/731/1055 404/734/1056 408/679/1057 407/740/1058
f 405/736/1059 406/741/1060 410/745/1061 409/680/1062
f 407/740/1058 408/679/1057 412/681/1063 411/744/1064
f 409/680/1062 410/745/1061 414/749/1065 413/682/1066
f 411/744/1064 412/681/1063 416/683/1067 415/748/1068
f 413/682/1066 414/749/1065 418/752/1069 417/684/1070
f 415/748/1068 416/683/1067 420/756/1071 419/755/1072
f 416/683/1067 417/684/1070 421/758/1073 420/756/1071
f 417/684/1070 418/752/1069 422/760/1074 421/758/1073
s 3
f 423/764/1075 424/766/1076 430/687/1077 429/686/1078
f 424/766/1076 425/768/1079 431/688/1080 430/687/1077
f 425/768/1079 426/770/1081 432/689/1082 431/688/1080
f 426/770/1081 427/772/1083 433/690/1084 432/689/1082
f 427/772/1083 428/685/1085 434/691/1086 433/690/1084
f 429/686/1078 430/687/1077 436/693/1087 435/692/1088
f 430/687/1077 431/688/1080 437/694/1089 436/693/1087
f 431/688/1080 432/689/1082 438/695/1090 437/694/1089
f 432/689/1082 433/690/1084 439/696/1091 438/695/1090
f 433/690/1084 434/691/1086 440/697/1092 439/696/1091
f 435/692/1088 436/693/1087 442/699/1093 441/698/1094
f 436/693/1087 437/694/1089 443/700/1095 442/699/1093
f 438/695/1090 439/696/1091 445/702/1096 444/701/1097
f 439/696/1091 440/697/1092 446/703/1098 445/702/1096
f 441/698/1094 442/699/1093 448/705/1099 447/704/1100
f 442/699/1093 443/700/1095 449/706/1101 448/705/1099
f 444/701/1097 445/702/1096 451/708/1102 450/707/1103
f 445/702/1096 446/703/1098 452/709/1104 451/708/1102
f 447/704/1100 448/705/1099 454/711/1105 453/710/1106
f 448/705/1099 449/706/1101 455/712/1107 454/711/1105
f 450/707/1103 451/708/1102 457/714/1108 456/713/1109
f 451/708/1102 452/709/1104 458/715/1110 457/714/1108
f 453/710/1106 454/711/1105 460/773/1111 459/716/1112
f 454/711/1105 455/712/1107 461/775/1113 460/773/1111
f 455/712/1107 456/713/1109 462/777/1114 461/775/1113
f 456/713/1109 457/714/1108 463/779/1115 462/777/1114
f 457/714/1108 458/715/1110 464/781/1116 463/779/1115
s off
f 416/683/1117 412/681/1118 443/700/1119 437/694/1120
f 412/681/1121 408/679/1122 449/706/1123 443/700/1124
f 408/679/1125 404/734/1126 455/712/1127 449/706/1128
f 404/734/1129 405/736/1130 456/713/1131 455/712/1132
f 405/736/1133 409/680/1134 450/707/1135 456/713/1136
f 409/680/1137 413/682/1138 444/701/1139 450/707/1140
f 413/682/1141 417/684/1142 438/695/1143 444/701/1144
f 417/684/1145 416/683/1146 437/694/1147 438/695/1148
s 4
f 465/719/1149 466/717/1150 468/718/1151 467/730/1152
s off
f 466/717/1153 465/719/1154 489/739/1155 490/799/1156
s 4
f 467/730/1152 468/720/1151 470/721/1157 469/732/1158
f 469/732/1158 470/722/1157 472/723/1159 471/733/1160
f 471/733/1160 472/724/1159 474/725/1161 473/735/1162
f 473/735/1162 474/726/1161 476/784/1163 475/737/1164
s off
f 475/737/1165 476/784/1166 492/787/1167 491/738/1168
s 5
f 477/728/1169 478/727/1170 506/807/1171 505/754/1172
f 478/727/1170 477/728/1169 479/757/1173 480/763/1174
s 6
f 480/763/1175 479/757/1176 481/759/1177 482/765/1178
f 482/765/1178 481/759/1177 483/761/1179 484/767/1180
f 484/767/1180 483/761/1179 485/762/1181 486/769/1182
s 7
f 486/769/1183 485/762/1184 487/729/1185 488/771/1186
f 488/771/1186 487/729/1185 507/753/1187 508/795/1188
s 8
f 490/799/1189 489/739/1190 493/743/1191 494/801/1192
s 9
f 491/738/1193 492/787/1194 496/789/1195 495/742/1196
s 8
f 494/801/1192 493/743/1191 497/747/1197 498/803/1198
s 9
f 495/742/1196 496/789/1195 500/791/1199 499/746/1200
s 8
f 498/803/1198 497/747/1197 501/751/1201 502/805/1202
s 9
f 499/746/1200 500/791/1199 504/793/1203 503/750/1204
s 8
f 502/805/1202 501/751/1201 505/754/1205 506/807/1206
s 9
f 503/750/1204 504/793/1203 508/795/1207 507/753/1208
s 1
f 465/719/1209 467/730/1210 403/731/1055 489/739/1211
f 467/730/1210 469/732/1212 404/734/1056 403/731/1055
f 469/732/1212 471/733/1213 405/736/1059 404/734/1056
f 471/733/1213 473/735/1214 406/741/1060 405/736/1059
f 473/735/1214 475/737/1215 491/738/1216 406/741/1060
f 489/739/1211 403/731/1055 407/740/1058 493/743/1217
f 406/741/1060 491/738/1216 495/742/1218 410/745/1061
f 493/743/1217 407/740/1058 411/744/1064 497/747/1219
f 410/745/1061 495/742/1218 499/746/1220 414/749/1065
f 497/747/1219 411/744/1064 415/748/1068 501/751/1221
f 414/749/1065 499/746/1220 503/750/1222 418/752/1069
f 501/751/1221 415/748/1068 419/755/1072 505/754/1223
f 418/752/1069 503/750/1222 507/753/1224 422/760/1074
f 505/754/1223 419/755/1072 479/757/1225 477/728/1226
f 419/755/1072 420/756/1071 481/759/1227 479/757/1225
f 420/756/1071 421/758/1073 483/761/1228 481/759/1227
f 421/758/1073 422/760/1074 485/762/1229 483/761/1228
f 422/760/1074 507/753/1224 487/729/1230 485/762/1229
s 10
f 478/727/1231 480/763/1232 424/766/1233 423/764/1234
s 11
f 480/763/1235 482/765/1236 425/768/1237 424/766/1238
f 482/765/1236 484/767/1239 426/770/1240 425/768/1237
f 484/767/1239 486/769/1241 427/772/1242 426/770/1240
s 12
f 486/769/1243 488/771/1244 428/685/1245 427/772/1246
s 13
f 459/716/1247 460/773/1248 468/776/1249 466/774/1250
f 460/773/1248 461/775/1251 470/778/1252 468/776/1249
f 461/775/1251 462/777/1253 472/780/1254 470/778/1252
f 462/777/1253 463/779/1255 474/783/1256 472/780/1254
f 463/779/1255 464/781/1257 476/782/1258 474/783/1256
s off
f 476/784/1259 464/785/1260 458/786/1261 492/787/1262
f 492/787/1263 458/786/1264 452/788/1265 496/789/1266
f 496/789/1267 452/788/1268 446/790/1269 500/791/1270
f 500/791/1271 446/790/1272 440/792/1273 504/793/1274
f 504/793/1275 440/792/1276 434/794/1277 508/795/1278
s 12
f 508/795/1279 434/794/1280 428/796/1245 488/797/1244
s off
f 459/798/1281 466/717/1282 490/799/1283 453/800/1284
f 453/800/1285 490/799/1286 494/801/1287 447/802/1288
f 447/802/1289 494/801/1290 498/803/1291 441/804/1292
f 441/804/1293 498/803/1294 502/805/1295 435/806/1296
f 435/806/1297 502/805/1298 506/807/1299 429/808/1300
s 10
f 429/808/1301 506/807/1302 478/809/1231 423/810/1234
