# This file uses centimeters as units for non-parametric coordinates.

mtllib tentV1.mtl
g default
v 1.656849 0.032157 -1.282759
v -1.656849 0.032157 -1.282759
v 1.253932 0.823084 -1.282759
v -1.253932 0.823084 -1.282759
v 0.252011 1.797071 -1.282760
v -0.252011 1.797071 -1.282760
v 0.528780 1.310077 -1.282759
v -0.528780 1.310077 -1.282759
v 1.324908 0.427620 -1.282759
v -1.324908 0.427620 -1.282759
v 1.253932 0.823084 -0.028827
v 1.324908 0.427620 -0.028827
v 1.656849 0.032157 -0.028827
v -1.656849 0.032157 -0.028827
v -1.324908 0.427620 -0.028827
v -1.253932 0.823084 -0.028827
v -0.528780 1.310077 -0.028827
v -0.252011 1.797071 -0.028827
v 0.252011 1.797071 -0.028827
v 0.528780 1.310077 -0.028827
v 1.253932 0.823084 -0.655793
v 1.324908 0.427620 -0.655793
v 1.656849 0.032157 -0.655793
v -1.656849 0.032157 -0.655793
v -1.324908 0.427620 -0.655793
v -1.253932 0.823084 -0.655793
v -0.528780 1.310077 -0.655793
v -0.252011 1.797071 -0.655793
v 0.252011 1.797071 -0.655793
v 0.528780 1.310077 -0.655793
v 1.441427 0.229889 -1.282759
v 1.441427 0.229889 -0.655793
v 1.441427 0.229889 -0.028827
v 1.253932 0.625352 -0.028827
v 1.253932 0.625352 -0.655793
v 1.253932 0.625352 -1.282759
v -1.441427 0.229889 -1.282759
v -1.441427 0.229889 -0.655793
v -1.441427 0.229889 -0.028827
v -1.253932 0.625352 -0.028827
v -1.253932 0.625352 -0.655793
v -1.253932 0.625352 -1.282759
v 1.163708 -0.057041 -1.232658
v 1.252460 -0.057041 -1.232658
v 1.296836 -0.057041 -1.309520
v 1.252460 -0.057041 -1.386382
v 1.163708 -0.057041 -1.386382
v 1.119331 -0.057041 -1.309520
v 1.238377 1.246856 -1.197182
v 1.368094 1.246856 -1.197182
v 1.432952 1.246856 -1.309520
v 1.368094 1.246856 -1.421858
v 1.238377 1.246856 -1.421858
v 1.173519 1.246856 -1.309520
v 1.208084 -0.057041 -1.309520
v 1.303236 1.246856 -1.309520
v 1.163708 0.486614 -1.232658
v 1.119331 0.486614 -1.309520
v 1.163708 0.486614 -1.386382
v 1.252460 0.486614 -1.386382
v 1.296836 0.486614 -1.309520
v 1.252460 0.486614 -1.232658
v -0.143846 1.823013 -1.606347
v 0.111142 1.823013 -1.606347
v 0.238636 1.602187 -1.606347
v 0.111142 1.381361 -1.606347
v -0.143846 1.381361 -1.606347
v -0.271340 1.602187 -1.606347
v -0.016352 1.602187 -1.606347
v -0.114650 1.430732 -0.091271
v -0.212948 1.260475 -0.091271
v -0.114650 1.090218 -0.091271
v 0.081946 1.090218 -0.091271
v 0.180244 1.260475 -0.091271
v 0.081946 1.430733 -0.091271
v -0.114650 1.470360 -0.785473
v -0.212948 1.300102 -0.785473
v -0.114650 1.129845 -0.785473
v 0.081946 1.129845 -0.785473
v 0.180244 1.300102 -0.785473
v 0.081946 1.470360 -0.785473
v 1.464481 0.803281 -1.181027
v 1.529861 0.893791 -1.181027
v 1.562551 0.939045 -1.277722
v 1.529861 0.893791 -1.374416
v 1.464481 0.803281 -1.374416
v 1.431791 0.758026 -1.277722
v -0.059004 1.870195 -1.294219
v -0.007034 1.942140 -1.294219
v 0.018951 1.978113 -1.371080
v -0.007034 1.942140 -1.447942
v -0.059004 1.870195 -1.447942
v -0.084989 1.834222 -1.371080
v 1.497171 0.848536 -1.277722
v -0.033019 1.906168 -1.371080
v 0.513885 1.239679 -1.294219
v 0.487901 1.203706 -1.371080
v 0.513885 1.239679 -1.447942
v 0.565855 1.311624 -1.447942
v 0.591840 1.347597 -1.371080
v 0.565855 1.311624 -1.294219
v 0.853280 1.010874 -1.294219
v 0.827295 0.974901 -1.371080
v 0.853280 1.010874 -1.447942
v 0.905250 1.082819 -1.447942
v 0.931235 1.118792 -1.371080
v 0.905250 1.082819 -1.294219
v 0.248226 1.533563 -1.294219
v 0.222241 1.497591 -1.371080
v 0.248226 1.533563 -1.447942
v 0.300196 1.605509 -1.447942
v 0.326181 1.641481 -1.371080
v 0.300196 1.605509 -1.294219
v 1.235030 0.902517 -1.262359
v 1.217350 0.878040 -1.314657
v 1.235030 0.902517 -1.366955
v 1.270391 0.951469 -1.366955
v 1.288072 0.975946 -1.314657
v 1.270391 0.951469 -1.262359
v 1.211846 0.997197 -1.559086
v 1.302921 0.997197 -1.559086
v 1.348459 0.918324 -1.559086
v 1.302922 0.839450 -1.559086
v 1.211846 0.839450 -1.559086
v 1.166309 0.918324 -1.559086
v 1.257384 0.918324 -1.559086
v 1.234301 0.958304 -1.399309
v 1.211219 0.918324 -1.399309
v 1.234301 0.878344 -1.399309
v 1.280466 0.878344 -1.399309
v 1.303549 0.918324 -1.399309
v 1.280466 0.958304 -1.399309
v 1.225005 0.974406 -1.297152
v 1.192626 0.918324 -1.297152
v 1.225005 0.862242 -1.297152
v 1.289763 0.862242 -1.297152
v 1.322142 0.918324 -1.297152
v 1.289763 0.974406 -1.297152
v 1.222731 0.978343 -0.031452
v 1.188079 0.918324 -0.031452
v 1.222731 0.858304 -0.031452
v 1.292036 0.858304 -0.031452
v 1.326689 0.918324 -0.031452
v 1.292036 0.978343 -0.031452
v -1.302538 0.997197 -1.559086
v -1.211462 0.997197 -1.559086
v -1.165925 0.918324 -1.559086
v -1.211462 0.839450 -1.559086
v -1.302538 0.839450 -1.559086
v -1.348075 0.918324 -1.559086
v -1.257000 0.918324 -1.559086
v -1.280082 0.958304 -1.399309
v -1.303165 0.918324 -1.399309
v -1.280082 0.878344 -1.399309
v -1.233917 0.878344 -1.399309
v -1.210835 0.918324 -1.399309
v -1.233917 0.958304 -1.399309
v -1.289379 0.974406 -1.297152
v -1.321758 0.918324 -1.297152
v -1.289379 0.862242 -1.297152
v -1.224621 0.862242 -1.297152
v -1.192242 0.918324 -1.297152
v -1.224621 0.974406 -1.297152
v -1.291647 0.978334 -0.034326
v -1.326295 0.918324 -0.034326
v -1.291647 0.858313 -0.034326
v -1.222353 0.858313 -0.034326
v -1.187705 0.918324 -0.034326
v -1.222353 0.978334 -0.034326
v -1.163624 -0.057041 -1.386382
v -1.252376 -0.057041 -1.386382
v -1.296752 -0.057041 -1.309520
v -1.252376 -0.057041 -1.232658
v -1.163624 -0.057041 -1.232658
v -1.119248 -0.057041 -1.309520
v -1.238294 1.246856 -1.421858
v -1.368010 1.246856 -1.421858
v -1.432868 1.246856 -1.309520
v -1.368010 1.246856 -1.197182
v -1.238294 1.246856 -1.197182
v -1.173435 1.246856 -1.309520
v -1.208000 -0.057041 -1.309520
v -1.303152 1.246856 -1.309520
v -1.163624 0.486614 -1.386382
v -1.119248 0.486614 -1.309520
v -1.163624 0.486614 -1.232658
v -1.252376 0.486614 -1.232658
v -1.296752 0.486614 -1.309520
v -1.252376 0.486614 -1.386382
v -1.421422 0.789870 -1.396401
v -1.492515 0.874544 -1.380820
v -1.507360 0.916880 -1.278576
v -1.451113 0.874544 -1.191914
v -1.380021 0.789870 -1.207495
v -1.365176 0.747533 -1.309738
v -0.002213 1.981457 -1.591562
v -0.058724 2.048764 -1.579177
v -0.070524 2.082417 -1.497904
v -0.025814 2.048764 -1.429017
v 0.030697 1.981457 -1.441402
v 0.042497 1.947804 -1.522674
v -1.436268 0.832207 -1.294157
v -0.014013 2.015111 -1.510289
v -0.507889 1.304876 -1.480736
v -0.463179 1.271223 -1.411849
v -0.474979 1.304876 -1.330576
v -0.531490 1.372183 -1.318191
v -0.576200 1.405836 -1.387078
v -0.564399 1.372183 -1.468351
v -0.819386 1.048265 -1.412467
v -0.774676 1.014612 -1.343580
v -0.786476 1.048265 -1.262307
v -0.842987 1.115572 -1.249922
v -0.887697 1.149225 -1.318810
v -0.875897 1.115572 -1.400082
v -0.273521 1.620116 -1.532101
v -0.228811 1.586463 -1.463214
v -0.240611 1.620116 -1.381941
v -0.297122 1.687423 -1.369556
v -0.341832 1.721076 -1.438443
v -0.330032 1.687423 -1.519716
v -1.188852 0.908101 -1.364109
v -1.158431 0.885203 -1.317237
v -1.166460 0.908101 -1.261938
v -1.204911 0.953898 -1.253511
v -1.235332 0.976796 -1.300383
v -1.227303 0.953898 -1.355682
v -1.656849 0.032157 1.253932
v 1.656849 0.032157 1.253932
v -1.253932 0.823084 1.253932
v 1.253932 0.823084 1.253932
v -0.252011 1.797071 1.253933
v 0.252011 1.797071 1.253933
v -0.528780 1.310077 1.253932
v 0.528780 1.310077 1.253932
v -1.324908 0.427620 1.253932
v 1.324908 0.427620 1.253932
v -1.253932 0.823084 0.626966
v -1.324908 0.427620 0.626966
v -1.656849 0.032157 0.626966
v 1.656849 0.032157 0.626966
v 1.324908 0.427620 0.626966
v 1.253932 0.823084 0.626966
v 0.528780 1.310077 0.626966
v 0.252011 1.797071 0.626966
v -0.252011 1.797071 0.626966
v -0.528780 1.310077 0.626966
v -1.441427 0.229889 1.253932
v -1.441427 0.229889 0.626966
v -1.253932 0.625352 0.626966
v -1.253932 0.625352 1.253932
v 1.441427 0.229889 1.253932
v 1.441427 0.229889 0.626966
v 1.253932 0.625352 0.626966
v 1.253932 0.625352 1.253932
v -1.163708 -0.057041 1.203832
v -1.252460 -0.057041 1.203832
v -1.296836 -0.057041 1.280693
v -1.252460 -0.057041 1.357555
v -1.163708 -0.057041 1.357555
v -1.119331 -0.057041 1.280693
v -1.238377 1.246856 1.168356
v -1.368094 1.246856 1.168356
v -1.432952 1.246856 1.280693
v -1.368094 1.246856 1.393031
v -1.238377 1.246856 1.393031
v -1.173519 1.246856 1.280693
v -1.208084 -0.057041 1.280693
v -1.303236 1.246856 1.280693
v -1.163708 0.486614 1.203832
v -1.119331 0.486614 1.280693
v -1.163708 0.486614 1.357555
v -1.252460 0.486614 1.357555
v -1.296836 0.486614 1.280693
v -1.252460 0.486614 1.203832
v 0.143846 1.823013 1.577520
v -0.111142 1.823013 1.577520
v -0.238636 1.602187 1.577520
v -0.111142 1.381361 1.577520
v 0.143846 1.381361 1.577520
v 0.271340 1.602187 1.577520
v 0.016352 1.602187 1.577520
v 0.114650 1.470360 0.756646
v 0.212948 1.300102 0.756646
v 0.114650 1.129845 0.756646
v -0.081946 1.129845 0.756646
v -0.180244 1.300102 0.756646
v -0.081946 1.470360 0.756646
v -1.464481 0.803281 1.152200
v -1.529861 0.893791 1.152200
v -1.562551 0.939045 1.248895
v -1.529861 0.893791 1.345590
v -1.464481 0.803281 1.345590
v -1.431791 0.758026 1.248895
v 0.059004 1.870195 1.265392
v 0.007034 1.942140 1.265392
v -0.018951 1.978113 1.342254
v 0.007034 1.942140 1.419115
v 0.059004 1.870195 1.419115
v 0.084989 1.834222 1.342254
v -1.497171 0.848536 1.248895
v 0.033019 1.906168 1.342254
v -0.513885 1.239679 1.265392
v -0.487901 1.203706 1.342254
v -0.513885 1.239679 1.419115
v -0.565855 1.311624 1.419115
v -0.591840 1.347597 1.342254
v -0.565855 1.311624 1.265392
v -0.853280 1.010874 1.265392
v -0.827295 0.974901 1.342254
v -0.853280 1.010874 1.419115
v -0.905250 1.082819 1.419115
v -0.931235 1.118792 1.342254
v -0.905250 1.082819 1.265392
v -0.248226 1.533563 1.265392
v -0.222241 1.497591 1.342254
v -0.248226 1.533563 1.419115
v -0.300196 1.605509 1.419115
v -0.326181 1.641481 1.342254
v -0.300196 1.605509 1.265392
v -1.235030 0.902517 1.233532
v -1.217350 0.878040 1.285830
v -1.235030 0.902517 1.338128
v -1.270391 0.951469 1.338128
v -1.288072 0.975946 1.285830
v -1.270391 0.951469 1.233532
v -1.211846 0.997197 1.530259
v -1.302921 0.997197 1.530259
v -1.348459 0.918324 1.530259
v -1.302922 0.839450 1.530259
v -1.211846 0.839450 1.530259
v -1.166309 0.918324 1.530259
v -1.257384 0.918324 1.530259
v -1.234301 0.958304 1.370482
v -1.211219 0.918324 1.370482
v -1.234301 0.878344 1.370482
v -1.280466 0.878344 1.370482
v -1.303549 0.918324 1.370482
v -1.280466 0.958304 1.370482
v -1.225005 0.974406 1.268325
v -1.192626 0.918324 1.268325
v -1.225005 0.862242 1.268325
v -1.289763 0.862242 1.268325
v -1.322142 0.918324 1.268325
v -1.289763 0.974406 1.268325
v 1.302538 0.997197 1.530259
v 1.211462 0.997197 1.530259
v 1.165925 0.918324 1.530259
v 1.211462 0.839450 1.530259
v 1.302538 0.839450 1.530259
v 1.348075 0.918324 1.530259
v 1.257000 0.918324 1.530259
v 1.280082 0.958304 1.370482
v 1.303165 0.918324 1.370482
v 1.280082 0.878344 1.370482
v 1.233917 0.878344 1.370482
v 1.210835 0.918324 1.370482
v 1.233917 0.958304 1.370482
v 1.289379 0.974406 1.268325
v 1.321758 0.918324 1.268325
v 1.289379 0.862242 1.268325
v 1.224621 0.862242 1.268325
v 1.192242 0.918324 1.268325
v 1.224621 0.974406 1.268325
v 1.163624 -0.057041 1.357555
v 1.252376 -0.057041 1.357555
v 1.296752 -0.057041 1.280693
v 1.252376 -0.057041 1.203832
v 1.163624 -0.057041 1.203832
v 1.119248 -0.057041 1.280693
v 1.238294 1.246856 1.393031
v 1.368010 1.246856 1.393031
v 1.432868 1.246856 1.280693
v 1.368010 1.246856 1.168356
v 1.238294 1.246856 1.168356
v 1.173435 1.246856 1.280693
v 1.208000 -0.057041 1.280693
v 1.303152 1.246856 1.280693
v 1.163624 0.486614 1.357555
v 1.119248 0.486614 1.280693
v 1.163624 0.486614 1.203832
v 1.252376 0.486614 1.203832
v 1.296752 0.486614 1.280693
v 1.252376 0.486614 1.357555
v 1.421422 0.789870 1.367574
v 1.492515 0.874544 1.351993
v 1.507360 0.916880 1.249749
v 1.451113 0.874544 1.163087
v 1.380021 0.789870 1.178668
v 1.365176 0.747533 1.280911
v 0.002213 1.981457 1.562735
v 0.058724 2.048764 1.550350
v 0.070524 2.082417 1.469077
v 0.025814 2.048764 1.400190
v -0.030697 1.981457 1.412575
v -0.042497 1.947804 1.493848
v 1.436268 0.832207 1.265330
v 0.014013 2.015111 1.481463
v 0.507889 1.304876 1.451909
v 0.463179 1.271223 1.383022
v 0.474979 1.304876 1.301749
v 0.531490 1.372183 1.289364
v 0.576200 1.405836 1.358252
v 0.564399 1.372183 1.439524
v 0.819386 1.048265 1.383640
v 0.774676 1.014612 1.314753
v 0.786476 1.048265 1.233480
v 0.842987 1.115572 1.221095
v 0.887697 1.149225 1.289983
v 0.875897 1.115572 1.371255
v 0.273521 1.620116 1.503274
v 0.228811 1.586463 1.434387
v 0.240611 1.620116 1.353114
v 0.297122 1.687423 1.340729
v 0.341832 1.721076 1.409616
v 0.330032 1.687423 1.490889
v 1.188852 0.908101 1.335282
v 1.158431 0.885203 1.288410
v 1.166460 0.908101 1.233111
v 1.204911 0.953898 1.224684
v 1.235332 0.976796 1.271556
v 1.227303 0.953898 1.326855
v -0.850671 1.093903 -1.282759
v -0.850671 1.093903 -0.655793
v -0.850671 1.093903 -0.028827
v -0.850672 1.093903 0.626966
v -0.850671 1.093903 1.253932
v 0.832777 1.105921 -1.282759
v 0.832777 1.105921 -0.655793
v 0.832777 1.105921 -0.028827
v 0.832777 1.105921 0.626966
v 0.832777 1.105921 1.253932
v 0.405725 1.526600 -1.282759
v 0.405725 1.526600 -0.655793
v 0.405725 1.526600 -0.028827
v 0.405725 1.526600 0.626966
v 0.405725 1.526600 1.253932
v -1.656849 0.032157 0.202981
v -1.441427 0.229889 0.202981
v -1.324908 0.427620 0.202981
v -1.253932 0.625352 0.202981
v -1.253932 0.823084 0.202981
v -0.850671 1.093903 0.202981
v -0.528780 1.310077 0.202981
v -0.252011 1.797071 0.202981
v 0.252011 1.797071 0.202981
v 0.405725 1.526600 0.202981
v 0.528780 1.310077 0.202981
v 0.832777 1.105921 0.202981
v 1.253932 0.823084 0.202981
v 1.253932 0.625352 0.202981
v 1.324908 0.427620 0.202981
v 1.441427 0.229889 0.202981
v 1.656849 0.032157 0.202981
v -0.393680 1.547794 -1.282759
v -0.393680 1.547794 -0.655793
v -0.393680 1.547794 -0.028827
v -0.393680 1.547794 0.202981
v -0.393680 1.547794 0.626966
v -0.393680 1.547794 1.253932
vt 0.399601 0.051082
vt 0.089517 0.050999
vt 0.399603 0.281740
vt 0.147698 0.570879
vt 0.570201 0.571263
vt 0.460301 0.571163
vt 0.692339 0.571374
vt 0.338163 0.571052
vt 0.399602 0.180565
vt 0.089494 0.180471
vt 0.088515 0.281743
vt 0.883052 0.298131
vt 0.088514 0.180568
vt 0.088513 0.051085
vt 0.400579 0.051054
vt 0.400556 0.180527
vt 0.147947 0.297463
vt 0.400538 0.281693
vt 0.338411 0.297636
vt 0.460549 0.297747
vt 0.570449 0.297847
vt 0.692587 0.297958
vt 0.244059 0.281741
vt 0.882928 0.434839
vt 0.244058 0.180566
vt 0.244057 0.051083
vt 0.245048 0.051027
vt 0.245025 0.180499
vt 0.147822 0.434171
vt 0.245007 0.281665
vt 0.338287 0.434344
vt 0.460425 0.434455
vt 0.570325 0.434555
vt 0.692463 0.434666
vt 0.399601 0.123626
vt 0.244058 0.123628
vt 0.088513 0.123629
vt 0.088514 0.232687
vt 0.244058 0.232686
vt 0.399602 0.232685
vt 0.089504 0.123537
vt 0.245035 0.123565
vt 0.400566 0.123593
vt 0.400547 0.232642
vt 0.245016 0.232614
vt 0.089485 0.232587
vt 0.202391 0.970748
vt 0.172940 0.970714
vt 0.173091 0.838185
vt 0.202542 0.838218
vt 0.143489 0.970681
vt 0.143640 0.838151
vt 0.114038 0.970647
vt 0.114189 0.838118
vt 0.084587 0.970614
vt 0.084738 0.838084
vt 0.055136 0.970580
vt 0.055286 0.838051
vt 0.025685 0.970547
vt 0.025835 0.838017
vt 0.548604 0.736754
vt 0.668628 0.736755
vt 0.608616 0.840697
vt 0.488593 0.840698
vt 0.548604 0.944640
vt 0.668628 0.944640
vt 0.728639 0.840697
vt 0.668542 0.944680
vt 0.547791 0.944680
vt 0.608167 0.840108
vt 0.487416 0.840108
vt 0.547791 0.735534
vt 0.668542 0.735534
vt 0.728917 0.840108
vt 0.025986 0.705487
vt 0.055437 0.705521
vt 0.084888 0.705554
vt 0.114339 0.705588
vt 0.143790 0.705621
vt 0.173241 0.705655
vt 0.202693 0.705688
vt 0.683461 0.956045
vt 0.527211 0.956045
vt 0.605336 0.820729
vt 0.449086 0.820729
vt 0.527211 0.685412
vt 0.683461 0.685412
vt 0.761586 0.820729
vt 0.318402 0.648624
vt 0.359979 0.648638
vt 0.360076 0.742874
vt 0.318409 0.742874
vt 0.276743 0.648620
vt 0.276743 0.742874
vt 0.235076 0.648620
vt 0.235076 0.742874
vt 0.193411 0.648624
vt 0.193409 0.742874
vt 0.151755 0.648630
vt 0.151743 0.742874
vt 0.110173 0.648637
vt 0.110076 0.742874
vt 0.360076 0.832185
vt 0.318409 0.832185
vt 0.276743 0.832185
vt 0.235076 0.832185
vt 0.193409 0.832185
vt 0.151743 0.832185
vt 0.110076 0.832185
vt 0.184755 0.711367
vt 0.213423 0.711367
vt 0.213423 0.736887
vt 0.184755 0.736887
vt 0.242091 0.711367
vt 0.242091 0.736887
vt 0.270759 0.711367
vt 0.270759 0.736887
vt 0.299426 0.711367
vt 0.299426 0.736887
vt 0.328094 0.711367
vt 0.328094 0.736887
vt 0.356762 0.711367
vt 0.356762 0.736887
vt 0.522454 0.640381
vt 0.678704 0.640381
vt 0.600579 0.775697
vt 0.444329 0.775697
vt 0.522454 0.911014
vt 0.678704 0.911014
vt 0.756829 0.775697
vt 0.701008 0.941555
vt 0.544758 0.941555
vt 0.622883 0.806238
vt 0.466633 0.806238
vt 0.544758 0.670922
vt 0.701008 0.670922
vt 0.779133 0.806238
vt 0.328094 0.840373
vt 0.356762 0.840373
vt 0.356762 0.891975
vt 0.328094 0.891975
vt 0.299426 0.840373
vt 0.299426 0.891975
vt 0.270759 0.840373
vt 0.270759 0.891975
vt 0.242091 0.840373
vt 0.242091 0.891975
vt 0.213423 0.840373
vt 0.213423 0.891975
vt 0.184755 0.840373
vt 0.184755 0.891975
vt 0.328094 0.775870
vt 0.356762 0.775870
vt 0.299426 0.775870
vt 0.270759 0.775870
vt 0.242091 0.775870
vt 0.213423 0.775870
vt 0.184755 0.775870
vt 0.356762 0.969379
vt 0.328094 0.969379
vt 0.299426 0.969379
vt 0.270759 0.969379
vt 0.242091 0.969379
vt 0.213423 0.969379
vt 0.184755 0.969379
vt 0.689856 0.945610
vt 0.533606 0.945610
vt 0.611731 0.810294
vt 0.455481 0.810294
vt 0.533606 0.674977
vt 0.689856 0.674977
vt 0.767981 0.810294
vt 0.296420 0.908315
vt 0.326783 0.908315
vt 0.326783 0.923652
vt 0.296420 0.923652
vt 0.266057 0.908315
vt 0.266057 0.923652
vt 0.235693 0.908315
vt 0.235693 0.923652
vt 0.205330 0.908315
vt 0.205330 0.923652
vt 0.174966 0.908315
vt 0.174966 0.923652
vt 0.144603 0.908315
vt 0.144603 0.923652
vt 0.296420 0.898509
vt 0.326783 0.898509
vt 0.266057 0.898509
vt 0.235693 0.898509
vt 0.205330 0.898509
vt 0.174966 0.898509
vt 0.144603 0.898509
vt 0.296420 0.777015
vt 0.326939 0.777018
vt 0.266057 0.777015
vt 0.235693 0.777016
vt 0.205328 0.777015
vt 0.174947 0.777016
vt 0.144447 0.777017
vt 0.693911 0.935472
vt 0.537661 0.935472
vt 0.615786 0.800156
vt 0.459536 0.800156
vt 0.537661 0.664839
vt 0.693912 0.664839
vt 0.772036 0.800156
vt 0.296420 0.908315
vt 0.326783 0.908315
vt 0.326783 0.923652
vt 0.296420 0.923652
vt 0.266057 0.908315
vt 0.266057 0.923652
vt 0.235693 0.908315
vt 0.235693 0.923652
vt 0.205330 0.908315
vt 0.205330 0.923652
vt 0.174966 0.908315
vt 0.174966 0.923652
vt 0.144603 0.908315
vt 0.144603 0.923652
vt 0.296420 0.898509
vt 0.326783 0.898509
vt 0.266057 0.898509
vt 0.235693 0.898509
vt 0.205330 0.898509
vt 0.174966 0.898509
vt 0.144603 0.898509
vt 0.296439 0.777292
vt 0.326938 0.777293
vt 0.266057 0.777291
vt 0.235693 0.777291
vt 0.205330 0.777291
vt 0.174947 0.777292
vt 0.144448 0.777293
vt 0.144603 0.650381
vt 0.174966 0.650381
vt 0.174966 0.787017
vt 0.144603 0.787017
vt 0.205330 0.650381
vt 0.205330 0.787017
vt 0.235693 0.650381
vt 0.235693 0.787017
vt 0.266057 0.650381
vt 0.266057 0.787017
vt 0.296420 0.650381
vt 0.296420 0.787017
vt 0.326783 0.650381
vt 0.326783 0.787017
vt 0.522454 0.640381
vt 0.678704 0.640381
vt 0.600579 0.775697
vt 0.444329 0.775697
vt 0.522454 0.911014
vt 0.678704 0.911014
vt 0.756829 0.775697
vt 0.699994 0.939527
vt 0.543744 0.939527
vt 0.621869 0.804211
vt 0.465619 0.804211
vt 0.543744 0.668894
vt 0.699995 0.668894
vt 0.778119 0.804211
vt 0.326783 0.923652
vt 0.296420 0.923652
vt 0.266057 0.923652
vt 0.235693 0.923652
vt 0.205330 0.923652
vt 0.174966 0.923652
vt 0.144603 0.923652
vt 0.144603 0.650381
vt 0.174966 0.650381
vt 0.174966 0.677409
vt 0.144603 0.677409
vt 0.205330 0.650381
vt 0.205330 0.677409
vt 0.235693 0.650381
vt 0.235693 0.677409
vt 0.266057 0.650381
vt 0.266057 0.677409
vt 0.296420 0.650381
vt 0.296420 0.677409
vt 0.326783 0.650381
vt 0.326783 0.677409
vt 0.522454 0.640381
vt 0.678704 0.640381
vt 0.600579 0.775697
vt 0.444329 0.775697
vt 0.522454 0.911014
vt 0.678704 0.911014
vt 0.756829 0.775697
vt 0.699994 0.939527
vt 0.543744 0.939527
vt 0.621869 0.804211
vt 0.465619 0.804211
vt 0.543744 0.668894
vt 0.699995 0.668894
vt 0.778119 0.804211
vt 0.296420 0.787017
vt 0.326783 0.787017
vt 0.326783 0.841671
vt 0.296420 0.841671
vt 0.266057 0.787017
vt 0.266057 0.841671
vt 0.235693 0.787017
vt 0.235693 0.841671
vt 0.205330 0.787017
vt 0.205330 0.841671
vt 0.174966 0.787017
vt 0.174966 0.841671
vt 0.144603 0.787017
vt 0.144603 0.841671
vt 0.296420 0.718699
vt 0.326783 0.718699
vt 0.266057 0.718699
vt 0.235693 0.718699
vt 0.205330 0.718699
vt 0.174966 0.718699
vt 0.144603 0.718699
vt 0.326783 0.923652
vt 0.296420 0.923652
vt 0.266057 0.923652
vt 0.235693 0.923652
vt 0.205330 0.923652
vt 0.174966 0.923652
vt 0.144603 0.923652
vt 0.459257 0.022895
vt 0.567931 0.022072
vt 0.568954 0.157256
vt 0.460280 0.158078
vt 0.721669 0.151280
vt 0.563520 0.150946
vt 0.563632 0.097953
vt 0.721781 0.098287
vt 0.559118 0.051646
vt 0.559982 0.101095
vt 0.403188 0.103837
vt 0.402323 0.054387
vt 0.688707 0.021158
vt 0.689730 0.156342
vt 0.339504 0.158992
vt 0.338481 0.023809
vt 0.151164 0.160418
vt 0.877047 0.019733
vt 0.878070 0.154916
vt 0.721547 0.209172
vt 0.563398 0.208838
vt 0.405110 0.213773
vt 0.561904 0.211031
vt 0.563183 0.284159
vt 0.406388 0.286900
vt 0.723122 0.048778
vt 0.723986 0.098228
vt 0.725908 0.208163
vt 0.727187 0.281291
vt 0.397977 0.208489
vt 0.398099 0.150597
vt 0.398211 0.097604
vt 0.879141 0.296315
vt 0.690800 0.297740
vt 0.570025 0.298654
vt 0.461350 0.299477
vt 0.340574 0.300391
vt 0.152234 0.301817
vt 0.560901 0.153634
vt 0.404106 0.156376
vt 0.724905 0.150767
vt 0.721391 0.282932
vt 0.563242 0.282598
vt 0.397821 0.282249
vt 0.563737 0.048076
vt 0.398316 0.047727
vt 0.144603 0.650381
vt 0.174966 0.650381
vt 0.174966 0.787017
vt 0.144603 0.787017
vt 0.205330 0.650381
vt 0.205330 0.787017
vt 0.235693 0.650381
vt 0.235693 0.787017
vt 0.266057 0.650381
vt 0.266057 0.787017
vt 0.296420 0.650381
vt 0.296420 0.787017
vt 0.326783 0.650381
vt 0.326783 0.787017
vt 0.522454 0.640381
vt 0.678704 0.640381
vt 0.600579 0.775697
vt 0.444329 0.775697
vt 0.522454 0.911014
vt 0.678704 0.911014
vt 0.756829 0.775697
vt 0.699994 0.939527
vt 0.543744 0.939527
vt 0.621869 0.804211
vt 0.465619 0.804211
vt 0.543744 0.668894
vt 0.699995 0.668894
vt 0.778119 0.804211
vt 0.326783 0.923652
vt 0.296420 0.923652
vt 0.266057 0.923652
vt 0.235693 0.923652
vt 0.205330 0.923652
vt 0.174966 0.923652
vt 0.144603 0.923652
vt 0.699994 0.939527
vt 0.543744 0.939527
vt 0.621869 0.804211
vt 0.465619 0.804211
vt 0.543744 0.668894
vt 0.699995 0.668894
vt 0.778119 0.804211
vt 0.297256 0.774666
vt 0.330425 0.774620
vt 0.326783 0.858570
vt 0.296420 0.858570
vt 0.261791 0.774677
vt 0.266057 0.858570
vt 0.230110 0.774676
vt 0.235693 0.858570
vt 0.204140 0.774678
vt 0.205330 0.858570
vt 0.178596 0.774686
vt 0.174966 0.858570
vt 0.149263 0.774708
vt 0.144603 0.858570
vt 0.326783 0.923652
vt 0.296420 0.923652
vt 0.266057 0.923652
vt 0.235693 0.923652
vt 0.205330 0.923652
vt 0.174966 0.923652
vt 0.144603 0.923652
vt 0.144603 0.650381
vt 0.174966 0.650381
vt 0.174966 0.677409
vt 0.144603 0.677409
vt 0.205330 0.650381
vt 0.205330 0.677409
vt 0.235693 0.650381
vt 0.235693 0.677409
vt 0.266057 0.650381
vt 0.266057 0.677409
vt 0.296420 0.650381
vt 0.296420 0.677409
vt 0.326783 0.650381
vt 0.326783 0.677409
vt 0.522454 0.640381
vt 0.678704 0.640381
vt 0.600579 0.775697
vt 0.444329 0.775697
vt 0.522454 0.911014
vt 0.678704 0.911014
vt 0.756829 0.775697
vt 0.699994 0.939527
vt 0.543744 0.939527
vt 0.621869 0.804211
vt 0.465619 0.804211
vt 0.543744 0.668894
vt 0.699995 0.668894
vt 0.778119 0.804211
vt 0.296420 0.787017
vt 0.326783 0.787017
vt 0.326783 0.841671
vt 0.296420 0.841671
vt 0.266057 0.787017
vt 0.266057 0.841671
vt 0.235693 0.787017
vt 0.235693 0.841671
vt 0.205330 0.787017
vt 0.205330 0.841671
vt 0.174966 0.787017
vt 0.174966 0.841671
vt 0.144603 0.787017
vt 0.144603 0.841671
vt 0.296420 0.718699
vt 0.326783 0.718699
vt 0.266057 0.718699
vt 0.235693 0.718699
vt 0.205330 0.718699
vt 0.174966 0.718699
vt 0.144603 0.718699
vt 0.326783 0.923652
vt 0.296420 0.923652
vt 0.266057 0.923652
vt 0.235693 0.923652
vt 0.205330 0.923652
vt 0.174966 0.923652
vt 0.144603 0.923652
vt 0.699994 0.939527
vt 0.543744 0.939527
vt 0.621869 0.804211
vt 0.465619 0.804211
vt 0.543744 0.668894
vt 0.699995 0.668894
vt 0.778119 0.804211
vt 0.251361 0.902889
vt 0.293027 0.902889
vt 0.293027 0.923936
vt 0.251361 0.923936
vt 0.209694 0.902889
vt 0.209694 0.923936
vt 0.168027 0.902889
vt 0.168027 0.923936
vt 0.126361 0.902889
vt 0.126361 0.923936
vt 0.084694 0.902889
vt 0.084694 0.923936
vt 0.043027 0.902889
vt 0.043027 0.923936
vt 0.251361 0.889433
vt 0.293027 0.889433
vt 0.209694 0.889433
vt 0.168027 0.889433
vt 0.126361 0.889433
vt 0.084694 0.889433
vt 0.043027 0.889433
vt 0.251361 0.717844
vt 0.293153 0.717847
vt 0.209891 0.717844
vt 0.168254 0.717844
vt 0.126359 0.717845
vt 0.084457 0.717844
vt 0.042579 0.717847
vt 0.699994 0.939527
vt 0.543744 0.939527
vt 0.621869 0.804211
vt 0.465619 0.804211
vt 0.543744 0.668894
vt 0.699995 0.668894
vt 0.778119 0.804211
vt 0.296420 0.908315
vt 0.326783 0.908315
vt 0.326783 0.923652
vt 0.296420 0.923652
vt 0.266057 0.908315
vt 0.266057 0.923652
vt 0.235693 0.908315
vt 0.235693 0.923652
vt 0.205330 0.908315
vt 0.205330 0.923652
vt 0.174966 0.908315
vt 0.174966 0.923652
vt 0.144603 0.908315
vt 0.144603 0.923652
vt 0.296420 0.898509
vt 0.326783 0.898509
vt 0.266057 0.898509
vt 0.235693 0.898509
vt 0.205330 0.898509
vt 0.174966 0.898509
vt 0.144603 0.898509
vt 0.296421 0.773745
vt 0.326856 0.773746
vt 0.266207 0.773745
vt 0.235866 0.773744
vt 0.205349 0.773744
vt 0.174814 0.773744
vt 0.144277 0.773747
vt 0.144603 0.650381
vt 0.174966 0.650381
vt 0.174966 0.787017
vt 0.144603 0.787017
vt 0.205330 0.650381
vt 0.205330 0.787017
vt 0.235693 0.650381
vt 0.235693 0.787017
vt 0.266057 0.650381
vt 0.266057 0.787017
vt 0.296420 0.650381
vt 0.296420 0.787017
vt 0.326783 0.650381
vt 0.326783 0.787017
vt 0.522454 0.640381
vt 0.678704 0.640381
vt 0.600579 0.775697
vt 0.444329 0.775697
vt 0.522454 0.911014
vt 0.678704 0.911014
vt 0.756829 0.775697
vt 0.699994 0.939527
vt 0.543744 0.939527
vt 0.621869 0.804211
vt 0.465619 0.804211
vt 0.543744 0.668894
vt 0.699995 0.668894
vt 0.778119 0.804211
vt 0.326783 0.923652
vt 0.296420 0.923652
vt 0.266057 0.923652
vt 0.235693 0.923652
vt 0.205330 0.923652
vt 0.174966 0.923652
vt 0.144603 0.923652
vt 0.144603 0.650381
vt 0.174966 0.650381
vt 0.174966 0.677409
vt 0.144603 0.677409
vt 0.205330 0.650381
vt 0.205330 0.677409
vt 0.235693 0.650381
vt 0.235693 0.677409
vt 0.266057 0.650381
vt 0.266057 0.677409
vt 0.296420 0.650381
vt 0.296420 0.677409
vt 0.326783 0.650381
vt 0.326783 0.677409
vt 0.522454 0.640381
vt 0.678704 0.640381
vt 0.600579 0.775697
vt 0.444329 0.775697
vt 0.522454 0.911014
vt 0.678704 0.911014
vt 0.756829 0.775697
vt 0.699994 0.939527
vt 0.543744 0.939527
vt 0.621869 0.804211
vt 0.465619 0.804211
vt 0.543744 0.668894
vt 0.699995 0.668894
vt 0.778119 0.804211
vt 0.296420 0.787017
vt 0.326783 0.787017
vt 0.326783 0.841671
vt 0.296420 0.841671
vt 0.266057 0.787017
vt 0.266057 0.841671
vt 0.235693 0.787017
vt 0.235693 0.841671
vt 0.205330 0.787017
vt 0.205330 0.841671
vt 0.174966 0.787017
vt 0.174966 0.841671
vt 0.144603 0.787017
vt 0.144603 0.841671
vt 0.296420 0.718699
vt 0.326783 0.718699
vt 0.266057 0.718699
vt 0.235693 0.718699
vt 0.205330 0.718699
vt 0.174966 0.718699
vt 0.144603 0.718699
vt 0.326783 0.923652
vt 0.296420 0.923652
vt 0.266057 0.923652
vt 0.235693 0.923652
vt 0.205330 0.923652
vt 0.174966 0.923652
vt 0.144603 0.923652
vt 0.253616 0.570975
vt 0.253741 0.434267
vt 0.253865 0.297559
vt 0.256971 0.301024
vt 0.255901 0.159625
vt 0.254878 0.024442
vt 0.772185 0.571446
vt 0.772310 0.434738
vt 0.772434 0.298030
vt 0.769756 0.297143
vt 0.768686 0.155744
vt 0.767663 0.020561
vt 0.638035 0.571324
vt 0.638159 0.434616
vt 0.638284 0.297908
vt 0.637102 0.298147
vt 0.636032 0.156748
vt 0.635009 0.021565
vt 0.669215 0.282305
vt 0.667937 0.209177
vt 0.666933 0.151780
vt 0.666015 0.099241
vt 0.665150 0.049792
vt 0.151855 0.251835
vt 0.256593 0.251043
vt 0.340196 0.250410
vt 0.460972 0.249496
vt 0.569646 0.248673
vt 0.636724 0.248166
vt 0.690422 0.247759
vt 0.769378 0.247162
vt 0.878762 0.246334
vt 0.456789 0.047851
vt 0.456683 0.097727
vt 0.456571 0.150720
vt 0.456449 0.208613
vt 0.456294 0.282372
vt 0.397782 0.571106
vt 0.397906 0.434398
vt 0.398030 0.297690
vt 0.399529 0.299945
vt 0.399150 0.249964
vt 0.398459 0.158546
vt 0.397435 0.023363
vt 0.721886 0.048410
vt 0.150141 0.025235
vt 0.089476 0.281638
vt 0.882804 0.571547
vn 0.000000 1.000000 0.000000
vn 0.000000 1.000000 0.000000
vn 0.000000 1.000000 0.000000
vn 0.000000 1.000000 0.000000
vn -0.903588 0.428404 0.000000
vn -0.903588 0.428404 0.000000
vn -0.984273 0.176653 0.000000
vn -0.984273 0.176653 0.000000
vn 1.000000 0.000000 0.000000
vn 0.984273 0.176653 0.000000
vn 0.984273 0.176653 0.000000
vn 1.000000 0.000000 0.000000
vn -0.869404 0.494102 0.000000
vn -0.869404 0.494102 0.000000
vn -0.869404 0.494102 0.000000
vn -0.869404 0.494102 0.000000
vn 0.869404 0.494102 0.000000
vn 0.869404 0.494102 0.000000
vn 0.701771 0.712402 0.000000
vn 0.701771 0.712402 0.000000
vn 0.557517 0.830165 0.000000
vn 0.557517 0.830165 0.000000
vn 0.557517 0.830165 0.000000
vn 0.557517 0.830165 0.000000
vn -0.557517 0.830165 0.000000
vn -0.557517 0.830165 0.000000
vn -0.704696 0.709509 0.000000
vn -0.704696 0.709509 0.000000
vn -0.765942 0.642910 0.000000
vn -0.765942 0.642910 0.000000
vn 0.765942 0.642910 0.000000
vn 0.765942 0.642910 0.000000
vn 0.676210 0.736709 0.000000
vn 0.676210 0.736709 0.000000
vn 1.000000 0.000000 0.000000
vn 0.984273 0.176653 0.000000
vn 0.765942 0.642910 0.000000
vn 0.676210 0.736709 0.000000
vn -0.765942 0.642910 0.000000
vn -0.903588 0.428404 0.000000
vn -0.984273 0.176653 0.000000
vn -0.557517 0.830165 0.000000
vn -0.704696 0.709509 0.000000
vn -0.869404 0.494102 0.000000
vn -0.869404 0.494102 0.000000
vn 0.000000 1.000000 0.000000
vn 0.000000 1.000000 0.000000
vn 0.869404 0.494102 0.000000
vn 0.701771 0.712402 0.000000
vn 0.557517 0.830165 0.000000
vn 0.557517 0.830165 0.000000
vn 0.903588 0.428404 0.000000
vn 0.903588 0.428404 0.000000
vn 0.903588 0.428404 0.000000
vn -0.676210 0.736709 0.000000
vn -0.676210 0.736709 0.000000
vn -0.676210 0.736709 0.000000
vn -1.000000 0.000000 0.000000
vn -1.000000 0.000000 0.000000
vn -1.000000 0.000000 0.000000
vn 0.000000 0.000000 1.000000
vn 0.000000 0.000000 1.000000
vn 0.000000 -0.030483 0.999535
vn 0.000000 -0.028800 0.999585
vn 0.866025 0.000000 0.500001
vn 0.866025 0.000000 0.500001
vn 0.861725 -0.099531 0.497518
vn 0.861958 -0.096797 0.497653
vn 0.866026 0.000000 -0.499999
vn 0.866026 0.000000 -0.499999
vn 0.861959 -0.096797 -0.497652
vn 0.861726 -0.099531 -0.497517
vn 0.000000 0.000000 -1.000000
vn 0.000000 0.000000 -1.000000
vn 0.000000 -0.028800 -0.999585
vn 0.000000 -0.030483 -0.999535
vn -0.866025 0.000000 -0.500000
vn -0.866025 0.000000 -0.500000
vn -0.865377 0.038684 -0.499626
vn -0.865339 0.039797 -0.499604
vn -0.866026 0.000000 0.500000
vn -0.866026 0.000000 0.500000
vn -0.865340 0.039797 0.499603
vn -0.865378 0.038685 0.499625
vn 0.000000 -1.000000 0.000000
vn 0.000000 -1.000000 0.000000
vn 0.000000 -1.000000 0.000000
vn 0.000000 -1.000000 0.000000
vn 0.000000 -1.000000 0.000000
vn 0.000000 -1.000000 0.000000
vn 0.000000 -1.000000 0.000000
vn 0.000000 1.000000 0.000000
vn 0.000000 1.000000 0.000000
vn 0.000000 1.000000 0.000000
vn 0.000000 1.000000 0.000000
vn 0.000000 1.000000 0.000000
vn 0.000000 1.000000 0.000000
vn 0.000000 1.000000 0.000000
vn -0.864380 0.061611 0.499050
vn -0.864380 0.061611 0.499050
vn -0.864380 0.061610 -0.499050
vn -0.864380 0.061610 -0.499050
vn 0.000000 -0.046613 -0.998913
vn 0.000000 -0.046613 -0.998913
vn 0.855799 -0.153225 -0.494095
vn 0.855799 -0.153225 -0.494095
vn 0.855799 -0.153225 0.494096
vn 0.855799 -0.153225 0.494096
vn 0.000000 -0.046613 0.998913
vn 0.000000 -0.046613 0.998913
vn -0.000001 0.000000 -1.000000
vn -0.000001 0.000000 -1.000000
vn -0.000000 0.000000 -1.000000
vn 0.000000 0.000000 -1.000000
vn 0.000000 0.000000 -1.000000
vn 0.000000 0.000000 -1.000000
vn 0.000000 0.000000 -1.000000
vn -0.865673 0.499796 0.028530
vn -0.865673 0.499796 0.028530
vn -0.854452 0.493318 0.162942
vn -0.857444 0.495045 0.140429
vn -0.865673 -0.499797 -0.028530
vn -0.865673 -0.499797 -0.028530
vn -0.862715 -0.498089 -0.087353
vn -0.863441 -0.498508 -0.077196
vn 0.000000 -0.998375 -0.056991
vn 0.000000 -0.998375 -0.056991
vn 0.000000 -0.980207 -0.197975
vn 0.000000 -0.980207 -0.197975
vn 0.865673 -0.499796 -0.028530
vn 0.865673 -0.499796 -0.028530
vn 0.863441 -0.498508 -0.077196
vn 0.862715 -0.498089 -0.087353
vn 0.865673 0.499797 0.028530
vn 0.865673 0.499797 0.028530
vn 0.857444 0.495046 0.140429
vn 0.854451 0.493318 0.162943
vn -0.000000 0.998375 0.056991
vn -0.000000 0.998375 0.056991
vn -0.000000 0.964575 0.263810
vn -0.000000 0.964575 0.263810
vn -0.841031 0.485569 0.238517
vn -0.841031 0.485569 0.238517
vn -0.859610 -0.496296 -0.121492
vn -0.859610 -0.496296 -0.121492
vn 0.000000 -0.956126 -0.292957
vn 0.000000 -0.956126 -0.292957
vn 0.859610 -0.496296 -0.121492
vn 0.859610 -0.496296 -0.121492
vn 0.841030 0.485569 0.238517
vn 0.841030 0.485569 0.238517
vn -0.000000 0.918800 0.394723
vn -0.000000 0.918800 0.394723
vn -0.256238 0.185093 0.948727
vn -0.256238 0.185093 0.948727
vn -0.172435 0.124558 0.977114
vn -0.137400 0.099250 0.985531
vn 0.061234 0.895907 0.440001
vn 0.061234 0.895907 0.440001
vn 0.167478 0.869976 0.463782
vn 0.171015 0.868914 0.464481
vn 0.179195 0.866409 -0.466074
vn 0.179195 0.866409 -0.466074
vn 0.312974 0.815201 -0.487335
vn 0.277881 0.830556 -0.482657
vn -0.024766 0.017890 -0.999533
vn -0.024766 0.017890 -0.999533
vn 0.105206 -0.075996 -0.991542
vn 0.068315 -0.049348 -0.996443
vn -0.358932 -0.792892 -0.492432
vn -0.358932 -0.792892 -0.492432
vn -0.238562 -0.846108 -0.476644
vn -0.242349 -0.844684 -0.477258
vn -0.486954 -0.716259 0.499848
vn -0.486954 -0.716259 0.499848
vn -0.387948 -0.777464 0.495021
vn -0.352104 -0.796369 0.491751
vn 0.810629 -0.585560 0.000001
vn 0.810629 -0.585560 0.000001
vn 0.810629 -0.585560 -0.000000
vn 0.810629 -0.585560 -0.000000
vn 0.810629 -0.585560 -0.000001
vn 0.810629 -0.585560 -0.000002
vn 0.810629 -0.585560 -0.000000
vn -0.810629 0.585560 0.000001
vn -0.810629 0.585561 -0.000000
vn -0.810629 0.585560 -0.000000
vn -0.810628 0.585561 -0.000001
vn -0.810629 0.585561 -0.000001
vn -0.810629 0.585560 -0.000000
vn -0.810629 0.585560 0.000001
vn -0.564291 -0.657934 0.498696
vn -0.568878 -0.654143 0.498472
vn -0.644300 -0.585596 0.491889
vn -0.644493 -0.585405 0.491864
vn -0.568878 -0.654143 -0.498472
vn -0.564291 -0.657935 -0.498696
vn -0.644493 -0.585404 -0.491865
vn -0.644300 -0.585596 -0.491889
vn 0.000000 0.000000 -1.000000
vn 0.000000 0.000000 -1.000000
vn 0.000000 0.000000 -1.000000
vn 0.000000 0.000000 -1.000000
vn 0.568878 0.654143 -0.498472
vn 0.564291 0.657934 -0.498696
vn 0.644493 0.585405 -0.491865
vn 0.644300 0.585596 -0.491889
vn 0.564291 0.657934 0.498696
vn 0.568878 0.654143 0.498472
vn 0.644300 0.585596 0.491889
vn 0.644493 0.585405 0.491864
vn 0.000000 0.000000 1.000000
vn 0.000000 0.000000 1.000000
vn 0.000000 0.000000 1.000000
vn 0.000000 0.000000 1.000000
vn -0.406484 -0.767040 0.496409
vn -0.386951 -0.778012 0.494940
vn -0.338001 -0.803369 -0.490259
vn -0.342901 -0.800964 -0.490790
vn 0.083834 -0.060558 -0.994638
vn 0.064921 -0.046896 -0.996788
vn 0.439762 0.747162 -0.498355
vn 0.448839 0.741472 -0.498761
vn 0.390628 0.775985 0.495234
vn 0.387282 0.777831 0.494967
vn -0.025528 0.018440 0.999504
vn -0.033177 0.023965 0.999162
vn -0.643025 -0.586862 0.492050
vn -0.643025 -0.586862 0.492050
vn -0.643025 -0.586861 -0.492050
vn -0.643025 -0.586861 -0.492050
vn 0.000000 0.000000 -1.000000
vn 0.000000 0.000000 -1.000000
vn 0.643024 0.586862 -0.492050
vn 0.643024 0.586862 -0.492050
vn 0.643025 0.586862 0.492050
vn 0.643025 0.586862 0.492050
vn 0.000001 0.000000 1.000000
vn 0.000001 0.000000 1.000000
vn 0.000000 0.000000 -1.000000
vn 0.000000 0.000000 -1.000000
vn 0.000000 0.000000 -1.000000
vn 0.000000 0.000000 -1.000000
vn 0.000000 0.000000 -1.000000
vn 0.000000 0.000000 -1.000000
vn 0.000000 0.000000 -1.000000
vn -0.860903 0.497044 0.108595
vn -0.860903 0.497044 0.108595
vn -0.841454 0.485814 0.236517
vn -0.841454 0.485814 0.236517
vn -0.860903 -0.497044 0.108595
vn -0.860903 -0.497044 0.108595
vn -0.841453 -0.485815 0.236517
vn -0.841453 -0.485815 0.236517
vn 0.000000 -0.994086 0.108595
vn 0.000000 -0.994086 0.108595
vn 0.000000 -0.971627 0.236517
vn 0.000000 -0.971627 0.236518
vn 0.860903 -0.497044 0.108595
vn 0.860903 -0.497044 0.108595
vn 0.841454 -0.485814 0.236517
vn 0.841454 -0.485814 0.236517
vn 0.860903 0.497044 0.108595
vn 0.860903 0.497044 0.108595
vn 0.841453 0.485814 0.236518
vn 0.841453 0.485814 0.236518
vn 0.000000 0.994086 0.108595
vn 0.000000 0.994086 0.108595
vn 0.000000 0.971627 0.236517
vn 0.000000 0.971627 0.236517
vn -0.865961 0.499962 -0.012253
vn -0.865961 0.499962 -0.012253
vn -0.865961 -0.499962 -0.012253
vn -0.865961 -0.499962 -0.012253
vn 0.000000 -0.999925 -0.012253
vn 0.000000 -0.999925 -0.012253
vn 0.865961 -0.499962 -0.012253
vn 0.865961 -0.499962 -0.012253
vn 0.865961 0.499962 -0.012253
vn 0.865961 0.499962 -0.012253
vn -0.000000 0.999925 -0.012253
vn -0.000000 0.999925 -0.012253
vn -0.866022 0.499997 -0.003111
vn -0.866022 0.499997 -0.003111
vn -0.866022 -0.499997 -0.003111
vn -0.866022 -0.499997 -0.003111
vn 0.000000 -0.999995 -0.003111
vn 0.000000 -0.999995 -0.003111
vn 0.866022 -0.499997 -0.003111
vn 0.866022 -0.499997 -0.003111
vn 0.866022 0.499997 -0.003111
vn 0.866022 0.499997 -0.003111
vn -0.000000 0.999995 -0.003111
vn -0.000000 0.999995 -0.003111
vn 0.000000 0.000000 -1.000000
vn 0.000000 0.000000 -1.000000
vn 0.000000 0.000000 -1.000000
vn 0.000000 0.000000 -1.000000
vn 0.000000 0.000000 -1.000000
vn 0.000000 0.000000 -1.000000
vn 0.000000 0.000000 -1.000000
vn -0.860903 0.497044 0.108595
vn -0.860903 0.497044 0.108595
vn -0.841454 0.485814 0.236517
vn -0.841454 0.485814 0.236517
vn -0.860903 -0.497044 0.108595
vn -0.860903 -0.497044 0.108595
vn -0.841453 -0.485815 0.236517
vn -0.841453 -0.485815 0.236517
vn 0.000000 -0.994086 0.108595
vn 0.000000 -0.994086 0.108595
vn 0.000000 -0.971627 0.236517
vn 0.000000 -0.971627 0.236518
vn 0.860904 -0.497044 0.108595
vn 0.860904 -0.497044 0.108595
vn 0.841454 -0.485814 0.236517
vn 0.841454 -0.485814 0.236517
vn 0.860903 0.497044 0.108595
vn 0.860903 0.497044 0.108595
vn 0.841453 0.485814 0.236518
vn 0.841453 0.485814 0.236518
vn 0.000000 0.994086 0.108595
vn 0.000000 0.994086 0.108595
vn 0.000000 0.971627 0.236517
vn 0.000000 0.971627 0.236517
vn -0.865959 0.499964 -0.012274
vn -0.865959 0.499964 -0.012274
vn -0.865959 -0.499964 -0.012274
vn -0.865959 -0.499964 -0.012273
vn 0.000000 -0.999925 -0.012274
vn 0.000000 -0.999925 -0.012274
vn 0.865959 -0.499964 -0.012273
vn 0.865959 -0.499964 -0.012273
vn 0.865959 0.499964 -0.012274
vn 0.865959 0.499964 -0.012274
vn -0.000000 0.999925 -0.012274
vn -0.000000 0.999925 -0.012274
vn -0.866020 0.499999 -0.003111
vn -0.866020 0.499999 -0.003111
vn -0.866020 -0.499999 -0.003111
vn -0.866020 -0.499999 -0.003111
vn 0.000000 -0.999995 -0.003111
vn 0.000000 -0.999995 -0.003111
vn 0.866020 -0.499999 -0.003111
vn 0.866020 -0.499999 -0.003111
vn 0.866020 0.499999 -0.003111
vn 0.866020 0.499999 -0.003111
vn -0.000000 0.999995 -0.003111
vn -0.000000 0.999995 -0.003111
vn 0.000000 0.000000 -1.000000
vn 0.000000 0.000000 -1.000000
vn 0.000000 -0.030483 -0.999535
vn 0.000000 -0.028800 -0.999585
vn -0.866025 0.000000 -0.500000
vn -0.866025 0.000000 -0.500000
vn -0.861725 -0.099531 -0.497517
vn -0.861959 -0.096797 -0.497652
vn -0.866026 0.000000 0.500000
vn -0.866026 0.000000 0.500000
vn -0.861959 -0.096797 0.497652
vn -0.861725 -0.099531 0.497517
vn 0.000000 0.000000 1.000000
vn 0.000000 0.000000 1.000000
vn 0.000000 -0.028800 0.999585
vn 0.000000 -0.030483 0.999535
vn 0.866025 0.000000 0.500001
vn 0.866025 0.000000 0.500001
vn 0.865377 0.038684 0.499626
vn 0.865339 0.039797 0.499604
vn 0.866026 0.000000 -0.499999
vn 0.866026 0.000000 -0.499999
vn 0.865340 0.039797 -0.499603
vn 0.865378 0.038684 -0.499625
vn 0.000000 -1.000000 0.000000
vn 0.000000 -1.000000 0.000000
vn 0.000000 -1.000000 0.000000
vn 0.000000 -1.000000 0.000000
vn 0.000000 -1.000000 0.000000
vn 0.000000 -1.000000 0.000000
vn 0.000000 -1.000000 0.000000
vn 0.000000 1.000000 0.000000
vn 0.000000 1.000000 0.000000
vn 0.000000 1.000000 0.000000
vn 0.000000 1.000000 0.000000
vn 0.000000 1.000000 0.000000
vn 0.000000 1.000000 0.000000
vn 0.000000 1.000000 0.000000
vn 0.864381 0.061610 -0.499049
vn 0.864381 0.061610 -0.499049
vn 0.864380 0.061610 0.499050
vn 0.864380 0.061610 0.499050
vn 0.000000 -0.046613 0.998913
vn 0.000000 -0.046613 0.998913
vn -0.855799 -0.153224 0.494096
vn -0.855799 -0.153224 0.494096
vn -0.855799 -0.153224 -0.494096
vn -0.855799 -0.153224 -0.494096
vn 0.000000 -0.046613 -0.998913
vn 0.000000 -0.046613 -0.998913
vn 0.031051 0.206045 -0.978050
vn 0.031051 0.206045 -0.978050
vn -0.051609 0.138658 -0.988995
vn -0.085426 0.110487 -0.990200
vn -0.227598 0.887551 -0.400564
vn -0.227598 0.887551 -0.400564
vn -0.333964 0.852753 -0.401599
vn -0.337469 0.851396 -0.401546
vn -0.146008 0.848210 0.509137
vn -0.146008 0.848210 0.509137
vn -0.267450 0.785904 0.557517
vn -0.235559 0.804164 0.545740
vn 0.236614 0.019914 0.971400
vn 0.236614 0.019914 0.971400
vn 0.116131 -0.084598 0.989625
vn 0.150892 -0.054934 0.987023
vn 0.520097 -0.759799 0.390134
vn 0.520097 -0.759799 0.390134
vn 0.403939 -0.822976 0.399429
vn 0.407639 -0.821239 0.399246
vn 0.425963 -0.672644 -0.605066
vn 0.425963 -0.672644 -0.605066
vn 0.335672 -0.741979 -0.580337
vn 0.303040 -0.763840 -0.569838
vn -0.740780 -0.651834 0.162352
vn -0.740779 -0.651834 0.162352
vn -0.740779 -0.651834 0.162352
vn -0.740779 -0.651835 0.162352
vn -0.740779 -0.651834 0.162352
vn -0.740779 -0.651834 0.162353
vn -0.740779 -0.651835 0.162352
vn 0.740780 0.651834 -0.162352
vn 0.740779 0.651835 -0.162351
vn 0.740780 0.651834 -0.162352
vn 0.740779 0.651835 -0.162352
vn 0.740780 0.651833 -0.162352
vn 0.740780 0.651833 -0.162352
vn 0.740780 0.651834 -0.162352
vn 0.496679 -0.608004 -0.619388
vn 0.500879 -0.603839 -0.620079
vn 0.570053 -0.529177 -0.628500
vn 0.570230 -0.528969 -0.628514
vn 0.714308 -0.603840 0.353754
vn 0.710203 -0.608005 0.354882
vn 0.780829 -0.528969 0.332410
vn 0.780663 -0.529177 0.332472
vn 0.214082 0.000000 0.976816
vn 0.214082 0.000000 0.976816
vn 0.214082 0.000000 0.976816
vn 0.214082 0.000000 0.976816
vn -0.500880 0.603840 0.620078
vn -0.496680 0.608005 0.619386
vn -0.570231 0.528970 0.628511
vn -0.570054 0.529178 0.628498
vn -0.710204 0.608004 -0.354882
vn -0.714308 0.603840 -0.353753
vn -0.780663 0.529177 -0.332470
vn -0.780830 0.528970 -0.332408
vn -0.214083 0.000001 -0.976816
vn -0.214083 0.000001 -0.976816
vn -0.214083 0.000000 -0.976816
vn -0.214083 0.000000 -0.976816
vn 0.352557 -0.730028 -0.585459
vn 0.334763 -0.742609 -0.580056
vn 0.500121 -0.772004 0.392287
vn 0.504806 -0.769195 0.391804
vn 0.136324 -0.067413 0.988368
vn 0.154068 -0.052204 0.986680
vn -0.382893 0.707417 0.594100
vn -0.391173 0.700981 0.596330
vn -0.550155 0.740278 -0.386416
vn -0.546993 0.742400 -0.386835
vn -0.190650 0.020529 -0.981444
vn -0.183586 0.026680 -0.982642
vn 0.568882 -0.530545 -0.628407
vn 0.568881 -0.530545 -0.628407
vn 0.779560 -0.530545 0.332878
vn 0.779560 -0.530545 0.332878
vn 0.214082 0.000000 0.976816
vn 0.214082 0.000000 0.976816
vn -0.568883 0.530547 0.628405
vn -0.568883 0.530547 0.628405
vn -0.779561 0.530546 -0.332876
vn -0.779561 0.530546 -0.332876
vn -0.214082 0.000000 -0.976816
vn -0.214082 0.000000 -0.976816
vn 0.000000 1.000000 0.000000
vn 0.000000 1.000000 0.000000
vn 0.000000 1.000000 0.000000
vn 0.000000 1.000000 0.000000
vn 0.903588 0.428404 0.000000
vn 0.903588 0.428404 0.000000
vn 0.984273 0.176653 0.000000
vn 0.984273 0.176653 0.000000
vn -1.000000 0.000000 0.000000
vn -0.984273 0.176653 0.000000
vn -0.984273 0.176653 0.000000
vn -1.000000 0.000000 0.000000
vn 0.701771 0.712402 0.000000
vn 0.701771 0.712402 0.000000
vn 0.869404 0.494102 0.000000
vn 0.869404 0.494102 0.000000
vn -0.869404 0.494102 0.000000
vn -0.869404 0.494102 0.000000
vn -0.869404 0.494102 0.000000
vn -0.869404 0.494102 0.000000
vn -0.704696 0.709510 -0.000000
vn -0.557517 0.830165 0.000000
vn -0.557517 0.830165 0.000000
vn -0.704696 0.709510 0.000000
vn 0.557517 0.830165 0.000000
vn 0.557517 0.830165 0.000000
vn 0.557517 0.830165 0.000000
vn 0.557517 0.830165 0.000000
vn 0.765942 0.642910 0.000000
vn 0.765942 0.642910 0.000000
vn -0.765942 0.642910 0.000000
vn -0.765942 0.642910 0.000000
vn -0.676210 0.736709 0.000000
vn -0.676210 0.736709 0.000000
vn -1.000000 0.000000 0.000000
vn -0.984273 0.176653 0.000000
vn -0.984273 0.176653 0.000000
vn -1.000000 0.000000 0.000000
vn -0.676210 0.736709 0.000000
vn -0.765942 0.642910 0.000000
vn -0.765942 0.642910 0.000000
vn -0.676210 0.736709 0.000000
vn 0.903587 0.428404 0.000000
vn 0.765942 0.642910 0.000000
vn 0.765942 0.642910 0.000000
vn 0.903587 0.428404 0.000000
vn 0.984273 0.176653 0.000000
vn 0.984273 0.176653 0.000000
vn 0.557517 0.830165 0.000000
vn 0.557517 0.830165 0.000000
vn 0.557517 0.830165 0.000000
vn 0.557517 0.830165 0.000000
vn 0.869404 0.494102 0.000000
vn 0.869404 0.494102 0.000000
vn 0.701771 0.712402 0.000000
vn 0.701771 0.712402 0.000000
vn 0.000000 1.000000 0.000000
vn 0.000000 1.000000 0.000000
vn 0.000000 1.000000 0.000000
vn 0.000000 1.000000 0.000000
vn -0.869404 0.494102 0.000000
vn -0.869404 0.494102 0.000000
vn -0.869404 0.494102 0.000000
vn -0.869404 0.494102 0.000000
vn -0.704696 0.709509 0.000000
vn -0.557517 0.830165 0.000000
vn -0.557517 0.830165 -0.000000
vn -0.704696 0.709509 -0.000000
vn -0.903588 0.428404 0.000000
vn -0.903588 0.428404 0.000000
vn -0.903587 0.428404 0.000000
vn -0.903587 0.428404 0.000000
vn 0.676210 0.736709 0.000000
vn 0.676210 0.736709 0.000000
vn 0.676210 0.736709 0.000000
vn 0.676210 0.736709 0.000000
vn 1.000000 0.000000 0.000000
vn 1.000000 0.000000 0.000000
vn 1.000000 0.000000 0.000000
vn 1.000000 0.000000 0.000000
vn 0.000000 0.000000 -1.000000
vn 0.000000 0.000000 -1.000000
vn 0.000000 -0.030483 -0.999535
vn 0.000000 -0.028800 -0.999585
vn -0.866025 0.000000 -0.500000
vn -0.866025 0.000000 -0.500000
vn -0.861725 -0.099531 -0.497517
vn -0.861959 -0.096797 -0.497652
vn -0.866026 0.000000 0.500000
vn -0.866026 0.000000 0.500000
vn -0.861959 -0.096797 0.497652
vn -0.861725 -0.099531 0.497517
vn 0.000000 0.000000 1.000000
vn 0.000000 0.000000 1.000000
vn 0.000000 -0.028800 0.999585
vn 0.000000 -0.030483 0.999535
vn 0.866025 0.000000 0.500001
vn 0.866025 0.000000 0.500001
vn 0.865377 0.038684 0.499626
vn 0.865339 0.039797 0.499604
vn 0.866026 0.000000 -0.499999
vn 0.866026 0.000000 -0.499999
vn 0.865340 0.039797 -0.499603
vn 0.865377 0.038685 -0.499625
vn 0.000000 -1.000000 0.000000
vn 0.000000 -1.000000 0.000000
vn 0.000000 -1.000000 0.000000
vn 0.000000 -1.000000 0.000000
vn 0.000000 -1.000000 0.000000
vn 0.000000 -1.000000 0.000000
vn 0.000000 -1.000000 0.000000
vn 0.000000 1.000000 0.000000
vn 0.000000 1.000000 0.000000
vn 0.000000 1.000000 0.000000
vn 0.000000 1.000000 0.000000
vn 0.000000 1.000000 0.000000
vn 0.000000 1.000000 0.000000
vn 0.000000 1.000000 0.000000
vn 0.864380 0.061611 -0.499050
vn 0.864380 0.061611 -0.499050
vn 0.864380 0.061610 0.499050
vn 0.864380 0.061610 0.499050
vn 0.000000 -0.046613 0.998913
vn 0.000000 -0.046613 0.998913
vn -0.855799 -0.153225 0.494096
vn -0.855799 -0.153225 0.494096
vn -0.855799 -0.153225 -0.494096
vn -0.855799 -0.153225 -0.494096
vn 0.000000 -0.046613 -0.998913
vn 0.000000 -0.046613 -0.998913
vn 0.000001 0.000000 1.000000
vn 0.000001 0.000000 1.000000
vn 0.000000 0.000000 1.000000
vn 0.000000 0.000000 1.000000
vn 0.000000 0.000000 1.000000
vn 0.000000 0.000000 1.000000
vn 0.000000 0.000000 1.000000
vn 0.864633 0.499196 -0.056679
vn 0.864633 0.499196 -0.056679
vn 0.854369 0.493270 -0.163522
vn 0.856852 0.494703 -0.145168
vn 0.865982 -0.499975 -0.010034
vn 0.865982 -0.499975 -0.010034
vn 0.864069 -0.498871 0.067171
vn 0.864852 -0.499322 0.052047
vn 0.000000 -0.998910 0.046684
vn 0.000000 -0.998910 0.046684
vn 0.000000 -0.983062 0.183276
vn 0.000000 -0.983619 0.180262
vn -0.864633 -0.499196 0.056679
vn -0.864633 -0.499196 0.056679
vn -0.862694 -0.498077 0.087623
vn -0.862168 -0.497773 0.094281
vn -0.865982 0.499975 0.010035
vn -0.865982 0.499975 0.010035
vn -0.860813 0.496990 -0.109553
vn -0.857770 0.495234 -0.137745
vn -0.000000 0.998910 -0.046684
vn -0.000000 0.998910 -0.046684
vn -0.000000 0.970605 -0.240676
vn -0.000000 0.969537 -0.244944
vn 0.841031 0.485569 -0.238517
vn 0.841031 0.485569 -0.238517
vn 0.859610 -0.496296 0.121492
vn 0.859610 -0.496296 0.121492
vn 0.000000 -0.956126 0.292957
vn 0.000000 -0.956126 0.292957
vn -0.859610 -0.496296 0.121492
vn -0.859610 -0.496296 0.121492
vn -0.841030 0.485569 -0.238517
vn -0.841030 0.485569 -0.238517
vn 0.000000 0.918800 -0.394723
vn 0.000000 0.918800 -0.394723
vn 0.256238 0.185093 -0.948727
vn 0.256238 0.185093 -0.948727
vn 0.172434 0.124558 -0.977114
vn 0.137400 0.099250 -0.985531
vn -0.061234 0.895907 -0.440001
vn -0.061234 0.895907 -0.440001
vn -0.167478 0.869976 -0.463782
vn -0.171015 0.868914 -0.464481
vn -0.179195 0.866409 0.466074
vn -0.179195 0.866409 0.466074
vn -0.312974 0.815201 0.487335
vn -0.277881 0.830556 0.482657
vn 0.024767 0.017890 0.999533
vn 0.024767 0.017890 0.999533
vn -0.105206 -0.075996 0.991542
vn -0.068315 -0.049348 0.996443
vn 0.358933 -0.792892 0.492432
vn 0.358933 -0.792892 0.492432
vn 0.238562 -0.846108 0.476644
vn 0.242349 -0.844684 0.477258
vn 0.486953 -0.716260 -0.499848
vn 0.486953 -0.716260 -0.499848
vn 0.387948 -0.777464 -0.495022
vn 0.352103 -0.796369 -0.491751
vn -0.810629 -0.585560 -0.000001
vn -0.810628 -0.585561 -0.000001
vn -0.810629 -0.585560 0.000000
vn -0.810630 -0.585559 0.000000
vn -0.810629 -0.585560 0.000001
vn -0.810629 -0.585560 0.000002
vn -0.810629 -0.585559 0.000000
vn 0.810629 0.585560 -0.000001
vn 0.810629 0.585560 0.000000
vn 0.810629 0.585561 -0.000000
vn 0.810628 0.585561 0.000001
vn 0.810629 0.585561 0.000001
vn 0.810629 0.585560 0.000000
vn 0.810629 0.585561 -0.000001
vn 0.564291 -0.657935 -0.498696
vn 0.568878 -0.654143 -0.498472
vn 0.644300 -0.585596 -0.491889
vn 0.644493 -0.585405 -0.491864
vn 0.568878 -0.654143 0.498472
vn 0.564291 -0.657935 0.498696
vn 0.644493 -0.585404 0.491865
vn 0.644300 -0.585596 0.491890
vn 0.000000 0.000000 1.000000
vn 0.000000 0.000000 1.000000
vn 0.000000 0.000000 1.000000
vn 0.000000 0.000000 1.000000
vn -0.568878 0.654143 0.498472
vn -0.564291 0.657934 0.498696
vn -0.644493 0.585405 0.491865
vn -0.644300 0.585596 0.491889
vn -0.564291 0.657935 -0.498696
vn -0.568878 0.654143 -0.498472
vn -0.644300 0.585596 -0.491889
vn -0.644493 0.585405 -0.491865
vn 0.000000 0.000000 -1.000000
vn 0.000000 0.000000 -1.000000
vn 0.000000 0.000000 -1.000000
vn 0.000000 0.000000 -1.000000
vn 0.406483 -0.767040 -0.496409
vn 0.386950 -0.778013 -0.494940
vn 0.338001 -0.803369 0.490259
vn 0.342901 -0.800964 0.490790
vn -0.083834 -0.060558 0.994638
vn -0.064921 -0.046896 0.996788
vn -0.439761 0.747162 0.498356
vn -0.448839 0.741472 0.498761
vn -0.390628 0.775985 -0.495234
vn -0.387282 0.777831 -0.494967
vn 0.025528 0.018440 -0.999504
vn 0.033177 0.023965 -0.999162
vn 0.643025 -0.586862 -0.492050
vn 0.643025 -0.586862 -0.492050
vn 0.643024 -0.586861 0.492051
vn 0.643024 -0.586861 0.492051
vn 0.000000 0.000000 1.000000
vn 0.000000 0.000000 1.000000
vn -0.643025 0.586862 0.492050
vn -0.643025 0.586862 0.492050
vn -0.643025 0.586862 -0.492050
vn -0.643025 0.586862 -0.492050
vn 0.000000 0.000000 -1.000000
vn 0.000000 0.000000 -1.000000
vn 0.000000 0.000000 1.000000
vn 0.000000 0.000000 1.000000
vn 0.000000 0.000000 1.000000
vn 0.000000 0.000000 1.000000
vn 0.000000 0.000000 1.000000
vn 0.000000 0.000000 1.000000
vn 0.000000 0.000000 1.000000
vn 0.860903 0.497044 -0.108595
vn 0.860903 0.497044 -0.108595
vn 0.841454 0.485814 -0.236517
vn 0.841454 0.485814 -0.236517
vn 0.860903 -0.497044 -0.108595
vn 0.860903 -0.497044 -0.108595
vn 0.841454 -0.485814 -0.236517
vn 0.841454 -0.485814 -0.236517
vn 0.000000 -0.994086 -0.108595
vn 0.000000 -0.994086 -0.108595
vn 0.000000 -0.971627 -0.236517
vn 0.000000 -0.971627 -0.236518
vn -0.860903 -0.497044 -0.108595
vn -0.860903 -0.497044 -0.108595
vn -0.841454 -0.485814 -0.236517
vn -0.841454 -0.485814 -0.236517
vn -0.860903 0.497044 -0.108595
vn -0.860903 0.497044 -0.108595
vn -0.841454 0.485814 -0.236518
vn -0.841454 0.485814 -0.236518
vn 0.000000 0.994086 -0.108595
vn 0.000000 0.994086 -0.108595
vn 0.000000 0.971627 -0.236517
vn 0.000000 0.971627 -0.236517
vn 0.865960 0.499965 0.012160
vn 0.865960 0.499965 0.012161
vn 0.865960 -0.499966 0.012161
vn 0.865960 -0.499966 0.012160
vn 0.000000 -0.999929 0.011922
vn 0.000000 -0.999929 0.011919
vn -0.865965 -0.499968 0.011681
vn -0.865965 -0.499967 0.011679
vn -0.865965 0.499967 0.011679
vn -0.865965 0.499968 0.011681
vn -0.000000 0.999929 0.011919
vn -0.000000 0.999929 0.011922
vn 0.866019 0.500000 0.003271
vn 0.866019 0.500000 0.003271
vn 0.866019 -0.500000 0.003271
vn 0.866019 -0.500000 0.003271
vn 0.000000 -0.999995 0.003016
vn 0.000000 -0.999996 0.003016
vn -0.866021 -0.500000 0.002761
vn -0.866021 -0.500000 0.002761
vn -0.866021 0.500000 0.002761
vn -0.866021 0.500000 0.002761
vn -0.000000 0.999996 0.003016
vn -0.000000 0.999995 0.003016
vn 0.000000 0.000000 1.000000
vn 0.000000 0.000000 1.000000
vn 0.000000 0.000000 1.000000
vn 0.000000 0.000000 1.000000
vn 0.000000 0.000000 1.000000
vn 0.000000 0.000000 1.000000
vn 0.000000 0.000000 1.000000
vn 0.860903 0.497044 -0.108595
vn 0.860903 0.497044 -0.108595
vn 0.841454 0.485814 -0.236517
vn 0.841454 0.485814 -0.236517
vn 0.860903 -0.497044 -0.108595
vn 0.860903 -0.497044 -0.108595
vn 0.841454 -0.485814 -0.236517
vn 0.841454 -0.485814 -0.236517
vn 0.000000 -0.994086 -0.108595
vn 0.000000 -0.994086 -0.108595
vn 0.000000 -0.971627 -0.236517
vn 0.000000 -0.971627 -0.236518
vn -0.860904 -0.497044 -0.108595
vn -0.860904 -0.497044 -0.108595
vn -0.841454 -0.485814 -0.236517
vn -0.841454 -0.485814 -0.236517
vn -0.860904 0.497044 -0.108595
vn -0.860904 0.497044 -0.108595
vn -0.841454 0.485814 -0.236518
vn -0.841454 0.485814 -0.236518
vn 0.000000 0.994086 -0.108595
vn 0.000000 0.994086 -0.108595
vn 0.000000 0.971627 -0.236517
vn 0.000000 0.971627 -0.236517
vn 0.865961 0.499962 0.012191
vn 0.865961 0.499962 0.012193
vn 0.865961 -0.499962 0.012193
vn 0.865961 -0.499962 0.012191
vn 0.000000 -0.999929 0.011952
vn 0.000000 -0.999929 0.011949
vn -0.865966 -0.499966 0.011711
vn -0.865966 -0.499966 0.011709
vn -0.865966 0.499966 0.011709
vn -0.865966 0.499966 0.011711
vn -0.000000 0.999929 0.011949
vn -0.000000 0.999929 0.011953
vn 0.866021 0.499997 0.003285
vn 0.866021 0.499997 0.003285
vn 0.866021 -0.499997 0.003285
vn 0.866021 -0.499997 0.003285
vn 0.000000 -0.999995 0.003030
vn 0.000000 -0.999995 0.003030
vn -0.866022 -0.499999 0.002774
vn -0.866022 -0.499999 0.002774
vn -0.866022 0.499999 0.002774
vn -0.866022 0.499999 0.002774
vn -0.000000 0.999995 0.003030
vn -0.000000 0.999995 0.003030
vn 0.000000 0.000000 1.000000
vn 0.000000 0.000000 1.000000
vn 0.000000 -0.030483 0.999535
vn 0.000000 -0.028800 0.999585
vn 0.866025 0.000000 0.500001
vn 0.866025 0.000000 0.500001
vn 0.861725 -0.099531 0.497518
vn 0.861958 -0.096797 0.497653
vn 0.866026 0.000000 -0.499999
vn 0.866026 0.000000 -0.499999
vn 0.861959 -0.096797 -0.497652
vn 0.861725 -0.099531 -0.497517
vn 0.000000 0.000000 -1.000000
vn 0.000000 0.000000 -1.000000
vn 0.000000 -0.028800 -0.999585
vn 0.000000 -0.030483 -0.999535
vn -0.866025 0.000000 -0.500000
vn -0.866025 0.000000 -0.500000
vn -0.865377 0.038684 -0.499626
vn -0.865339 0.039797 -0.499604
vn -0.866026 0.000000 0.500000
vn -0.866026 0.000000 0.500000
vn -0.865340 0.039797 0.499603
vn -0.865378 0.038684 0.499625
vn 0.000000 -1.000000 0.000000
vn 0.000000 -1.000000 0.000000
vn 0.000000 -1.000000 0.000000
vn 0.000000 -1.000000 0.000000
vn 0.000000 -1.000000 0.000000
vn 0.000000 -1.000000 0.000000
vn 0.000000 -1.000000 0.000000
vn 0.000000 1.000000 0.000000
vn 0.000000 1.000000 0.000000
vn 0.000000 1.000000 0.000000
vn 0.000000 1.000000 0.000000
vn 0.000000 1.000000 0.000000
vn 0.000000 1.000000 0.000000
vn 0.000000 1.000000 0.000000
vn -0.864380 0.061610 0.499050
vn -0.864380 0.061610 0.499050
vn -0.864380 0.061610 -0.499050
vn -0.864380 0.061610 -0.499050
vn 0.000000 -0.046613 -0.998913
vn 0.000000 -0.046613 -0.998913
vn 0.855799 -0.153224 -0.494096
vn 0.855799 -0.153224 -0.494096
vn 0.855799 -0.153224 0.494096
vn 0.855799 -0.153224 0.494096
vn 0.000000 -0.046613 0.998913
vn 0.000000 -0.046613 0.998913
vn -0.031052 0.206045 0.978050
vn -0.031052 0.206045 0.978050
vn 0.051608 0.138658 0.988995
vn 0.085425 0.110487 0.990200
vn 0.227597 0.887552 0.400564
vn 0.227597 0.887552 0.400564
vn 0.333963 0.852753 0.401599
vn 0.337468 0.851397 0.401546
vn 0.146008 0.848210 -0.509137
vn 0.146008 0.848210 -0.509137
vn 0.267451 0.785904 -0.557517
vn 0.235560 0.804164 -0.545740
vn -0.236615 0.019914 -0.971399
vn -0.236615 0.019914 -0.971399
vn -0.116132 -0.084598 -0.989625
vn -0.150893 -0.054934 -0.987023
vn -0.520096 -0.759800 -0.390134
vn -0.520096 -0.759800 -0.390134
vn -0.403940 -0.822976 -0.399428
vn -0.407640 -0.821238 -0.399246
vn -0.425962 -0.672645 0.605067
vn -0.425962 -0.672645 0.605067
vn -0.335671 -0.741980 0.580337
vn -0.303040 -0.763840 0.569838
vn 0.740779 -0.651834 -0.162352
vn 0.740779 -0.651835 -0.162352
vn 0.740779 -0.651834 -0.162352
vn 0.740779 -0.651835 -0.162352
vn 0.740780 -0.651834 -0.162352
vn 0.740780 -0.651833 -0.162352
vn 0.740779 -0.651835 -0.162352
vn -0.740780 0.651834 0.162352
vn -0.740780 0.651834 0.162351
vn -0.740779 0.651834 0.162352
vn -0.740779 0.651835 0.162352
vn -0.740779 0.651835 0.162353
vn -0.740780 0.651834 0.162352
vn -0.740780 0.651834 0.162352
vn -0.496678 -0.608004 0.619388
vn -0.500878 -0.603840 0.620080
vn -0.570052 -0.529177 0.628500
vn -0.570229 -0.528970 0.628514
vn -0.714308 -0.603840 -0.353754
vn -0.710204 -0.608004 -0.354882
vn -0.780830 -0.528969 -0.332410
vn -0.780663 -0.529177 -0.332472
vn -0.214083 0.000000 -0.976816
vn -0.214083 0.000000 -0.976816
vn -0.214083 0.000000 -0.976816
vn -0.214083 0.000000 -0.976816
vn 0.500880 0.603840 -0.620077
vn 0.496680 0.608005 -0.619386
vn 0.570231 0.528970 -0.628511
vn 0.570054 0.529178 -0.628497
vn 0.710204 0.608004 0.354882
vn 0.714308 0.603840 0.353753
vn 0.780663 0.529177 0.332470
vn 0.780830 0.528970 0.332409
vn 0.214083 0.000001 0.976815
vn 0.214083 0.000001 0.976815
vn 0.214083 0.000000 0.976816
vn 0.214083 0.000000 0.976816
vn -0.352556 -0.730028 0.585459
vn -0.334762 -0.742609 0.580056
vn -0.500122 -0.772003 -0.392287
vn -0.504807 -0.769194 -0.391804
vn -0.136324 -0.067413 -0.988368
vn -0.154068 -0.052204 -0.986680
vn 0.382894 0.707417 -0.594100
vn 0.391174 0.700981 -0.596330
vn 0.550155 0.740279 0.386416
vn 0.546992 0.742400 0.386835
vn 0.190649 0.020529 0.981444
vn 0.183586 0.026680 0.982642
vn -0.568880 -0.530546 0.628408
vn -0.568880 -0.530546 0.628408
vn -0.779560 -0.530545 -0.332878
vn -0.779560 -0.530545 -0.332878
vn -0.214082 0.000000 -0.976816
vn -0.214082 0.000000 -0.976816
vn 0.568883 0.530547 -0.628405
vn 0.568883 0.530547 -0.628405
vn 0.779560 0.530546 0.332876
vn 0.779560 0.530546 0.332876
vn 0.214082 0.000000 0.976816
vn 0.214082 0.000000 0.976816
vn -0.557517 0.830165 0.000000
vn -0.557517 0.830165 0.000000
vn -0.557517 0.830165 0.000000
vn -0.557517 0.830165 -0.000000
vn -0.557517 0.830165 0.000000
vn -0.557517 0.830165 -0.000000
vn -0.557517 0.830165 0.000000
vn 0.869404 0.494102 0.000000
vn 0.869404 0.494102 0.000000
vn 0.869404 0.494102 0.000000
vn 0.869404 0.494102 0.000000
vn 0.869404 0.494102 0.000000
vn 0.869404 0.494102 0.000000
vn 0.869404 0.494102 0.000000
s 1
g pCube4
usemtl lambert2SG
f 5/5/1 6/6/2 28/32/3 29/33/4
s 2
f 10/10/5 25/28/6 41/45/7 42/46/8
s 3
f 21/23/9 35/39/10 36/40/11 3/3/12
s 4
f 455/690/13 456/691/14 28/32/15 6/6/16
s 5
f 433/665/17 434/666/18 30/34/19 7/7/20
f 428/659/21 429/660/22 21/24/23 3/700/24
s 4
f 423/653/25 424/654/26 27/31/27 8/8/28
s 2
f 37/41/29 38/42/30 25/28/6 10/10/5
s 3
f 31/35/31 32/36/32 23/26/33 1/1/34
f 11/11/35 34/38/36 35/39/10 21/23/9
f 32/36/32 33/37/37 13/14/38 23/26/33
s 2
f 25/28/6 38/42/30 39/43/39 15/16/40
f 40/44/41 41/45/7 25/28/6 15/16/40
s 4
f 27/31/27 424/654/26 425/655/42 17/19/43
f 28/32/15 456/691/14 457/692/44 18/20/45
s 1
f 29/33/4 28/32/3 18/20/46 19/21/47
s 5
f 434/666/18 435/667/48 20/22/49 30/34/19
f 429/660/22 430/661/50 11/12/51 21/24/23
s 3
f 22/25/52 32/36/32 31/35/31 9/9/53
f 12/13/54 33/37/37 32/36/32 22/25/52
f 35/39/10 34/38/36 12/13/54 22/25/52
f 36/40/11 35/39/10 22/25/52 9/9/53
s 2
f 2/2/55 24/27/56 38/42/30 37/41/29
f 39/43/39 38/42/30 24/27/56 14/15/57
f 26/30/58 41/45/7 40/44/41 16/18/59
f 42/46/8 41/45/7 26/30/58 4/699/60
s 8
f 43/47/61 44/48/62 62/49/63 57/50/64
s 9
f 44/48/65 45/51/66 61/52/67 62/49/68
s 10
f 45/51/69 46/53/70 60/54/71 61/52/72
s 11
f 46/53/73 47/55/74 59/56/75 60/54/76
s 12
f 47/55/77 48/57/78 58/58/79 59/56/80
s 13
f 48/57/81 43/59/82 57/60/83 58/58/84
s 14
f 44/61/85 43/62/86 55/63/87
f 45/64/88 44/61/85 55/63/87
f 46/65/89 45/64/88 55/63/87
f 47/66/90 46/65/89 55/63/87
f 48/67/91 47/66/90 55/63/87
f 43/62/86 48/67/91 55/63/87
s 15
f 49/68/92 50/69/93 56/70/94
f 50/69/93 51/71/95 56/70/94
f 51/71/95 52/72/96 56/70/94
f 52/72/96 53/73/97 56/70/94
f 53/73/97 54/74/98 56/70/94
f 54/74/98 49/68/92 56/70/94
s 13
f 58/58/84 57/60/83 49/75/99 54/76/100
s 12
f 59/56/80 58/58/79 54/76/101 53/77/102
s 11
f 60/54/76 59/56/75 53/77/103 52/78/104
s 10
f 61/52/72 60/54/71 52/78/105 51/79/106
s 9
f 62/49/68 61/52/67 51/79/107 50/80/108
s 8
f 57/50/64 62/49/63 50/80/109 49/81/110
s 16
f 63/82/111 64/83/112 69/84/113
f 64/83/112 65/85/114 69/84/113
f 65/85/114 66/86/115 69/84/113
f 66/86/115 67/87/116 69/84/113
f 67/87/116 68/88/117 69/84/113
f 68/88/117 63/82/111 69/84/113
s 17
f 71/89/118 70/90/119 76/91/120 77/92/121
s 18
f 72/93/122 71/89/123 77/92/124 78/94/125
s 19
f 73/95/126 72/93/127 78/94/128 79/96/129
s 20
f 74/97/130 73/95/131 79/96/132 80/98/133
s 21
f 75/99/134 74/97/135 80/98/136 81/100/137
s 22
f 70/101/138 75/99/139 81/100/140 76/102/141
s 17
f 77/92/121 76/91/120 63/103/142 68/104/143
s 18
f 78/94/125 77/92/124 68/104/144 67/105/145
s 19
f 79/96/129 78/94/128 67/105/146 66/106/147
s 20
f 80/98/133 79/96/132 66/106/148 65/107/149
s 21
f 81/100/137 80/98/136 65/107/150 64/108/151
s 22
f 76/102/141 81/100/140 64/108/152 63/109/153
s 23
f 82/110/154 83/111/155 119/112/156 114/113/157
s 24
f 83/111/158 84/114/159 118/115/160 119/112/161
s 25
f 84/114/162 85/116/163 117/117/164 118/115/165
s 26
f 85/116/166 86/118/167 116/119/168 117/117/169
s 27
f 86/118/170 87/120/171 115/121/172 116/119/173
s 28
f 87/120/174 82/122/175 114/123/176 115/121/177
s 29
f 83/124/178 82/125/179 94/126/180
f 84/127/181 83/124/178 94/126/180
f 85/128/182 84/127/181 94/126/180
f 86/129/183 85/128/182 94/126/180
f 87/130/184 86/129/183 94/126/180
f 82/125/179 87/130/184 94/126/180
s 30
f 88/131/185 89/132/186 95/133/187
f 89/132/186 90/134/188 95/133/187
f 90/134/188 91/135/189 95/133/187
f 91/135/189 92/136/190 95/133/187
f 92/136/190 93/137/191 95/133/187
f 93/137/191 88/131/185 95/133/187
s 28
f 97/138/192 96/139/193 108/140/194 109/141/195
s 27
f 98/142/196 97/138/197 109/141/198 110/143/199
s 26
f 99/144/200 98/142/201 110/143/202 111/145/203
s 25
f 100/146/204 99/144/205 111/145/206 112/147/207
s 24
f 101/148/208 100/146/209 112/147/210 113/149/211
s 23
f 96/150/212 101/148/213 113/149/214 108/151/215
s 28
f 103/152/216 102/153/217 96/139/193 97/138/192
s 27
f 104/154/218 103/152/219 97/138/197 98/142/196
s 26
f 105/155/220 104/154/221 98/142/201 99/144/200
s 25
f 106/156/222 105/155/223 99/144/205 100/146/204
s 24
f 107/157/224 106/156/225 100/146/209 101/148/208
s 23
f 102/158/226 107/157/227 101/148/213 96/150/212
s 28
f 109/141/195 108/140/194 88/159/228 93/160/229
s 27
f 110/143/199 109/141/198 93/160/230 92/161/231
s 26
f 111/145/203 110/143/202 92/161/232 91/162/233
s 25
f 112/147/207 111/145/206 91/162/234 90/163/235
s 24
f 113/149/211 112/147/210 90/163/236 89/164/237
s 23
f 108/151/215 113/149/214 89/164/238 88/165/239
s 28
f 115/121/177 114/123/176 102/153/217 103/152/216
s 27
f 116/119/173 115/121/172 103/152/219 104/154/218
s 26
f 117/117/169 116/119/168 104/154/221 105/155/220
s 25
f 118/115/165 117/117/164 105/155/223 106/156/222
s 24
f 119/112/161 118/115/160 106/156/225 107/157/224
s 23
f 114/113/157 119/112/156 107/157/227 102/158/226
s 37
f 120/166/240 121/167/241 126/168/242
f 121/167/241 122/169/243 126/168/242
f 122/169/243 123/170/244 126/168/242
f 123/170/244 124/171/245 126/168/242
f 124/171/245 125/172/246 126/168/242
f 125/172/246 120/166/240 126/168/242
s 38
f 128/173/247 127/174/248 120/175/249 125/176/250
s 39
f 129/177/251 128/173/252 125/176/253 124/178/254
s 40
f 130/179/255 129/177/256 124/178/257 123/180/258
s 41
f 131/181/259 130/179/260 123/180/261 122/182/262
s 42
f 132/183/263 131/181/264 122/182/265 121/184/266
s 43
f 127/185/267 132/183/268 121/184/269 120/186/270
s 38
f 134/187/271 133/188/272 127/174/248 128/173/247
s 39
f 135/189/273 134/187/274 128/173/252 129/177/251
s 40
f 136/190/275 135/189/276 129/177/256 130/179/255
s 41
f 137/191/277 136/190/278 130/179/260 131/181/259
s 42
f 138/192/279 137/191/280 131/181/264 132/183/263
s 43
f 133/193/281 138/192/282 132/183/268 127/185/267
s 38
f 140/194/283 139/195/284 133/188/272 134/187/271
s 39
f 141/196/285 140/194/286 134/187/274 135/189/273
s 40
f 142/197/287 141/196/288 135/189/276 136/190/275
s 41
f 143/198/289 142/197/290 136/190/278 137/191/277
s 42
f 144/199/291 143/198/292 137/191/280 138/192/279
s 43
f 139/200/293 144/199/294 138/192/282 133/193/281
s 44
f 145/201/295 146/202/296 151/203/297
f 146/202/296 147/204/298 151/203/297
f 147/204/298 148/205/299 151/203/297
f 148/205/299 149/206/300 151/203/297
f 149/206/300 150/207/301 151/203/297
f 150/207/301 145/201/295 151/203/297
s 45
f 153/208/302 152/209/303 145/210/304 150/211/305
s 46
f 154/212/306 153/208/307 150/211/308 149/213/309
s 47
f 155/214/310 154/212/311 149/213/312 148/215/313
s 48
f 156/216/314 155/214/315 148/215/316 147/217/317
s 49
f 157/218/318 156/216/319 147/217/320 146/219/321
s 50
f 152/220/322 157/218/323 146/219/324 145/221/325
s 45
f 159/222/326 158/223/327 152/209/303 153/208/302
s 46
f 160/224/328 159/222/329 153/208/307 154/212/306
s 47
f 161/225/330 160/224/331 154/212/311 155/214/310
s 48
f 162/226/332 161/225/333 155/214/315 156/216/314
s 49
f 163/227/334 162/226/335 156/216/319 157/218/318
s 50
f 158/228/336 163/227/337 157/218/323 152/220/322
s 45
f 165/229/338 164/230/339 158/223/327 159/222/326
s 46
f 166/231/340 165/229/341 159/222/329 160/224/328
s 47
f 167/232/342 166/231/343 160/224/331 161/225/330
s 48
f 168/233/344 167/232/345 161/225/333 162/226/332
s 49
f 169/234/346 168/233/347 162/226/335 163/227/334
s 50
f 164/235/348 169/234/349 163/227/337 158/228/336
s 51
f 170/236/350 171/237/351 189/238/352 184/239/353
s 52
f 171/237/354 172/240/355 188/241/356 189/238/357
s 53
f 172/240/358 173/242/359 187/243/360 188/241/361
s 54
f 173/242/362 174/244/363 186/245/364 187/243/365
s 55
f 174/244/366 175/246/367 185/247/368 186/245/369
s 56
f 175/246/370 170/248/371 184/249/372 185/247/373
s 57
f 171/250/374 170/251/375 182/252/376
f 172/253/377 171/250/374 182/252/376
f 173/254/378 172/253/377 182/252/376
f 174/255/379 173/254/378 182/252/376
f 175/256/380 174/255/379 182/252/376
f 170/251/375 175/256/380 182/252/376
s 58
f 176/257/381 177/258/382 183/259/383
f 177/258/382 178/260/384 183/259/383
f 178/260/384 179/261/385 183/259/383
f 179/261/385 180/262/386 183/259/383
f 180/262/386 181/263/387 183/259/383
f 181/263/387 176/257/381 183/259/383
s 56
f 185/247/373 184/249/372 176/264/388 181/265/389
s 55
f 186/245/369 185/247/368 181/265/390 180/266/391
s 54
f 187/243/365 186/245/364 180/266/392 179/267/393
s 53
f 188/241/361 187/243/360 179/267/394 178/268/395
s 52
f 189/238/357 188/241/356 178/268/396 177/269/397
s 51
f 184/239/353 189/238/352 177/269/398 176/270/399
s 59
f 190/271/400 191/272/401 227/273/402 222/274/403
s 60
f 191/272/404 192/275/405 226/276/406 227/273/407
s 61
f 192/275/408 193/277/409 225/278/410 226/276/411
s 62
f 193/277/412 194/279/413 224/280/414 225/278/415
s 63
f 194/279/416 195/281/417 223/282/418 224/280/419
s 64
f 195/281/420 190/283/421 222/284/422 223/282/423
s 65
f 191/285/424 190/286/425 202/287/426
f 192/288/427 191/285/424 202/287/426
f 193/289/428 192/288/427 202/287/426
f 194/290/429 193/289/428 202/287/426
f 195/291/430 194/290/429 202/287/426
f 190/286/425 195/291/430 202/287/426
s 66
f 196/292/431 197/293/432 203/294/433
f 197/293/432 198/295/434 203/294/433
f 198/295/434 199/296/435 203/294/433
f 199/296/435 200/297/436 203/294/433
f 200/297/436 201/298/437 203/294/433
f 201/298/437 196/292/431 203/294/433
s 64
f 205/299/438 204/300/439 216/301/440 217/302/441
s 63
f 206/303/442 205/299/443 217/302/444 218/304/445
s 62
f 207/305/446 206/303/447 218/304/448 219/306/449
s 61
f 208/307/450 207/305/451 219/306/452 220/308/453
s 60
f 209/309/454 208/307/455 220/308/456 221/310/457
s 59
f 204/311/458 209/309/459 221/310/460 216/312/461
s 64
f 211/313/462 210/314/463 204/300/439 205/299/438
s 63
f 212/315/464 211/313/465 205/299/443 206/303/442
s 62
f 213/316/466 212/315/467 206/303/447 207/305/446
s 61
f 214/317/468 213/316/469 207/305/451 208/307/450
s 60
f 215/318/470 214/317/471 208/307/455 209/309/454
s 59
f 210/319/472 215/318/473 209/309/459 204/311/458
s 64
f 217/302/441 216/301/440 196/320/474 201/321/475
s 63
f 218/304/445 217/302/444 201/321/476 200/322/477
s 62
f 219/306/449 218/304/448 200/322/478 199/323/479
s 61
f 220/308/453 219/306/452 199/323/480 198/324/481
s 60
f 221/310/457 220/308/456 198/324/482 197/325/483
s 59
f 216/312/461 221/310/460 197/325/484 196/326/485
s 64
f 223/282/423 222/284/422 210/314/463 211/313/462
s 63
f 224/280/419 223/282/418 211/313/465 212/315/464
s 62
f 225/278/415 224/280/414 212/315/467 213/316/466
s 61
f 226/276/411 225/278/410 213/316/469 214/317/468
s 60
f 227/273/407 226/276/406 214/317/471 215/318/470
s 59
f 222/274/403 227/273/402 215/318/473 210/319/472
s 73
f 232/327/486 233/328/487 245/329/488 246/330/489
s 74
f 237/331/490 242/332/491 254/333/492 255/334/493
s 75
f 238/335/494 250/336/495 251/337/496 230/338/497
s 76
f 235/339/498 244/340/499 436/669/500 437/670/501
s 77
f 246/330/502 459/695/503 460/696/504 232/327/505
f 247/341/506 426/657/507 427/658/508 234/342/509
s 76
f 231/344/510 243/345/511 431/663/512 432/664/513
s 74
f 252/346/514 253/347/515 242/332/491 237/331/490
s 75
f 248/348/516 249/349/517 240/350/518 228/351/519
f 16/352/520 40/353/521 441/674/522 442/675/523
f 438/671/524 439/672/525 39/354/526 14/355/527
s 74
f 452/687/528 453/688/529 33/356/530 12/357/531
f 34/358/532 451/686/533 452/687/528 12/357/531
s 76
f 430/662/534 449/683/535 450/684/536 11/359/537
f 435/668/538 447/681/539 448/682/540 20/360/541
s 73
f 445/679/542 446/680/543 19/361/544 18/362/545
s 77
f 18/362/546 457/693/547 458/694/548 445/679/549
f 17/363/550 425/656/551 443/677/552 444/678/553
s 75
f 239/365/554 249/349/517 248/348/516 236/366/555
f 15/367/556 39/354/526 439/672/525 440/673/557
f 440/673/557 441/674/522 40/353/521 15/367/556
f 251/337/496 250/336/495 239/365/554 236/366/555
s 74
f 229/368/558 241/369/559 253/347/515 252/346/514
f 33/356/530 453/688/529 454/689/560 13/370/561
f 450/685/562 451/686/533 34/358/532 11/372/563
f 255/334/493 254/333/492 243/371/564 231/697/565
s 86
f 256/373/566 257/374/567 275/375/568 270/376/569
s 87
f 257/374/570 258/377/571 274/378/572 275/375/573
s 88
f 258/377/574 259/379/575 273/380/576 274/378/577
s 89
f 259/379/578 260/381/579 272/382/580 273/380/581
s 90
f 260/381/582 261/383/583 271/384/584 272/382/585
s 91
f 261/383/586 256/385/587 270/386/588 271/384/589
s 92
f 257/387/590 256/388/591 268/389/592
f 258/390/593 257/387/590 268/389/592
f 259/391/594 258/390/593 268/389/592
f 260/392/595 259/391/594 268/389/592
f 261/393/596 260/392/595 268/389/592
f 256/388/591 261/393/596 268/389/592
s 93
f 262/394/597 263/395/598 269/396/599
f 263/395/598 264/397/600 269/396/599
f 264/397/600 265/398/601 269/396/599
f 265/398/601 266/399/602 269/396/599
f 266/399/602 267/400/603 269/396/599
f 267/400/603 262/394/597 269/396/599
s 91
f 271/384/589 270/386/588 262/401/604 267/402/605
s 90
f 272/382/585 271/384/584 267/402/606 266/403/607
s 89
f 273/380/581 272/382/580 266/403/608 265/404/609
s 88
f 274/378/577 273/380/576 265/404/610 264/405/611
s 87
f 275/375/573 274/378/572 264/405/612 263/406/613
s 86
f 270/376/569 275/375/568 263/406/614 262/407/615
s 94
f 276/408/616 277/409/617 282/410/618
f 277/409/617 278/411/619 282/410/618
f 278/411/619 279/412/620 282/410/618
f 279/412/620 280/413/621 282/410/618
f 280/413/621 281/414/622 282/410/618
f 281/414/622 276/408/616 282/410/618
s 95
f 74/415/623 75/416/624 283/417/625 284/418/626
s 96
f 73/419/627 74/415/628 284/418/629 285/420/630
s 97
f 72/421/631 73/419/632 285/420/633 286/422/634
s 98
f 71/423/635 72/421/636 286/422/637 287/424/638
s 99
f 70/425/639 71/423/640 287/424/641 288/426/642
s 100
f 75/427/643 70/425/644 288/426/645 283/428/646
s 95
f 284/418/626 283/417/625 276/429/647 281/430/648
s 96
f 285/420/630 284/418/629 281/430/649 280/431/650
s 97
f 286/422/634 285/420/633 280/431/651 279/432/652
s 98
f 287/424/638 286/422/637 279/432/653 278/433/654
s 99
f 288/426/642 287/424/641 278/433/655 277/434/656
s 100
f 283/428/646 288/426/645 277/434/657 276/435/658
s 101
f 289/436/659 290/437/660 326/438/661 321/439/662
s 102
f 290/437/663 291/440/664 325/441/665 326/438/666
s 103
f 291/440/667 292/442/668 324/443/669 325/441/670
s 104
f 292/442/671 293/444/672 323/445/673 324/443/674
s 105
f 293/444/675 294/446/676 322/447/677 323/445/678
s 106
f 294/446/679 289/448/680 321/449/681 322/447/682
s 107
f 290/450/683 289/451/684 301/452/685
f 291/453/686 290/450/683 301/452/685
f 292/454/687 291/453/686 301/452/685
f 293/455/688 292/454/687 301/452/685
f 294/456/689 293/455/688 301/452/685
f 289/451/684 294/456/689 301/452/685
s 108
f 295/457/690 296/458/691 302/459/692
f 296/458/691 297/460/693 302/459/692
f 297/460/693 298/461/694 302/459/692
f 298/461/694 299/462/695 302/459/692
f 299/462/695 300/463/696 302/459/692
f 300/463/696 295/457/690 302/459/692
s 106
f 304/464/697 303/465/698 315/466/699 316/467/700
s 105
f 305/468/701 304/464/702 316/467/703 317/469/704
s 104
f 306/470/705 305/468/706 317/469/707 318/471/708
s 103
f 307/472/709 306/470/710 318/471/711 319/473/712
s 102
f 308/474/713 307/472/714 319/473/715 320/475/716
s 101
f 303/476/717 308/474/718 320/475/719 315/477/720
s 106
f 310/478/721 309/479/722 303/465/698 304/464/697
s 105
f 311/480/723 310/478/724 304/464/702 305/468/701
s 104
f 312/481/725 311/480/726 305/468/706 306/470/705
s 103
f 313/482/727 312/481/728 306/470/710 307/472/709
s 102
f 314/483/729 313/482/730 307/472/714 308/474/713
s 101
f 309/484/731 314/483/732 308/474/718 303/476/717
s 106
f 316/467/700 315/466/699 295/485/733 300/486/734
s 105
f 317/469/704 316/467/703 300/486/735 299/487/736
s 104
f 318/471/708 317/469/707 299/487/737 298/488/738
s 103
f 319/473/712 318/471/711 298/488/739 297/489/740
s 102
f 320/475/716 319/473/715 297/489/741 296/490/742
s 101
f 315/477/720 320/475/719 296/490/743 295/491/744
s 106
f 322/447/682 321/449/681 309/479/722 310/478/721
s 105
f 323/445/678 322/447/677 310/478/724 311/480/723
s 104
f 324/443/674 323/445/673 311/480/726 312/481/725
s 103
f 325/441/670 324/443/669 312/481/728 313/482/727
s 102
f 326/438/666 325/441/665 313/482/730 314/483/729
s 101
f 321/439/662 326/438/661 314/483/732 309/484/731
s 115
f 327/492/745 328/493/746 333/494/747
f 328/493/746 329/495/748 333/494/747
f 329/495/748 330/496/749 333/494/747
f 330/496/749 331/497/750 333/494/747
f 331/497/750 332/498/751 333/494/747
f 332/498/751 327/492/745 333/494/747
s 116
f 335/499/752 334/500/753 327/501/754 332/502/755
s 117
f 336/503/756 335/499/757 332/502/758 331/504/759
s 118
f 337/505/760 336/503/761 331/504/762 330/506/763
s 119
f 338/507/764 337/505/765 330/506/766 329/508/767
s 120
f 339/509/768 338/507/769 329/508/770 328/510/771
s 121
f 334/511/772 339/509/773 328/510/774 327/512/775
s 116
f 341/513/776 340/514/777 334/500/753 335/499/752
s 117
f 342/515/778 341/513/779 335/499/757 336/503/756
s 118
f 343/516/780 342/515/781 336/503/761 337/505/760
s 119
f 344/517/782 343/516/783 337/505/765 338/507/764
s 120
f 345/518/784 344/517/785 338/507/769 339/509/768
s 121
f 340/519/786 345/518/787 339/509/773 334/511/772
s 116
f 168/520/788 169/521/789 340/514/777 341/513/776
s 117
f 167/522/790 168/520/791 341/513/779 342/515/778
s 118
f 166/523/792 167/522/793 342/515/781 343/516/780
s 119
f 165/524/794 166/523/795 343/516/783 344/517/782
s 120
f 164/525/796 165/524/797 344/517/785 345/518/784
s 121
f 169/526/798 164/525/799 345/518/787 340/519/786
s 122
f 346/527/800 347/528/801 352/529/802
f 347/528/801 348/530/803 352/529/802
f 348/530/803 349/531/804 352/529/802
f 349/531/804 350/532/805 352/529/802
f 350/532/805 351/533/806 352/529/802
f 351/533/806 346/527/800 352/529/802
s 123
f 354/534/807 353/535/808 346/536/809 351/537/810
s 124
f 355/538/811 354/534/812 351/537/813 350/539/814
s 125
f 356/540/815 355/538/816 350/539/817 349/541/818
s 126
f 357/542/819 356/540/820 349/541/821 348/543/822
s 127
f 358/544/823 357/542/824 348/543/825 347/545/826
s 128
f 353/546/827 358/544/828 347/545/829 346/547/830
s 123
f 360/548/831 359/549/832 353/535/808 354/534/807
s 124
f 361/550/833 360/548/834 354/534/812 355/538/811
s 125
f 362/551/835 361/550/836 355/538/816 356/540/815
s 126
f 363/552/837 362/551/838 356/540/820 357/542/819
s 127
f 364/553/839 363/552/840 357/542/824 358/544/823
s 128
f 359/554/841 364/553/842 358/544/828 353/546/827
s 123
f 143/555/843 144/556/844 359/549/832 360/548/831
s 124
f 142/557/845 143/555/846 360/548/834 361/550/833
s 125
f 141/558/847 142/557/848 361/550/836 362/551/835
s 126
f 140/559/849 141/558/850 362/551/838 363/552/837
s 127
f 139/560/851 140/559/852 363/552/840 364/553/839
s 128
f 144/561/853 139/560/854 364/553/842 359/554/841
s 129
f 365/562/855 366/563/856 384/564/857 379/565/858
s 130
f 366/563/859 367/566/860 383/567/861 384/564/862
s 131
f 367/566/863 368/568/864 382/569/865 383/567/866
s 132
f 368/568/867 369/570/868 381/571/869 382/569/870
s 133
f 369/570/871 370/572/872 380/573/873 381/571/874
s 134
f 370/572/875 365/574/876 379/575/877 380/573/878
s 135
f 366/576/879 365/577/880 377/578/881
f 367/579/882 366/576/879 377/578/881
f 368/580/883 367/579/882 377/578/881
f 369/581/884 368/580/883 377/578/881
f 370/582/885 369/581/884 377/578/881
f 365/577/880 370/582/885 377/578/881
s 136
f 371/583/886 372/584/887 378/585/888
f 372/584/887 373/586/889 378/585/888
f 373/586/889 374/587/890 378/585/888
f 374/587/890 375/588/891 378/585/888
f 375/588/891 376/589/892 378/585/888
f 376/589/892 371/583/886 378/585/888
s 134
f 380/573/878 379/575/877 371/590/893 376/591/894
s 133
f 381/571/874 380/573/873 376/591/895 375/592/896
s 132
f 382/569/870 381/571/869 375/592/897 374/593/898
s 131
f 383/567/866 382/569/865 374/593/899 373/594/900
s 130
f 384/564/862 383/567/861 373/594/901 372/595/902
s 129
f 379/565/858 384/564/857 372/595/903 371/596/904
s 137
f 385/597/905 386/598/906 422/599/907 417/600/908
s 138
f 386/598/909 387/601/910 421/602/911 422/599/912
s 139
f 387/601/913 388/603/914 420/604/915 421/602/916
s 140
f 388/603/917 389/605/918 419/606/919 420/604/920
s 141
f 389/605/921 390/607/922 418/608/923 419/606/924
s 142
f 390/607/925 385/609/926 417/610/927 418/608/928
s 143
f 386/611/929 385/612/930 397/613/931
f 387/614/932 386/611/929 397/613/931
f 388/615/933 387/614/932 397/613/931
f 389/616/934 388/615/933 397/613/931
f 390/617/935 389/616/934 397/613/931
f 385/612/930 390/617/935 397/613/931
s 144
f 391/618/936 392/619/937 398/620/938
f 392/619/937 393/621/939 398/620/938
f 393/621/939 394/622/940 398/620/938
f 394/622/940 395/623/941 398/620/938
f 395/623/941 396/624/942 398/620/938
f 396/624/942 391/618/936 398/620/938
s 142
f 400/625/943 399/626/944 411/627/945 412/628/946
s 141
f 401/629/947 400/625/948 412/628/949 413/630/950
s 140
f 402/631/951 401/629/952 413/630/953 414/632/954
s 139
f 403/633/955 402/631/956 414/632/957 415/634/958
s 138
f 404/635/959 403/633/960 415/634/961 416/636/962
s 137
f 399/637/963 404/635/964 416/636/965 411/638/966
s 142
f 406/639/967 405/640/968 399/626/944 400/625/943
s 141
f 407/641/969 406/639/970 400/625/948 401/629/947
s 140
f 408/642/971 407/641/972 401/629/952 402/631/951
s 139
f 409/643/973 408/642/974 402/631/956 403/633/955
s 138
f 410/644/975 409/643/976 403/633/960 404/635/959
s 137
f 405/645/977 410/644/978 404/635/964 399/637/963
s 142
f 412/628/946 411/627/945 391/646/979 396/647/980
s 141
f 413/630/950 412/628/949 396/647/981 395/648/982
s 140
f 414/632/954 413/630/953 395/648/983 394/649/984
s 139
f 415/634/958 414/632/957 394/649/985 393/650/986
s 138
f 416/636/962 415/634/961 393/650/987 392/651/988
s 137
f 411/638/966 416/636/965 392/651/989 391/652/990
s 142
f 418/608/928 417/610/927 405/640/968 406/639/967
s 141
f 419/606/924 418/608/923 406/639/970 407/641/969
s 140
f 420/604/920 419/606/919 407/641/972 408/642/971
s 139
f 421/602/916 420/604/915 408/642/974 409/643/973
s 138
f 422/599/912 421/602/911 409/643/976 410/644/975
s 137
f 417/600/908 422/599/907 410/644/978 405/645/977
s 4
f 4/4/991 26/29/992 424/654/26 423/653/25
f 425/655/42 424/654/26 26/29/992 16/17/993
s 77
f 442/676/994 443/677/552 425/656/551 16/364/995
f 427/658/508 426/657/507 238/343/996 230/698/997
s 5
f 30/34/19 429/660/22 428/659/21 7/7/20
f 20/22/49 430/661/50 429/660/22 30/34/19
s 76
f 448/682/540 449/683/535 430/662/534 20/360/541
f 432/664/513 431/663/512 244/340/499 235/339/498
s 5
f 29/33/998 434/666/18 433/665/17 5/5/999
f 19/21/1000 435/667/48 434/666/18 29/33/998
s 76
f 446/680/1001 447/681/539 435/668/538 19/361/1002
f 437/670/501 436/669/500 245/329/1003 233/328/1004
s 75
f 249/349/517 439/672/525 438/671/524 240/350/518
f 440/673/557 439/672/525 249/349/517 239/365/554
f 250/336/495 441/674/522 440/673/557 239/365/554
f 442/675/523 441/674/522 250/336/495 238/335/494
s 77
f 426/657/507 443/677/552 442/676/994 238/343/996
f 444/678/553 443/677/552 426/657/507 247/341/506
f 445/679/549 458/694/548 459/695/503 246/330/502
s 73
f 246/330/489 245/329/488 446/680/543 445/679/542
s 76
f 245/329/1003 436/669/500 447/681/539 446/680/1001
f 448/682/540 447/681/539 436/669/500 244/340/499
f 244/340/499 431/663/512 449/683/535 448/682/540
f 450/684/536 449/683/535 431/663/512 243/345/511
s 74
f 243/371/564 254/333/492 451/686/533 450/685/562
f 452/687/528 451/686/533 254/333/492 242/332/491
f 242/332/491 253/347/515 453/688/529 452/687/528
f 454/689/560 453/688/529 253/347/515 241/369/559
s 4
f 8/8/28 27/31/27 456/691/14 455/690/13
f 457/692/44 456/691/14 27/31/27 17/19/43
s 77
f 458/694/548 457/693/547 17/363/550 444/678/553
f 459/695/503 458/694/548 444/678/553 247/341/506
f 460/696/504 459/695/503 247/341/506 234/342/509
