# This file uses centimeters as units for non-parametric coordinates.

mtllib SeedV1.mtl
g default
v 0.076053 0.132771 -0.413334
v 0.067269 0.147964 -0.408948
v 0.053545 0.160048 -0.402196
v 0.036176 0.167823 -0.393852
v 0.016808 0.170506 -0.384843
v -0.002680 0.167823 -0.376098
v -0.020356 0.160048 -0.368427
v -0.034444 0.147964 -0.362471
v -0.043509 0.132771 -0.358701
v -0.046637 0.115952 -0.357410
v -0.043509 0.099134 -0.358701
v -0.034444 0.083941 -0.362471
v -0.020356 0.071857 -0.368427
v -0.002680 0.064081 -0.376098
v 0.016808 0.061399 -0.384843
v 0.036176 0.064081 -0.393852
v 0.053545 0.071857 -0.402196
v 0.067269 0.083941 -0.408948
v 0.076053 0.099134 -0.413334
v 0.079076 0.115952 -0.414854
v 0.122478 0.142684 -0.395102
v 0.108786 0.166798 -0.388846
v 0.087512 0.185936 -0.379125
v 0.060773 0.198223 -0.366907
v 0.031183 0.202457 -0.353386
v 0.001592 0.198223 -0.339864
v -0.025147 0.185936 -0.327646
v -0.046421 0.166798 -0.317925
v -0.060112 0.142684 -0.311669
v -0.064838 0.115952 -0.309510
v -0.060112 0.089221 -0.311669
v -0.046421 0.065106 -0.317925
v -0.025147 0.045968 -0.327646
v 0.001592 0.033681 -0.339864
v 0.031183 0.029447 -0.353386
v 0.060773 0.033681 -0.366907
v 0.087512 0.045968 -0.379125
v 0.108786 0.065106 -0.388846
v 0.122478 0.089221 -0.395102
v 0.127203 0.115952 -0.397261
v 0.161026 0.147840 -0.352023
v 0.145061 0.176641 -0.344728
v 0.120195 0.199542 -0.333366
v 0.088860 0.214273 -0.319048
v 0.054125 0.219355 -0.303176
v 0.019390 0.214273 -0.287304
v -0.011944 0.199542 -0.272986
v -0.036810 0.176641 -0.261624
v -0.052775 0.147839 -0.254329
v -0.058276 0.115952 -0.251816
v -0.052775 0.084065 -0.254329
v -0.036810 0.055264 -0.261624
v -0.011944 0.032363 -0.272986
v 0.019390 0.017631 -0.287304
v 0.054125 0.012549 -0.303176
v 0.088860 0.017631 -0.319048
v 0.120195 0.032363 -0.333366
v 0.145061 0.055264 -0.344728
v 0.161026 0.084065 -0.352023
v 0.166526 0.115952 -0.354537
v 0.179737 0.146651 -0.325811
v 0.162958 0.174316 -0.318144
v 0.136783 0.196233 -0.306184
v 0.103816 0.210278 -0.291132
v 0.067261 0.215113 -0.274429
v 0.030707 0.210278 -0.257726
v -0.002252 0.196233 -0.242653
v -0.028426 0.174316 -0.230693
v -0.045205 0.146651 -0.223026
v -0.050985 0.115952 -0.220385
v -0.045205 0.085253 -0.223026
v -0.028426 0.057589 -0.230693
v -0.002251 0.035672 -0.242653
v 0.030707 0.021626 -0.257726
v 0.067261 0.016792 -0.274429
v 0.103816 0.021626 -0.291132
v 0.136783 0.035672 -0.306184
v 0.162958 0.057589 -0.318144
v 0.179737 0.085253 -0.325811
v 0.185517 0.115952 -0.328452
v 0.194006 0.148287 -0.258232
v 0.179260 0.177417 -0.251494
v 0.156294 0.200483 -0.241000
v 0.127356 0.215264 -0.227776
v 0.095276 0.220354 -0.213118
v 0.063197 0.215264 -0.198460
v 0.034258 0.200483 -0.185237
v 0.011292 0.177417 -0.174742
v -0.003453 0.148287 -0.168005
v -0.008534 0.115952 -0.165683
v -0.003453 0.083617 -0.168005
v 0.011292 0.054487 -0.174742
v 0.034258 0.031422 -0.185237
v 0.063197 0.016641 -0.198460
v 0.095276 0.011550 -0.213118
v 0.127356 0.016641 -0.227776
v 0.156294 0.031422 -0.241000
v 0.179260 0.054487 -0.251494
v 0.194006 0.083617 -0.258232
v 0.199086 0.115952 -0.260553
v 0.214807 0.151049 -0.230216
v 0.199076 0.182709 -0.223028
v 0.174570 0.207834 -0.211830
v 0.143693 0.223964 -0.197721
v 0.109460 0.229522 -0.182078
v 0.075226 0.223964 -0.166436
v 0.044349 0.207834 -0.152327
v 0.019843 0.182709 -0.141129
v 0.004113 0.151049 -0.133941
v -0.001309 0.115952 -0.131464
v 0.004113 0.080856 -0.133941
v 0.019843 0.049196 -0.141129
v 0.044349 0.024071 -0.152327
v 0.075226 0.007941 -0.166436
v 0.109460 0.002382 -0.182078
v 0.143693 0.007941 -0.197721
v 0.174570 0.024071 -0.211830
v 0.199076 0.049196 -0.223028
v 0.214807 0.080856 -0.230216
v 0.220228 0.115952 -0.232693
v 0.235312 0.150530 -0.202986
v 0.218603 0.181723 -0.195351
v 0.192534 0.206478 -0.183439
v 0.159704 0.222371 -0.168438
v 0.123295 0.227848 -0.151801
v 0.086886 0.222371 -0.135164
v 0.054056 0.206478 -0.120163
v 0.027987 0.181723 -0.108251
v 0.011277 0.150530 -0.100615
v 0.005522 0.115952 -0.097986
v 0.011277 0.081375 -0.100616
v 0.027987 0.050182 -0.108251
v 0.054056 0.025427 -0.120163
v 0.086886 0.009533 -0.135164
v 0.123295 0.004057 -0.151801
v 0.159704 0.009533 -0.168438
v 0.192534 0.025427 -0.183439
v 0.218603 0.050182 -0.195351
v 0.235312 0.081375 -0.202986
v 0.241068 0.115952 -0.205616
v 0.249850 0.141745 -0.114117
v 0.236282 0.165021 -0.107918
v 0.215204 0.183490 -0.098286
v 0.188714 0.195348 -0.086182
v 0.159400 0.199434 -0.072787
v 0.130085 0.195348 -0.059392
v 0.103595 0.183490 -0.047287
v 0.082517 0.165021 -0.037656
v 0.068949 0.141745 -0.031456
v 0.064267 0.115952 -0.029317
v 0.068949 0.090160 -0.031456
v 0.082517 0.066883 -0.037656
v 0.103595 0.048414 -0.047287
v 0.130085 0.036557 -0.059392
v 0.159400 0.032471 -0.072787
v 0.188714 0.036557 -0.086182
v 0.215204 0.048414 -0.098286
v 0.236282 0.066883 -0.107918
v 0.249850 0.090160 -0.114117
v 0.254532 0.115952 -0.116257
v 0.232491 0.132517 -0.069696
v 0.223402 0.147460 -0.066158
v 0.209303 0.159319 -0.060519
v 0.191664 0.166933 -0.053143
v 0.172296 0.169557 -0.044563
v 0.153132 0.166933 -0.035536
v 0.136011 0.159319 -0.027029
v 0.122519 0.147460 -0.020060
v 0.113895 0.132517 -0.015504
v 0.110929 0.115952 -0.013922
v 0.113895 0.099388 -0.015504
v 0.122519 0.084444 -0.020060
v 0.136011 0.072585 -0.027029
v 0.153132 0.064971 -0.035536
v 0.172296 0.062348 -0.044563
v 0.191664 0.064971 -0.053143
v 0.209303 0.072585 -0.060519
v 0.223402 0.084444 -0.066158
v 0.232491 0.099388 -0.069696
v 0.235628 0.115952 -0.070902
v 0.008727 0.115952 -0.402530
v 0.179380 0.115952 -0.029059
v -0.079646 0.132771 -0.168448
v -0.089462 0.147964 -0.168634
v -0.104753 0.160048 -0.169012
v -0.124011 0.167823 -0.169671
v -0.145348 0.170506 -0.170666
v -0.166670 0.167823 -0.171950
v -0.185888 0.160048 -0.173347
v -0.201132 0.147964 -0.174600
v -0.210912 0.132771 -0.175462
v -0.214281 0.115952 -0.175768
v -0.210912 0.099134 -0.175462
v -0.201132 0.083941 -0.174600
v -0.185888 0.071857 -0.173347
v -0.166670 0.064081 -0.171950
v -0.145348 0.061399 -0.170666
v -0.124011 0.064081 -0.169671
v -0.104753 0.071857 -0.169012
v -0.089462 0.083941 -0.168634
v -0.079646 0.099134 -0.168448
v -0.076263 0.115952 -0.168394
v -0.046962 0.142684 -0.130774
v -0.061994 0.166798 -0.131577
v -0.085350 0.185936 -0.132825
v -0.114706 0.198223 -0.134393
v -0.147193 0.202457 -0.136129
v -0.179681 0.198223 -0.137865
v -0.209037 0.185936 -0.139433
v -0.232393 0.166798 -0.140681
v -0.247425 0.142684 -0.141485
v -0.252613 0.115952 -0.141762
v -0.247425 0.089221 -0.141485
v -0.232393 0.065106 -0.140681
v -0.209036 0.045968 -0.139433
v -0.179680 0.033681 -0.137865
v -0.147193 0.029447 -0.136129
v -0.114706 0.033681 -0.134393
v -0.085350 0.045968 -0.132825
v -0.061994 0.065106 -0.131577
v -0.046962 0.089221 -0.130774
v -0.041774 0.115952 -0.130497
v -0.032774 0.147840 -0.074734
v -0.050301 0.176641 -0.075671
v -0.077602 0.199542 -0.077129
v -0.112003 0.214273 -0.078967
v -0.150139 0.219355 -0.081005
v -0.188274 0.214273 -0.083043
v -0.222675 0.199542 -0.084881
v -0.249976 0.176641 -0.086339
v -0.267503 0.147839 -0.087276
v -0.273542 0.115952 -0.087599
v -0.267503 0.084065 -0.087276
v -0.249976 0.055264 -0.086339
v -0.222675 0.032363 -0.084881
v -0.188274 0.017631 -0.083043
v -0.150138 0.012549 -0.081005
v -0.112003 0.017631 -0.078967
v -0.077602 0.032363 -0.077129
v -0.050301 0.055264 -0.075671
v -0.032774 0.084065 -0.074734
v -0.026735 0.115952 -0.074412
v -0.028345 0.146651 -0.042834
v -0.046766 0.174316 -0.043819
v -0.075503 0.196233 -0.045354
v -0.111692 0.210278 -0.047299
v -0.151825 0.215113 -0.049444
v -0.191958 0.210278 -0.051588
v -0.228148 0.196233 -0.053510
v -0.256885 0.174316 -0.055045
v -0.275306 0.146651 -0.056030
v -0.281651 0.115952 -0.056369
v -0.275306 0.085253 -0.056030
v -0.256885 0.057589 -0.055045
v -0.228148 0.035672 -0.053510
v -0.191958 0.021626 -0.051588
v -0.151825 0.016792 -0.049444
v -0.111692 0.021626 -0.047299
v -0.075503 0.035672 -0.045354
v -0.046766 0.057589 -0.043819
v -0.028345 0.085253 -0.042834
v -0.022000 0.115952 -0.042495
v -0.047028 0.148287 0.023660
v -0.063216 0.177417 0.022795
v -0.088430 0.200483 0.021448
v -0.120202 0.215264 0.019750
v -0.155421 0.220354 0.017868
v -0.190640 0.215264 0.015987
v -0.222412 0.200483 0.014289
v -0.247626 0.177417 0.012942
v -0.263815 0.148287 0.012077
v -0.269393 0.115952 0.011779
v -0.263815 0.083617 0.012077
v -0.247626 0.054487 0.012942
v -0.222412 0.031422 0.014289
v -0.190640 0.016641 0.015987
v -0.155421 0.011550 0.017868
v -0.120202 0.016641 0.019750
v -0.088431 0.031422 0.021448
v -0.063216 0.054487 0.022795
v -0.047028 0.083617 0.023660
v -0.041450 0.115952 0.023958
v -0.041583 0.151049 0.058126
v -0.058853 0.182709 0.057203
v -0.085758 0.207834 0.055766
v -0.119658 0.223964 0.053955
v -0.157242 0.229522 0.051946
v -0.194826 0.223964 0.049938
v -0.228726 0.207834 0.048127
v -0.255631 0.182709 0.046690
v -0.272901 0.151049 0.045767
v -0.278853 0.115952 0.045449
v -0.272901 0.080856 0.045767
v -0.255631 0.049196 0.046690
v -0.228726 0.024071 0.048127
v -0.194826 0.007941 0.049938
v -0.157242 0.002382 0.051946
v -0.119658 0.007941 0.053955
v -0.085758 0.024071 0.055766
v -0.058853 0.049196 0.057203
v -0.041583 0.080856 0.058126
v -0.035631 0.115952 0.058444
v -0.036036 0.150530 0.091759
v -0.054381 0.181723 0.090779
v -0.083001 0.206478 0.089249
v -0.119045 0.222371 0.087324
v -0.159018 0.227848 0.085188
v -0.198991 0.222371 0.083052
v -0.235035 0.206478 0.081126
v -0.263655 0.181723 0.079597
v -0.282001 0.150530 0.078617
v -0.288319 0.115952 0.078279
v -0.282001 0.081375 0.078617
v -0.263655 0.050182 0.079597
v -0.235035 0.025427 0.081126
v -0.198991 0.009533 0.083052
v -0.159018 0.004057 0.085188
v -0.119045 0.009533 0.087324
v -0.083001 0.025427 0.089249
v -0.054381 0.050182 0.090779
v -0.036036 0.081375 0.091759
v -0.029717 0.115952 0.092096
v -0.064349 0.141745 0.177242
v -0.079245 0.165021 0.176446
v -0.102386 0.183490 0.175210
v -0.131469 0.195348 0.173656
v -0.163653 0.199434 0.171936
v -0.195837 0.195348 0.170217
v -0.224920 0.183490 0.168663
v -0.248062 0.165021 0.167426
v -0.262957 0.141745 0.166630
v -0.268098 0.115952 0.166356
v -0.262957 0.090160 0.166630
v -0.248062 0.066883 0.167426
v -0.224920 0.048414 0.168663
v -0.195837 0.036557 0.170217
v -0.163653 0.032471 0.171936
v -0.131469 0.036557 0.173656
v -0.102386 0.048414 0.175210
v -0.079245 0.066883 0.176446
v -0.064349 0.090160 0.177242
v -0.059209 0.115952 0.177517
v -0.100322 0.132517 0.208556
v -0.110015 0.147460 0.207478
v -0.125122 0.159319 0.205939
v -0.144170 0.166933 0.204298
v -0.165309 0.169557 0.202923
v -0.186474 0.166933 0.202038
v -0.205588 0.159319 0.201640
v -0.220774 0.147460 0.201560
v -0.230526 0.132517 0.201599
v -0.233888 0.115952 0.201627
v -0.230526 0.099388 0.201599
v -0.220774 0.084444 0.201560
v -0.205588 0.072585 0.201640
v -0.186474 0.064971 0.202038
v -0.165309 0.062348 0.202923
v -0.144170 0.064971 0.204298
v -0.125122 0.072585 0.205939
v -0.110015 0.084444 0.207478
v -0.100322 0.099388 0.208556
v -0.096982 0.115952 0.208942
v -0.144310 0.115952 -0.190084
v -0.166218 0.115952 0.219944
v 0.266652 0.132771 0.091858
v 0.257994 0.147964 0.087228
v 0.244548 0.160048 0.079938
v 0.227696 0.167823 0.070593
v 0.209145 0.170506 0.060004
v 0.190740 0.167823 0.049163
v 0.174259 0.160048 0.039179
v 0.161253 0.147964 0.031131
v 0.152934 0.132771 0.025916
v 0.150073 0.115952 0.024111
v 0.152934 0.099134 0.025916
v 0.161253 0.083941 0.031131
v 0.174259 0.071857 0.039179
v 0.190740 0.064081 0.049163
v 0.209145 0.061399 0.060004
v 0.227696 0.064081 0.070593
v 0.244548 0.071857 0.079938
v 0.257994 0.083941 0.087228
v 0.266652 0.099134 0.091858
v 0.269640 0.115952 0.093444
v 0.278628 0.142684 0.140275
v 0.265605 0.166798 0.132723
v 0.245372 0.185936 0.120990
v 0.219940 0.198223 0.106243
v 0.191796 0.202457 0.089923
v 0.163652 0.198223 0.073603
v 0.138220 0.185936 0.058856
v 0.117987 0.166798 0.047123
v 0.104964 0.142684 0.039572
v 0.100470 0.115952 0.036965
v 0.104964 0.089221 0.039572
v 0.117987 0.065106 0.047123
v 0.138220 0.045968 0.058856
v 0.163652 0.033681 0.073603
v 0.191796 0.029447 0.089923
v 0.219940 0.033681 0.106243
v 0.245372 0.045968 0.120990
v 0.265605 0.065106 0.132723
v 0.278628 0.089221 0.140275
v 0.283122 0.115952 0.142881
v 0.265778 0.147840 0.196636
v 0.250594 0.176641 0.187831
v 0.226944 0.199542 0.174117
v 0.197141 0.214273 0.156835
v 0.164104 0.219355 0.137678
v 0.131067 0.214273 0.118520
v 0.101265 0.199542 0.101239
v 0.077614 0.176641 0.087524
v 0.062430 0.147839 0.078719
v 0.057198 0.115952 0.075686
v 0.062430 0.084065 0.078719
v 0.077614 0.055264 0.087524
v 0.101265 0.032363 0.101239
v 0.131067 0.017631 0.118520
v 0.164104 0.012549 0.137678
v 0.197141 0.017631 0.156835
v 0.226944 0.032363 0.174117
v 0.250594 0.055264 0.187831
v 0.265778 0.084065 0.196636
v 0.271010 0.115952 0.199670
v 0.255216 0.146651 0.227061
v 0.239258 0.174316 0.217807
v 0.214362 0.196233 0.203371
v 0.183017 0.210278 0.185181
v 0.148249 0.215113 0.165020
v 0.113482 0.210278 0.144859
v 0.082125 0.196233 0.126689
v 0.057229 0.174316 0.112253
v 0.041271 0.146651 0.102999
v 0.035774 0.115952 0.099811
v 0.041271 0.085253 0.102999
v 0.057229 0.057589 0.112253
v 0.082125 0.035672 0.126689
v 0.113482 0.021626 0.144859
v 0.148249 0.016792 0.165020
v 0.183017 0.021626 0.185181
v 0.214362 0.035672 0.203370
v 0.239258 0.057589 0.217807
v 0.255216 0.085253 0.227061
v 0.260713 0.115952 0.230248
v 0.208337 0.148287 0.277785
v 0.194313 0.177417 0.269652
v 0.172470 0.200483 0.256986
v 0.144946 0.215264 0.241025
v 0.114435 0.220354 0.223333
v 0.083924 0.215264 0.205641
v 0.056400 0.200483 0.189680
v 0.034557 0.177417 0.177014
v 0.020532 0.148287 0.168881
v 0.015700 0.115952 0.166079
v 0.020532 0.083617 0.168881
v 0.034557 0.054487 0.177014
v 0.056400 0.031422 0.189680
v 0.083924 0.016641 0.205641
v 0.114435 0.011550 0.223333
v 0.144946 0.016641 0.241025
v 0.172470 0.031422 0.256986
v 0.194313 0.054487 0.269652
v 0.208337 0.083617 0.277785
v 0.213170 0.115952 0.280587
v 0.197512 0.151049 0.310957
v 0.182551 0.182709 0.302281
v 0.159243 0.207834 0.288765
v 0.129875 0.223964 0.271736
v 0.097316 0.229522 0.252855
v 0.064756 0.223964 0.233975
v 0.035388 0.207834 0.216945
v 0.012080 0.182709 0.203429
v -0.002881 0.151049 0.194754
v -0.008037 0.115952 0.191764
v -0.002881 0.080856 0.194754
v 0.012080 0.049196 0.203429
v 0.035388 0.024071 0.216945
v 0.064756 0.007941 0.233975
v 0.097316 0.002382 0.252855
v 0.129875 0.007941 0.271736
v 0.159243 0.024071 0.288765
v 0.182551 0.049196 0.302281
v 0.197512 0.080856 0.310957
v 0.202669 0.115952 0.313947
v 0.187158 0.150530 0.343433
v 0.171265 0.181723 0.334217
v 0.146471 0.206478 0.319840
v 0.115246 0.222371 0.301733
v 0.080617 0.227848 0.281653
v 0.045988 0.222371 0.261572
v 0.014762 0.206478 0.243465
v -0.010032 0.181723 0.229088
v -0.025924 0.150530 0.219872
v -0.031398 0.115952 0.216698
v -0.025924 0.081375 0.219872
v -0.010032 0.050182 0.229088
v 0.014762 0.025427 0.243465
v 0.045988 0.009533 0.261572
v 0.080617 0.004057 0.281653
v 0.115246 0.009533 0.301733
v 0.146471 0.025427 0.319840
v 0.171265 0.050182 0.334217
v 0.187158 0.081375 0.343433
v 0.192632 0.115952 0.346607
v 0.123067 0.141745 0.406689
v 0.110163 0.165021 0.399207
v 0.090115 0.183490 0.387581
v 0.064920 0.195348 0.372972
v 0.037038 0.199434 0.356804
v 0.009157 0.195348 0.340636
v -0.016038 0.183490 0.326026
v -0.036086 0.165021 0.314401
v -0.048990 0.141745 0.306918
v -0.053443 0.115952 0.304336
v -0.048990 0.090160 0.306918
v -0.036086 0.066883 0.314401
v -0.016038 0.048414 0.326026
v 0.009157 0.036557 0.340636
v 0.037038 0.032471 0.356804
v 0.064920 0.036557 0.372972
v 0.090115 0.048414 0.387581
v 0.110162 0.066883 0.399207
v 0.123067 0.090160 0.406689
v 0.127520 0.115952 0.409272
v 0.076789 0.132517 0.418219
v 0.068646 0.147460 0.412851
v 0.055891 0.159319 0.404610
v 0.039673 0.166933 0.394486
v 0.021472 0.169557 0.383648
v 0.003025 0.166933 0.373235
v -0.013817 0.159319 0.364187
v -0.027306 0.147460 0.357211
v -0.036009 0.132517 0.352810
v -0.039015 0.115952 0.351306
v -0.036009 0.099388 0.352810
v -0.027306 0.084444 0.357211
v -0.013817 0.072585 0.364187
v 0.003025 0.064971 0.373235
v 0.021472 0.062348 0.383648
v 0.039673 0.064971 0.394486
v 0.055891 0.072585 0.404610
v 0.068646 0.084444 0.412851
v 0.076789 0.099388 0.418219
v 0.079587 0.115952 0.420081
v 0.218900 0.115952 0.043181
v 0.012921 0.115952 0.398394
vt 0.028510 0.500234
vt 0.032923 0.500234
vt 0.037337 0.500234
vt 0.041750 0.500234
vt 0.046164 0.500234
vt 0.050577 0.500234
vt 0.054990 0.500234
vt 0.059404 0.500234
vt 0.063817 0.500234
vt 0.068231 0.500234
vt 0.072644 0.500234
vt 0.077057 0.500234
vt 0.081471 0.500234
vt 0.085884 0.500234
vt 0.090298 0.500234
vt 0.094711 0.500234
vt 0.099124 0.500234
vt 0.103538 0.500234
vt 0.107951 0.500234
vt 0.112365 0.500234
vt 0.116778 0.500234
vt 0.028510 0.509061
vt 0.032923 0.509061
vt 0.037337 0.509061
vt 0.041750 0.509061
vt 0.046164 0.509061
vt 0.050577 0.509061
vt 0.054990 0.509061
vt 0.059404 0.509061
vt 0.063817 0.509061
vt 0.068231 0.509061
vt 0.072644 0.509061
vt 0.077057 0.509061
vt 0.081471 0.509061
vt 0.085884 0.509061
vt 0.090298 0.509061
vt 0.094711 0.509061
vt 0.099124 0.509061
vt 0.103538 0.509061
vt 0.107951 0.509061
vt 0.112365 0.509061
vt 0.116778 0.509061
vt 0.028510 0.517888
vt 0.032923 0.517888
vt 0.037337 0.517888
vt 0.041750 0.517888
vt 0.046164 0.517888
vt 0.050577 0.517888
vt 0.054990 0.517888
vt 0.059404 0.517888
vt 0.063817 0.517888
vt 0.068231 0.517888
vt 0.072644 0.517888
vt 0.077057 0.517888
vt 0.081471 0.517888
vt 0.085884 0.517888
vt 0.090298 0.517888
vt 0.094711 0.517888
vt 0.099124 0.517888
vt 0.103538 0.517888
vt 0.107951 0.517888
vt 0.112365 0.517888
vt 0.116778 0.517888
vt 0.028510 0.522301
vt 0.032923 0.522301
vt 0.037337 0.522301
vt 0.041750 0.522301
vt 0.046164 0.522301
vt 0.050577 0.522301
vt 0.054990 0.522301
vt 0.059404 0.522301
vt 0.063817 0.522301
vt 0.068231 0.522301
vt 0.072644 0.522301
vt 0.077057 0.522301
vt 0.081471 0.522301
vt 0.085884 0.522301
vt 0.090298 0.522301
vt 0.094711 0.522301
vt 0.099124 0.522301
vt 0.103538 0.522301
vt 0.107951 0.522301
vt 0.112365 0.522301
vt 0.116778 0.522301
vt 0.028510 0.531128
vt 0.032923 0.531128
vt 0.037337 0.531128
vt 0.041750 0.531128
vt 0.046164 0.531128
vt 0.050577 0.531128
vt 0.054990 0.531128
vt 0.059404 0.531128
vt 0.063817 0.531128
vt 0.068231 0.531128
vt 0.072644 0.531128
vt 0.077057 0.531128
vt 0.081471 0.531128
vt 0.085884 0.531128
vt 0.090298 0.531128
vt 0.094711 0.531128
vt 0.099124 0.531128
vt 0.103538 0.531128
vt 0.107951 0.531128
vt 0.112365 0.531128
vt 0.116778 0.531128
vt 0.028510 0.535541
vt 0.032923 0.535541
vt 0.037337 0.535541
vt 0.041750 0.535541
vt 0.046164 0.535541
vt 0.050577 0.535541
vt 0.054990 0.535541
vt 0.059404 0.535541
vt 0.063817 0.535541
vt 0.068231 0.535541
vt 0.072644 0.535541
vt 0.077057 0.535541
vt 0.081471 0.535541
vt 0.085884 0.535541
vt 0.090298 0.535541
vt 0.094711 0.535541
vt 0.099124 0.535541
vt 0.103538 0.535541
vt 0.107951 0.535541
vt 0.112365 0.535541
vt 0.116778 0.535541
vt 0.028510 0.539955
vt 0.032923 0.539955
vt 0.037337 0.539955
vt 0.041750 0.539955
vt 0.046164 0.539955
vt 0.050577 0.539955
vt 0.054990 0.539955
vt 0.059404 0.539955
vt 0.063817 0.539955
vt 0.068231 0.539955
vt 0.072644 0.539955
vt 0.077057 0.539955
vt 0.081471 0.539955
vt 0.085884 0.539955
vt 0.090298 0.539955
vt 0.094711 0.539955
vt 0.099124 0.539955
vt 0.103538 0.539955
vt 0.107951 0.539955
vt 0.112365 0.539955
vt 0.116778 0.539955
vt 0.028510 0.553195
vt 0.032923 0.553195
vt 0.037337 0.553195
vt 0.041750 0.553195
vt 0.046164 0.553195
vt 0.050577 0.553195
vt 0.054990 0.553195
vt 0.059404 0.553195
vt 0.063817 0.553195
vt 0.068231 0.553195
vt 0.072644 0.553195
vt 0.077057 0.553195
vt 0.081471 0.553195
vt 0.085884 0.553195
vt 0.090298 0.553195
vt 0.094711 0.553195
vt 0.099124 0.553195
vt 0.103538 0.553195
vt 0.107951 0.553195
vt 0.112365 0.553195
vt 0.116778 0.553195
vt 0.028510 0.562022
vt 0.032923 0.562022
vt 0.037337 0.562022
vt 0.041750 0.562022
vt 0.046164 0.562022
vt 0.050577 0.562022
vt 0.054990 0.562022
vt 0.059404 0.562022
vt 0.063817 0.562022
vt 0.068231 0.562022
vt 0.072644 0.562022
vt 0.077057 0.562022
vt 0.081471 0.562022
vt 0.085884 0.562022
vt 0.090298 0.562022
vt 0.094711 0.562022
vt 0.099124 0.562022
vt 0.103538 0.562022
vt 0.107951 0.562022
vt 0.112365 0.562022
vt 0.116778 0.562022
vt 0.030717 0.486994
vt 0.035130 0.486994
vt 0.039543 0.486994
vt 0.043957 0.486994
vt 0.048370 0.486994
vt 0.052784 0.486994
vt 0.057197 0.486994
vt 0.061610 0.486994
vt 0.066024 0.486994
vt 0.070437 0.486994
vt 0.074851 0.486994
vt 0.079264 0.486994
vt 0.083678 0.486994
vt 0.088091 0.486994
vt 0.092504 0.486994
vt 0.096918 0.486994
vt 0.101331 0.486994
vt 0.105745 0.486994
vt 0.110158 0.486994
vt 0.114571 0.486994
vt 0.030717 0.575262
vt 0.035130 0.575262
vt 0.039543 0.575262
vt 0.043957 0.575262
vt 0.048370 0.575262
vt 0.052784 0.575262
vt 0.057197 0.575262
vt 0.061610 0.575262
vt 0.066024 0.575262
vt 0.070437 0.575262
vt 0.074851 0.575262
vt 0.079264 0.575262
vt 0.083678 0.575262
vt 0.088091 0.575262
vt 0.092504 0.575262
vt 0.096918 0.575262
vt 0.101331 0.575262
vt 0.105745 0.575262
vt 0.110158 0.575262
vt 0.114571 0.575262
vt 0.028828 0.492849
vt 0.032981 0.492849
vt 0.032981 0.501155
vt 0.028828 0.501155
vt 0.037134 0.492849
vt 0.037134 0.501155
vt 0.041287 0.492849
vt 0.041287 0.501155
vt 0.045440 0.492849
vt 0.045440 0.501155
vt 0.049593 0.492849
vt 0.049593 0.501155
vt 0.053746 0.492849
vt 0.053746 0.501155
vt 0.057900 0.492849
vt 0.057900 0.501155
vt 0.062053 0.492849
vt 0.062053 0.501155
vt 0.066206 0.492849
vt 0.066206 0.501155
vt 0.070359 0.492849
vt 0.070359 0.501155
vt 0.074512 0.492849
vt 0.074512 0.501155
vt 0.078665 0.492849
vt 0.078665 0.501155
vt 0.082818 0.492849
vt 0.082818 0.501155
vt 0.086971 0.492849
vt 0.086971 0.501155
vt 0.091124 0.492849
vt 0.091124 0.501155
vt 0.095277 0.492849
vt 0.095277 0.501155
vt 0.099430 0.492849
vt 0.099430 0.501155
vt 0.103583 0.492849
vt 0.103583 0.501155
vt 0.107736 0.492849
vt 0.107736 0.501155
vt 0.111889 0.492849
vt 0.111889 0.501155
vt 0.032981 0.509461
vt 0.028828 0.509461
vt 0.037134 0.509461
vt 0.041287 0.509461
vt 0.045440 0.509461
vt 0.049593 0.509461
vt 0.053746 0.509461
vt 0.057900 0.509461
vt 0.062053 0.509461
vt 0.066206 0.509461
vt 0.070359 0.509461
vt 0.074512 0.509461
vt 0.078665 0.509461
vt 0.082818 0.509461
vt 0.086971 0.509461
vt 0.091124 0.509461
vt 0.095277 0.509461
vt 0.099430 0.509461
vt 0.103583 0.509461
vt 0.107736 0.509461
vt 0.111889 0.509461
vt 0.032981 0.513614
vt 0.028828 0.513614
vt 0.037134 0.513614
vt 0.041287 0.513614
vt 0.045440 0.513614
vt 0.049593 0.513614
vt 0.053746 0.513614
vt 0.057900 0.513614
vt 0.062053 0.513614
vt 0.066206 0.513614
vt 0.070359 0.513614
vt 0.074512 0.513614
vt 0.078665 0.513614
vt 0.082818 0.513614
vt 0.086971 0.513614
vt 0.091124 0.513614
vt 0.095277 0.513614
vt 0.099430 0.513614
vt 0.103583 0.513614
vt 0.107736 0.513614
vt 0.111889 0.513614
vt 0.032981 0.521921
vt 0.028828 0.521921
vt 0.037134 0.521921
vt 0.041287 0.521921
vt 0.045440 0.521921
vt 0.049593 0.521921
vt 0.053746 0.521921
vt 0.057900 0.521921
vt 0.062053 0.521921
vt 0.066206 0.521921
vt 0.070359 0.521921
vt 0.074512 0.521921
vt 0.078665 0.521921
vt 0.082818 0.521921
vt 0.086971 0.521921
vt 0.091124 0.521921
vt 0.095277 0.521921
vt 0.099430 0.521921
vt 0.103583 0.521921
vt 0.107736 0.521921
vt 0.111889 0.521921
vt 0.032981 0.526074
vt 0.028828 0.526074
vt 0.037134 0.526074
vt 0.041287 0.526074
vt 0.045440 0.526074
vt 0.049593 0.526074
vt 0.053746 0.526074
vt 0.057900 0.526074
vt 0.062053 0.526074
vt 0.066206 0.526074
vt 0.070359 0.526074
vt 0.074512 0.526074
vt 0.078665 0.526074
vt 0.082818 0.526074
vt 0.086971 0.526074
vt 0.091124 0.526074
vt 0.095277 0.526074
vt 0.099430 0.526074
vt 0.103583 0.526074
vt 0.107736 0.526074
vt 0.111889 0.526074
vt 0.032981 0.530227
vt 0.028828 0.530227
vt 0.037134 0.530227
vt 0.041287 0.530227
vt 0.045440 0.530227
vt 0.049593 0.530227
vt 0.053746 0.530227
vt 0.057900 0.530227
vt 0.062053 0.530227
vt 0.066206 0.530227
vt 0.070359 0.530227
vt 0.074512 0.530227
vt 0.078665 0.530227
vt 0.082818 0.530227
vt 0.086971 0.530227
vt 0.091124 0.530227
vt 0.095277 0.530227
vt 0.099430 0.530227
vt 0.103583 0.530227
vt 0.107736 0.530227
vt 0.111889 0.530227
vt 0.032981 0.542686
vt 0.028828 0.542686
vt 0.037134 0.542686
vt 0.041287 0.542686
vt 0.045440 0.542686
vt 0.049593 0.542686
vt 0.053746 0.542686
vt 0.057900 0.542686
vt 0.062053 0.542686
vt 0.066206 0.542686
vt 0.070359 0.542686
vt 0.074512 0.542686
vt 0.078665 0.542686
vt 0.082818 0.542686
vt 0.086971 0.542686
vt 0.091124 0.542686
vt 0.095277 0.542686
vt 0.099430 0.542686
vt 0.103583 0.542686
vt 0.107736 0.542686
vt 0.111889 0.542686
vt 0.032981 0.550992
vt 0.028828 0.550992
vt 0.037134 0.550992
vt 0.041287 0.550992
vt 0.045440 0.550992
vt 0.049593 0.550992
vt 0.053746 0.550992
vt 0.057900 0.550992
vt 0.062053 0.550992
vt 0.066206 0.550992
vt 0.070359 0.550992
vt 0.074512 0.550992
vt 0.078665 0.550992
vt 0.082818 0.550992
vt 0.086971 0.550992
vt 0.091124 0.550992
vt 0.095277 0.550992
vt 0.099430 0.550992
vt 0.103583 0.550992
vt 0.107736 0.550992
vt 0.111889 0.550992
vt 0.030905 0.480390
vt 0.035058 0.480390
vt 0.039211 0.480390
vt 0.043364 0.480390
vt 0.047517 0.480390
vt 0.051670 0.480390
vt 0.055823 0.480390
vt 0.059976 0.480390
vt 0.064129 0.480390
vt 0.068282 0.480390
vt 0.072435 0.480390
vt 0.076588 0.480390
vt 0.080741 0.480390
vt 0.084894 0.480390
vt 0.089047 0.480390
vt 0.093200 0.480390
vt 0.097353 0.480390
vt 0.101506 0.480390
vt 0.105659 0.480390
vt 0.109812 0.480390
vt 0.030905 0.563451
vt 0.035058 0.563451
vt 0.039211 0.563451
vt 0.043364 0.563451
vt 0.047517 0.563451
vt 0.051670 0.563451
vt 0.055823 0.563451
vt 0.059976 0.563451
vt 0.064129 0.563451
vt 0.068282 0.563451
vt 0.072435 0.563451
vt 0.076588 0.563451
vt 0.080741 0.563451
vt 0.084894 0.563451
vt 0.089047 0.563451
vt 0.093200 0.563451
vt 0.097353 0.563451
vt 0.101506 0.563451
vt 0.105659 0.563451
vt 0.109812 0.563451
vt 0.042871 0.505404
vt 0.046092 0.505404
vt 0.046092 0.511847
vt 0.042871 0.511847
vt 0.049314 0.505404
vt 0.049314 0.511847
vt 0.052535 0.505404
vt 0.052535 0.511847
vt 0.055757 0.505404
vt 0.055757 0.511847
vt 0.058979 0.505404
vt 0.058979 0.511847
vt 0.062200 0.505404
vt 0.062200 0.511847
vt 0.065422 0.505404
vt 0.065422 0.511847
vt 0.068643 0.505404
vt 0.068643 0.511847
vt 0.071865 0.505404
vt 0.071865 0.511847
vt 0.075087 0.505404
vt 0.075087 0.511847
vt 0.078308 0.505404
vt 0.078308 0.511847
vt 0.081530 0.505404
vt 0.081530 0.511847
vt 0.084751 0.505404
vt 0.084751 0.511847
vt 0.087973 0.505404
vt 0.087973 0.511847
vt 0.091195 0.505404
vt 0.091195 0.511847
vt 0.094416 0.505404
vt 0.094416 0.511847
vt 0.097638 0.505404
vt 0.097638 0.511847
vt 0.100859 0.505404
vt 0.100859 0.511847
vt 0.104081 0.505404
vt 0.104081 0.511847
vt 0.107303 0.505404
vt 0.107303 0.511847
vt 0.046092 0.518290
vt 0.042871 0.518290
vt 0.049314 0.518290
vt 0.052535 0.518290
vt 0.055757 0.518290
vt 0.058979 0.518290
vt 0.062200 0.518290
vt 0.065422 0.518290
vt 0.068643 0.518290
vt 0.071865 0.518290
vt 0.075087 0.518290
vt 0.078308 0.518290
vt 0.081530 0.518290
vt 0.084751 0.518290
vt 0.087973 0.518290
vt 0.091195 0.518290
vt 0.094416 0.518290
vt 0.097638 0.518290
vt 0.100859 0.518290
vt 0.104081 0.518290
vt 0.107303 0.518290
vt 0.046092 0.521512
vt 0.042871 0.521512
vt 0.049314 0.521512
vt 0.052535 0.521512
vt 0.055757 0.521512
vt 0.058979 0.521512
vt 0.062200 0.521512
vt 0.065422 0.521512
vt 0.068643 0.521512
vt 0.071865 0.521512
vt 0.075087 0.521512
vt 0.078308 0.521512
vt 0.081530 0.521512
vt 0.084751 0.521512
vt 0.087973 0.521512
vt 0.091195 0.521512
vt 0.094416 0.521512
vt 0.097638 0.521512
vt 0.100859 0.521512
vt 0.104081 0.521512
vt 0.107303 0.521512
vt 0.046092 0.527955
vt 0.042871 0.527955
vt 0.049314 0.527955
vt 0.052535 0.527955
vt 0.055757 0.527955
vt 0.058979 0.527955
vt 0.062200 0.527955
vt 0.065422 0.527955
vt 0.068643 0.527955
vt 0.071865 0.527955
vt 0.075087 0.527955
vt 0.078308 0.527955
vt 0.081530 0.527955
vt 0.084751 0.527955
vt 0.087973 0.527955
vt 0.091195 0.527955
vt 0.094416 0.527955
vt 0.097638 0.527955
vt 0.100859 0.527955
vt 0.104081 0.527955
vt 0.107303 0.527955
vt 0.046092 0.531176
vt 0.042871 0.531176
vt 0.049314 0.531176
vt 0.052535 0.531176
vt 0.055757 0.531176
vt 0.058979 0.531176
vt 0.062200 0.531176
vt 0.065422 0.531176
vt 0.068643 0.531176
vt 0.071865 0.531176
vt 0.075087 0.531176
vt 0.078308 0.531176
vt 0.081530 0.531176
vt 0.084751 0.531176
vt 0.087973 0.531176
vt 0.091195 0.531176
vt 0.094416 0.531176
vt 0.097638 0.531176
vt 0.100859 0.531176
vt 0.104081 0.531176
vt 0.107303 0.531176
vt 0.046092 0.534398
vt 0.042871 0.534398
vt 0.049314 0.534398
vt 0.052535 0.534398
vt 0.055757 0.534398
vt 0.058979 0.534398
vt 0.062200 0.534398
vt 0.065422 0.534398
vt 0.068643 0.534398
vt 0.071865 0.534398
vt 0.075087 0.534398
vt 0.078308 0.534398
vt 0.081530 0.534398
vt 0.084751 0.534398
vt 0.087973 0.534398
vt 0.091195 0.534398
vt 0.094416 0.534398
vt 0.097638 0.534398
vt 0.100859 0.534398
vt 0.104081 0.534398
vt 0.107303 0.534398
vt 0.046092 0.544063
vt 0.042871 0.544063
vt 0.049314 0.544063
vt 0.052535 0.544063
vt 0.055757 0.544063
vt 0.058979 0.544063
vt 0.062200 0.544063
vt 0.065422 0.544063
vt 0.068643 0.544063
vt 0.071865 0.544063
vt 0.075087 0.544063
vt 0.078308 0.544063
vt 0.081530 0.544063
vt 0.084751 0.544063
vt 0.087973 0.544063
vt 0.091195 0.544063
vt 0.094416 0.544063
vt 0.097638 0.544063
vt 0.100859 0.544063
vt 0.104081 0.544063
vt 0.107303 0.544063
vt 0.046092 0.550506
vt 0.042871 0.550506
vt 0.049314 0.550506
vt 0.052535 0.550506
vt 0.055757 0.550506
vt 0.058979 0.550506
vt 0.062200 0.550506
vt 0.065422 0.550506
vt 0.068643 0.550506
vt 0.071865 0.550506
vt 0.075087 0.550506
vt 0.078308 0.550506
vt 0.081530 0.550506
vt 0.084751 0.550506
vt 0.087973 0.550506
vt 0.091195 0.550506
vt 0.094416 0.550506
vt 0.097638 0.550506
vt 0.100859 0.550506
vt 0.104081 0.550506
vt 0.107303 0.550506
vt 0.044481 0.495739
vt 0.047703 0.495739
vt 0.050925 0.495739
vt 0.054146 0.495739
vt 0.057368 0.495739
vt 0.060589 0.495739
vt 0.063811 0.495739
vt 0.067033 0.495739
vt 0.070254 0.495739
vt 0.073476 0.495739
vt 0.076697 0.495739
vt 0.079919 0.495739
vt 0.083141 0.495739
vt 0.086362 0.495739
vt 0.089584 0.495739
vt 0.092805 0.495739
vt 0.096027 0.495739
vt 0.099249 0.495739
vt 0.102470 0.495739
vt 0.105692 0.495739
vt 0.044481 0.560171
vt 0.047703 0.560171
vt 0.050925 0.560171
vt 0.054146 0.560171
vt 0.057368 0.560171
vt 0.060589 0.560171
vt 0.063811 0.560171
vt 0.067033 0.560171
vt 0.070254 0.560171
vt 0.073476 0.560171
vt 0.076697 0.560171
vt 0.079919 0.560171
vt 0.083141 0.560171
vt 0.086362 0.560171
vt 0.089584 0.560171
vt 0.092805 0.560171
vt 0.096027 0.560171
vt 0.099249 0.560171
vt 0.102470 0.560171
vt 0.105692 0.560171
vn 0.157131 0.228586 -0.960759
vn 0.068318 0.414206 -0.907616
vn 0.414604 0.589798 -0.692995
vn 0.553690 0.326371 -0.766101
vn -0.051468 0.540050 -0.840057
vn 0.229196 0.767244 -0.599004
vn -0.184363 0.609862 -0.770765
vn 0.025566 0.865609 -0.500067
vn -0.322108 0.631925 -0.704923
vn -0.183885 0.896794 -0.402426
vn -0.462046 0.609862 -0.643880
vn -0.394798 0.865609 -0.307985
vn -0.601418 0.540050 -0.588763
vn -0.602882 0.767244 -0.218793
vn -0.730899 0.414205 -0.542421
vn -0.795298 0.589798 -0.140141
vn -0.829208 0.228587 -0.510061
vn -0.941605 0.326372 -0.082840
vn -0.867077 0.000000 -0.498174
vn -0.998122 0.000000 -0.061259
vn -0.829208 -0.228587 -0.510061
vn -0.941605 -0.326372 -0.082839
vn -0.730898 -0.414206 -0.542421
vn -0.795298 -0.589799 -0.140141
vn -0.601418 -0.540051 -0.588763
vn -0.602881 -0.767244 -0.218793
vn -0.462046 -0.609862 -0.643880
vn -0.394799 -0.865609 -0.307985
vn -0.322107 -0.631925 -0.704924
vn -0.183884 -0.896794 -0.402425
vn -0.184363 -0.609862 -0.770764
vn 0.025567 -0.865609 -0.500067
vn -0.051469 -0.540051 -0.840057
vn 0.229197 -0.767244 -0.599004
vn 0.068318 -0.414206 -0.907616
vn 0.414604 -0.589798 -0.692994
vn 0.157131 -0.228587 -0.960759
vn 0.553689 -0.326371 -0.766100
vn 0.190904 -0.000001 -0.981609
vn 0.606998 -0.000001 -0.794703
vn 0.572806 0.652653 -0.495920
vn 0.713301 0.361068 -0.600693
vn 0.382619 0.848563 -0.365437
vn 0.169262 0.956686 -0.236858
vn -0.056116 0.990843 -0.122808
vn -0.289860 0.956686 -0.027066
vn -0.526720 0.848563 0.050078
vn -0.749854 0.652653 0.108458
vn -0.921024 0.361068 0.146097
vn -0.987223 -0.000000 0.159345
vn -0.921024 -0.361069 0.146097
vn -0.749854 -0.652653 0.108457
vn -0.526720 -0.848563 0.050077
vn -0.289861 -0.956686 -0.027066
vn -0.056116 -0.990843 -0.122807
vn 0.169263 -0.956686 -0.236858
vn 0.382619 -0.848563 -0.365437
vn 0.572806 -0.652653 -0.495920
vn 0.713301 -0.361069 -0.600692
vn 0.766647 -0.000001 -0.642069
vn 0.713458 0.648191 -0.266132
vn 0.881305 0.354062 -0.312957
vn 0.486783 0.851233 -0.196075
vn 0.241613 0.964288 -0.108495
vn -0.002591 0.999981 -0.005670
vn -0.240172 0.964288 0.111652
vn -0.466858 0.851232 0.239683
vn -0.668190 0.648190 0.365199
vn -0.813453 0.354064 0.461446
vn -0.867162 0.000000 0.498025
vn -0.813453 -0.354064 0.461446
vn -0.668190 -0.648191 0.365199
vn -0.466857 -0.851232 0.239683
vn -0.240172 -0.964288 0.111651
vn -0.002591 -0.999981 -0.005671
vn 0.241614 -0.964288 -0.108496
vn 0.486783 -0.851232 -0.196075
vn 0.713458 -0.648191 -0.266132
vn 0.881304 -0.354063 -0.312957
vn 0.944114 -0.000001 -0.329620
vn 0.685003 0.651321 -0.326424
vn 0.867054 0.357648 -0.346851
vn 0.443682 0.849685 -0.284922
vn 0.189405 0.957395 -0.217994
vn -0.056288 0.990786 -0.123185
vn -0.288783 0.957395 0.000510
vn -0.505817 0.849685 0.148943
vn -0.695148 0.651320 0.304223
vn -0.829750 0.357649 0.428488
vn -0.879034 0.000000 0.476759
vn -0.829750 -0.357649 0.428487
vn -0.695147 -0.651321 0.304222
vn -0.505817 -0.849685 0.148943
vn -0.288783 -0.957394 0.000510
vn -0.056288 -0.990786 -0.123185
vn 0.189406 -0.957394 -0.217994
vn 0.443683 -0.849685 -0.284922
vn 0.685003 -0.651321 -0.326424
vn 0.867054 -0.357648 -0.346851
vn 0.935806 -0.000001 -0.352516
vn 0.622338 0.620017 -0.477781
vn 0.750579 0.333303 -0.570562
vn 0.432481 0.829823 -0.352638
vn 0.204357 0.953777 -0.220336
vn -0.044189 0.994332 -0.096706
vn -0.300339 0.953777 0.010281
vn -0.549681 0.829823 0.096152
vn -0.768561 0.620016 0.157777
vn -0.922644 0.333304 0.194001
vn -0.978594 0.000000 0.205799
vn -0.922644 -0.333304 0.194002
vn -0.768560 -0.620017 0.157777
vn -0.549681 -0.829823 0.096151
vn -0.300340 -0.953777 0.010281
vn -0.044189 -0.994332 -0.096705
vn 0.204357 -0.953777 -0.220336
vn 0.432482 -0.829823 -0.352638
vn 0.622338 -0.620017 -0.477781
vn 0.750578 -0.333304 -0.570562
vn 0.796119 -0.000001 -0.605141
vn 0.755262 0.635828 -0.159068
vn 0.901059 0.349754 -0.256446
vn 0.556144 0.830441 -0.032744
vn 0.332612 0.938160 0.096048
vn 0.097445 0.972125 0.213255
vn -0.145093 0.938160 0.314331
vn -0.388774 0.830441 0.399027
vn -0.614609 0.635828 0.466881
vn -0.783659 0.349755 0.513371
vn -0.847774 -0.000000 0.530358
vn -0.783659 -0.349755 0.513371
vn -0.614609 -0.635828 0.466882
vn -0.388774 -0.830441 0.399027
vn -0.145093 -0.938160 0.314331
vn 0.097444 -0.972125 0.213254
vn 0.332612 -0.938160 0.096048
vn 0.556144 -0.830441 -0.032744
vn 0.755262 -0.635828 -0.159068
vn 0.901059 -0.349755 -0.256446
vn 0.955867 -0.000002 -0.293798
vn 0.792277 0.604466 0.083179
vn 0.942014 0.335297 0.013620
vn 0.596172 0.783584 0.174856
vn 0.384883 0.881466 0.273646
vn 0.170288 0.912206 0.372670
vn -0.045038 0.881466 0.470095
vn -0.258023 0.783584 0.565173
vn -0.455692 0.604466 0.653426
vn -0.606289 0.335298 0.721102
vn -0.664442 -0.000000 0.747340
vn -0.606290 -0.335298 0.721102
vn -0.455692 -0.604466 0.653426
vn -0.258023 -0.783584 0.565173
vn -0.045038 -0.881466 0.470095
vn 0.170288 -0.912205 0.372670
vn 0.384883 -0.881466 0.273646
vn 0.596173 -0.783584 0.174856
vn 0.792277 -0.604466 0.083178
vn 0.942014 -0.335298 0.013619
vn 0.999913 -0.000002 -0.013172
vn 0.712563 0.405567 0.572511
vn 0.809182 0.224919 0.542803
vn 0.587882 0.524996 0.615446
vn 0.457592 0.588816 0.666262
vn 0.329850 0.608364 0.721867
vn 0.204199 0.588816 0.782048
vn 0.080501 0.524996 0.847289
vn -0.033568 0.405567 0.913449
vn -0.119268 0.224920 0.967050
vn -0.152009 0.000000 0.988379
vn -0.119268 -0.224920 0.967050
vn -0.033568 -0.405567 0.913449
vn 0.080500 -0.524996 0.847290
vn 0.204199 -0.588816 0.782048
vn 0.329851 -0.608363 0.721868
vn 0.457593 -0.588815 0.666262
vn 0.587883 -0.524995 0.615446
vn 0.712563 -0.405567 0.572511
vn 0.809182 -0.224920 0.542803
vn 0.846737 -0.000001 0.532011
vn -0.415607 0.000000 -0.909544
vn 0.415608 0.000000 0.909544
vn 0.584584 0.228586 -0.778467
vn 0.481254 0.414206 -0.772546
vn 0.688603 0.589798 -0.421857
vn 0.845731 0.326371 -0.422163
vn 0.343798 0.540051 -0.768211
vn 0.480749 0.767244 -0.424519
vn 0.193924 0.609863 -0.768415
vn 0.254457 0.865609 -0.431245
vn 0.041351 0.631925 -0.773926
vn 0.023606 0.896794 -0.441818
vn -0.110940 0.609863 -0.784704
vn -0.207056 0.865609 -0.455904
vn -0.259984 0.540050 -0.800471
vn -0.432778 0.767244 -0.473329
vn -0.396195 0.414205 -0.819429
vn -0.639732 0.589798 -0.492831
vn -0.498304 0.228586 -0.836326
vn -0.795932 0.326371 -0.509877
vn -0.537369 0.000000 -0.843347
vn -0.856014 0.000000 -0.516953
vn -0.498305 -0.228587 -0.836326
vn -0.795932 -0.326371 -0.509877
vn -0.396194 -0.414206 -0.819429
vn -0.639731 -0.589799 -0.492830
vn -0.259984 -0.540051 -0.800471
vn -0.432777 -0.767244 -0.473329
vn -0.110941 -0.609863 -0.784704
vn -0.207057 -0.865609 -0.455904
vn 0.041351 -0.631925 -0.773925
vn 0.023606 -0.896794 -0.441817
vn 0.193924 -0.609862 -0.768415
vn 0.254457 -0.865609 -0.431245
vn 0.343798 -0.540051 -0.768211
vn 0.480749 -0.767244 -0.424519
vn 0.481254 -0.414206 -0.772547
vn 0.688603 -0.589798 -0.421857
vn 0.584583 -0.228587 -0.778467
vn 0.845731 -0.326371 -0.422163
vn 0.624174 -0.000001 -0.781286
vn 0.906225 -0.000001 -0.422796
vn 0.737429 0.652653 -0.173901
vn 0.910485 0.361068 -0.201612
vn 0.508425 0.848563 -0.146444
vn 0.259773 0.956686 -0.131413
vn 0.007204 0.990843 -0.134829
vn -0.244292 0.956686 -0.158345
vn -0.489926 0.848563 -0.199785
vn -0.714701 0.652653 -0.251488
vn -0.883818 0.361068 -0.297482
vn -0.948616 -0.000000 -0.316430
vn -0.883818 -0.361069 -0.297482
vn -0.714701 -0.652653 -0.251489
vn -0.489926 -0.848563 -0.199786
vn -0.244292 -0.956686 -0.158345
vn 0.007204 -0.990843 -0.134829
vn 0.259774 -0.956686 -0.131413
vn 0.508425 -0.848563 -0.146444
vn 0.737429 -0.652653 -0.173901
vn 0.910485 -0.361068 -0.201612
vn 0.976933 -0.000001 -0.213547
vn 0.755540 0.648191 0.094906
vn 0.925970 0.354062 0.131220
vn 0.522215 0.851233 0.051909
vn 0.264380 0.964288 0.015863
vn 0.000333 0.999981 -0.006225
vn -0.264565 0.964288 -0.012398
vn -0.524774 0.851232 -0.004032
vn -0.761352 0.648191 0.013858
vn -0.934680 0.354063 0.031804
vn -0.999227 -0.000000 0.039320
vn -0.934680 -0.354064 0.031804
vn -0.761352 -0.648191 0.013858
vn -0.524773 -0.851232 -0.004032
vn -0.264565 -0.964288 -0.012399
vn 0.000333 -0.999981 -0.006226
vn 0.264380 -0.964288 0.015863
vn 0.522215 -0.851232 0.051909
vn 0.755540 -0.648191 0.094906
vn 0.925970 -0.354063 0.131220
vn 0.989348 -0.000001 0.145570
vn 0.758275 0.651321 0.028293
vn 0.929055 0.357648 0.094581
vn 0.525209 0.849686 -0.046796
vn 0.268877 0.957395 -0.105361
vn 0.007226 0.990786 -0.135243
vn -0.256119 0.957394 -0.133412
vn -0.517233 0.849685 -0.102494
vn -0.756973 0.651320 -0.052667
vn -0.933843 0.357649 -0.004953
vn -0.999888 -0.000000 0.014973
vn -0.933843 -0.357649 -0.004954
vn -0.756973 -0.651321 -0.052667
vn -0.517233 -0.849685 -0.102494
vn -0.256120 -0.957394 -0.133412
vn 0.007226 -0.990786 -0.135243
vn 0.268878 -0.957394 -0.105361
vn 0.525210 -0.849685 -0.046796
vn 0.758275 -0.651321 0.028293
vn 0.929054 -0.357648 0.094581
vn 0.992600 -0.000001 0.121432
vn 0.772909 0.620017 -0.134868
vn 0.929549 0.333303 -0.157634
vn 0.546674 0.829823 -0.111990
vn 0.283210 0.953777 -0.100505
vn 0.005673 0.994332 -0.106172
vn -0.270889 0.953777 -0.130111
vn -0.531629 0.829823 -0.169604
vn -0.754139 0.620016 -0.216459
vn -0.907459 0.333304 -0.255786
vn -0.962504 -0.000000 -0.271268
vn -0.907459 -0.333304 -0.255785
vn -0.754138 -0.620017 -0.216459
vn -0.531628 -0.829823 -0.169604
vn -0.270889 -0.953777 -0.130111
vn 0.005673 -0.994332 -0.106171
vn 0.283211 -0.953777 -0.100505
vn 0.546674 -0.829823 -0.111990
vn 0.772910 -0.620017 -0.134869
vn 0.929548 -0.333304 -0.157634
vn 0.985929 -0.000001 -0.167164
vn 0.742952 0.635828 0.209151
vn 0.917279 0.349754 0.190451
vn 0.507963 0.830441 0.228784
vn 0.250196 0.938160 0.239286
vn -0.012510 0.972125 0.234129
vn -0.274269 0.938160 0.211264
vn -0.529449 0.830441 0.173354
vn -0.761009 0.635828 0.128793
vn -0.932350 0.349755 0.091624
vn -0.997034 -0.000001 0.076956
vn -0.932350 -0.349755 0.091624
vn -0.761009 -0.635828 0.128794
vn -0.529449 -0.830441 0.173354
vn -0.274269 -0.938160 0.211263
vn -0.012510 -0.972125 0.234129
vn 0.250197 -0.938160 0.239285
vn 0.507963 -0.830441 0.228783
vn 0.742953 -0.635828 0.209151
vn 0.917279 -0.349755 0.190451
vn 0.983158 -0.000001 0.182759
vn 0.663459 0.604466 0.440957
vn 0.828381 0.335297 0.448733
vn 0.447199 0.783584 0.431287
vn 0.214188 0.881466 0.420881
vn -0.021861 0.912205 0.409150
vn -0.257816 0.881466 0.395662
vn -0.490609 0.783584 0.381180
vn -0.706668 0.604466 0.367751
vn -0.871480 0.335298 0.357908
vn -0.935170 -0.000000 0.354200
vn -0.871480 -0.335298 0.357908
vn -0.706669 -0.604466 0.367751
vn -0.490610 -0.783584 0.381180
vn -0.257816 -0.881466 0.395662
vn -0.021861 -0.912205 0.409150
vn 0.214188 -0.881466 0.420881
vn 0.447200 -0.783584 0.431287
vn 0.663459 -0.604466 0.440957
vn 0.828381 -0.335298 0.448732
vn 0.892103 -0.000001 0.451832
vn 0.366000 0.405567 0.837591
vn 0.465383 0.224919 0.856055
vn 0.235621 0.524996 0.817840
vn 0.096619 0.588816 0.802472
vn -0.042345 0.608364 0.792528
vn -0.181578 0.588816 0.787607
vn -0.321426 0.524996 0.788076
vn -0.453167 0.405567 0.793823
vn -0.553950 0.224920 0.801592
vn -0.592848 0.000000 0.805314
vn -0.553951 -0.224920 0.801592
vn -0.453167 -0.405567 0.793823
vn -0.321426 -0.524996 0.788077
vn -0.181577 -0.588816 0.787608
vn -0.042345 -0.608363 0.792528
vn 0.096619 -0.588816 0.802472
vn 0.235622 -0.524996 0.817840
vn 0.366000 -0.405567 0.837591
vn 0.465382 -0.224920 0.856055
vn 0.503661 -0.000000 0.863901
vn 0.053354 0.000000 -0.998576
vn -0.053354 0.000000 0.998576
vn 0.874657 0.228586 -0.427461
vn 0.779939 0.414206 -0.469179
vn 0.805124 0.589798 -0.062556
vn 0.945203 0.326371 0.008628
vn 0.655548 0.540050 -0.527828
vn 0.621218 0.767244 -0.159452
vn 0.522161 0.609862 -0.596168
vn 0.422738 0.865609 -0.268353
vn 0.388784 0.631925 -0.670461
vn 0.221948 0.896794 -0.382752
vn 0.258053 0.609863 -0.749317
vn 0.022924 0.865610 -0.500195
vn 0.132484 0.540050 -0.831140
vn -0.170182 0.767244 -0.618365
vn 0.019795 0.414205 -0.909968
vn -0.345628 0.589798 -0.729849
vn -0.063461 0.228587 -0.971453
vn -0.476990 0.326372 -0.816065
vn -0.095060 0.000000 -0.995472
vn -0.527281 0.000000 -0.849691
vn -0.063461 -0.228587 -0.971453
vn -0.476990 -0.326372 -0.816065
vn 0.019795 -0.414206 -0.909968
vn -0.345628 -0.589798 -0.729849
vn 0.132484 -0.540051 -0.831140
vn -0.170181 -0.767244 -0.618365
vn 0.258053 -0.609862 -0.749318
vn 0.022923 -0.865609 -0.500195
vn 0.388784 -0.631925 -0.670461
vn 0.221948 -0.896794 -0.382752
vn 0.522161 -0.609862 -0.596168
vn 0.422738 -0.865609 -0.268352
vn 0.655548 -0.540050 -0.527828
vn 0.621218 -0.767244 -0.159452
vn 0.779939 -0.414206 -0.469179
vn 0.805124 -0.589798 -0.062556
vn 0.874657 -0.228586 -0.427461
vn 0.945202 -0.326371 0.008628
vn 0.911199 -0.000001 -0.411967
vn 0.999367 -0.000001 0.035575
vn 0.735847 0.652653 0.180481
vn 0.902574 0.361068 0.234502
vn 0.519406 0.848563 0.100791
vn 0.291119 0.956686 0.001098
vn 0.067732 0.990843 -0.116804
vn -0.145558 0.956686 -0.252120
vn -0.345477 0.848562 -0.400733
vn -0.522151 0.652653 -0.549001
vn -0.651852 0.361069 -0.666872
vn -0.700945 0.000000 -0.713215
vn -0.651852 -0.361069 -0.666872
vn -0.522151 -0.652653 -0.549001
vn -0.345477 -0.848563 -0.400733
vn -0.145558 -0.956686 -0.252120
vn 0.067731 -0.990843 -0.116804
vn 0.291120 -0.956686 0.001099
vn 0.519406 -0.848563 0.100791
vn 0.735847 -0.652653 0.180481
vn 0.902573 -0.361068 0.234501
vn 0.967181 -0.000001 0.254090
vn 0.629732 0.648191 0.428120
vn 0.765004 0.354062 0.537967
vn 0.441484 0.851233 0.283717
vn 0.228245 0.964288 0.134359
vn 0.003127 0.999981 -0.005393
vn -0.229986 0.964288 -0.131358
vn -0.465535 0.851232 -0.242241
vn -0.684370 0.648191 -0.333896
vn -0.846899 0.354064 -0.396737
vn -0.907803 0.000000 -0.419397
vn -0.846900 -0.354064 -0.396737
vn -0.684370 -0.648191 -0.333896
vn -0.465535 -0.851232 -0.242241
vn -0.229986 -0.964288 -0.131358
vn 0.003128 -0.999981 -0.005394
vn 0.228246 -0.964288 0.134359
vn 0.441484 -0.851232 0.283717
vn 0.629732 -0.648191 0.428120
vn 0.765004 -0.354063 0.537967
vn 0.814923 -0.000001 0.579570
vn 0.662461 0.651321 0.370037
vn 0.784413 0.357648 0.506739
vn 0.489038 0.849686 0.197171
vn 0.287379 0.957395 0.028441
vn 0.067940 0.990786 -0.117162
vn -0.167431 0.957394 -0.235293
vn -0.414042 0.849685 -0.326503
vn -0.650217 0.651320 -0.391152
vn -0.829438 0.357649 -0.429093
vn -0.897320 0.000000 -0.441381
vn -0.829437 -0.357649 -0.429093
vn -0.650216 -0.651321 -0.391153
vn -0.414042 -0.849685 -0.326503
vn -0.167432 -0.957394 -0.235293
vn 0.067940 -0.990786 -0.117162
vn 0.287380 -0.957394 0.028441
vn 0.489038 -0.849685 0.197171
vn 0.662461 -0.651321 0.370037
vn 0.784413 -0.357648 0.506739
vn 0.828796 -0.000001 0.559550
vn 0.749695 0.620017 0.231379
vn 0.899552 0.333303 0.282338
vn 0.537803 0.829823 0.148870
vn 0.297937 0.953777 0.039284
vn 0.053336 0.994332 -0.091978
vn -0.182086 0.953777 -0.239069
vn -0.396344 0.829823 -0.392818
vn -0.573205 0.620016 -0.535739
vn -0.691869 0.333304 -0.640489
vn -0.733852 0.000000 -0.679310
vn -0.691870 -0.333304 -0.640488
vn -0.573205 -0.620017 -0.535738
vn -0.396343 -0.829823 -0.392818
vn -0.182087 -0.953777 -0.239069
vn 0.053335 -0.994332 -0.091978
vn 0.297937 -0.953777 0.039284
vn 0.537803 -0.829823 0.148871
vn 0.749695 -0.620017 0.231379
vn 0.899552 -0.333304 0.282338
vn 0.954099 -0.000001 0.299491
vn 0.566566 0.635828 0.524143
vn 0.730327 0.349754 0.586766
vn 0.348353 0.830441 0.434762
vn 0.114008 0.938160 0.326892
vn -0.117616 0.972125 0.202829
vn -0.340343 0.938160 0.063425
vn -0.550369 0.830441 -0.086385
vn -0.736334 0.635828 -0.231377
vn -0.872028 0.349755 -0.342401
vn -0.922966 -0.000000 -0.384881
vn -0.872028 -0.349755 -0.342401
vn -0.736334 -0.635828 -0.231377
vn -0.550369 -0.830441 -0.086385
vn -0.340343 -0.938160 0.063424
vn -0.117615 -0.972125 0.202828
vn 0.114008 -0.938160 0.326891
vn 0.348354 -0.830441 0.434762
vn 0.566566 -0.635828 0.524143
vn 0.730327 -0.349755 0.586766
vn 0.792498 -0.000001 0.609875
vn 0.390350 0.604466 0.694440
vn 0.533696 0.335297 0.776366
vn 0.202144 0.783584 0.587480
vn -0.000645 0.881466 0.472247
vn -0.205538 0.912205 0.354451
vn -0.409548 0.881466 0.235134
vn -0.610290 0.783584 0.116370
vn -0.796607 0.604466 0.006153
vn -0.938914 0.335298 -0.077564
vn -0.993950 -0.000000 -0.109830
vn -0.938914 -0.335298 -0.077564
vn -0.796607 -0.604466 0.006153
vn -0.610291 -0.783584 0.116369
vn -0.409548 -0.881466 0.235134
vn -0.205537 -0.912205 0.354451
vn -0.000645 -0.881466 0.472247
vn 0.202145 -0.783584 0.587481
vn 0.390351 -0.604466 0.694441
vn 0.533696 -0.335298 0.776366
vn 0.589037 -0.000001 0.808106
vn -0.054946 0.405567 0.912412
vn 0.025168 0.224919 0.974052
vn -0.162080 0.524996 0.835529
vn -0.278887 0.588816 0.758629
vn -0.398129 0.608364 0.686577
vn -0.519893 0.588816 0.618875
vn -0.644656 0.524996 0.555695
vn -0.764600 0.405567 0.500901
vn -0.857892 0.224920 0.461987
vn -0.894227 -0.000000 0.447613
vn -0.857892 -0.224920 0.461987
vn -0.764600 -0.405567 0.500901
vn -0.644657 -0.524996 0.555695
vn -0.519893 -0.588816 0.618876
vn -0.398128 -0.608364 0.686577
vn -0.278888 -0.588816 0.758629
vn -0.162080 -0.524995 0.835530
vn -0.054945 -0.405567 0.912412
vn 0.025168 -0.224920 0.974052
vn 0.055692 -0.000001 0.998448
vn 0.501638 0.000000 -0.865078
vn -0.501637 0.000000 0.865078
s 1
g pSphere4
usemtl lambert2SG
f 1/1/1 2/2/2 22/23/3 21/22/4
f 2/2/2 3/3/5 23/24/6 22/23/3
f 3/3/5 4/4/7 24/25/8 23/24/6
f 4/4/7 5/5/9 25/26/10 24/25/8
f 5/5/9 6/6/11 26/27/12 25/26/10
f 6/6/11 7/7/13 27/28/14 26/27/12
f 7/7/13 8/8/15 28/29/16 27/28/14
f 8/8/15 9/9/17 29/30/18 28/29/16
f 9/9/17 10/10/19 30/31/20 29/30/18
f 10/10/19 11/11/21 31/32/22 30/31/20
f 11/11/21 12/12/23 32/33/24 31/32/22
f 12/12/23 13/13/25 33/34/26 32/33/24
f 13/13/25 14/14/27 34/35/28 33/34/26
f 14/14/27 15/15/29 35/36/30 34/35/28
f 15/15/29 16/16/31 36/37/32 35/36/30
f 16/16/31 17/17/33 37/38/34 36/37/32
f 17/17/33 18/18/35 38/39/36 37/38/34
f 18/18/35 19/19/37 39/40/38 38/39/36
f 19/19/37 20/20/39 40/41/40 39/40/38
f 20/20/39 1/21/1 21/42/4 40/41/40
f 21/22/4 22/23/3 42/44/41 41/43/42
f 22/23/3 23/24/6 43/45/43 42/44/41
f 23/24/6 24/25/8 44/46/44 43/45/43
f 24/25/8 25/26/10 45/47/45 44/46/44
f 25/26/10 26/27/12 46/48/46 45/47/45
f 26/27/12 27/28/14 47/49/47 46/48/46
f 27/28/14 28/29/16 48/50/48 47/49/47
f 28/29/16 29/30/18 49/51/49 48/50/48
f 29/30/18 30/31/20 50/52/50 49/51/49
f 30/31/20 31/32/22 51/53/51 50/52/50
f 31/32/22 32/33/24 52/54/52 51/53/51
f 32/33/24 33/34/26 53/55/53 52/54/52
f 33/34/26 34/35/28 54/56/54 53/55/53
f 34/35/28 35/36/30 55/57/55 54/56/54
f 35/36/30 36/37/32 56/58/56 55/57/55
f 36/37/32 37/38/34 57/59/57 56/58/56
f 37/38/34 38/39/36 58/60/58 57/59/57
f 38/39/36 39/40/38 59/61/59 58/60/58
f 39/40/38 40/41/40 60/62/60 59/61/59
f 40/41/40 21/42/4 41/63/42 60/62/60
f 41/43/42 42/44/41 62/65/61 61/64/62
f 42/44/41 43/45/43 63/66/63 62/65/61
f 43/45/43 44/46/44 64/67/64 63/66/63
f 44/46/44 45/47/45 65/68/65 64/67/64
f 45/47/45 46/48/46 66/69/66 65/68/65
f 46/48/46 47/49/47 67/70/67 66/69/66
f 47/49/47 48/50/48 68/71/68 67/70/67
f 48/50/48 49/51/49 69/72/69 68/71/68
f 49/51/49 50/52/50 70/73/70 69/72/69
f 50/52/50 51/53/51 71/74/71 70/73/70
f 51/53/51 52/54/52 72/75/72 71/74/71
f 52/54/52 53/55/53 73/76/73 72/75/72
f 53/55/53 54/56/54 74/77/74 73/76/73
f 54/56/54 55/57/55 75/78/75 74/77/74
f 55/57/55 56/58/56 76/79/76 75/78/75
f 56/58/56 57/59/57 77/80/77 76/79/76
f 57/59/57 58/60/58 78/81/78 77/80/77
f 58/60/58 59/61/59 79/82/79 78/81/78
f 59/61/59 60/62/60 80/83/80 79/82/79
f 60/62/60 41/63/42 61/84/62 80/83/80
f 61/64/62 62/65/61 82/86/81 81/85/82
f 62/65/61 63/66/63 83/87/83 82/86/81
f 63/66/63 64/67/64 84/88/84 83/87/83
f 64/67/64 65/68/65 85/89/85 84/88/84
f 65/68/65 66/69/66 86/90/86 85/89/85
f 66/69/66 67/70/67 87/91/87 86/90/86
f 67/70/67 68/71/68 88/92/88 87/91/87
f 68/71/68 69/72/69 89/93/89 88/92/88
f 69/72/69 70/73/70 90/94/90 89/93/89
f 70/73/70 71/74/71 91/95/91 90/94/90
f 71/74/71 72/75/72 92/96/92 91/95/91
f 72/75/72 73/76/73 93/97/93 92/96/92
f 73/76/73 74/77/74 94/98/94 93/97/93
f 74/77/74 75/78/75 95/99/95 94/98/94
f 75/78/75 76/79/76 96/100/96 95/99/95
f 76/79/76 77/80/77 97/101/97 96/100/96
f 77/80/77 78/81/78 98/102/98 97/101/97
f 78/81/78 79/82/79 99/103/99 98/102/98
f 79/82/79 80/83/80 100/104/100 99/103/99
f 80/83/80 61/84/62 81/105/82 100/104/100
f 81/85/82 82/86/81 102/107/101 101/106/102
f 82/86/81 83/87/83 103/108/103 102/107/101
f 83/87/83 84/88/84 104/109/104 103/108/103
f 84/88/84 85/89/85 105/110/105 104/109/104
f 85/89/85 86/90/86 106/111/106 105/110/105
f 86/90/86 87/91/87 107/112/107 106/111/106
f 87/91/87 88/92/88 108/113/108 107/112/107
f 88/92/88 89/93/89 109/114/109 108/113/108
f 89/93/89 90/94/90 110/115/110 109/114/109
f 90/94/90 91/95/91 111/116/111 110/115/110
f 91/95/91 92/96/92 112/117/112 111/116/111
f 92/96/92 93/97/93 113/118/113 112/117/112
f 93/97/93 94/98/94 114/119/114 113/118/113
f 94/98/94 95/99/95 115/120/115 114/119/114
f 95/99/95 96/100/96 116/121/116 115/120/115
f 96/100/96 97/101/97 117/122/117 116/121/116
f 97/101/97 98/102/98 118/123/118 117/122/117
f 98/102/98 99/103/99 119/124/119 118/123/118
f 99/103/99 100/104/100 120/125/120 119/124/119
f 100/104/100 81/105/82 101/126/102 120/125/120
f 101/106/102 102/107/101 122/128/121 121/127/122
f 102/107/101 103/108/103 123/129/123 122/128/121
f 103/108/103 104/109/104 124/130/124 123/129/123
f 104/109/104 105/110/105 125/131/125 124/130/124
f 105/110/105 106/111/106 126/132/126 125/131/125
f 106/111/106 107/112/107 127/133/127 126/132/126
f 107/112/107 108/113/108 128/134/128 127/133/127
f 108/113/108 109/114/109 129/135/129 128/134/128
f 109/114/109 110/115/110 130/136/130 129/135/129
f 110/115/110 111/116/111 131/137/131 130/136/130
f 111/116/111 112/117/112 132/138/132 131/137/131
f 112/117/112 113/118/113 133/139/133 132/138/132
f 113/118/113 114/119/114 134/140/134 133/139/133
f 114/119/114 115/120/115 135/141/135 134/140/134
f 115/120/115 116/121/116 136/142/136 135/141/135
f 116/121/116 117/122/117 137/143/137 136/142/136
f 117/122/117 118/123/118 138/144/138 137/143/137
f 118/123/118 119/124/119 139/145/139 138/144/138
f 119/124/119 120/125/120 140/146/140 139/145/139
f 120/125/120 101/126/102 121/147/122 140/146/140
f 121/127/122 122/128/121 142/149/141 141/148/142
f 122/128/121 123/129/123 143/150/143 142/149/141
f 123/129/123 124/130/124 144/151/144 143/150/143
f 124/130/124 125/131/125 145/152/145 144/151/144
f 125/131/125 126/132/126 146/153/146 145/152/145
f 126/132/126 127/133/127 147/154/147 146/153/146
f 127/133/127 128/134/128 148/155/148 147/154/147
f 128/134/128 129/135/129 149/156/149 148/155/148
f 129/135/129 130/136/130 150/157/150 149/156/149
f 130/136/130 131/137/131 151/158/151 150/157/150
f 131/137/131 132/138/132 152/159/152 151/158/151
f 132/138/132 133/139/133 153/160/153 152/159/152
f 133/139/133 134/140/134 154/161/154 153/160/153
f 134/140/134 135/141/135 155/162/155 154/161/154
f 135/141/135 136/142/136 156/163/156 155/162/155
f 136/142/136 137/143/137 157/164/157 156/163/156
f 137/143/137 138/144/138 158/165/158 157/164/157
f 138/144/138 139/145/139 159/166/159 158/165/158
f 139/145/139 140/146/140 160/167/160 159/166/159
f 140/146/140 121/147/122 141/168/142 160/167/160
f 141/148/142 142/149/141 162/170/161 161/169/162
f 142/149/141 143/150/143 163/171/163 162/170/161
f 143/150/143 144/151/144 164/172/164 163/171/163
f 144/151/144 145/152/145 165/173/165 164/172/164
f 145/152/145 146/153/146 166/174/166 165/173/165
f 146/153/146 147/154/147 167/175/167 166/174/166
f 147/154/147 148/155/148 168/176/168 167/175/167
f 148/155/148 149/156/149 169/177/169 168/176/168
f 149/156/149 150/157/150 170/178/170 169/177/169
f 150/157/150 151/158/151 171/179/171 170/178/170
f 151/158/151 152/159/152 172/180/172 171/179/171
f 152/159/152 153/160/153 173/181/173 172/180/172
f 153/160/153 154/161/154 174/182/174 173/181/173
f 154/161/154 155/162/155 175/183/175 174/182/174
f 155/162/155 156/163/156 176/184/176 175/183/175
f 156/163/156 157/164/157 177/185/177 176/184/176
f 157/164/157 158/165/158 178/186/178 177/185/177
f 158/165/158 159/166/159 179/187/179 178/186/178
f 159/166/159 160/167/160 180/188/180 179/187/179
f 160/167/160 141/168/142 161/189/162 180/188/180
f 2/2/2 1/1/1 181/190/181
f 3/3/5 2/2/2 181/191/181
f 4/4/7 3/3/5 181/192/181
f 5/5/9 4/4/7 181/193/181
f 6/6/11 5/5/9 181/194/181
f 7/7/13 6/6/11 181/195/181
f 8/8/15 7/7/13 181/196/181
f 9/9/17 8/8/15 181/197/181
f 10/10/19 9/9/17 181/198/181
f 11/11/21 10/10/19 181/199/181
f 12/12/23 11/11/21 181/200/181
f 13/13/25 12/12/23 181/201/181
f 14/14/27 13/13/25 181/202/181
f 15/15/29 14/14/27 181/203/181
f 16/16/31 15/15/29 181/204/181
f 17/17/33 16/16/31 181/205/181
f 18/18/35 17/17/33 181/206/181
f 19/19/37 18/18/35 181/207/181
f 20/20/39 19/19/37 181/208/181
f 1/21/1 20/20/39 181/209/181
f 161/169/162 162/170/161 182/210/182
f 162/170/161 163/171/163 182/211/182
f 163/171/163 164/172/164 182/212/182
f 164/172/164 165/173/165 182/213/182
f 165/173/165 166/174/166 182/214/182
f 166/174/166 167/175/167 182/215/182
f 167/175/167 168/176/168 182/216/182
f 168/176/168 169/177/169 182/217/182
f 169/177/169 170/178/170 182/218/182
f 170/178/170 171/179/171 182/219/182
f 171/179/171 172/180/172 182/220/182
f 172/180/172 173/181/173 182/221/182
f 173/181/173 174/182/174 182/222/182
f 174/182/174 175/183/175 182/223/182
f 175/183/175 176/184/176 182/224/182
f 176/184/176 177/185/177 182/225/182
f 177/185/177 178/186/178 182/226/182
f 178/186/178 179/187/179 182/227/182
f 179/187/179 180/188/180 182/228/182
f 180/188/180 161/189/162 182/229/182
s 2
f 183/230/183 184/231/184 204/232/185 203/233/186
f 184/231/184 185/234/187 205/235/188 204/232/185
f 185/234/187 186/236/189 206/237/190 205/235/188
f 186/236/189 187/238/191 207/239/192 206/237/190
f 187/238/191 188/240/193 208/241/194 207/239/192
f 188/240/193 189/242/195 209/243/196 208/241/194
f 189/242/195 190/244/197 210/245/198 209/243/196
f 190/244/197 191/246/199 211/247/200 210/245/198
f 191/246/199 192/248/201 212/249/202 211/247/200
f 192/248/201 193/250/203 213/251/204 212/249/202
f 193/250/203 194/252/205 214/253/206 213/251/204
f 194/252/205 195/254/207 215/255/208 214/253/206
f 195/254/207 196/256/209 216/257/210 215/255/208
f 196/256/209 197/258/211 217/259/212 216/257/210
f 197/258/211 198/260/213 218/261/214 217/259/212
f 198/260/213 199/262/215 219/263/216 218/261/214
f 199/262/215 200/264/217 220/265/218 219/263/216
f 200/264/217 201/266/219 221/267/220 220/265/218
f 201/266/219 202/268/221 222/269/222 221/267/220
f 202/268/221 183/270/183 203/271/186 222/269/222
f 203/233/186 204/232/185 224/272/223 223/273/224
f 204/232/185 205/235/188 225/274/225 224/272/223
f 205/235/188 206/237/190 226/275/226 225/274/225
f 206/237/190 207/239/192 227/276/227 226/275/226
f 207/239/192 208/241/194 228/277/228 227/276/227
f 208/241/194 209/243/196 229/278/229 228/277/228
f 209/243/196 210/245/198 230/279/230 229/278/229
f 210/245/198 211/247/200 231/280/231 230/279/230
f 211/247/200 212/249/202 232/281/232 231/280/231
f 212/249/202 213/251/204 233/282/233 232/281/232
f 213/251/204 214/253/206 234/283/234 233/282/233
f 214/253/206 215/255/208 235/284/235 234/283/234
f 215/255/208 216/257/210 236/285/236 235/284/235
f 216/257/210 217/259/212 237/286/237 236/285/236
f 217/259/212 218/261/214 238/287/238 237/286/237
f 218/261/214 219/263/216 239/288/239 238/287/238
f 219/263/216 220/265/218 240/289/240 239/288/239
f 220/265/218 221/267/220 241/290/241 240/289/240
f 221/267/220 222/269/222 242/291/242 241/290/241
f 222/269/222 203/271/186 223/292/224 242/291/242
f 223/273/224 224/272/223 244/293/243 243/294/244
f 224/272/223 225/274/225 245/295/245 244/293/243
f 225/274/225 226/275/226 246/296/246 245/295/245
f 226/275/226 227/276/227 247/297/247 246/296/246
f 227/276/227 228/277/228 248/298/248 247/297/247
f 228/277/228 229/278/229 249/299/249 248/298/248
f 229/278/229 230/279/230 250/300/250 249/299/249
f 230/279/230 231/280/231 251/301/251 250/300/250
f 231/280/231 232/281/232 252/302/252 251/301/251
f 232/281/232 233/282/233 253/303/253 252/302/252
f 233/282/233 234/283/234 254/304/254 253/303/253
f 234/283/234 235/284/235 255/305/255 254/304/254
f 235/284/235 236/285/236 256/306/256 255/305/255
f 236/285/236 237/286/237 257/307/257 256/306/256
f 237/286/237 238/287/238 258/308/258 257/307/257
f 238/287/238 239/288/239 259/309/259 258/308/258
f 239/288/239 240/289/240 260/310/260 259/309/259
f 240/289/240 241/290/241 261/311/261 260/310/260
f 241/290/241 242/291/242 262/312/262 261/311/261
f 242/291/242 223/292/224 243/313/244 262/312/262
f 243/294/244 244/293/243 264/314/263 263/315/264
f 244/293/243 245/295/245 265/316/265 264/314/263
f 245/295/245 246/296/246 266/317/266 265/316/265
f 246/296/246 247/297/247 267/318/267 266/317/266
f 247/297/247 248/298/248 268/319/268 267/318/267
f 248/298/248 249/299/249 269/320/269 268/319/268
f 249/299/249 250/300/250 270/321/270 269/320/269
f 250/300/250 251/301/251 271/322/271 270/321/270
f 251/301/251 252/302/252 272/323/272 271/322/271
f 252/302/252 253/303/253 273/324/273 272/323/272
f 253/303/253 254/304/254 274/325/274 273/324/273
f 254/304/254 255/305/255 275/326/275 274/325/274
f 255/305/255 256/306/256 276/327/276 275/326/275
f 256/306/256 257/307/257 277/328/277 276/327/276
f 257/307/257 258/308/258 278/329/278 277/328/277
f 258/308/258 259/309/259 279/330/279 278/329/278
f 259/309/259 260/310/260 280/331/280 279/330/279
f 260/310/260 261/311/261 281/332/281 280/331/280
f 261/311/261 262/312/262 282/333/282 281/332/281
f 262/312/262 243/313/244 263/334/264 282/333/282
f 263/315/264 264/314/263 284/335/283 283/336/284
f 264/314/263 265/316/265 285/337/285 284/335/283
f 265/316/265 266/317/266 286/338/286 285/337/285
f 266/317/266 267/318/267 287/339/287 286/338/286
f 267/318/267 268/319/268 288/340/288 287/339/287
f 268/319/268 269/320/269 289/341/289 288/340/288
f 269/320/269 270/321/270 290/342/290 289/341/289
f 270/321/270 271/322/271 291/343/291 290/342/290
f 271/322/271 272/323/272 292/344/292 291/343/291
f 272/323/272 273/324/273 293/345/293 292/344/292
f 273/324/273 274/325/274 294/346/294 293/345/293
f 274/325/274 275/326/275 295/347/295 294/346/294
f 275/326/275 276/327/276 296/348/296 295/347/295
f 276/327/276 277/328/277 297/349/297 296/348/296
f 277/328/277 278/329/278 298/350/298 297/349/297
f 278/329/278 279/330/279 299/351/299 298/350/298
f 279/330/279 280/331/280 300/352/300 299/351/299
f 280/331/280 281/332/281 301/353/301 300/352/300
f 281/332/281 282/333/282 302/354/302 301/353/301
f 282/333/282 263/334/264 283/355/284 302/354/302
f 283/336/284 284/335/283 304/356/303 303/357/304
f 284/335/283 285/337/285 305/358/305 304/356/303
f 285/337/285 286/338/286 306/359/306 305/358/305
f 286/338/286 287/339/287 307/360/307 306/359/306
f 287/339/287 288/340/288 308/361/308 307/360/307
f 288/340/288 289/341/289 309/362/309 308/361/308
f 289/341/289 290/342/290 310/363/310 309/362/309
f 290/342/290 291/343/291 311/364/311 310/363/310
f 291/343/291 292/344/292 312/365/312 311/364/311
f 292/344/292 293/345/293 313/366/313 312/365/312
f 293/345/293 294/346/294 314/367/314 313/366/313
f 294/346/294 295/347/295 315/368/315 314/367/314
f 295/347/295 296/348/296 316/369/316 315/368/315
f 296/348/296 297/349/297 317/370/317 316/369/316
f 297/349/297 298/350/298 318/371/318 317/370/317
f 298/350/298 299/351/299 319/372/319 318/371/318
f 299/351/299 300/352/300 320/373/320 319/372/319
f 300/352/300 301/353/301 321/374/321 320/373/320
f 301/353/301 302/354/302 322/375/322 321/374/321
f 302/354/302 283/355/284 303/376/304 322/375/322
f 303/357/304 304/356/303 324/377/323 323/378/324
f 304/356/303 305/358/305 325/379/325 324/377/323
f 305/358/305 306/359/306 326/380/326 325/379/325
f 306/359/306 307/360/307 327/381/327 326/380/326
f 307/360/307 308/361/308 328/382/328 327/381/327
f 308/361/308 309/362/309 329/383/329 328/382/328
f 309/362/309 310/363/310 330/384/330 329/383/329
f 310/363/310 311/364/311 331/385/331 330/384/330
f 311/364/311 312/365/312 332/386/332 331/385/331
f 312/365/312 313/366/313 333/387/333 332/386/332
f 313/366/313 314/367/314 334/388/334 333/387/333
f 314/367/314 315/368/315 335/389/335 334/388/334
f 315/368/315 316/369/316 336/390/336 335/389/335
f 316/369/316 317/370/317 337/391/337 336/390/336
f 317/370/317 318/371/318 338/392/338 337/391/337
f 318/371/318 319/372/319 339/393/339 338/392/338
f 319/372/319 320/373/320 340/394/340 339/393/339
f 320/373/320 321/374/321 341/395/341 340/394/340
f 321/374/321 322/375/322 342/396/342 341/395/341
f 322/375/322 303/376/304 323/397/324 342/396/342
f 323/378/324 324/377/323 344/398/343 343/399/344
f 324/377/323 325/379/325 345/400/345 344/398/343
f 325/379/325 326/380/326 346/401/346 345/400/345
f 326/380/326 327/381/327 347/402/347 346/401/346
f 327/381/327 328/382/328 348/403/348 347/402/347
f 328/382/328 329/383/329 349/404/349 348/403/348
f 329/383/329 330/384/330 350/405/350 349/404/349
f 330/384/330 331/385/331 351/406/351 350/405/350
f 331/385/331 332/386/332 352/407/352 351/406/351
f 332/386/332 333/387/333 353/408/353 352/407/352
f 333/387/333 334/388/334 354/409/354 353/408/353
f 334/388/334 335/389/335 355/410/355 354/409/354
f 335/389/335 336/390/336 356/411/356 355/410/355
f 336/390/336 337/391/337 357/412/357 356/411/356
f 337/391/337 338/392/338 358/413/358 357/412/357
f 338/392/338 339/393/339 359/414/359 358/413/358
f 339/393/339 340/394/340 360/415/360 359/414/359
f 340/394/340 341/395/341 361/416/361 360/415/360
f 341/395/341 342/396/342 362/417/362 361/416/361
f 342/396/342 323/397/324 343/418/344 362/417/362
f 184/231/184 183/230/183 363/419/363
f 185/234/187 184/231/184 363/420/363
f 186/236/189 185/234/187 363/421/363
f 187/238/191 186/236/189 363/422/363
f 188/240/193 187/238/191 363/423/363
f 189/242/195 188/240/193 363/424/363
f 190/244/197 189/242/195 363/425/363
f 191/246/199 190/244/197 363/426/363
f 192/248/201 191/246/199 363/427/363
f 193/250/203 192/248/201 363/428/363
f 194/252/205 193/250/203 363/429/363
f 195/254/207 194/252/205 363/430/363
f 196/256/209 195/254/207 363/431/363
f 197/258/211 196/256/209 363/432/363
f 198/260/213 197/258/211 363/433/363
f 199/262/215 198/260/213 363/434/363
f 200/264/217 199/262/215 363/435/363
f 201/266/219 200/264/217 363/436/363
f 202/268/221 201/266/219 363/437/363
f 183/270/183 202/268/221 363/438/363
f 343/399/344 344/398/343 364/439/364
f 344/398/343 345/400/345 364/440/364
f 345/400/345 346/401/346 364/441/364
f 346/401/346 347/402/347 364/442/364
f 347/402/347 348/403/348 364/443/364
f 348/403/348 349/404/349 364/444/364
f 349/404/349 350/405/350 364/445/364
f 350/405/350 351/406/351 364/446/364
f 351/406/351 352/407/352 364/447/364
f 352/407/352 353/408/353 364/448/364
f 353/408/353 354/409/354 364/449/364
f 354/409/354 355/410/355 364/450/364
f 355/410/355 356/411/356 364/451/364
f 356/411/356 357/412/357 364/452/364
f 357/412/357 358/413/358 364/453/364
f 358/413/358 359/414/359 364/454/364
f 359/414/359 360/415/360 364/455/364
f 360/415/360 361/416/361 364/456/364
f 361/416/361 362/417/362 364/457/364
f 362/417/362 343/418/344 364/458/364
s 3
f 365/459/365 366/460/366 386/461/367 385/462/368
f 366/460/366 367/463/369 387/464/370 386/461/367
f 367/463/369 368/465/371 388/466/372 387/464/370
f 368/465/371 369/467/373 389/468/374 388/466/372
f 369/467/373 370/469/375 390/470/376 389/468/374
f 370/469/375 371/471/377 391/472/378 390/470/376
f 371/471/377 372/473/379 392/474/380 391/472/378
f 372/473/379 373/475/381 393/476/382 392/474/380
f 373/475/381 374/477/383 394/478/384 393/476/382
f 374/477/383 375/479/385 395/480/386 394/478/384
f 375/479/385 376/481/387 396/482/388 395/480/386
f 376/481/387 377/483/389 397/484/390 396/482/388
f 377/483/389 378/485/391 398/486/392 397/484/390
f 378/485/391 379/487/393 399/488/394 398/486/392
f 379/487/393 380/489/395 400/490/396 399/488/394
f 380/489/395 381/491/397 401/492/398 400/490/396
f 381/491/397 382/493/399 402/494/400 401/492/398
f 382/493/399 383/495/401 403/496/402 402/494/400
f 383/495/401 384/497/403 404/498/404 403/496/402
f 384/497/403 365/499/365 385/500/368 404/498/404
f 385/462/368 386/461/367 406/501/405 405/502/406
f 386/461/367 387/464/370 407/503/407 406/501/405
f 387/464/370 388/466/372 408/504/408 407/503/407
f 388/466/372 389/468/374 409/505/409 408/504/408
f 389/468/374 390/470/376 410/506/410 409/505/409
f 390/470/376 391/472/378 411/507/411 410/506/410
f 391/472/378 392/474/380 412/508/412 411/507/411
f 392/474/380 393/476/382 413/509/413 412/508/412
f 393/476/382 394/478/384 414/510/414 413/509/413
f 394/478/384 395/480/386 415/511/415 414/510/414
f 395/480/386 396/482/388 416/512/416 415/511/415
f 396/482/388 397/484/390 417/513/417 416/512/416
f 397/484/390 398/486/392 418/514/418 417/513/417
f 398/486/392 399/488/394 419/515/419 418/514/418
f 399/488/394 400/490/396 420/516/420 419/515/419
f 400/490/396 401/492/398 421/517/421 420/516/420
f 401/492/398 402/494/400 422/518/422 421/517/421
f 402/494/400 403/496/402 423/519/423 422/518/422
f 403/496/402 404/498/404 424/520/424 423/519/423
f 404/498/404 385/500/368 405/521/406 424/520/424
f 405/502/406 406/501/405 426/522/425 425/523/426
f 406/501/405 407/503/407 427/524/427 426/522/425
f 407/503/407 408/504/408 428/525/428 427/524/427
f 408/504/408 409/505/409 429/526/429 428/525/428
f 409/505/409 410/506/410 430/527/430 429/526/429
f 410/506/410 411/507/411 431/528/431 430/527/430
f 411/507/411 412/508/412 432/529/432 431/528/431
f 412/508/412 413/509/413 433/530/433 432/529/432
f 413/509/413 414/510/414 434/531/434 433/530/433
f 414/510/414 415/511/415 435/532/435 434/531/434
f 415/511/415 416/512/416 436/533/436 435/532/435
f 416/512/416 417/513/417 437/534/437 436/533/436
f 417/513/417 418/514/418 438/535/438 437/534/437
f 418/514/418 419/515/419 439/536/439 438/535/438
f 419/515/419 420/516/420 440/537/440 439/536/439
f 420/516/420 421/517/421 441/538/441 440/537/440
f 421/517/421 422/518/422 442/539/442 441/538/441
f 422/518/422 423/519/423 443/540/443 442/539/442
f 423/519/423 424/520/424 444/541/444 443/540/443
f 424/520/424 405/521/406 425/542/426 444/541/444
f 425/523/426 426/522/425 446/543/445 445/544/446
f 426/522/425 427/524/427 447/545/447 446/543/445
f 427/524/427 428/525/428 448/546/448 447/545/447
f 428/525/428 429/526/429 449/547/449 448/546/448
f 429/526/429 430/527/430 450/548/450 449/547/449
f 430/527/430 431/528/431 451/549/451 450/548/450
f 431/528/431 432/529/432 452/550/452 451/549/451
f 432/529/432 433/530/433 453/551/453 452/550/452
f 433/530/433 434/531/434 454/552/454 453/551/453
f 434/531/434 435/532/435 455/553/455 454/552/454
f 435/532/435 436/533/436 456/554/456 455/553/455
f 436/533/436 437/534/437 457/555/457 456/554/456
f 437/534/437 438/535/438 458/556/458 457/555/457
f 438/535/438 439/536/439 459/557/459 458/556/458
f 439/536/439 440/537/440 460/558/460 459/557/459
f 440/537/440 441/538/441 461/559/461 460/558/460
f 441/538/441 442/539/442 462/560/462 461/559/461
f 442/539/442 443/540/443 463/561/463 462/560/462
f 443/540/443 444/541/444 464/562/464 463/561/463
f 444/541/444 425/542/426 445/563/446 464/562/464
f 445/544/446 446/543/445 466/564/465 465/565/466
f 446/543/445 447/545/447 467/566/467 466/564/465
f 447/545/447 448/546/448 468/567/468 467/566/467
f 448/546/448 449/547/449 469/568/469 468/567/468
f 449/547/449 450/548/450 470/569/470 469/568/469
f 450/548/450 451/549/451 471/570/471 470/569/470
f 451/549/451 452/550/452 472/571/472 471/570/471
f 452/550/452 453/551/453 473/572/473 472/571/472
f 453/551/453 454/552/454 474/573/474 473/572/473
f 454/552/454 455/553/455 475/574/475 474/573/474
f 455/553/455 456/554/456 476/575/476 475/574/475
f 456/554/456 457/555/457 477/576/477 476/575/476
f 457/555/457 458/556/458 478/577/478 477/576/477
f 458/556/458 459/557/459 479/578/479 478/577/478
f 459/557/459 460/558/460 480/579/480 479/578/479
f 460/558/460 461/559/461 481/580/481 480/579/480
f 461/559/461 462/560/462 482/581/482 481/580/481
f 462/560/462 463/561/463 483/582/483 482/581/482
f 463/561/463 464/562/464 484/583/484 483/582/483
f 464/562/464 445/563/446 465/584/466 484/583/484
f 465/565/466 466/564/465 486/585/485 485/586/486
f 466/564/465 467/566/467 487/587/487 486/585/485
f 467/566/467 468/567/468 488/588/488 487/587/487
f 468/567/468 469/568/469 489/589/489 488/588/488
f 469/568/469 470/569/470 490/590/490 489/589/489
f 470/569/470 471/570/471 491/591/491 490/590/490
f 471/570/471 472/571/472 492/592/492 491/591/491
f 472/571/472 473/572/473 493/593/493 492/592/492
f 473/572/473 474/573/474 494/594/494 493/593/493
f 474/573/474 475/574/475 495/595/495 494/594/494
f 475/574/475 476/575/476 496/596/496 495/595/495
f 476/575/476 477/576/477 497/597/497 496/596/496
f 477/576/477 478/577/478 498/598/498 497/597/497
f 478/577/478 479/578/479 499/599/499 498/598/498
f 479/578/479 480/579/480 500/600/500 499/599/499
f 480/579/480 481/580/481 501/601/501 500/600/500
f 481/580/481 482/581/482 502/602/502 501/601/501
f 482/581/482 483/582/483 503/603/503 502/602/502
f 483/582/483 484/583/484 504/604/504 503/603/503
f 484/583/484 465/584/466 485/605/486 504/604/504
f 485/586/486 486/585/485 506/606/505 505/607/506
f 486/585/485 487/587/487 507/608/507 506/606/505
f 487/587/487 488/588/488 508/609/508 507/608/507
f 488/588/488 489/589/489 509/610/509 508/609/508
f 489/589/489 490/590/490 510/611/510 509/610/509
f 490/590/490 491/591/491 511/612/511 510/611/510
f 491/591/491 492/592/492 512/613/512 511/612/511
f 492/592/492 493/593/493 513/614/513 512/613/512
f 493/593/493 494/594/494 514/615/514 513/614/513
f 494/594/494 495/595/495 515/616/515 514/615/514
f 495/595/495 496/596/496 516/617/516 515/616/515
f 496/596/496 497/597/497 517/618/517 516/617/516
f 497/597/497 498/598/498 518/619/518 517/618/517
f 498/598/498 499/599/499 519/620/519 518/619/518
f 499/599/499 500/600/500 520/621/520 519/620/519
f 500/600/500 501/601/501 521/622/521 520/621/520
f 501/601/501 502/602/502 522/623/522 521/622/521
f 502/602/502 503/603/503 523/624/523 522/623/522
f 503/603/503 504/604/504 524/625/524 523/624/523
f 504/604/504 485/605/486 505/626/506 524/625/524
f 505/607/506 506/606/505 526/627/525 525/628/526
f 506/606/505 507/608/507 527/629/527 526/627/525
f 507/608/507 508/609/508 528/630/528 527/629/527
f 508/609/508 509/610/509 529/631/529 528/630/528
f 509/610/509 510/611/510 530/632/530 529/631/529
f 510/611/510 511/612/511 531/633/531 530/632/530
f 511/612/511 512/613/512 532/634/532 531/633/531
f 512/613/512 513/614/513 533/635/533 532/634/532
f 513/614/513 514/615/514 534/636/534 533/635/533
f 514/615/514 515/616/515 535/637/535 534/636/534
f 515/616/515 516/617/516 536/638/536 535/637/535
f 516/617/516 517/618/517 537/639/537 536/638/536
f 517/618/517 518/619/518 538/640/538 537/639/537
f 518/619/518 519/620/519 539/641/539 538/640/538
f 519/620/519 520/621/520 540/642/540 539/641/539
f 520/621/520 521/622/521 541/643/541 540/642/540
f 521/622/521 522/623/522 542/644/542 541/643/541
f 522/623/522 523/624/523 543/645/543 542/644/542
f 523/624/523 524/625/524 544/646/544 543/645/543
f 524/625/524 505/626/506 525/647/526 544/646/544
f 366/460/366 365/459/365 545/648/545
f 367/463/369 366/460/366 545/649/545
f 368/465/371 367/463/369 545/650/545
f 369/467/373 368/465/371 545/651/545
f 370/469/375 369/467/373 545/652/545
f 371/471/377 370/469/375 545/653/545
f 372/473/379 371/471/377 545/654/545
f 373/475/381 372/473/379 545/655/545
f 374/477/383 373/475/381 545/656/545
f 375/479/385 374/477/383 545/657/545
f 376/481/387 375/479/385 545/658/545
f 377/483/389 376/481/387 545/659/545
f 378/485/391 377/483/389 545/660/545
f 379/487/393 378/485/391 545/661/545
f 380/489/395 379/487/393 545/662/545
f 381/491/397 380/489/395 545/663/545
f 382/493/399 381/491/397 545/664/545
f 383/495/401 382/493/399 545/665/545
f 384/497/403 383/495/401 545/666/545
f 365/499/365 384/497/403 545/667/545
f 525/628/526 526/627/525 546/668/546
f 526/627/525 527/629/527 546/669/546
f 527/629/527 528/630/528 546/670/546
f 528/630/528 529/631/529 546/671/546
f 529/631/529 530/632/530 546/672/546
f 530/632/530 531/633/531 546/673/546
f 531/633/531 532/634/532 546/674/546
f 532/634/532 533/635/533 546/675/546
f 533/635/533 534/636/534 546/676/546
f 534/636/534 535/637/535 546/677/546
f 535/637/535 536/638/536 546/678/546
f 536/638/536 537/639/537 546/679/546
f 537/639/537 538/640/538 546/680/546
f 538/640/538 539/641/539 546/681/546
f 539/641/539 540/642/540 546/682/546
f 540/642/540 541/643/541 546/683/546
f 541/643/541 542/644/542 546/684/546
f 542/644/542 543/645/543 546/685/546
f 543/645/543 544/646/544 546/686/546
f 544/646/544 525/647/526 546/687/546
