# This file uses centimeters as units for non-parametric coordinates.

mtllib SeedV3.mtl
g default
v -0.080253 0.077885 -0.437948
v -0.082986 0.084329 -0.435250
v -0.087244 0.089443 -0.431049
v -0.092608 0.092726 -0.425755
v -0.098555 0.093858 -0.419886
v -0.104501 0.092726 -0.414018
v -0.109866 0.089443 -0.408724
v -0.114123 0.084329 -0.404522
v -0.116856 0.077885 -0.401825
v -0.117798 0.070742 -0.400895
v -0.116856 0.063598 -0.401825
v -0.114123 0.057154 -0.404522
v -0.109866 0.052040 -0.408724
v -0.104501 0.048757 -0.414018
v -0.098555 0.047625 -0.419886
v -0.092608 0.048757 -0.425755
v -0.087244 0.052040 -0.431049
v -0.082986 0.057154 -0.435250
v -0.080253 0.063598 -0.437948
v -0.079311 0.070742 -0.438877
v -0.082054 0.083791 -0.470038
v -0.087047 0.095563 -0.465110
v -0.094824 0.104905 -0.457435
v -0.104624 0.110903 -0.447764
v -0.115487 0.112970 -0.437043
v -0.126350 0.110903 -0.426323
v -0.136149 0.104905 -0.416652
v -0.143927 0.095563 -0.408976
v -0.148920 0.083791 -0.404049
v -0.150640 0.070742 -0.402351
v -0.148920 0.057692 -0.404049
v -0.143927 0.045920 -0.408976
v -0.136149 0.036578 -0.416652
v -0.126350 0.030580 -0.426323
v -0.115487 0.028513 -0.437043
v -0.104624 0.030580 -0.447764
v -0.094824 0.036578 -0.457435
v -0.087047 0.045920 -0.465110
v -0.082054 0.057692 -0.470038
v -0.080333 0.070742 -0.471736
v -0.071574 0.085491 -0.468130
v -0.077217 0.098796 -0.462560
v -0.086008 0.109356 -0.453885
v -0.097084 0.116135 -0.442954
v -0.109362 0.118471 -0.430837
v -0.121640 0.116135 -0.418720
v -0.132717 0.109356 -0.407789
v -0.141507 0.098796 -0.399114
v -0.147150 0.085491 -0.393545
v -0.149095 0.070742 -0.391625
v -0.147150 0.055992 -0.393545
v -0.141507 0.042687 -0.399114
v -0.132717 0.032128 -0.407789
v -0.121640 0.025348 -0.418720
v -0.109362 0.023012 -0.430837
v -0.097084 0.025348 -0.442954
v -0.086008 0.032128 -0.453885
v -0.077217 0.042687 -0.462560
v -0.071574 0.055992 -0.468130
v -0.069629 0.070742 -0.470049
v 0.017339 0.091392 -0.408276
v 0.009438 0.110021 -0.400478
v -0.002869 0.124805 -0.388332
v -0.018377 0.134297 -0.373028
v -0.035568 0.137568 -0.356062
v -0.052759 0.134297 -0.339097
v -0.068267 0.124805 -0.323793
v -0.080574 0.110021 -0.311647
v -0.088475 0.091392 -0.303849
v -0.091198 0.070742 -0.301162
v -0.088475 0.050091 -0.303849
v -0.080574 0.031462 -0.311647
v -0.068267 0.016678 -0.323793
v -0.052759 0.007186 -0.339097
v -0.035568 0.003916 -0.356062
v -0.018377 0.007186 -0.373028
v -0.002869 0.016678 -0.388332
v 0.009438 0.031462 -0.400478
v 0.017339 0.050091 -0.408276
v 0.020062 0.070742 -0.410963
v 0.112903 0.093858 -0.324078
v 0.104058 0.114711 -0.315349
v 0.090281 0.131260 -0.301753
v 0.072921 0.141886 -0.284621
v 0.053678 0.145547 -0.265630
v 0.034435 0.141886 -0.246639
v 0.017075 0.131260 -0.229507
v 0.003298 0.114711 -0.215911
v -0.005547 0.093858 -0.207182
v -0.008595 0.070742 -0.204174
v -0.005547 0.047625 -0.207182
v 0.003298 0.026772 -0.215911
v 0.017075 0.010223 -0.229507
v 0.034435 -0.000403 -0.246639
v 0.053678 -0.004064 -0.265630
v 0.072921 -0.000403 -0.284621
v 0.090281 0.010223 -0.301753
v 0.104058 0.026772 -0.315349
v 0.112903 0.047625 -0.324078
v 0.115951 0.070742 -0.327086
v -0.109208 0.070742 -0.430681
v 0.181308 0.077885 -0.099698
v 0.184041 0.084329 -0.102395
v 0.188298 0.089443 -0.106597
v 0.193663 0.092726 -0.111891
v 0.199609 0.093858 -0.117759
v 0.205556 0.092726 -0.123628
v 0.210920 0.089443 -0.128922
v 0.215178 0.084329 -0.133123
v 0.217911 0.077885 -0.135821
v 0.218853 0.070742 -0.136750
v 0.217911 0.063598 -0.135821
v 0.215178 0.057154 -0.133123
v 0.210920 0.052040 -0.128922
v 0.205556 0.048757 -0.123628
v 0.199609 0.047625 -0.117759
v 0.193663 0.048757 -0.111891
v 0.188298 0.052040 -0.106597
v 0.184041 0.057154 -0.102395
v 0.181308 0.063598 -0.099698
v 0.180366 0.070742 -0.098768
v 0.183108 0.083791 -0.067608
v 0.188102 0.095563 -0.072535
v 0.195879 0.104905 -0.080211
v 0.205678 0.110903 -0.089882
v 0.216541 0.112970 -0.100602
v 0.227404 0.110903 -0.111323
v 0.237204 0.104905 -0.120994
v 0.244981 0.095563 -0.128669
v 0.249974 0.083791 -0.133597
v 0.251695 0.070742 -0.135295
v 0.249974 0.057692 -0.133597
v 0.244981 0.045920 -0.128669
v 0.237204 0.036578 -0.120994
v 0.227404 0.030580 -0.111323
v 0.216541 0.028513 -0.100602
v 0.205678 0.030580 -0.089882
v 0.195879 0.036578 -0.080211
v 0.188102 0.045920 -0.072535
v 0.183108 0.057692 -0.067608
v 0.181388 0.070742 -0.065910
v 0.172628 0.085491 -0.069515
v 0.178272 0.098796 -0.075085
v 0.187062 0.109356 -0.083760
v 0.198139 0.116135 -0.094691
v 0.210417 0.118471 -0.106808
v 0.222695 0.116135 -0.118925
v 0.233771 0.109356 -0.129856
v 0.242562 0.098796 -0.138531
v 0.248205 0.085491 -0.144101
v 0.250150 0.070742 -0.146020
v 0.248205 0.055992 -0.144101
v 0.242562 0.042687 -0.138531
v 0.233771 0.032128 -0.129856
v 0.222695 0.025348 -0.118925
v 0.210417 0.023012 -0.106808
v 0.198139 0.025348 -0.094691
v 0.187062 0.032128 -0.083760
v 0.178272 0.042687 -0.075085
v 0.172629 0.055992 -0.069515
v 0.170684 0.070742 -0.067596
v 0.083715 0.091392 -0.129370
v 0.091617 0.110021 -0.137168
v 0.103924 0.124805 -0.149313
v 0.119432 0.134297 -0.164618
v 0.136623 0.137568 -0.181583
v 0.153813 0.134297 -0.198548
v 0.169321 0.124805 -0.213853
v 0.181628 0.110021 -0.225999
v 0.189530 0.091392 -0.233797
v 0.192253 0.070742 -0.236484
v 0.189530 0.050091 -0.233797
v 0.181628 0.031462 -0.225999
v 0.169321 0.016678 -0.213853
v 0.153813 0.007186 -0.198548
v 0.136623 0.003916 -0.181583
v 0.119432 0.007186 -0.164618
v 0.103924 0.016678 -0.149313
v 0.091617 0.031462 -0.137168
v 0.083715 0.050091 -0.129370
v 0.080993 0.070742 -0.126683
v 0.210263 0.070742 -0.106964
v 0.152485 0.077885 0.028196
v 0.148914 0.084329 0.026783
v 0.143352 0.089443 0.024584
v 0.136343 0.092726 0.021812
v 0.128574 0.093858 0.018740
v 0.120804 0.092726 0.015668
v 0.113796 0.089443 0.012896
v 0.108233 0.084329 0.010697
v 0.104662 0.077885 0.009285
v 0.103432 0.070742 0.008798
v 0.104662 0.063598 0.009285
v 0.108233 0.057154 0.010697
v 0.113796 0.052040 0.012896
v 0.120804 0.048757 0.015668
v 0.128574 0.047625 0.018740
v 0.136343 0.048757 0.021812
v 0.143352 0.052040 0.024584
v 0.148914 0.057154 0.026783
v 0.152485 0.063598 0.028196
v 0.153716 0.070742 0.028682
v 0.181119 0.083791 0.013597
v 0.174595 0.095563 0.011017
v 0.164434 0.104905 0.006999
v 0.151631 0.110903 0.001936
v 0.137438 0.112970 -0.003676
v 0.123245 0.110903 -0.009288
v 0.110441 0.104905 -0.014351
v 0.100280 0.095563 -0.018369
v 0.093757 0.083791 -0.020949
v 0.091509 0.070742 -0.021838
v 0.093757 0.057692 -0.020949
v 0.100280 0.045920 -0.018369
v 0.110441 0.036578 -0.014351
v 0.123245 0.030580 -0.009288
v 0.137438 0.028513 -0.003676
v 0.151631 0.030580 0.001936
v 0.164434 0.036578 0.006999
v 0.174595 0.045920 0.011017
v 0.181119 0.057692 0.013597
v 0.183367 0.070742 0.014486
v 0.183603 0.085491 0.023955
v 0.176229 0.098796 0.021040
v 0.164745 0.109356 0.016498
v 0.150273 0.116135 0.010776
v 0.134231 0.118471 0.004432
v 0.118190 0.116135 -0.001911
v 0.103718 0.109356 -0.007634
v 0.092234 0.098796 -0.012175
v 0.084860 0.085491 -0.015091
v 0.082319 0.070742 -0.016096
v 0.084860 0.055992 -0.015091
v 0.092234 0.042687 -0.012175
v 0.103718 0.032128 -0.007634
v 0.118190 0.025348 -0.001911
v 0.134231 0.023012 0.004432
v 0.150273 0.025348 0.010776
v 0.164745 0.032128 0.016498
v 0.176229 0.042687 0.021040
v 0.183603 0.055992 0.023955
v 0.186144 0.070742 0.024960
v 0.164724 0.091392 0.129462
v 0.154401 0.110021 0.125380
v 0.138321 0.124805 0.119021
v 0.118059 0.134297 0.111009
v 0.095599 0.137568 0.102128
v 0.073139 0.134297 0.093246
v 0.052878 0.124805 0.085234
v 0.036798 0.110021 0.078876
v 0.026474 0.091392 0.074793
v 0.022917 0.070742 0.073387
v 0.026474 0.050091 0.074793
v 0.036798 0.031462 0.078876
v 0.052878 0.016678 0.085234
v 0.073139 0.007186 0.093246
v 0.095599 0.003916 0.102128
v 0.118059 0.007186 0.111009
v 0.138321 0.016678 0.119021
v 0.154401 0.031462 0.125380
v 0.164724 0.050091 0.129462
v 0.168282 0.070742 0.130869
v 0.126257 0.093858 0.250878
v 0.114700 0.114711 0.246308
v 0.096701 0.131260 0.239191
v 0.074020 0.141886 0.230222
v 0.048878 0.145547 0.220280
v 0.023736 0.141886 0.210338
v 0.001055 0.131260 0.201369
v -0.016945 0.114711 0.194252
v -0.028501 0.093858 0.189682
v -0.032483 0.070742 0.188107
v -0.028501 0.047625 0.189682
v -0.016945 0.026772 0.194252
v 0.001055 0.010223 0.201369
v 0.023736 -0.000403 0.210338
v 0.048878 -0.004064 0.220280
v 0.074020 -0.000403 0.230222
v 0.096701 0.010223 0.239191
v 0.114700 0.026772 0.246308
v 0.126257 0.047625 0.250878
v 0.130239 0.070742 0.252453
v 0.134151 0.070742 0.004636
v -0.051430 0.077885 0.404022
v -0.047859 0.084329 0.405434
v -0.042297 0.089443 0.407634
v -0.035288 0.092726 0.410405
v -0.027519 0.093858 0.413477
v -0.019750 0.092726 0.416550
v -0.012741 0.089443 0.419321
v -0.007179 0.084329 0.421521
v -0.003607 0.077885 0.422933
v -0.002377 0.070742 0.423419
v -0.003607 0.063598 0.422933
v -0.007179 0.057154 0.421521
v -0.012741 0.052040 0.419321
v -0.019750 0.048757 0.416550
v -0.027519 0.047625 0.413477
v -0.035288 0.048757 0.410405
v -0.042297 0.052040 0.407634
v -0.047859 0.057154 0.405434
v -0.051430 0.063598 0.404022
v -0.052661 0.070742 0.403535
v -0.080064 0.083791 0.418621
v -0.073540 0.095563 0.421200
v -0.063379 0.104905 0.425218
v -0.050576 0.110903 0.430281
v -0.036383 0.112970 0.435894
v -0.022190 0.110903 0.441506
v -0.009387 0.104905 0.446569
v 0.000774 0.095563 0.450587
v 0.007298 0.083791 0.453167
v 0.009546 0.070742 0.454056
v 0.007298 0.057692 0.453167
v 0.000774 0.045920 0.450587
v -0.009387 0.036578 0.446569
v -0.022190 0.030580 0.441506
v -0.036383 0.028513 0.435894
v -0.050576 0.030580 0.430281
v -0.063379 0.036578 0.425218
v -0.073540 0.045920 0.421200
v -0.080064 0.057692 0.418621
v -0.082312 0.070742 0.417732
v -0.082548 0.085491 0.408262
v -0.075175 0.098796 0.411178
v -0.063690 0.109356 0.415719
v -0.049219 0.116135 0.421442
v -0.033177 0.118471 0.427785
v -0.017135 0.116135 0.434129
v -0.002663 0.109356 0.439851
v 0.008821 0.098796 0.444393
v 0.016195 0.085491 0.447309
v 0.018736 0.070742 0.448313
v 0.016195 0.055992 0.447309
v 0.008821 0.042687 0.444393
v -0.002663 0.032128 0.439851
v -0.017135 0.025348 0.434129
v -0.033177 0.023012 0.427785
v -0.049219 0.025348 0.421442
v -0.063690 0.032128 0.415719
v -0.075175 0.042687 0.411178
v -0.082548 0.055992 0.408262
v -0.085089 0.070742 0.407257
v -0.063670 0.091392 0.302755
v -0.053346 0.110021 0.306838
v -0.037266 0.124805 0.313196
v -0.017005 0.134297 0.321208
v 0.005455 0.137568 0.330090
v 0.027915 0.134297 0.338971
v 0.048177 0.124805 0.346983
v 0.064257 0.110021 0.353342
v 0.074580 0.091392 0.357424
v 0.078138 0.070742 0.358831
v 0.074580 0.050091 0.357424
v 0.064257 0.031462 0.353342
v 0.048177 0.016678 0.346983
v 0.027915 0.007186 0.338971
v 0.005455 0.003916 0.330090
v -0.017005 0.007186 0.321208
v -0.037266 0.016678 0.313196
v -0.053346 0.031462 0.306838
v -0.063670 0.050091 0.302755
v -0.067227 0.070742 0.301349
v -0.033096 0.070742 0.427582
v -0.175256 0.077885 -0.199731
v -0.179096 0.084329 -0.199731
v -0.185078 0.089443 -0.199731
v -0.192615 0.092726 -0.199731
v -0.200969 0.093858 -0.199731
v -0.209324 0.092726 -0.199731
v -0.216861 0.089443 -0.199731
v -0.222842 0.084329 -0.199731
v -0.226682 0.077885 -0.199731
v -0.228005 0.070742 -0.199731
v -0.226682 0.063598 -0.199731
v -0.222842 0.057154 -0.199731
v -0.216861 0.052040 -0.199731
v -0.209324 0.048757 -0.199731
v -0.200969 0.047625 -0.199731
v -0.192615 0.048757 -0.199731
v -0.185078 0.052040 -0.199731
v -0.179096 0.057154 -0.199731
v -0.175256 0.063598 -0.199731
v -0.173933 0.070742 -0.199731
v -0.153997 0.083791 -0.223837
v -0.161012 0.095563 -0.223837
v -0.171939 0.104905 -0.223837
v -0.185707 0.110903 -0.223837
v -0.200969 0.112970 -0.223837
v -0.216231 0.110903 -0.223837
v -0.230000 0.104905 -0.223837
v -0.240926 0.095563 -0.223837
v -0.247942 0.083791 -0.223837
v -0.250359 0.070742 -0.223837
v -0.247942 0.057692 -0.223837
v -0.240926 0.045920 -0.223837
v -0.230000 0.036578 -0.223837
v -0.216231 0.030580 -0.223837
v -0.200969 0.028513 -0.223837
v -0.185707 0.030580 -0.223837
v -0.171939 0.036578 -0.223837
v -0.161012 0.045920 -0.223837
v -0.153997 0.057692 -0.223837
v -0.151580 0.070742 -0.223837
v -0.147878 0.085491 -0.215117
v -0.155807 0.098796 -0.215117
v -0.168157 0.109356 -0.215117
v -0.183719 0.116135 -0.215117
v -0.200969 0.118471 -0.215117
v -0.218220 0.116135 -0.215117
v -0.233782 0.109356 -0.215117
v -0.246132 0.098796 -0.215117
v -0.254061 0.085491 -0.215117
v -0.256793 0.070742 -0.215117
v -0.254061 0.055992 -0.215117
v -0.246132 0.042687 -0.215117
v -0.233782 0.032128 -0.215117
v -0.218220 0.025348 -0.215117
v -0.200969 0.023012 -0.215117
v -0.183719 0.025348 -0.215117
v -0.168157 0.032128 -0.215117
v -0.155807 0.042687 -0.215117
v -0.147878 0.055992 -0.215117
v -0.145146 0.070742 -0.215117
v -0.126636 0.091392 -0.110061
v -0.137738 0.110021 -0.110061
v -0.155029 0.124805 -0.110061
v -0.176817 0.134297 -0.110061
v -0.200969 0.137568 -0.110061
v -0.225122 0.134297 -0.110061
v -0.246910 0.124805 -0.110061
v -0.264201 0.110021 -0.110061
v -0.275303 0.091392 -0.110061
v -0.279128 0.070742 -0.110061
v -0.275303 0.050091 -0.110061
v -0.264201 0.031462 -0.110061
v -0.246910 0.016678 -0.110061
v -0.225122 0.007186 -0.110061
v -0.200969 0.003916 -0.110061
v -0.176817 0.007186 -0.110061
v -0.155029 0.016678 -0.110061
v -0.137738 0.031462 -0.110061
v -0.126636 0.050091 -0.110061
v -0.122811 0.070742 -0.110061
v -0.117760 0.093858 0.016994
v -0.130187 0.114711 0.016994
v -0.149543 0.131260 0.016994
v -0.173933 0.141886 0.016994
v -0.200969 0.145547 0.016994
v -0.228005 0.141886 0.016994
v -0.252395 0.131260 0.016994
v -0.271751 0.114711 0.016994
v -0.284178 0.093858 0.016994
v -0.288460 0.070742 0.016994
v -0.284178 0.047625 0.016994
v -0.271751 0.026772 0.016994
v -0.252395 0.010223 0.016994
v -0.228005 -0.000403 0.016994
v -0.200969 -0.004064 0.016994
v -0.173933 -0.000403 0.016994
v -0.149543 0.010223 0.016994
v -0.130187 0.026772 0.016994
v -0.117760 0.047625 0.016994
v -0.113478 0.070742 0.016994
v -0.200969 0.070742 -0.214898
v -0.226682 0.077885 0.224748
v -0.222842 0.084329 0.224748
v -0.216861 0.089443 0.224748
v -0.209324 0.092726 0.224748
v -0.200969 0.093858 0.224748
v -0.192615 0.092726 0.224748
v -0.185078 0.089443 0.224748
v -0.179096 0.084329 0.224748
v -0.175256 0.077885 0.224748
v -0.173933 0.070742 0.224748
v -0.175256 0.063598 0.224748
v -0.179096 0.057154 0.224748
v -0.185078 0.052040 0.224748
v -0.192615 0.048757 0.224748
v -0.200969 0.047625 0.224748
v -0.209324 0.048757 0.224748
v -0.216861 0.052040 0.224748
v -0.222842 0.057154 0.224748
v -0.226682 0.063598 0.224748
v -0.228005 0.070742 0.224748
v -0.247942 0.083791 0.248853
v -0.240926 0.095563 0.248853
v -0.230000 0.104905 0.248853
v -0.216231 0.110903 0.248853
v -0.200969 0.112970 0.248853
v -0.185707 0.110903 0.248853
v -0.171939 0.104905 0.248853
v -0.161012 0.095563 0.248853
v -0.153997 0.083791 0.248853
v -0.151580 0.070742 0.248853
v -0.153997 0.057692 0.248853
v -0.161012 0.045920 0.248853
v -0.171939 0.036578 0.248853
v -0.185707 0.030580 0.248853
v -0.200969 0.028513 0.248853
v -0.216231 0.030580 0.248853
v -0.230000 0.036578 0.248853
v -0.240926 0.045920 0.248853
v -0.247942 0.057692 0.248853
v -0.250359 0.070742 0.248853
v -0.254061 0.085491 0.240134
v -0.246132 0.098796 0.240134
v -0.233782 0.109356 0.240134
v -0.218220 0.116135 0.240134
v -0.200969 0.118471 0.240134
v -0.183719 0.116135 0.240134
v -0.168157 0.109356 0.240134
v -0.155807 0.098796 0.240134
v -0.147878 0.085491 0.240134
v -0.145146 0.070742 0.240134
v -0.147878 0.055992 0.240134
v -0.155807 0.042687 0.240134
v -0.168157 0.032128 0.240134
v -0.183719 0.025348 0.240134
v -0.200969 0.023012 0.240134
v -0.218220 0.025348 0.240134
v -0.233782 0.032128 0.240134
v -0.246131 0.042687 0.240134
v -0.254061 0.055992 0.240134
v -0.256793 0.070742 0.240134
v -0.275303 0.091392 0.135077
v -0.264201 0.110021 0.135077
v -0.246910 0.124805 0.135077
v -0.225122 0.134297 0.135077
v -0.200969 0.137568 0.135077
v -0.176817 0.134297 0.135077
v -0.155029 0.124805 0.135077
v -0.137738 0.110021 0.135077
v -0.126636 0.091392 0.135077
v -0.122811 0.070742 0.135077
v -0.126636 0.050091 0.135077
v -0.137738 0.031462 0.135077
v -0.155029 0.016678 0.135077
v -0.176817 0.007186 0.135077
v -0.200969 0.003916 0.135077
v -0.225122 0.007186 0.135077
v -0.246910 0.016678 0.135077
v -0.264201 0.031462 0.135077
v -0.275302 0.050091 0.135077
v -0.279128 0.070742 0.135077
v -0.200969 0.070742 0.239915
vt 0.328817 0.556803
vt 0.328845 0.549261
vt 0.328874 0.541720
vt 0.328903 0.534178
vt 0.328931 0.526636
vt 0.328960 0.519094
vt 0.328989 0.511552
vt 0.329017 0.504010
vt 0.329046 0.496469
vt 0.329075 0.488927
vt 0.329104 0.481385
vt 0.329132 0.473843
vt 0.329161 0.466301
vt 0.329190 0.458759
vt 0.329218 0.451217
vt 0.329247 0.443676
vt 0.329276 0.436134
vt 0.329304 0.428592
vt 0.329333 0.421050
vt 0.329362 0.413508
vt 0.329391 0.405966
vt 0.343900 0.556861
vt 0.343929 0.549319
vt 0.343958 0.541777
vt 0.343986 0.534235
vt 0.344015 0.526693
vt 0.344044 0.519151
vt 0.344072 0.511610
vt 0.344101 0.504068
vt 0.344130 0.496526
vt 0.344159 0.488984
vt 0.344187 0.481442
vt 0.344216 0.473900
vt 0.344245 0.466359
vt 0.344273 0.458817
vt 0.344302 0.451275
vt 0.344331 0.443733
vt 0.344359 0.436191
vt 0.344388 0.428649
vt 0.344417 0.421107
vt 0.344446 0.413566
vt 0.344474 0.406024
vt 0.358984 0.556918
vt 0.359013 0.549376
vt 0.359041 0.541834
vt 0.359070 0.534293
vt 0.359099 0.526751
vt 0.359127 0.519209
vt 0.359156 0.511667
vt 0.359185 0.504125
vt 0.359214 0.496583
vt 0.359242 0.489041
vt 0.359271 0.481500
vt 0.359300 0.473958
vt 0.359328 0.466416
vt 0.359357 0.458874
vt 0.359386 0.451332
vt 0.359414 0.443790
vt 0.359443 0.436248
vt 0.359472 0.428707
vt 0.359501 0.421165
vt 0.359529 0.413623
vt 0.359558 0.406081
vt 0.374068 0.556975
vt 0.374096 0.549434
vt 0.374125 0.541892
vt 0.374154 0.534350
vt 0.374182 0.526808
vt 0.374211 0.519266
vt 0.374240 0.511724
vt 0.374269 0.504183
vt 0.374297 0.496641
vt 0.374326 0.489099
vt 0.374355 0.481557
vt 0.374383 0.474015
vt 0.374412 0.466473
vt 0.374441 0.458931
vt 0.374469 0.451390
vt 0.374498 0.443848
vt 0.374527 0.436306
vt 0.374556 0.428764
vt 0.374584 0.421222
vt 0.374613 0.413680
vt 0.374642 0.406139
vt 0.390285 0.557280
vt 0.390327 0.549557
vt 0.390357 0.541995
vt 0.390386 0.534433
vt 0.390414 0.526864
vt 0.390443 0.519296
vt 0.390472 0.511740
vt 0.390500 0.504205
vt 0.390529 0.496678
vt 0.390558 0.489160
vt 0.390587 0.481646
vt 0.390616 0.474125
vt 0.390644 0.466588
vt 0.390673 0.459034
vt 0.390701 0.451468
vt 0.390730 0.443899
vt 0.390759 0.436336
vt 0.390788 0.428788
vt 0.390815 0.421268
vt 0.390841 0.413715
vt 0.390857 0.405961
vt 0.313747 0.552975
vt 0.313776 0.545433
vt 0.313805 0.537891
vt 0.313833 0.530349
vt 0.313862 0.522808
vt 0.313891 0.515266
vt 0.313919 0.507724
vt 0.313948 0.500182
vt 0.313977 0.492640
vt 0.314006 0.485098
vt 0.314034 0.477556
vt 0.314063 0.470015
vt 0.314092 0.462473
vt 0.314120 0.454931
vt 0.314149 0.447389
vt 0.314178 0.439847
vt 0.314206 0.432305
vt 0.314235 0.424764
vt 0.314264 0.417222
vt 0.314293 0.409680
vt 0.329417 0.556806
vt 0.329446 0.549264
vt 0.344530 0.549321
vt 0.344501 0.556863
vt 0.329475 0.541722
vt 0.344558 0.541779
vt 0.329503 0.534180
vt 0.344587 0.534237
vt 0.329532 0.526638
vt 0.344616 0.526696
vt 0.329561 0.519096
vt 0.344644 0.519154
vt 0.329589 0.511554
vt 0.344673 0.511612
vt 0.329618 0.504013
vt 0.344702 0.504070
vt 0.329647 0.496471
vt 0.344731 0.496528
vt 0.329676 0.488929
vt 0.344759 0.488986
vt 0.329704 0.481387
vt 0.344788 0.481444
vt 0.329733 0.473845
vt 0.344817 0.473903
vt 0.329762 0.466303
vt 0.344845 0.466361
vt 0.329790 0.458762
vt 0.344874 0.458819
vt 0.329819 0.451220
vt 0.344903 0.451277
vt 0.329848 0.443678
vt 0.344931 0.443735
vt 0.329876 0.436136
vt 0.344960 0.436193
vt 0.329905 0.428594
vt 0.344989 0.428652
vt 0.329934 0.421052
vt 0.345018 0.421110
vt 0.329963 0.413510
vt 0.345046 0.413568
vt 0.329991 0.405969
vt 0.345075 0.406026
vt 0.359613 0.549379
vt 0.359585 0.556920
vt 0.359642 0.541837
vt 0.359671 0.534295
vt 0.359699 0.526753
vt 0.359728 0.519211
vt 0.359757 0.511669
vt 0.359786 0.504127
vt 0.359814 0.496586
vt 0.359843 0.489044
vt 0.359872 0.481502
vt 0.359900 0.473960
vt 0.359929 0.466418
vt 0.359958 0.458876
vt 0.359986 0.451335
vt 0.360015 0.443793
vt 0.360044 0.436251
vt 0.360073 0.428709
vt 0.360101 0.421167
vt 0.360130 0.413625
vt 0.360159 0.406083
vt 0.374697 0.549436
vt 0.374668 0.556978
vt 0.374726 0.541894
vt 0.374754 0.534352
vt 0.374783 0.526810
vt 0.374812 0.519269
vt 0.374841 0.511727
vt 0.374869 0.504185
vt 0.374898 0.496643
vt 0.374927 0.489101
vt 0.374955 0.481559
vt 0.374984 0.474017
vt 0.375013 0.466476
vt 0.375041 0.458934
vt 0.375070 0.451392
vt 0.375099 0.443850
vt 0.375128 0.436308
vt 0.375156 0.428766
vt 0.375185 0.421224
vt 0.375214 0.413683
vt 0.375242 0.406141
vt 0.389784 0.549557
vt 0.389744 0.557286
vt 0.389813 0.542005
vt 0.389842 0.534445
vt 0.389871 0.526873
vt 0.389900 0.519300
vt 0.389929 0.511736
vt 0.389958 0.504190
vt 0.389987 0.496665
vt 0.390013 0.489159
vt 0.390042 0.481639
vt 0.390072 0.474126
vt 0.390101 0.466577
vt 0.390129 0.459012
vt 0.390158 0.451440
vt 0.390187 0.443871
vt 0.390216 0.436314
vt 0.390245 0.428774
vt 0.390273 0.421243
vt 0.390299 0.413685
vt 0.390318 0.405974
vt 0.314348 0.552977
vt 0.314377 0.545435
vt 0.314405 0.537894
vt 0.314434 0.530352
vt 0.314463 0.522810
vt 0.314491 0.515268
vt 0.314520 0.507726
vt 0.314549 0.500184
vt 0.314578 0.492642
vt 0.314606 0.485101
vt 0.314635 0.477559
vt 0.314664 0.470017
vt 0.314692 0.462475
vt 0.314721 0.454933
vt 0.314750 0.447391
vt 0.314778 0.439850
vt 0.314807 0.432308
vt 0.314836 0.424766
vt 0.314865 0.417224
vt 0.314893 0.409682
vt 0.329417 0.556806
vt 0.329446 0.549264
vt 0.344530 0.549321
vt 0.344501 0.556863
vt 0.329475 0.541722
vt 0.344558 0.541779
vt 0.329503 0.534180
vt 0.344587 0.534237
vt 0.329532 0.526638
vt 0.344616 0.526696
vt 0.329561 0.519096
vt 0.344644 0.519154
vt 0.329589 0.511554
vt 0.344673 0.511612
vt 0.329618 0.504013
vt 0.344702 0.504070
vt 0.329647 0.496471
vt 0.344731 0.496528
vt 0.329676 0.488929
vt 0.344759 0.488986
vt 0.329704 0.481387
vt 0.344788 0.481444
vt 0.329733 0.473845
vt 0.344817 0.473903
vt 0.329762 0.466303
vt 0.344845 0.466361
vt 0.329790 0.458762
vt 0.344874 0.458819
vt 0.329819 0.451220
vt 0.344903 0.451277
vt 0.329848 0.443678
vt 0.344931 0.443735
vt 0.329876 0.436136
vt 0.344960 0.436193
vt 0.329905 0.428594
vt 0.344989 0.428652
vt 0.329934 0.421052
vt 0.345018 0.421110
vt 0.329963 0.413510
vt 0.345046 0.413568
vt 0.329991 0.405969
vt 0.345075 0.406026
vt 0.359613 0.549379
vt 0.359585 0.556920
vt 0.359642 0.541837
vt 0.359671 0.534295
vt 0.359699 0.526753
vt 0.359728 0.519211
vt 0.359757 0.511669
vt 0.359786 0.504127
vt 0.359814 0.496586
vt 0.359843 0.489044
vt 0.359872 0.481502
vt 0.359900 0.473960
vt 0.359929 0.466418
vt 0.359958 0.458876
vt 0.359986 0.451335
vt 0.360015 0.443793
vt 0.360044 0.436251
vt 0.360073 0.428709
vt 0.360101 0.421167
vt 0.360130 0.413625
vt 0.360159 0.406083
vt 0.374697 0.549436
vt 0.374668 0.556978
vt 0.374726 0.541894
vt 0.374754 0.534352
vt 0.374783 0.526810
vt 0.374812 0.519269
vt 0.374841 0.511727
vt 0.374869 0.504185
vt 0.374898 0.496643
vt 0.374927 0.489101
vt 0.374955 0.481559
vt 0.374984 0.474017
vt 0.375013 0.466476
vt 0.375041 0.458934
vt 0.375070 0.451392
vt 0.375099 0.443850
vt 0.375128 0.436308
vt 0.375156 0.428766
vt 0.375185 0.421224
vt 0.375214 0.413683
vt 0.375242 0.406141
vt 0.390928 0.549559
vt 0.390886 0.557282
vt 0.390958 0.541997
vt 0.390986 0.534436
vt 0.391015 0.526866
vt 0.391044 0.519298
vt 0.391073 0.511743
vt 0.391101 0.504207
vt 0.391130 0.496681
vt 0.391159 0.489162
vt 0.391188 0.481649
vt 0.391216 0.474127
vt 0.391245 0.466590
vt 0.391273 0.459036
vt 0.391302 0.451470
vt 0.391331 0.443901
vt 0.391360 0.436338
vt 0.391389 0.428790
vt 0.391416 0.421270
vt 0.391442 0.413717
vt 0.391458 0.405963
vt 0.314348 0.552977
vt 0.314377 0.545435
vt 0.314405 0.537894
vt 0.314434 0.530352
vt 0.314463 0.522810
vt 0.314491 0.515268
vt 0.314520 0.507726
vt 0.314549 0.500184
vt 0.314578 0.492642
vt 0.314606 0.485101
vt 0.314635 0.477559
vt 0.314664 0.470017
vt 0.314692 0.462475
vt 0.314721 0.454933
vt 0.314750 0.447391
vt 0.314778 0.439850
vt 0.314807 0.432308
vt 0.314836 0.424766
vt 0.314865 0.417224
vt 0.314893 0.409682
vt 0.329417 0.556806
vt 0.329446 0.549264
vt 0.344530 0.549321
vt 0.344501 0.556863
vt 0.329475 0.541722
vt 0.344558 0.541779
vt 0.329503 0.534180
vt 0.344587 0.534237
vt 0.329532 0.526638
vt 0.344616 0.526696
vt 0.329561 0.519096
vt 0.344644 0.519154
vt 0.329589 0.511554
vt 0.344673 0.511612
vt 0.329618 0.504013
vt 0.344702 0.504070
vt 0.329647 0.496471
vt 0.344731 0.496528
vt 0.329676 0.488929
vt 0.344759 0.488986
vt 0.329704 0.481387
vt 0.344788 0.481444
vt 0.329733 0.473845
vt 0.344817 0.473903
vt 0.329762 0.466303
vt 0.344845 0.466361
vt 0.329790 0.458762
vt 0.344874 0.458819
vt 0.329819 0.451220
vt 0.344903 0.451277
vt 0.329848 0.443678
vt 0.344931 0.443735
vt 0.329876 0.436136
vt 0.344960 0.436193
vt 0.329905 0.428594
vt 0.344989 0.428652
vt 0.329934 0.421052
vt 0.345018 0.421110
vt 0.329963 0.413510
vt 0.345046 0.413568
vt 0.329991 0.405969
vt 0.345075 0.406026
vt 0.359613 0.549379
vt 0.359585 0.556920
vt 0.359642 0.541837
vt 0.359671 0.534295
vt 0.359699 0.526753
vt 0.359728 0.519211
vt 0.359757 0.511669
vt 0.359786 0.504127
vt 0.359814 0.496586
vt 0.359843 0.489044
vt 0.359872 0.481502
vt 0.359900 0.473960
vt 0.359929 0.466418
vt 0.359958 0.458876
vt 0.359986 0.451335
vt 0.360015 0.443793
vt 0.360044 0.436251
vt 0.360073 0.428709
vt 0.360101 0.421167
vt 0.360130 0.413625
vt 0.360159 0.406083
vt 0.374697 0.549436
vt 0.374668 0.556978
vt 0.374726 0.541894
vt 0.374754 0.534352
vt 0.374783 0.526810
vt 0.374812 0.519269
vt 0.374841 0.511727
vt 0.374869 0.504185
vt 0.374898 0.496643
vt 0.374927 0.489101
vt 0.374955 0.481559
vt 0.374984 0.474017
vt 0.375013 0.466476
vt 0.375041 0.458934
vt 0.375070 0.451392
vt 0.375099 0.443850
vt 0.375128 0.436308
vt 0.375156 0.428766
vt 0.375185 0.421224
vt 0.375214 0.413683
vt 0.375242 0.406141
vt 0.389784 0.549557
vt 0.389744 0.557286
vt 0.389813 0.542005
vt 0.389842 0.534445
vt 0.389871 0.526873
vt 0.389900 0.519300
vt 0.389929 0.511736
vt 0.389958 0.504190
vt 0.389987 0.496665
vt 0.390013 0.489159
vt 0.390042 0.481639
vt 0.390072 0.474126
vt 0.390101 0.466577
vt 0.390129 0.459012
vt 0.390158 0.451440
vt 0.390187 0.443871
vt 0.390216 0.436314
vt 0.390245 0.428774
vt 0.390273 0.421243
vt 0.390299 0.413685
vt 0.390318 0.405974
vt 0.314348 0.552977
vt 0.314377 0.545435
vt 0.314405 0.537894
vt 0.314434 0.530352
vt 0.314463 0.522810
vt 0.314491 0.515268
vt 0.314520 0.507726
vt 0.314549 0.500184
vt 0.314578 0.492642
vt 0.314606 0.485101
vt 0.314635 0.477559
vt 0.314664 0.470017
vt 0.314692 0.462475
vt 0.314721 0.454933
vt 0.314750 0.447391
vt 0.314778 0.439850
vt 0.314807 0.432308
vt 0.314836 0.424766
vt 0.314865 0.417224
vt 0.314893 0.409682
vt 0.329417 0.556806
vt 0.329446 0.549264
vt 0.344530 0.549321
vt 0.344501 0.556863
vt 0.329475 0.541722
vt 0.344558 0.541779
vt 0.329503 0.534180
vt 0.344587 0.534237
vt 0.329532 0.526638
vt 0.344616 0.526696
vt 0.329561 0.519096
vt 0.344644 0.519154
vt 0.329589 0.511554
vt 0.344673 0.511612
vt 0.329618 0.504013
vt 0.344702 0.504070
vt 0.329647 0.496471
vt 0.344731 0.496528
vt 0.329676 0.488929
vt 0.344759 0.488986
vt 0.329704 0.481387
vt 0.344788 0.481444
vt 0.329733 0.473845
vt 0.344817 0.473903
vt 0.329762 0.466303
vt 0.344845 0.466361
vt 0.329790 0.458762
vt 0.344874 0.458819
vt 0.329819 0.451220
vt 0.344903 0.451277
vt 0.329848 0.443678
vt 0.344931 0.443735
vt 0.329876 0.436136
vt 0.344960 0.436193
vt 0.329905 0.428594
vt 0.344989 0.428652
vt 0.329934 0.421052
vt 0.345018 0.421110
vt 0.329963 0.413510
vt 0.345046 0.413568
vt 0.329991 0.405969
vt 0.345075 0.406026
vt 0.359613 0.549379
vt 0.359585 0.556920
vt 0.359642 0.541837
vt 0.359671 0.534295
vt 0.359699 0.526753
vt 0.359728 0.519211
vt 0.359757 0.511669
vt 0.359786 0.504127
vt 0.359814 0.496586
vt 0.359843 0.489044
vt 0.359872 0.481502
vt 0.359900 0.473960
vt 0.359929 0.466418
vt 0.359958 0.458876
vt 0.359986 0.451335
vt 0.360015 0.443793
vt 0.360044 0.436251
vt 0.360073 0.428709
vt 0.360101 0.421167
vt 0.360130 0.413625
vt 0.360159 0.406083
vt 0.374697 0.549436
vt 0.374668 0.556978
vt 0.374726 0.541894
vt 0.374754 0.534352
vt 0.374783 0.526810
vt 0.374812 0.519269
vt 0.374841 0.511727
vt 0.374869 0.504185
vt 0.374898 0.496643
vt 0.374927 0.489101
vt 0.374955 0.481559
vt 0.374984 0.474017
vt 0.375013 0.466476
vt 0.375041 0.458934
vt 0.375070 0.451392
vt 0.375099 0.443850
vt 0.375128 0.436308
vt 0.375156 0.428766
vt 0.375185 0.421224
vt 0.375214 0.413683
vt 0.375242 0.406141
vt 0.390928 0.549559
vt 0.390886 0.557282
vt 0.390958 0.541997
vt 0.390986 0.534436
vt 0.391015 0.526866
vt 0.391044 0.519298
vt 0.391073 0.511743
vt 0.391101 0.504207
vt 0.391130 0.496681
vt 0.391159 0.489162
vt 0.391188 0.481649
vt 0.391216 0.474127
vt 0.391245 0.466590
vt 0.391273 0.459036
vt 0.391302 0.451470
vt 0.391331 0.443901
vt 0.391360 0.436338
vt 0.391389 0.428790
vt 0.391416 0.421270
vt 0.391442 0.413717
vt 0.391458 0.405963
vt 0.314348 0.552977
vt 0.314377 0.545435
vt 0.314405 0.537894
vt 0.314434 0.530352
vt 0.314463 0.522810
vt 0.314491 0.515268
vt 0.314520 0.507726
vt 0.314549 0.500184
vt 0.314578 0.492642
vt 0.314606 0.485101
vt 0.314635 0.477559
vt 0.314664 0.470017
vt 0.314692 0.462475
vt 0.314721 0.454933
vt 0.314750 0.447391
vt 0.314778 0.439850
vt 0.314807 0.432308
vt 0.314836 0.424766
vt 0.314865 0.417224
vt 0.314893 0.409682
vt 0.329417 0.556806
vt 0.329446 0.549264
vt 0.344530 0.549321
vt 0.344501 0.556863
vt 0.329475 0.541722
vt 0.344558 0.541779
vt 0.329503 0.534180
vt 0.344587 0.534237
vt 0.329532 0.526638
vt 0.344616 0.526696
vt 0.329561 0.519096
vt 0.344644 0.519154
vt 0.329589 0.511554
vt 0.344673 0.511612
vt 0.329618 0.504013
vt 0.344702 0.504070
vt 0.329647 0.496471
vt 0.344731 0.496528
vt 0.329676 0.488929
vt 0.344759 0.488986
vt 0.329704 0.481387
vt 0.344788 0.481444
vt 0.329733 0.473845
vt 0.344817 0.473903
vt 0.329762 0.466303
vt 0.344845 0.466361
vt 0.329790 0.458762
vt 0.344874 0.458819
vt 0.329819 0.451220
vt 0.344903 0.451277
vt 0.329848 0.443678
vt 0.344931 0.443735
vt 0.329876 0.436136
vt 0.344960 0.436193
vt 0.329905 0.428594
vt 0.344989 0.428652
vt 0.329934 0.421052
vt 0.345018 0.421110
vt 0.329963 0.413510
vt 0.345046 0.413568
vt 0.329991 0.405969
vt 0.345075 0.406026
vt 0.359613 0.549379
vt 0.359585 0.556920
vt 0.359642 0.541837
vt 0.359671 0.534295
vt 0.359699 0.526753
vt 0.359728 0.519211
vt 0.359757 0.511669
vt 0.359786 0.504127
vt 0.359814 0.496586
vt 0.359843 0.489044
vt 0.359872 0.481502
vt 0.359900 0.473960
vt 0.359929 0.466418
vt 0.359958 0.458876
vt 0.359986 0.451335
vt 0.360015 0.443793
vt 0.360044 0.436251
vt 0.360073 0.428709
vt 0.360101 0.421167
vt 0.360130 0.413625
vt 0.360159 0.406083
vt 0.374697 0.549436
vt 0.374668 0.556978
vt 0.374726 0.541894
vt 0.374754 0.534352
vt 0.374783 0.526810
vt 0.374812 0.519269
vt 0.374841 0.511727
vt 0.374869 0.504185
vt 0.374898 0.496643
vt 0.374927 0.489101
vt 0.374955 0.481559
vt 0.374984 0.474017
vt 0.375013 0.466476
vt 0.375041 0.458934
vt 0.375070 0.451392
vt 0.375099 0.443850
vt 0.375128 0.436308
vt 0.375156 0.428766
vt 0.375185 0.421224
vt 0.375214 0.413683
vt 0.375242 0.406141
vt 0.389784 0.549557
vt 0.389744 0.557286
vt 0.389813 0.542005
vt 0.389842 0.534445
vt 0.389871 0.526873
vt 0.389900 0.519300
vt 0.389929 0.511736
vt 0.389958 0.504190
vt 0.389987 0.496665
vt 0.390013 0.489159
vt 0.390042 0.481639
vt 0.390072 0.474126
vt 0.390101 0.466577
vt 0.390129 0.459012
vt 0.390158 0.451440
vt 0.390187 0.443871
vt 0.390216 0.436314
vt 0.390245 0.428774
vt 0.390273 0.421243
vt 0.390299 0.413685
vt 0.390318 0.405974
vt 0.314348 0.552977
vt 0.314377 0.545435
vt 0.314405 0.537894
vt 0.314434 0.530352
vt 0.314463 0.522810
vt 0.314491 0.515268
vt 0.314520 0.507726
vt 0.314549 0.500184
vt 0.314578 0.492642
vt 0.314606 0.485101
vt 0.314635 0.477559
vt 0.314664 0.470017
vt 0.314692 0.462475
vt 0.314721 0.454933
vt 0.314750 0.447391
vt 0.314778 0.439850
vt 0.314807 0.432308
vt 0.314836 0.424766
vt 0.314865 0.417224
vt 0.314893 0.409682
vn -0.951022 -0.200257 -0.235487
vn -0.882018 -0.370824 -0.290748
vn -0.845043 -0.200229 -0.495793
vn -0.873597 -0.101125 -0.476027
vn -0.785617 -0.494983 -0.371212
vn -0.795062 -0.286813 -0.534429
vn -0.676813 -0.568597 -0.467569
vn -0.727992 -0.346192 -0.591760
vn -0.565691 -0.592811 -0.573209
vn -0.653330 -0.367287 -0.662012
vn -0.458594 -0.568597 -0.682927
vn -0.582098 -0.346191 -0.735740
vn -0.360806 -0.494983 -0.790450
vn -0.523886 -0.286811 -0.802049
vn -0.279077 -0.370823 -0.885780
vn -0.484593 -0.200228 -0.851515
vn -0.222912 -0.200257 -0.954048
vn -0.464452 -0.101126 -0.879806
vn -0.202590 -0.000000 -0.979264
vn -0.458797 0.000000 -0.888541
vn -0.222911 0.200258 -0.954048
vn -0.464452 0.101125 -0.879806
vn -0.279077 0.370824 -0.885780
vn -0.484593 0.200229 -0.851515
vn -0.360806 0.494983 -0.790450
vn -0.523884 0.286813 -0.802050
vn -0.458592 0.568598 -0.682927
vn -0.582097 0.346191 -0.735741
vn -0.565690 0.592812 -0.573209
vn -0.653328 0.367289 -0.662013
vn -0.676813 0.568598 -0.467569
vn -0.727992 0.346192 -0.591760
vn -0.785617 0.494983 -0.371211
vn -0.795062 0.286813 -0.534428
vn -0.882018 0.370824 -0.290748
vn -0.845043 0.200230 -0.495793
vn -0.951022 0.200258 -0.235487
vn -0.873598 0.101126 -0.476026
vn -0.976504 0.000001 -0.215501
vn -0.882407 0.000000 -0.470486
vn 0.371495 0.632947 -0.679242
vn 0.484302 0.346987 -0.803151
vn 0.216359 0.830984 -0.512498
vn 0.041128 0.943159 -0.329788
vn -0.142846 0.979104 -0.144745
vn -0.330302 0.943159 0.036771
vn -0.515310 0.830984 0.209574
vn -0.684087 0.632947 0.362496
vn -0.809475 0.346988 0.473656
vn -0.857000 0.000000 0.515317
vn -0.809475 -0.346988 0.473656
vn -0.684087 -0.632947 0.362496
vn -0.515310 -0.830984 0.209574
vn -0.330302 -0.943159 0.036771
vn -0.142846 -0.979104 -0.144745
vn 0.041128 -0.943159 -0.329788
vn 0.216359 -0.830984 -0.512498
vn 0.371496 -0.632947 -0.679242
vn 0.484302 -0.346988 -0.803151
vn 0.526586 -0.000002 -0.850122
vn 0.454444 0.642434 -0.617057
vn 0.572414 0.352084 -0.740526
vn 0.292949 0.843598 -0.450026
vn 0.111829 0.957523 -0.265789
vn -0.076728 0.994016 -0.077748
vn -0.267242 0.957523 0.108311
vn -0.453854 0.843598 0.286982
vn -0.623003 0.642434 0.446257
vn -0.748019 0.352084 0.562587
vn -0.795255 -0.000000 0.606275
vn -0.748019 -0.352085 0.562587
vn -0.623003 -0.642434 0.446258
vn -0.453854 -0.843598 0.286982
vn -0.267242 -0.957523 0.108311
vn -0.076728 -0.994016 -0.077748
vn 0.111829 -0.957523 -0.265789
vn 0.292949 -0.843598 -0.450026
vn 0.454444 -0.642434 -0.617057
vn 0.572414 -0.352085 -0.740526
vn 0.616721 -0.000001 -0.787182
vn 0.493080 0.645199 -0.583602
vn 0.613209 0.353632 -0.706343
vn 0.329088 0.847126 -0.417229
vn 0.145876 0.961430 -0.233178
vn -0.044028 0.998034 -0.044613
vn -0.235084 0.961430 0.142785
vn -0.421537 0.847126 0.323550
vn -0.590061 0.645199 0.485331
vn -0.714377 0.353632 0.603830
vn -0.761304 -0.000001 0.648395
vn -0.714377 -0.353632 0.603830
vn -0.590061 -0.645199 0.485332
vn -0.421537 -0.847125 0.323550
vn -0.235084 -0.961430 0.142785
vn -0.044028 -0.998034 -0.044613
vn 0.145876 -0.961430 -0.233179
vn 0.329087 -0.847126 -0.417229
vn 0.493079 -0.645199 -0.583602
vn 0.613208 -0.353632 -0.706342
vn 0.658390 -0.000001 -0.752677
vn -0.702424 0.000000 -0.711759
vn 0.951022 -0.200257 0.235487
vn 0.882018 -0.370823 0.290747
vn 0.845043 -0.200229 0.495793
vn 0.873598 -0.101126 0.476026
vn 0.785617 -0.494983 0.371212
vn 0.795063 -0.286814 0.534428
vn 0.676814 -0.568597 0.467569
vn 0.727992 -0.346193 0.591758
vn 0.565690 -0.592811 0.573209
vn 0.653328 -0.367289 0.662013
vn 0.458592 -0.568597 0.682928
vn 0.582095 -0.346192 0.735742
vn 0.360807 -0.494983 0.790450
vn 0.523885 -0.286813 0.802049
vn 0.279077 -0.370822 0.885780
vn 0.484593 -0.200228 0.851515
vn 0.222912 -0.200257 0.954048
vn 0.464451 -0.101126 0.879806
vn 0.202590 0.000000 0.979264
vn 0.458797 0.000000 0.888541
vn 0.222911 0.200257 0.954048
vn 0.464453 0.101126 0.879805
vn 0.279078 0.370823 0.885780
vn 0.484593 0.200228 0.851515
vn 0.360808 0.494983 0.790449
vn 0.523886 0.286812 0.802049
vn 0.458593 0.568598 0.682927
vn 0.582098 0.346191 0.735740
vn 0.565690 0.592812 0.573209
vn 0.653329 0.367288 0.662012
vn 0.676813 0.568598 0.467570
vn 0.727991 0.346192 0.591760
vn 0.785617 0.494983 0.371212
vn 0.795062 0.286814 0.534429
vn 0.882018 0.370823 0.290747
vn 0.845044 0.200229 0.495792
vn 0.951022 0.200257 0.235487
vn 0.873598 0.101126 0.476025
vn 0.976504 0.000000 0.215501
vn 0.882407 0.000000 0.470486
vn -0.371495 0.632947 0.679242
vn -0.484302 0.346987 0.803151
vn -0.216359 0.830985 0.512498
vn -0.041128 0.943159 0.329787
vn 0.142846 0.979104 0.144745
vn 0.330302 0.943159 -0.036771
vn 0.515310 0.830984 -0.209574
vn 0.684087 0.632947 -0.362496
vn 0.809475 0.346988 -0.473656
vn 0.857000 -0.000000 -0.515317
vn 0.809475 -0.346987 -0.473656
vn 0.684087 -0.632947 -0.362495
vn 0.515310 -0.830984 -0.209574
vn 0.330302 -0.943159 -0.036771
vn 0.142846 -0.979104 0.144745
vn -0.041128 -0.943159 0.329788
vn -0.216359 -0.830984 0.512498
vn -0.371496 -0.632947 0.679242
vn -0.484302 -0.346988 0.803151
vn -0.526586 -0.000001 0.850122
vn -0.450405 0.641994 0.620467
vn -0.568098 0.351817 0.743969
vn -0.289208 0.843084 0.453396
vn -0.108321 0.956988 0.269149
vn 0.080096 0.993478 0.081161
vn 0.270556 0.956988 -0.104759
vn 0.457175 0.843084 -0.283198
vn 0.626359 0.641994 -0.442174
vn 0.751404 0.351818 -0.558226
vn 0.798651 -0.000000 -0.601795
vn 0.751404 -0.351818 -0.558226
vn 0.626359 -0.641995 -0.442174
vn 0.457175 -0.843084 -0.283197
vn 0.270555 -0.956988 -0.104759
vn 0.080096 -0.993478 0.081161
vn -0.108322 -0.956988 0.269149
vn -0.289209 -0.843084 0.453397
vn -0.450405 -0.641994 0.620467
vn -0.568097 -0.351818 0.743969
vn -0.612286 -0.000001 0.790636
vn -0.489248 0.644896 0.587150
vn -0.609131 0.353435 0.709960
vn -0.325505 0.846800 0.420685
vn -0.142468 0.961114 0.236563
vn 0.047358 0.997725 0.047987
vn 0.238423 0.961114 -0.139333
vn 0.424946 0.846800 -0.319923
vn 0.593559 0.644896 -0.481454
vn 0.717940 0.353436 -0.599704
vn 0.764889 -0.000000 -0.644162
vn 0.717940 -0.353436 -0.599704
vn 0.593559 -0.644896 -0.481453
vn 0.424946 -0.846800 -0.319923
vn 0.238423 -0.961114 -0.139333
vn 0.047358 -0.997725 0.047987
vn -0.142468 -0.961114 0.236563
vn -0.325506 -0.846800 0.420685
vn -0.489248 -0.644896 0.587151
vn -0.609130 -0.353436 0.709960
vn -0.654204 -0.000002 0.756318
vn 0.702423 0.000001 0.711759
vn -0.168365 -0.200257 -0.965169
vn -0.089956 -0.370824 -0.924336
vn 0.112571 -0.200229 -0.973261
vn 0.082963 -0.101125 -0.991409
vn 0.022571 -0.494983 -0.868609
vn 0.168092 -0.286813 -0.943124
vn 0.154644 -0.568598 -0.807949
vn 0.247616 -0.346192 -0.904896
vn 0.296146 -0.592812 -0.748914
vn 0.342026 -0.367288 -0.864938
vn 0.439755 -0.568598 -0.695207
vn 0.438232 -0.346191 -0.829521
vn 0.577596 -0.494983 -0.649134
vn 0.522393 -0.286813 -0.803022
vn 0.697803 -0.370824 -0.612829
vn 0.583510 -0.200229 -0.787035
vn 0.782933 -0.200258 -0.588993
vn 0.617523 -0.101126 -0.780025
vn 0.814205 0.000000 -0.580577
vn 0.627798 0.000000 -0.778376
vn 0.782933 0.200257 -0.588993
vn 0.617523 0.101125 -0.780025
vn 0.697803 0.370824 -0.612830
vn 0.583510 0.200229 -0.787035
vn 0.577596 0.494984 -0.649133
vn 0.522392 0.286813 -0.803022
vn 0.439755 0.568598 -0.695207
vn 0.438232 0.346191 -0.829521
vn 0.296146 0.592812 -0.748913
vn 0.342026 0.367288 -0.864938
vn 0.154644 0.568597 -0.807949
vn 0.247616 0.346192 -0.904897
vn 0.022571 0.494983 -0.868609
vn 0.168093 0.286814 -0.943124
vn -0.089956 0.370824 -0.924336
vn 0.112571 0.200229 -0.973261
vn -0.168364 0.200258 -0.965168
vn 0.082962 0.101126 -0.991409
vn -0.196936 0.000002 -0.980416
vn 0.074337 0.000001 -0.997233
vn 0.771397 0.632947 0.065762
vn 0.930295 0.346986 0.118965
vn 0.556225 0.830984 -0.008883
vn 0.318335 0.943159 -0.095468
vn 0.074782 0.979104 -0.189113
vn -0.166949 0.943159 -0.287366
vn -0.399721 0.830984 -0.386896
vn -0.607752 0.632947 -0.479600
vn -0.760062 0.346988 -0.549459
vn -0.817360 0.000000 -0.576128
vn -0.760062 -0.346988 -0.549459
vn -0.607752 -0.632947 -0.479600
vn -0.399721 -0.830984 -0.386896
vn -0.166949 -0.943159 -0.287366
vn 0.074782 -0.979104 -0.189113
vn 0.318335 -0.943159 -0.095468
vn 0.556225 -0.830984 -0.008883
vn 0.771397 -0.632947 0.065762
vn 0.930294 -0.346988 0.118965
vn 0.990335 -0.000001 0.138696
vn 0.747979 0.642434 0.166752
vn 0.908557 0.352084 0.224857
vn 0.529977 0.843598 0.086405
vn 0.288314 0.957523 -0.004952
vn 0.040168 0.994016 -0.101580
vn -0.206953 0.957523 -0.200798
vn -0.445742 0.843598 -0.299427
vn -0.659736 0.642434 -0.389906
vn -0.816626 0.352084 -0.457339
vn -0.875661 -0.000000 -0.482926
vn -0.816626 -0.352085 -0.457339
vn -0.659736 -0.642434 -0.389906
vn -0.445742 -0.843598 -0.299427
vn -0.206953 -0.957523 -0.200798
vn 0.040168 -0.994016 -0.101580
vn 0.288314 -0.957523 -0.004952
vn 0.529978 -0.843598 0.086406
vn 0.747979 -0.642434 0.166752
vn 0.908557 -0.352085 0.224857
vn 0.969126 -0.000001 0.246566
vn 0.732962 0.645199 0.215604
vn 0.893745 0.353632 0.275978
vn 0.514555 0.847126 0.132707
vn 0.272218 0.961430 0.039360
vn 0.023049 0.998034 -0.058288
vn -0.225517 0.961430 -0.157462
vn -0.466157 0.847126 -0.255100
vn -0.682191 0.645199 -0.343997
vn -0.840783 0.353632 -0.409914
vn -0.900497 -0.000001 -0.434863
vn -0.840783 -0.353632 -0.409913
vn -0.682191 -0.645199 -0.343996
vn -0.466157 -0.847126 -0.255100
vn -0.225517 -0.961430 -0.157462
vn 0.023049 -0.998034 -0.058288
vn 0.272218 -0.961430 0.039360
vn 0.514556 -0.847125 0.132707
vn 0.732962 -0.645199 0.215603
vn 0.893745 -0.353633 0.275977
vn 0.954373 -0.000001 0.298616
vn 0.367727 -0.000000 -0.929934
vn 0.168364 -0.200257 0.965169
vn 0.089956 -0.370823 0.924337
vn -0.112571 -0.200229 0.973261
vn -0.082963 -0.101126 0.991409
vn -0.022570 -0.494983 0.868610
vn -0.168091 -0.286813 0.943124
vn -0.154643 -0.568598 0.807950
vn -0.247613 -0.346194 0.904897
vn -0.296147 -0.592812 0.748913
vn -0.342026 -0.367290 0.864937
vn -0.439758 -0.568597 0.695206
vn -0.438233 -0.346193 0.829519
vn -0.577596 -0.494983 0.649134
vn -0.522392 -0.286813 0.803022
vn -0.697803 -0.370824 0.612830
vn -0.583509 -0.200228 0.787036
vn -0.782933 -0.200257 0.588993
vn -0.617523 -0.101125 0.780025
vn -0.814206 0.000000 0.580577
vn -0.627799 0.000000 0.778376
vn -0.782933 0.200257 0.588993
vn -0.617523 0.101125 0.780025
vn -0.697804 0.370823 0.612829
vn -0.583510 0.200228 0.787036
vn -0.577596 0.494984 0.649134
vn -0.522392 0.286814 0.803022
vn -0.439754 0.568599 0.695207
vn -0.438231 0.346192 0.829521
vn -0.296145 0.592813 0.748913
vn -0.342025 0.367288 0.864939
vn -0.154645 0.568598 0.807949
vn -0.247616 0.346191 0.904897
vn -0.022571 0.494984 0.868609
vn -0.168094 0.286813 0.943124
vn 0.089956 0.370824 0.924336
vn -0.112570 0.200228 0.973261
vn 0.168365 0.200257 0.965169
vn -0.082960 0.101126 0.991409
vn 0.196935 0.000000 0.980417
vn -0.074338 0.000000 0.997233
vn -0.771397 0.632947 -0.065762
vn -0.930294 0.346987 -0.118965
vn -0.556225 0.830984 0.008883
vn -0.318335 0.943159 0.095469
vn -0.074782 0.979104 0.189113
vn 0.166949 0.943159 0.287366
vn 0.399720 0.830984 0.386896
vn 0.607751 0.632947 0.479600
vn 0.760062 0.346988 0.549459
vn 0.817360 0.000000 0.576128
vn 0.760062 -0.346988 0.549459
vn 0.607751 -0.632947 0.479600
vn 0.399721 -0.830984 0.386896
vn 0.166949 -0.943159 0.287366
vn -0.074782 -0.979104 0.189113
vn -0.318335 -0.943159 0.095469
vn -0.556225 -0.830984 0.008883
vn -0.771398 -0.632946 -0.065762
vn -0.930294 -0.346988 -0.118965
vn -0.990335 -0.000002 -0.138696
vn -0.749468 0.641994 -0.161680
vn -0.909965 0.351817 -0.219518
vn -0.531552 0.843084 -0.081623
vn -0.289973 0.956988 0.009518
vn -0.041931 0.993478 0.106039
vn 0.205041 0.956988 0.205263
vn 0.443619 0.843084 0.303993
vn 0.657354 0.641994 0.394625
vn 0.814002 0.351817 0.462197
vn 0.872933 0.000000 0.487840
vn 0.814001 -0.351818 0.462197
vn 0.657354 -0.641995 0.394625
vn 0.443620 -0.843084 0.303993
vn 0.205041 -0.956988 0.205263
vn -0.041931 -0.993478 0.106039
vn -0.289973 -0.956988 0.009518
vn -0.531552 -0.843084 -0.081623
vn -0.749469 -0.641994 -0.161680
vn -0.909965 -0.351818 -0.219518
vn -0.970497 -0.000002 -0.241114
vn -0.734663 0.644896 -0.210665
vn -0.895410 0.353435 -0.270786
vn -0.516272 0.846800 -0.128035
vn -0.273940 0.961114 -0.034876
vn -0.024792 0.997725 0.062697
vn 0.223706 0.961114 0.161910
vn 0.464214 0.846800 0.259683
vn 0.680055 0.644896 0.348762
vn 0.838446 0.353435 0.414839
vn 0.898070 -0.000000 0.439852
vn 0.838446 -0.353436 0.414839
vn 0.680054 -0.644896 0.348762
vn 0.464214 -0.846800 0.259683
vn 0.223706 -0.961114 0.161910
vn -0.024793 -0.997725 0.062697
vn -0.273940 -0.961114 -0.034876
vn -0.516272 -0.846800 -0.128035
vn -0.734663 -0.644896 -0.210665
vn -0.895410 -0.353436 -0.270786
vn -0.956016 -0.000002 -0.293316
vn -0.367728 0.000001 0.929933
vn -0.511487 -0.200258 -0.835630
vn -0.423557 -0.370823 -0.826492
vn -0.253211 -0.200228 -0.946464
vn -0.287418 -0.101126 -0.952452
vn -0.298422 -0.494983 -0.816049
vn -0.190497 -0.286812 -0.938855
vn -0.153296 -0.568598 -0.808206
vn -0.102488 -0.346192 -0.932549
vn 0.000000 -0.592812 -0.805341
vn 0.000000 -0.367288 -0.930107
vn 0.153297 -0.568598 -0.808206
vn 0.102489 -0.346192 -0.932549
vn 0.298423 -0.494983 -0.816049
vn 0.190497 -0.286812 -0.938855
vn 0.423557 -0.370824 -0.826492
vn 0.253211 -0.200228 -0.946464
vn 0.511487 -0.200258 -0.835630
vn 0.287419 -0.101125 -0.952452
vn 0.543664 0.000000 -0.839303
vn 0.297581 0.000000 -0.954697
vn 0.511487 0.200258 -0.835630
vn 0.287419 0.101125 -0.952452
vn 0.423556 0.370825 -0.826492
vn 0.253211 0.200229 -0.946463
vn 0.298422 0.494984 -0.816049
vn 0.190497 0.286813 -0.938855
vn 0.153296 0.568597 -0.808206
vn 0.102489 0.346191 -0.932549
vn 0.000000 0.592813 -0.805340
vn 0.000000 0.367288 -0.930107
vn -0.153297 0.568598 -0.808206
vn -0.102489 0.346191 -0.932549
vn -0.298422 0.494983 -0.816049
vn -0.190497 0.286813 -0.938855
vn -0.423556 0.370824 -0.826492
vn -0.253210 0.200229 -0.946463
vn -0.511487 0.200258 -0.835631
vn -0.287419 0.101126 -0.952451
vn -0.543663 0.000001 -0.839303
vn -0.297581 -0.000000 -0.954696
vn 0.741530 0.632947 -0.222509
vn 0.908859 0.346987 -0.231465
vn 0.513986 0.830985 -0.212800
vn 0.260924 0.943159 -0.205840
vn -0.000000 0.979104 -0.203362
vn -0.260924 0.943159 -0.205840
vn -0.513986 0.830984 -0.212800
vn -0.741530 0.632947 -0.222509
vn -0.908858 0.346988 -0.231465
vn -0.971948 -0.000000 -0.235195
vn -0.908858 -0.346988 -0.231465
vn -0.741530 -0.632947 -0.222509
vn -0.513986 -0.830984 -0.212800
vn -0.260924 -0.943159 -0.205840
vn 0.000000 -0.979104 -0.203362
vn 0.260924 -0.943159 -0.205840
vn 0.513986 -0.830984 -0.212800
vn 0.741531 -0.632947 -0.222509
vn 0.908858 -0.346988 -0.231465
vn 0.971948 -0.000002 -0.235195
vn 0.756890 0.642434 -0.119984
vn 0.927584 0.352084 -0.124999
vn 0.524617 0.843598 -0.114536
vn 0.266292 0.957523 -0.110626
vn 0.000000 0.994016 -0.109233
vn -0.266292 0.957523 -0.110626
vn -0.524618 0.843598 -0.114536
vn -0.756890 0.642435 -0.119984
vn -0.927584 0.352084 -0.124999
vn -0.991892 -0.000000 -0.127084
vn -0.927584 -0.352085 -0.124999
vn -0.756890 -0.642434 -0.119984
vn -0.524618 -0.843598 -0.114536
vn -0.266292 -0.957523 -0.110626
vn 0.000000 -0.994016 -0.109233
vn 0.266292 -0.957523 -0.110626
vn 0.524618 -0.843598 -0.114536
vn 0.756890 -0.642434 -0.119984
vn 0.927584 -0.352085 -0.124999
vn 0.991892 -0.000001 -0.127085
vn 0.760890 0.645199 -0.069033
vn 0.932608 0.353632 -0.072013
vn 0.527302 0.847126 -0.065808
vn 0.267619 0.961430 -0.063500
vn 0.000000 0.998034 -0.062680
vn -0.267619 0.961430 -0.063500
vn -0.527302 0.847126 -0.065808
vn -0.760889 0.645199 -0.069034
vn -0.932609 0.353632 -0.072014
vn -0.997313 -0.000001 -0.073256
vn -0.932608 -0.353633 -0.072013
vn -0.760890 -0.645199 -0.069033
vn -0.527302 -0.847125 -0.065808
vn -0.267619 -0.961430 -0.063500
vn 0.000000 -0.998034 -0.062680
vn 0.267619 -0.961430 -0.063500
vn 0.527303 -0.847126 -0.065808
vn 0.760890 -0.645199 -0.069033
vn 0.932608 -0.353633 -0.072014
vn 0.997313 -0.000001 -0.073256
vn -0.000000 0.000000 -1.000000
vn 0.511486 -0.200257 0.835631
vn 0.423557 -0.370823 0.826493
vn 0.253211 -0.200228 0.946464
vn 0.287418 -0.101125 0.952452
vn 0.298423 -0.494982 0.816049
vn 0.190498 -0.286813 0.938855
vn 0.153297 -0.568597 0.808206
vn 0.102490 -0.346194 0.932548
vn -0.000001 -0.592812 0.805341
vn -0.000001 -0.367290 0.930106
vn -0.153298 -0.568597 0.808206
vn -0.102491 -0.346194 0.932548
vn -0.298423 -0.494983 0.816049
vn -0.190498 -0.286813 0.938855
vn -0.423557 -0.370823 0.826492
vn -0.253210 -0.200228 0.946464
vn -0.511486 -0.200258 0.835631
vn -0.287418 -0.101126 0.952452
vn -0.543663 0.000001 0.839304
vn -0.297580 0.000001 0.954697
vn -0.511487 0.200257 0.835631
vn -0.287418 0.101126 0.952452
vn -0.423557 0.370823 0.826492
vn -0.253211 0.200227 0.946464
vn -0.298422 0.494984 0.816049
vn -0.190496 0.286813 0.938856
vn -0.153296 0.568598 0.808206
vn -0.102487 0.346191 0.932549
vn 0.000002 0.592813 0.805340
vn 0.000002 0.367287 0.930108
vn 0.153296 0.568597 0.808206
vn 0.102487 0.346190 0.932550
vn 0.298421 0.494983 0.816049
vn 0.190496 0.286811 0.938856
vn 0.423557 0.370824 0.826492
vn 0.253211 0.200229 0.946463
vn 0.511486 0.200258 0.835631
vn 0.287418 0.101126 0.952452
vn 0.543662 0.000000 0.839304
vn 0.297581 0.000000 0.954697
vn -0.741531 0.632947 0.222509
vn -0.908859 0.346987 0.231465
vn -0.513986 0.830984 0.212800
vn -0.260924 0.943159 0.205840
vn 0.000000 0.979104 0.203362
vn 0.260924 0.943159 0.205840
vn 0.513986 0.830984 0.212800
vn 0.741531 0.632947 0.222509
vn 0.908858 0.346988 0.231465
vn 0.971948 0.000000 0.235195
vn 0.908858 -0.346988 0.231465
vn 0.741530 -0.632947 0.222509
vn 0.513986 -0.830984 0.212800
vn 0.260924 -0.943159 0.205840
vn 0.000000 -0.979104 0.203362
vn -0.260924 -0.943159 0.205840
vn -0.513986 -0.830984 0.212800
vn -0.741531 -0.632947 0.222509
vn -0.908858 -0.346989 0.231465
vn -0.971948 -0.000001 0.235195
vn -0.756410 0.641994 0.125248
vn -0.926930 0.351817 0.130482
vn -0.524323 0.843084 0.119562
vn -0.266155 0.956988 0.115482
vn 0.000000 0.993478 0.114028
vn 0.266156 0.956988 0.115482
vn 0.524323 0.843084 0.119562
vn 0.756410 0.641994 0.125248
vn 0.926930 0.351818 0.130482
vn 0.991162 -0.000000 0.132658
vn 0.926930 -0.351818 0.130482
vn 0.756410 -0.641995 0.125248
vn 0.524323 -0.843084 0.119562
vn 0.266155 -0.956988 0.115482
vn -0.000000 -0.993478 0.114028
vn -0.266155 -0.956988 0.115482
vn -0.524324 -0.843083 0.119562
vn -0.756410 -0.641994 0.125248
vn -0.926929 -0.351819 0.130482
vn -0.991162 -0.000001 0.132658
vn -0.760655 0.644896 0.074251
vn -0.932247 0.353435 0.077453
vn -0.527181 0.846800 0.070784
vn -0.267570 0.961114 0.068303
vn 0.000000 0.997725 0.067421
vn 0.267571 0.961114 0.068303
vn 0.527181 0.846800 0.070784
vn 0.760655 0.644896 0.074251
vn 0.932247 0.353436 0.077453
vn 0.996891 0.000000 0.078788
vn 0.932247 -0.353436 0.077453
vn 0.760655 -0.644896 0.074251
vn 0.527181 -0.846800 0.070784
vn 0.267571 -0.961114 0.068303
vn -0.000000 -0.997725 0.067421
vn -0.267571 -0.961114 0.068303
vn -0.527181 -0.846800 0.070784
vn -0.760656 -0.644895 0.074251
vn -0.932247 -0.353437 0.077453
vn -0.996891 -0.000001 0.078788
vn 0.000000 0.000001 1.000000
s 1
g pSphere6
usemtl lambert2SG
f 1/1/1 2/2/2 22/23/3 21/22/4
f 2/2/2 3/3/5 23/24/6 22/23/3
f 3/3/5 4/4/7 24/25/8 23/24/6
f 4/4/7 5/5/9 25/26/10 24/25/8
f 5/5/9 6/6/11 26/27/12 25/26/10
f 6/6/11 7/7/13 27/28/14 26/27/12
f 7/7/13 8/8/15 28/29/16 27/28/14
f 8/8/15 9/9/17 29/30/18 28/29/16
f 9/9/17 10/10/19 30/31/20 29/30/18
f 10/10/19 11/11/21 31/32/22 30/31/20
f 11/11/21 12/12/23 32/33/24 31/32/22
f 12/12/23 13/13/25 33/34/26 32/33/24
f 13/13/25 14/14/27 34/35/28 33/34/26
f 14/14/27 15/15/29 35/36/30 34/35/28
f 15/15/29 16/16/31 36/37/32 35/36/30
f 16/16/31 17/17/33 37/38/34 36/37/32
f 17/17/33 18/18/35 38/39/36 37/38/34
f 18/18/35 19/19/37 39/40/38 38/39/36
f 19/19/37 20/20/39 40/41/40 39/40/38
f 20/20/39 1/21/1 21/42/4 40/41/40
f 21/22/4 22/23/3 42/44/41 41/43/42
f 22/23/3 23/24/6 43/45/43 42/44/41
f 23/24/6 24/25/8 44/46/44 43/45/43
f 24/25/8 25/26/10 45/47/45 44/46/44
f 25/26/10 26/27/12 46/48/46 45/47/45
f 26/27/12 27/28/14 47/49/47 46/48/46
f 27/28/14 28/29/16 48/50/48 47/49/47
f 28/29/16 29/30/18 49/51/49 48/50/48
f 29/30/18 30/31/20 50/52/50 49/51/49
f 30/31/20 31/32/22 51/53/51 50/52/50
f 31/32/22 32/33/24 52/54/52 51/53/51
f 32/33/24 33/34/26 53/55/53 52/54/52
f 33/34/26 34/35/28 54/56/54 53/55/53
f 34/35/28 35/36/30 55/57/55 54/56/54
f 35/36/30 36/37/32 56/58/56 55/57/55
f 36/37/32 37/38/34 57/59/57 56/58/56
f 37/38/34 38/39/36 58/60/58 57/59/57
f 38/39/36 39/40/38 59/61/59 58/60/58
f 39/40/38 40/41/40 60/62/60 59/61/59
f 40/41/40 21/42/4 41/63/42 60/62/60
f 41/43/42 42/44/41 62/65/61 61/64/62
f 42/44/41 43/45/43 63/66/63 62/65/61
f 43/45/43 44/46/44 64/67/64 63/66/63
f 44/46/44 45/47/45 65/68/65 64/67/64
f 45/47/45 46/48/46 66/69/66 65/68/65
f 46/48/46 47/49/47 67/70/67 66/69/66
f 47/49/47 48/50/48 68/71/68 67/70/67
f 48/50/48 49/51/49 69/72/69 68/71/68
f 49/51/49 50/52/50 70/73/70 69/72/69
f 50/52/50 51/53/51 71/74/71 70/73/70
f 51/53/51 52/54/52 72/75/72 71/74/71
f 52/54/52 53/55/53 73/76/73 72/75/72
f 53/55/53 54/56/54 74/77/74 73/76/73
f 54/56/54 55/57/55 75/78/75 74/77/74
f 55/57/55 56/58/56 76/79/76 75/78/75
f 56/58/56 57/59/57 77/80/77 76/79/76
f 57/59/57 58/60/58 78/81/78 77/80/77
f 58/60/58 59/61/59 79/82/79 78/81/78
f 59/61/59 60/62/60 80/83/80 79/82/79
f 60/62/60 41/63/42 61/84/62 80/83/80
f 61/64/62 62/65/61 82/86/81 81/85/82
f 62/65/61 63/66/63 83/87/83 82/86/81
f 63/66/63 64/67/64 84/88/84 83/87/83
f 64/67/64 65/68/65 85/89/85 84/88/84
f 65/68/65 66/69/66 86/90/86 85/89/85
f 66/69/66 67/70/67 87/91/87 86/90/86
f 67/70/67 68/71/68 88/92/88 87/91/87
f 68/71/68 69/72/69 89/93/89 88/92/88
f 69/72/69 70/73/70 90/94/90 89/93/89
f 70/73/70 71/74/71 91/95/91 90/94/90
f 71/74/71 72/75/72 92/96/92 91/95/91
f 72/75/72 73/76/73 93/97/93 92/96/92
f 73/76/73 74/77/74 94/98/94 93/97/93
f 74/77/74 75/78/75 95/99/95 94/98/94
f 75/78/75 76/79/76 96/100/96 95/99/95
f 76/79/76 77/80/77 97/101/97 96/100/96
f 77/80/77 78/81/78 98/102/98 97/101/97
f 78/81/78 79/82/79 99/103/99 98/102/98
f 79/82/79 80/83/80 100/104/100 99/103/99
f 80/83/80 61/84/62 81/105/82 100/104/100
f 2/2/2 1/1/1 101/106/101
f 3/3/5 2/2/2 101/107/101
f 4/4/7 3/3/5 101/108/101
f 5/5/9 4/4/7 101/109/101
f 6/6/11 5/5/9 101/110/101
f 7/7/13 6/6/11 101/111/101
f 8/8/15 7/7/13 101/112/101
f 9/9/17 8/8/15 101/113/101
f 10/10/19 9/9/17 101/114/101
f 11/11/21 10/10/19 101/115/101
f 12/12/23 11/11/21 101/116/101
f 13/13/25 12/12/23 101/117/101
f 14/14/27 13/13/25 101/118/101
f 15/15/29 14/14/27 101/119/101
f 16/16/31 15/15/29 101/120/101
f 17/17/33 16/16/31 101/121/101
f 18/18/35 17/17/33 101/122/101
f 19/19/37 18/18/35 101/123/101
f 20/20/39 19/19/37 101/124/101
f 1/21/1 20/20/39 101/125/101
s 2
f 102/126/102 103/127/103 123/128/104 122/129/105
f 103/127/103 104/130/106 124/131/107 123/128/104
f 104/130/106 105/132/108 125/133/109 124/131/107
f 105/132/108 106/134/110 126/135/111 125/133/109
f 106/134/110 107/136/112 127/137/113 126/135/111
f 107/136/112 108/138/114 128/139/115 127/137/113
f 108/138/114 109/140/116 129/141/117 128/139/115
f 109/140/116 110/142/118 130/143/119 129/141/117
f 110/142/118 111/144/120 131/145/121 130/143/119
f 111/144/120 112/146/122 132/147/123 131/145/121
f 112/146/122 113/148/124 133/149/125 132/147/123
f 113/148/124 114/150/126 134/151/127 133/149/125
f 114/150/126 115/152/128 135/153/129 134/151/127
f 115/152/128 116/154/130 136/155/131 135/153/129
f 116/154/130 117/156/132 137/157/133 136/155/131
f 117/156/132 118/158/134 138/159/135 137/157/133
f 118/158/134 119/160/136 139/161/137 138/159/135
f 119/160/136 120/162/138 140/163/139 139/161/137
f 120/162/138 121/164/140 141/165/141 140/163/139
f 121/164/140 102/166/102 122/167/105 141/165/141
f 122/129/105 123/128/104 143/168/142 142/169/143
f 123/128/104 124/131/107 144/170/144 143/168/142
f 124/131/107 125/133/109 145/171/145 144/170/144
f 125/133/109 126/135/111 146/172/146 145/171/145
f 126/135/111 127/137/113 147/173/147 146/172/146
f 127/137/113 128/139/115 148/174/148 147/173/147
f 128/139/115 129/141/117 149/175/149 148/174/148
f 129/141/117 130/143/119 150/176/150 149/175/149
f 130/143/119 131/145/121 151/177/151 150/176/150
f 131/145/121 132/147/123 152/178/152 151/177/151
f 132/147/123 133/149/125 153/179/153 152/178/152
f 133/149/125 134/151/127 154/180/154 153/179/153
f 134/151/127 135/153/129 155/181/155 154/180/154
f 135/153/129 136/155/131 156/182/156 155/181/155
f 136/155/131 137/157/133 157/183/157 156/182/156
f 137/157/133 138/159/135 158/184/158 157/183/157
f 138/159/135 139/161/137 159/185/159 158/184/158
f 139/161/137 140/163/139 160/186/160 159/185/159
f 140/163/139 141/165/141 161/187/161 160/186/160
f 141/165/141 122/167/105 142/188/143 161/187/161
f 142/169/143 143/168/142 163/189/162 162/190/163
f 143/168/142 144/170/144 164/191/164 163/189/162
f 144/170/144 145/171/145 165/192/165 164/191/164
f 145/171/145 146/172/146 166/193/166 165/192/165
f 146/172/146 147/173/147 167/194/167 166/193/166
f 147/173/147 148/174/148 168/195/168 167/194/167
f 148/174/148 149/175/149 169/196/169 168/195/168
f 149/175/149 150/176/150 170/197/170 169/196/169
f 150/176/150 151/177/151 171/198/171 170/197/170
f 151/177/151 152/178/152 172/199/172 171/198/171
f 152/178/152 153/179/153 173/200/173 172/199/172
f 153/179/153 154/180/154 174/201/174 173/200/173
f 154/180/154 155/181/155 175/202/175 174/201/174
f 155/181/155 156/182/156 176/203/176 175/202/175
f 156/182/156 157/183/157 177/204/177 176/203/176
f 157/183/157 158/184/158 178/205/178 177/204/177
f 158/184/158 159/185/159 179/206/179 178/205/178
f 159/185/159 160/186/160 180/207/180 179/206/179
f 160/186/160 161/187/161 181/208/181 180/207/180
f 161/187/161 142/188/143 162/209/163 181/208/181
f 162/190/163 163/189/162 88/210/182 89/211/183
f 163/189/162 164/191/164 87/212/184 88/210/182
f 164/191/164 165/192/165 86/213/185 87/212/184
f 165/192/165 166/193/166 85/214/186 86/213/185
f 166/193/166 167/194/167 84/215/187 85/214/186
f 167/194/167 168/195/168 83/216/188 84/215/187
f 168/195/168 169/196/169 82/217/189 83/216/188
f 169/196/169 170/197/170 81/218/190 82/217/189
f 170/197/170 171/198/171 100/219/191 81/218/190
f 171/198/171 172/199/172 99/220/192 100/219/191
f 172/199/172 173/200/173 98/221/193 99/220/192
f 173/200/173 174/201/174 97/222/194 98/221/193
f 174/201/174 175/202/175 96/223/195 97/222/194
f 175/202/175 176/203/176 95/224/196 96/223/195
f 176/203/176 177/204/177 94/225/197 95/224/196
f 177/204/177 178/205/178 93/226/198 94/225/197
f 178/205/178 179/206/179 92/227/199 93/226/198
f 179/206/179 180/207/180 91/228/200 92/227/199
f 180/207/180 181/208/181 90/229/201 91/228/200
f 181/208/181 162/209/163 89/230/183 90/229/201
f 103/127/103 102/126/102 182/231/202
f 104/130/106 103/127/103 182/232/202
f 105/132/108 104/130/106 182/233/202
f 106/134/110 105/132/108 182/234/202
f 107/136/112 106/134/110 182/235/202
f 108/138/114 107/136/112 182/236/202
f 109/140/116 108/138/114 182/237/202
f 110/142/118 109/140/116 182/238/202
f 111/144/120 110/142/118 182/239/202
f 112/146/122 111/144/120 182/240/202
f 113/148/124 112/146/122 182/241/202
f 114/150/126 113/148/124 182/242/202
f 115/152/128 114/150/126 182/243/202
f 116/154/130 115/152/128 182/244/202
f 117/156/132 116/154/130 182/245/202
f 118/158/134 117/156/132 182/246/202
f 119/160/136 118/158/134 182/247/202
f 120/162/138 119/160/136 182/248/202
f 121/164/140 120/162/138 182/249/202
f 102/166/102 121/164/140 182/250/202
s 3
f 183/251/203 184/252/204 204/253/205 203/254/206
f 184/252/204 185/255/207 205/256/208 204/253/205
f 185/255/207 186/257/209 206/258/210 205/256/208
f 186/257/209 187/259/211 207/260/212 206/258/210
f 187/259/211 188/261/213 208/262/214 207/260/212
f 188/261/213 189/263/215 209/264/216 208/262/214
f 189/263/215 190/265/217 210/266/218 209/264/216
f 190/265/217 191/267/219 211/268/220 210/266/218
f 191/267/219 192/269/221 212/270/222 211/268/220
f 192/269/221 193/271/223 213/272/224 212/270/222
f 193/271/223 194/273/225 214/274/226 213/272/224
f 194/273/225 195/275/227 215/276/228 214/274/226
f 195/275/227 196/277/229 216/278/230 215/276/228
f 196/277/229 197/279/231 217/280/232 216/278/230
f 197/279/231 198/281/233 218/282/234 217/280/232
f 198/281/233 199/283/235 219/284/236 218/282/234
f 199/283/235 200/285/237 220/286/238 219/284/236
f 200/285/237 201/287/239 221/288/240 220/286/238
f 201/287/239 202/289/241 222/290/242 221/288/240
f 202/289/241 183/291/203 203/292/206 222/290/242
f 203/254/206 204/253/205 224/293/243 223/294/244
f 204/253/205 205/256/208 225/295/245 224/293/243
f 205/256/208 206/258/210 226/296/246 225/295/245
f 206/258/210 207/260/212 227/297/247 226/296/246
f 207/260/212 208/262/214 228/298/248 227/297/247
f 208/262/214 209/264/216 229/299/249 228/298/248
f 209/264/216 210/266/218 230/300/250 229/299/249
f 210/266/218 211/268/220 231/301/251 230/300/250
f 211/268/220 212/270/222 232/302/252 231/301/251
f 212/270/222 213/272/224 233/303/253 232/302/252
f 213/272/224 214/274/226 234/304/254 233/303/253
f 214/274/226 215/276/228 235/305/255 234/304/254
f 215/276/228 216/278/230 236/306/256 235/305/255
f 216/278/230 217/280/232 237/307/257 236/306/256
f 217/280/232 218/282/234 238/308/258 237/307/257
f 218/282/234 219/284/236 239/309/259 238/308/258
f 219/284/236 220/286/238 240/310/260 239/309/259
f 220/286/238 221/288/240 241/311/261 240/310/260
f 221/288/240 222/290/242 242/312/262 241/311/261
f 222/290/242 203/292/206 223/313/244 242/312/262
f 223/294/244 224/293/243 244/314/263 243/315/264
f 224/293/243 225/295/245 245/316/265 244/314/263
f 225/295/245 226/296/246 246/317/266 245/316/265
f 226/296/246 227/297/247 247/318/267 246/317/266
f 227/297/247 228/298/248 248/319/268 247/318/267
f 228/298/248 229/299/249 249/320/269 248/319/268
f 229/299/249 230/300/250 250/321/270 249/320/269
f 230/300/250 231/301/251 251/322/271 250/321/270
f 231/301/251 232/302/252 252/323/272 251/322/271
f 232/302/252 233/303/253 253/324/273 252/323/272
f 233/303/253 234/304/254 254/325/274 253/324/273
f 234/304/254 235/305/255 255/326/275 254/325/274
f 235/305/255 236/306/256 256/327/276 255/326/275
f 236/306/256 237/307/257 257/328/277 256/327/276
f 237/307/257 238/308/258 258/329/278 257/328/277
f 238/308/258 239/309/259 259/330/279 258/329/278
f 239/309/259 240/310/260 260/331/280 259/330/279
f 240/310/260 241/311/261 261/332/281 260/331/280
f 241/311/261 242/312/262 262/333/282 261/332/281
f 242/312/262 223/313/244 243/334/264 262/333/282
f 243/315/264 244/314/263 264/335/283 263/336/284
f 244/314/263 245/316/265 265/337/285 264/335/283
f 245/316/265 246/317/266 266/338/286 265/337/285
f 246/317/266 247/318/267 267/339/287 266/338/286
f 247/318/267 248/319/268 268/340/288 267/339/287
f 248/319/268 249/320/269 269/341/289 268/340/288
f 249/320/269 250/321/270 270/342/290 269/341/289
f 250/321/270 251/322/271 271/343/291 270/342/290
f 251/322/271 252/323/272 272/344/292 271/343/291
f 252/323/272 253/324/273 273/345/293 272/344/292
f 253/324/273 254/325/274 274/346/294 273/345/293
f 254/325/274 255/326/275 275/347/295 274/346/294
f 255/326/275 256/327/276 276/348/296 275/347/295
f 256/327/276 257/328/277 277/349/297 276/348/296
f 257/328/277 258/329/278 278/350/298 277/349/297
f 258/329/278 259/330/279 279/351/299 278/350/298
f 259/330/279 260/331/280 280/352/300 279/351/299
f 260/331/280 261/332/281 281/353/301 280/352/300
f 261/332/281 262/333/282 282/354/302 281/353/301
f 262/333/282 243/334/264 263/355/284 282/354/302
f 184/252/204 183/251/203 283/356/303
f 185/255/207 184/252/204 283/357/303
f 186/257/209 185/255/207 283/358/303
f 187/259/211 186/257/209 283/359/303
f 188/261/213 187/259/211 283/360/303
f 189/263/215 188/261/213 283/361/303
f 190/265/217 189/263/215 283/362/303
f 191/267/219 190/265/217 283/363/303
f 192/269/221 191/267/219 283/364/303
f 193/271/223 192/269/221 283/365/303
f 194/273/225 193/271/223 283/366/303
f 195/275/227 194/273/225 283/367/303
f 196/277/229 195/275/227 283/368/303
f 197/279/231 196/277/229 283/369/303
f 198/281/233 197/279/231 283/370/303
f 199/283/235 198/281/233 283/371/303
f 200/285/237 199/283/235 283/372/303
f 201/287/239 200/285/237 283/373/303
f 202/289/241 201/287/239 283/374/303
f 183/291/203 202/289/241 283/375/303
s 4
f 284/376/304 285/377/305 305/378/306 304/379/307
f 285/377/305 286/380/308 306/381/309 305/378/306
f 286/380/308 287/382/310 307/383/311 306/381/309
f 287/382/310 288/384/312 308/385/313 307/383/311
f 288/384/312 289/386/314 309/387/315 308/385/313
f 289/386/314 290/388/316 310/389/317 309/387/315
f 290/388/316 291/390/318 311/391/319 310/389/317
f 291/390/318 292/392/320 312/393/321 311/391/319
f 292/392/320 293/394/322 313/395/323 312/393/321
f 293/394/322 294/396/324 314/397/325 313/395/323
f 294/396/324 295/398/326 315/399/327 314/397/325
f 295/398/326 296/400/328 316/401/329 315/399/327
f 296/400/328 297/402/330 317/403/331 316/401/329
f 297/402/330 298/404/332 318/405/333 317/403/331
f 298/404/332 299/406/334 319/407/335 318/405/333
f 299/406/334 300/408/336 320/409/337 319/407/335
f 300/408/336 301/410/338 321/411/339 320/409/337
f 301/410/338 302/412/340 322/413/341 321/411/339
f 302/412/340 303/414/342 323/415/343 322/413/341
f 303/414/342 284/416/304 304/417/307 323/415/343
f 304/379/307 305/378/306 325/418/344 324/419/345
f 305/378/306 306/381/309 326/420/346 325/418/344
f 306/381/309 307/383/311 327/421/347 326/420/346
f 307/383/311 308/385/313 328/422/348 327/421/347
f 308/385/313 309/387/315 329/423/349 328/422/348
f 309/387/315 310/389/317 330/424/350 329/423/349
f 310/389/317 311/391/319 331/425/351 330/424/350
f 311/391/319 312/393/321 332/426/352 331/425/351
f 312/393/321 313/395/323 333/427/353 332/426/352
f 313/395/323 314/397/325 334/428/354 333/427/353
f 314/397/325 315/399/327 335/429/355 334/428/354
f 315/399/327 316/401/329 336/430/356 335/429/355
f 316/401/329 317/403/331 337/431/357 336/430/356
f 317/403/331 318/405/333 338/432/358 337/431/357
f 318/405/333 319/407/335 339/433/359 338/432/358
f 319/407/335 320/409/337 340/434/360 339/433/359
f 320/409/337 321/411/339 341/435/361 340/434/360
f 321/411/339 322/413/341 342/436/362 341/435/361
f 322/413/341 323/415/343 343/437/363 342/436/362
f 323/415/343 304/417/307 324/438/345 343/437/363
f 324/419/345 325/418/344 345/439/364 344/440/365
f 325/418/344 326/420/346 346/441/366 345/439/364
f 326/420/346 327/421/347 347/442/367 346/441/366
f 327/421/347 328/422/348 348/443/368 347/442/367
f 328/422/348 329/423/349 349/444/369 348/443/368
f 329/423/349 330/424/350 350/445/370 349/444/369
f 330/424/350 331/425/351 351/446/371 350/445/370
f 331/425/351 332/426/352 352/447/372 351/446/371
f 332/426/352 333/427/353 353/448/373 352/447/372
f 333/427/353 334/428/354 354/449/374 353/448/373
f 334/428/354 335/429/355 355/450/375 354/449/374
f 335/429/355 336/430/356 356/451/376 355/450/375
f 336/430/356 337/431/357 357/452/377 356/451/376
f 337/431/357 338/432/358 358/453/378 357/452/377
f 338/432/358 339/433/359 359/454/379 358/453/378
f 339/433/359 340/434/360 360/455/380 359/454/379
f 340/434/360 341/435/361 361/456/381 360/455/380
f 341/435/361 342/436/362 362/457/382 361/456/381
f 342/436/362 343/437/363 363/458/383 362/457/382
f 343/437/363 324/438/345 344/459/365 363/458/383
f 344/440/365 345/439/364 270/460/384 271/461/385
f 345/439/364 346/441/366 269/462/386 270/460/384
f 346/441/366 347/442/367 268/463/387 269/462/386
f 347/442/367 348/443/368 267/464/388 268/463/387
f 348/443/368 349/444/369 266/465/389 267/464/388
f 349/444/369 350/445/370 265/466/390 266/465/389
f 350/445/370 351/446/371 264/467/391 265/466/390
f 351/446/371 352/447/372 263/468/392 264/467/391
f 352/447/372 353/448/373 282/469/393 263/468/392
f 353/448/373 354/449/374 281/470/394 282/469/393
f 354/449/374 355/450/375 280/471/395 281/470/394
f 355/450/375 356/451/376 279/472/396 280/471/395
f 356/451/376 357/452/377 278/473/397 279/472/396
f 357/452/377 358/453/378 277/474/398 278/473/397
f 358/453/378 359/454/379 276/475/399 277/474/398
f 359/454/379 360/455/380 275/476/400 276/475/399
f 360/455/380 361/456/381 274/477/401 275/476/400
f 361/456/381 362/457/382 273/478/402 274/477/401
f 362/457/382 363/458/383 272/479/403 273/478/402
f 363/458/383 344/459/365 271/480/385 272/479/403
f 285/377/305 284/376/304 364/481/404
f 286/380/308 285/377/305 364/482/404
f 287/382/310 286/380/308 364/483/404
f 288/384/312 287/382/310 364/484/404
f 289/386/314 288/384/312 364/485/404
f 290/388/316 289/386/314 364/486/404
f 291/390/318 290/388/316 364/487/404
f 292/392/320 291/390/318 364/488/404
f 293/394/322 292/392/320 364/489/404
f 294/396/324 293/394/322 364/490/404
f 295/398/326 294/396/324 364/491/404
f 296/400/328 295/398/326 364/492/404
f 297/402/330 296/400/328 364/493/404
f 298/404/332 297/402/330 364/494/404
f 299/406/334 298/404/332 364/495/404
f 300/408/336 299/406/334 364/496/404
f 301/410/338 300/408/336 364/497/404
f 302/412/340 301/410/338 364/498/404
f 303/414/342 302/412/340 364/499/404
f 284/416/304 303/414/342 364/500/404
s 5
f 365/501/405 366/502/406 386/503/407 385/504/408
f 366/502/406 367/505/409 387/506/410 386/503/407
f 367/505/409 368/507/411 388/508/412 387/506/410
f 368/507/411 369/509/413 389/510/414 388/508/412
f 369/509/413 370/511/415 390/512/416 389/510/414
f 370/511/415 371/513/417 391/514/418 390/512/416
f 371/513/417 372/515/419 392/516/420 391/514/418
f 372/515/419 373/517/421 393/518/422 392/516/420
f 373/517/421 374/519/423 394/520/424 393/518/422
f 374/519/423 375/521/425 395/522/426 394/520/424
f 375/521/425 376/523/427 396/524/428 395/522/426
f 376/523/427 377/525/429 397/526/430 396/524/428
f 377/525/429 378/527/431 398/528/432 397/526/430
f 378/527/431 379/529/433 399/530/434 398/528/432
f 379/529/433 380/531/435 400/532/436 399/530/434
f 380/531/435 381/533/437 401/534/438 400/532/436
f 381/533/437 382/535/439 402/536/440 401/534/438
f 382/535/439 383/537/441 403/538/442 402/536/440
f 383/537/441 384/539/443 404/540/444 403/538/442
f 384/539/443 365/541/405 385/542/408 404/540/444
f 385/504/408 386/503/407 406/543/445 405/544/446
f 386/503/407 387/506/410 407/545/447 406/543/445
f 387/506/410 388/508/412 408/546/448 407/545/447
f 388/508/412 389/510/414 409/547/449 408/546/448
f 389/510/414 390/512/416 410/548/450 409/547/449
f 390/512/416 391/514/418 411/549/451 410/548/450
f 391/514/418 392/516/420 412/550/452 411/549/451
f 392/516/420 393/518/422 413/551/453 412/550/452
f 393/518/422 394/520/424 414/552/454 413/551/453
f 394/520/424 395/522/426 415/553/455 414/552/454
f 395/522/426 396/524/428 416/554/456 415/553/455
f 396/524/428 397/526/430 417/555/457 416/554/456
f 397/526/430 398/528/432 418/556/458 417/555/457
f 398/528/432 399/530/434 419/557/459 418/556/458
f 399/530/434 400/532/436 420/558/460 419/557/459
f 400/532/436 401/534/438 421/559/461 420/558/460
f 401/534/438 402/536/440 422/560/462 421/559/461
f 402/536/440 403/538/442 423/561/463 422/560/462
f 403/538/442 404/540/444 424/562/464 423/561/463
f 404/540/444 385/542/408 405/563/446 424/562/464
f 405/544/446 406/543/445 426/564/465 425/565/466
f 406/543/445 407/545/447 427/566/467 426/564/465
f 407/545/447 408/546/448 428/567/468 427/566/467
f 408/546/448 409/547/449 429/568/469 428/567/468
f 409/547/449 410/548/450 430/569/470 429/568/469
f 410/548/450 411/549/451 431/570/471 430/569/470
f 411/549/451 412/550/452 432/571/472 431/570/471
f 412/550/452 413/551/453 433/572/473 432/571/472
f 413/551/453 414/552/454 434/573/474 433/572/473
f 414/552/454 415/553/455 435/574/475 434/573/474
f 415/553/455 416/554/456 436/575/476 435/574/475
f 416/554/456 417/555/457 437/576/477 436/575/476
f 417/555/457 418/556/458 438/577/478 437/576/477
f 418/556/458 419/557/459 439/578/479 438/577/478
f 419/557/459 420/558/460 440/579/480 439/578/479
f 420/558/460 421/559/461 441/580/481 440/579/480
f 421/559/461 422/560/462 442/581/482 441/580/481
f 422/560/462 423/561/463 443/582/483 442/581/482
f 423/561/463 424/562/464 444/583/484 443/582/483
f 424/562/464 405/563/446 425/584/466 444/583/484
f 425/565/466 426/564/465 446/585/485 445/586/486
f 426/564/465 427/566/467 447/587/487 446/585/485
f 427/566/467 428/567/468 448/588/488 447/587/487
f 428/567/468 429/568/469 449/589/489 448/588/488
f 429/568/469 430/569/470 450/590/490 449/589/489
f 430/569/470 431/570/471 451/591/491 450/590/490
f 431/570/471 432/571/472 452/592/492 451/591/491
f 432/571/472 433/572/473 453/593/493 452/592/492
f 433/572/473 434/573/474 454/594/494 453/593/493
f 434/573/474 435/574/475 455/595/495 454/594/494
f 435/574/475 436/575/476 456/596/496 455/595/495
f 436/575/476 437/576/477 457/597/497 456/596/496
f 437/576/477 438/577/478 458/598/498 457/597/497
f 438/577/478 439/578/479 459/599/499 458/598/498
f 439/578/479 440/579/480 460/600/500 459/599/499
f 440/579/480 441/580/481 461/601/501 460/600/500
f 441/580/481 442/581/482 462/602/502 461/601/501
f 442/581/482 443/582/483 463/603/503 462/602/502
f 443/582/483 444/583/484 464/604/504 463/603/503
f 444/583/484 425/584/466 445/605/486 464/604/504
f 366/502/406 365/501/405 465/606/505
f 367/505/409 366/502/406 465/607/505
f 368/507/411 367/505/409 465/608/505
f 369/509/413 368/507/411 465/609/505
f 370/511/415 369/509/413 465/610/505
f 371/513/417 370/511/415 465/611/505
f 372/515/419 371/513/417 465/612/505
f 373/517/421 372/515/419 465/613/505
f 374/519/423 373/517/421 465/614/505
f 375/521/425 374/519/423 465/615/505
f 376/523/427 375/521/425 465/616/505
f 377/525/429 376/523/427 465/617/505
f 378/527/431 377/525/429 465/618/505
f 379/529/433 378/527/431 465/619/505
f 380/531/435 379/529/433 465/620/505
f 381/533/437 380/531/435 465/621/505
f 382/535/439 381/533/437 465/622/505
f 383/537/441 382/535/439 465/623/505
f 384/539/443 383/537/441 465/624/505
f 365/541/405 384/539/443 465/625/505
s 6
f 466/626/506 467/627/507 487/628/508 486/629/509
f 467/627/507 468/630/510 488/631/511 487/628/508
f 468/630/510 469/632/512 489/633/513 488/631/511
f 469/632/512 470/634/514 490/635/515 489/633/513
f 470/634/514 471/636/516 491/637/517 490/635/515
f 471/636/516 472/638/518 492/639/519 491/637/517
f 472/638/518 473/640/520 493/641/521 492/639/519
f 473/640/520 474/642/522 494/643/523 493/641/521
f 474/642/522 475/644/524 495/645/525 494/643/523
f 475/644/524 476/646/526 496/647/527 495/645/525
f 476/646/526 477/648/528 497/649/529 496/647/527
f 477/648/528 478/650/530 498/651/531 497/649/529
f 478/650/530 479/652/532 499/653/533 498/651/531
f 479/652/532 480/654/534 500/655/535 499/653/533
f 480/654/534 481/656/536 501/657/537 500/655/535
f 481/656/536 482/658/538 502/659/539 501/657/537
f 482/658/538 483/660/540 503/661/541 502/659/539
f 483/660/540 484/662/542 504/663/543 503/661/541
f 484/662/542 485/664/544 505/665/545 504/663/543
f 485/664/544 466/666/506 486/667/509 505/665/545
f 486/629/509 487/628/508 507/668/546 506/669/547
f 487/628/508 488/631/511 508/670/548 507/668/546
f 488/631/511 489/633/513 509/671/549 508/670/548
f 489/633/513 490/635/515 510/672/550 509/671/549
f 490/635/515 491/637/517 511/673/551 510/672/550
f 491/637/517 492/639/519 512/674/552 511/673/551
f 492/639/519 493/641/521 513/675/553 512/674/552
f 493/641/521 494/643/523 514/676/554 513/675/553
f 494/643/523 495/645/525 515/677/555 514/676/554
f 495/645/525 496/647/527 516/678/556 515/677/555
f 496/647/527 497/649/529 517/679/557 516/678/556
f 497/649/529 498/651/531 518/680/558 517/679/557
f 498/651/531 499/653/533 519/681/559 518/680/558
f 499/653/533 500/655/535 520/682/560 519/681/559
f 500/655/535 501/657/537 521/683/561 520/682/560
f 501/657/537 502/659/539 522/684/562 521/683/561
f 502/659/539 503/661/541 523/685/563 522/684/562
f 503/661/541 504/663/543 524/686/564 523/685/563
f 504/663/543 505/665/545 525/687/565 524/686/564
f 505/665/545 486/667/509 506/688/547 525/687/565
f 506/669/547 507/668/546 527/689/566 526/690/567
f 507/668/546 508/670/548 528/691/568 527/689/566
f 508/670/548 509/671/549 529/692/569 528/691/568
f 509/671/549 510/672/550 530/693/570 529/692/569
f 510/672/550 511/673/551 531/694/571 530/693/570
f 511/673/551 512/674/552 532/695/572 531/694/571
f 512/674/552 513/675/553 533/696/573 532/695/572
f 513/675/553 514/676/554 534/697/574 533/696/573
f 514/676/554 515/677/555 535/698/575 534/697/574
f 515/677/555 516/678/556 536/699/576 535/698/575
f 516/678/556 517/679/557 537/700/577 536/699/576
f 517/679/557 518/680/558 538/701/578 537/700/577
f 518/680/558 519/681/559 539/702/579 538/701/578
f 519/681/559 520/682/560 540/703/580 539/702/579
f 520/682/560 521/683/561 541/704/581 540/703/580
f 521/683/561 522/684/562 542/705/582 541/704/581
f 522/684/562 523/685/563 543/706/583 542/705/582
f 523/685/563 524/686/564 544/707/584 543/706/583
f 524/686/564 525/687/565 545/708/585 544/707/584
f 525/687/565 506/688/547 526/709/567 545/708/585
f 526/690/567 527/689/566 452/710/586 453/711/587
f 527/689/566 528/691/568 451/712/588 452/710/586
f 528/691/568 529/692/569 450/713/589 451/712/588
f 529/692/569 530/693/570 449/714/590 450/713/589
f 530/693/570 531/694/571 448/715/591 449/714/590
f 531/694/571 532/695/572 447/716/592 448/715/591
f 532/695/572 533/696/573 446/717/593 447/716/592
f 533/696/573 534/697/574 445/718/594 446/717/593
f 534/697/574 535/698/575 464/719/595 445/718/594
f 535/698/575 536/699/576 463/720/596 464/719/595
f 536/699/576 537/700/577 462/721/597 463/720/596
f 537/700/577 538/701/578 461/722/598 462/721/597
f 538/701/578 539/702/579 460/723/599 461/722/598
f 539/702/579 540/703/580 459/724/600 460/723/599
f 540/703/580 541/704/581 458/725/601 459/724/600
f 541/704/581 542/705/582 457/726/602 458/725/601
f 542/705/582 543/706/583 456/727/603 457/726/602
f 543/706/583 544/707/584 455/728/604 456/727/603
f 544/707/584 545/708/585 454/729/605 455/728/604
f 545/708/585 526/709/567 453/730/587 454/729/605
f 467/627/507 466/626/506 546/731/606
f 468/630/510 467/627/507 546/732/606
f 469/632/512 468/630/510 546/733/606
f 470/634/514 469/632/512 546/734/606
f 471/636/516 470/634/514 546/735/606
f 472/638/518 471/636/516 546/736/606
f 473/640/520 472/638/518 546/737/606
f 474/642/522 473/640/520 546/738/606
f 475/644/524 474/642/522 546/739/606
f 476/646/526 475/644/524 546/740/606
f 477/648/528 476/646/526 546/741/606
f 478/650/530 477/648/528 546/742/606
f 479/652/532 478/650/530 546/743/606
f 480/654/534 479/652/532 546/744/606
f 481/656/536 480/654/534 546/745/606
f 482/658/538 481/656/536 546/746/606
f 483/660/540 482/658/538 546/747/606
f 484/662/542 483/660/540 546/748/606
f 485/664/544 484/662/542 546/749/606
f 466/666/506 485/664/544 546/750/606
