# This file uses centimeters as units for non-parametric coordinates.

mtllib SeedV2.mtl
g default
v 0.057294 0.023106 -0.117473
v 0.056622 0.029709 -0.117472
v 0.052428 0.019723 -0.117469
v 0.052725 0.018623 -0.117469
v 0.053589 0.017632 -0.117470
v 0.054933 0.016845 -0.117471
v 0.056628 0.016339 -0.117472
v 0.058506 0.016165 -0.117474
v 0.060384 0.016339 -0.117475
v 0.062079 0.016845 -0.117476
v 0.063423 0.017632 -0.117478
v 0.064287 0.018623 -0.117478
v 0.064584 0.019723 -0.117479
v 0.058505 0.026317 -0.118280
v 0.060390 0.029709 -0.117475
v 0.058506 0.023153 -0.117474
v 0.054995 0.029541 -0.111139
v 0.053044 0.035184 -0.111137
v 0.044240 0.025791 -0.111130
v 0.040871 0.019723 -0.111127
v 0.041735 0.016532 -0.111128
v 0.044240 0.013654 -0.111130
v 0.048143 0.011370 -0.111133
v 0.053060 0.009904 -0.111137
v 0.058511 0.009399 -0.111142
v 0.063962 0.009904 -0.111146
v 0.068879 0.011370 -0.111150
v 0.072782 0.013654 -0.111153
v 0.075287 0.016532 -0.111155
v 0.076151 0.019723 -0.111156
v 0.072782 0.025791 -0.111153
v 0.063978 0.035183 -0.111146
v 0.058511 0.025392 -0.111142
v 0.053963 0.032435 -0.105768
v 0.051438 0.037645 -0.105766
v 0.040039 0.027579 -0.105757
v 0.035677 0.019723 -0.105753
v 0.036795 0.015592 -0.105754
v 0.040039 0.011866 -0.105757
v 0.045091 0.008909 -0.105761
v 0.051458 0.007010 -0.105766
v 0.058515 0.006356 -0.105772
v 0.065573 0.007010 -0.105777
v 0.071939 0.008909 -0.105783
v 0.076992 0.011866 -0.105787
v 0.080236 0.015592 -0.105789
v 0.081354 0.019723 -0.105790
v 0.076992 0.027579 -0.105787
v 0.065593 0.037645 -0.105777
v 0.058515 0.028434 -0.105772
v 0.053044 0.035015 -0.099093
v 0.050006 0.039840 -0.099090
v 0.036293 0.029174 -0.099079
v 0.031046 0.019723 -0.099075
v 0.032391 0.014754 -0.099076
v 0.036293 0.010271 -0.099079
v 0.042372 0.006714 -0.099084
v 0.050031 0.004430 -0.099090
v 0.058521 0.003643 -0.099097
v 0.067011 0.004430 -0.099104
v 0.074670 0.006714 -0.099110
v 0.080748 0.010271 -0.099115
v 0.084651 0.014754 -0.099118
v 0.085995 0.019723 -0.099119
v 0.080748 0.029174 -0.099115
v 0.067035 0.039840 -0.099104
v 0.058521 0.031148 -0.099097
v 0.051633 0.038993 -0.082514
v 0.047805 0.043223 -0.082511
v 0.030526 0.031632 -0.082497
v 0.023914 0.019723 -0.082492
v 0.025609 0.013461 -0.082493
v 0.030526 0.007813 -0.082497
v 0.038185 0.003331 -0.082503
v 0.047836 0.000453 -0.082511
v 0.058534 -0.000539 -0.082520
v 0.069232 0.000453 -0.082528
v 0.078883 0.003331 -0.082536
v 0.086542 0.007813 -0.082542
v 0.091460 0.013461 -0.082546
v 0.093154 0.019723 -0.082548
v 0.086542 0.031632 -0.082542
v 0.069263 0.043223 -0.082528
v 0.058534 0.035330 -0.082520
v 0.050900 0.041084 -0.063025
v 0.046657 0.045002 -0.063022
v 0.027503 0.032924 -0.063006
v 0.020173 0.019723 -0.063000
v 0.022052 0.012782 -0.063002
v 0.027503 0.006521 -0.063006
v 0.035993 0.001552 -0.063013
v 0.046691 -0.001638 -0.063022
v 0.058550 -0.002738 -0.063031
v 0.070409 -0.001638 -0.063041
v 0.081107 0.001552 -0.063050
v 0.089597 0.006521 -0.063057
v 0.095048 0.012782 -0.063061
v 0.096926 0.019723 -0.063062
v 0.089597 0.032924 -0.063057
v 0.070443 0.045002 -0.063041
v 0.058550 0.037528 -0.063031
v 0.050917 0.041084 -0.042534
v 0.046673 0.045002 -0.042531
v 0.027519 0.032924 -0.042515
v 0.020190 0.019723 -0.042509
v 0.022068 0.012782 -0.042511
v 0.027519 0.006521 -0.042515
v 0.036009 0.001552 -0.042522
v 0.046707 -0.001638 -0.042531
v 0.058566 -0.002738 -0.042540
v 0.070425 -0.001638 -0.042550
v 0.081124 0.001552 -0.042559
v 0.089614 0.006521 -0.042566
v 0.095065 0.012782 -0.042570
v 0.096943 0.019723 -0.042571
v 0.089614 0.032924 -0.042566
v 0.070459 0.045002 -0.042550
v 0.058566 0.037528 -0.042540
v 0.051681 0.038993 -0.023047
v 0.047853 0.043223 -0.023044
v 0.030574 0.031632 -0.023030
v 0.023962 0.019723 -0.023024
v 0.025657 0.013461 -0.023026
v 0.030574 0.007813 -0.023030
v 0.038233 0.003331 -0.023036
v 0.047884 0.000453 -0.023044
v 0.058582 -0.000539 -0.023052
v 0.069280 0.000453 -0.023061
v 0.078931 0.003331 -0.023069
v 0.086590 0.007813 -0.023075
v 0.091508 0.013461 -0.023079
v 0.093202 0.019723 -0.023080
v 0.086590 0.031632 -0.023075
v 0.069311 0.043223 -0.023061
v 0.058582 0.035330 -0.023052
v 0.053119 0.035015 -0.006470
v 0.050081 0.039840 -0.006468
v 0.036368 0.029174 -0.006457
v 0.031121 0.019723 -0.006453
v 0.032466 0.014754 -0.006454
v 0.036368 0.010271 -0.006457
v 0.042446 0.006714 -0.006462
v 0.050105 0.004430 -0.006468
v 0.058596 0.003643 -0.006475
v 0.067086 0.004430 -0.006482
v 0.074745 0.006714 -0.006488
v 0.080823 0.010271 -0.006493
v 0.084725 0.014754 -0.006496
v 0.086070 0.019723 -0.006497
v 0.080823 0.029174 -0.006493
v 0.067110 0.039840 -0.006482
v 0.058596 0.031148 -0.006475
v 0.054049 0.032435 0.000203
v 0.051523 0.037645 0.000205
v 0.040124 0.027579 0.000215
v 0.035763 0.019723 0.000218
v 0.036880 0.015592 0.000217
v 0.040124 0.011866 0.000215
v 0.045177 0.008909 0.000211
v 0.051544 0.007010 0.000205
v 0.058601 0.006356 0.000200
v 0.065658 0.007010 0.000194
v 0.072025 0.008909 0.000189
v 0.077078 0.011866 0.000185
v 0.080321 0.015592 0.000182
v 0.081439 0.019723 0.000181
v 0.077078 0.027579 0.000185
v 0.065679 0.037645 0.000194
v 0.058601 0.028434 0.000200
v 0.055089 0.029541 0.005572
v 0.053139 0.035184 0.005574
v 0.044334 0.025791 0.005581
v 0.040966 0.019723 0.005584
v 0.041829 0.016532 0.005583
v 0.044334 0.013654 0.005581
v 0.048237 0.011370 0.005578
v 0.053154 0.009904 0.005574
v 0.058605 0.009399 0.005570
v 0.064056 0.009904 0.005565
v 0.068974 0.011370 0.005561
v 0.072876 0.013654 0.005558
v 0.075382 0.016532 0.005556
v 0.076245 0.019723 0.005555
v 0.072876 0.025791 0.005558
v 0.064072 0.035183 0.005565
v 0.058605 0.025392 0.005570
v 0.057399 0.023106 0.011903
v 0.056727 0.029709 0.011903
v 0.052532 0.019723 0.011907
v 0.052830 0.018623 0.011906
v 0.053693 0.017632 0.011906
v 0.055038 0.016845 0.011905
v 0.056732 0.016339 0.011903
v 0.058610 0.016165 0.011902
v 0.060489 0.016339 0.011900
v 0.062183 0.016845 0.011899
v 0.063528 0.017632 0.011898
v 0.064391 0.018623 0.011897
v 0.064689 0.019723 0.011897
v 0.058611 0.024560 0.012064
v 0.060494 0.029709 0.011900
v 0.059822 0.023106 0.011901
v 0.034120 0.023106 0.003575
v 0.033681 0.029709 0.003065
v 0.030947 0.019723 -0.000115
v 0.031141 0.018623 0.000110
v 0.031704 0.017632 0.000765
v 0.032580 0.016845 0.001785
v 0.033685 0.016339 0.003069
v 0.034910 0.016165 0.004494
v 0.036134 0.016339 0.005918
v 0.037239 0.016845 0.007203
v 0.038116 0.017632 0.008222
v 0.038678 0.018623 0.008877
v 0.038872 0.019723 0.009102
v 0.035521 0.026317 0.003968
v 0.036138 0.029709 0.005922
v 0.034910 0.023153 0.004494
v 0.027816 0.029541 0.005956
v 0.026544 0.035184 0.004477
v 0.020804 0.025791 -0.002199
v 0.018608 0.019723 -0.004753
v 0.019171 0.016532 -0.004099
v 0.020804 0.013654 -0.002199
v 0.023348 0.011370 0.000760
v 0.026554 0.009904 0.004489
v 0.030108 0.009399 0.008622
v 0.033662 0.009904 0.012755
v 0.036868 0.011370 0.016484
v 0.039413 0.013654 0.019443
v 0.041046 0.016532 0.021342
v 0.041609 0.019723 0.021997
v 0.039413 0.025791 0.019443
v 0.033672 0.035183 0.012767
v 0.030108 0.025392 0.008622
v 0.017405 0.035015 0.012322
v 0.015425 0.039840 0.010018
v 0.006484 0.029174 -0.000379
v 0.003063 0.019723 -0.004358
v 0.003940 0.014754 -0.003338
v 0.006484 0.010271 -0.000379
v 0.010447 0.006714 0.004230
v 0.015440 0.004430 0.010037
v 0.020976 0.003643 0.016474
v 0.026511 0.004430 0.022912
v 0.031505 0.006714 0.028719
v 0.035467 0.010271 0.033328
v 0.038012 0.014754 0.036287
v 0.038888 0.019723 0.037307
v 0.035467 0.029174 0.033328
v 0.026527 0.039840 0.022930
v 0.020976 0.031148 0.016474
v 0.003907 0.038993 0.022050
v 0.001411 0.043223 0.019148
v -0.009855 0.031632 0.006046
v -0.014165 0.019723 0.001032
v -0.013061 0.013461 0.002317
v -0.009855 0.007813 0.006046
v -0.004861 0.003331 0.011853
v 0.001431 0.000453 0.019171
v 0.008406 -0.000539 0.027283
v 0.015381 0.000453 0.035394
v 0.021673 0.003331 0.042712
v 0.026667 0.007813 0.048520
v 0.029873 0.013461 0.052248
v 0.030977 0.019723 0.053533
v 0.026667 0.031632 0.048520
v 0.015401 0.043223 0.035418
v 0.008406 0.035330 0.027283
v -0.011358 0.041084 0.034188
v -0.014125 0.045002 0.030971
v -0.026613 0.032924 0.016447
v -0.031391 0.019723 0.010890
v -0.030167 0.012782 0.012314
v -0.026613 0.006521 0.016447
v -0.021077 0.001552 0.022885
v -0.014102 -0.001638 0.030996
v -0.006371 -0.002738 0.039988
v 0.001361 -0.001638 0.048980
v 0.008336 0.001552 0.057092
v 0.013871 0.006521 0.063530
v 0.017425 0.012782 0.067663
v 0.018650 0.019723 0.069087
v 0.013871 0.032924 0.063530
v 0.001383 0.045002 0.049006
v -0.006371 0.037528 0.039988
v -0.026895 0.041084 0.047548
v -0.029662 0.045002 0.044330
v -0.042150 0.032924 0.029807
v -0.046928 0.019723 0.024249
v -0.045704 0.012782 0.025674
v -0.042150 0.006521 0.029807
v -0.036615 0.001552 0.036244
v -0.029640 -0.001638 0.044356
v -0.021908 -0.002738 0.053348
v -0.014176 -0.001638 0.062340
v -0.007201 0.001552 0.070452
v -0.001666 0.006521 0.076889
v 0.001888 0.012782 0.081022
v 0.003113 0.019723 0.082447
v -0.001666 0.032924 0.076889
v -0.014154 0.045002 0.062366
v -0.021908 0.037528 0.053348
v -0.041184 0.038993 0.060821
v -0.043679 0.043223 0.057919
v -0.054945 0.031632 0.044817
v -0.059256 0.019723 0.039804
v -0.058151 0.013461 0.041088
v -0.054945 0.007813 0.044817
v -0.049952 0.003331 0.050624
v -0.043659 0.000453 0.057942
v -0.036685 -0.000539 0.066054
v -0.029710 0.000453 0.074166
v -0.023418 0.003331 0.081483
v -0.018424 0.007813 0.087291
v -0.015218 0.013461 0.091019
v -0.014113 0.019723 0.092304
v -0.018424 0.031632 0.087291
v -0.029690 0.043223 0.074189
v -0.036685 0.035330 0.066054
v -0.052825 0.035015 0.072709
v -0.054806 0.039840 0.070406
v -0.063746 0.029174 0.060008
v -0.067167 0.019723 0.056030
v -0.066290 0.014754 0.057049
v -0.063746 0.010271 0.060008
v -0.059783 0.006714 0.064617
v -0.054790 0.004430 0.070424
v -0.049254 0.003643 0.076862
v -0.043719 0.004430 0.083299
v -0.038726 0.006714 0.089107
v -0.034763 0.010271 0.093716
v -0.032218 0.014754 0.096675
v -0.031342 0.019723 0.097694
v -0.034763 0.029174 0.093716
v -0.043703 0.039840 0.083318
v -0.049254 0.031148 0.076862
v -0.057283 0.032435 0.077762
v -0.058930 0.037645 0.075847
v -0.066362 0.027579 0.067204
v -0.069205 0.019723 0.063897
v -0.068477 0.015592 0.064744
v -0.066362 0.011866 0.067204
v -0.063067 0.008909 0.071035
v -0.058917 0.007010 0.075862
v -0.054315 0.006356 0.081214
v -0.049714 0.007010 0.086565
v -0.045563 0.008909 0.091392
v -0.042269 0.011866 0.095223
v -0.040154 0.015592 0.097683
v -0.039425 0.019723 0.098530
v -0.042269 0.027579 0.095223
v -0.049701 0.037645 0.086580
v -0.054315 0.028434 0.081214
v -0.060679 0.029541 0.082048
v -0.061951 0.035184 0.080570
v -0.067691 0.025791 0.073894
v -0.069888 0.019723 0.071339
v -0.069325 0.016532 0.071994
v -0.067691 0.013654 0.073894
v -0.065147 0.011370 0.076853
v -0.061941 0.009904 0.080581
v -0.058387 0.009399 0.084715
v -0.054833 0.009904 0.088848
v -0.051627 0.011370 0.092576
v -0.049083 0.013654 0.095535
v -0.047449 0.016532 0.097435
v -0.046886 0.019723 0.098090
v -0.049083 0.025791 0.095535
v -0.054823 0.035183 0.088860
v -0.058387 0.025392 0.084715
v -0.063978 0.023106 0.087924
v -0.064416 0.029709 0.087415
v -0.067151 0.019723 0.084234
v -0.066957 0.018623 0.084460
v -0.066394 0.017632 0.085114
v -0.065517 0.016845 0.086134
v -0.064413 0.016339 0.087419
v -0.063188 0.016165 0.088843
v -0.061964 0.016339 0.090267
v -0.060859 0.016845 0.091552
v -0.059982 0.017632 0.092571
v -0.059419 0.018623 0.093226
v -0.059225 0.019723 0.093452
v -0.063311 0.024560 0.088948
v -0.061960 0.029709 0.090271
v -0.062398 0.023106 0.089762
v 0.005957 0.023106 -0.100486
v 0.005519 0.029709 -0.100995
v 0.002785 0.019723 -0.104176
v 0.002979 0.018623 -0.103950
v 0.003541 0.017632 -0.103295
v 0.004418 0.016845 -0.102276
v 0.005523 0.016339 -0.100991
v 0.006747 0.016165 -0.099567
v 0.007972 0.016339 -0.098143
v 0.009077 0.016845 -0.096858
v 0.009953 0.017632 -0.095838
v 0.010516 0.018623 -0.095184
v 0.010710 0.019723 -0.094958
v 0.007359 0.026317 -0.100093
v 0.007976 0.029709 -0.098139
v 0.006747 0.023153 -0.099567
v -0.000346 0.029541 -0.098105
v -0.001618 0.035184 -0.099584
v -0.007358 0.025791 -0.106259
v -0.009554 0.019723 -0.108814
v -0.008992 0.016532 -0.108159
v -0.007358 0.013654 -0.106259
v -0.004814 0.011370 -0.103300
v -0.001608 0.009904 -0.099572
v 0.001946 0.009399 -0.095439
v 0.005500 0.009904 -0.091305
v 0.008706 0.011370 -0.087577
v 0.011250 0.013654 -0.084618
v 0.012884 0.016532 -0.082718
v 0.013447 0.019723 -0.082063
v 0.011250 0.025791 -0.084618
v 0.005510 0.035183 -0.091294
v 0.001946 0.025392 -0.095439
v -0.010757 0.035015 -0.091739
v -0.012738 0.039840 -0.094042
v -0.021678 0.029174 -0.104440
v -0.025099 0.019723 -0.108418
v -0.024222 0.014754 -0.107399
v -0.021678 0.010271 -0.104440
v -0.017715 0.006714 -0.099831
v -0.012722 0.004430 -0.094023
v -0.007186 0.003643 -0.087586
v -0.001651 0.004430 -0.081148
v 0.003342 0.006714 -0.075341
v 0.007305 0.010271 -0.070732
v 0.009850 0.014754 -0.067773
v 0.010726 0.019723 -0.066754
v 0.007305 0.029174 -0.070732
v -0.001635 0.039840 -0.081130
v -0.007186 0.031148 -0.087586
v -0.024255 0.038993 -0.082010
v -0.026751 0.043223 -0.084913
v -0.038017 0.031632 -0.098015
v -0.042327 0.019723 -0.103028
v -0.041223 0.013461 -0.101743
v -0.038017 0.007813 -0.098015
v -0.033023 0.003331 -0.092207
v -0.026731 0.000453 -0.084890
v -0.019756 -0.000539 -0.076778
v -0.012781 0.000453 -0.068666
v -0.006489 0.003331 -0.061348
v -0.001496 0.007813 -0.055541
v 0.001710 0.013461 -0.051812
v 0.002815 0.019723 -0.050528
v -0.001496 0.031632 -0.055541
v -0.012761 0.043223 -0.068643
v -0.019756 0.035330 -0.076778
v -0.039520 0.041084 -0.069872
v -0.042287 0.045002 -0.073090
v -0.054775 0.032924 -0.087613
v -0.059553 0.019723 -0.093171
v -0.058329 0.012782 -0.091746
v -0.054775 0.006521 -0.087613
v -0.049240 0.001552 -0.081176
v -0.042265 -0.001638 -0.073064
v -0.034533 -0.002738 -0.064072
v -0.026801 -0.001638 -0.055080
v -0.019826 0.001552 -0.046968
v -0.014291 0.006521 -0.040531
v -0.010737 0.012782 -0.036398
v -0.009512 0.019723 -0.034973
v -0.014291 0.032924 -0.040531
v -0.026779 0.045002 -0.055054
v -0.034533 0.037528 -0.064072
v -0.055057 0.041084 -0.056513
v -0.057824 0.045002 -0.059730
v -0.070312 0.032924 -0.074254
v -0.075090 0.019723 -0.079811
v -0.073866 0.012782 -0.078387
v -0.070312 0.006521 -0.074254
v -0.064777 0.001552 -0.067816
v -0.057802 -0.001638 -0.059704
v -0.050070 -0.002738 -0.050712
v -0.042338 -0.001638 -0.041720
v -0.035363 0.001552 -0.033609
v -0.029828 0.006521 -0.027171
v -0.026274 0.012782 -0.023038
v -0.025050 0.019723 -0.021614
v -0.029828 0.032924 -0.027171
v -0.042316 0.045002 -0.041695
v -0.050070 0.037528 -0.050712
v -0.069346 0.038993 -0.043239
v -0.071842 0.043223 -0.046142
v -0.083107 0.031632 -0.059244
v -0.087418 0.019723 -0.064257
v -0.086313 0.013461 -0.062972
v -0.083107 0.007813 -0.059244
v -0.078114 0.003331 -0.053436
v -0.071822 0.000453 -0.046118
v -0.064847 -0.000539 -0.038007
v -0.057872 0.000453 -0.029895
v -0.051580 0.003331 -0.022577
v -0.046586 0.007813 -0.016770
v -0.043380 0.013461 -0.013041
v -0.042275 0.019723 -0.011756
v -0.046586 0.031632 -0.016770
v -0.057852 0.043223 -0.029872
v -0.064847 0.035330 -0.038007
v -0.080987 0.035015 -0.031351
v -0.082968 0.039840 -0.033654
v -0.091908 0.029174 -0.044052
v -0.095329 0.019723 -0.048031
v -0.094453 0.014754 -0.047011
v -0.091908 0.010271 -0.044052
v -0.087945 0.006714 -0.039443
v -0.082952 0.004430 -0.033636
v -0.077417 0.003643 -0.027198
v -0.071881 0.004430 -0.020761
v -0.066888 0.006714 -0.014954
v -0.062925 0.010271 -0.010345
v -0.060381 0.014754 -0.007386
v -0.059504 0.019723 -0.006366
v -0.062925 0.029174 -0.010345
v -0.071865 0.039840 -0.020743
v -0.077417 0.031148 -0.027198
v -0.085445 0.032435 -0.026299
v -0.087092 0.037645 -0.028213
v -0.094524 0.027579 -0.036857
v -0.097367 0.019723 -0.040164
v -0.096639 0.015592 -0.039316
v -0.094524 0.011866 -0.036857
v -0.091230 0.008909 -0.033026
v -0.087079 0.007010 -0.028198
v -0.082477 0.006356 -0.022847
v -0.077876 0.007010 -0.017496
v -0.073725 0.008909 -0.012668
v -0.070431 0.011866 -0.008837
v -0.068316 0.015592 -0.006377
v -0.067587 0.019723 -0.005530
v -0.070431 0.027579 -0.008837
v -0.077863 0.037645 -0.017480
v -0.082477 0.028434 -0.022847
v -0.088842 0.029541 -0.022012
v -0.090113 0.035184 -0.023491
v -0.095853 0.025791 -0.030167
v -0.098050 0.019723 -0.032721
v -0.097487 0.016532 -0.032066
v -0.095853 0.013654 -0.030167
v -0.093309 0.011370 -0.027208
v -0.090103 0.009904 -0.023479
v -0.086549 0.009399 -0.019346
v -0.082995 0.009904 -0.015213
v -0.079789 0.011370 -0.011484
v -0.077245 0.013654 -0.008525
v -0.075611 0.016532 -0.006625
v -0.075048 0.019723 -0.005971
v -0.077245 0.025791 -0.008525
v -0.082985 0.035183 -0.015201
v -0.086549 0.025392 -0.019346
v -0.092140 0.023106 -0.016136
v -0.092578 0.029709 -0.016646
v -0.095313 0.019723 -0.019826
v -0.095119 0.018623 -0.019601
v -0.094556 0.017632 -0.018946
v -0.093680 0.016845 -0.017927
v -0.092575 0.016339 -0.016642
v -0.091350 0.016165 -0.015218
v -0.090126 0.016339 -0.013793
v -0.089021 0.016845 -0.012509
v -0.088144 0.017632 -0.011489
v -0.087581 0.018623 -0.010834
v -0.087387 0.019723 -0.010609
v -0.091473 0.024560 -0.015112
v -0.090122 0.029709 -0.013789
v -0.090560 0.023106 -0.014299
vt 0.610438 0.449010
vt 0.614193 0.449010
vt 0.625458 0.449010
vt 0.629214 0.449010
vt 0.632969 0.449010
vt 0.636724 0.449010
vt 0.640479 0.449010
vt 0.644234 0.449010
vt 0.647989 0.449010
vt 0.651744 0.449010
vt 0.655499 0.449010
vt 0.659255 0.449010
vt 0.663010 0.449010
vt 0.664887 0.445255
vt 0.674275 0.449010
vt 0.681785 0.449010
vt 0.685540 0.449010
vt 0.610438 0.456520
vt 0.614193 0.456520
vt 0.617948 0.456520
vt 0.625458 0.456520
vt 0.629214 0.456520
vt 0.632969 0.456520
vt 0.636724 0.456520
vt 0.640479 0.456520
vt 0.644234 0.456520
vt 0.647989 0.456520
vt 0.651744 0.456520
vt 0.655499 0.456520
vt 0.659255 0.456520
vt 0.663010 0.456520
vt 0.670520 0.456520
vt 0.674275 0.456520
vt 0.681785 0.456520
vt 0.685540 0.456520
vt 0.610438 0.460275
vt 0.614193 0.460275
vt 0.617948 0.460275
vt 0.625458 0.460275
vt 0.629214 0.460275
vt 0.632969 0.460275
vt 0.636724 0.460275
vt 0.640479 0.460275
vt 0.644234 0.460275
vt 0.647989 0.460275
vt 0.651744 0.460275
vt 0.655499 0.460275
vt 0.659255 0.460275
vt 0.663010 0.460275
vt 0.670520 0.460275
vt 0.674275 0.460275
vt 0.681785 0.460275
vt 0.685540 0.460275
vt 0.610438 0.464030
vt 0.614193 0.464030
vt 0.617948 0.464030
vt 0.625458 0.464030
vt 0.629214 0.464030
vt 0.632969 0.464030
vt 0.636724 0.464030
vt 0.640479 0.464030
vt 0.644234 0.464030
vt 0.647989 0.464030
vt 0.651744 0.464030
vt 0.655499 0.464030
vt 0.659255 0.464030
vt 0.663010 0.464030
vt 0.670520 0.464030
vt 0.674275 0.464030
vt 0.681785 0.464030
vt 0.685540 0.464030
vt 0.610438 0.471541
vt 0.614193 0.471541
vt 0.617948 0.471541
vt 0.625458 0.471541
vt 0.629214 0.471541
vt 0.632969 0.471541
vt 0.636724 0.471541
vt 0.640479 0.471541
vt 0.644234 0.471541
vt 0.647989 0.471541
vt 0.651744 0.471541
vt 0.655499 0.471541
vt 0.659255 0.471541
vt 0.663010 0.471541
vt 0.670520 0.471541
vt 0.674275 0.471541
vt 0.681785 0.471541
vt 0.685540 0.471541
vt 0.610438 0.479051
vt 0.614193 0.479051
vt 0.617948 0.479051
vt 0.625458 0.479051
vt 0.629214 0.479051
vt 0.632969 0.479051
vt 0.636724 0.479051
vt 0.640479 0.479051
vt 0.644234 0.479051
vt 0.647989 0.479051
vt 0.651744 0.479051
vt 0.655499 0.479051
vt 0.659255 0.479051
vt 0.663010 0.479051
vt 0.670520 0.479051
vt 0.674275 0.479051
vt 0.681785 0.479051
vt 0.685540 0.479051
vt 0.610438 0.486561
vt 0.614193 0.486561
vt 0.617948 0.486561
vt 0.625458 0.486561
vt 0.629214 0.486561
vt 0.632969 0.486561
vt 0.636724 0.486561
vt 0.640479 0.486561
vt 0.644234 0.486561
vt 0.647989 0.486561
vt 0.651744 0.486561
vt 0.655499 0.486561
vt 0.659255 0.486561
vt 0.663010 0.486561
vt 0.670520 0.486561
vt 0.674275 0.486561
vt 0.681785 0.486561
vt 0.685540 0.486561
vt 0.610438 0.494071
vt 0.614193 0.494071
vt 0.617948 0.494071
vt 0.625458 0.494071
vt 0.629214 0.494071
vt 0.632969 0.494071
vt 0.636724 0.494071
vt 0.640479 0.494071
vt 0.644234 0.494071
vt 0.647989 0.494071
vt 0.651744 0.494071
vt 0.655499 0.494071
vt 0.659255 0.494071
vt 0.663010 0.494071
vt 0.670520 0.494071
vt 0.674275 0.494071
vt 0.681785 0.494071
vt 0.685540 0.494071
vt 0.610438 0.501581
vt 0.614193 0.501581
vt 0.617948 0.501581
vt 0.625458 0.501581
vt 0.629214 0.501581
vt 0.632969 0.501581
vt 0.636724 0.501581
vt 0.640479 0.501581
vt 0.644234 0.501581
vt 0.647989 0.501581
vt 0.651744 0.501581
vt 0.655499 0.501581
vt 0.659255 0.501581
vt 0.663010 0.501581
vt 0.670520 0.501581
vt 0.674275 0.501581
vt 0.681785 0.501581
vt 0.685540 0.501581
vt 0.610438 0.505337
vt 0.614193 0.505337
vt 0.617948 0.505337
vt 0.625458 0.505337
vt 0.629214 0.505337
vt 0.632969 0.505337
vt 0.636724 0.505337
vt 0.640479 0.505337
vt 0.644234 0.505337
vt 0.647989 0.505337
vt 0.651744 0.505337
vt 0.655499 0.505337
vt 0.659255 0.505337
vt 0.663010 0.505337
vt 0.670520 0.505337
vt 0.674275 0.505337
vt 0.681785 0.505337
vt 0.685540 0.505337
vt 0.610438 0.509092
vt 0.614193 0.509092
vt 0.617948 0.509092
vt 0.625458 0.509092
vt 0.629214 0.509092
vt 0.632969 0.509092
vt 0.636724 0.509092
vt 0.640479 0.509092
vt 0.644234 0.509092
vt 0.647989 0.509092
vt 0.651744 0.509092
vt 0.655499 0.509092
vt 0.659255 0.509092
vt 0.663010 0.509092
vt 0.670520 0.509092
vt 0.674275 0.509092
vt 0.681785 0.509092
vt 0.685540 0.509092
vt 0.610438 0.516602
vt 0.614193 0.516602
vt 0.619826 0.520357
vt 0.625458 0.516602
vt 0.629214 0.516602
vt 0.632969 0.516602
vt 0.636724 0.516602
vt 0.640479 0.516602
vt 0.644234 0.516602
vt 0.647989 0.516602
vt 0.651744 0.516602
vt 0.655499 0.516602
vt 0.659255 0.516602
vt 0.663010 0.516602
vt 0.672397 0.520357
vt 0.674275 0.516602
vt 0.678030 0.516602
vt 0.683663 0.520357
vt 0.685540 0.516602
vt 0.612316 0.445255
vt 0.619826 0.445255
vt 0.623581 0.445255
vt 0.627336 0.445255
vt 0.631091 0.445255
vt 0.634846 0.445255
vt 0.638601 0.445255
vt 0.642356 0.445255
vt 0.646112 0.445255
vt 0.649867 0.445255
vt 0.653622 0.445255
vt 0.657377 0.445255
vt 0.661132 0.445255
vt 0.676153 0.445255
vt 0.683663 0.445255
vt 0.612316 0.520357
vt 0.627336 0.520357
vt 0.631091 0.520357
vt 0.634846 0.520357
vt 0.638601 0.520357
vt 0.642356 0.520357
vt 0.646112 0.520357
vt 0.649867 0.520357
vt 0.653622 0.520357
vt 0.657377 0.520357
vt 0.661132 0.520357
vt 0.676153 0.520357
vt 0.610224 0.448817
vt 0.614001 0.448817
vt 0.614001 0.456370
vt 0.610224 0.456370
vt 0.617777 0.456370
vt 0.625330 0.448817
vt 0.625330 0.456370
vt 0.629107 0.448817
vt 0.629107 0.456370
vt 0.632883 0.448817
vt 0.632883 0.456370
vt 0.636660 0.448817
vt 0.636660 0.456370
vt 0.640436 0.448817
vt 0.640436 0.456370
vt 0.644213 0.448817
vt 0.644213 0.456370
vt 0.647989 0.448817
vt 0.647989 0.456370
vt 0.651766 0.448817
vt 0.651766 0.456370
vt 0.655542 0.448817
vt 0.655542 0.456370
vt 0.659319 0.448817
vt 0.659319 0.456370
vt 0.663095 0.448817
vt 0.663095 0.456370
vt 0.664984 0.445041
vt 0.670648 0.456370
vt 0.674425 0.448817
vt 0.674425 0.456370
vt 0.681978 0.448817
vt 0.681978 0.456370
vt 0.685754 0.448817
vt 0.685754 0.456370
vt 0.614001 0.463923
vt 0.610224 0.463923
vt 0.617777 0.463923
vt 0.625330 0.463923
vt 0.629107 0.463923
vt 0.632883 0.463923
vt 0.636660 0.463923
vt 0.640436 0.463923
vt 0.644213 0.463923
vt 0.647989 0.463923
vt 0.651766 0.463923
vt 0.655542 0.463923
vt 0.659319 0.463923
vt 0.663095 0.463923
vt 0.670648 0.463923
vt 0.674425 0.463923
vt 0.681978 0.463923
vt 0.685754 0.463923
vt 0.614001 0.471476
vt 0.610224 0.471476
vt 0.617777 0.471476
vt 0.625330 0.471476
vt 0.629107 0.471476
vt 0.632883 0.471476
vt 0.636660 0.471476
vt 0.640436 0.471476
vt 0.644213 0.471476
vt 0.647989 0.471476
vt 0.651766 0.471476
vt 0.655542 0.471476
vt 0.659319 0.471476
vt 0.663095 0.471476
vt 0.670648 0.471476
vt 0.674425 0.471476
vt 0.681978 0.471476
vt 0.685754 0.471476
vt 0.614001 0.479029
vt 0.610224 0.479029
vt 0.617777 0.479029
vt 0.625330 0.479029
vt 0.629107 0.479029
vt 0.632883 0.479029
vt 0.636660 0.479029
vt 0.640436 0.479029
vt 0.644213 0.479029
vt 0.647989 0.479029
vt 0.651766 0.479029
vt 0.655542 0.479029
vt 0.659319 0.479029
vt 0.663095 0.479029
vt 0.670648 0.479029
vt 0.674425 0.479029
vt 0.681978 0.479029
vt 0.685754 0.479029
vt 0.614001 0.486582
vt 0.610224 0.486582
vt 0.617777 0.486582
vt 0.625330 0.486582
vt 0.629107 0.486582
vt 0.632883 0.486582
vt 0.636660 0.486582
vt 0.640436 0.486582
vt 0.644213 0.486582
vt 0.647989 0.486582
vt 0.651766 0.486582
vt 0.655542 0.486582
vt 0.659319 0.486582
vt 0.663095 0.486582
vt 0.670648 0.486582
vt 0.674425 0.486582
vt 0.681978 0.486582
vt 0.685754 0.486582
vt 0.614001 0.494135
vt 0.610224 0.494135
vt 0.617777 0.494135
vt 0.625330 0.494135
vt 0.629107 0.494135
vt 0.632883 0.494135
vt 0.636660 0.494135
vt 0.640436 0.494135
vt 0.644213 0.494135
vt 0.647989 0.494135
vt 0.651766 0.494135
vt 0.655542 0.494135
vt 0.659319 0.494135
vt 0.663095 0.494135
vt 0.670648 0.494135
vt 0.674425 0.494135
vt 0.681978 0.494135
vt 0.685754 0.494135
vt 0.614001 0.501688
vt 0.610224 0.501688
vt 0.617777 0.501688
vt 0.625330 0.501688
vt 0.629107 0.501688
vt 0.632883 0.501688
vt 0.636660 0.501688
vt 0.640436 0.501688
vt 0.644213 0.501688
vt 0.647989 0.501688
vt 0.651766 0.501688
vt 0.655542 0.501688
vt 0.659319 0.501688
vt 0.663095 0.501688
vt 0.670648 0.501688
vt 0.674425 0.501688
vt 0.681978 0.501688
vt 0.685754 0.501688
vt 0.614001 0.505465
vt 0.610224 0.505465
vt 0.617777 0.505465
vt 0.625330 0.505465
vt 0.629107 0.505465
vt 0.632883 0.505465
vt 0.636660 0.505465
vt 0.640436 0.505465
vt 0.644213 0.505465
vt 0.647989 0.505465
vt 0.651766 0.505465
vt 0.655542 0.505465
vt 0.659319 0.505465
vt 0.663095 0.505465
vt 0.670648 0.505465
vt 0.674425 0.505465
vt 0.681978 0.505465
vt 0.685754 0.505465
vt 0.614001 0.509241
vt 0.610224 0.509241
vt 0.617777 0.509241
vt 0.625330 0.509241
vt 0.629107 0.509241
vt 0.632883 0.509241
vt 0.636660 0.509241
vt 0.640436 0.509241
vt 0.644213 0.509241
vt 0.647989 0.509241
vt 0.651766 0.509241
vt 0.655542 0.509241
vt 0.659319 0.509241
vt 0.663095 0.509241
vt 0.670648 0.509241
vt 0.674425 0.509241
vt 0.681978 0.509241
vt 0.685754 0.509241
vt 0.614001 0.516795
vt 0.610224 0.516795
vt 0.619665 0.520571
vt 0.625330 0.516795
vt 0.629107 0.516795
vt 0.632883 0.516795
vt 0.636660 0.516795
vt 0.640436 0.516795
vt 0.644213 0.516795
vt 0.647989 0.516795
vt 0.651766 0.516795
vt 0.655542 0.516795
vt 0.659319 0.516795
vt 0.663095 0.516795
vt 0.672537 0.520571
vt 0.674425 0.516795
vt 0.678201 0.516795
vt 0.683866 0.520571
vt 0.685754 0.516795
vt 0.612112 0.445041
vt 0.619665 0.445041
vt 0.623442 0.445041
vt 0.627218 0.445041
vt 0.630995 0.445041
vt 0.634771 0.445041
vt 0.638548 0.445041
vt 0.642324 0.445041
vt 0.646101 0.445041
vt 0.649877 0.445041
vt 0.653654 0.445041
vt 0.657431 0.445041
vt 0.661207 0.445041
vt 0.676313 0.445041
vt 0.683866 0.445041
vt 0.612112 0.520571
vt 0.627218 0.520571
vt 0.630995 0.520571
vt 0.634771 0.520571
vt 0.638548 0.520571
vt 0.642324 0.520571
vt 0.646101 0.520571
vt 0.649877 0.520571
vt 0.653654 0.520571
vt 0.657431 0.520571
vt 0.661207 0.520571
vt 0.676313 0.520571
vt 0.609583 0.448240
vt 0.613423 0.448240
vt 0.613423 0.455921
vt 0.609583 0.455921
vt 0.617264 0.455921
vt 0.624945 0.448240
vt 0.624945 0.455921
vt 0.628786 0.448240
vt 0.628786 0.455921
vt 0.632627 0.448240
vt 0.632627 0.455921
vt 0.636467 0.448240
vt 0.636467 0.455921
vt 0.640308 0.448240
vt 0.640308 0.455921
vt 0.644149 0.448240
vt 0.644149 0.455921
vt 0.647989 0.448240
vt 0.647989 0.455921
vt 0.651830 0.448240
vt 0.651830 0.455921
vt 0.655671 0.448240
vt 0.655671 0.455921
vt 0.659511 0.448240
vt 0.659511 0.455921
vt 0.663352 0.448240
vt 0.663352 0.455921
vt 0.665272 0.444399
vt 0.671033 0.455921
vt 0.674874 0.448240
vt 0.674874 0.455921
vt 0.682555 0.448240
vt 0.682555 0.455921
vt 0.686396 0.448240
vt 0.686396 0.455921
vt 0.613423 0.463603
vt 0.609583 0.463603
vt 0.617264 0.463603
vt 0.624945 0.463603
vt 0.628786 0.463603
vt 0.632627 0.463603
vt 0.636467 0.463603
vt 0.640308 0.463603
vt 0.644149 0.463603
vt 0.647989 0.463603
vt 0.651830 0.463603
vt 0.655671 0.463603
vt 0.659511 0.463603
vt 0.663352 0.463603
vt 0.671033 0.463603
vt 0.674874 0.463603
vt 0.682555 0.463603
vt 0.686396 0.463603
vt 0.613423 0.471284
vt 0.609583 0.471284
vt 0.617264 0.471284
vt 0.624945 0.471284
vt 0.628786 0.471284
vt 0.632627 0.471284
vt 0.636467 0.471284
vt 0.640308 0.471284
vt 0.644149 0.471284
vt 0.647989 0.471284
vt 0.651830 0.471284
vt 0.655671 0.471284
vt 0.659511 0.471284
vt 0.663352 0.471284
vt 0.671033 0.471284
vt 0.674874 0.471284
vt 0.682555 0.471284
vt 0.686396 0.471284
vt 0.613423 0.478965
vt 0.609583 0.478965
vt 0.617264 0.478965
vt 0.624945 0.478965
vt 0.628786 0.478965
vt 0.632627 0.478965
vt 0.636467 0.478965
vt 0.640308 0.478965
vt 0.644149 0.478965
vt 0.647989 0.478965
vt 0.651830 0.478965
vt 0.655671 0.478965
vt 0.659511 0.478965
vt 0.663352 0.478965
vt 0.671033 0.478965
vt 0.674874 0.478965
vt 0.682555 0.478965
vt 0.686396 0.478965
vt 0.613423 0.486647
vt 0.609583 0.486647
vt 0.617264 0.486647
vt 0.624945 0.486647
vt 0.628786 0.486647
vt 0.632627 0.486647
vt 0.636467 0.486647
vt 0.640308 0.486647
vt 0.644149 0.486647
vt 0.647989 0.486647
vt 0.651830 0.486647
vt 0.655671 0.486647
vt 0.659511 0.486647
vt 0.663352 0.486647
vt 0.671033 0.486647
vt 0.674874 0.486647
vt 0.682555 0.486647
vt 0.686396 0.486647
vt 0.613423 0.494328
vt 0.609583 0.494328
vt 0.617264 0.494328
vt 0.624945 0.494328
vt 0.628786 0.494328
vt 0.632627 0.494328
vt 0.636467 0.494328
vt 0.640308 0.494328
vt 0.644149 0.494328
vt 0.647989 0.494328
vt 0.651830 0.494328
vt 0.655671 0.494328
vt 0.659511 0.494328
vt 0.663352 0.494328
vt 0.671033 0.494328
vt 0.674874 0.494328
vt 0.682555 0.494328
vt 0.686396 0.494328
vt 0.613423 0.502009
vt 0.609583 0.502009
vt 0.617264 0.502009
vt 0.624945 0.502009
vt 0.628786 0.502009
vt 0.632627 0.502009
vt 0.636467 0.502009
vt 0.640308 0.502009
vt 0.644149 0.502009
vt 0.647989 0.502009
vt 0.651830 0.502009
vt 0.655671 0.502009
vt 0.659511 0.502009
vt 0.663352 0.502009
vt 0.671033 0.502009
vt 0.674874 0.502009
vt 0.682555 0.502009
vt 0.686396 0.502009
vt 0.613423 0.505850
vt 0.609583 0.505850
vt 0.617264 0.505850
vt 0.624945 0.505850
vt 0.628786 0.505850
vt 0.632627 0.505850
vt 0.636467 0.505850
vt 0.640308 0.505850
vt 0.644149 0.505850
vt 0.647989 0.505850
vt 0.651830 0.505850
vt 0.655671 0.505850
vt 0.659511 0.505850
vt 0.663352 0.505850
vt 0.671033 0.505850
vt 0.674874 0.505850
vt 0.682555 0.505850
vt 0.686396 0.505850
vt 0.613423 0.509690
vt 0.609583 0.509690
vt 0.617264 0.509690
vt 0.624945 0.509690
vt 0.628786 0.509690
vt 0.632627 0.509690
vt 0.636467 0.509690
vt 0.640308 0.509690
vt 0.644149 0.509690
vt 0.647989 0.509690
vt 0.651830 0.509690
vt 0.655671 0.509690
vt 0.659511 0.509690
vt 0.663352 0.509690
vt 0.671033 0.509690
vt 0.674874 0.509690
vt 0.682555 0.509690
vt 0.686396 0.509690
vt 0.613423 0.517372
vt 0.609583 0.517372
vt 0.619184 0.521212
vt 0.624945 0.517372
vt 0.628786 0.517372
vt 0.632627 0.517372
vt 0.636467 0.517372
vt 0.640308 0.517372
vt 0.644149 0.517372
vt 0.647989 0.517372
vt 0.651830 0.517372
vt 0.655671 0.517372
vt 0.659511 0.517372
vt 0.663352 0.517372
vt 0.672953 0.521212
vt 0.674874 0.517372
vt 0.678714 0.517372
vt 0.684475 0.521212
vt 0.686396 0.517372
vt 0.611503 0.444399
vt 0.619184 0.444399
vt 0.623025 0.444399
vt 0.626866 0.444399
vt 0.630706 0.444399
vt 0.634547 0.444399
vt 0.638388 0.444399
vt 0.642228 0.444399
vt 0.646069 0.444399
vt 0.649910 0.444399
vt 0.653750 0.444399
vt 0.657591 0.444399
vt 0.661431 0.444399
vt 0.676794 0.444399
vt 0.684475 0.444399
vt 0.611503 0.521212
vt 0.626866 0.521212
vt 0.630706 0.521212
vt 0.634547 0.521212
vt 0.638388 0.521212
vt 0.642228 0.521212
vt 0.646069 0.521212
vt 0.649910 0.521212
vt 0.653750 0.521212
vt 0.657591 0.521212
vt 0.661431 0.521212
vt 0.676794 0.521212
vn 0.849443 0.527255 -0.021189
vn -0.114678 0.520046 -0.846405
vn -0.236935 0.677048 -0.696755
vn 0.894997 0.446038 -0.005574
vn -0.003284 0.361849 -0.932231
vn -0.546405 0.411619 -0.729391
vn -0.449793 0.196719 -0.871199
vn -0.594216 0.191444 -0.781189
vn -0.400792 -0.240423 -0.884060
vn -0.568069 -0.316445 -0.759711
vn -0.308101 -0.411765 -0.857627
vn -0.443750 -0.551830 -0.706094
vn -0.203334 -0.514248 -0.833189
vn -0.296325 -0.696566 -0.653443
vn -0.100246 -0.566152 -0.818183
vn -0.147301 -0.771856 -0.618498
vn -0.000657 -0.581715 -0.813393
vn -0.000490 -0.795013 -0.606592
vn 0.098924 -0.566151 -0.818344
vn 0.146302 -0.771856 -0.618735
vn 0.201987 -0.514248 -0.833517
vn 0.295268 -0.696566 -0.653922
vn 0.306713 -0.411765 -0.858124
vn 0.442608 -0.551831 -0.706810
vn 0.399361 -0.240424 -0.884708
vn 0.566840 -0.316445 -0.760628
vn 0.448384 0.196719 -0.871925
vn 0.592953 0.191444 -0.782148
vn 0.545225 0.411619 -0.730273
vn -0.063211 0.594089 -0.801912
vn 0.003976 0.742975 -0.669308
vn -0.637133 0.763004 -0.109023
vn -0.600175 0.772676 -0.206791
vn -0.292374 0.823866 -0.485554
vn 0.783529 0.605219 -0.140686
vn -0.639760 0.569178 -0.516472
vn -0.771140 0.209992 -0.601038
vn -0.706709 -0.394759 -0.587135
vn -0.532807 -0.664734 -0.523684
vn -0.344684 -0.813608 -0.468226
vn -0.167931 -0.884890 -0.434475
vn -0.000342 -0.905901 -0.423490
vn 0.167228 -0.884890 -0.434746
vn 0.343927 -0.813608 -0.468782
vn 0.531960 -0.664734 -0.524545
vn 0.705760 -0.394759 -0.588276
vn 0.770168 0.209992 -0.602283
vn 0.638925 0.569179 -0.517504
vn 0.049044 0.878386 -0.475430
vn -0.401583 0.873219 -0.276080
vn -0.304502 0.900111 -0.311574
vn 0.670537 0.729583 -0.134495
vn -0.670229 0.655243 -0.348496
vn -0.874156 0.240006 -0.422195
vn -0.795055 -0.447805 -0.409094
vn -0.581996 -0.731687 -0.354844
vn -0.368479 -0.876043 -0.311082
vn -0.177426 -0.941721 -0.285800
vn -0.000224 -0.960642 -0.277790
vn 0.176964 -0.941721 -0.286087
vn 0.367976 -0.876043 -0.311677
vn 0.581423 -0.731687 -0.355784
vn 0.794393 -0.447805 -0.410378
vn 0.873473 0.240006 -0.423608
vn 0.669665 0.655243 -0.349579
vn 0.085030 0.948646 -0.304697
vn -0.294929 0.933757 -0.202770
vn -0.331253 0.924894 -0.186662
vn 0.604671 0.791182 -0.091670
vn -0.687900 0.693359 -0.214587
vn -0.931531 0.250576 -0.263555
vn -0.846415 -0.467151 -0.255639
vn -0.614063 -0.758220 -0.219157
vn -0.385803 -0.902796 -0.190041
vn -0.184885 -0.967339 -0.173415
vn -0.000136 -0.985751 -0.168214
vn 0.184605 -0.967339 -0.173713
vn 0.385495 -0.902796 -0.190664
vn 0.613708 -0.758219 -0.220149
vn 0.846001 -0.467151 -0.257006
vn 0.931104 0.250576 -0.265060
vn 0.687552 0.693359 -0.215698
vn 0.136157 0.973583 -0.183297
vn -0.241351 0.961821 -0.129034
vn -0.335478 0.940244 -0.058276
vn 0.549912 0.834593 -0.032405
vn -0.694283 0.716459 -0.068241
vn -0.962384 0.258060 -0.084988
vn -0.873161 -0.480459 -0.082151
vn -0.628742 -0.774468 -0.069870
vn -0.392865 -0.917618 -0.060284
vn -0.187684 -0.980693 -0.054918
vn -0.000043 -0.998578 -0.053318
vn 0.187595 -0.980693 -0.055222
vn 0.392767 -0.917618 -0.060918
vn 0.628629 -0.774468 -0.070886
vn 0.873028 -0.480458 -0.083562
vn 0.962245 0.258060 -0.086543
vn 0.694172 0.716459 -0.069363
vn 0.152217 0.986668 -0.057595
vn -0.205925 0.977669 -0.041935
vn -0.335383 0.940244 0.058818
vn 0.549964 0.834593 0.031516
vn -0.694172 0.716459 0.069363
vn -0.962245 0.258060 0.086543
vn -0.873027 -0.480459 0.083562
vn -0.628628 -0.774468 0.070886
vn -0.392767 -0.917618 0.060918
vn -0.187595 -0.980693 0.055222
vn 0.000043 -0.998578 0.053318
vn 0.187684 -0.980693 0.054918
vn 0.392865 -0.917618 0.060284
vn 0.628743 -0.774468 0.069870
vn 0.873161 -0.480459 0.082151
vn 0.962384 0.258060 0.084988
vn 0.694283 0.716459 0.068241
vn 0.152310 0.986668 0.057349
vn -0.205857 0.977669 0.042267
vn -0.330951 0.924894 0.187197
vn 0.604819 0.791182 0.090692
vn -0.687552 0.693359 0.215699
vn -0.931104 0.250576 0.265060
vn -0.846001 -0.467151 0.257006
vn -0.613708 -0.758220 0.220149
vn -0.385495 -0.902796 0.190664
vn -0.184605 -0.967339 0.173713
vn 0.000136 -0.985751 0.168214
vn 0.184885 -0.967339 0.173415
vn 0.385803 -0.902796 0.190041
vn 0.614063 -0.758219 0.219157
vn 0.846415 -0.467151 0.255639
vn 0.931531 0.250576 0.263555
vn 0.687900 0.693359 0.214587
vn 0.136453 0.973583 0.183076
vn -0.241142 0.961821 0.129423
vn -0.303998 0.900111 0.312066
vn 0.670754 0.729583 0.133411
vn -0.669665 0.655243 0.349579
vn -0.873473 0.240006 0.423607
vn -0.794393 -0.447805 0.410378
vn -0.581422 -0.731687 0.355784
vn -0.367976 -0.876043 0.311677
vn -0.176964 -0.941721 0.286087
vn 0.000224 -0.960642 0.277790
vn 0.177426 -0.941721 0.285800
vn 0.368479 -0.876043 0.311082
vn 0.581997 -0.731687 0.354844
vn 0.795056 -0.447805 0.409094
vn 0.874156 0.240006 0.422195
vn 0.670229 0.655243 0.348496
vn 0.085522 0.948646 0.304559
vn -0.294601 0.933757 0.203246
vn -0.291590 0.823865 0.486026
vn 0.783756 0.605219 0.139419
vn -0.638925 0.569178 0.517505
vn -0.770168 0.209992 0.602283
vn -0.705760 -0.394759 0.588276
vn -0.531960 -0.664734 0.524544
vn -0.343927 -0.813608 0.468783
vn -0.167228 -0.884890 0.434746
vn 0.000342 -0.905901 0.423490
vn 0.167931 -0.884890 0.434475
vn 0.344684 -0.813608 0.468226
vn 0.532807 -0.664734 0.523685
vn 0.706710 -0.394758 0.587135
vn 0.771140 0.209992 0.601038
vn 0.639760 0.569178 0.516471
vn 0.049813 0.878386 0.475350
vn -0.401136 0.873219 0.276728
vn -0.251894 0.630222 0.734418
vn 0.890992 0.454018 0.000684
vn -0.533613 0.421723 0.733081
vn -0.585438 0.209506 0.783179
vn -0.566840 -0.316445 0.760628
vn -0.442608 -0.551831 0.706810
vn -0.295268 -0.696565 0.653922
vn -0.146301 -0.771856 0.618735
vn 0.000490 -0.795013 0.606592
vn 0.147301 -0.771857 0.618498
vn 0.296324 -0.696566 0.653443
vn 0.443750 -0.551831 0.706094
vn 0.568069 -0.316444 0.759711
vn 0.586702 0.209506 0.782232
vn 0.534796 0.421723 0.732218
vn 0.024855 0.699552 0.714149
vn -0.640229 0.734060 0.226410
vn -0.126236 0.418260 0.899513
vn 0.849239 0.524911 -0.057114
vn 0.063091 0.396676 0.915788
vn -0.415791 0.241368 0.876847
vn -0.398787 -0.239611 0.885187
vn -0.308273 -0.414106 0.856437
vn -0.203946 -0.519937 0.829501
vn -0.100145 -0.574067 0.812662
vn 0.000652 -0.590381 0.807124
vn 0.101458 -0.574067 0.812499
vn 0.205286 -0.519937 0.829170
vn 0.309657 -0.414105 0.855938
vn 0.400218 -0.239611 0.884541
vn 0.417206 0.241368 0.876174
vn -0.034985 0.468309 0.882872
vn -0.895895 0.444260 -0.002411
vn 0.569372 0.527255 0.630728
vn 0.567529 0.520046 -0.638328
vn 0.285357 0.772940 -0.566688
vn 0.603240 0.538929 0.587926
vn 0.705208 0.361850 -0.609710
vn 0.097490 0.490828 -0.865785
vn 0.368060 0.196719 -0.908754
vn 0.088253 0.207445 -0.974258
vn 0.409737 -0.240423 -0.879950
vn 0.094744 -0.365663 -0.925913
vn 0.450056 -0.411764 -0.792402
vn 0.148454 -0.620389 -0.770117
vn 0.499755 -0.514248 -0.696989
vn 0.217034 -0.765211 -0.606093
vn 0.555515 -0.566152 -0.608996
vn 0.296752 -0.836511 -0.460638
vn 0.616748 -0.581715 -0.530311
vn 0.389651 -0.857857 -0.335042
vn 0.685368 -0.566152 -0.457977
vn 0.499907 -0.836511 -0.224370
vn 0.764011 -0.514249 -0.389661
vn 0.631773 -0.765211 -0.123754
vn 0.850898 -0.411765 -0.326224
vn 0.783667 -0.620388 -0.031367
vn 0.931416 -0.240423 -0.273241
vn 0.929655 -0.365663 0.045083
vn 0.953649 0.196719 -0.227718
vn 0.976481 0.207445 0.058746
vn 0.870618 0.490828 0.033358
vn 0.567292 0.594088 -0.570297
vn 0.421290 0.829067 -0.367645
vn -0.332281 0.763004 -0.554449
vn -0.154870 0.830091 -0.535691
vn 0.062906 0.879575 -0.471583
vn 0.560774 0.690456 0.456951
vn -0.138982 0.634811 -0.760065
vn -0.206881 0.232348 -0.950376
vn -0.164848 -0.434043 -0.885682
vn -0.074684 -0.715867 -0.694231
vn 0.025748 -0.862728 -0.505013
vn 0.128088 -0.930499 -0.343170
vn 0.236441 -0.950139 -0.203304
vn 0.358490 -0.930499 -0.075214
vn 0.503169 -0.862728 0.050223
vn 0.675200 -0.715867 0.177878
vn 0.850976 -0.434042 0.295715
vn 0.908640 0.232348 0.346968
vn 0.730654 0.634811 0.251316
vn 0.325331 0.933140 -0.153003
vn -0.046441 0.918090 -0.393643
vn -0.074132 0.924894 -0.372928
vn 0.463415 0.791182 0.399095
vn -0.285250 0.693359 -0.661730
vn -0.406787 0.250576 -0.878485
vn -0.357351 -0.467151 -0.808746
vn -0.233688 -0.758220 -0.608681
vn -0.107100 -0.902796 -0.416520
vn 0.011154 -0.967339 -0.253241
vn 0.127546 -0.985751 -0.109671
vn 0.252052 -0.967339 0.026922
vn 0.395767 -0.902796 0.168310
vn 0.566788 -0.758220 0.322265
vn 0.746060 -0.467151 0.474515
vn 0.807604 0.250576 0.533842
vn 0.611510 0.693359 0.381195
vn 0.227767 0.973583 -0.016081
vn -0.059300 0.961821 -0.267177
vn -0.174300 0.940244 -0.292508
vn 0.382779 0.834593 0.396149
vn -0.400450 0.716459 -0.571250
vn -0.562373 0.258059 -0.785584
vn -0.506410 -0.480459 -0.716036
vn -0.356523 -0.774468 -0.522580
vn -0.210156 -0.917618 -0.337360
vn -0.080580 -0.980693 -0.178181
vn 0.040428 -0.998578 -0.034762
vn 0.164093 -0.980693 0.106372
vn 0.302056 -0.917618 0.258339
vn 0.463251 -0.774468 0.430811
vn 0.632060 -0.480459 0.607996
vn 0.692435 0.258060 0.673750
vn 0.504787 0.716460 0.481535
vn 0.142849 0.986668 0.077982
vn -0.102313 0.977669 -0.183564
vn -0.263085 0.940244 -0.216166
vn 0.334312 0.834593 0.437824
vn -0.504787 0.716459 -0.481535
vn -0.692435 0.258060 -0.673750
vn -0.632060 -0.480459 -0.607996
vn -0.463250 -0.774468 -0.430811
vn -0.302056 -0.917618 -0.258339
vn -0.164093 -0.980693 -0.106372
vn -0.040428 -0.998578 0.034762
vn 0.080580 -0.980693 0.178181
vn 0.210156 -0.917618 0.337360
vn 0.356523 -0.774468 0.522580
vn 0.506410 -0.480459 0.716037
vn 0.562373 0.258060 0.785584
vn 0.400450 0.716459 0.571249
vn 0.055694 0.986668 0.152922
vn -0.166158 0.977669 -0.128666
vn -0.357608 0.924894 -0.129182
vn 0.325141 0.791182 0.517991
vn -0.611510 0.693359 -0.381195
vn -0.807604 0.250576 -0.533842
vn -0.746060 -0.467151 -0.474514
vn -0.566788 -0.758220 -0.322265
vn -0.395767 -0.902796 -0.168310
vn -0.252053 -0.967339 -0.026922
vn -0.127547 -0.985751 0.109671
vn -0.011154 -0.967339 0.253241
vn 0.107100 -0.902796 0.416520
vn 0.233688 -0.758219 0.608682
vn 0.357352 -0.467151 0.808746
vn 0.406787 0.250576 0.878485
vn 0.285250 0.693359 0.661730
vn -0.050032 0.973583 0.222785
vn -0.255273 0.961821 -0.098670
vn -0.434798 0.900111 -0.027396
vn 0.335675 0.729583 0.595845
vn -0.701443 0.655243 -0.280418
vn -0.890366 0.240006 -0.386841
vn -0.828819 -0.447805 -0.335456
vn -0.648673 -0.731687 -0.209421
vn -0.476176 -0.876043 -0.076194
vn -0.332341 -0.941721 0.052071
vn -0.210632 -0.960642 0.181112
vn -0.101287 -0.941721 0.320785
vn 0.003974 -0.876043 0.482217
vn 0.109846 -0.731687 0.672732
vn 0.207461 -0.447805 0.869730
vn 0.249043 0.240005 0.938283
vn 0.172134 0.655243 0.735545
vn -0.175384 0.948646 0.263269
vn -0.346108 0.933757 -0.091148
vn -0.558711 0.823866 0.095329
vn 0.404722 0.605219 0.685500
vn -0.808837 0.569178 -0.147713
vn -0.958650 0.209992 -0.192075
vn -0.906069 -0.394759 -0.152328
vn -0.744504 -0.664736 -0.061966
vn -0.579717 -0.813608 0.044386
vn -0.438797 -0.884890 0.156290
vn -0.321107 -0.905901 0.276105
vn -0.220282 -0.884890 0.410421
vn -0.130761 -0.813608 0.566519
vn -0.050305 -0.664734 0.745384
vn 0.014825 -0.394758 0.918665
vn 0.046243 0.209992 0.976609
vn 0.024834 0.569178 0.821839
vn -0.328234 0.878386 0.347420
vn -0.471257 0.873219 -0.124119
vn -0.721326 0.630223 0.287242
vn 0.579838 0.454018 0.676503
vn -0.903813 0.421723 0.072612
vn -0.975583 0.209505 0.065921
vn -0.946357 -0.316448 0.065343
vn -0.824602 -0.551832 0.124552
vn -0.688501 -0.696565 0.201900
vn -0.564772 -0.771856 0.292012
vn -0.459944 -0.795013 0.395482
vn -0.373351 -0.771857 0.514632
vn -0.302798 -0.696566 0.650469
vn -0.246720 -0.551831 0.796626
vn -0.206427 -0.316444 0.925879
vn -0.211377 0.209506 0.954687
vn -0.207237 0.421723 0.882725
vn -0.525683 0.699552 0.484028
vn -0.588813 0.734061 -0.338310
vn -0.764746 0.418261 0.490124
vn 0.596496 0.524912 0.607174
vn -0.653776 0.396676 0.644380
vn -0.936153 0.241366 0.255656
vn -0.931405 -0.239615 0.273989
vn -0.850633 -0.414108 0.323943
vn -0.762240 -0.519939 0.385557
vn -0.681852 -0.574067 0.453349
vn -0.611996 -0.590381 0.526223
vn -0.550413 -0.574067 0.606212
vn -0.495432 -0.519938 0.695854
vn -0.447760 -0.414105 0.792482
vn -0.410475 -0.239610 0.879828
vn -0.393060 0.241368 0.887269
vn -0.692683 0.468309 0.548523
vn -0.581721 0.444261 -0.681347
vn 0.569371 0.527255 0.630729
vn 0.567529 0.520047 -0.638328
vn 0.285357 0.772940 -0.566688
vn 0.603240 0.538928 0.587927
vn 0.705208 0.361850 -0.609710
vn 0.097490 0.490828 -0.865785
vn 0.368060 0.196718 -0.908754
vn 0.088253 0.207444 -0.974258
vn 0.409737 -0.240423 -0.879950
vn 0.094744 -0.365663 -0.925913
vn 0.450055 -0.411765 -0.792402
vn 0.148453 -0.620389 -0.770117
vn 0.499755 -0.514248 -0.696989
vn 0.217034 -0.765211 -0.606092
vn 0.555514 -0.566152 -0.608996
vn 0.296752 -0.836511 -0.460638
vn 0.616749 -0.581714 -0.530311
vn 0.389652 -0.857857 -0.335042
vn 0.685369 -0.566151 -0.457977
vn 0.499908 -0.836511 -0.224370
vn 0.764011 -0.514248 -0.389661
vn 0.631773 -0.765211 -0.123754
vn 0.850898 -0.411764 -0.326224
vn 0.783667 -0.620388 -0.031367
vn 0.931416 -0.240424 -0.273241
vn 0.929655 -0.365663 0.045083
vn 0.953649 0.196720 -0.227718
vn 0.976481 0.207445 0.058746
vn 0.870618 0.490828 0.033358
vn 0.567292 0.594088 -0.570297
vn 0.421290 0.829067 -0.367645
vn -0.332283 0.763004 -0.554449
vn -0.154871 0.830090 -0.535691
vn 0.062906 0.879575 -0.471584
vn 0.560773 0.690456 0.456951
vn -0.138982 0.634811 -0.760065
vn -0.206882 0.232348 -0.950376
vn -0.164849 -0.434043 -0.885682
vn -0.074684 -0.715867 -0.694231
vn 0.025748 -0.862728 -0.505013
vn 0.128088 -0.930499 -0.343170
vn 0.236441 -0.950139 -0.203304
vn 0.358490 -0.930499 -0.075214
vn 0.503169 -0.862728 0.050223
vn 0.675200 -0.715867 0.177878
vn 0.850976 -0.434043 0.295715
vn 0.908641 0.232348 0.346968
vn 0.730654 0.634811 0.251316
vn 0.325331 0.933140 -0.153003
vn -0.046441 0.918090 -0.393643
vn -0.074132 0.924894 -0.372929
vn 0.463415 0.791182 0.399095
vn -0.285250 0.693359 -0.661730
vn -0.406787 0.250576 -0.878485
vn -0.357351 -0.467151 -0.808746
vn -0.233688 -0.758220 -0.608681
vn -0.107100 -0.902796 -0.416520
vn 0.011154 -0.967339 -0.253241
vn 0.127546 -0.985751 -0.109671
vn 0.252052 -0.967339 0.026922
vn 0.395767 -0.902796 0.168310
vn 0.566788 -0.758219 0.322265
vn 0.746060 -0.467151 0.474515
vn 0.807604 0.250576 0.533843
vn 0.611510 0.693359 0.381195
vn 0.227767 0.973583 -0.016081
vn -0.059300 0.961821 -0.267177
vn -0.174300 0.940244 -0.292508
vn 0.382779 0.834594 0.396148
vn -0.400450 0.716459 -0.571250
vn -0.562373 0.258059 -0.785584
vn -0.506410 -0.480459 -0.716036
vn -0.356523 -0.774468 -0.522580
vn -0.210156 -0.917618 -0.337360
vn -0.080580 -0.980693 -0.178181
vn 0.040428 -0.998578 -0.034762
vn 0.164093 -0.980693 0.106372
vn 0.302056 -0.917618 0.258339
vn 0.463251 -0.774468 0.430811
vn 0.632060 -0.480459 0.607996
vn 0.692435 0.258060 0.673750
vn 0.504787 0.716459 0.481535
vn 0.142849 0.986668 0.077982
vn -0.102313 0.977669 -0.183564
vn -0.263085 0.940244 -0.216167
vn 0.334312 0.834594 0.437823
vn -0.504787 0.716459 -0.481535
vn -0.692436 0.258059 -0.673750
vn -0.632060 -0.480459 -0.607996
vn -0.463251 -0.774468 -0.430811
vn -0.302056 -0.917618 -0.258339
vn -0.164093 -0.980693 -0.106372
vn -0.040428 -0.998578 0.034762
vn 0.080580 -0.980693 0.178181
vn 0.210156 -0.917618 0.337360
vn 0.356523 -0.774468 0.522580
vn 0.506410 -0.480459 0.716037
vn 0.562373 0.258060 0.785584
vn 0.400450 0.716459 0.571250
vn 0.055694 0.986668 0.152923
vn -0.166158 0.977669 -0.128666
vn -0.357607 0.924894 -0.129182
vn 0.325141 0.791182 0.517990
vn -0.611510 0.693359 -0.381195
vn -0.807604 0.250576 -0.533842
vn -0.746060 -0.467151 -0.474514
vn -0.566788 -0.758220 -0.322265
vn -0.395767 -0.902796 -0.168310
vn -0.252052 -0.967339 -0.026922
vn -0.127547 -0.985751 0.109671
vn -0.011154 -0.967339 0.253241
vn 0.107100 -0.902796 0.416520
vn 0.233688 -0.758220 0.608681
vn 0.357352 -0.467151 0.808746
vn 0.406787 0.250576 0.878485
vn 0.285250 0.693359 0.661730
vn -0.050032 0.973583 0.222785
vn -0.255273 0.961821 -0.098669
vn -0.434798 0.900111 -0.027396
vn 0.335675 0.729583 0.595844
vn -0.701443 0.655243 -0.280418
vn -0.890366 0.240005 -0.386841
vn -0.828818 -0.447805 -0.335456
vn -0.648673 -0.731687 -0.209421
vn -0.476176 -0.876043 -0.076194
vn -0.332341 -0.941721 0.052071
vn -0.210632 -0.960642 0.181112
vn -0.101287 -0.941721 0.320785
vn 0.003974 -0.876043 0.482217
vn 0.109846 -0.731687 0.672732
vn 0.207461 -0.447805 0.869730
vn 0.249043 0.240006 0.938283
vn 0.172134 0.655243 0.735545
vn -0.175384 0.948646 0.263269
vn -0.346108 0.933757 -0.091148
vn -0.558711 0.823865 0.095329
vn 0.404722 0.605218 0.685501
vn -0.808837 0.569178 -0.147713
vn -0.958650 0.209992 -0.192075
vn -0.906069 -0.394760 -0.152328
vn -0.744506 -0.664734 -0.061966
vn -0.579717 -0.813608 0.044386
vn -0.438797 -0.884890 0.156290
vn -0.321107 -0.905901 0.276104
vn -0.220282 -0.884890 0.410421
vn -0.130761 -0.813608 0.566519
vn -0.050305 -0.664734 0.745384
vn 0.014825 -0.394758 0.918665
vn 0.046243 0.209993 0.976609
vn 0.024834 0.569179 0.821839
vn -0.328234 0.878386 0.347420
vn -0.471257 0.873219 -0.124120
vn -0.721326 0.630222 0.287242
vn 0.579839 0.454018 0.676502
vn -0.903812 0.421723 0.072613
vn -0.975583 0.209505 0.065922
vn -0.946357 -0.316446 0.065343
vn -0.824603 -0.551830 0.124552
vn -0.688500 -0.696566 0.201899
vn -0.564772 -0.771856 0.292012
vn -0.459944 -0.795012 0.395483
vn -0.373351 -0.771856 0.514633
vn -0.302798 -0.696566 0.650468
vn -0.246720 -0.551831 0.796625
vn -0.206426 -0.316445 0.925879
vn -0.211377 0.209506 0.954687
vn -0.207238 0.421723 0.882724
vn -0.525684 0.699552 0.484028
vn -0.588813 0.734061 -0.338311
vn -0.764746 0.418262 0.490123
vn 0.596497 0.524913 0.607172
vn -0.653775 0.396677 0.644380
vn -0.936153 0.241367 0.255656
vn -0.931406 -0.239612 0.273988
vn -0.850634 -0.414105 0.323942
vn -0.762241 -0.519937 0.385557
vn -0.681852 -0.574065 0.453350
vn -0.611996 -0.590380 0.526225
vn -0.550412 -0.574067 0.606213
vn -0.495432 -0.519938 0.695853
vn -0.447759 -0.414106 0.792482
vn -0.410474 -0.239611 0.879828
vn -0.393060 0.241368 0.887268
vn -0.692683 0.468309 0.548523
vn -0.581721 0.444260 -0.681347
s 1
g pSphere4
usemtl lambert2SG
f 1/1/1 2/2/2 18/19/3 17/18/4
f 2/2/2 14/218/5 19/20/6 18/19/3
f 14/219/5 3/3/7 20/21/8 19/20/6
f 3/3/7 4/4/9 21/22/10 20/21/8
f 4/4/9 5/5/11 22/23/12 21/22/10
f 5/5/11 6/6/13 23/24/14 22/23/12
f 6/6/13 7/7/15 24/25/16 23/24/14
f 7/7/15 8/8/17 25/26/18 24/25/16
f 8/8/17 9/9/19 26/27/20 25/26/18
f 9/9/19 10/10/21 27/28/22 26/27/20
f 10/10/21 11/11/23 28/29/24 27/28/22
f 11/11/23 12/12/25 29/30/26 28/29/24
f 12/12/25 13/13/27 30/31/28 29/30/26
f 13/13/27 14/14/5 31/32/29 30/31/28
f 14/14/5 15/15/30 32/33/31 31/32/29
f 15/15/30 16/16/32 33/34/33 32/33/31
f 16/16/32 1/17/1 17/35/4 33/34/33
f 17/18/4 18/19/3 35/37/34 34/36/35
f 18/19/3 19/20/6 36/38/36 35/37/34
f 19/20/6 20/21/8 37/39/37 36/38/36
f 20/21/8 21/22/10 38/40/38 37/39/37
f 21/22/10 22/23/12 39/41/39 38/40/38
f 22/23/12 23/24/14 40/42/40 39/41/39
f 23/24/14 24/25/16 41/43/41 40/42/40
f 24/25/16 25/26/18 42/44/42 41/43/41
f 25/26/18 26/27/20 43/45/43 42/44/42
f 26/27/20 27/28/22 44/46/44 43/45/43
f 27/28/22 28/29/24 45/47/45 44/46/44
f 28/29/24 29/30/26 46/48/46 45/47/45
f 29/30/26 30/31/28 47/49/47 46/48/46
f 30/31/28 31/32/29 48/50/48 47/49/47
f 31/32/29 32/33/31 49/51/49 48/50/48
f 32/33/31 33/34/33 50/52/50 49/51/49
f 33/34/33 17/35/4 34/53/35 50/52/50
f 34/36/35 35/37/34 52/55/51 51/54/52
f 35/37/34 36/38/36 53/56/53 52/55/51
f 36/38/36 37/39/37 54/57/54 53/56/53
f 37/39/37 38/40/38 55/58/55 54/57/54
f 38/40/38 39/41/39 56/59/56 55/58/55
f 39/41/39 40/42/40 57/60/57 56/59/56
f 40/42/40 41/43/41 58/61/58 57/60/57
f 41/43/41 42/44/42 59/62/59 58/61/58
f 42/44/42 43/45/43 60/63/60 59/62/59
f 43/45/43 44/46/44 61/64/61 60/63/60
f 44/46/44 45/47/45 62/65/62 61/64/61
f 45/47/45 46/48/46 63/66/63 62/65/62
f 46/48/46 47/49/47 64/67/64 63/66/63
f 47/49/47 48/50/48 65/68/65 64/67/64
f 48/50/48 49/51/49 66/69/66 65/68/65
f 49/51/49 50/52/50 67/70/67 66/69/66
f 50/52/50 34/53/35 51/71/52 67/70/67
f 51/54/52 52/55/51 69/73/68 68/72/69
f 52/55/51 53/56/53 70/74/70 69/73/68
f 53/56/53 54/57/54 71/75/71 70/74/70
f 54/57/54 55/58/55 72/76/72 71/75/71
f 55/58/55 56/59/56 73/77/73 72/76/72
f 56/59/56 57/60/57 74/78/74 73/77/73
f 57/60/57 58/61/58 75/79/75 74/78/74
f 58/61/58 59/62/59 76/80/76 75/79/75
f 59/62/59 60/63/60 77/81/77 76/80/76
f 60/63/60 61/64/61 78/82/78 77/81/77
f 61/64/61 62/65/62 79/83/79 78/82/78
f 62/65/62 63/66/63 80/84/80 79/83/79
f 63/66/63 64/67/64 81/85/81 80/84/80
f 64/67/64 65/68/65 82/86/82 81/85/81
f 65/68/65 66/69/66 83/87/83 82/86/82
f 66/69/66 67/70/67 84/88/84 83/87/83
f 67/70/67 51/71/52 68/89/69 84/88/84
f 68/72/69 69/73/68 86/91/85 85/90/86
f 69/73/68 70/74/70 87/92/87 86/91/85
f 70/74/70 71/75/71 88/93/88 87/92/87
f 71/75/71 72/76/72 89/94/89 88/93/88
f 72/76/72 73/77/73 90/95/90 89/94/89
f 73/77/73 74/78/74 91/96/91 90/95/90
f 74/78/74 75/79/75 92/97/92 91/96/91
f 75/79/75 76/80/76 93/98/93 92/97/92
f 76/80/76 77/81/77 94/99/94 93/98/93
f 77/81/77 78/82/78 95/100/95 94/99/94
f 78/82/78 79/83/79 96/101/96 95/100/95
f 79/83/79 80/84/80 97/102/97 96/101/96
f 80/84/80 81/85/81 98/103/98 97/102/97
f 81/85/81 82/86/82 99/104/99 98/103/98
f 82/86/82 83/87/83 100/105/100 99/104/99
f 83/87/83 84/88/84 101/106/101 100/105/100
f 84/88/84 68/89/69 85/107/86 101/106/101
f 85/90/86 86/91/85 103/109/102 102/108/103
f 86/91/85 87/92/87 104/110/104 103/109/102
f 87/92/87 88/93/88 105/111/105 104/110/104
f 88/93/88 89/94/89 106/112/106 105/111/105
f 89/94/89 90/95/90 107/113/107 106/112/106
f 90/95/90 91/96/91 108/114/108 107/113/107
f 91/96/91 92/97/92 109/115/109 108/114/108
f 92/97/92 93/98/93 110/116/110 109/115/109
f 93/98/93 94/99/94 111/117/111 110/116/110
f 94/99/94 95/100/95 112/118/112 111/117/111
f 95/100/95 96/101/96 113/119/113 112/118/112
f 96/101/96 97/102/97 114/120/114 113/119/113
f 97/102/97 98/103/98 115/121/115 114/120/114
f 98/103/98 99/104/99 116/122/116 115/121/115
f 99/104/99 100/105/100 117/123/117 116/122/116
f 100/105/100 101/106/101 118/124/118 117/123/117
f 101/106/101 85/107/86 102/125/103 118/124/118
f 102/108/103 103/109/102 120/127/119 119/126/120
f 103/109/102 104/110/104 121/128/121 120/127/119
f 104/110/104 105/111/105 122/129/122 121/128/121
f 105/111/105 106/112/106 123/130/123 122/129/122
f 106/112/106 107/113/107 124/131/124 123/130/123
f 107/113/107 108/114/108 125/132/125 124/131/124
f 108/114/108 109/115/109 126/133/126 125/132/125
f 109/115/109 110/116/110 127/134/127 126/133/126
f 110/116/110 111/117/111 128/135/128 127/134/127
f 111/117/111 112/118/112 129/136/129 128/135/128
f 112/118/112 113/119/113 130/137/130 129/136/129
f 113/119/113 114/120/114 131/138/131 130/137/130
f 114/120/114 115/121/115 132/139/132 131/138/131
f 115/121/115 116/122/116 133/140/133 132/139/132
f 116/122/116 117/123/117 134/141/134 133/140/133
f 117/123/117 118/124/118 135/142/135 134/141/134
f 118/124/118 102/125/103 119/143/120 135/142/135
f 119/126/120 120/127/119 137/145/136 136/144/137
f 120/127/119 121/128/121 138/146/138 137/145/136
f 121/128/121 122/129/122 139/147/139 138/146/138
f 122/129/122 123/130/123 140/148/140 139/147/139
f 123/130/123 124/131/124 141/149/141 140/148/140
f 124/131/124 125/132/125 142/150/142 141/149/141
f 125/132/125 126/133/126 143/151/143 142/150/142
f 126/133/126 127/134/127 144/152/144 143/151/143
f 127/134/127 128/135/128 145/153/145 144/152/144
f 128/135/128 129/136/129 146/154/146 145/153/145
f 129/136/129 130/137/130 147/155/147 146/154/146
f 130/137/130 131/138/131 148/156/148 147/155/147
f 131/138/131 132/139/132 149/157/149 148/156/148
f 132/139/132 133/140/133 150/158/150 149/157/149
f 133/140/133 134/141/134 151/159/151 150/158/150
f 134/141/134 135/142/135 152/160/152 151/159/151
f 135/142/135 119/143/120 136/161/137 152/160/152
f 136/144/137 137/145/136 154/163/153 153/162/154
f 137/145/136 138/146/138 155/164/155 154/163/153
f 138/146/138 139/147/139 156/165/156 155/164/155
f 139/147/139 140/148/140 157/166/157 156/165/156
f 140/148/140 141/149/141 158/167/158 157/166/157
f 141/149/141 142/150/142 159/168/159 158/167/158
f 142/150/142 143/151/143 160/169/160 159/168/159
f 143/151/143 144/152/144 161/170/161 160/169/160
f 144/152/144 145/153/145 162/171/162 161/170/161
f 145/153/145 146/154/146 163/172/163 162/171/162
f 146/154/146 147/155/147 164/173/164 163/172/163
f 147/155/147 148/156/148 165/174/165 164/173/164
f 148/156/148 149/157/149 166/175/166 165/174/165
f 149/157/149 150/158/150 167/176/167 166/175/166
f 150/158/150 151/159/151 168/177/168 167/176/167
f 151/159/151 152/160/152 169/178/169 168/177/168
f 152/160/152 136/161/137 153/179/154 169/178/169
f 153/162/154 154/163/153 171/181/170 170/180/171
f 154/163/153 155/164/155 172/182/172 171/181/170
f 155/164/155 156/165/156 173/183/173 172/182/172
f 156/165/156 157/166/157 174/184/174 173/183/173
f 157/166/157 158/167/158 175/185/175 174/184/174
f 158/167/158 159/168/159 176/186/176 175/185/175
f 159/168/159 160/169/160 177/187/177 176/186/176
f 160/169/160 161/170/161 178/188/178 177/187/177
f 161/170/161 162/171/162 179/189/179 178/188/178
f 162/171/162 163/172/163 180/190/180 179/189/179
f 163/172/163 164/173/164 181/191/181 180/190/180
f 164/173/164 165/174/165 182/192/182 181/191/181
f 165/174/165 166/175/166 183/193/183 182/192/182
f 166/175/166 167/176/167 184/194/184 183/193/183
f 167/176/167 168/177/168 185/195/185 184/194/184
f 168/177/168 169/178/169 186/196/186 185/195/185
f 169/178/169 153/179/154 170/197/171 186/196/186
f 170/180/171 171/181/170 188/199/187 187/198/188
f 171/181/170 172/182/172 200/200/189 188/199/187
f 172/182/172 173/183/173 189/201/190 200/200/189
f 173/183/173 174/184/174 190/202/191 189/201/190
f 174/184/174 175/185/175 191/203/192 190/202/191
f 175/185/175 176/186/176 192/204/193 191/203/192
f 176/186/176 177/187/177 193/205/194 192/204/193
f 177/187/177 178/188/178 194/206/195 193/205/194
f 178/188/178 179/189/179 195/207/196 194/206/195
f 179/189/179 180/190/180 196/208/197 195/207/196
f 180/190/180 181/191/181 197/209/198 196/208/197
f 181/191/181 182/192/182 198/210/199 197/209/198
f 182/192/182 183/193/183 199/211/200 198/210/199
f 183/193/183 184/194/184 200/212/189 199/211/200
f 184/194/184 185/195/185 201/213/201 200/212/189
f 185/195/185 186/196/186 202/214/202 201/213/201
f 186/196/186 200/215/189 202/214/202
f 186/196/186 170/197/171 187/216/188 200/215/189
f 2/2/2 1/1/1 14/217/5
f 4/4/9 3/3/7 14/220/5
f 5/5/11 4/4/9 14/221/5
f 6/6/13 5/5/11 14/222/5
f 7/7/15 6/6/13 14/223/5
f 8/8/17 7/7/15 14/224/5
f 9/9/19 8/8/17 14/225/5
f 10/10/21 9/9/19 14/226/5
f 11/11/23 10/10/21 14/227/5
f 12/12/25 11/11/23 14/228/5
f 13/13/27 12/12/25 14/229/5
f 16/16/32 15/15/30 14/230/5
f 1/17/1 16/16/32 14/231/5
f 187/198/188 188/199/187 200/232/189
f 189/201/190 190/202/191 200/233/189
f 190/202/191 191/203/192 200/234/189
f 191/203/192 192/204/193 200/235/189
f 192/204/193 193/205/194 200/236/189
f 193/205/194 194/206/195 200/237/189
f 194/206/195 195/207/196 200/238/189
f 195/207/196 196/208/197 200/239/189
f 196/208/197 197/209/198 200/240/189
f 197/209/198 198/210/199 200/241/189
f 198/210/199 199/211/200 200/242/189
f 201/213/201 202/214/202 200/243/189
s 2
f 203/244/203 204/245/204 220/246/205 219/247/206
f 204/245/204 216/443/207 221/248/208 220/246/205
f 216/444/207 205/249/209 222/250/210 221/248/208
f 205/249/209 206/251/211 223/252/212 222/250/210
f 206/251/211 207/253/213 224/254/214 223/252/212
f 207/253/213 208/255/215 225/256/216 224/254/214
f 208/255/215 209/257/217 226/258/218 225/256/216
f 209/257/217 210/259/219 227/260/220 226/258/218
f 210/259/219 211/261/221 228/262/222 227/260/220
f 211/261/221 212/263/223 229/264/224 228/262/222
f 212/263/223 213/265/225 230/266/226 229/264/224
f 213/265/225 214/267/227 231/268/228 230/266/226
f 214/267/227 215/269/229 232/270/230 231/268/228
f 215/269/229 216/271/207 233/272/231 232/270/230
f 216/271/207 217/273/232 234/274/233 233/272/231
f 217/273/232 218/275/234 235/276/235 234/274/233
f 218/275/234 203/277/203 219/278/206 235/276/235
f 219/247/206 220/246/205 237/279/236 236/280/237
f 220/246/205 221/248/208 238/281/238 237/279/236
f 221/248/208 222/250/210 239/282/239 238/281/238
f 222/250/210 223/252/212 240/283/240 239/282/239
f 223/252/212 224/254/214 241/284/241 240/283/240
f 224/254/214 225/256/216 242/285/242 241/284/241
f 225/256/216 226/258/218 243/286/243 242/285/242
f 226/258/218 227/260/220 244/287/244 243/286/243
f 227/260/220 228/262/222 245/288/245 244/287/244
f 228/262/222 229/264/224 246/289/246 245/288/245
f 229/264/224 230/266/226 247/290/247 246/289/246
f 230/266/226 231/268/228 248/291/248 247/290/247
f 231/268/228 232/270/230 249/292/249 248/291/248
f 232/270/230 233/272/231 250/293/250 249/292/249
f 233/272/231 234/274/233 251/294/251 250/293/250
f 234/274/233 235/276/235 252/295/252 251/294/251
f 235/276/235 219/278/206 236/296/237 252/295/252
f 236/280/237 237/279/236 254/297/253 253/298/254
f 237/279/236 238/281/238 255/299/255 254/297/253
f 238/281/238 239/282/239 256/300/256 255/299/255
f 239/282/239 240/283/240 257/301/257 256/300/256
f 240/283/240 241/284/241 258/302/258 257/301/257
f 241/284/241 242/285/242 259/303/259 258/302/258
f 242/285/242 243/286/243 260/304/260 259/303/259
f 243/286/243 244/287/244 261/305/261 260/304/260
f 244/287/244 245/288/245 262/306/262 261/305/261
f 245/288/245 246/289/246 263/307/263 262/306/262
f 246/289/246 247/290/247 264/308/264 263/307/263
f 247/290/247 248/291/248 265/309/265 264/308/264
f 248/291/248 249/292/249 266/310/266 265/309/265
f 249/292/249 250/293/250 267/311/267 266/310/266
f 250/293/250 251/294/251 268/312/268 267/311/267
f 251/294/251 252/295/252 269/313/269 268/312/268
f 252/295/252 236/296/237 253/314/254 269/313/269
f 253/298/254 254/297/253 271/315/270 270/316/271
f 254/297/253 255/299/255 272/317/272 271/315/270
f 255/299/255 256/300/256 273/318/273 272/317/272
f 256/300/256 257/301/257 274/319/274 273/318/273
f 257/301/257 258/302/258 275/320/275 274/319/274
f 258/302/258 259/303/259 276/321/276 275/320/275
f 259/303/259 260/304/260 277/322/277 276/321/276
f 260/304/260 261/305/261 278/323/278 277/322/277
f 261/305/261 262/306/262 279/324/279 278/323/278
f 262/306/262 263/307/263 280/325/280 279/324/279
f 263/307/263 264/308/264 281/326/281 280/325/280
f 264/308/264 265/309/265 282/327/282 281/326/281
f 265/309/265 266/310/266 283/328/283 282/327/282
f 266/310/266 267/311/267 284/329/284 283/328/283
f 267/311/267 268/312/268 285/330/285 284/329/284
f 268/312/268 269/313/269 286/331/286 285/330/285
f 269/313/269 253/314/254 270/332/271 286/331/286
f 270/316/271 271/315/270 288/333/287 287/334/288
f 271/315/270 272/317/272 289/335/289 288/333/287
f 272/317/272 273/318/273 290/336/290 289/335/289
f 273/318/273 274/319/274 291/337/291 290/336/290
f 274/319/274 275/320/275 292/338/292 291/337/291
f 275/320/275 276/321/276 293/339/293 292/338/292
f 276/321/276 277/322/277 294/340/294 293/339/293
f 277/322/277 278/323/278 295/341/295 294/340/294
f 278/323/278 279/324/279 296/342/296 295/341/295
f 279/324/279 280/325/280 297/343/297 296/342/296
f 280/325/280 281/326/281 298/344/298 297/343/297
f 281/326/281 282/327/282 299/345/299 298/344/298
f 282/327/282 283/328/283 300/346/300 299/345/299
f 283/328/283 284/329/284 301/347/301 300/346/300
f 284/329/284 285/330/285 302/348/302 301/347/301
f 285/330/285 286/331/286 303/349/303 302/348/302
f 286/331/286 270/332/271 287/350/288 303/349/303
f 287/334/288 288/333/287 305/351/304 304/352/305
f 288/333/287 289/335/289 306/353/306 305/351/304
f 289/335/289 290/336/290 307/354/307 306/353/306
f 290/336/290 291/337/291 308/355/308 307/354/307
f 291/337/291 292/338/292 309/356/309 308/355/308
f 292/338/292 293/339/293 310/357/310 309/356/309
f 293/339/293 294/340/294 311/358/311 310/357/310
f 294/340/294 295/341/295 312/359/312 311/358/311
f 295/341/295 296/342/296 313/360/313 312/359/312
f 296/342/296 297/343/297 314/361/314 313/360/313
f 297/343/297 298/344/298 315/362/315 314/361/314
f 298/344/298 299/345/299 316/363/316 315/362/315
f 299/345/299 300/346/300 317/364/317 316/363/316
f 300/346/300 301/347/301 318/365/318 317/364/317
f 301/347/301 302/348/302 319/366/319 318/365/318
f 302/348/302 303/349/303 320/367/320 319/366/319
f 303/349/303 287/350/288 304/368/305 320/367/320
f 304/352/305 305/351/304 322/369/321 321/370/322
f 305/351/304 306/353/306 323/371/323 322/369/321
f 306/353/306 307/354/307 324/372/324 323/371/323
f 307/354/307 308/355/308 325/373/325 324/372/324
f 308/355/308 309/356/309 326/374/326 325/373/325
f 309/356/309 310/357/310 327/375/327 326/374/326
f 310/357/310 311/358/311 328/376/328 327/375/327
f 311/358/311 312/359/312 329/377/329 328/376/328
f 312/359/312 313/360/313 330/378/330 329/377/329
f 313/360/313 314/361/314 331/379/331 330/378/330
f 314/361/314 315/362/315 332/380/332 331/379/331
f 315/362/315 316/363/316 333/381/333 332/380/332
f 316/363/316 317/364/317 334/382/334 333/381/333
f 317/364/317 318/365/318 335/383/335 334/382/334
f 318/365/318 319/366/319 336/384/336 335/383/335
f 319/366/319 320/367/320 337/385/337 336/384/336
f 320/367/320 304/368/305 321/386/322 337/385/337
f 321/370/322 322/369/321 339/387/338 338/388/339
f 322/369/321 323/371/323 340/389/340 339/387/338
f 323/371/323 324/372/324 341/390/341 340/389/340
f 324/372/324 325/373/325 342/391/342 341/390/341
f 325/373/325 326/374/326 343/392/343 342/391/342
f 326/374/326 327/375/327 344/393/344 343/392/343
f 327/375/327 328/376/328 345/394/345 344/393/344
f 328/376/328 329/377/329 346/395/346 345/394/345
f 329/377/329 330/378/330 347/396/347 346/395/346
f 330/378/330 331/379/331 348/397/348 347/396/347
f 331/379/331 332/380/332 349/398/349 348/397/348
f 332/380/332 333/381/333 350/399/350 349/398/349
f 333/381/333 334/382/334 351/400/351 350/399/350
f 334/382/334 335/383/335 352/401/352 351/400/351
f 335/383/335 336/384/336 353/402/353 352/401/352
f 336/384/336 337/385/337 354/403/354 353/402/353
f 337/385/337 321/386/322 338/404/339 354/403/354
f 338/388/339 339/387/338 356/405/355 355/406/356
f 339/387/338 340/389/340 357/407/357 356/405/355
f 340/389/340 341/390/341 358/408/358 357/407/357
f 341/390/341 342/391/342 359/409/359 358/408/358
f 342/391/342 343/392/343 360/410/360 359/409/359
f 343/392/343 344/393/344 361/411/361 360/410/360
f 344/393/344 345/394/345 362/412/362 361/411/361
f 345/394/345 346/395/346 363/413/363 362/412/362
f 346/395/346 347/396/347 364/414/364 363/413/363
f 347/396/347 348/397/348 365/415/365 364/414/364
f 348/397/348 349/398/349 366/416/366 365/415/365
f 349/398/349 350/399/350 367/417/367 366/416/366
f 350/399/350 351/400/351 368/418/368 367/417/367
f 351/400/351 352/401/352 369/419/369 368/418/368
f 352/401/352 353/402/353 370/420/370 369/419/369
f 353/402/353 354/403/354 371/421/371 370/420/370
f 354/403/354 338/404/339 355/422/356 371/421/371
f 355/406/356 356/405/355 373/423/372 372/424/373
f 356/405/355 357/407/357 385/425/374 373/423/372
f 357/407/357 358/408/358 374/426/375 385/425/374
f 358/408/358 359/409/359 375/427/376 374/426/375
f 359/409/359 360/410/360 376/428/377 375/427/376
f 360/410/360 361/411/361 377/429/378 376/428/377
f 361/411/361 362/412/362 378/430/379 377/429/378
f 362/412/362 363/413/363 379/431/380 378/430/379
f 363/413/363 364/414/364 380/432/381 379/431/380
f 364/414/364 365/415/365 381/433/382 380/432/381
f 365/415/365 366/416/366 382/434/383 381/433/382
f 366/416/366 367/417/367 383/435/384 382/434/383
f 367/417/367 368/418/368 384/436/385 383/435/384
f 368/418/368 369/419/369 385/437/374 384/436/385
f 369/419/369 370/420/370 386/438/386 385/437/374
f 370/420/370 371/421/371 387/439/387 386/438/386
f 371/421/371 385/440/374 387/439/387
f 371/421/371 355/422/356 372/441/373 385/440/374
f 204/245/204 203/244/203 216/442/207
f 206/251/211 205/249/209 216/445/207
f 207/253/213 206/251/211 216/446/207
f 208/255/215 207/253/213 216/447/207
f 209/257/217 208/255/215 216/448/207
f 210/259/219 209/257/217 216/449/207
f 211/261/221 210/259/219 216/450/207
f 212/263/223 211/261/221 216/451/207
f 213/265/225 212/263/223 216/452/207
f 214/267/227 213/265/225 216/453/207
f 215/269/229 214/267/227 216/454/207
f 218/275/234 217/273/232 216/455/207
f 203/277/203 218/275/234 216/456/207
f 372/424/373 373/423/372 385/457/374
f 374/426/375 375/427/376 385/458/374
f 375/427/376 376/428/377 385/459/374
f 376/428/377 377/429/378 385/460/374
f 377/429/378 378/430/379 385/461/374
f 378/430/379 379/431/380 385/462/374
f 379/431/380 380/432/381 385/463/374
f 380/432/381 381/433/382 385/464/374
f 381/433/382 382/434/383 385/465/374
f 382/434/383 383/435/384 385/466/374
f 383/435/384 384/436/385 385/467/374
f 386/438/386 387/439/387 385/468/374
s 3
f 388/469/388 389/470/389 405/471/390 404/472/391
f 389/470/389 401/668/392 406/473/393 405/471/390
f 401/669/392 390/474/394 407/475/395 406/473/393
f 390/474/394 391/476/396 408/477/397 407/475/395
f 391/476/396 392/478/398 409/479/399 408/477/397
f 392/478/398 393/480/400 410/481/401 409/479/399
f 393/480/400 394/482/402 411/483/403 410/481/401
f 394/482/402 395/484/404 412/485/405 411/483/403
f 395/484/404 396/486/406 413/487/407 412/485/405
f 396/486/406 397/488/408 414/489/409 413/487/407
f 397/488/408 398/490/410 415/491/411 414/489/409
f 398/490/410 399/492/412 416/493/413 415/491/411
f 399/492/412 400/494/414 417/495/415 416/493/413
f 400/494/414 401/496/392 418/497/416 417/495/415
f 401/496/392 402/498/417 419/499/418 418/497/416
f 402/498/417 403/500/419 420/501/420 419/499/418
f 403/500/419 388/502/388 404/503/391 420/501/420
f 404/472/391 405/471/390 422/504/421 421/505/422
f 405/471/390 406/473/393 423/506/423 422/504/421
f 406/473/393 407/475/395 424/507/424 423/506/423
f 407/475/395 408/477/397 425/508/425 424/507/424
f 408/477/397 409/479/399 426/509/426 425/508/425
f 409/479/399 410/481/401 427/510/427 426/509/426
f 410/481/401 411/483/403 428/511/428 427/510/427
f 411/483/403 412/485/405 429/512/429 428/511/428
f 412/485/405 413/487/407 430/513/430 429/512/429
f 413/487/407 414/489/409 431/514/431 430/513/430
f 414/489/409 415/491/411 432/515/432 431/514/431
f 415/491/411 416/493/413 433/516/433 432/515/432
f 416/493/413 417/495/415 434/517/434 433/516/433
f 417/495/415 418/497/416 435/518/435 434/517/434
f 418/497/416 419/499/418 436/519/436 435/518/435
f 419/499/418 420/501/420 437/520/437 436/519/436
f 420/501/420 404/503/391 421/521/422 437/520/437
f 421/505/422 422/504/421 439/522/438 438/523/439
f 422/504/421 423/506/423 440/524/440 439/522/438
f 423/506/423 424/507/424 441/525/441 440/524/440
f 424/507/424 425/508/425 442/526/442 441/525/441
f 425/508/425 426/509/426 443/527/443 442/526/442
f 426/509/426 427/510/427 444/528/444 443/527/443
f 427/510/427 428/511/428 445/529/445 444/528/444
f 428/511/428 429/512/429 446/530/446 445/529/445
f 429/512/429 430/513/430 447/531/447 446/530/446
f 430/513/430 431/514/431 448/532/448 447/531/447
f 431/514/431 432/515/432 449/533/449 448/532/448
f 432/515/432 433/516/433 450/534/450 449/533/449
f 433/516/433 434/517/434 451/535/451 450/534/450
f 434/517/434 435/518/435 452/536/452 451/535/451
f 435/518/435 436/519/436 453/537/453 452/536/452
f 436/519/436 437/520/437 454/538/454 453/537/453
f 437/520/437 421/521/422 438/539/439 454/538/454
f 438/523/439 439/522/438 456/540/455 455/541/456
f 439/522/438 440/524/440 457/542/457 456/540/455
f 440/524/440 441/525/441 458/543/458 457/542/457
f 441/525/441 442/526/442 459/544/459 458/543/458
f 442/526/442 443/527/443 460/545/460 459/544/459
f 443/527/443 444/528/444 461/546/461 460/545/460
f 444/528/444 445/529/445 462/547/462 461/546/461
f 445/529/445 446/530/446 463/548/463 462/547/462
f 446/530/446 447/531/447 464/549/464 463/548/463
f 447/531/447 448/532/448 465/550/465 464/549/464
f 448/532/448 449/533/449 466/551/466 465/550/465
f 449/533/449 450/534/450 467/552/467 466/551/466
f 450/534/450 451/535/451 468/553/468 467/552/467
f 451/535/451 452/536/452 469/554/469 468/553/468
f 452/536/452 453/537/453 470/555/470 469/554/469
f 453/537/453 454/538/454 471/556/471 470/555/470
f 454/538/454 438/539/439 455/557/456 471/556/471
f 455/541/456 456/540/455 473/558/472 472/559/473
f 456/540/455 457/542/457 474/560/474 473/558/472
f 457/542/457 458/543/458 475/561/475 474/560/474
f 458/543/458 459/544/459 476/562/476 475/561/475
f 459/544/459 460/545/460 477/563/477 476/562/476
f 460/545/460 461/546/461 478/564/478 477/563/477
f 461/546/461 462/547/462 479/565/479 478/564/478
f 462/547/462 463/548/463 480/566/480 479/565/479
f 463/548/463 464/549/464 481/567/481 480/566/480
f 464/549/464 465/550/465 482/568/482 481/567/481
f 465/550/465 466/551/466 483/569/483 482/568/482
f 466/551/466 467/552/467 484/570/484 483/569/483
f 467/552/467 468/553/468 485/571/485 484/570/484
f 468/553/468 469/554/469 486/572/486 485/571/485
f 469/554/469 470/555/470 487/573/487 486/572/486
f 470/555/470 471/556/471 488/574/488 487/573/487
f 471/556/471 455/557/456 472/575/473 488/574/488
f 472/559/473 473/558/472 490/576/489 489/577/490
f 473/558/472 474/560/474 491/578/491 490/576/489
f 474/560/474 475/561/475 492/579/492 491/578/491
f 475/561/475 476/562/476 493/580/493 492/579/492
f 476/562/476 477/563/477 494/581/494 493/580/493
f 477/563/477 478/564/478 495/582/495 494/581/494
f 478/564/478 479/565/479 496/583/496 495/582/495
f 479/565/479 480/566/480 497/584/497 496/583/496
f 480/566/480 481/567/481 498/585/498 497/584/497
f 481/567/481 482/568/482 499/586/499 498/585/498
f 482/568/482 483/569/483 500/587/500 499/586/499
f 483/569/483 484/570/484 501/588/501 500/587/500
f 484/570/484 485/571/485 502/589/502 501/588/501
f 485/571/485 486/572/486 503/590/503 502/589/502
f 486/572/486 487/573/487 504/591/504 503/590/503
f 487/573/487 488/574/488 505/592/505 504/591/504
f 488/574/488 472/575/473 489/593/490 505/592/505
f 489/577/490 490/576/489 507/594/506 506/595/507
f 490/576/489 491/578/491 508/596/508 507/594/506
f 491/578/491 492/579/492 509/597/509 508/596/508
f 492/579/492 493/580/493 510/598/510 509/597/509
f 493/580/493 494/581/494 511/599/511 510/598/510
f 494/581/494 495/582/495 512/600/512 511/599/511
f 495/582/495 496/583/496 513/601/513 512/600/512
f 496/583/496 497/584/497 514/602/514 513/601/513
f 497/584/497 498/585/498 515/603/515 514/602/514
f 498/585/498 499/586/499 516/604/516 515/603/515
f 499/586/499 500/587/500 517/605/517 516/604/516
f 500/587/500 501/588/501 518/606/518 517/605/517
f 501/588/501 502/589/502 519/607/519 518/606/518
f 502/589/502 503/590/503 520/608/520 519/607/519
f 503/590/503 504/591/504 521/609/521 520/608/520
f 504/591/504 505/592/505 522/610/522 521/609/521
f 505/592/505 489/593/490 506/611/507 522/610/522
f 506/595/507 507/594/506 524/612/523 523/613/524
f 507/594/506 508/596/508 525/614/525 524/612/523
f 508/596/508 509/597/509 526/615/526 525/614/525
f 509/597/509 510/598/510 527/616/527 526/615/526
f 510/598/510 511/599/511 528/617/528 527/616/527
f 511/599/511 512/600/512 529/618/529 528/617/528
f 512/600/512 513/601/513 530/619/530 529/618/529
f 513/601/513 514/602/514 531/620/531 530/619/530
f 514/602/514 515/603/515 532/621/532 531/620/531
f 515/603/515 516/604/516 533/622/533 532/621/532
f 516/604/516 517/605/517 534/623/534 533/622/533
f 517/605/517 518/606/518 535/624/535 534/623/534
f 518/606/518 519/607/519 536/625/536 535/624/535
f 519/607/519 520/608/520 537/626/537 536/625/536
f 520/608/520 521/609/521 538/627/538 537/626/537
f 521/609/521 522/610/522 539/628/539 538/627/538
f 522/610/522 506/611/507 523/629/524 539/628/539
f 523/613/524 524/612/523 541/630/540 540/631/541
f 524/612/523 525/614/525 542/632/542 541/630/540
f 525/614/525 526/615/526 543/633/543 542/632/542
f 526/615/526 527/616/527 544/634/544 543/633/543
f 527/616/527 528/617/528 545/635/545 544/634/544
f 528/617/528 529/618/529 546/636/546 545/635/545
f 529/618/529 530/619/530 547/637/547 546/636/546
f 530/619/530 531/620/531 548/638/548 547/637/547
f 531/620/531 532/621/532 549/639/549 548/638/548
f 532/621/532 533/622/533 550/640/550 549/639/549
f 533/622/533 534/623/534 551/641/551 550/640/550
f 534/623/534 535/624/535 552/642/552 551/641/551
f 535/624/535 536/625/536 553/643/553 552/642/552
f 536/625/536 537/626/537 554/644/554 553/643/553
f 537/626/537 538/627/538 555/645/555 554/644/554
f 538/627/538 539/628/539 556/646/556 555/645/555
f 539/628/539 523/629/524 540/647/541 556/646/556
f 540/631/541 541/630/540 558/648/557 557/649/558
f 541/630/540 542/632/542 570/650/559 558/648/557
f 542/632/542 543/633/543 559/651/560 570/650/559
f 543/633/543 544/634/544 560/652/561 559/651/560
f 544/634/544 545/635/545 561/653/562 560/652/561
f 545/635/545 546/636/546 562/654/563 561/653/562
f 546/636/546 547/637/547 563/655/564 562/654/563
f 547/637/547 548/638/548 564/656/565 563/655/564
f 548/638/548 549/639/549 565/657/566 564/656/565
f 549/639/549 550/640/550 566/658/567 565/657/566
f 550/640/550 551/641/551 567/659/568 566/658/567
f 551/641/551 552/642/552 568/660/569 567/659/568
f 552/642/552 553/643/553 569/661/570 568/660/569
f 553/643/553 554/644/554 570/662/559 569/661/570
f 554/644/554 555/645/555 571/663/571 570/662/559
f 555/645/555 556/646/556 572/664/572 571/663/571
f 556/646/556 570/665/559 572/664/572
f 556/646/556 540/647/541 557/666/558 570/665/559
f 389/470/389 388/469/388 401/667/392
f 391/476/396 390/474/394 401/670/392
f 392/478/398 391/476/396 401/671/392
f 393/480/400 392/478/398 401/672/392
f 394/482/402 393/480/400 401/673/392
f 395/484/404 394/482/402 401/674/392
f 396/486/406 395/484/404 401/675/392
f 397/488/408 396/486/406 401/676/392
f 398/490/410 397/488/408 401/677/392
f 399/492/412 398/490/410 401/678/392
f 400/494/414 399/492/412 401/679/392
f 403/500/419 402/498/417 401/680/392
f 388/502/388 403/500/419 401/681/392
f 557/649/558 558/648/557 570/682/559
f 559/651/560 560/652/561 570/683/559
f 560/652/561 561/653/562 570/684/559
f 561/653/562 562/654/563 570/685/559
f 562/654/563 563/655/564 570/686/559
f 563/655/564 564/656/565 570/687/559
f 564/656/565 565/657/566 570/688/559
f 565/657/566 566/658/567 570/689/559
f 566/658/567 567/659/568 570/690/559
f 567/659/568 568/660/569 570/691/559
f 568/660/569 569/661/570 570/692/559
f 571/663/571 572/664/572 570/693/559
