mtllib materials.mtl
v -0.007574797 0.03407991 -0.01703314
v 0.01400936 0.03324771 -0.01587589
v 0.01312685 0.03313792 0.0005048364
v -0.008457303 0.03397012 -0.0006524175
v 0.03098744 0.01986969 -0.0150508
v 0.03010494 0.01975989 0.001329899
v 0.03687441 -0.0009442568 -0.01487312
v 0.03599191 -0.001054049 0.001507595
v 0.02942163 -0.03124392 -0.01541063
v 0.02853912 -0.03135371 0.0009700805
v 0.01147586 -0.05327547 -0.01645808
v 0.0105933 -0.05338526 -7.735193E-05
v -0.01010835 -0.05244327 -0.01761533
v -0.01099086 -0.05255306 -0.001234606
v -0.0270865 -0.02906525 -0.01844037
v -0.02796894 -0.02917504 -0.002059668
v -0.03297347 0.001748681 -0.01861808
v -0.03385592 0.001638889 -0.002237365
v -0.02552068 0.02204823 -0.01808056
v -0.02640313 0.02193856 -0.00169985
v -0.005252063 0.03027725 -0.01875097
v 0.01184517 0.02667689 -0.01756851
v 0.01053542 0.02663302 0.001235679
v -0.006561816 0.0302335 5.322695E-05
v 0.02840745 0.01482165 -0.01644245
v 0.02709776 0.0147779 0.0023617
v 0.02953917 0.0008928776 -0.01639603
v 0.02822942 0.0008491278 0.002408162
v 0.02100122 -0.03392923 -0.01699463
v 0.01969147 -0.03397298 0.001809537
v -0.002104223 -0.04951751 -0.01856317
v -0.003413975 -0.04956126 0.0002410263
v -0.01992083 -0.0316031 -0.01983954
v -0.02123052 -0.03164697 -0.001035377
v -0.02669621 0.003798604 -0.02030616
v -0.02800584 0.003754854 -0.001502007
v -0.02584523 0.01643705 -0.02021746
v -0.02715486 0.01639342 -0.001413301
vn 0.0380579 0.9992373 0.008747258
vn 0.6172953 0.7857878 0.03852215
vn 0.9607493 0.2721939 0.05358471
vn 0.9696022 -0.2393911 0.05063249
vn 0.7739186 -0.6321763 0.0374589
vn -0.03805758 -0.9992372 -0.008747876
vn -0.8074245 -0.5880605 -0.04743977
vn -0.9807394 -0.1876814 -0.05409203
vn -0.9372293 0.3453699 -0.04817628
vn -0.5557209 0.8310118 -0.02436929
vn 0.05373861 0.005208997 -0.9985415
vn -0.05373875 -0.005208907 0.9985415
vn 0.2049413 0.9786343 0.01655287
vn 0.5796266 0.8137854 0.04226651
vn 0.9942908 0.08101593 0.06944263
vn 0.9687882 -0.2386858 0.06692196
vn 0.5571771 -0.8295745 0.03687696
vn -0.7063103 -0.7060745 -0.05083797
vn -0.9796881 -0.1884025 -0.06867178
vn -0.9953189 0.06750089 -0.06916506
vn -0.5556223 0.8306214 -0.03676818
vn 0.06939456 0.0006875712 -0.9975891
vn -0.06939484 -0.0006874307 0.9975891
vt 0.01904585 -0.09027789
vt 0.0181893 -0.08829159
vt 0.01668291 -0.08894119
vt 0.01753946 -0.09092749
vt 0.08948289 -0.1272952
vt 0.08803985 -0.1256837
vt 0.08681776 -0.1267781
vt 0.0882608 -0.1283896
vt 0.1507341 0.05667801
vt 0.1488087 0.05569202
vt 0.1495565 0.05423187
vt 0.1514818 0.05521786
vt 0.07472412 0.09299003
vt 0.0731705 0.09028351
vt 0.07459148 0.08946376
vt 0.0761451 0.09217029
vt 0.03812464 0.04459105
vt 0.03704777 0.04195937
vt 0.03856459 0.04133452
vt 0.03964147 0.0439662
vt -0.0181466 -0.08822614
vt -0.01900316 -0.09021245
vt -0.01749677 -0.09086205
vt -0.01664022 -0.08887575
vt -0.1406179 -0.07886851
vt -0.1432855 -0.07998146
vt -0.1426504 -0.08149399
vt -0.1399828 -0.08038104
vt -0.1334762 0.07558034
vt -0.1359986 0.07744561
vt -0.1369712 0.07612451
vt -0.1344488 0.07425924
vt -0.0631509 0.0829099
vt -0.06413984 0.0848337
vt -0.06559884 0.08408371
vt -0.06460989 0.08215989
vt -0.01983054 0.0007932164
vt -0.02059794 0.00281565
vt -0.02213172 0.002233668
vt -0.02136433 0.0002112453
vt -0.1672544 -0.01227229
vt -0.1657833 -0.01385818
vt -0.1627696 -0.01472967
vt -0.1599154 -0.01427381
vt -0.1588617 -0.01238468
vt -0.160011 -0.009783853
vt -0.1623735 -0.007744811
vt -0.1644958 -0.007326471
vt -0.1664587 -0.00823547
vt -0.1675123 -0.0101246
vt 0.1675102 -0.01012578
vt 0.1664565 -0.008236647
vt 0.1644937 -0.007327647
vt 0.1623714 -0.007745988
vt 0.1600089 -0.009785029
vt 0.1588595 -0.01238586
vt 0.1599132 -0.01427499
vt 0.1627675 -0.01473084
vt 0.1657812 -0.01385935
vt 0.1672523 -0.01227346
vt 0.03251418 -0.1093077
vt 0.03172773 -0.107743
vt 0.03004352 -0.1085895
vt 0.03082997 -0.1101542
vt 0.08257325 -0.1279369
vt 0.08125112 -0.1263835
vt 0.07981566 -0.1276052
vt 0.08113778 -0.1291586
vt 0.1203209 0.08990248
vt 0.119323 0.08892415
vt 0.1206426 0.08757814
vt 0.1216405 0.08855649
vt 0.07758281 0.09109898
vt 0.07575445 0.08801426
vt 0.07737394 0.08704968
vt 0.07920229 0.09013439
vt 0.02200695 0.001188488
vt 0.02099246 -0.001412278
vt 0.02274667 -0.002102121
vt 0.02376116 0.0004986455
vt -0.1105226 -0.1117785
vt -0.112521 -0.1133297
vt -0.1113606 -0.1148152
vt -0.1093623 -0.1132639
vt -0.1349871 0.07232279
vt -0.1379099 0.07443266
vt -0.1390099 0.07290196
vt -0.1360871 0.07079207
vt -0.09778999 0.0959007
vt -0.09855492 0.0969104
vt -0.1000574 0.09577216
vt -0.09929249 0.09476244
vt -0.02148909 -0.0001066411
vt -0.02239853 0.002206521
vt -0.0241528 0.00151681
vt -0.02324336 -0.0007963355
vt -0.1666097 -0.01162463
vt -0.1655246 -0.01227817
vt -0.1620653 -0.01329163
vt -0.1596556 -0.01252132
vt -0.1599841 -0.009749085
vt -0.1626904 -0.007396674
vt -0.1639812 -0.006860952
vt -0.1657942 -0.00779589
vt -0.1668975 -0.009155829
vt 0.1668949 -0.00915736
vt 0.1657915 -0.007797427
vt 0.1639785 -0.006862479
vt 0.1626878 -0.007398207
vt 0.1599814 -0.009750618
vt 0.159653 -0.01252285
vt 0.1620626 -0.01329317
vt 0.1655219 -0.01227969
vt 0.1666071 -0.01162615
o group1974478765
g mesh1974478765
usemtl mat18
f 4/4/1 3/3/1 2/2/1 1/1/1
f 3/8/2 6/7/2 5/6/2 2/5/2
f 6/12/3 8/11/3 7/10/3 5/9/3
f 8/16/4 10/15/4 9/14/4 7/13/4
f 10/20/5 12/19/5 11/18/5 9/17/5
f 12/24/6 14/23/6 13/22/6 11/21/6
f 14/28/7 16/27/7 15/26/7 13/25/7
f 16/32/8 18/31/8 17/30/8 15/29/8
f 18/36/9 20/35/9 19/34/9 17/33/9
f 20/40/10 4/39/10 1/38/10 19/37/10
f 1/50/11 2/49/11 5/48/11 7/47/11 9/46/11 11/45/11 13/44/11 15/43/11 17/42/11 19/41/11
f 20/60/12 18/59/12 16/58/12 14/57/12 12/56/12 10/55/12 8/54/12 6/53/12 3/52/12 4/51/12
o group369606806
g mesh369606806
usemtl mat18
f 24/64/13 23/63/13 22/62/13 21/61/13
f 23/68/14 26/67/14 25/66/14 22/65/14
f 26/72/15 28/71/15 27/70/15 25/69/15
f 28/76/16 30/75/16 29/74/16 27/73/16
f 30/80/17 32/79/17 31/78/17 29/77/17
f 32/84/18 34/83/18 33/82/18 31/81/18
f 34/88/19 36/87/19 35/86/19 33/85/19
f 36/92/20 38/91/20 37/90/20 35/89/20
f 38/96/21 24/95/21 21/94/21 37/93/21
f 21/105/22 22/104/22 25/103/22 27/102/22 29/101/22 31/100/22 33/99/22 35/98/22 37/97/22
f 38/114/23 36/113/23 34/112/23 32/111/23 30/110/23 28/109/23 26/108/23 23/107/23 24/106/23
