# This file uses centimeters as units for non-parametric coordinates.

mtllib Flower0.mtl
g default
v -0.219244 3.990755 2.079653
v -0.265080 4.046682 2.135580
v -0.136963 3.990843 2.079653
v -0.132540 4.046682 2.135666
v -0.000000 3.990755 2.079653
v -0.000000 4.046682 2.135580
v 0.136963 3.990843 2.079653
v 0.132540 4.046682 2.135666
v 0.219244 3.990755 2.079653
v 0.265080 4.046682 2.135580
v -0.352720 3.324309 2.079653
v -0.413630 3.304973 2.135580
v -0.177618 3.158442 2.079653
v -0.206815 3.109064 2.135580
v -0.000000 3.101610 2.079653
v -0.000000 3.042892 2.135580
v 0.177618 3.158442 2.079653
v 0.206815 3.109064 2.135580
v 0.352720 3.324309 2.079653
v 0.413630 3.304973 2.135580
v -0.413630 3.304973 2.247803
v -0.352720 3.324309 2.303729
v -0.206815 3.109064 2.247803
v -0.177618 3.158442 2.303729
v -0.000000 3.042892 2.247803
v -0.000000 3.101610 2.303729
v 0.206815 3.109064 2.247803
v 0.177618 3.158442 2.303729
v 0.352720 3.324309 2.303729
v 0.413630 3.304973 2.247803
v -0.219244 3.990755 2.303729
v -0.265080 4.046682 2.247803
v -0.136963 3.990843 2.303729
v -0.132540 4.046682 2.247716
v -0.000000 3.990755 2.303729
v -0.000000 4.046682 2.247803
v 0.136963 3.990843 2.303729
v 0.132540 4.046682 2.247716
v 0.219244 3.990755 2.303729
v 0.265080 4.046682 2.247803
v 0.291187 4.020555 2.079653
v 0.219231 4.027690 2.135580
v 0.349307 4.078798 2.079653
v 0.312950 4.121410 2.135666
v 0.446216 4.175584 2.079653
v 0.406670 4.215130 2.135580
v 0.543002 4.272494 2.079653
v 0.500390 4.308850 2.135666
v 0.601245 4.330613 2.079653
v 0.594110 4.402570 2.135580
v 0.668054 3.454924 2.079653
v 0.638657 3.398183 2.135580
v 0.909156 3.461454 2.079653
v 0.923426 3.405894 2.135580
v 1.074937 3.546863 2.079653
v 1.116457 3.505343 2.135580
v 1.160346 3.712645 2.079653
v 1.215906 3.698375 2.135580
v 1.166876 3.953747 2.079653
v 1.223618 3.983143 2.135580
v 0.638657 3.398183 2.247803
v 0.668054 3.454924 2.303729
v 0.923426 3.405894 2.247803
v 0.909156 3.461454 2.303729
v 1.116457 3.505343 2.247803
v 1.074937 3.546863 2.303729
v 1.215906 3.698375 2.247803
v 1.160346 3.712645 2.303729
v 1.166876 3.953747 2.303729
v 1.223618 3.983143 2.247803
v 0.291187 4.020555 2.303729
v 0.219231 4.027690 2.247803
v 0.349307 4.078798 2.303729
v 0.312950 4.121410 2.247716
v 0.446216 4.175584 2.303729
v 0.406670 4.215130 2.247803
v 0.543002 4.272494 2.303729
v 0.500390 4.308850 2.247716
v 0.601245 4.330613 2.303729
v 0.594110 4.402570 2.247803
v 0.631045 4.402556 2.079653
v 0.575119 4.356721 2.135580
v 0.630958 4.484837 2.079653
v 0.575119 4.489261 2.135666
v 0.631045 4.621801 2.079653
v 0.575119 4.621801 2.135580
v 0.630958 4.758764 2.079653
v 0.575119 4.754340 2.135666
v 0.631045 4.841045 2.079653
v 0.575119 4.886880 2.135580
v 1.297491 4.269080 2.079653
v 1.316827 4.208171 2.135580
v 1.463359 4.444182 2.079653
v 1.512736 4.414986 2.135580
v 1.520191 4.621801 2.079653
v 1.578909 4.621801 2.135580
v 1.463359 4.799419 2.079653
v 1.512736 4.828615 2.135580
v 1.297491 4.974521 2.079653
v 1.316827 5.035430 2.135580
v 1.316827 4.208171 2.247803
v 1.297491 4.269080 2.303729
v 1.512736 4.414986 2.247803
v 1.463359 4.444182 2.303729
v 1.578909 4.621801 2.247803
v 1.520191 4.621801 2.303729
v 1.512736 4.828615 2.247803
v 1.463359 4.799419 2.303729
v 1.297491 4.974521 2.303729
v 1.316827 5.035430 2.247803
v 0.631045 4.402556 2.303729
v 0.575119 4.356721 2.247803
v 0.630958 4.484837 2.303729
v 0.575119 4.489261 2.247716
v 0.631045 4.621801 2.303729
v 0.575119 4.621801 2.247803
v 0.630958 4.758764 2.303729
v 0.575119 4.754340 2.247716
v 0.631045 4.841045 2.303729
v 0.575119 4.886880 2.247803
v 0.601245 4.912988 2.079653
v 0.594110 4.841031 2.135580
v 0.543002 4.971107 2.079653
v 0.500390 4.934751 2.135666
v 0.446216 5.068017 2.079653
v 0.406670 5.028471 2.135580
v 0.349307 5.164803 2.079653
v 0.312950 5.122191 2.135666
v 0.291187 5.223046 2.079653
v 0.219231 5.215911 2.135580
v 1.166876 5.289854 2.079653
v 1.223618 5.260458 2.135580
v 1.160346 5.530957 2.079653
v 1.215906 5.545226 2.135580
v 1.074937 5.696738 2.079653
v 1.116457 5.738258 2.135580
v 0.909156 5.782146 2.079653
v 0.923426 5.837706 2.135580
v 0.668054 5.788677 2.079653
v 0.638657 5.845419 2.135580
v 1.223618 5.260458 2.247803
v 1.166876 5.289854 2.303729
v 1.215906 5.545226 2.247803
v 1.160346 5.530957 2.303729
v 1.116457 5.738258 2.247803
v 1.074937 5.696738 2.303729
v 0.923426 5.837706 2.247803
v 0.909156 5.782146 2.303729
v 0.668054 5.788677 2.303729
v 0.638657 5.845419 2.247803
v 0.601245 4.912988 2.303729
v 0.594110 4.841031 2.247803
v 0.543002 4.971107 2.303729
v 0.500390 4.934751 2.247716
v 0.446216 5.068017 2.303729
v 0.406670 5.028471 2.247803
v 0.349307 5.164803 2.303729
v 0.312950 5.122191 2.247716
v 0.291187 5.223046 2.303729
v 0.219231 5.215911 2.247803
v 0.219244 5.252846 2.079653
v 0.265080 5.196919 2.135580
v 0.136963 5.252758 2.079653
v 0.132540 5.196919 2.135666
v -0.000000 5.252846 2.079653
v -0.000000 5.196919 2.135580
v -0.136963 5.252758 2.079653
v -0.132540 5.196919 2.135666
v -0.219244 5.252846 2.079653
v -0.265080 5.196919 2.135580
v 0.352720 5.919292 2.079653
v 0.413630 5.938628 2.135580
v 0.177618 6.085159 2.079653
v 0.206815 6.134537 2.135580
v 0.000000 6.141991 2.079653
v 0.000000 6.200709 2.135580
v -0.177618 6.085159 2.079653
v -0.206815 6.134537 2.135580
v -0.352720 5.919292 2.079653
v -0.413630 5.938628 2.135580
v 0.413630 5.938628 2.247803
v 0.352720 5.919292 2.303729
v 0.206815 6.134537 2.247803
v 0.177618 6.085159 2.303729
v 0.000000 6.200709 2.247803
v 0.000000 6.141991 2.303729
v -0.206815 6.134537 2.247803
v -0.177618 6.085159 2.303729
v -0.352720 5.919292 2.303729
v -0.413630 5.938628 2.247803
v 0.219244 5.252846 2.303729
v 0.265080 5.196919 2.247803
v 0.136963 5.252758 2.303729
v 0.132540 5.196919 2.247716
v -0.000000 5.252846 2.303729
v -0.000000 5.196919 2.247803
v -0.136963 5.252758 2.303729
v -0.132540 5.196919 2.247716
v -0.219244 5.252846 2.303729
v -0.265080 5.196919 2.247803
v -0.291187 5.223046 2.079653
v -0.219231 5.215911 2.135580
v -0.349307 5.164803 2.079653
v -0.312950 5.122191 2.135666
v -0.446216 5.068017 2.079653
v -0.406670 5.028471 2.135580
v -0.543002 4.971107 2.079653
v -0.500390 4.934751 2.135666
v -0.601245 4.912988 2.079653
v -0.594110 4.841031 2.135580
v -0.668054 5.788677 2.079653
v -0.638657 5.845419 2.135580
v -0.909156 5.782146 2.079653
v -0.923426 5.837706 2.135580
v -1.074937 5.696738 2.079653
v -1.116457 5.738258 2.135580
v -1.160346 5.530957 2.079653
v -1.215906 5.545226 2.135580
v -1.166876 5.289854 2.079653
v -1.223618 5.260458 2.135580
v -0.638657 5.845419 2.247803
v -0.668054 5.788677 2.303729
v -0.923426 5.837706 2.247803
v -0.909156 5.782146 2.303729
v -1.116457 5.738258 2.247803
v -1.074937 5.696738 2.303729
v -1.215906 5.545226 2.247803
v -1.160346 5.530957 2.303729
v -1.166876 5.289854 2.303729
v -1.223618 5.260458 2.247803
v -0.291187 5.223046 2.303729
v -0.219231 5.215911 2.247803
v -0.349307 5.164803 2.303729
v -0.312950 5.122191 2.247716
v -0.446216 5.068017 2.303729
v -0.406670 5.028471 2.247803
v -0.543002 4.971107 2.303729
v -0.500390 4.934751 2.247716
v -0.601245 4.912988 2.303729
v -0.594110 4.841031 2.247803
v -0.631045 4.841045 2.079653
v -0.575119 4.886880 2.135580
v -0.630958 4.758764 2.079653
v -0.575119 4.754340 2.135666
v -0.631045 4.621801 2.079653
v -0.575119 4.621801 2.135580
v -0.630958 4.484837 2.079653
v -0.575119 4.489261 2.135666
v -0.631045 4.402556 2.079653
v -0.575119 4.356721 2.135580
v -1.297491 4.974521 2.079653
v -1.316827 5.035430 2.135580
v -1.463359 4.799419 2.079653
v -1.512736 4.828615 2.135580
v -1.520191 4.621801 2.079653
v -1.578909 4.621801 2.135580
v -1.463359 4.444182 2.079653
v -1.512736 4.414986 2.135580
v -1.297491 4.269080 2.079653
v -1.316827 4.208171 2.135580
v -1.316827 5.035430 2.247803
v -1.297491 4.974521 2.303729
v -1.512736 4.828615 2.247803
v -1.463359 4.799419 2.303729
v -1.578909 4.621801 2.247803
v -1.520191 4.621801 2.303729
v -1.512736 4.414986 2.247803
v -1.463359 4.444182 2.303729
v -1.297491 4.269080 2.303729
v -1.316827 4.208171 2.247803
v -0.631045 4.841045 2.303729
v -0.575119 4.886880 2.247803
v -0.630958 4.758764 2.303729
v -0.575119 4.754340 2.247716
v -0.631045 4.621801 2.303729
v -0.575119 4.621801 2.247803
v -0.630958 4.484837 2.303729
v -0.575119 4.489261 2.247716
v -0.631045 4.402556 2.303729
v -0.575119 4.356721 2.247803
v -0.601245 4.330613 2.079653
v -0.594110 4.402570 2.135580
v -0.543002 4.272494 2.079653
v -0.500390 4.308850 2.135666
v -0.446216 4.175584 2.079653
v -0.406670 4.215130 2.135580
v -0.349307 4.078798 2.079653
v -0.312950 4.121410 2.135666
v -0.291187 4.020555 2.079653
v -0.219231 4.027690 2.135580
v -1.166876 3.953747 2.079653
v -1.223618 3.983143 2.135580
v -1.160346 3.712645 2.079653
v -1.215906 3.698375 2.135580
v -1.074937 3.546863 2.079653
v -1.116457 3.505343 2.135580
v -0.909156 3.461454 2.079653
v -0.923426 3.405894 2.135580
v -0.668054 3.454924 2.079653
v -0.638657 3.398183 2.135580
v -1.223618 3.983143 2.247803
v -1.166876 3.953747 2.303729
v -1.215906 3.698375 2.247803
v -1.160346 3.712645 2.303729
v -1.116457 3.505343 2.247803
v -1.074937 3.546863 2.303729
v -0.923426 3.405894 2.247803
v -0.909156 3.461454 2.303729
v -0.668054 3.454924 2.303729
v -0.638657 3.398183 2.247803
v -0.601245 4.330613 2.303729
v -0.594110 4.402570 2.247803
v -0.543002 4.272494 2.303729
v -0.500390 4.308850 2.247716
v -0.446216 4.175584 2.303729
v -0.406670 4.215130 2.247803
v -0.349307 4.078798 2.303729
v -0.312950 4.121410 2.247716
v -0.291187 4.020555 2.303729
v -0.219231 4.027690 2.247803
v 0.212571 -0.042691 0.744438
v 0.180824 -0.042691 0.682130
v 0.131376 -0.042691 0.632682
v 0.069069 -0.042691 0.600935
v -0.000000 -0.042691 0.589996
v -0.069069 -0.042691 0.600935
v -0.131376 -0.042691 0.632682
v -0.180824 -0.042691 0.682130
v -0.212571 -0.042691 0.744438
v -0.223511 -0.042691 0.813506
v -0.212571 -0.042691 0.882575
v -0.180824 -0.042691 0.944883
v -0.131376 -0.042691 0.994330
v -0.069069 -0.042691 1.026078
v -0.000000 -0.042691 1.037017
v 0.069069 -0.042691 1.026078
v 0.131376 -0.042691 0.994330
v 0.180824 -0.042691 0.944883
v 0.212571 -0.042691 0.882575
v 0.223511 -0.042691 0.813506
v 0.212571 3.581552 0.744438
v 0.180824 3.581552 0.682130
v 0.131376 3.581552 0.632682
v 0.069069 3.581552 0.600935
v -0.000000 3.581552 0.589996
v -0.069069 3.581552 0.600935
v -0.131376 3.581552 0.632682
v -0.180824 3.581552 0.682130
v -0.212571 3.581552 0.744438
v -0.223511 3.581552 0.813506
v -0.212571 3.581552 0.882575
v -0.180824 3.581552 0.944883
v -0.131376 3.581552 0.994330
v -0.069069 3.581552 1.026078
v -0.000000 3.581552 1.037017
v 0.069069 3.581552 1.026078
v 0.131376 3.581552 0.994330
v 0.180824 3.581552 0.944883
v 0.212571 3.581552 0.882575
v 0.223511 3.581552 0.813506
v -0.000000 -0.042691 0.813506
v 0.190487 4.259184 0.909202
v 0.154781 4.289994 0.859277
v 0.102314 4.314604 0.821434
v 0.038220 4.330606 0.799377
v -0.031225 4.336435 0.795261
v -0.099224 4.331520 0.809494
v -0.159122 4.316339 0.840680
v -0.205054 4.292381 0.885768
v -0.232525 4.261989 0.940346
v -0.238845 4.228142 0.999065
v -0.223396 4.194150 1.056182
v -0.187691 4.163338 1.106109
v -0.135223 4.138728 1.143953
v -0.071130 4.122724 1.166012
v -0.001685 4.116896 1.170127
v 0.066315 4.121812 1.155894
v 0.126212 4.136991 1.124707
v 0.172144 4.160950 1.079620
v 0.199615 4.191340 1.025044
v 0.205935 4.225190 0.966321
v 0.195968 4.691478 1.615537
v 0.168762 4.752461 1.609907
v 0.123403 4.802757 1.603766
v 0.064356 4.837441 1.597768
v -0.002573 4.853142 1.592537
v -0.070827 4.848338 1.588577
v -0.133738 4.823533 1.586236
v -0.185176 4.781155 1.585698
v -0.220130 4.725314 1.587003
v -0.235163 4.661445 1.590058
v -0.228776 4.595799 1.594612
v -0.201573 4.534825 1.600243
v -0.156213 4.484523 1.606383
v -0.097166 4.449835 1.612380
v -0.030235 4.434141 1.617613
v 0.038021 4.438942 1.621573
v 0.100926 4.463739 1.623913
v 0.152366 4.506124 1.624452
v 0.187321 4.561978 1.623148
v 0.202354 4.625839 1.620091
v 0.222911 4.749764 1.777625
v 0.189619 4.815103 1.777625
v 0.137767 4.866955 1.777625
v 0.072428 4.900247 1.777625
v -0.000000 4.911719 1.777625
v -0.072428 4.900247 1.777625
v -0.137766 4.866955 1.777625
v -0.189619 4.815103 1.777625
v -0.222911 4.749764 1.777625
v -0.234382 4.677336 1.777625
v -0.222911 4.604908 1.777625
v -0.189619 4.539570 1.777625
v -0.137766 4.487717 1.777625
v -0.072428 4.454426 1.777625
v -0.000000 4.442953 1.777625
v 0.072428 4.454426 1.777625
v 0.137766 4.487717 1.777625
v 0.189619 4.539570 1.777625
v 0.222911 4.604908 1.777625
v 0.234382 4.677336 1.777625
v 0.583588 4.866955 1.935784
v 0.496430 5.038014 1.935784
v 0.360677 5.173766 1.935784
v 0.189619 5.260925 1.935784
v -0.000000 5.290957 1.935784
v -0.189619 5.260925 1.935784
v -0.360677 5.173766 1.935784
v -0.496430 5.038014 1.935784
v -0.583588 4.866955 1.935784
v -0.613621 4.677336 1.935784
v -0.583588 4.487717 1.935784
v -0.496430 4.316659 1.935784
v -0.360677 4.180907 1.935784
v -0.189619 4.093748 1.935784
v -0.000000 4.063715 1.935784
v 0.189619 4.093748 1.935784
v 0.360677 4.180907 1.935784
v 0.496430 4.316659 1.935784
v 0.583588 4.487717 1.935784
v 0.613621 4.677336 1.935784
v 0.721355 4.911719 2.191691
v 0.613621 5.123158 2.191691
v 0.445822 5.290957 2.191691
v 0.234382 5.398691 2.191691
v -0.000000 5.435814 2.191691
v -0.234382 5.398691 2.191691
v -0.445822 5.290957 2.191691
v -0.613621 5.123158 2.191691
v -0.721355 4.911719 2.191691
v -0.758477 4.677336 2.191691
v -0.721355 4.442953 2.191691
v -0.613621 4.231514 2.191691
v -0.445822 4.063715 2.191691
v -0.234382 3.955982 2.191691
v -0.000000 3.918859 2.191691
v 0.234382 3.955982 2.191691
v 0.445822 4.063715 2.191691
v 0.613621 4.231514 2.191691
v 0.721354 4.442953 2.191691
v 0.758477 4.677336 2.191691
v 0.583588 4.866955 2.447599
v 0.496430 5.038014 2.447599
v 0.360677 5.173766 2.447599
v 0.189619 5.260925 2.447599
v -0.000000 5.290957 2.447599
v -0.189619 5.260925 2.447599
v -0.360677 5.173766 2.447599
v -0.496430 5.038014 2.447599
v -0.583588 4.866955 2.447599
v -0.613621 4.677336 2.447599
v -0.583588 4.487717 2.447599
v -0.496430 4.316659 2.447599
v -0.360677 4.180907 2.447599
v -0.189619 4.093748 2.447599
v -0.000000 4.063715 2.447599
v 0.189619 4.093748 2.447599
v 0.360677 4.180907 2.447599
v 0.496430 4.316659 2.447599
v 0.583588 4.487717 2.447599
v 0.613621 4.677336 2.447599
v -0.000000 4.677336 2.627067
vt 0.447075 0.149625
vt 0.449402 0.150117
vt 0.448701 0.157768
vt 0.450330 0.149625
vt 0.451960 0.149625
vt 0.453589 0.149625
vt 0.449136 0.155644
vt 0.456844 0.156142
vt 0.448701 0.170800
vt 0.455218 0.161031
vt 0.449402 0.168683
vt 0.450330 0.150013
vt 0.451960 0.149988
vt 0.450560 0.155760
vt 0.453589 0.150013
vt 0.451960 0.155760
vt 0.454517 0.150117
vt 0.454783 0.155644
vt 0.453359 0.155760
vt 0.450330 0.157768
vt 0.448701 0.161031
vt 0.451960 0.157768
vt 0.450330 0.161031
vt 0.453589 0.157768
vt 0.451960 0.161031
vt 0.455218 0.157768
vt 0.453589 0.161031
vt 0.449136 0.163156
vt 0.450560 0.163039
vt 0.451960 0.163039
vt 0.450330 0.168786
vt 0.453359 0.163039
vt 0.451960 0.168811
vt 0.454783 0.163156
vt 0.454517 0.168683
vt 0.453589 0.168786
vt 0.450330 0.170803
vt 0.448701 0.174064
vt 0.451960 0.170800
vt 0.450330 0.174061
vt 0.453589 0.170803
vt 0.451960 0.174064
vt 0.455218 0.170800
vt 0.455218 0.174064
vt 0.453589 0.174061
vt 0.456844 0.149625
vt 0.460108 0.149625
vt 0.460108 0.156142
vt 0.443812 0.149625
vt 0.447075 0.156142
vt 0.443812 0.156142
vt 0.449402 0.150117
vt 0.447075 0.149625
vt 0.450330 0.149625
vt 0.450331 0.150013
vt 0.449137 0.155644
vt 0.448701 0.157768
vt 0.451960 0.149625
vt 0.451960 0.149988
vt 0.453589 0.149625
vt 0.453589 0.150013
vt 0.456844 0.149625
vt 0.454517 0.150117
vt 0.456844 0.156142
vt 0.454783 0.155644
vt 0.450560 0.155760
vt 0.450330 0.157768
vt 0.451960 0.155760
vt 0.451960 0.157768
vt 0.453359 0.155760
vt 0.453589 0.157768
vt 0.448701 0.161031
vt 0.449137 0.163156
vt 0.449402 0.168683
vt 0.448701 0.170800
vt 0.450330 0.161031
vt 0.450560 0.163039
vt 0.451960 0.161031
vt 0.451960 0.163039
vt 0.453589 0.161031
vt 0.453359 0.163039
vt 0.455218 0.161031
vt 0.454783 0.163156
vt 0.455218 0.170800
vt 0.454517 0.168683
vt 0.450330 0.168786
vt 0.450330 0.170803
vt 0.451960 0.168811
vt 0.451960 0.170800
vt 0.453589 0.168786
vt 0.453589 0.170803
vt 0.455218 0.157768
vt 0.450330 0.174061
vt 0.448701 0.174064
vt 0.451960 0.174064
vt 0.453589 0.174061
vt 0.455218 0.174064
vt 0.460108 0.149625
vt 0.460108 0.156142
vt 0.443812 0.149625
vt 0.447075 0.156142
vt 0.443812 0.156142
vt 0.449402 0.150117
vt 0.447075 0.149625
vt 0.450330 0.149625
vt 0.450330 0.150013
vt 0.449137 0.155644
vt 0.448701 0.157768
vt 0.451960 0.149625
vt 0.451960 0.149988
vt 0.453589 0.149625
vt 0.453589 0.150013
vt 0.456844 0.149625
vt 0.454517 0.150117
vt 0.456844 0.156142
vt 0.454783 0.155644
vt 0.450560 0.155760
vt 0.450330 0.157768
vt 0.451960 0.155760
vt 0.451960 0.157768
vt 0.453359 0.155760
vt 0.453589 0.157768
vt 0.448701 0.161031
vt 0.449137 0.163156
vt 0.449402 0.168683
vt 0.448701 0.170800
vt 0.450330 0.161031
vt 0.450560 0.163039
vt 0.451960 0.161031
vt 0.451960 0.163039
vt 0.453589 0.161031
vt 0.453359 0.163039
vt 0.455218 0.161031
vt 0.454783 0.163156
vt 0.455218 0.170800
vt 0.454517 0.168683
vt 0.450330 0.168786
vt 0.450330 0.170803
vt 0.451960 0.168811
vt 0.451960 0.170800
vt 0.453589 0.168786
vt 0.453589 0.170803
vt 0.455218 0.157768
vt 0.450330 0.174061
vt 0.448701 0.174064
vt 0.451960 0.174064
vt 0.453589 0.174061
vt 0.455218 0.174064
vt 0.460108 0.149625
vt 0.460108 0.156142
vt 0.443812 0.149625
vt 0.447075 0.156142
vt 0.443812 0.156142
vt 0.449402 0.150117
vt 0.447075 0.149625
vt 0.450330 0.149625
vt 0.450331 0.150013
vt 0.449137 0.155644
vt 0.448701 0.157768
vt 0.451960 0.149625
vt 0.451960 0.149988
vt 0.453589 0.149625
vt 0.453589 0.150013
vt 0.456844 0.149625
vt 0.454517 0.150117
vt 0.456844 0.156142
vt 0.454783 0.155644
vt 0.450560 0.155760
vt 0.450330 0.157768
vt 0.451960 0.155760
vt 0.451960 0.157768
vt 0.453359 0.155760
vt 0.453589 0.157768
vt 0.448701 0.161031
vt 0.449137 0.163156
vt 0.449402 0.168683
vt 0.448701 0.170800
vt 0.450330 0.161031
vt 0.450560 0.163039
vt 0.451960 0.161031
vt 0.451960 0.163039
vt 0.453589 0.161031
vt 0.453359 0.163039
vt 0.455218 0.161031
vt 0.454783 0.163156
vt 0.455218 0.170800
vt 0.454517 0.168683
vt 0.450330 0.168786
vt 0.450330 0.170803
vt 0.451960 0.168811
vt 0.451960 0.170800
vt 0.453589 0.168786
vt 0.453589 0.170803
vt 0.455218 0.157768
vt 0.450330 0.174061
vt 0.448701 0.174064
vt 0.451960 0.174064
vt 0.453589 0.174061
vt 0.455218 0.174064
vt 0.460108 0.149625
vt 0.460108 0.156142
vt 0.443812 0.149625
vt 0.447075 0.156142
vt 0.443812 0.156142
vt 0.449402 0.150117
vt 0.447075 0.149625
vt 0.450330 0.149625
vt 0.450331 0.150013
vt 0.449137 0.155644
vt 0.448701 0.157768
vt 0.451960 0.149625
vt 0.451960 0.149988
vt 0.453589 0.149625
vt 0.453589 0.150013
vt 0.456844 0.149625
vt 0.454517 0.150117
vt 0.456844 0.156142
vt 0.454783 0.155644
vt 0.450560 0.155760
vt 0.450330 0.157768
vt 0.451960 0.155760
vt 0.451960 0.157768
vt 0.453359 0.155760
vt 0.453589 0.157768
vt 0.448701 0.161031
vt 0.449137 0.163156
vt 0.449402 0.168683
vt 0.448701 0.170800
vt 0.450330 0.161031
vt 0.450560 0.163039
vt 0.451960 0.161031
vt 0.451960 0.163039
vt 0.453589 0.161031
vt 0.453359 0.163039
vt 0.455218 0.161031
vt 0.454783 0.163156
vt 0.455218 0.170800
vt 0.454517 0.168683
vt 0.450330 0.168786
vt 0.450330 0.170803
vt 0.451960 0.168811
vt 0.451960 0.170800
vt 0.453589 0.168786
vt 0.453589 0.170803
vt 0.455218 0.157768
vt 0.450330 0.174061
vt 0.448701 0.174064
vt 0.451960 0.174064
vt 0.453589 0.174061
vt 0.455218 0.174064
vt 0.460108 0.149625
vt 0.460108 0.156142
vt 0.443812 0.149625
vt 0.447075 0.156142
vt 0.443812 0.156142
vt 0.449402 0.150117
vt 0.447075 0.149625
vt 0.450330 0.149625
vt 0.450331 0.150013
vt 0.449137 0.155644
vt 0.448701 0.157768
vt 0.451960 0.149625
vt 0.451960 0.149988
vt 0.453589 0.149625
vt 0.453589 0.150013
vt 0.456844 0.149625
vt 0.454517 0.150117
vt 0.456844 0.156142
vt 0.454783 0.155644
vt 0.450560 0.155760
vt 0.450330 0.157768
vt 0.451960 0.155760
vt 0.451960 0.157768
vt 0.453359 0.155760
vt 0.453589 0.157768
vt 0.448701 0.161031
vt 0.449137 0.163156
vt 0.449402 0.168683
vt 0.448701 0.170800
vt 0.450330 0.161031
vt 0.450560 0.163039
vt 0.451960 0.161031
vt 0.451960 0.163039
vt 0.453589 0.161031
vt 0.453359 0.163039
vt 0.455218 0.161031
vt 0.454783 0.163156
vt 0.455218 0.170800
vt 0.454517 0.168683
vt 0.450330 0.168786
vt 0.450330 0.170803
vt 0.451960 0.168811
vt 0.451960 0.170800
vt 0.453589 0.168786
vt 0.453589 0.170803
vt 0.455218 0.157768
vt 0.450330 0.174061
vt 0.448701 0.174064
vt 0.451960 0.174064
vt 0.453589 0.174061
vt 0.455218 0.174064
vt 0.460108 0.149625
vt 0.460108 0.156142
vt 0.443812 0.149625
vt 0.447075 0.156142
vt 0.443812 0.156142
vt 0.449402 0.150117
vt 0.447075 0.149625
vt 0.450330 0.149625
vt 0.450331 0.150013
vt 0.449137 0.155644
vt 0.448701 0.157768
vt 0.451960 0.149625
vt 0.451960 0.149988
vt 0.453589 0.149625
vt 0.453589 0.150013
vt 0.456844 0.149625
vt 0.454517 0.150117
vt 0.456844 0.156142
vt 0.454783 0.155644
vt 0.450560 0.155760
vt 0.450330 0.157768
vt 0.451960 0.155760
vt 0.451960 0.157768
vt 0.453359 0.155760
vt 0.453589 0.157768
vt 0.448701 0.161031
vt 0.449137 0.163156
vt 0.449402 0.168683
vt 0.448701 0.170800
vt 0.450330 0.161031
vt 0.450560 0.163039
vt 0.451960 0.161031
vt 0.451960 0.163039
vt 0.453589 0.161031
vt 0.453359 0.163039
vt 0.455218 0.161031
vt 0.454783 0.163156
vt 0.455218 0.170800
vt 0.454517 0.168683
vt 0.450330 0.168786
vt 0.450330 0.170803
vt 0.451960 0.168811
vt 0.451960 0.170800
vt 0.453589 0.168786
vt 0.453589 0.170803
vt 0.455218 0.157768
vt 0.450330 0.174061
vt 0.448701 0.174064
vt 0.451960 0.174064
vt 0.453589 0.174061
vt 0.455218 0.174064
vt 0.460108 0.149625
vt 0.460108 0.156142
vt 0.443812 0.149625
vt 0.447075 0.156142
vt 0.443812 0.156142
vt 0.449402 0.150117
vt 0.447075 0.149625
vt 0.450330 0.149625
vt 0.450331 0.150013
vt 0.449137 0.155644
vt 0.448701 0.157768
vt 0.451960 0.149625
vt 0.451960 0.149988
vt 0.453589 0.149625
vt 0.453589 0.150013
vt 0.456844 0.149625
vt 0.454517 0.150117
vt 0.456844 0.156142
vt 0.454783 0.155644
vt 0.450560 0.155760
vt 0.450330 0.157768
vt 0.451960 0.155760
vt 0.451960 0.157768
vt 0.453359 0.155760
vt 0.453589 0.157768
vt 0.448701 0.161031
vt 0.449137 0.163156
vt 0.449402 0.168683
vt 0.448701 0.170800
vt 0.450330 0.161031
vt 0.450560 0.163039
vt 0.451960 0.161031
vt 0.451960 0.163039
vt 0.453589 0.161031
vt 0.453359 0.163039
vt 0.455218 0.161031
vt 0.454783 0.163156
vt 0.455218 0.170800
vt 0.454517 0.168683
vt 0.450330 0.168786
vt 0.450330 0.170803
vt 0.451960 0.168811
vt 0.451960 0.170800
vt 0.453589 0.168786
vt 0.453589 0.170803
vt 0.455218 0.157768
vt 0.450330 0.174061
vt 0.448701 0.174064
vt 0.451960 0.174064
vt 0.453589 0.174061
vt 0.455218 0.174064
vt 0.460108 0.149625
vt 0.460108 0.156142
vt 0.443812 0.149625
vt 0.447075 0.156142
vt 0.443812 0.156142
vt 0.490998 0.540148
vt 0.491898 0.540148
vt 0.491898 0.567154
vt 0.490998 0.567154
vt 0.492798 0.540148
vt 0.492798 0.567154
vt 0.493699 0.540148
vt 0.493699 0.567154
vt 0.494599 0.540148
vt 0.494599 0.567154
vt 0.495499 0.540148
vt 0.495499 0.567154
vt 0.496399 0.540148
vt 0.496399 0.567154
vt 0.497299 0.540148
vt 0.497299 0.567154
vt 0.498200 0.540148
vt 0.498200 0.567154
vt 0.499100 0.540148
vt 0.499100 0.567154
vt 0.500000 0.540148
vt 0.500000 0.567154
vt 0.500900 0.540148
vt 0.500900 0.567154
vt 0.501800 0.540148
vt 0.501800 0.567154
vt 0.502701 0.540148
vt 0.502701 0.567154
vt 0.503601 0.540148
vt 0.503601 0.567154
vt 0.504501 0.540148
vt 0.504501 0.567154
vt 0.505401 0.540148
vt 0.505401 0.567154
vt 0.506301 0.540148
vt 0.506301 0.567154
vt 0.507202 0.540148
vt 0.507202 0.567154
vt 0.508102 0.540148
vt 0.508102 0.567154
vt 0.509002 0.540148
vt 0.509002 0.567154
vt 0.509103 0.547037
vt 0.510702 0.550174
vt 0.500000 0.553651
vt 0.506614 0.544548
vt 0.503477 0.542949
vt 0.500000 0.542399
vt 0.496523 0.542949
vt 0.493386 0.544548
vt 0.490897 0.547037
vt 0.489298 0.550174
vt 0.488748 0.553651
vt 0.489298 0.557128
vt 0.490897 0.560265
vt 0.493386 0.562755
vt 0.496523 0.564353
vt 0.500000 0.564904
vt 0.503477 0.564353
vt 0.506614 0.562755
vt 0.509103 0.560265
vt 0.510702 0.557128
vt 0.511252 0.553651
vt 0.510702 0.557128
vt 0.509103 0.560265
vt 0.509103 0.560265
vt 0.510702 0.557128
vt 0.506614 0.562755
vt 0.506614 0.562755
vt 0.503477 0.564353
vt 0.503477 0.564353
vt 0.500000 0.564904
vt 0.500000 0.564904
vt 0.496523 0.564353
vt 0.496523 0.564353
vt 0.493386 0.562755
vt 0.493386 0.562755
vt 0.490897 0.560265
vt 0.490897 0.560265
vt 0.489298 0.557128
vt 0.489298 0.557128
vt 0.488748 0.553651
vt 0.488748 0.553651
vt 0.489298 0.550174
vt 0.489298 0.550174
vt 0.490897 0.547037
vt 0.490897 0.547037
vt 0.493386 0.544548
vt 0.493386 0.544548
vt 0.496523 0.542949
vt 0.496523 0.542949
vt 0.500000 0.542399
vt 0.500000 0.542399
vt 0.503477 0.542949
vt 0.503477 0.542949
vt 0.506614 0.544548
vt 0.506614 0.544548
vt 0.509103 0.547037
vt 0.509103 0.547037
vt 0.510702 0.550174
vt 0.510702 0.550174
vt 0.511252 0.553651
vt 0.511252 0.553651
vt 0.508967 0.560058
vt 0.510515 0.556988
vt 0.506532 0.562497
vt 0.503452 0.564063
vt 0.500033 0.564600
vt 0.496612 0.564057
vt 0.493522 0.562491
vt 0.491061 0.560061
vt 0.489452 0.557007
vt 0.488831 0.553621
vt 0.489387 0.550200
vt 0.491015 0.547182
vt 0.493454 0.544768
vt 0.496523 0.543234
vt 0.499916 0.542717
vt 0.503311 0.543254
vt 0.506386 0.544793
vt 0.508843 0.547191
vt 0.510443 0.550221
vt 0.511022 0.553596
vt 0.488341 0.719446
vt 0.489222 0.719446
vt 0.489222 0.722971
vt 0.488341 0.722971
vt 0.490104 0.719446
vt 0.490104 0.722971
vt 0.490985 0.719446
vt 0.490985 0.722971
vt 0.491866 0.719446
vt 0.491866 0.722971
vt 0.492748 0.719446
vt 0.492748 0.722971
vt 0.493629 0.719446
vt 0.493629 0.722971
vt 0.494510 0.719446
vt 0.494510 0.722971
vt 0.495392 0.719446
vt 0.495392 0.722971
vt 0.496273 0.719446
vt 0.496273 0.722971
vt 0.497154 0.719446
vt 0.497154 0.722971
vt 0.498036 0.719446
vt 0.498036 0.722971
vt 0.498917 0.719446
vt 0.498917 0.722971
vt 0.499798 0.719446
vt 0.499798 0.722971
vt 0.500679 0.719446
vt 0.500679 0.722971
vt 0.501561 0.719446
vt 0.501561 0.722971
vt 0.502442 0.719446
vt 0.502442 0.722971
vt 0.503323 0.719446
vt 0.503323 0.722971
vt 0.504205 0.719446
vt 0.504205 0.722971
vt 0.505086 0.719446
vt 0.505086 0.722971
vt 0.505967 0.719446
vt 0.505967 0.722971
vt 0.489222 0.726496
vt 0.488341 0.726496
vt 0.490104 0.726496
vt 0.490985 0.726496
vt 0.491866 0.726496
vt 0.492748 0.726496
vt 0.493629 0.726496
vt 0.494510 0.726496
vt 0.495392 0.726496
vt 0.496273 0.726496
vt 0.497154 0.726496
vt 0.498036 0.726496
vt 0.498917 0.726496
vt 0.499798 0.726496
vt 0.500679 0.726496
vt 0.501561 0.726496
vt 0.502442 0.726496
vt 0.503323 0.726496
vt 0.504205 0.726496
vt 0.505086 0.726496
vt 0.505967 0.726496
vt 0.489222 0.730022
vt 0.488341 0.730022
vt 0.490104 0.730022
vt 0.490985 0.730022
vt 0.491866 0.730022
vt 0.492748 0.730022
vt 0.493629 0.730022
vt 0.494510 0.730022
vt 0.495392 0.730022
vt 0.496273 0.730022
vt 0.497154 0.730022
vt 0.498036 0.730022
vt 0.498917 0.730022
vt 0.499798 0.730022
vt 0.500679 0.730022
vt 0.501561 0.730022
vt 0.502442 0.730022
vt 0.503323 0.730022
vt 0.504205 0.730022
vt 0.505086 0.730022
vt 0.505967 0.730022
vt 0.488782 0.735310
vt 0.489663 0.735310
vt 0.490544 0.735310
vt 0.491426 0.735310
vt 0.492307 0.735310
vt 0.493188 0.735310
vt 0.494070 0.735310
vt 0.494951 0.735310
vt 0.495832 0.735310
vt 0.496714 0.735310
vt 0.497595 0.735310
vt 0.498476 0.735310
vt 0.499358 0.735310
vt 0.500239 0.735310
vt 0.501120 0.735310
vt 0.502001 0.735310
vt 0.502883 0.735310
vt 0.503764 0.735310
vt 0.504645 0.735310
vt 0.505527 0.735310
vt 0.488162 0.717774
vt 0.506146 0.717774
vt 0.515718 0.742115
vt 0.499516 0.742854
vt 0.490518 0.717401
vt 0.506964 0.717401
vt 0.513449 0.740438
vt 0.498421 0.741173
vt 0.490518 0.717401
vt 0.506964 0.717401
vt 0.510500 0.741283
vt 0.495313 0.741992
vt 0.490518 0.717401
vt 0.506964 0.717401
vt 0.507262 0.742105
vt 0.492031 0.742709
vt 0.490518 0.717401
vt 0.506964 0.717401
vt 0.504233 0.742818
vt 0.489092 0.743257
vt 0.490518 0.717401
vt 0.506964 0.717401
vt 0.501902 0.743352
vt 0.486952 0.743587
vt 0.490518 0.717401
vt 0.506964 0.717401
vt 0.500628 0.743661
vt 0.485894 0.743673
vt 0.490518 0.717401
vt 0.506964 0.717401
vt 0.500564 0.743717
vt 0.485974 0.743505
vt 0.490518 0.717401
vt 0.506964 0.717401
vt 0.501617 0.743513
vt 0.487018 0.743101
vt 0.490518 0.717401
vt 0.506964 0.717401
vt 0.503450 0.743103
vt 0.488766 0.742485
vt 0.490518 0.717401
vt 0.506964 0.717401
vt 0.505700 0.742482
vt 0.490837 0.741707
vt 0.490518 0.717401
vt 0.506964 0.717401
vt 0.508037 0.741696
vt 0.492974 0.740868
vt 0.490518 0.717401
vt 0.506964 0.717401
vt 0.510243 0.740855
vt 0.495021 0.740047
vt 0.490518 0.717401
vt 0.506964 0.717401
vt 0.512196 0.740033
vt 0.496925 0.739328
vt 0.490518 0.717401
vt 0.506964 0.717401
vt 0.513885 0.739316
vt 0.498695 0.738780
vt 0.490518 0.717401
vt 0.506964 0.717401
vt 0.515332 0.738775
vt 0.500327 0.738453
vt 0.490518 0.717401
vt 0.506964 0.717401
vt 0.516485 0.738475
vt 0.501721 0.738373
vt 0.490518 0.717401
vt 0.506964 0.717401
vt 0.517282 0.738420
vt 0.502700 0.738545
vt 0.490518 0.717401
vt 0.506964 0.717401
vt 0.517563 0.738607
vt 0.503027 0.738955
vt 0.490518 0.717401
vt 0.506964 0.717401
vt 0.517091 0.739031
vt 0.502465 0.739571
vn -0.000004 0.707656 -0.706557
vn -0.000004 0.707656 -0.706557
vn 0.000000 0.707657 -0.706556
vn -0.000000 0.707657 -0.706556
vn -0.693341 0.138863 -0.707103
vn -0.693341 0.138863 -0.707103
vn -0.693341 0.138863 -0.707103
vn -0.693341 0.138863 -0.707103
vn -0.000000 0.707658 -0.706555
vn -0.000000 0.707658 -0.706555
vn -0.000000 0.707657 -0.706556
vn 0.000000 0.707657 -0.706556
vn 0.000004 0.707656 -0.706557
vn 0.000004 0.707656 -0.706557
vn 0.693341 0.138863 -0.707103
vn 0.693342 0.138863 -0.707103
vn 0.693341 0.138863 -0.707103
vn 0.693341 0.138863 -0.707103
vn -0.486285 -0.513358 -0.707101
vn -0.486285 -0.513358 -0.707101
vn -0.373284 -0.590093 -0.715856
vn -0.373284 -0.590093 -0.715856
vn 0.000000 -0.689684 -0.724111
vn 0.000000 -0.689684 -0.724111
vn 0.373284 -0.590093 -0.715856
vn 0.373284 -0.590093 -0.715856
vn 0.486285 -0.513358 -0.707101
vn 0.486285 -0.513358 -0.707101
vn -0.693340 0.138862 0.707105
vn -0.693340 0.138862 0.707105
vn -0.693340 0.138862 0.707105
vn -0.693340 0.138862 0.707105
vn -0.486283 -0.513356 0.707104
vn -0.486283 -0.513356 0.707104
vn -0.373282 -0.590092 0.715858
vn -0.373282 -0.590091 0.715858
vn -0.000000 -0.689683 0.724112
vn -0.000000 -0.689683 0.724112
vn 0.373283 -0.590091 0.715858
vn 0.373283 -0.590091 0.715858
vn 0.486283 -0.513355 0.707103
vn 0.486283 -0.513355 0.707103
vn 0.693339 0.138862 0.707105
vn 0.693339 0.138862 0.707105
vn 0.693339 0.138862 0.707105
vn 0.693339 0.138862 0.707105
vn -0.000002 0.707655 0.706558
vn -0.000002 0.707655 0.706558
vn -0.000000 0.707656 0.706557
vn 0.000000 0.707656 0.706557
vn -0.000000 0.707657 0.706556
vn -0.000000 0.707657 0.706557
vn 0.000000 0.707656 0.706557
vn -0.000000 0.707656 0.706557
vn 0.000002 0.707655 0.706558
vn 0.000002 0.707655 0.706558
vn -0.000001 0.000000 -1.000000
vn -0.000000 0.000000 -1.000000
vn -0.000000 0.000000 -1.000000
vn -0.000001 0.000000 -1.000000
vn 0.000000 0.000000 -1.000000
vn 0.000000 0.000000 -1.000000
vn 0.000000 0.000000 -1.000000
vn 0.000000 0.000000 -1.000000
vn 0.000000 0.000000 -1.000000
vn 0.000000 0.000000 -1.000000
vn -0.687705 -0.725990 0.000000
vn -0.535221 -0.844712 0.000000
vn -0.535221 -0.844712 0.000000
vn -0.687705 -0.725990 0.000000
vn -0.304743 -0.952435 0.000000
vn -0.304743 -0.952435 0.000000
vn 0.304743 -0.952435 0.000000
vn 0.535221 -0.844712 0.000000
vn 0.535221 -0.844712 0.000000
vn 0.304743 -0.952435 0.000000
vn 0.687705 -0.725990 0.000000
vn 0.687705 -0.725990 0.000000
vn 0.000001 0.000000 1.000000
vn -0.000000 0.000000 1.000000
vn -0.000000 0.000000 1.000000
vn 0.000001 0.000000 1.000000
vn 0.000000 0.000000 1.000000
vn -0.000000 0.000000 1.000000
vn 0.000000 0.000000 1.000000
vn 0.000000 0.000000 1.000000
vn -0.000001 0.000000 1.000000
vn -0.000001 0.000000 1.000000
vn 0.000000 1.000000 0.000000
vn 0.000000 1.000000 0.000000
vn 0.000000 1.000000 0.000000
vn 0.000000 1.000000 0.000000
vn 0.000000 1.000000 0.000000
vn 0.000000 1.000000 0.000000
vn 0.000000 1.000000 0.000000
vn 0.000000 1.000000 0.000000
vn 0.000000 1.000000 0.000000
vn 0.000000 1.000000 0.000000
vn 0.980528 0.196381 0.000000
vn 0.980528 0.196381 0.000000
vn 0.980528 0.196381 0.000000
vn 0.980528 0.196381 0.000000
vn -0.980528 0.196381 0.000000
vn -0.980528 0.196381 0.000000
vn -0.980528 0.196381 0.000000
vn -0.980528 0.196381 0.000000
vn -0.500393 0.500388 -0.706554
vn -0.500393 0.500388 -0.706554
vn -0.500391 0.500390 -0.706554
vn -0.500391 0.500390 -0.706554
vn -0.588458 -0.392076 -0.707103
vn -0.588458 -0.392076 -0.707103
vn -0.588458 -0.392076 -0.707103
vn -0.588457 -0.392076 -0.707103
vn -0.500391 0.500390 -0.706554
vn -0.500391 0.500390 -0.706554
vn -0.500390 0.500390 -0.706555
vn -0.500390 0.500390 -0.706555
vn -0.500387 0.500391 -0.706557
vn -0.500387 0.500391 -0.706557
vn 0.392075 0.588458 -0.707103
vn 0.392075 0.588458 -0.707103
vn 0.392075 0.588458 -0.707103
vn 0.392075 0.588458 -0.707103
vn 0.019144 -0.706853 -0.707102
vn 0.019144 -0.706853 -0.707102
vn 0.153307 -0.681209 -0.715857
vn 0.153308 -0.681209 -0.715857
vn 0.487680 -0.487679 -0.724112
vn 0.487680 -0.487679 -0.724112
vn 0.681210 -0.153307 -0.715856
vn 0.681210 -0.153308 -0.715856
vn 0.706854 -0.019143 -0.707101
vn 0.706854 -0.019143 -0.707101
vn -0.588455 -0.392074 0.707105
vn -0.588455 -0.392074 0.707105
vn -0.588455 -0.392074 0.707105
vn -0.588456 -0.392074 0.707105
vn 0.019143 -0.706851 0.707103
vn 0.019143 -0.706851 0.707103
vn 0.153307 -0.681207 0.715859
vn 0.153307 -0.681207 0.715859
vn 0.487678 -0.487677 0.724114
vn 0.487678 -0.487677 0.724114
vn 0.681208 -0.153307 0.715858
vn 0.681208 -0.153307 0.715858
vn 0.706851 -0.019143 0.707103
vn 0.706851 -0.019143 0.707103
vn 0.392075 0.588455 0.707105
vn 0.392075 0.588455 0.707105
vn 0.392075 0.588455 0.707105
vn 0.392075 0.588455 0.707105
vn -0.500389 0.500390 0.706556
vn -0.500389 0.500390 0.706556
vn -0.500389 0.500390 0.706556
vn -0.500389 0.500390 0.706556
vn -0.500390 0.500389 0.706556
vn -0.500390 0.500389 0.706556
vn -0.500388 0.500390 0.706556
vn -0.500388 0.500390 0.706556
vn -0.500386 0.500391 0.706557
vn -0.500386 0.500391 0.706557
vn 0.000000 0.000000 -1.000000
vn 0.000000 0.000000 -1.000000
vn 0.000000 0.000000 -1.000000
vn 0.000000 0.000000 -1.000000
vn -0.000000 0.000000 -1.000000
vn -0.000000 0.000000 -1.000000
vn -0.000000 0.000000 -1.000000
vn -0.000000 0.000000 -1.000000
vn 0.000000 0.000000 -1.000000
vn 0.000000 0.000000 -1.000000
vn 0.027071 -0.999634 0.000000
vn 0.218843 -0.975760 0.000000
vn 0.218843 -0.975760 0.000000
vn 0.027071 -0.999634 0.000000
vn 0.457987 -0.888959 0.000000
vn 0.457987 -0.888959 0.000000
vn 0.888958 -0.457988 0.000000
vn 0.975760 -0.218843 0.000000
vn 0.975760 -0.218843 0.000000
vn 0.888958 -0.457988 0.000000
vn 0.999634 -0.027071 0.000000
vn 0.999634 -0.027071 0.000000
vn 0.000000 0.000000 1.000000
vn 0.000000 0.000000 1.000000
vn 0.000000 0.000000 1.000000
vn 0.000000 0.000000 1.000000
vn -0.000000 0.000000 1.000000
vn -0.000000 0.000000 1.000000
vn -0.000000 0.000000 1.000000
vn -0.000000 0.000000 1.000000
vn 0.000001 0.000000 1.000000
vn 0.000001 0.000000 1.000000
vn -0.707106 0.707107 0.000000
vn -0.707107 0.707106 0.000000
vn -0.707107 0.707106 0.000000
vn -0.707106 0.707107 0.000000
vn -0.707107 0.707106 0.000000
vn -0.707107 0.707106 0.000000
vn -0.707106 0.707107 0.000000
vn -0.707106 0.707107 0.000000
vn -0.707106 0.707107 0.000000
vn -0.707106 0.707107 0.000000
vn 0.554476 0.832200 0.000000
vn 0.554476 0.832200 0.000000
vn 0.554476 0.832200 0.000000
vn 0.554476 0.832200 0.000000
vn -0.832200 -0.554476 0.000000
vn -0.832200 -0.554476 0.000000
vn -0.832200 -0.554476 0.000000
vn -0.832200 -0.554476 0.000000
vn -0.707657 -0.000003 -0.706556
vn -0.707657 -0.000003 -0.706556
vn -0.707659 0.000000 -0.706555
vn -0.707659 -0.000000 -0.706555
vn -0.138864 -0.693346 -0.707098
vn -0.138864 -0.693346 -0.707098
vn -0.138864 -0.693346 -0.707098
vn -0.138864 -0.693346 -0.707098
vn -0.707659 -0.000000 -0.706554
vn -0.707659 -0.000000 -0.706554
vn -0.707658 -0.000000 -0.706555
vn -0.707658 0.000000 -0.706555
vn -0.707658 0.000003 -0.706556
vn -0.707658 0.000003 -0.706556
vn -0.138864 0.693346 -0.707098
vn -0.138864 0.693346 -0.707098
vn -0.138864 0.693346 -0.707098
vn -0.138864 0.693346 -0.707098
vn 0.513357 -0.486285 -0.707100
vn 0.513357 -0.486285 -0.707101
vn 0.590093 -0.373284 -0.715856
vn 0.590093 -0.373283 -0.715856
vn 0.689682 -0.000000 -0.724113
vn 0.689682 -0.000000 -0.724113
vn 0.590091 0.373283 -0.715858
vn 0.590091 0.373283 -0.715858
vn 0.513356 0.486284 -0.707102
vn 0.513356 0.486284 -0.707102
vn -0.138863 -0.693343 0.707101
vn -0.138863 -0.693343 0.707101
vn -0.138863 -0.693343 0.707101
vn -0.138863 -0.693343 0.707101
vn 0.513355 -0.486283 0.707103
vn 0.513355 -0.486283 0.707103
vn 0.590090 -0.373282 0.715859
vn 0.590090 -0.373282 0.715859
vn 0.689680 0.000000 0.724115
vn 0.689680 0.000000 0.724115
vn 0.590091 0.373282 0.715859
vn 0.590091 0.373282 0.715859
vn 0.513356 0.486283 0.707103
vn 0.513356 0.486283 0.707103
vn -0.138863 0.693343 0.707101
vn -0.138863 0.693343 0.707101
vn -0.138863 0.693343 0.707101
vn -0.138863 0.693343 0.707101
vn -0.707657 -0.000001 0.706556
vn -0.707657 -0.000001 0.706556
vn -0.707657 -0.000000 0.706556
vn -0.707657 0.000000 0.706556
vn -0.707657 -0.000000 0.706556
vn -0.707657 -0.000000 0.706556
vn -0.707657 0.000000 0.706556
vn -0.707657 -0.000000 0.706556
vn -0.707658 0.000001 0.706555
vn -0.707658 0.000001 0.706555
vn 0.000000 0.000000 -1.000000
vn 0.000000 0.000000 -1.000000
vn 0.000000 0.000000 -1.000000
vn 0.000000 0.000000 -1.000000
vn 0.000000 0.000000 -1.000000
vn 0.000000 0.000000 -1.000000
vn -0.000000 0.000000 -1.000000
vn -0.000000 0.000000 -1.000000
vn -0.000000 0.000000 -1.000000
vn -0.000000 0.000000 -1.000000
vn 0.725991 -0.687705 0.000000
vn 0.844712 -0.535221 0.000000
vn 0.844712 -0.535221 0.000000
vn 0.725991 -0.687705 0.000000
vn 0.952435 -0.304743 0.000000
vn 0.952435 -0.304743 0.000000
vn 0.952435 0.304743 0.000000
vn 0.844712 0.535221 0.000000
vn 0.844712 0.535221 0.000000
vn 0.952435 0.304743 0.000000
vn 0.725991 0.687705 0.000000
vn 0.725991 0.687705 0.000000
vn 0.000000 0.000000 1.000000
vn 0.000000 0.000000 1.000000
vn 0.000000 0.000000 1.000000
vn 0.000000 0.000000 1.000000
vn 0.000000 0.000000 1.000000
vn 0.000000 0.000000 1.000000
vn 0.000000 0.000000 1.000000
vn 0.000000 0.000000 1.000000
vn 0.000000 0.000000 1.000000
vn 0.000000 0.000000 1.000000
vn -1.000000 0.000000 0.000000
vn -1.000000 0.000000 0.000000
vn -1.000000 0.000000 0.000000
vn -1.000000 0.000000 0.000000
vn -1.000000 0.000000 0.000000
vn -1.000000 0.000000 0.000000
vn -1.000000 0.000000 0.000000
vn -1.000000 0.000000 0.000000
vn -1.000000 0.000000 0.000000
vn -1.000000 0.000000 0.000000
vn -0.196381 0.980528 0.000000
vn -0.196381 0.980528 0.000000
vn -0.196381 0.980528 0.000000
vn -0.196381 0.980528 0.000000
vn -0.196381 -0.980528 0.000000
vn -0.196381 -0.980528 0.000000
vn -0.196381 -0.980528 0.000000
vn -0.196381 -0.980528 0.000000
vn -0.500385 -0.500390 -0.706558
vn -0.500386 -0.500390 -0.706558
vn -0.500389 -0.500389 -0.706556
vn -0.500389 -0.500389 -0.706556
vn 0.392074 -0.588456 -0.707105
vn 0.392074 -0.588456 -0.707105
vn 0.392074 -0.588456 -0.707105
vn 0.392074 -0.588456 -0.707105
vn -0.500390 -0.500390 -0.706555
vn -0.500390 -0.500390 -0.706555
vn -0.500389 -0.500389 -0.706556
vn -0.500389 -0.500389 -0.706556
vn -0.500390 -0.500385 -0.706559
vn -0.500390 -0.500385 -0.706558
vn -0.588458 0.392076 -0.707103
vn -0.588458 0.392076 -0.707103
vn -0.588458 0.392076 -0.707103
vn -0.588458 0.392076 -0.707103
vn 0.706855 0.019143 -0.707100
vn 0.706855 0.019143 -0.707100
vn 0.681209 0.153307 -0.715857
vn 0.681210 0.153307 -0.715857
vn 0.487678 0.487679 -0.724113
vn 0.487678 0.487679 -0.724113
vn 0.153308 0.681211 -0.715855
vn 0.153308 0.681211 -0.715855
vn 0.019145 0.706856 -0.707099
vn 0.019145 0.706856 -0.707099
vn 0.392074 -0.588454 0.707107
vn 0.392074 -0.588453 0.707107
vn 0.392074 -0.588454 0.707107
vn 0.392074 -0.588453 0.707107
vn 0.706851 0.019143 0.707103
vn 0.706851 0.019143 0.707103
vn 0.681207 0.153306 0.715859
vn 0.681207 0.153307 0.715859
vn 0.487677 0.487677 0.724115
vn 0.487678 0.487677 0.724115
vn 0.153308 0.681208 0.715858
vn 0.153308 0.681208 0.715858
vn 0.019144 0.706852 0.707102
vn 0.019144 0.706852 0.707102
vn -0.588458 0.392075 0.707103
vn -0.588458 0.392075 0.707103
vn -0.588458 0.392075 0.707103
vn -0.588458 0.392075 0.707103
vn -0.500385 -0.500390 0.706559
vn -0.500385 -0.500390 0.706559
vn -0.500387 -0.500389 0.706558
vn -0.500387 -0.500389 0.706558
vn -0.500391 -0.500389 0.706555
vn -0.500391 -0.500389 0.706555
vn -0.500390 -0.500389 0.706555
vn -0.500391 -0.500389 0.706555
vn -0.500388 -0.500387 0.706558
vn -0.500388 -0.500387 0.706558
vn 0.000000 0.000000 -1.000000
vn -0.000000 0.000000 -1.000000
vn -0.000000 0.000000 -1.000000
vn 0.000000 0.000000 -1.000000
vn -0.000000 0.000000 -1.000000
vn -0.000000 0.000000 -1.000000
vn 0.000000 0.000000 -1.000000
vn 0.000000 0.000000 -1.000000
vn 0.000000 0.000000 -1.000000
vn 0.000000 0.000000 -1.000000
vn 0.999634 0.027072 0.000000
vn 0.975760 0.218843 0.000000
vn 0.975760 0.218843 0.000000
vn 0.999634 0.027072 0.000000
vn 0.888959 0.457987 0.000000
vn 0.888959 0.457987 0.000000
vn 0.457987 0.888959 0.000000
vn 0.218844 0.975760 0.000000
vn 0.218844 0.975760 0.000000
vn 0.457987 0.888959 0.000000
vn 0.027073 0.999634 0.000000
vn 0.027073 0.999634 0.000000
vn 0.000000 0.000000 1.000000
vn -0.000000 0.000000 1.000000
vn -0.000000 0.000000 1.000000
vn 0.000000 0.000000 1.000000
vn -0.000000 0.000000 1.000000
vn -0.000000 0.000000 1.000000
vn -0.000000 0.000000 1.000000
vn -0.000000 0.000000 1.000000
vn 0.000000 0.000000 1.000000
vn 0.000000 0.000000 1.000000
vn -0.707106 -0.707107 0.000000
vn -0.707106 -0.707107 0.000000
vn -0.707106 -0.707107 0.000000
vn -0.707106 -0.707107 0.000000
vn -0.707107 -0.707106 0.000000
vn -0.707107 -0.707106 0.000000
vn -0.707107 -0.707106 0.000000
vn -0.707107 -0.707106 0.000000
vn -0.707106 -0.707107 0.000000
vn -0.707106 -0.707107 0.000000
vn -0.832200 0.554476 0.000000
vn -0.832200 0.554476 0.000000
vn -0.832200 0.554476 0.000000
vn -0.832200 0.554476 0.000000
vn 0.554476 -0.832200 0.000000
vn 0.554476 -0.832200 0.000000
vn 0.554476 -0.832200 0.000000
vn 0.554476 -0.832200 0.000000
vn 0.000004 -0.707656 -0.706557
vn 0.000004 -0.707656 -0.706557
vn -0.000000 -0.707657 -0.706556
vn 0.000000 -0.707657 -0.706556
vn 0.693342 -0.138863 -0.707103
vn 0.693342 -0.138863 -0.707103
vn 0.693342 -0.138863 -0.707103
vn 0.693342 -0.138863 -0.707103
vn 0.000000 -0.707658 -0.706555
vn 0.000000 -0.707658 -0.706555
vn 0.000000 -0.707657 -0.706556
vn -0.000000 -0.707657 -0.706556
vn -0.000004 -0.707656 -0.706557
vn -0.000004 -0.707656 -0.706557
vn -0.693342 -0.138863 -0.707103
vn -0.693342 -0.138863 -0.707103
vn -0.693342 -0.138863 -0.707103
vn -0.693342 -0.138863 -0.707103
vn 0.486284 0.513357 -0.707102
vn 0.486284 0.513357 -0.707102
vn 0.373283 0.590093 -0.715856
vn 0.373282 0.590093 -0.715856
vn 0.000000 0.689684 -0.724111
vn 0.000000 0.689684 -0.724111
vn -0.373284 0.590094 -0.715855
vn -0.373283 0.590094 -0.715855
vn -0.486286 0.513359 -0.707099
vn -0.486286 0.513359 -0.707099
vn 0.693340 -0.138862 0.707105
vn 0.693340 -0.138862 0.707105
vn 0.693340 -0.138862 0.707105
vn 0.693340 -0.138862 0.707105
vn 0.486284 0.513357 0.707102
vn 0.486284 0.513357 0.707102
vn 0.373282 0.590092 0.715858
vn 0.373283 0.590091 0.715858
vn 0.000000 0.689681 0.724114
vn 0.000000 0.689681 0.724114
vn -0.373281 0.590090 0.715859
vn -0.373282 0.590090 0.715859
vn -0.486282 0.513354 0.707105
vn -0.486282 0.513354 0.707105
vn -0.693340 -0.138862 0.707105
vn -0.693340 -0.138862 0.707105
vn -0.693340 -0.138862 0.707105
vn -0.693340 -0.138862 0.707105
vn 0.000002 -0.707655 0.706558
vn 0.000002 -0.707655 0.706558
vn 0.000000 -0.707656 0.706557
vn -0.000000 -0.707656 0.706557
vn 0.000000 -0.707657 0.706557
vn 0.000000 -0.707657 0.706557
vn -0.000000 -0.707656 0.706557
vn 0.000000 -0.707656 0.706557
vn -0.000002 -0.707655 0.706558
vn -0.000002 -0.707655 0.706558
vn -0.000001 0.000000 -1.000000
vn 0.000000 0.000000 -1.000000
vn 0.000000 0.000000 -1.000000
vn -0.000001 0.000000 -1.000000
vn -0.000000 0.000000 -1.000000
vn 0.000000 0.000000 -1.000000
vn -0.000000 0.000000 -1.000000
vn -0.000001 0.000000 -1.000000
vn 0.000000 0.000000 -1.000000
vn 0.000000 0.000000 -1.000000
vn 0.687706 0.725989 0.000000
vn 0.535221 0.844712 0.000000
vn 0.535221 0.844712 0.000000
vn 0.687706 0.725989 0.000000
vn 0.304742 0.952435 0.000000
vn 0.304742 0.952435 0.000000
vn -0.304742 0.952435 0.000000
vn -0.535221 0.844712 0.000000
vn -0.535221 0.844712 0.000000
vn -0.304742 0.952435 0.000000
vn -0.687706 0.725989 0.000000
vn -0.687706 0.725989 0.000000
vn -0.000001 0.000000 1.000000
vn 0.000000 0.000000 1.000000
vn 0.000000 0.000000 1.000000
vn -0.000001 0.000000 1.000000
vn 0.000000 0.000000 1.000000
vn -0.000000 0.000000 1.000000
vn -0.000000 0.000000 1.000000
vn -0.000000 0.000000 1.000000
vn 0.000001 0.000000 1.000000
vn 0.000001 0.000000 1.000000
vn 0.000000 -1.000000 0.000000
vn 0.000000 -1.000000 0.000000
vn 0.000000 -1.000000 0.000000
vn 0.000000 -1.000000 0.000000
vn 0.000000 -1.000000 0.000000
vn 0.000000 -1.000000 0.000000
vn 0.000000 -1.000000 0.000000
vn 0.000000 -1.000000 0.000000
vn 0.000000 -1.000000 0.000000
vn 0.000000 -1.000000 0.000000
vn -0.980528 -0.196381 0.000000
vn -0.980528 -0.196381 0.000000
vn -0.980528 -0.196381 0.000000
vn -0.980528 -0.196381 0.000000
vn 0.980528 -0.196381 0.000000
vn 0.980528 -0.196381 0.000000
vn 0.980528 -0.196381 0.000000
vn 0.980528 -0.196381 0.000000
vn 0.500391 -0.500386 -0.706557
vn 0.500391 -0.500386 -0.706557
vn 0.500391 -0.500390 -0.706554
vn 0.500391 -0.500390 -0.706554
vn 0.588458 0.392076 -0.707103
vn 0.588458 0.392076 -0.707103
vn 0.588458 0.392076 -0.707103
vn 0.588458 0.392076 -0.707103
vn 0.500392 -0.500391 -0.706553
vn 0.500392 -0.500391 -0.706553
vn 0.500390 -0.500389 -0.706556
vn 0.500389 -0.500389 -0.706556
vn 0.500387 -0.500391 -0.706557
vn 0.500387 -0.500391 -0.706557
vn -0.392074 -0.588456 -0.707105
vn -0.392074 -0.588456 -0.707105
vn -0.392074 -0.588456 -0.707105
vn -0.392074 -0.588456 -0.707105
vn -0.019145 0.706856 -0.707099
vn -0.019145 0.706856 -0.707099
vn -0.153308 0.681211 -0.715855
vn -0.153308 0.681211 -0.715855
vn -0.487678 0.487679 -0.724113
vn -0.487678 0.487679 -0.724113
vn -0.681209 0.153307 -0.715857
vn -0.681210 0.153307 -0.715857
vn -0.706855 0.019143 -0.707100
vn -0.706855 0.019143 -0.707100
vn 0.588456 0.392074 0.707105
vn 0.588456 0.392074 0.707105
vn 0.588456 0.392074 0.707105
vn 0.588456 0.392074 0.707105
vn -0.019144 0.706852 0.707102
vn -0.019144 0.706852 0.707102
vn -0.153308 0.681208 0.715858
vn -0.153308 0.681208 0.715858
vn -0.487677 0.487677 0.724115
vn -0.487678 0.487677 0.724115
vn -0.681207 0.153306 0.715859
vn -0.681207 0.153307 0.715859
vn -0.706851 0.019143 0.707103
vn -0.706851 0.019143 0.707103
vn -0.392074 -0.588453 0.707107
vn -0.392074 -0.588454 0.707107
vn -0.392074 -0.588453 0.707107
vn -0.392074 -0.588454 0.707107
vn 0.500387 -0.500387 0.706559
vn 0.500387 -0.500387 0.706559
vn 0.500389 -0.500389 0.706557
vn 0.500389 -0.500389 0.706556
vn 0.500390 -0.500389 0.706556
vn 0.500390 -0.500389 0.706556
vn 0.500388 -0.500389 0.706557
vn 0.500388 -0.500389 0.706557
vn 0.500386 -0.500391 0.706557
vn 0.500386 -0.500391 0.706557
vn 0.000000 0.000000 -1.000000
vn -0.000000 0.000000 -1.000000
vn -0.000000 0.000000 -1.000000
vn 0.000000 0.000000 -1.000000
vn -0.000000 0.000000 -1.000000
vn -0.000000 0.000000 -1.000000
vn 0.000000 0.000000 -1.000000
vn 0.000000 0.000000 -1.000000
vn -0.000001 0.000000 -1.000000
vn -0.000001 0.000000 -1.000000
vn -0.027073 0.999634 0.000000
vn -0.218844 0.975760 0.000000
vn -0.218844 0.975760 0.000000
vn -0.027073 0.999634 0.000000
vn -0.457987 0.888959 0.000000
vn -0.457987 0.888959 0.000000
vn -0.888959 0.457987 0.000000
vn -0.975760 0.218843 0.000000
vn -0.975760 0.218843 0.000000
vn -0.888959 0.457987 0.000000
vn -0.999634 0.027072 0.000000
vn -0.999634 0.027072 0.000000
vn 0.000000 0.000000 1.000000
vn 0.000000 0.000000 1.000000
vn 0.000000 0.000000 1.000000
vn 0.000000 0.000000 1.000000
vn 0.000000 0.000000 1.000000
vn 0.000000 0.000000 1.000000
vn 0.000000 0.000000 1.000000
vn 0.000000 0.000000 1.000000
vn -0.000001 0.000000 1.000000
vn -0.000001 0.000000 1.000000
vn 0.707106 -0.707107 0.000000
vn 0.707107 -0.707106 0.000000
vn 0.707107 -0.707106 0.000000
vn 0.707106 -0.707107 0.000000
vn 0.707107 -0.707106 0.000000
vn 0.707107 -0.707106 0.000000
vn 0.707106 -0.707107 0.000000
vn 0.707106 -0.707107 0.000000
vn 0.707106 -0.707107 0.000000
vn 0.707106 -0.707107 0.000000
vn -0.554476 -0.832200 0.000000
vn -0.554476 -0.832200 0.000000
vn -0.554476 -0.832200 0.000000
vn -0.554476 -0.832200 0.000000
vn 0.832200 0.554476 0.000000
vn 0.832200 0.554476 0.000000
vn 0.832200 0.554476 0.000000
vn 0.832200 0.554476 0.000000
vn 0.707658 0.000003 -0.706555
vn 0.707658 0.000003 -0.706555
vn 0.707659 -0.000000 -0.706555
vn 0.707659 0.000000 -0.706555
vn 0.138864 0.693346 -0.707098
vn 0.138864 0.693346 -0.707098
vn 0.138864 0.693346 -0.707098
vn 0.138864 0.693346 -0.707098
vn 0.707659 -0.000000 -0.706554
vn 0.707659 -0.000000 -0.706554
vn 0.707658 0.000000 -0.706555
vn 0.707658 -0.000000 -0.706555
vn 0.707657 -0.000003 -0.706556
vn 0.707657 -0.000003 -0.706556
vn 0.138864 -0.693346 -0.707098
vn 0.138864 -0.693346 -0.707098
vn 0.138864 -0.693346 -0.707098
vn 0.138864 -0.693346 -0.707098
vn -0.513357 0.486285 -0.707100
vn -0.513357 0.486285 -0.707101
vn -0.590093 0.373284 -0.715856
vn -0.590093 0.373283 -0.715856
vn -0.689682 0.000000 -0.724113
vn -0.689682 0.000000 -0.724113
vn -0.590092 -0.373284 -0.715857
vn -0.590092 -0.373283 -0.715857
vn -0.513357 -0.486285 -0.707100
vn -0.513357 -0.486285 -0.707100
vn 0.138863 0.693343 0.707101
vn 0.138863 0.693343 0.707101
vn 0.138863 0.693343 0.707101
vn 0.138863 0.693343 0.707101
vn -0.513355 0.486283 0.707103
vn -0.513355 0.486283 0.707103
vn -0.590090 0.373282 0.715859
vn -0.590090 0.373282 0.715859
vn -0.689680 -0.000000 0.724115
vn -0.689680 -0.000000 0.724115
vn -0.590091 -0.373281 0.715859
vn -0.590091 -0.373282 0.715859
vn -0.513356 -0.486283 0.707103
vn -0.513356 -0.486283 0.707103
vn 0.138863 -0.693343 0.707101
vn 0.138863 -0.693343 0.707101
vn 0.138863 -0.693343 0.707101
vn 0.138863 -0.693343 0.707101
vn 0.707658 0.000001 0.706555
vn 0.707658 0.000001 0.706555
vn 0.707657 0.000000 0.706556
vn 0.707657 -0.000000 0.706556
vn 0.707657 0.000000 0.706556
vn 0.707657 0.000000 0.706556
vn 0.707657 -0.000000 0.706556
vn 0.707657 0.000000 0.706556
vn 0.707657 -0.000001 0.706556
vn 0.707657 -0.000001 0.706556
vn 0.000000 0.000000 -1.000000
vn -0.000000 0.000000 -1.000000
vn -0.000000 0.000000 -1.000000
vn 0.000000 0.000000 -1.000000
vn -0.000000 0.000000 -1.000000
vn -0.000000 0.000000 -1.000000
vn 0.000000 0.000000 -1.000000
vn 0.000000 0.000000 -1.000000
vn 0.000000 0.000000 -1.000000
vn 0.000000 0.000000 -1.000000
vn -0.725991 0.687705 0.000000
vn -0.844712 0.535221 0.000000
vn -0.844712 0.535221 0.000000
vn -0.725991 0.687705 0.000000
vn -0.952435 0.304743 0.000000
vn -0.952435 0.304743 0.000000
vn -0.952435 -0.304743 0.000000
vn -0.844712 -0.535221 0.000000
vn -0.844712 -0.535221 0.000000
vn -0.952435 -0.304743 0.000000
vn -0.725991 -0.687705 0.000000
vn -0.725991 -0.687705 0.000000
vn 0.000000 0.000000 1.000000
vn -0.000000 0.000000 1.000000
vn -0.000000 0.000000 1.000000
vn 0.000000 0.000000 1.000000
vn -0.000000 0.000000 1.000000
vn -0.000000 0.000000 1.000000
vn -0.000000 0.000000 1.000000
vn -0.000000 0.000000 1.000000
vn -0.000000 0.000000 1.000000
vn -0.000000 0.000000 1.000000
vn 1.000000 0.000000 0.000000
vn 1.000000 0.000000 0.000000
vn 1.000000 0.000000 0.000000
vn 1.000000 0.000000 0.000000
vn 1.000000 0.000000 0.000000
vn 1.000000 0.000000 0.000000
vn 1.000000 0.000000 0.000000
vn 1.000000 0.000000 0.000000
vn 1.000000 0.000000 0.000000
vn 1.000000 0.000000 0.000000
vn 0.196381 -0.980528 0.000000
vn 0.196381 -0.980528 0.000000
vn 0.196381 -0.980528 0.000000
vn 0.196381 -0.980528 0.000000
vn 0.196381 0.980528 0.000000
vn 0.196381 0.980528 0.000000
vn 0.196381 0.980528 0.000000
vn 0.196381 0.980528 0.000000
vn 0.500388 0.500392 -0.706555
vn 0.500388 0.500392 -0.706555
vn 0.500390 0.500390 -0.706555
vn 0.500390 0.500390 -0.706555
vn -0.392076 0.588458 -0.707103
vn -0.392076 0.588458 -0.707103
vn -0.392076 0.588458 -0.707103
vn -0.392076 0.588458 -0.707103
vn 0.500390 0.500390 -0.706555
vn 0.500390 0.500390 -0.706555
vn 0.500391 0.500390 -0.706554
vn 0.500391 0.500390 -0.706554
vn 0.500394 0.500389 -0.706553
vn 0.500394 0.500389 -0.706553
vn 0.588458 -0.392076 -0.707102
vn 0.588458 -0.392076 -0.707102
vn 0.588458 -0.392076 -0.707102
vn 0.588458 -0.392076 -0.707102
vn -0.706854 -0.019143 -0.707101
vn -0.706854 -0.019143 -0.707101
vn -0.681210 -0.153307 -0.715856
vn -0.681210 -0.153307 -0.715856
vn -0.487679 -0.487679 -0.724112
vn -0.487679 -0.487679 -0.724112
vn -0.153308 -0.681210 -0.715856
vn -0.153308 -0.681211 -0.715856
vn -0.019144 -0.706856 -0.707099
vn -0.019144 -0.706856 -0.707099
vn -0.392075 0.588455 0.707105
vn -0.392075 0.588455 0.707105
vn -0.392075 0.588455 0.707105
vn -0.392075 0.588455 0.707105
vn -0.706851 -0.019143 0.707103
vn -0.706851 -0.019143 0.707103
vn -0.681207 -0.153307 0.715859
vn -0.681208 -0.153307 0.715859
vn -0.487677 -0.487677 0.724115
vn -0.487678 -0.487677 0.724115
vn -0.153307 -0.681207 0.715859
vn -0.153307 -0.681207 0.715859
vn -0.019143 -0.706851 0.707103
vn -0.019143 -0.706851 0.707103
vn 0.588455 -0.392074 0.707105
vn 0.588455 -0.392074 0.707105
vn 0.588456 -0.392074 0.707105
vn 0.588455 -0.392074 0.707105
vn 0.500385 0.500390 0.706559
vn 0.500385 0.500390 0.706559
vn 0.500388 0.500389 0.706557
vn 0.500388 0.500389 0.706557
vn 0.500390 0.500389 0.706556
vn 0.500390 0.500389 0.706556
vn 0.500390 0.500389 0.706555
vn 0.500390 0.500389 0.706555
vn 0.500391 0.500389 0.706555
vn 0.500391 0.500389 0.706555
vn 0.000000 0.000000 -1.000000
vn 0.000000 0.000000 -1.000000
vn 0.000000 0.000000 -1.000000
vn 0.000000 0.000000 -1.000000
vn -0.000000 0.000000 -1.000000
vn -0.000000 0.000000 -1.000000
vn -0.000000 0.000000 -1.000000
vn -0.000000 0.000000 -1.000000
vn 0.000000 0.000000 -1.000000
vn 0.000000 0.000000 -1.000000
vn -0.999634 -0.027071 0.000000
vn -0.975760 -0.218843 0.000000
vn -0.975760 -0.218843 0.000000
vn -0.999634 -0.027071 0.000000
vn -0.888958 -0.457988 0.000000
vn -0.888958 -0.457988 0.000000
vn -0.457987 -0.888959 0.000000
vn -0.218843 -0.975760 0.000000
vn -0.218843 -0.975760 0.000000
vn -0.457987 -0.888959 0.000000
vn -0.027071 -0.999634 0.000000
vn -0.027071 -0.999634 0.000000
vn 0.000000 0.000000 1.000000
vn 0.000000 0.000000 1.000000
vn 0.000000 0.000000 1.000000
vn 0.000000 0.000000 1.000000
vn 0.000000 0.000000 1.000000
vn 0.000000 0.000000 1.000000
vn 0.000000 0.000000 1.000000
vn 0.000000 0.000000 1.000000
vn 0.000000 0.000000 1.000000
vn 0.000000 0.000000 1.000000
vn 0.707106 0.707107 0.000000
vn 0.707106 0.707107 0.000000
vn 0.707106 0.707107 0.000000
vn 0.707106 0.707107 0.000000
vn 0.707107 0.707106 0.000000
vn 0.707107 0.707106 0.000000
vn 0.707107 0.707106 0.000000
vn 0.707107 0.707106 0.000000
vn 0.707106 0.707107 0.000000
vn 0.707106 0.707107 0.000000
vn 0.832200 -0.554476 0.000000
vn 0.832200 -0.554476 0.000000
vn 0.832200 -0.554476 0.000000
vn 0.832200 -0.554476 0.000000
vn -0.554476 0.832200 0.000000
vn -0.554476 0.832200 0.000000
vn -0.554476 0.832200 0.000000
vn -0.554476 0.832200 0.000000
vn 0.951057 0.000000 -0.309016
vn 0.809017 0.000000 -0.587786
vn 0.803223 0.029759 -0.594935
vn 0.948100 0.018371 -0.317440
vn 0.587785 0.000000 -0.809017
vn 0.580309 0.038795 -0.813472
vn 0.309017 0.000000 -0.951057
vn 0.301738 0.044245 -0.952364
vn -0.000000 0.000000 -1.000000
vn -0.005355 0.045311 -0.998959
vn -0.309017 0.000000 -0.951057
vn -0.311709 0.041753 -0.949260
vn -0.587786 0.000000 -0.809017
vn -0.588297 0.033942 -0.807932
vn -0.809017 0.000000 -0.587785
vn -0.808559 0.022821 -0.587972
vn -0.951057 0.000000 -0.309017
vn -0.950695 0.009803 -0.309974
vn -1.000000 0.000000 0.000000
vn -0.999994 -0.003442 -0.000700
vn -0.951057 0.000000 0.309017
vn -0.950838 -0.015294 0.309312
vn -0.809017 0.000000 0.587785
vn -0.807745 -0.024518 0.589022
vn -0.587785 0.000000 0.809017
vn -0.585003 -0.030481 0.810458
vn -0.309017 0.000000 0.951056
vn -0.304935 -0.033131 0.951797
vn 0.000000 0.000000 1.000000
vn 0.004730 -0.032751 0.999452
vn 0.309017 0.000000 0.951057
vn 0.313735 -0.029656 0.949047
vn 0.587785 0.000000 0.809017
vn 0.592064 -0.024026 0.805533
vn 0.809017 0.000000 0.587785
vn 0.812513 -0.015965 0.582724
vn 0.951057 0.000000 0.309017
vn 0.953203 -0.005722 0.302278
vn 1.000000 0.000000 0.000001
vn 0.999949 0.006081 -0.008104
vn 0.000000 -1.000000 0.000000
vn 0.000000 -1.000000 0.000000
vn 0.000000 -1.000000 -0.000000
vn 0.000000 -1.000000 -0.000000
vn 0.000000 -1.000000 0.000000
vn 0.000000 -1.000000 0.000000
vn 0.000000 -1.000000 0.000000
vn 0.000000 -1.000000 0.000000
vn 0.000000 -1.000000 0.000000
vn 0.000000 -1.000000 0.000000
vn 0.000000 -1.000000 0.000000
vn 0.000000 -1.000000 -0.000000
vn 0.000000 -1.000000 0.000000
vn 0.000000 -1.000000 0.000000
vn 0.000000 -1.000000 -0.000000
vn 0.000000 -1.000000 -0.000000
vn 0.000000 -1.000000 0.000000
vn 0.000000 -1.000000 0.000000
vn 0.000000 -1.000000 0.000000
vn 0.000000 -1.000000 0.000000
vn 0.000000 -1.000000 -0.000000
vn 0.769642 0.395335 -0.501359
vn 0.926481 0.236344 -0.292873
vn 0.549358 0.515134 -0.657908
vn 0.287003 0.589133 -0.755348
vn 0.001801 0.613587 -0.789625
vn -0.287218 0.586061 -0.757654
vn -0.558417 0.505674 -0.657621
vn -0.785896 0.375129 -0.491575
vn -0.941079 0.204011 -0.269720
vn -0.999850 0.011048 -0.013356
vn -0.952232 -0.178711 0.247622
vn -0.806213 -0.342108 0.482684
vn -0.581945 -0.464502 0.667516
vn -0.303512 -0.539542 0.785350
vn 0.004716 -0.564644 0.825321
vn 0.316772 -0.537057 0.781809
vn 0.602666 -0.454272 0.656072
vn 0.829053 -0.318753 0.459421
vn 0.966106 -0.143086 0.214862
vn 0.997660 0.050291 -0.046316
vn 0.743263 0.562604 -0.361991
vn 0.914456 0.341143 -0.217696
vn 0.526196 0.714456 -0.461162
vn 0.287913 0.803890 -0.520449
vn 0.038722 0.837894 -0.544457
vn -0.217136 0.817438 -0.533523
vn -0.473831 0.736361 -0.482966
vn -0.715377 0.583540 -0.384339
vn -0.906610 0.352625 -0.231763
vn -0.997458 0.061768 -0.035523
vn -0.956379 -0.237275 0.170409
vn -0.800385 -0.488801 0.347070
vn -0.574073 -0.667483 0.474244
vn -0.313391 -0.774449 0.549559
vn -0.036200 -0.816614 0.576048
vn 0.249155 -0.794038 0.554460
vn 0.531402 -0.697188 0.481188
vn 0.782665 -0.513699 0.351495
vn 0.953479 -0.248211 0.171083
vn 0.997837 0.057500 -0.031862
vn 0.366073 0.118944 -0.922953
vn 0.311400 0.226245 -0.922953
vn 0.566066 0.411271 -0.714441
vn 0.665451 0.216217 -0.714441
vn 0.226246 0.311401 -0.922953
vn 0.411271 0.566066 -0.714441
vn 0.118945 0.366073 -0.922953
vn 0.216218 0.665451 -0.714440
vn -0.000000 0.384912 -0.922953
vn -0.000000 0.699697 -0.714440
vn -0.118945 0.366073 -0.922953
vn -0.216218 0.665451 -0.714440
vn -0.226246 0.311400 -0.922953
vn -0.411271 0.566066 -0.714440
vn -0.311401 0.226246 -0.922953
vn -0.566066 0.411271 -0.714441
vn -0.366073 0.118944 -0.922953
vn -0.665450 0.216218 -0.714441
vn -0.384912 -0.000000 -0.922953
vn -0.699696 -0.000000 -0.714440
vn -0.366074 -0.118945 -0.922953
vn -0.665451 -0.216218 -0.714440
vn -0.311401 -0.226246 -0.922953
vn -0.566066 -0.411271 -0.714441
vn -0.226245 -0.311401 -0.922953
vn -0.411271 -0.566065 -0.714441
vn -0.118945 -0.366073 -0.922953
vn -0.216219 -0.665450 -0.714441
vn -0.000000 -0.384912 -0.922953
vn -0.000000 -0.699696 -0.714441
vn 0.118945 -0.366073 -0.922953
vn 0.216219 -0.665450 -0.714441
vn 0.226245 -0.311401 -0.922953
vn 0.411271 -0.566066 -0.714441
vn 0.311401 -0.226246 -0.922953
vn 0.566066 -0.411271 -0.714441
vn 0.366073 -0.118944 -0.922953
vn 0.665451 -0.216218 -0.714441
vn 0.384912 -0.000000 -0.922953
vn 0.699697 -0.000001 -0.714440
vn 0.809017 0.587785 -0.000000
vn 0.951057 0.309016 -0.000000
vn 0.587785 0.809017 0.000000
vn 0.309018 0.951056 0.000000
vn -0.000000 1.000000 0.000000
vn -0.309018 0.951056 0.000000
vn -0.587785 0.809017 0.000000
vn -0.809017 0.587785 0.000000
vn -0.951057 0.309017 -0.000000
vn -1.000000 -0.000000 -0.000000
vn -0.951056 -0.309018 0.000000
vn -0.809017 -0.587786 -0.000000
vn -0.587785 -0.809017 -0.000000
vn -0.309018 -0.951056 0.000000
vn 0.000000 -1.000000 -0.000000
vn 0.309018 -0.951056 0.000000
vn 0.587785 -0.809017 0.000000
vn 0.809017 -0.587786 0.000000
vn 0.951056 -0.309017 0.000000
vn 1.000000 -0.000001 -0.000000
vn 0.524837 0.381316 0.761015
vn 0.616983 0.200469 0.761015
vn 0.381316 0.524836 0.761016
vn 0.200470 0.616982 0.761015
vn -0.000000 0.648734 0.761015
vn -0.200471 0.616983 0.761015
vn -0.381316 0.524836 0.761016
vn -0.524837 0.381316 0.761016
vn -0.616982 0.200469 0.761016
vn -0.648733 -0.000000 0.761016
vn -0.616983 -0.200470 0.761015
vn -0.524837 -0.381317 0.761015
vn -0.381316 -0.524836 0.761016
vn -0.200470 -0.616982 0.761016
vn 0.000000 -0.648734 0.761016
vn 0.200471 -0.616982 0.761016
vn 0.381316 -0.524836 0.761016
vn 0.524836 -0.381316 0.761016
vn 0.616982 -0.200470 0.761016
vn 0.648734 -0.000001 0.761015
vn -0.000000 -0.000000 1.000000
vn 0.871855 0.405292 -0.274968
vn 0.871855 0.405292 -0.274968
vn 0.871855 0.405292 -0.274968
vn 0.871855 0.405292 -0.274968
vn 0.697633 0.645186 -0.311517
vn 0.697634 0.645186 -0.311517
vn 0.697634 0.645186 -0.311517
vn 0.697634 0.645186 -0.311517
vn 0.465529 0.823164 -0.325091
vn 0.465529 0.823164 -0.325091
vn 0.465529 0.823164 -0.325091
vn 0.465529 0.823164 -0.325091
vn 0.193019 0.929346 -0.314738
vn 0.193019 0.929346 -0.314738
vn 0.193019 0.929346 -0.314738
vn 0.193019 0.929346 -0.314738
vn -0.102454 0.954080 -0.281487
vn -0.102454 0.954080 -0.281487
vn -0.102454 0.954080 -0.281487
vn -0.102454 0.954080 -0.281487
vn -0.398252 0.888358 -0.228505
vn -0.398252 0.888358 -0.228505
vn -0.398252 0.888358 -0.228505
vn -0.398252 0.888358 -0.228505
vn -0.664606 0.729438 -0.161921
vn -0.664606 0.729438 -0.161921
vn -0.664606 0.729438 -0.161921
vn -0.664606 0.729438 -0.161921
vn -0.868139 0.487930 -0.090878
vn -0.868139 0.487930 -0.090878
vn -0.868139 0.487930 -0.090878
vn -0.868139 0.487930 -0.090878
vn -0.981401 0.190269 -0.025487
vn -0.981401 0.190269 -0.025487
vn -0.981401 0.190269 -0.025487
vn -0.981401 0.190269 -0.025487
vn -0.991505 -0.127369 0.026373
vn -0.991505 -0.127369 0.026373
vn -0.991505 -0.127369 0.026373
vn -0.991505 -0.127369 0.026373
vn -0.901278 -0.428919 0.061051
vn -0.901278 -0.428919 0.061051
vn -0.901278 -0.428919 0.061051
vn -0.901278 -0.428919 0.061051
vn -0.724516 -0.684742 0.078774
vn -0.724516 -0.684742 0.078774
vn -0.724516 -0.684742 0.078774
vn -0.724516 -0.684742 0.078774
vn -0.481000 -0.872884 0.081924
vn -0.481000 -0.872884 0.081924
vn -0.481000 -0.872884 0.081924
vn -0.481000 -0.872884 0.081924
vn -0.193469 -0.978386 0.073014
vn -0.193469 -0.978386 0.073014
vn -0.193469 -0.978386 0.073014
vn -0.193469 -0.978386 0.073014
vn 0.113269 -0.992144 0.053101
vn 0.113269 -0.992144 0.053101
vn 0.113269 -0.992144 0.053101
vn 0.113269 -0.992144 0.053101
vn 0.412187 -0.910852 0.021229
vn 0.412187 -0.910852 0.021229
vn 0.412187 -0.910852 0.021229
vn 0.412187 -0.910852 0.021229
vn 0.673854 -0.738458 -0.024516
vn 0.673854 -0.738457 -0.024516
vn 0.673854 -0.738457 -0.024516
vn 0.673854 -0.738458 -0.024516
vn 0.867881 -0.489630 -0.083939
vn 0.867881 -0.489629 -0.083939
vn 0.867881 -0.489630 -0.083939
vn 0.867881 -0.489629 -0.083939
vn 0.969555 -0.191968 -0.152023
vn 0.969555 -0.191968 -0.152023
vn 0.969555 -0.191968 -0.152023
vn 0.969555 -0.191968 -0.152023
vn 0.968507 0.118034 -0.219233
vn 0.968507 0.118034 -0.219233
vn 0.968507 0.118034 -0.219233
vn 0.968507 0.118034 -0.219233
s 1
g Flower
usemtl lambert3SG
f 1/2/1 2/1/2 4/4/3 3/12/4
s off
f 2/1/5 1/2/6 11/7/7 12/3/8
s 1
f 3/12/4 4/4/3 6/5/9 5/13/10
f 5/13/10 6/5/9 8/6/11 7/15/12
f 7/15/12 8/6/11 10/46/13 9/17/14
s off
f 9/17/15 10/46/16 20/8/17 19/18/18
s 2
f 12/3/19 11/7/20 13/14/21 14/20/22
f 14/20/22 13/14/21 15/16/23 16/22/24
f 16/22/24 15/16/23 17/19/25 18/24/26
f 18/24/26 17/19/25 19/18/27 20/8/28
s off
f 21/21/29 22/28/30 31/11/31 32/9/32
s 3
f 22/28/33 21/21/34 23/23/35 24/29/36
f 24/29/36 23/23/35 25/25/37 26/30/38
f 26/30/38 25/25/37 27/27/39 28/32/40
f 28/32/40 27/27/39 30/10/41 29/34/42
s off
f 29/34/43 30/10/44 40/43/45 39/35/46
s 4
f 32/9/47 31/11/48 33/31/49 34/37/50
f 34/37/50 33/31/49 35/33/51 36/39/52
f 36/39/52 35/33/51 37/36/53 38/41/54
f 38/41/54 37/36/53 39/35/55 40/43/56
s 5
f 1/2/57 3/12/58 13/14/59 11/7/60
f 3/12/58 5/13/61 15/16/62 13/14/59
f 5/13/61 7/15/63 17/19/64 15/16/62
f 7/15/63 9/17/65 19/18/66 17/19/64
s 6
f 12/3/67 14/20/68 23/23/69 21/21/70
f 14/20/68 16/22/71 25/25/72 23/23/69
s 7
f 16/22/73 18/24/74 27/27/75 25/25/76
f 18/24/74 20/26/77 30/10/78 27/27/75
s 8
f 22/28/79 24/29/80 33/31/81 31/11/82
f 24/29/80 26/30/83 35/33/84 33/31/81
f 26/30/83 28/32/85 37/36/86 35/33/84
f 28/32/85 29/34/87 39/35/88 37/36/86
s 9
f 32/9/89 34/37/90 4/40/91 2/38/92
f 34/37/90 36/39/93 6/42/94 4/40/91
f 36/39/93 38/41/95 8/45/96 6/42/94
f 38/41/95 40/43/97 10/44/98 8/45/96
s off
f 10/46/99 40/47/100 30/48/101 20/8/102
f 32/49/103 2/1/104 12/50/105 21/51/106
s 10
f 41/52/107 42/53/108 44/54/109 43/55/110
s off
f 42/53/111 41/52/112 51/56/113 52/57/114
s 10
f 43/55/110 44/54/109 46/58/115 45/59/116
f 45/59/116 46/58/115 48/60/117 47/61/118
f 47/61/118 48/60/117 50/62/119 49/63/120
s off
f 49/63/121 50/62/122 60/64/123 59/65/124
s 11
f 52/57/125 51/56/126 53/66/127 54/67/128
f 54/67/128 53/66/127 55/68/129 56/69/130
f 56/69/130 55/68/129 57/70/131 58/71/132
f 58/71/132 57/70/131 59/65/133 60/64/134
s off
f 61/72/135 62/73/136 71/74/137 72/75/138
s 12
f 62/73/139 61/72/140 63/76/141 64/77/142
f 64/77/142 63/76/141 65/78/143 66/79/144
f 66/79/144 65/78/143 67/80/145 68/81/146
f 68/81/146 67/80/145 70/82/147 69/83/148
s off
f 69/83/149 70/82/150 80/84/151 79/85/152
s 13
f 72/75/153 71/74/154 73/86/155 74/87/156
f 74/87/156 73/86/155 75/88/157 76/89/158
f 76/89/158 75/88/157 77/90/159 78/91/160
f 78/91/160 77/90/159 79/85/161 80/84/162
s 14
f 41/52/163 43/55/164 53/66/165 51/56/166
f 43/55/164 45/59/167 55/68/168 53/66/165
f 45/59/167 47/61/169 57/70/170 55/68/168
f 47/61/169 49/63/171 59/65/172 57/70/170
s 15
f 52/57/173 54/67/174 63/76/175 61/72/176
f 54/67/174 56/69/177 65/78/178 63/76/175
s 16
f 56/69/179 58/71/180 67/80/181 65/78/182
f 58/71/180 60/92/183 70/82/184 67/80/181
s 17
f 62/73/185 64/77/186 73/86/187 71/74/188
f 64/77/186 66/79/189 75/88/190 73/86/187
f 66/79/189 68/81/191 77/90/192 75/88/190
f 68/81/191 69/83/193 79/85/194 77/90/192
s 18
f 72/75/195 74/87/196 44/93/197 42/94/198
f 74/87/196 76/89/199 46/95/200 44/93/197
f 76/89/199 78/91/201 48/96/202 46/95/200
f 78/91/201 80/84/203 50/97/204 48/96/202
s off
f 50/62/205 80/98/206 70/99/207 60/64/208
f 72/100/209 42/53/210 52/101/211 61/102/212
s 19
f 81/103/213 82/104/214 84/105/215 83/106/216
s off
f 82/104/217 81/103/218 91/107/219 92/108/220
s 19
f 83/106/216 84/105/215 86/109/221 85/110/222
f 85/110/222 86/109/221 88/111/223 87/112/224
f 87/112/224 88/111/223 90/113/225 89/114/226
s off
f 89/114/227 90/113/228 100/115/229 99/116/230
s 20
f 92/108/231 91/107/232 93/117/233 94/118/234
f 94/118/234 93/117/233 95/119/235 96/120/236
f 96/120/236 95/119/235 97/121/237 98/122/238
f 98/122/238 97/121/237 99/116/239 100/115/240
s off
f 101/123/241 102/124/242 111/125/243 112/126/244
s 21
f 102/124/245 101/123/246 103/127/247 104/128/248
f 104/128/248 103/127/247 105/129/249 106/130/250
f 106/130/250 105/129/249 107/131/251 108/132/252
f 108/132/252 107/131/251 110/133/253 109/134/254
s off
f 109/134/255 110/133/256 120/135/257 119/136/258
s 22
f 112/126/259 111/125/260 113/137/261 114/138/262
f 114/138/262 113/137/261 115/139/263 116/140/264
f 116/140/264 115/139/263 117/141/265 118/142/266
f 118/142/266 117/141/265 119/136/267 120/135/268
s 23
f 81/103/269 83/106/270 93/117/271 91/107/272
f 83/106/270 85/110/273 95/119/274 93/117/271
f 85/110/273 87/112/275 97/121/276 95/119/274
f 87/112/275 89/114/277 99/116/278 97/121/276
s 24
f 92/108/279 94/118/280 103/127/281 101/123/282
f 94/118/280 96/120/283 105/129/284 103/127/281
s 25
f 96/120/285 98/122/286 107/131/287 105/129/288
f 98/122/286 100/143/289 110/133/290 107/131/287
s 26
f 102/124/291 104/128/292 113/137/293 111/125/294
f 104/128/292 106/130/295 115/139/296 113/137/293
f 106/130/295 108/132/297 117/141/298 115/139/296
f 108/132/297 109/134/299 119/136/300 117/141/298
s 27
f 112/126/301 114/138/302 84/144/303 82/145/304
f 114/138/302 116/140/305 86/146/306 84/144/303
f 116/140/305 118/142/307 88/147/308 86/146/306
f 118/142/307 120/135/309 90/148/310 88/147/308
s off
f 90/113/311 120/149/312 110/150/313 100/115/314
f 112/151/315 82/104/316 92/152/317 101/153/318
s 28
f 121/154/319 122/155/320 124/156/321 123/157/322
s off
f 122/155/323 121/154/324 131/158/325 132/159/326
s 28
f 123/157/322 124/156/321 126/160/327 125/161/328
f 125/161/328 126/160/327 128/162/329 127/163/330
f 127/163/330 128/162/329 130/164/331 129/165/332
s off
f 129/165/333 130/164/334 140/166/335 139/167/336
s 29
f 132/159/337 131/158/338 133/168/339 134/169/340
f 134/169/340 133/168/339 135/170/341 136/171/342
f 136/171/342 135/170/341 137/172/343 138/173/344
f 138/173/344 137/172/343 139/167/345 140/166/346
s off
f 141/174/347 142/175/348 151/176/349 152/177/350
s 30
f 142/175/351 141/174/352 143/178/353 144/179/354
f 144/179/354 143/178/353 145/180/355 146/181/356
f 146/181/356 145/180/355 147/182/357 148/183/358
f 148/183/358 147/182/357 150/184/359 149/185/360
s off
f 149/185/361 150/184/362 160/186/363 159/187/364
s 31
f 152/177/365 151/176/366 153/188/367 154/189/368
f 154/189/368 153/188/367 155/190/369 156/191/370
f 156/191/370 155/190/369 157/192/371 158/193/372
f 158/193/372 157/192/371 159/187/373 160/186/374
s 32
f 121/154/375 123/157/376 133/168/377 131/158/378
f 123/157/376 125/161/379 135/170/380 133/168/377
f 125/161/379 127/163/381 137/172/382 135/170/380
f 127/163/381 129/165/383 139/167/384 137/172/382
s 33
f 132/159/385 134/169/386 143/178/387 141/174/388
f 134/169/386 136/171/389 145/180/390 143/178/387
s 34
f 136/171/391 138/173/392 147/182/393 145/180/394
f 138/173/392 140/194/395 150/184/396 147/182/393
s 35
f 142/175/397 144/179/398 153/188/399 151/176/400
f 144/179/398 146/181/401 155/190/402 153/188/399
f 146/181/401 148/183/403 157/192/404 155/190/402
f 148/183/403 149/185/405 159/187/406 157/192/404
s 36
f 152/177/407 154/189/408 124/195/409 122/196/410
f 154/189/408 156/191/411 126/197/412 124/195/409
f 156/191/411 158/193/413 128/198/414 126/197/412
f 158/193/413 160/186/415 130/199/416 128/198/414
s off
f 130/164/417 160/200/418 150/201/419 140/166/420
f 152/202/421 122/155/422 132/203/423 141/204/424
s 37
f 161/205/425 162/206/426 164/207/427 163/208/428
s off
f 162/206/429 161/205/430 171/209/431 172/210/432
s 37
f 163/208/428 164/207/427 166/211/433 165/212/434
f 165/212/434 166/211/433 168/213/435 167/214/436
f 167/214/436 168/213/435 170/215/437 169/216/438
s off
f 169/216/439 170/215/440 180/217/441 179/218/442
s 38
f 172/210/443 171/209/444 173/219/445 174/220/446
f 174/220/446 173/219/445 175/221/447 176/222/448
f 176/222/448 175/221/447 177/223/449 178/224/450
f 178/224/450 177/223/449 179/218/451 180/217/452
s off
f 181/225/453 182/226/454 191/227/455 192/228/456
s 39
f 182/226/457 181/225/458 183/229/459 184/230/460
f 184/230/460 183/229/459 185/231/461 186/232/462
f 186/232/462 185/231/461 187/233/463 188/234/464
f 188/234/464 187/233/463 190/235/465 189/236/466
s off
f 189/236/467 190/235/468 200/237/469 199/238/470
s 40
f 192/228/471 191/227/472 193/239/473 194/240/474
f 194/240/474 193/239/473 195/241/475 196/242/476
f 196/242/476 195/241/475 197/243/477 198/244/478
f 198/244/478 197/243/477 199/238/479 200/237/480
s 41
f 161/205/481 163/208/482 173/219/483 171/209/484
f 163/208/482 165/212/485 175/221/486 173/219/483
f 165/212/485 167/214/487 177/223/488 175/221/486
f 167/214/487 169/216/489 179/218/490 177/223/488
s 42
f 172/210/491 174/220/492 183/229/493 181/225/494
f 174/220/492 176/222/495 185/231/496 183/229/493
s 43
f 176/222/497 178/224/498 187/233/499 185/231/500
f 178/224/498 180/245/501 190/235/502 187/233/499
s 44
f 182/226/503 184/230/504 193/239/505 191/227/506
f 184/230/504 186/232/507 195/241/508 193/239/505
f 186/232/507 188/234/509 197/243/510 195/241/508
f 188/234/509 189/236/511 199/238/512 197/243/510
s 45
f 192/228/513 194/240/514 164/246/515 162/247/516
f 194/240/514 196/242/517 166/248/518 164/246/515
f 196/242/517 198/244/519 168/249/520 166/248/518
f 198/244/519 200/237/521 170/250/522 168/249/520
s off
f 170/215/523 200/251/524 190/252/525 180/217/526
f 192/253/527 162/206/528 172/254/529 181/255/530
s 46
f 201/256/531 202/257/532 204/258/533 203/259/534
s off
f 202/257/535 201/256/536 211/260/537 212/261/538
s 46
f 203/259/534 204/258/533 206/262/539 205/263/540
f 205/263/540 206/262/539 208/264/541 207/265/542
f 207/265/542 208/264/541 210/266/543 209/267/544
s off
f 209/267/545 210/266/546 220/268/547 219/269/548
s 47
f 212/261/549 211/260/550 213/270/551 214/271/552
f 214/271/552 213/270/551 215/272/553 216/273/554
f 216/273/554 215/272/553 217/274/555 218/275/556
f 218/275/556 217/274/555 219/269/557 220/268/558
s off
f 221/276/559 222/277/560 231/278/561 232/279/562
s 48
f 222/277/563 221/276/564 223/280/565 224/281/566
f 224/281/566 223/280/565 225/282/567 226/283/568
f 226/283/568 225/282/567 227/284/569 228/285/570
f 228/285/570 227/284/569 230/286/571 229/287/572
s off
f 229/287/573 230/286/574 240/288/575 239/289/576
s 49
f 232/279/577 231/278/578 233/290/579 234/291/580
f 234/291/580 233/290/579 235/292/581 236/293/582
f 236/293/582 235/292/581 237/294/583 238/295/584
f 238/295/584 237/294/583 239/289/585 240/288/586
s 50
f 201/256/587 203/259/588 213/270/589 211/260/590
f 203/259/588 205/263/591 215/272/592 213/270/589
f 205/263/591 207/265/593 217/274/594 215/272/592
f 207/265/593 209/267/595 219/269/596 217/274/594
s 51
f 212/261/597 214/271/598 223/280/599 221/276/600
f 214/271/598 216/273/601 225/282/602 223/280/599
s 52
f 216/273/603 218/275/604 227/284/605 225/282/606
f 218/275/604 220/296/607 230/286/608 227/284/605
s 53
f 222/277/609 224/281/610 233/290/611 231/278/612
f 224/281/610 226/283/613 235/292/614 233/290/611
f 226/283/613 228/285/615 237/294/616 235/292/614
f 228/285/615 229/287/617 239/289/618 237/294/616
s 54
f 232/279/619 234/291/620 204/297/621 202/298/622
f 234/291/620 236/293/623 206/299/624 204/297/621
f 236/293/623 238/295/625 208/300/626 206/299/624
f 238/295/625 240/288/627 210/301/628 208/300/626
s off
f 210/266/629 240/302/630 230/303/631 220/268/632
f 232/304/633 202/257/634 212/305/635 221/306/636
s 55
f 241/307/637 242/308/638 244/309/639 243/310/640
s off
f 242/308/641 241/307/642 251/311/643 252/312/644
s 55
f 243/310/640 244/309/639 246/313/645 245/314/646
f 245/314/646 246/313/645 248/315/647 247/316/648
f 247/316/648 248/315/647 250/317/649 249/318/650
s off
f 249/318/651 250/317/652 260/319/653 259/320/654
s 56
f 252/312/655 251/311/656 253/321/657 254/322/658
f 254/322/658 253/321/657 255/323/659 256/324/660
f 256/324/660 255/323/659 257/325/661 258/326/662
f 258/326/662 257/325/661 259/320/663 260/319/664
s off
f 261/327/665 262/328/666 271/329/667 272/330/668
s 57
f 262/328/669 261/327/670 263/331/671 264/332/672
f 264/332/672 263/331/671 265/333/673 266/334/674
f 266/334/674 265/333/673 267/335/675 268/336/676
f 268/336/676 267/335/675 270/337/677 269/338/678
s off
f 269/338/679 270/337/680 280/339/681 279/340/682
s 58
f 272/330/683 271/329/684 273/341/685 274/342/686
f 274/342/686 273/341/685 275/343/687 276/344/688
f 276/344/688 275/343/687 277/345/689 278/346/690
f 278/346/690 277/345/689 279/340/691 280/339/692
s 59
f 241/307/693 243/310/694 253/321/695 251/311/696
f 243/310/694 245/314/697 255/323/698 253/321/695
f 245/314/697 247/316/699 257/325/700 255/323/698
f 247/316/699 249/318/701 259/320/702 257/325/700
s 60
f 252/312/703 254/322/704 263/331/705 261/327/706
f 254/322/704 256/324/707 265/333/708 263/331/705
s 61
f 256/324/709 258/326/710 267/335/711 265/333/712
f 258/326/710 260/347/713 270/337/714 267/335/711
s 62
f 262/328/715 264/332/716 273/341/717 271/329/718
f 264/332/716 266/334/719 275/343/720 273/341/717
f 266/334/719 268/336/721 277/345/722 275/343/720
f 268/336/721 269/338/723 279/340/724 277/345/722
s 63
f 272/330/725 274/342/726 244/348/727 242/349/728
f 274/342/726 276/344/729 246/350/730 244/348/727
f 276/344/729 278/346/731 248/351/732 246/350/730
f 278/346/731 280/339/733 250/352/734 248/351/732
s off
f 250/317/735 280/353/736 270/354/737 260/319/738
f 272/355/739 242/308/740 252/356/741 261/357/742
s 64
f 281/358/743 282/359/744 284/360/745 283/361/746
s off
f 282/359/747 281/358/748 291/362/749 292/363/750
s 64
f 283/361/746 284/360/745 286/364/751 285/365/752
f 285/365/752 286/364/751 288/366/753 287/367/754
f 287/367/754 288/366/753 290/368/755 289/369/756
s off
f 289/369/757 290/368/758 300/370/759 299/371/760
s 65
f 292/363/761 291/362/762 293/372/763 294/373/764
f 294/373/764 293/372/763 295/374/765 296/375/766
f 296/375/766 295/374/765 297/376/767 298/377/768
f 298/377/768 297/376/767 299/371/769 300/370/770
s off
f 301/378/771 302/379/772 311/380/773 312/381/774
s 66
f 302/379/775 301/378/776 303/382/777 304/383/778
f 304/383/778 303/382/777 305/384/779 306/385/780
f 306/385/780 305/384/779 307/386/781 308/387/782
f 308/387/782 307/386/781 310/388/783 309/389/784
s off
f 309/389/785 310/388/786 320/390/787 319/391/788
s 67
f 312/381/789 311/380/790 313/392/791 314/393/792
f 314/393/792 313/392/791 315/394/793 316/395/794
f 316/395/794 315/394/793 317/396/795 318/397/796
f 318/397/796 317/396/795 319/391/797 320/390/798
s 68
f 281/358/799 283/361/800 293/372/801 291/362/802
f 283/361/800 285/365/803 295/374/804 293/372/801
f 285/365/803 287/367/805 297/376/806 295/374/804
f 287/367/805 289/369/807 299/371/808 297/376/806
s 69
f 292/363/809 294/373/810 303/382/811 301/378/812
f 294/373/810 296/375/813 305/384/814 303/382/811
s 70
f 296/375/815 298/377/816 307/386/817 305/384/818
f 298/377/816 300/398/819 310/388/820 307/386/817
s 71
f 302/379/821 304/383/822 313/392/823 311/380/824
f 304/383/822 306/385/825 315/394/826 313/392/823
f 306/385/825 308/387/827 317/396/828 315/394/826
f 308/387/827 309/389/829 319/391/830 317/396/828
s 72
f 312/381/831 314/393/832 284/399/833 282/400/834
f 314/393/832 316/395/835 286/401/836 284/399/833
f 316/395/835 318/397/837 288/402/838 286/401/836
f 318/397/837 320/390/839 290/403/840 288/402/838
s off
f 290/368/841 320/404/842 310/405/843 300/370/844
f 312/406/845 282/359/846 292/407/847 301/408/848
s 73
f 321/409/849 322/410/850 342/411/851 341/412/852
f 322/410/850 323/413/853 343/414/854 342/411/851
f 323/413/853 324/415/855 344/416/856 343/414/854
f 324/415/855 325/417/857 345/418/858 344/416/856
f 325/417/857 326/419/859 346/420/860 345/418/858
f 326/419/859 327/421/861 347/422/862 346/420/860
f 327/421/861 328/423/863 348/424/864 347/422/862
f 328/423/863 329/425/865 349/426/866 348/424/864
f 329/425/865 330/427/867 350/428/868 349/426/866
f 330/427/867 331/429/869 351/430/870 350/428/868
f 331/429/869 332/431/871 352/432/872 351/430/870
f 332/431/871 333/433/873 353/434/874 352/432/872
f 333/433/873 334/435/875 354/436/876 353/434/874
f 334/435/875 335/437/877 355/438/878 354/436/876
f 335/437/877 336/439/879 356/440/880 355/438/878
f 336/439/879 337/441/881 357/442/882 356/440/880
f 337/441/881 338/443/883 358/444/884 357/442/882
f 338/443/883 339/445/885 359/446/886 358/444/884
f 339/445/885 340/447/887 360/448/888 359/446/886
f 340/447/887 321/449/849 341/450/852 360/448/888
s 74
f 322/451/889 321/452/890 361/453/891
f 323/454/892 322/451/889 361/453/891
f 324/455/893 323/454/892 361/453/891
f 325/456/894 324/455/893 361/453/891
f 326/457/895 325/456/894 361/453/891
f 327/458/896 326/457/895 361/453/891
f 328/459/897 327/458/896 361/453/891
f 329/460/898 328/459/897 361/453/891
f 330/461/899 329/460/898 361/453/891
f 331/462/900 330/461/899 361/453/891
f 332/463/901 331/462/900 361/453/891
f 333/464/902 332/463/901 361/453/891
f 334/465/903 333/464/902 361/453/891
f 335/466/904 334/465/903 361/453/891
f 336/467/905 335/466/904 361/453/891
f 337/468/906 336/467/905 361/453/891
f 338/469/907 337/468/906 361/453/891
f 339/470/908 338/469/907 361/453/891
f 340/471/909 339/470/908 361/453/891
f 321/452/890 340/471/909 361/453/891
s 73
f 341/472/852 342/473/851 363/474/910 362/475/911
f 342/473/851 343/476/854 364/477/912 363/474/910
f 343/476/854 344/478/856 365/479/913 364/477/912
f 344/478/856 345/480/858 366/481/914 365/479/913
f 345/480/858 346/482/860 367/483/915 366/481/914
f 346/482/860 347/484/862 368/485/916 367/483/915
f 347/484/862 348/486/864 369/487/917 368/485/916
f 348/486/864 349/488/866 370/489/918 369/487/917
f 349/488/866 350/490/868 371/491/919 370/489/918
f 350/490/868 351/492/870 372/493/920 371/491/919
f 351/492/870 352/494/872 373/495/921 372/493/920
f 352/494/872 353/496/874 374/497/922 373/495/921
f 353/496/874 354/498/876 375/499/923 374/497/922
f 354/498/876 355/500/878 376/501/924 375/499/923
f 355/500/878 356/502/880 377/503/925 376/501/924
f 356/502/880 357/504/882 378/505/926 377/503/925
f 357/504/882 358/506/884 379/507/927 378/505/926
f 358/506/884 359/508/886 380/509/928 379/507/927
f 359/508/886 360/510/888 381/511/929 380/509/928
f 360/510/888 341/472/852 362/475/911 381/511/929
f 362/475/911 363/474/910 383/512/930 382/513/931
f 363/474/910 364/477/912 384/514/932 383/512/930
f 364/477/912 365/479/913 385/515/933 384/514/932
f 365/479/913 366/481/914 386/516/934 385/515/933
f 366/481/914 367/483/915 387/517/935 386/516/934
f 367/483/915 368/485/916 388/518/936 387/517/935
f 368/485/916 369/487/917 389/519/937 388/518/936
f 369/487/917 370/489/918 390/520/938 389/519/937
f 370/489/918 371/491/919 391/521/939 390/520/938
f 371/491/919 372/493/920 392/522/940 391/521/939
f 372/493/920 373/495/921 393/523/941 392/522/940
f 373/495/921 374/497/922 394/524/942 393/523/941
f 374/497/922 375/499/923 395/525/943 394/524/942
f 375/499/923 376/501/924 396/526/944 395/525/943
f 376/501/924 377/503/925 397/527/945 396/526/944
f 377/503/925 378/505/926 398/528/946 397/527/945
f 378/505/926 379/507/927 399/529/947 398/528/946
f 379/507/927 380/509/928 400/530/948 399/529/947
f 380/509/928 381/511/929 401/531/949 400/530/948
f 381/511/929 362/475/911 382/513/931 401/531/949
s 75
f 402/532/950 403/533/951 423/534/952 422/535/953
f 403/533/951 404/536/954 424/537/955 423/534/952
f 404/536/954 405/538/956 425/539/957 424/537/955
f 405/538/956 406/540/958 426/541/959 425/539/957
f 406/540/958 407/542/960 427/543/961 426/541/959
f 407/542/960 408/544/962 428/545/963 427/543/961
f 408/544/962 409/546/964 429/547/965 428/545/963
f 409/546/964 410/548/966 430/549/967 429/547/965
f 410/548/966 411/550/968 431/551/969 430/549/967
f 411/550/968 412/552/970 432/553/971 431/551/969
f 412/552/970 413/554/972 433/555/973 432/553/971
f 413/554/972 414/556/974 434/557/975 433/555/973
f 414/556/974 415/558/976 435/559/977 434/557/975
f 415/558/976 416/560/978 436/561/979 435/559/977
f 416/560/978 417/562/980 437/563/981 436/561/979
f 417/562/980 418/564/982 438/565/983 437/563/981
f 418/564/982 419/566/984 439/567/985 438/565/983
f 419/566/984 420/568/986 440/569/987 439/567/985
f 420/568/986 421/570/988 441/571/989 440/569/987
f 421/570/988 402/572/950 422/573/953 441/571/989
f 422/535/953 423/534/952 443/574/990 442/575/991
f 423/534/952 424/537/955 444/576/992 443/574/990
f 424/537/955 425/539/957 445/577/993 444/576/992
f 425/539/957 426/541/959 446/578/994 445/577/993
f 426/541/959 427/543/961 447/579/995 446/578/994
f 427/543/961 428/545/963 448/580/996 447/579/995
f 428/545/963 429/547/965 449/581/997 448/580/996
f 429/547/965 430/549/967 450/582/998 449/581/997
f 430/549/967 431/551/969 451/583/999 450/582/998
f 431/551/969 432/553/971 452/584/1000 451/583/999
f 432/553/971 433/555/973 453/585/1001 452/584/1000
f 433/555/973 434/557/975 454/586/1002 453/585/1001
f 434/557/975 435/559/977 455/587/1003 454/586/1002
f 435/559/977 436/561/979 456/588/1004 455/587/1003
f 436/561/979 437/563/981 457/589/1005 456/588/1004
f 437/563/981 438/565/983 458/590/1006 457/589/1005
f 438/565/983 439/567/985 459/591/1007 458/590/1006
f 439/567/985 440/569/987 460/592/1008 459/591/1007
f 440/569/987 441/571/989 461/593/1009 460/592/1008
f 441/571/989 422/573/953 442/594/991 461/593/1009
f 442/575/991 443/574/990 463/595/1010 462/596/1011
f 443/574/990 444/576/992 464/597/1012 463/595/1010
f 444/576/992 445/577/993 465/598/1013 464/597/1012
f 445/577/993 446/578/994 466/599/1014 465/598/1013
f 446/578/994 447/579/995 467/600/1015 466/599/1014
f 447/579/995 448/580/996 468/601/1016 467/600/1015
f 448/580/996 449/581/997 469/602/1017 468/601/1016
f 449/581/997 450/582/998 470/603/1018 469/602/1017
f 450/582/998 451/583/999 471/604/1019 470/603/1018
f 451/583/999 452/584/1000 472/605/1020 471/604/1019
f 452/584/1000 453/585/1001 473/606/1021 472/605/1020
f 453/585/1001 454/586/1002 474/607/1022 473/606/1021
f 454/586/1002 455/587/1003 475/608/1023 474/607/1022
f 455/587/1003 456/588/1004 476/609/1024 475/608/1023
f 456/588/1004 457/589/1005 477/610/1025 476/609/1024
f 457/589/1005 458/590/1006 478/611/1026 477/610/1025
f 458/590/1006 459/591/1007 479/612/1027 478/611/1026
f 459/591/1007 460/592/1008 480/613/1028 479/612/1027
f 460/592/1008 461/593/1009 481/614/1029 480/613/1028
f 461/593/1009 442/594/991 462/615/1011 481/614/1029
f 462/596/1011 463/595/1010 482/616/1030
f 463/595/1010 464/597/1012 482/617/1030
f 464/597/1012 465/598/1013 482/618/1030
f 465/598/1013 466/599/1014 482/619/1030
f 466/599/1014 467/600/1015 482/620/1030
f 467/600/1015 468/601/1016 482/621/1030
f 468/601/1016 469/602/1017 482/622/1030
f 469/602/1017 470/603/1018 482/623/1030
f 470/603/1018 471/604/1019 482/624/1030
f 471/604/1019 472/605/1020 482/625/1030
f 472/605/1020 473/606/1021 482/626/1030
f 473/606/1021 474/607/1022 482/627/1030
f 474/607/1022 475/608/1023 482/628/1030
f 475/608/1023 476/609/1024 482/629/1030
f 476/609/1024 477/610/1025 482/630/1030
f 477/610/1025 478/611/1026 482/631/1030
f 478/611/1026 479/612/1027 482/632/1030
f 479/612/1027 480/613/1028 482/633/1030
f 480/613/1028 481/614/1029 482/634/1030
f 481/614/1029 462/615/1011 482/635/1030
s off
f 403/636/1031 402/637/1032 382/638/1033 383/639/1034
f 404/640/1035 403/641/1036 383/642/1037 384/643/1038
f 405/644/1039 404/645/1040 384/646/1041 385/647/1042
f 406/648/1043 405/649/1044 385/650/1045 386/651/1046
f 407/652/1047 406/653/1048 386/654/1049 387/655/1050
f 408/656/1051 407/657/1052 387/658/1053 388/659/1054
f 409/660/1055 408/661/1056 388/662/1057 389/663/1058
f 410/664/1059 409/665/1060 389/666/1061 390/667/1062
f 411/668/1063 410/669/1064 390/670/1065 391/671/1066
f 412/672/1067 411/673/1068 391/674/1069 392/675/1070
f 413/676/1071 412/677/1072 392/678/1073 393/679/1074
f 414/680/1075 413/681/1076 393/682/1077 394/683/1078
f 415/684/1079 414/685/1080 394/686/1081 395/687/1082
f 416/688/1083 415/689/1084 395/690/1085 396/691/1086
f 417/692/1087 416/693/1088 396/694/1089 397/695/1090
f 418/696/1091 417/697/1092 397/698/1093 398/699/1094
f 419/700/1095 418/701/1096 398/702/1097 399/703/1098
f 420/704/1099 419/705/1100 399/706/1101 400/707/1102
f 421/708/1103 420/709/1104 400/710/1105 401/711/1106
f 402/712/1107 421/713/1108 401/714/1109 382/715/1110
