# Blender 4.5.0
# www.blender.org
mtllib tripo_convert_d619c03c-6094-4f9f-b1e8-8287c3d0682d.mtl
o tripo_node_d619c03c-6094-4f9f-b1e8-8287c3d0682d
v -0.004975 0.127570 -0.468617
v -0.014802 0.141603 -0.494398
v -0.015157 0.131947 -0.496678
v 0.067928 0.043488 -0.044519
v 0.071786 0.042976 -0.053910
v -0.045032 0.064538 -0.025209
v 0.160634 0.057219 0.000754
v 0.146430 0.057479 -0.004600
v -0.044220 0.065504 0.022992
v 0.147939 0.047790 0.000814
v 0.056877 0.062025 0.125012
v 0.014273 0.139735 0.463635
v 0.019120 0.138161 0.467618
v -0.014925 0.142520 0.498708
v -0.006089 0.139306 0.465310
v -0.014557 0.131973 0.496671
v -0.004614 0.127607 0.468447
v -0.070889 0.022872 0.036752
v -0.147774 0.029274 0.006396
v -0.158378 0.031217 0.002241
v -0.156773 0.029028 -0.004257
v -0.153206 0.032092 -0.005117
v -0.157563 0.029680 -0.002983
v -0.159417 0.030862 -0.001568
v -0.052347 0.030328 -0.045830
v -0.056610 0.055197 -0.044737
v -0.051646 0.055690 -0.040899
v -0.009735 0.127483 -0.473952
v -0.006677 0.129601 -0.482483
v -0.000741 0.129930 -0.474160
v 0.004027 0.127154 -0.452399
v -0.004486 0.124888 -0.452078
v -0.011727 0.123747 -0.453521
v -0.005972 0.136409 -0.442122
v 0.001586 0.138298 -0.450468
v -0.006167 0.139870 -0.469904
v -0.012380 0.136787 -0.451717
v -0.009982 0.141519 -0.492317
v -0.007878 0.137076 -0.495700
v -0.014938 0.136651 -0.496944
v -0.018471 0.134232 -0.489610
v -0.018601 0.139295 -0.488529
v -0.013957 0.140944 -0.485851
v -0.009169 0.131919 -0.493164
v -0.012109 0.129156 -0.486895
v -0.016872 0.128913 -0.489961
v 0.075289 0.034583 -0.036006
v 0.058947 0.032780 -0.034098
v 0.059708 0.037004 -0.051805
v 0.066921 0.039197 -0.058686
v 0.038792 0.048298 -0.046707
v 0.038820 0.049816 -0.033689
v 0.071096 0.048330 -0.026331
v -0.032705 0.056176 -0.039142
v -0.065075 0.056128 -0.035959
v 0.000375 0.059391 -0.018408
v -0.000281 0.053565 -0.036018
v -0.046925 0.069122 -0.002156
v 0.001855 0.064611 0.001691
v 0.156836 0.059306 -0.004239
v 0.155935 0.060764 0.001600
v 0.150391 0.058694 0.003192
v 0.152050 0.057278 0.006676
v 0.134616 0.052706 -0.010796
v 0.131761 0.055860 -0.003233
v 0.149262 0.060294 0.000404
v 0.154936 0.060759 -0.001996
v 0.151072 0.057144 -0.006710
v -0.027713 0.055160 0.040939
v 0.003890 0.052024 0.040338
v 0.002587 0.056413 0.025538
v -0.069128 0.058951 0.028673
v -0.043415 0.056026 0.041107
v 0.151797 0.050304 -0.004230
v 0.152772 0.051225 0.004049
v 0.137255 0.042184 0.011976
v 0.133723 0.039175 0.003575
v 0.134282 0.039519 -0.005636
v 0.013493 0.138544 0.457595
v 0.008099 0.139323 0.454584
v 0.006612 0.141299 0.470387
v 0.012905 0.137329 0.476246
v 0.015874 0.132238 0.457803
v -0.017920 0.140499 0.486950
v -0.018669 0.135017 0.488915
v -0.014870 0.136919 0.497275
v -0.007237 0.137537 0.495125
v -0.008962 0.141962 0.491273
v -0.007040 0.137618 0.452712
v -0.014198 0.136795 0.453896
v -0.010740 0.139396 0.470400
v -0.000844 0.140395 0.469353
v 0.000727 0.138533 0.453063
v -0.006964 0.140864 0.478601
v -0.012825 0.140836 0.483811
v -0.016983 0.129029 0.489526
v -0.011784 0.129112 0.486299
v -0.008400 0.132067 0.492701
v -0.009298 0.127493 0.473524
v -0.012013 0.124078 0.455877
v -0.004954 0.125230 0.454716
v 0.002955 0.127337 0.455174
v 0.000244 0.129901 0.472350
v -0.005783 0.129645 0.481498
v -0.079008 0.042735 0.038655
v -0.105930 0.039563 0.024837
v -0.104469 0.026099 0.023559
v -0.100507 0.018316 0.013613
v -0.062338 0.010123 0.020846
v -0.129745 0.028460 0.013207
v -0.131009 0.035006 0.014380
v -0.153089 0.031217 0.005045
v -0.157111 0.029558 0.002271
v -0.152199 0.028414 0.002667
v -0.153124 0.032807 0.003685
v -0.153268 0.033261 0.001207
v -0.159343 0.031272 0.000252
v -0.157634 0.029384 -0.000017
v -0.156338 0.030910 -0.004618
v -0.153023 0.028359 -0.002899
v -0.153861 0.032848 -0.002986
v -0.152618 0.028269 -0.000041
v -0.153229 0.033299 -0.001104
v -0.047949 0.034190 -0.053361
v -0.032627 0.029569 -0.050275
v -0.037291 0.019233 -0.040245
v -0.066208 0.024461 -0.037575
v -0.070162 0.042101 -0.044816
v -0.054766 0.044928 -0.055400
v -0.050141 0.055750 -0.052751
v -0.043218 0.055850 -0.051174
v 0.040927 0.062208 0.146858
v 0.030050 0.060140 0.143677
v 0.043755 0.054343 0.112976
v 0.052997 0.041586 0.070069
v 0.074485 0.043783 0.070898
v 0.016074 0.057610 0.140742
v 0.026710 0.050143 0.106855
v 0.030770 0.039310 0.069059
v 0.023760 0.028528 0.042446
v 0.047443 0.032873 0.044054
v -0.004551 0.045076 0.102502
v -0.002370 0.037714 0.069233
v -0.004651 0.024863 0.045570
v -0.004985 0.010559 0.038101
v 0.020489 0.017658 0.031395
v -0.025834 0.039053 0.068542
v -0.028377 0.026857 0.047168
v -0.031762 0.011701 0.038711
v -0.029920 0.002259 0.022782
v -0.005477 0.001337 0.022705
v -0.050358 0.032148 0.049346
v -0.006865 0.000000 -0.004643
v 0.015627 0.004840 -0.003920
v 0.018568 0.006185 0.019136
v -0.030275 0.001114 -0.004747
v -0.033219 0.003689 -0.029082
v -0.007209 0.001452 -0.028810
v -0.060772 0.008162 -0.003832
v -0.063223 0.011522 -0.026484
v -0.097923 0.015518 -0.001013
v -0.099286 0.018274 -0.014716
v -0.101106 0.025113 -0.024521
v -0.102395 0.038116 -0.026297
v -0.129038 0.025851 -0.006086
v -0.129600 0.027676 -0.012758
v -0.129939 0.033589 -0.014925
v -0.129739 0.038979 -0.012534
v -0.103001 0.051760 -0.023357
v -0.096715 0.057243 -0.014420
v -0.128972 0.040589 -0.006350
v -0.129109 0.041042 -0.001085
v -0.099600 0.059817 -0.001864
v -0.098980 0.057543 0.010841
v -0.129338 0.040449 0.004282
v -0.130030 0.039070 0.010064
v -0.105608 0.052781 0.018549
v -0.128830 0.025890 0.000320
v -0.129236 0.025864 0.006693
v -0.007607 0.013376 -0.039497
v 0.016608 0.018434 -0.032778
v 0.017664 0.006154 -0.024639
v 0.040337 0.029161 -0.030850
v 0.041629 0.019270 -0.022208
v 0.039771 0.016996 -0.003489
v 0.058716 0.029986 -0.020257
v 0.059003 0.028186 -0.004023
v 0.058745 0.028160 0.015469
v 0.041056 0.018320 0.016298
v 0.059719 0.032051 0.029215
v 0.041220 0.028678 0.027492
v 0.068065 0.036611 0.047482
v 0.077016 0.030992 -0.004407
v 0.077179 0.031048 0.014682
v 0.079066 0.033593 0.030115
v 0.108233 0.032069 -0.005739
v 0.110640 0.032153 0.008343
v 0.113434 0.033805 0.022670
v 0.139608 0.048056 0.017387
v 0.112511 0.044391 0.026361
v 0.075441 0.046462 0.031362
v 0.136109 0.052197 0.012054
v 0.108571 0.048424 0.014562
v 0.072554 0.051849 0.012450
v 0.105349 0.053620 0.001489
v 0.071083 0.053484 -0.007775
v 0.038515 0.055632 -0.013068
v 0.038953 0.057091 0.007614
v 0.042992 0.049957 0.031204
v 0.105631 0.049603 -0.012194
v 0.132377 0.055222 0.004085
v 0.108420 0.045310 -0.024670
v 0.138167 0.050423 -0.016861
v 0.111113 0.038945 -0.031724
v 0.138255 0.043584 -0.014293
v 0.111100 0.032966 -0.020214
v 0.075994 0.032037 -0.022427
v 0.153310 0.054170 -0.008342
v 0.150598 0.051902 0.009141
v 0.044629 0.033998 -0.047899
v 0.020655 0.029467 -0.046502
v 0.023264 0.041415 -0.077422
v 0.045305 0.043696 -0.078326
v -0.007949 0.026545 -0.050150
v -0.008176 0.039665 -0.076090
v -0.011918 0.047479 -0.111085
v 0.016673 0.050807 -0.114949
v -0.028822 0.040745 -0.075080
v -0.029595 0.048542 -0.109449
v -0.033695 0.056452 -0.145007
v -0.019394 0.055521 -0.146907
v -0.040726 0.041539 -0.075290
v -0.042194 0.049149 -0.108595
v -0.045794 0.057251 -0.143708
v -0.053251 0.062531 -0.180447
v -0.041803 0.061868 -0.182678
v -0.050922 0.054519 -0.106819
v -0.054401 0.061867 -0.142039
v -0.061474 0.066994 -0.178203
v -0.070135 0.073960 -0.221056
v -0.061372 0.069802 -0.222888
v -0.054004 0.072515 -0.140133
v -0.061682 0.076008 -0.177131
v -0.069591 0.083668 -0.219087
v -0.072530 0.093929 -0.261634
v -0.073203 0.084725 -0.263377
v -0.051079 0.079323 -0.179022
v -0.058616 0.086050 -0.219921
v -0.062724 0.095667 -0.261399
v -0.064507 0.105722 -0.303887
v -0.073772 0.105066 -0.304779
v -0.047211 0.087206 -0.221232
v -0.051644 0.096762 -0.261899
v -0.053500 0.106507 -0.303151
v -0.046930 0.116432 -0.343656
v -0.057848 0.115885 -0.346568
v -0.039621 0.097786 -0.262342
v -0.040960 0.107377 -0.302214
v -0.035224 0.117232 -0.340633
v -0.025938 0.125290 -0.378604
v -0.035862 0.124142 -0.381719
v -0.021863 0.106135 -0.301147
v -0.018171 0.117858 -0.337300
v -0.012901 0.126900 -0.375510
v -0.007812 0.132756 -0.414900
v -0.016871 0.131595 -0.417058
v -0.005635 0.116010 -0.336697
v -0.001976 0.126641 -0.374101
v 0.001343 0.133519 -0.414533
v 0.007727 0.123742 -0.374429
v 0.010197 0.131020 -0.414619
v 0.009054 0.138778 -0.452077
v -0.000610 0.141076 -0.474688
v 0.018576 0.128663 -0.414693
v 0.017140 0.137290 -0.453367
v 0.005844 0.141741 -0.478858
v -0.003753 0.141494 -0.487709
v -0.007997 0.141157 -0.481988
v 0.018962 0.132975 -0.454102
v 0.009443 0.136690 -0.481288
v -0.001308 0.136946 -0.490630
v 0.004909 0.132086 -0.477823
v -0.003288 0.132066 -0.487632
v 0.012093 0.130265 -0.453547
v 0.018975 0.124796 -0.415397
v 0.010614 0.122035 -0.416003
v 0.001356 0.120179 -0.416635
v 0.006413 0.114439 -0.376796
v -0.003671 0.112526 -0.377648
v -0.015136 0.110486 -0.379215
v -0.008177 0.118531 -0.417526
v -0.026857 0.108953 -0.382030
v -0.017285 0.117106 -0.419165
v -0.036789 0.108772 -0.385041
v -0.026263 0.116613 -0.421760
v -0.018467 0.122929 -0.455622
v -0.014844 0.126919 -0.476271
v -0.035192 0.117182 -0.424618
v -0.025551 0.123101 -0.458022
v -0.020168 0.126847 -0.478526
v -0.029792 0.126521 -0.458854
v -0.022412 0.131181 -0.478945
v -0.029661 0.132839 -0.457915
v -0.022324 0.137039 -0.478088
v -0.024663 0.135378 -0.456182
v -0.018012 0.139123 -0.476529
v -0.018195 0.136193 -0.454284
v -0.012225 0.139688 -0.474326
v -0.034614 0.129285 -0.422224
v -0.025960 0.130388 -0.419500
v -0.045976 0.123033 -0.385146
v -0.041590 0.126844 -0.425045
v -0.054577 0.120303 -0.388580
v -0.066669 0.112628 -0.348695
v -0.054827 0.112445 -0.390197
v -0.066815 0.104099 -0.350580
v -0.076319 0.095804 -0.306691
v -0.059329 0.100033 -0.349887
v -0.066549 0.092192 -0.306827
v -0.065025 0.081059 -0.264686
v -0.055126 0.091008 -0.306456
v -0.053585 0.080220 -0.265668
v -0.049888 0.069095 -0.224425
v -0.042275 0.079402 -0.266580
v -0.038398 0.068517 -0.226149
v -0.029286 0.061074 -0.184839
v -0.020417 0.071925 -0.228287
v -0.009095 0.063996 -0.189673
v 0.006062 0.058810 -0.151064
v 0.004701 0.066986 -0.193842
v 0.022872 0.061710 -0.154462
v 0.034854 0.054546 -0.118708
v 0.033737 0.063481 -0.156359
v 0.045861 0.056738 -0.120806
v 0.057959 0.045006 -0.078920
v 0.054696 0.058204 -0.121849
v 0.067929 0.046388 -0.080451
v 0.051318 0.060774 -0.121245
v 0.065230 0.051737 -0.080015
v 0.038770 0.062335 -0.119310
v 0.054054 0.052686 -0.077271
v 0.022509 0.063762 -0.114317
v 0.034434 0.054628 -0.073877
v -0.005996 0.066645 -0.107778
v 0.000154 0.058444 -0.070305
v 0.000267 0.053292 -0.046716
v -0.024500 0.058695 -0.070463
v -0.028814 0.055811 -0.049079
v -0.036978 0.058723 -0.071288
v -0.038051 0.065967 -0.105246
v -0.050815 0.065779 -0.104378
v -0.046573 0.058749 -0.071645
v -0.025796 0.066288 -0.105940
v -0.030777 0.074289 -0.142586
v -0.042365 0.073700 -0.141300
v -0.015430 0.075056 -0.144748
v -0.025737 0.081541 -0.183045
v -0.039149 0.080332 -0.181047
v 0.009581 0.072584 -0.150749
v -0.005859 0.079907 -0.187515
v -0.017046 0.087328 -0.225217
v -0.034514 0.088430 -0.222664
v 0.024050 0.070586 -0.155137
v 0.006397 0.078589 -0.191713
v -0.004585 0.086099 -0.227150
v -0.007485 0.095356 -0.263986
v -0.020872 0.096664 -0.263222
v 0.016150 0.077477 -0.195537
v 0.006003 0.085228 -0.228939
v 0.003395 0.094542 -0.264680
v 0.003095 0.103773 -0.300782
v -0.008040 0.104781 -0.300769
v 0.015775 0.084070 -0.230333
v 0.014388 0.093581 -0.265473
v 0.013469 0.102735 -0.300925
v 0.015453 0.111809 -0.337216
v 0.005173 0.114482 -0.336699
v 0.012600 0.088517 -0.266752
v 0.012428 0.098116 -0.302263
v 0.014645 0.107147 -0.338478
v 0.016649 0.116380 -0.375994
v 0.017240 0.120669 -0.374947
v 0.001368 0.096339 -0.303016
v 0.003708 0.104985 -0.339314
v -0.009746 0.094597 -0.303847
v -0.007168 0.103104 -0.340233
v -0.024356 0.092303 -0.304893
v -0.021346 0.101032 -0.341695
v -0.043136 0.089841 -0.306100
v -0.037585 0.099190 -0.344495
v -0.048498 0.099076 -0.347242
v -0.047100 0.108734 -0.388377
v -0.041636 0.120066 -0.426308
v -0.023919 0.081965 -0.266858
v -0.009549 0.084573 -0.266802
v -0.006707 0.074894 -0.229747
v 0.001224 0.086486 -0.266758
v 0.003965 0.077155 -0.230795
v 0.014840 0.069687 -0.196790
v 0.014293 0.079176 -0.231502
v 0.024357 0.072162 -0.199324
v 0.042974 0.064547 -0.156021
v 0.024751 0.076677 -0.198885
v 0.041859 0.068379 -0.159938
v 0.051168 0.064544 -0.146161
v 0.052383 0.063346 -0.142067
v 0.053155 0.064921 -0.138591
v 0.035058 0.069165 -0.158059
v -0.047662 0.048437 -0.073798
v -0.038731 0.040085 0.069391
v -0.025285 0.046214 0.100323
v -0.037065 0.046748 0.099376
v -0.046184 0.047141 0.098652
v -0.046428 0.041133 0.069869
v -0.058943 0.036067 0.051731
v -0.049946 0.053934 0.096865
v -0.047137 0.049058 0.068310
v -0.054202 0.048286 0.055726
v -0.049464 0.054917 0.131978
v -0.053246 0.061871 0.130168
v -0.053133 0.070902 0.128357
v -0.050493 0.063550 0.094563
v -0.047379 0.056814 0.065137
v -0.038949 0.071203 0.129610
v -0.036001 0.063763 0.094830
v -0.037268 0.057062 0.063188
v -0.053752 0.055276 0.045162
v -0.021700 0.063977 0.094988
v -0.022489 0.057161 0.060708
v 0.007232 0.062815 0.097959
v 0.007067 0.055357 0.059905
v 0.032933 0.060380 0.104885
v 0.040868 0.052148 0.064512
v 0.041457 0.047740 0.045576
v 0.046663 0.059386 0.110121
v 0.059181 0.050467 0.068151
v 0.058970 0.046089 0.048274
v 0.054542 0.058873 0.113343
v 0.068958 0.049839 0.071533
v 0.068913 0.043168 0.047765
v 0.022812 0.068693 0.140495
v 0.034064 0.067542 0.147064
v 0.009945 0.076311 0.174517
v 0.021700 0.074889 0.178497
v -0.003869 0.081990 0.209758
v 0.006926 0.081198 0.212658
v 0.017319 0.080016 0.215856
v 0.032322 0.073354 0.179695
v 0.002270 0.089785 0.245604
v 0.013648 0.088887 0.246587
v 0.014504 0.083735 0.248004
v 0.018507 0.075992 0.217047
v 0.032529 0.069473 0.184419
v 0.004042 0.081828 0.247836
v 0.009457 0.073872 0.215208
v 0.024179 0.067489 0.181550
v 0.040719 0.062934 0.150164
v -0.000669 0.071468 0.213324
v 0.014265 0.065618 0.178498
v -0.012558 0.068651 0.211193
v 0.002227 0.063447 0.175215
v -0.031204 0.064235 0.207821
v -0.019758 0.059831 0.170212
v -0.010676 0.052775 0.136603
v -0.034138 0.060450 0.167781
v -0.028385 0.053733 0.134154
v -0.045129 0.061071 0.166082
v -0.039734 0.054454 0.132953
v -0.055402 0.061836 0.164280
v -0.055156 0.063805 0.203798
v -0.066364 0.066434 0.201810
v -0.066369 0.076030 0.200101
v -0.057501 0.069790 0.163115
v -0.059543 0.081389 0.200288
v -0.053627 0.077478 0.162732
v -0.048239 0.082560 0.202031
v -0.041889 0.078326 0.164428
v -0.036578 0.083749 0.203678
v -0.029606 0.079154 0.166015
v -0.024826 0.071762 0.130538
v -0.008787 0.078728 0.169529
v 0.000434 0.070952 0.134412
v -0.018438 0.083277 0.206703
v -0.041283 0.092572 0.241460
v -0.022969 0.092259 0.243039
v -0.008657 0.090696 0.244536
v -0.024014 0.100877 0.279374
v -0.009723 0.099550 0.279664
v 0.001471 0.098627 0.280023
v -0.008107 0.108822 0.313761
v 0.002977 0.107540 0.313723
v 0.013810 0.106224 0.313835
v 0.012649 0.097714 0.280624
v 0.013225 0.101296 0.315241
v 0.013002 0.092773 0.281977
v 0.002261 0.099436 0.316123
v 0.002225 0.090871 0.282178
v -0.008645 0.097803 0.317062
v -0.008734 0.089025 0.282586
v -0.006643 0.079829 0.247563
v -0.022651 0.086673 0.283097
v -0.020023 0.077197 0.247031
v -0.041293 0.083825 0.283513
v -0.038033 0.073841 0.246070
v -0.053449 0.084716 0.282932
v -0.049859 0.074399 0.244747
v -0.043935 0.063587 0.205736
v -0.060668 0.075121 0.243536
v -0.064356 0.085592 0.282282
v -0.074475 0.087406 0.281485
v -0.069517 0.075710 0.242726
v -0.074493 0.096282 0.279464
v -0.071614 0.085071 0.240215
v -0.066040 0.099552 0.278875
v -0.063729 0.090377 0.239685
v -0.054614 0.100636 0.279132
v -0.052420 0.091543 0.240571
v -0.042897 0.101657 0.279216
v -0.052954 0.111873 0.317890
v -0.040680 0.112064 0.316179
v -0.022186 0.110613 0.314316
v -0.031037 0.119838 0.351887
v -0.016650 0.121104 0.348800
v -0.004035 0.119314 0.348002
v -0.009252 0.128626 0.384363
v 0.000849 0.128007 0.383482
v 0.010207 0.124899 0.383912
v 0.006585 0.117291 0.348121
v 0.018980 0.122109 0.384413
v 0.016493 0.114328 0.348571
v 0.016006 0.117920 0.385490
v 0.014759 0.109852 0.349820
v 0.005585 0.115999 0.386233
v 0.003787 0.107714 0.350716
v -0.004016 0.114314 0.387009
v -0.006667 0.105760 0.351654
v -0.014802 0.112517 0.388491
v -0.019931 0.103789 0.353274
v -0.022944 0.095679 0.318323
v -0.034604 0.102240 0.356361
v -0.041165 0.093202 0.320275
v -0.045209 0.102010 0.359322
v -0.053401 0.093773 0.321730
v -0.056031 0.102552 0.362341
v -0.064892 0.094602 0.323244
v -0.062918 0.106990 0.363487
v -0.074758 0.098718 0.324091
v -0.062122 0.115855 0.361481
v -0.074655 0.107334 0.321936
v -0.053227 0.118014 0.358475
v -0.064283 0.111371 0.319583
v -0.042591 0.118618 0.355266
v -0.040539 0.124584 0.393261
v -0.031019 0.125753 0.390048
v -0.020892 0.127045 0.387008
v -0.021183 0.131794 0.424171
v -0.011912 0.133015 0.421753
v -0.002922 0.134059 0.420623
v 0.005583 0.133735 0.420624
v 0.013537 0.131230 0.421168
v 0.018101 0.130463 0.422588
v 0.017312 0.125665 0.422124
v 0.010072 0.130141 0.456481
v 0.008853 0.122784 0.422669
v 0.000258 0.121014 0.423007
v -0.008625 0.119472 0.423804
v -0.017549 0.118152 0.425846
v -0.025463 0.111179 0.391210
v -0.025929 0.117775 0.428250
v -0.035053 0.111604 0.394120
v -0.034451 0.118306 0.430785
v -0.044958 0.112147 0.397220
v -0.039615 0.122991 0.431580
v -0.051684 0.115835 0.398781
v -0.037325 0.129624 0.429504
v -0.049357 0.123215 0.396478
v -0.029488 0.130740 0.426798
v -0.027518 0.135215 0.458498
v -0.021238 0.135959 0.456370
v -0.021605 0.138482 0.476104
v -0.016494 0.138965 0.473529
v -0.029151 0.128962 0.460156
v -0.022725 0.132438 0.477808
v -0.025803 0.123579 0.460243
v -0.020811 0.126851 0.478044
v -0.018895 0.123287 0.458213
v -0.015109 0.126818 0.475946
v 0.007240 0.132089 0.474650
v 0.000661 0.138013 0.489213
v -0.001682 0.132394 0.486728
v -0.002708 0.141882 0.484626
v 0.029856 0.061012 0.163369
v 0.053054 0.064877 -0.138983
v 0.051428 0.066798 -0.145105
v 0.051066 0.064621 -0.145796
v 0.052796 0.063129 -0.139831
v 0.052929 0.064027 -0.139396
v 0.052520 0.064243 -0.140752
v 0.052657 0.065440 -0.140410
v 0.051712 0.066301 -0.143935
v 0.051526 0.065205 -0.144291
v 0.051243 0.065684 -0.145458
v 0.051305 0.064026 -0.144751
v 0.052406 0.063144 -0.140995
v 0.052000 0.063187 -0.142223
v 0.052156 0.064448 -0.141940
v 0.051816 0.064769 -0.143153
v 0.051987 0.065823 -0.142807
v 0.052311 0.065669 -0.141644
v 0.051633 0.063537 -0.143503
v 0.050177 0.067716 -0.149166
v 0.050738 0.064566 -0.147419
v 0.049814 0.067019 -0.150743
v 0.050271 0.064610 -0.149156
v 0.050273 0.067057 -0.148887
v 0.050103 0.066693 -0.149717
v 0.049995 0.067367 -0.149955
v 0.050496 0.064577 -0.148314
v 0.050298 0.065379 -0.148972
v 0.050505 0.065648 -0.148182
v 0.049889 0.066388 -0.150672
v 0.050122 0.065113 -0.149847
v 0.049970 0.065720 -0.150580
v 0.050166 0.066061 -0.149473
v 0.050368 0.066402 -0.148610
v 0.050213 0.065442 0.149728
v 0.050460 0.066163 0.148707
v 0.050600 0.067144 0.147641
v 0.050169 0.066895 0.149402
v 0.050241 0.065231 0.149374
v 0.050388 0.067022 0.148507
v 0.053346 0.064590 0.137944
v 0.051505 0.066686 0.144623
v 0.051159 0.064538 0.145554
v 0.053146 0.062891 0.138665
v 0.052976 0.065553 0.139273
v 0.052829 0.064193 0.139724
v 0.053246 0.063746 0.138302
v 0.051333 0.065620 0.145086
v 0.051661 0.065063 0.143846
v 0.051834 0.066477 0.143431
v 0.051431 0.063638 0.144476
v 0.052755 0.062964 0.139901
v 0.052444 0.064479 0.141040
v 0.052336 0.063032 0.141254
v 0.052043 0.064689 0.142449
v 0.051881 0.063077 0.142797
v 0.052188 0.066253 0.142154
v 0.052569 0.066053 0.140757
vt 0.519190 0.976202
vt 0.526623 0.978840
vt 0.528097 0.988809
vt 0.517932 0.983917
vt 0.501909 0.965262
vt 0.510066 0.960338
vt 0.517880 0.957848
vt 0.930888 0.543287
vt 0.943157 0.541038
vt 0.957076 0.559530
vt 0.936264 0.554825
vt 0.048419 0.064296
vt 0.048461 0.058506
vt 0.053093 0.057724
vt 0.053735 0.065446
vt 0.094493 0.088758
vt 0.100445 0.087722
vt 0.099667 0.095731
vt 0.094493 0.096078
vt 0.975259 0.581751
vt 0.967460 0.581850
vt 0.967668 0.576036
vt 0.976059 0.576017
vt 0.543712 0.998166
vt 0.536064 0.997934
vt 0.535706 0.990180
vt 0.541945 0.990615
vt 0.010961 0.104457
vt 0.012955 0.112024
vt 0.007287 0.110939
vt 0.005926 0.103152
vt 0.058936 0.065507
vt 0.058957 0.057926
vt 0.227635 0.600546
vt 0.216419 0.595764
vt 0.231276 0.585190
vt 0.239741 0.602921
vt 0.236323 0.613496
vt 0.228915 0.611639
vt 0.595063 0.241441
vt 0.580620 0.270403
vt 0.568443 0.263025
vt 0.579957 0.228334
vt 0.513000 0.337984
vt 0.532838 0.333869
vt 0.523613 0.352689
vt 0.511281 0.362542
vt 0.532414 0.291040
vt 0.548376 0.301396
vt 0.490402 0.326852
vt 0.514556 0.278453
vt 0.606156 0.129005
vt 0.602812 0.133143
vt 0.598050 0.137343
vt 0.595662 0.133712
vt 0.603064 0.145458
vt 0.601927 0.159864
vt 0.593301 0.158407
vt 0.600093 0.140087
vt 0.079675 0.074378
vt 0.085707 0.073234
vt 0.087343 0.079744
vt 0.080291 0.079829
vt 0.468126 0.309740
vt 0.460262 0.283369
vt 0.478816 0.253769
vt 0.492184 0.263691
vt 0.448226 0.329599
vt 0.451139 0.298113
vt 0.126095 0.599233
vt 0.124928 0.606274
vt 0.113427 0.606471
vt 0.119551 0.598832
vt 0.130751 0.582514
vt 0.138761 0.588620
vt 0.143093 0.597838
vt 0.089886 0.007039
vt 0.095076 0.011158
vt 0.094850 0.018002
vt 0.079203 0.010485
vt 0.000337 0.026203
vt 0.000337 0.013139
vt 0.006551 0.023315
vt 0.004273 0.016867
vt 0.061452 0.061280
vt 0.062032 0.052147
vt 0.067691 0.048535
vt 0.067691 0.069875
vt 0.994962 0.562093
vt 0.985388 0.552535
vt 0.990541 0.548711
vt 0.997247 0.556171
vt 0.266397 0.021941
vt 0.264111 0.027839
vt 0.255919 0.024706
vt 0.257405 0.022128
vt 0.076618 0.025240
vt 0.087864 0.033239
vt 0.082611 0.039261
vt 0.069163 0.026719
vt 0.075863 0.018050
vt 0.092024 0.025772
vt 0.063667 0.018559
vt 0.040242 0.014665
vt 0.050638 0.013263
vt 0.055402 0.021103
vt 0.049511 0.024090
vt 0.999887 0.551392
vt 0.995088 0.543950
vt 0.016048 0.038096
vt 0.022318 0.043576
vt 0.019005 0.049449
vt 0.012202 0.045196
vt 0.262096 0.032754
vt 0.254480 0.031250
vt 0.021622 0.070424
vt 0.023457 0.063033
vt 0.035602 0.078490
vt 0.029346 0.083403
vt 0.021365 0.087246
vt 0.014752 0.069334
vt 0.015731 0.057289
vt 0.211331 0.040344
vt 0.201608 0.060389
vt 0.177471 0.048306
vt 0.179780 0.034174
vt 0.319556 0.447553
vt 0.358843 0.442714
vt 0.360653 0.454039
vt 0.320326 0.466820
vt 0.139166 0.025146
vt 0.156164 0.029302
vt 0.154285 0.036304
vt 0.133904 0.025918
vt 0.130550 0.022629
vt 0.135658 0.022266
vt 0.420795 0.427245
vt 0.422513 0.421558
vt 0.424783 0.423135
vt 0.422116 0.429293
vt 0.194214 0.063370
vt 0.195269 0.062084
vt 0.200785 0.062966
vt 0.200172 0.065188
vt 0.028628 0.021588
vt 0.028585 0.019249
vt 0.030570 0.019249
vt 0.030390 0.021836
vt 0.423990 0.442099
vt 0.419678 0.442736
vt 0.424047 0.440482
vt 0.423673 0.442771
vt 0.238530 0.206918
vt 0.237210 0.203493
vt 0.236894 0.201198
vt 0.240404 0.205267
vt 0.417774 0.440182
vt 0.422555 0.437563
vt 0.423975 0.436492
vt 0.425031 0.438192
vt 0.238489 0.198914
vt 0.242085 0.204891
vt 0.423770 0.430380
vt 0.426982 0.424420
vt 0.050542 0.237784
vt 0.059139 0.243297
vt 0.053871 0.259689
vt 0.037888 0.254891
vt 0.059324 0.215972
vt 0.069610 0.233999
vt 0.039173 0.222704
vt 0.252341 0.323481
vt 0.249065 0.334088
vt 0.236894 0.329141
vt 0.238095 0.308345
vt 0.538124 0.350627
vt 0.535636 0.358044
vt 0.524360 0.359530
vt 0.257056 0.310881
vt 0.256058 0.326052
vt 0.147495 0.431718
vt 0.151301 0.402172
vt 0.163591 0.399395
vt 0.166912 0.436035
vt 0.181343 0.481771
vt 0.160045 0.492440
vt 0.178766 0.394717
vt 0.186819 0.432732
vt 0.203454 0.470883
vt 0.224846 0.492371
vt 0.200915 0.503553
vt 0.219559 0.420161
vt 0.235447 0.453114
vt 0.250802 0.474147
vt 0.278661 0.054680
vt 0.281008 0.037126
vt 0.309851 0.045381
vt 0.309599 0.061140
vt 0.258416 0.441443
vt 0.272780 0.460157
vt 0.252999 0.054108
vt 0.252446 0.034893
vt 0.281239 0.465791
vt 0.288349 0.481697
vt 0.264823 0.494648
vt 0.255751 0.480482
vt 0.228915 0.057382
vt 0.280737 0.520288
vt 0.258403 0.531722
vt 0.243266 0.511053
vt 0.285500 0.021816
vt 0.311922 0.028733
vt 0.303353 0.508067
vt 0.318989 0.530167
vt 0.293826 0.543544
vt 0.331999 0.491408
vt 0.346230 0.512180
vt 0.020612 0.226284
vt 0.017032 0.260241
vt 0.366048 0.469407
vt 0.374508 0.482071
vt 0.016894 0.183972
vt 0.029272 0.182815
vt 0.041884 0.178658
vt 0.016310 0.148833
vt 0.022265 0.149460
vt 0.028903 0.148169
vt 0.238050 0.234345
vt 0.244390 0.234252
vt 0.254020 0.267689
vt 0.240096 0.267219
vt 0.016394 0.118604
vt 0.018322 0.118678
vt 0.477494 0.390831
vt 0.472911 0.380106
vt 0.249791 0.231825
vt 0.265596 0.269620
vt 0.253424 0.228844
vt 0.275131 0.260423
vt 0.446130 0.404967
vt 0.451445 0.409133
vt 0.430723 0.426624
vt 0.428373 0.426065
vt 0.441113 0.402114
vt 0.459543 0.375795
vt 0.447842 0.367829
vt 0.435905 0.399231
vt 0.430007 0.396504
vt 0.436588 0.369407
vt 0.255613 0.085847
vt 0.257389 0.070012
vt 0.290915 0.071161
vt 0.296540 0.093894
vt 0.226305 0.072492
vt 0.227313 0.066117
vt 0.402315 0.464618
vt 0.398317 0.458373
vt 0.394714 0.452292
vt 0.391726 0.445915
vt 0.415925 0.437793
vt 0.388642 0.439477
vt 0.409632 0.436570
vt 0.225705 0.253157
vt 0.211111 0.253295
vt 0.214599 0.225387
vt 0.229276 0.225692
vt 0.267368 0.552896
vt 0.016310 0.287905
vt 0.033851 0.287181
vt 0.211111 0.197726
vt 0.223470 0.196758
vt 0.242322 0.563868
vt 0.234289 0.544674
vt 0.224284 0.571547
vt 0.215477 0.555914
vt 0.205384 0.536932
vt 0.222487 0.526289
vt 0.196970 0.524350
vt 0.215909 0.516068
vt 0.336271 0.043211
vt 0.332701 0.058075
vt 0.179004 0.511328
vt 0.234373 0.500786
vt 0.198151 0.565949
vt 0.187862 0.547582
vt 0.177733 0.533785
vt 0.168654 0.583795
vt 0.158853 0.571457
vt 0.148476 0.559164
vt 0.290919 0.290600
vt 0.294803 0.261494
vt 0.303016 0.259689
vt 0.303280 0.291310
vt 0.307885 0.331904
vt 0.294167 0.329195
vt 0.553928 0.159005
vt 0.578062 0.138807
vt 0.581249 0.145377
vt 0.562945 0.169678
vt 0.544427 0.205003
vt 0.528053 0.191185
vt 0.573621 0.180468
vt 0.562693 0.218031
vt 0.549095 0.251854
vt 0.529935 0.239708
vt 0.509745 0.222035
vt 0.586497 0.187796
vt 0.586738 0.153612
vt 0.599665 0.192058
vt 0.207440 0.195863
vt 0.205536 0.222725
vt 0.197446 0.222531
vt 0.197446 0.191543
vt 0.002743 0.032754
vt 0.003176 0.026242
vt 0.041712 0.022223
vt 0.052406 0.032754
vt 0.001553 0.000235
vt 0.037582 0.000680
vt 0.035933 0.008272
vt 0.003441 0.008734
vt 0.179341 0.610782
vt 0.173524 0.599350
vt 0.208652 0.582883
vt 0.143660 0.608511
vt 0.056387 0.000235
vt 0.056773 0.003725
vt 0.125470 0.611242
vt 0.077728 0.082976
vt 0.085757 0.082976
vt 0.063230 0.074757
vt 0.070713 0.073190
vt 0.074242 0.078609
vt 0.060825 0.078609
vt 0.609578 0.159856
vt 0.607698 0.142272
vt 0.043672 0.044018
vt 0.043672 0.052406
vt 0.031791 0.049263
vt 0.026735 0.044866
vt 0.300601 0.241880
vt 0.303421 0.245420
vt 0.247696 0.572030
vt 0.252372 0.591023
vt 0.272137 0.560816
vt 0.274999 0.576772
vt 0.288332 0.608640
vt 0.267416 0.621280
vt 0.054255 0.314436
vt 0.035270 0.309533
vt 0.052475 0.286196
vt 0.304700 0.565032
vt 0.318076 0.590643
vt 0.339897 0.622886
vt 0.314176 0.641903
vt 0.328464 0.552255
vt 0.337432 0.578803
vt 0.356055 0.612010
vt 0.378516 0.644614
vt 0.365754 0.653965
vt 0.349005 0.572752
vt 0.367743 0.604554
vt 0.389476 0.637000
vt 0.415929 0.668840
vt 0.406086 0.677017
vt 0.374982 0.598489
vt 0.396691 0.631066
vt 0.422474 0.662545
vt 0.453256 0.699743
vt 0.445956 0.705940
vt 0.017250 0.451283
vt 0.014434 0.492199
vt 0.002507 0.491905
vt 0.007319 0.450367
vt 0.008714 0.402563
vt 0.019652 0.402554
vt 0.006984 0.354365
vt 0.017342 0.354462
vt 0.682246 0.472916
vt 0.646962 0.441078
vt 0.654958 0.432353
vt 0.689422 0.463184
vt 0.726516 0.491276
vt 0.721044 0.500552
vt 0.765913 0.517779
vt 0.761414 0.526981
vt 0.697243 0.453253
vt 0.733385 0.481184
vt 0.771563 0.507033
vt 0.813875 0.524526
vt 0.810336 0.536446
vt 0.740736 0.470168
vt 0.777906 0.494733
vt 0.817773 0.511817
vt 0.859180 0.525202
vt 0.856376 0.536267
vt 0.787798 0.476065
vt 0.824438 0.493882
vt 0.863808 0.511242
vt 0.904053 0.529270
vt 0.900843 0.538972
vt 0.830979 0.481627
vt 0.868734 0.500131
vt 0.908987 0.520478
vt 0.874485 0.491017
vt 0.914041 0.512048
vt 0.948972 0.534948
vt 0.964816 0.557094
vt 0.918816 0.504067
vt 0.954761 0.527986
vt 0.972469 0.553432
vt 0.975290 0.567516
vt 0.967457 0.568227
vt 0.449999 0.008399
vt 0.424363 0.009204
vt 0.424402 0.004269
vt 0.452001 0.002132
vt 0.048419 0.036727
vt 0.053722 0.034016
vt 0.053292 0.048897
vt 0.048529 0.050221
vt 0.526893 0.999890
vt 0.511565 0.996529
vt 0.514319 0.990553
vt 0.527442 0.995702
vt 0.058899 0.049612
vt 0.488115 0.975093
vt 0.494582 0.970790
vt 0.467945 0.937273
vt 0.476471 0.933302
vt 0.485835 0.928926
vt 0.460077 0.892797
vt 0.470358 0.888194
vt 0.482359 0.883546
vt 0.495593 0.924665
vt 0.495245 0.879995
vt 0.505326 0.921364
vt 0.506446 0.877645
vt 0.515398 0.919101
vt 0.525542 0.956275
vt 0.532815 0.978353
vt 0.525513 0.917171
vt 0.533650 0.954859
vt 0.539157 0.977714
vt 0.055973 0.278881
vt 0.075596 0.277529
vt 0.075655 0.283608
vt 0.054515 0.283865
vt 0.013040 0.124147
vt 0.008656 0.122355
vt 0.010060 0.143624
vt 0.003033 0.143229
vt 0.002147 0.121968
vt 0.001608 0.110933
vt 0.955402 0.579269
vt 0.932028 0.574426
vt 0.933368 0.568868
vt 0.956492 0.574432
vt 0.935322 0.561736
vt 0.957759 0.567752
vt 0.895440 0.558510
vt 0.897882 0.548863
vt 0.853758 0.547690
vt 0.893995 0.566558
vt 0.851947 0.557604
vt 0.807145 0.545790
vt 0.004857 0.258219
vt 0.004001 0.215925
vt 0.012844 0.215924
vt 0.014471 0.258099
vt 0.014910 0.305232
vt 0.004285 0.305611
vt 0.503656 0.780351
vt 0.517379 0.828221
vt 0.509969 0.831307
vt 0.494459 0.785469
vt 0.471141 0.744979
vt 0.478177 0.739572
vt 0.483283 0.791091
vt 0.460651 0.751936
vt 0.435712 0.713463
vt 0.450248 0.758757
vt 0.425555 0.721176
vt 0.395178 0.685684
vt 0.409163 0.732919
vt 0.378104 0.701179
vt 0.343218 0.671606
vt 0.366852 0.712652
vt 0.328649 0.683924
vt 0.298435 0.655335
vt 0.319078 0.691590
vt 0.288814 0.663292
vt 0.255447 0.628610
vt 0.280766 0.669044
vt 0.246565 0.635430
vt 0.183099 0.022406
vt 0.227092 0.022174
vt 0.226672 0.025355
vt 0.183937 0.028387
vt 0.155387 0.027311
vt 0.158034 0.022174
vt 0.627278 0.264712
vt 0.658494 0.301866
vt 0.649544 0.312667
vt 0.618327 0.273725
vt 0.606095 0.243142
vt 0.635581 0.325213
vt 0.603964 0.290376
vt 0.613202 0.348490
vt 0.581107 0.320840
vt 0.558750 0.306975
vt 0.567133 0.344169
vt 0.544408 0.335860
vt 0.560758 0.356397
vt 0.592414 0.377203
vt 0.584271 0.388721
vt 0.555594 0.365640
vt 0.600107 0.366072
vt 0.632084 0.392138
vt 0.624206 0.402287
vt 0.642949 0.378957
vt 0.673366 0.410899
vt 0.663746 0.422326
vt 0.662835 0.358687
vt 0.688901 0.394636
vt 0.718292 0.427119
vt 0.705920 0.442177
vt 0.675178 0.347452
vt 0.699826 0.385416
vt 0.727205 0.416416
vt 0.760607 0.440700
vt 0.752267 0.452946
vt 0.708971 0.378351
vt 0.734923 0.407416
vt 0.767464 0.430801
vt 0.801664 0.452214
vt 0.795310 0.462751
vt 0.741789 0.398943
vt 0.774472 0.420846
vt 0.807702 0.442465
vt 0.843383 0.461826
vt 0.837114 0.471363
vt 0.254270 0.010359
vt 0.214792 0.009308
vt 0.214465 0.003682
vt 0.254274 0.005144
vt 0.295172 0.005659
vt 0.295211 0.010918
vt 0.337447 0.006081
vt 0.337572 0.010901
vt 0.432131 0.859741
vt 0.415475 0.823107
vt 0.426640 0.817899
vt 0.443240 0.854659
vt 0.449674 0.897530
vt 0.437897 0.812740
vt 0.454320 0.849705
vt 0.452671 0.805912
vt 0.468887 0.843519
vt 0.471566 0.797028
vt 0.486144 0.837549
vt 0.498147 0.834429
vt 0.518177 0.875418
vt 0.526434 0.873276
vt 0.532500 0.915542
vt 0.109179 0.283865
vt 0.108003 0.276186
vt 0.011143 0.177853
vt 0.003559 0.177685
vt 0.432547 0.768857
vt 0.418515 0.776531
vt 0.396556 0.741727
vt 0.407997 0.782279
vt 0.386699 0.748495
vt 0.358497 0.720997
vt 0.377004 0.754739
vt 0.350534 0.728601
vt 0.309927 0.696201
vt 0.098040 0.003480
vt 0.141722 0.002132
vt 0.142504 0.007056
vt 0.102918 0.006690
vt 0.070856 0.062221
vt 0.074242 0.058244
vt 0.074242 0.074242
vt 0.043672 0.039189
vt 0.029722 0.041488
vt 0.025165 0.040285
vt 0.021402 0.039189
vt 0.004367 0.045053
vt 0.002871 0.065507
vt 0.000528 0.040232
vt 0.004367 0.036065
vt 0.686609 0.329798
vt 0.684181 0.338674
vt 0.660892 0.298887
vt 0.689816 0.333296
vt 0.717020 0.372117
vt 0.175311 0.002327
vt 0.175648 0.007765
vt 0.396912 0.788388
vt 0.880299 0.482183
vt 0.381564 0.005135
vt 0.381737 0.009485
vt 0.616386 0.412519
vt 0.002083 0.569318
vt 0.001861 0.532104
vt 0.014536 0.532012
vt 0.013761 0.569158
vt 0.014259 0.588407
vt 0.001608 0.589567
vt 0.354594 0.567985
vt 0.085160 0.245148
vt 0.080409 0.254494
vt 0.344688 0.547367
vt 0.270376 0.433855
vt 0.292611 0.446693
vt 0.240691 0.411363
vt 0.252548 0.406075
vt 0.261723 0.401974
vt 0.277510 0.429375
vt 0.299456 0.440043
vt 0.672318 0.200107
vt 0.694263 0.223409
vt 0.687912 0.227856
vt 0.665805 0.206166
vt 0.654226 0.196618
vt 0.657871 0.182441
vt 0.718738 0.250600
vt 0.712263 0.255174
vt 0.704917 0.262195
vt 0.679680 0.235001
vt 0.658011 0.211142
vt 0.397066 0.274662
vt 0.364041 0.258252
vt 0.371005 0.244190
vt 0.405131 0.260869
vt 0.433917 0.279767
vt 0.426276 0.288164
vt 0.441364 0.305493
vt 0.413190 0.247317
vt 0.444729 0.267267
vt 0.426930 0.218302
vt 0.462353 0.239783
vt 0.435042 0.190001
vt 0.477260 0.205132
vt 0.495243 0.215150
vt 0.437943 0.174020
vt 0.484263 0.185710
vt 0.502673 0.197020
vt 0.439405 0.164729
vt 0.486657 0.174533
vt 0.508732 0.187783
vt 0.429889 0.156039
vt 0.490172 0.169354
vt 0.104812 0.265002
vt 0.101856 0.271386
vt 0.076995 0.275131
vt 0.078280 0.268030
vt 0.396060 0.179653
vt 0.396278 0.165237
vt 0.356969 0.172761
vt 0.359901 0.159336
vt 0.316107 0.165958
vt 0.319532 0.154089
vt 0.322430 0.142406
vt 0.364799 0.148560
vt 0.286202 0.140130
vt 0.291761 0.128801
vt 0.395944 0.016081
vt 0.360588 0.017791
vt 0.360579 0.011931
vt 0.395960 0.011500
vt 0.434951 0.013123
vt 0.438900 0.018467
vt 0.135075 0.323143
vt 0.122158 0.291482
vt 0.132440 0.286018
vt 0.144892 0.320031
vt 0.148826 0.360039
vt 0.139146 0.361778
vt 0.149715 0.398902
vt 0.155784 0.316380
vt 0.160108 0.357656
vt 0.168529 0.312014
vt 0.173579 0.354357
vt 0.188534 0.305196
vt 0.197637 0.347391
vt 0.207025 0.384336
vt 0.212789 0.342169
vt 0.225386 0.377388
vt 0.224278 0.338032
vt 0.236952 0.372585
vt 0.235123 0.334380
vt 0.246847 0.368406
vt 0.213825 0.296401
vt 0.225584 0.292528
vt 0.742535 0.275989
vt 0.771899 0.301791
vt 0.764271 0.309366
vt 0.736195 0.282114
vt 0.283834 0.345006
vt 0.279149 0.306736
vt 0.288696 0.306535
vt 0.292600 0.342635
vt 0.731416 0.289368
vt 0.331668 0.239444
vt 0.293081 0.223782
vt 0.297969 0.212202
vt 0.336836 0.227465
vt 0.303152 0.200341
vt 0.342418 0.215033
vt 0.378252 0.230387
vt 0.351027 0.193390
vt 0.389052 0.204332
vt 0.310685 0.181499
vt 0.265251 0.183679
vt 0.274250 0.165507
vt 0.280981 0.151083
vt 0.239801 0.146213
vt 0.247666 0.132511
vt 0.253706 0.121710
vt 0.216875 0.112024
vt 0.223211 0.101534
vt 0.229262 0.091192
vt 0.259511 0.110786
vt 0.322340 0.018710
vt 0.285506 0.019566
vt 0.285142 0.013904
vt 0.322236 0.013077
vt 0.105163 0.258291
vt 0.086902 0.226672
vt 0.097111 0.219930
vt 0.115554 0.252304
vt 0.107223 0.213176
vt 0.126009 0.246024
vt 0.142999 0.280533
vt 0.139290 0.238055
vt 0.156327 0.273843
vt 0.157209 0.227655
vt 0.174389 0.265084
vt 0.169218 0.221834
vt 0.186489 0.260137
vt 0.201968 0.300449
vt 0.197539 0.255629
vt 0.180057 0.216740
vt 0.190170 0.212250
vt 0.206490 0.251764
vt 0.802221 0.335059
vt 0.828869 0.368900
vt 0.821418 0.375631
vt 0.793784 0.341615
vt 0.279360 0.265867
vt 0.283147 0.225521
vt 0.292600 0.227883
vt 0.289790 0.266761
vt 0.253963 0.205717
vt 0.216123 0.186015
vt 0.222476 0.175164
vt 0.259661 0.194622
vt 0.229156 0.164134
vt 0.187404 0.152082
vt 0.196060 0.141507
vt 0.208356 0.125069
vt 0.168293 0.112455
vt 0.179499 0.100736
vt 0.187408 0.089208
vt 0.150570 0.073867
vt 0.157165 0.064821
vt 0.161996 0.055589
vt 0.193300 0.079024
vt 0.166438 0.046884
vt 0.198434 0.069270
vt 0.247498 0.019652
vt 0.208366 0.019108
vt 0.207647 0.014245
vt 0.246937 0.014477
vt 0.066676 0.194476
vt 0.046170 0.161051
vt 0.055931 0.154727
vt 0.076898 0.187703
vt 0.064872 0.148817
vt 0.086589 0.181172
vt 0.074587 0.141592
vt 0.098633 0.172494
vt 0.120464 0.204290
vt 0.111240 0.161676
vt 0.137143 0.192646
vt 0.119923 0.153194
vt 0.148164 0.184798
vt 0.128750 0.144580
vt 0.158422 0.177301
vt 0.134588 0.140052
vt 0.167312 0.171470
vt 0.859742 0.405474
vt 0.891080 0.439115
vt 0.883745 0.445966
vt 0.852351 0.411906
vt 0.170967 0.169963
vt 0.141274 0.136039
vt 0.149293 0.129496
vt 0.179295 0.161760
vt 0.210587 0.193462
vt 0.158437 0.121343
vt 0.124090 0.098035
vt 0.132620 0.090967
vt 0.141342 0.083234
vt 0.106384 0.062543
vt 0.114026 0.055259
vt 0.120288 0.047492
vt 0.125149 0.039462
vt 0.129092 0.031520
vt 0.088849 0.000110
vt 0.130340 0.026367
vt 0.165909 0.018488
vt 0.116815 0.015505
vt 0.127934 0.011500
vt 0.167435 0.013426
vt 0.025111 0.126707
vt 0.007265 0.091778
vt 0.013667 0.089885
vt 0.033127 0.121565
vt 0.041332 0.116605
vt 0.049561 0.111061
vt 0.057159 0.104303
vt 0.083504 0.133259
vt 0.063995 0.097530
vt 0.091204 0.125397
vt 0.070857 0.090600
vt 0.099102 0.117190
vt 0.075206 0.087334
vt 0.104599 0.112308
vt 0.918317 0.470636
vt 0.944493 0.499213
vt 0.938687 0.504232
vt 0.911838 0.476193
vt 0.115949 0.104429
vt 0.092020 0.074584
vt 0.099106 0.068809
vt 0.070576 0.049092
vt 0.076211 0.044433
vt 0.057526 0.033646
vt 0.062900 0.030329
vt 0.976545 0.543445
vt 0.962195 0.528706
vt 0.967461 0.523866
vt 0.981780 0.538897
vt 0.971348 0.519571
vt 0.985763 0.534299
vt 0.032209 0.052545
vt 0.046629 0.066953
vt 0.041046 0.072555
vt 0.027816 0.057586
vt 0.947358 0.495268
vt 0.000110 0.072630
vt 0.006672 0.070917
vt 0.231913 0.029870
vt 0.228519 0.021941
vt 0.245932 0.022656
vt 0.245587 0.029847
vt 0.008867 0.054538
vt 0.057929 0.005157
vt 0.060477 0.011163
vt 0.047816 0.009194
vt 0.077128 0.000992
vt 0.420827 0.435635
vt 0.319818 0.084701
vt 0.327537 0.089875
vt 0.396983 0.156944
vt 0.400184 0.158596
vt 0.605625 0.136139
vt 0.305282 0.231964
vt 0.307885 0.242625
vt 0.608766 0.135550
vt 0.030939 0.037121
vt 0.012478 0.035163
vt 0.039304 0.035163
vt 0.640391 0.196421
vt 0.218984 0.061140
vt 0.316496 0.062084
vt 0.324440 0.072269
vt 0.055543 0.275131
vt 0.059952 0.261410
vt 0.001717 0.010771
vt 0.039304 0.010771
vt 0.037905 0.012394
vt 0.018247 0.021836
vt 0.360309 0.145453
vt 0.378244 0.159528
vt 0.010758 0.043672
vt 0.009740 0.043557
vt 0.009560 0.042168
vt 0.010918 0.042091
vt 0.010918 0.037042
vt 0.010753 0.038358
vt 0.009501 0.038396
vt 0.009648 0.037088
vt 0.008435 0.037132
vt 0.008131 0.038361
vt 0.008666 0.043436
vt 0.008336 0.042309
vt 0.008014 0.041110
vt 0.009418 0.040948
vt 0.009389 0.039657
vt 0.010595 0.039626
vt 0.010785 0.040811
vt 0.007997 0.039746
vt 0.008603 0.021776
vt 0.008683 0.020999
vt 0.009628 0.021035
vt 0.009501 0.021806
vt 0.008603 0.017864
vt 0.009412 0.018295
vt 0.009606 0.019391
vt 0.008753 0.019285
vt 0.010396 0.021836
vt 0.010657 0.021187
vt 0.010160 0.018724
vt 0.010545 0.019545
vt 0.010918 0.020491
vt 0.009721 0.020298
vt 0.008762 0.020226
vt 0.034098 0.021836
vt 0.033656 0.021742
vt 0.034287 0.019634
vt 0.034937 0.020425
vt 0.033789 0.020467
vt 0.033656 0.018867
vt 0.091710 0.088434
vt 0.090044 0.089247
vt 0.089767 0.087684
vt 0.091453 0.087451
vt 0.083817 0.089527
vt 0.083471 0.088282
vt 0.084962 0.087897
vt 0.085197 0.089511
vt 0.083120 0.087020
vt 0.084487 0.086231
vt 0.091192 0.086456
vt 0.089775 0.086314
vt 0.088229 0.087761
vt 0.088228 0.086146
vt 0.086601 0.087738
vt 0.086474 0.085919
vt 0.086676 0.089495
vt 0.088285 0.089527
s 1
usemtl tripo_mat_d619c03c-6094-4f9f-b1e8-8287c3d0682d
f 1/1 28/2 29/3 30/4
f 1/1 30/4 31/5 32/6
f 1/1 32/6 33/7 28/2
f 34/8 35/9 36/10 37/11
f 2/12 38/13 39/14 40/15
f 2/16 40/17 41/18 42/19
f 2/20 42/21 43/22 38/23
f 3/24 44/25 45/26 46/27
f 3/28 46/29 41/30 40/31
f 3/32 40/15 39/14 44/33
f 4/34 47/35 48/36 49/37
f 4/34 49/37 50/38 5/39
f 4/40 51/41 52/42 53/43
f 6/44 54/45 27/46 55/47
f 6/44 56/48 57/49 54/45
f 6/44 58/50 59/51 56/48
f 7/52 61/53 62/54 63/55
f 8/56 64/57 65/58 66/59
f 8/60 66/61 67/62 68/63
f 9/64 69/65 70/66 71/67
f 9/64 71/67 59/51 58/50
f 9/64 72/68 73/69 69/65
f 10/70 74/71 7/72 75/73
f 10/70 75/73 76/74 77/75
f 10/70 77/75 78/76 74/71
f 12/77 79/78 80/79 81/80
f 83/81 13/82 79/83 12/84
f 12/85 81/86 82/87 83/88
f 14/89 84/90 85/91 86/92
f 14/93 86/94 87/95 88/96
f 15/97 89/98 90/99 91/100
f 15/97 92/101 93/102 89/98
f 15/97 91/100 94/103 92/101
f 14/104 88/105 95/106 84/107
f 16/108 86/92 85/91 96/109
f 16/110 96/111 97/112 98/113
f 16/114 98/115 87/95 86/94
f 17/116 99/117 100/118 101/119
f 17/116 101/119 102/120 103/121
f 17/116 103/121 104/122 99/117
f 18/123 105/124 106/125 107/126
f 18/127 107/128 108/129 109/130
f 19/131 110/132 111/133 112/134
f 19/131 112/134 113/135 114/136
f 20/137 115/138 116/139 117/140
f 20/141 113/142 112/143 115/144
f 20/145 117/146 118/147 113/148
f 21/149 120/150 23/151 119/152
f 22/153 119/154 23/155 121/156
f 23/151 120/150 122/157 118/158
f 23/151 118/158 117/159 24/160
f 23/155 24/161 123/162 121/156
f 24/163 117/140 116/139 123/164
f 25/165 124/166 125/167 126/168
f 128/169 129/170 124/166 25/165
f 25/165 126/168 127/171 128/169
f 26/172 130/173 129/174 128/175
f 27/46 131/176 130/177 26/178
f 26/172 128/175 55/179 27/180
f 11/181 132/182 133/183 134/184
f 134/184 135/185 136/186 11/181
f 134/184 133/183 137/187 138/188
f 134/184 138/188 139/189 135/185
f 139/189 140/190 141/191 135/185
f 139/189 138/188 142/192 143/193
f 139/189 143/193 144/194 140/190
f 144/195 145/196 146/197 140/198
f 144/194 143/193 147/199 148/200
f 144/195 148/201 149/202 145/196
f 149/203 150/204 151/205 145/206
f 149/202 148/201 152/207 18/123
f 149/203 18/127 109/130 150/204
f 151/205 153/208 154/209 155/210
f 151/211 155/212 146/197 145/196
f 151/205 150/204 156/213 153/208
f 156/213 157/214 158/215 153/208
f 156/213 150/204 109/130 159/216
f 156/213 159/216 160/217 157/214
f 160/218 127/171 126/168 157/219
f 160/217 159/216 161/220 162/221
f 160/218 162/222 163/223 127/171
f 163/223 164/224 128/169 127/171
f 163/223 162/222 165/225 166/226
f 163/223 166/226 167/227 164/224
f 167/228 168/229 169/230 164/231
f 167/227 166/226 21/232 119/233
f 167/228 119/154 22/153 168/229
f 169/234 170/235 6/44 55/47
f 169/230 55/179 128/175 164/231
f 169/230 168/229 171/236 170/237
f 171/236 172/238 173/239 170/237
f 171/240 168/241 22/242 121/243
f 171/240 121/243 123/164 172/244
f 173/245 174/246 9/64 58/50
f 173/245 58/50 6/44 170/235
f 173/245 172/244 175/247 174/246
f 175/247 176/248 177/249 174/246
f 175/247 172/244 123/164 116/139
f 175/247 116/139 115/138 176/248
f 177/250 106/251 105/252 72/253
f 177/249 72/68 9/64 174/246
f 177/250 176/254 111/255 106/251
f 176/254 115/144 112/143 111/255
f 166/256 165/257 120/150 21/149
f 165/257 162/221 161/220 178/258
f 165/257 178/258 122/157 120/150
f 178/258 161/220 108/129 179/259
f 178/258 179/259 114/260 122/157
f 179/259 108/129 107/128 110/261
f 179/259 110/261 19/262 114/260
f 161/220 159/216 109/130 108/129
f 158/263 180/264 181/265 182/266
f 158/215 182/267 154/209 153/208
f 158/268 157/219 126/168 180/269
f 182/266 181/265 183/270 184/271
f 182/267 184/272 185/273 154/209
f 185/273 184/272 186/274 187/275
f 185/273 187/275 188/276 189/277
f 185/273 189/277 155/210 154/209
f 189/277 188/276 190/278 191/279
f 189/280 191/281 146/197 155/212
f 191/279 190/278 192/282 141/191
f 191/279 141/191 140/190 146/283
f 188/276 187/275 193/284 194/285
f 188/276 194/285 195/286 190/278
f 194/285 193/284 196/287 197/288
f 194/285 197/288 198/289 195/286
f 198/289 197/288 77/75 76/74
f 198/290 76/291 199/292 200/293
f 198/290 200/293 201/294 195/295
f 200/296 199/297 202/298 203/299
f 200/296 203/299 204/300 201/301
f 204/300 203/299 205/302 206/303
f 204/300 206/303 207/304 208/305
f 204/300 208/305 209/306 201/301
f 208/305 207/304 56/48 59/51
f 208/305 59/51 71/67 209/306
f 207/304 52/42 57/49 56/48
f 207/304 206/303 53/43 52/42
f 206/303 205/302 210/307 53/43
f 210/307 205/302 211/308 65/58
f 210/307 65/58 64/57 212/309
f 210/307 212/309 4/40 53/43
f 212/310 64/311 213/312 214/313
f 212/314 214/315 47/316 4/317
f 214/318 213/319 215/320 216/321
f 214/322 216/323 217/324 47/35
f 217/324 216/323 196/287 193/284
f 217/324 193/284 187/275 186/274
f 217/324 186/274 48/36 47/35
f 216/323 215/325 78/76 196/287
f 215/320 213/319 68/326 218/327
f 215/325 218/328 74/71 78/76
f 218/329 68/63 67/62 60/330
f 218/331 60/332 7/333 74/334
f 213/335 64/57 8/56 68/336
f 211/308 202/298 63/55 62/54
f 211/308 62/54 66/59 65/58
f 211/308 205/302 203/299 202/298
f 202/337 199/338 219/339 63/340
f 199/292 76/291 75/341 219/342
f 197/288 196/287 78/76 77/75
f 186/274 184/272 183/343 48/36
f 183/343 220/344 49/37 48/36
f 183/343 181/345 221/346 220/344
f 221/346 222/347 223/348 220/344
f 221/349 181/350 180/269 224/351
f 221/346 224/352 225/353 222/347
f 225/353 226/354 227/355 222/347
f 225/353 224/352 125/356 228/357
f 225/353 228/357 229/358 226/354
f 229/358 230/359 231/360 226/354
f 229/358 228/357 232/361 233/362
f 229/358 233/362 234/363 230/359
f 234/363 235/364 236/365 230/359
f 234/363 233/362 237/366 238/367
f 234/363 238/367 239/368 235/364
f 239/368 240/369 241/370 235/364
f 239/371 238/372 242/373 243/374
f 239/371 243/374 244/375 240/376
f 244/375 245/377 246/378 240/376
f 244/379 243/380 247/381 248/382
f 244/379 248/382 249/383 245/384
f 249/383 250/385 251/386 245/384
f 249/383 248/382 252/387 253/388
f 249/383 253/388 254/389 250/385
f 254/389 255/390 256/391 250/385
f 254/389 253/388 257/392 258/393
f 254/389 258/393 259/394 255/390
f 259/394 260/395 261/396 255/390
f 259/394 258/393 262/397 263/398
f 259/394 263/398 264/399 260/395
f 264/399 265/400 266/401 260/395
f 264/399 263/398 267/402 268/403
f 264/399 268/403 269/404 265/400
f 269/404 35/9 34/8 265/400
f 269/404 268/403 270/405 271/406
f 269/404 271/406 272/407 35/9
f 272/407 273/408 36/10 35/9
f 272/407 271/406 274/409 275/410
f 272/407 275/410 276/411 273/408
f 276/411 277/412 278/413 273/408
f 276/414 275/415 279/416 280/417
f 276/418 280/419 281/420 277/421
f 281/420 39/14 38/13 277/421
f 281/422 280/423 282/424 283/425
f 281/420 283/426 44/33 39/14
f 283/425 282/424 30/4 29/3
f 283/425 29/3 45/26 44/25
f 282/424 280/423 279/427 284/428
f 282/424 284/428 31/5 30/4
f 284/428 279/427 285/429 286/430
f 284/428 286/430 287/431 31/5
f 287/431 286/430 288/432 289/433
f 287/431 289/433 290/434 291/435
f 287/431 291/435 32/6 31/5
f 291/435 290/434 292/436 293/437
f 291/435 293/437 33/7 32/6
f 293/437 292/436 294/438 295/439
f 293/437 295/439 296/440 33/7
f 296/440 297/441 28/2 33/7
f 296/440 295/439 298/442 299/443
f 296/440 299/443 300/444 297/441
f 300/444 46/27 45/26 297/441
f 300/445 299/446 301/447 302/448
f 300/449 302/450 41/30 46/29
f 302/450 301/451 303/452 304/453
f 302/450 304/453 42/454 41/30
f 304/455 303/456 305/457 306/458
f 304/455 306/458 43/22 42/21
f 306/458 305/457 307/459 308/460
f 306/458 308/460 278/413 43/22
f 308/460 307/459 37/11 36/10
f 308/460 36/10 273/408 278/413
f 307/459 305/457 309/461 310/462
f 307/459 310/462 266/401 37/11
f 310/462 309/461 311/463 261/396
f 310/462 261/396 260/395 266/401
f 311/463 309/461 312/464 313/465
f 311/463 313/465 314/466 256/391
f 311/463 256/391 255/390 261/396
f 314/467 313/468 315/469 316/470
f 314/467 316/470 317/471 251/472
f 314/466 251/386 250/385 256/391
f 317/473 316/474 318/475 319/476
f 317/473 319/476 320/477 246/478
f 317/471 246/378 245/377 251/472
f 320/477 319/476 321/479 322/480
f 320/477 322/480 323/481 241/370
f 320/477 241/370 240/369 246/478
f 323/481 322/480 324/482 325/483
f 323/481 325/483 326/484 236/365
f 323/481 236/365 235/364 241/370
f 326/484 325/483 327/485 328/486
f 326/484 328/486 329/487 231/360
f 326/484 231/360 230/359 236/365
f 329/487 328/486 330/488 331/489
f 329/487 331/489 332/490 227/355
f 329/487 227/355 226/354 231/360
f 332/490 331/489 333/491 334/492
f 332/490 334/492 335/493 223/348
f 332/490 223/348 222/347 227/355
f 335/493 334/492 336/494 337/495
f 335/493 337/495 50/38 49/37
f 335/493 49/37 220/344 223/348
f 337/496 336/497 338/498 339/499
f 337/496 339/499 5/500 50/501
f 339/502 338/503 340/504 341/505
f 339/502 341/505 4/40 5/506
f 341/505 340/504 342/507 343/508
f 341/505 343/508 51/41 4/40
f 343/508 342/507 344/509 345/510
f 343/508 345/510 346/511 51/41
f 346/511 345/510 347/512 348/513
f 346/511 348/513 54/45 57/49
f 346/511 57/49 52/42 51/41
f 348/513 347/512 349/514 131/176
f 348/513 131/176 27/46 54/45
f 349/514 350/515 351/516 352/517
f 349/514 352/517 130/177 131/176
f 349/514 347/512 353/518 350/515
f 353/518 354/519 355/520 350/515
f 353/518 347/512 345/510 344/509
f 353/518 344/509 356/521 354/519
f 356/521 357/522 358/523 354/519
f 356/521 344/509 342/507 359/524
f 356/521 359/524 360/525 357/522
f 360/525 361/526 362/527 357/522
f 360/525 359/524 363/528 364/529
f 360/525 364/529 365/530 361/526
f 365/530 366/531 367/532 361/526
f 365/530 364/529 368/533 369/534
f 365/530 369/534 370/535 366/531
f 370/535 371/536 372/537 366/531
f 370/535 369/534 373/538 374/539
f 370/535 374/539 375/540 371/536
f 375/540 376/541 377/542 371/536
f 375/543 374/544 378/545 379/546
f 375/543 379/546 380/547 376/548
f 380/547 381/549 382/550 376/548
f 380/551 379/552 383/553 384/554
f 380/551 384/554 288/432 381/555
f 384/554 383/553 385/556 386/557
f 384/554 386/557 289/433 288/432
f 386/557 385/556 387/558 388/559
f 386/557 388/559 290/434 289/433
f 388/559 387/558 389/560 390/561
f 388/559 390/561 292/436 290/434
f 390/561 389/560 321/479 391/562
f 390/561 391/562 294/438 292/436
f 391/562 321/479 319/476 318/475
f 391/562 318/475 392/563 294/438
f 392/563 298/442 295/439 294/438
f 392/563 318/475 316/474 315/564
f 392/563 315/564 393/565 298/442
f 393/566 301/447 299/446 298/567
f 393/568 315/469 313/468 312/569
f 393/568 312/569 303/452 301/451
f 389/560 387/558 394/570 324/482
f 389/560 324/482 322/480 321/479
f 394/570 387/558 385/556 395/571
f 394/570 395/571 396/572 327/485
f 394/570 327/485 325/483 324/482
f 396/572 395/571 397/573 398/574
f 396/572 398/574 399/575 330/488
f 396/572 330/488 328/486 327/485
f 399/575 398/574 400/576 401/577
f 399/575 401/577 402/578 333/491
f 399/575 333/491 331/489 330/488
f 402/579 401/580 403/581 404/582
f 402/578 336/494 334/492 333/491
f 402/583 404/584 405/585
f 402/586 405/587 406/588 407/589
f 402/590 407/591 404/592 408/593
f 402/594 408/595 338/503 336/596
f 408/595 368/533 364/529 363/528
f 408/595 363/528 340/504 338/503
f 408/595 404/597 403/598 368/533
f 403/598 373/538 369/534 368/533
f 403/581 401/580 400/599 373/600
f 400/599 378/545 374/544 373/600
f 400/576 398/574 397/573 378/601
f 397/573 383/553 379/552 378/601
f 397/573 395/571 385/556 383/553
f 382/602 274/409 271/406 270/405
f 382/602 270/405 377/542 376/541
f 382/550 381/549 285/603 274/604
f 381/555 288/432 286/430 285/429
f 377/542 270/405 268/403 267/402
f 377/542 267/402 372/537 371/536
f 372/537 267/402 263/398 262/397
f 372/537 262/397 367/532 366/531
f 367/532 262/397 258/393 257/392
f 367/532 257/392 362/527 361/526
f 363/528 359/524 342/507 340/504
f 362/527 257/392 253/388 252/387
f 362/527 252/387 358/523 357/522
f 358/523 252/387 248/382 247/381
f 358/523 247/381 355/520 354/519
f 355/520 247/381 243/380 242/605
f 355/520 242/605 351/516 350/515
f 352/606 351/607 237/608 409/609
f 352/606 409/609 129/610 130/611
f 409/612 237/366 233/362 232/361
f 409/613 232/614 124/166 129/170
f 351/607 242/373 238/372 237/608
f 312/464 309/461 305/457 303/456
f 297/441 45/26 29/3 28/2
f 285/603 279/416 275/415 274/604
f 278/413 277/412 38/23 43/22
f 266/401 265/400 34/8 37/11
f 232/361 228/357 125/356 124/615
f 224/351 180/269 126/168 125/167
f 148/200 147/199 410/616 152/617
f 410/616 147/199 411/618 412/619
f 410/616 412/619 413/620 414/621
f 410/616 414/621 415/622 152/617
f 414/623 413/624 416/625 417/626
f 414/623 417/626 418/627 415/628
f 416/625 413/624 419/629 420/630
f 416/625 420/630 421/631 422/632
f 416/625 422/632 423/633 417/626
f 422/634 421/635 424/636 425/637
f 422/634 425/637 426/638 423/639
f 426/638 73/69 427/640 423/639
f 426/638 425/637 428/641 429/642
f 426/638 429/642 69/65 73/69
f 429/642 428/641 430/643 431/644
f 429/642 431/644 70/66 69/65
f 431/644 430/643 432/645 433/646
f 431/644 433/646 434/647 70/66
f 433/646 432/645 435/648 436/649
f 433/646 436/649 437/650 434/647
f 436/649 435/648 438/651 439/652
f 436/649 439/652 440/653 437/650
f 439/652 438/651 11/654 136/655
f 439/656 136/657 192/658 440/659
f 435/648 432/645 441/660 442/661
f 442/661 441/660 443/662 444/663
f 444/663 443/662 445/664 446/665
f 444/663 446/665 447/666 448/667
f 447/666 446/665 449/668 450/669
f 447/670 450/671 451/672 452/673
f 447/670 452/673 453/674 448/675
f 452/676 451/677 454/678 455/679
f 452/676 455/679 456/680 453/681
f 456/680 132/182 457/682 453/681
f 456/680 455/679 458/683 459/684
f 456/680 459/684 133/183 132/182
f 459/684 458/683 460/685 461/686
f 459/684 461/686 137/187 133/183
f 461/686 460/685 462/687 463/688
f 461/686 463/688 464/689 137/187
f 464/689 142/192 138/188 137/187
f 464/689 463/688 465/690 466/691
f 464/689 466/691 411/618 142/192
f 466/691 465/690 467/692 468/693
f 466/691 468/693 412/619 411/618
f 468/693 467/692 469/694 419/695
f 468/693 419/695 413/620 412/619
f 469/694 467/692 470/696 471/697
f 469/698 471/699 472/700 473/701
f 469/698 473/701 420/630 419/629
f 473/702 472/703 474/704 475/705
f 473/701 475/706 421/631 420/630
f 475/707 474/708 476/709 477/710
f 475/707 477/710 424/636 421/635
f 477/710 476/709 478/711 479/712
f 477/710 479/712 480/713 424/636
f 480/713 428/641 425/637 424/636
f 480/713 479/712 481/714 482/715
f 480/713 482/715 430/643 428/641
f 482/715 481/714 443/662 441/660
f 482/715 441/660 432/645 430/643
f 481/714 479/712 478/711 483/716
f 481/714 483/716 445/664 443/662
f 483/716 478/711 484/717 485/718
f 483/716 485/718 486/719 445/664
f 486/719 485/718 487/720 488/721
f 486/719 488/721 489/722 449/668
f 486/719 449/668 446/665 445/664
f 489/722 488/721 490/723 491/724
f 489/722 491/724 492/725 493/726
f 489/722 493/726 450/669 449/668
f 493/727 492/728 494/729 495/730
f 493/727 495/730 451/672 450/671
f 495/731 494/732 496/733 497/734
f 495/731 497/734 454/678 451/677
f 497/734 496/733 498/735 499/736
f 497/734 499/736 500/737 454/678
f 500/737 458/683 455/679 454/678
f 500/737 499/736 501/738 502/739
f 500/737 502/739 460/685 458/683
f 502/739 501/738 503/740 504/741
f 502/739 504/741 462/687 460/685
f 504/741 503/740 505/742 506/743
f 504/741 506/743 507/744 462/687
f 507/744 465/690 463/688 462/687
f 507/744 506/743 508/745 470/696
f 507/744 470/696 467/692 465/690
f 508/745 506/743 505/742 509/746
f 508/745 509/746 510/747 511/748
f 508/745 511/748 471/697 470/696
f 511/749 510/750 512/751 513/752
f 511/749 513/752 472/700 471/699
f 513/753 512/754 514/755 515/756
f 513/753 515/756 474/704 472/703
f 515/757 514/758 516/759 517/760
f 515/757 517/760 476/709 474/708
f 517/760 516/759 518/761 484/717
f 517/760 484/717 478/711 476/709
f 518/761 516/759 519/762 520/763
f 518/761 520/763 521/764 487/720
f 518/761 487/720 485/718 484/717
f 521/764 520/763 522/765 523/766
f 521/764 523/766 524/767 490/723
f 521/764 490/723 488/721 487/720
f 524/767 523/766 525/768 526/769
f 524/767 526/769 527/770 528/771
f 524/767 528/771 491/724 490/723
f 528/771 527/770 529/772 530/773
f 528/771 530/773 492/725 491/724
f 530/774 529/775 531/776 532/777
f 530/774 532/777 494/729 492/728
f 532/778 531/779 533/780 534/781
f 532/778 534/781 496/733 494/732
f 534/781 533/780 535/782 536/783
f 534/781 536/783 498/735 496/733
f 536/783 535/782 537/784 538/785
f 536/783 538/785 539/786 498/735
f 539/786 501/738 499/736 498/735
f 539/786 538/785 540/787 541/788
f 539/786 541/788 503/740 501/738
f 541/788 540/787 542/789 543/790
f 541/788 543/790 505/742 503/740
f 543/790 542/789 544/791 545/792
f 543/790 545/792 509/746 505/742
f 545/792 544/791 546/793 547/794
f 545/792 547/794 510/747 509/746
f 547/795 546/796 548/797 549/798
f 547/795 549/798 512/751 510/750
f 549/799 548/800 550/801 551/802
f 549/799 551/802 514/758 512/803
f 551/802 550/801 552/804 519/762
f 551/802 519/762 516/759 514/758
f 552/804 550/801 553/805 554/806
f 552/804 554/806 555/807 522/765
f 552/804 522/765 520/763 519/762
f 555/807 554/806 556/808 557/809
f 555/807 557/809 558/810 525/768
f 555/807 525/768 523/766 522/765
f 558/810 557/809 89/98 93/102
f 558/810 93/102 80/79 559/811
f 558/810 559/811 526/769 525/768
f 559/811 80/79 79/78 560/812
f 559/811 560/812 527/770 526/769
f 560/812 79/78 13/813 561/814
f 560/812 561/814 529/772 527/770
f 561/815 13/816 83/817 562/818
f 561/815 562/818 531/776 529/775
f 562/819 83/820 563/821 564/822
f 562/819 564/822 533/780 531/779
f 564/822 563/821 102/120 565/823
f 564/822 565/823 535/782 533/780
f 565/823 102/120 101/119 566/824
f 565/823 566/824 537/784 535/782
f 566/824 101/119 100/118 567/825
f 566/824 567/825 568/826 537/784
f 568/826 540/787 538/785 537/784
f 568/826 567/825 569/827 570/828
f 568/826 570/828 542/789 540/787
f 570/828 569/827 571/829 572/830
f 570/828 572/830 544/791 542/789
f 572/830 571/829 573/831 574/832
f 572/830 574/832 546/793 544/791
f 574/833 573/834 575/835 576/836
f 574/833 576/836 548/797 546/796
f 576/837 575/838 577/839 553/805
f 576/837 553/805 550/801 548/800
f 577/839 575/838 578/840 579/841
f 577/839 579/841 90/99 556/808
f 577/839 556/808 554/806 553/805
f 579/841 578/840 580/842 581/843
f 579/841 581/843 91/100 90/99
f 581/843 580/842 84/107 95/106
f 581/843 95/106 94/103 91/100
f 580/844 578/845 582/846 583/847
f 580/844 583/847 85/91 84/90
f 583/847 582/846 584/848 585/849
f 583/847 585/849 96/109 85/91
f 585/850 584/851 586/852 587/853
f 585/850 587/853 97/112 96/111
f 587/853 586/852 100/118 99/117
f 587/853 99/117 104/122 97/112
f 586/852 569/827 567/825 100/118
f 586/852 584/851 571/829 569/827
f 584/848 582/846 573/834 571/854
f 582/846 578/845 575/835 573/834
f 563/821 83/820 82/855 588/856
f 563/821 588/856 103/121 102/120
f 588/857 82/858 589/859 590/860
f 588/856 590/861 104/122 103/121
f 590/860 589/859 87/95 98/115
f 590/861 98/113 97/112 104/122
f 589/862 591/863 88/105 87/864
f 589/862 82/865 81/80 591/863
f 591/863 94/103 95/106 88/105
f 591/863 81/80 92/101 94/103
f 557/809 556/808 90/99 89/98
f 411/618 147/199 143/193 142/192
f 141/191 192/282 136/186 135/185
f 122/157 114/260 113/866 118/158
f 111/133 110/132 107/126 106/125
f 105/252 427/867 73/868 72/253
f 93/102 92/101 81/80 80/79
f 457/869 132/870 11/654 438/651
f 434/647 209/306 71/67 70/66
f 67/871 66/59 62/54 61/53
f 219/342 75/341 7/872 63/873
f 7/52 60/874 67/871 61/53
f 405/875 404/876 407/877
f 418/627 417/626 423/633 427/878
f 152/207 415/879 105/124 18/123
f 415/880 418/881 427/867 105/252
f 195/286 192/282 190/278
f 195/882 201/883 440/659 192/658
f 201/301 209/306 437/650 440/653
f 209/306 434/647 437/650
f 442/884 444/885 448/886 592/887
f 448/667 453/888 457/869 592/889
f 457/869 442/661 592/889
f 457/869 438/651 435/648 442/661
f 593/890 597/891 598/892 599/893
f 594/894 600/895 601/896 602/897
f 595/898 602/897 601/896 603/899
f 596/900 604/901 598/892 597/891
f 604/901 605/902 606/903 598/892
f 606/903 607/904 608/905 609/906
f 606/903 609/906 599/893 598/892
f 606/903 605/902 610/907 607/904
f 610/907 603/899 601/896 607/904
f 608/905 607/904 601/896 600/895
f 611/908 615/909 616/910 617/911
f 612/912 618/913 619/914 620/915
f 613/916 617/911 616/910 621/917
f 614/918 622/919 619/914 618/913
f 622/919 623/920 624/921 619/914
f 624/921 616/910 615/909 625/922
f 624/921 625/922 620/915 619/914
f 624/921 623/920 621/917 616/910
f 626/923 630/924 631/925 629/926
f 627/927 628/928 631/925 630/924
f 632/929 636/930 637/931 638/932
f 633/933 639/934 640/935 641/936
f 634/937 642/938 640/935 639/934
f 635/939 638/932 637/931 643/940
f 643/940 637/931 644/941 645/942
f 645/942 644/941 646/943 647/944
f 647/944 646/943 640/935 642/938
f 646/943 648/945 641/936 640/935
f 646/943 644/941 649/946 648/945
f 649/946 644/941 637/931 636/930
