# This file uses centimeters as units for non-parametric coordinates.

mtllib SprotV1.mtl
g default
v 0.020567 -0.008409 -0.012636
v 0.017063 -0.008409 -0.016640
v -0.002543 -0.008409 -0.022585
v -0.016687 -0.008409 -0.019831
v -0.025308 -0.008409 -0.012654
v -0.026411 -0.008409 -0.008210
v -0.021730 -0.008409 0.000305
v -0.002359 -0.008409 0.006440
v 0.011957 -0.008409 0.003547
v 0.021015 0.424270 -0.012839
v 0.017588 0.424270 -0.016905
v -0.001934 0.424270 -0.022918
v -0.016117 0.424270 -0.020132
v -0.024883 0.424270 -0.012839
v -0.026064 0.424270 -0.008331
v -0.021456 0.424270 0.000242
v -0.001934 0.424270 0.006255
v 0.012250 0.424270 0.003469
v 0.021015 0.424270 -0.003824
v 0.020716 -0.008409 -0.003741
v 0.035566 0.083444 -0.008648
v 0.035564 0.083390 0.000455
v 0.026796 0.083329 0.007848
v 0.012611 0.083302 0.010677
v -0.006909 0.083342 0.004599
v -0.011515 0.083410 -0.004086
v -0.010333 0.083440 -0.008641
v -0.001567 0.083440 -0.015934
v 0.012614 0.083366 -0.018600
v 0.032139 0.083452 -0.012728
v 0.018901 0.172374 -0.018318
v 0.019173 0.172378 -0.009529
v 0.010561 0.172365 -0.002339
v -0.003664 0.172355 0.000497
v -0.023195 0.172374 -0.005539
v -0.028041 0.172378 -0.013928
v -0.026997 0.172374 -0.018318
v -0.018384 0.172355 -0.025457
v -0.004259 0.172355 -0.028195
v 0.015374 0.172365 -0.022289
v 0.004207 0.259862 -0.010714
v 0.004249 0.259862 -0.001698
v -0.004475 0.259862 0.005595
v -0.018680 0.259862 0.008381
v -0.038264 0.259862 0.002368
v -0.042872 0.259862 -0.006206
v -0.041683 0.259862 -0.010714
v -0.032879 0.259862 -0.018007
v -0.018659 0.259862 -0.020793
v 0.000809 0.259862 -0.014780
v 0.026222 0.343778 -0.012736
v 0.026222 0.343778 -0.003721
v 0.017456 0.343778 0.003572
v 0.003272 0.343778 0.006358
v -0.016249 0.343778 0.000345
v -0.020858 0.343778 -0.008228
v -0.019677 0.343778 -0.012736
v -0.010911 0.343778 -0.020029
v 0.003272 0.343778 -0.022815
v 0.022794 0.343778 -0.016802
v 0.004260 0.419725 -0.014177
v 0.002507 0.420947 -0.013422
v 0.001116 0.421918 -0.012247
v 0.000222 0.422540 -0.010766
v -0.000085 0.422755 -0.009124
v 0.000222 0.422540 -0.007482
v 0.001116 0.421918 -0.006001
v 0.002507 0.420947 -0.004826
v 0.005162 0.419095 -0.004071
v 0.006203 0.418369 -0.003811
v 0.007244 0.417643 -0.004071
v 0.009899 0.415791 -0.004826
v 0.011291 0.414821 -0.006001
v 0.012184 0.414198 -0.007482
v 0.012492 0.413983 -0.009124
v 0.012184 0.414198 -0.010766
v 0.011291 0.414821 -0.012247
v 0.009899 0.415791 -0.013422
v 0.008146 0.417014 -0.014177
v 0.006203 0.418369 -0.014437
v 0.006097 0.430363 -0.023787
v 0.000947 0.433955 -0.021638
v -0.003144 0.436808 -0.018227
v -0.005769 0.438638 -0.014018
v -0.006671 0.439268 -0.009372
v -0.005758 0.438631 -0.004795
v -0.003131 0.436799 -0.000742
v 0.000956 0.433948 0.002409
v 0.008748 0.428514 0.004395
v 0.011796 0.426388 0.005072
v 0.014844 0.424262 0.004395
v 0.022636 0.418828 0.002409
v 0.026723 0.415977 -0.000742
v 0.029350 0.414145 -0.004795
v 0.030263 0.413508 -0.009372
v 0.029360 0.414138 -0.014018
v 0.026736 0.415968 -0.018227
v 0.022645 0.418821 -0.021638
v 0.017495 0.422413 -0.023787
v 0.011796 0.426388 -0.024542
v 0.013136 0.448125 -0.033184
v 0.004749 0.453975 -0.029896
v -0.002018 0.458695 -0.024811
v -0.006386 0.461741 -0.018540
v -0.007892 0.462791 -0.011821
v -0.006386 0.461741 -0.005434
v -0.002028 0.458701 -0.000056
v 0.004717 0.453997 0.003874
v 0.017454 0.445113 0.008408
v 0.022434 0.441641 -0.001543
v 0.027413 0.438168 0.008408
v 0.040150 0.429284 0.003874
v 0.046895 0.424580 -0.000056
v 0.051253 0.421540 -0.005434
v 0.052759 0.420490 -0.011821
v 0.051253 0.421540 -0.018540
v 0.046886 0.424587 -0.024811
v 0.040119 0.429306 -0.029896
v 0.031731 0.435156 -0.033184
v 0.022434 0.441641 -0.034360
v 0.030782 0.484896 -0.047321
v 0.017540 0.494132 -0.042929
v 0.007028 0.501463 -0.036351
v 0.000281 0.506169 -0.028579
v -0.002061 0.507802 -0.020797
v 0.000283 0.506168 -0.014179
v 0.007030 0.501462 -0.009568
v 0.017553 0.494123 -0.007125
v 0.037606 0.480137 -0.004064
v 0.045462 0.474658 -0.014631
v 0.053318 0.469179 -0.004064
v 0.073371 0.455193 -0.007125
v 0.083893 0.447854 -0.009568
v 0.090640 0.443148 -0.014179
v 0.092984 0.441514 -0.020797
v 0.090643 0.443147 -0.028579
v 0.083895 0.447853 -0.036351
v 0.073384 0.455184 -0.042929
v 0.060141 0.464420 -0.047321
v 0.045462 0.474658 -0.048863
v 0.047099 0.511613 -0.051411
v 0.032450 0.521830 -0.046783
v 0.020825 0.529938 -0.039914
v 0.013361 0.535143 -0.031917
v 0.010790 0.536937 -0.024108
v 0.013362 0.535143 -0.017765
v 0.020825 0.529937 -0.013754
v 0.032450 0.521830 -0.012112
v 0.054641 0.506353 -0.009757
v 0.063337 0.500288 -0.020609
v 0.072034 0.494222 -0.009757
v 0.094224 0.478746 -0.012112
v 0.105849 0.470638 -0.013754
v 0.113313 0.465432 -0.017765
v 0.115885 0.463638 -0.024108
v 0.113313 0.465432 -0.031917
v 0.105849 0.470638 -0.039914
v 0.094224 0.478746 -0.046783
v 0.079575 0.488962 -0.051411
v 0.063337 0.500288 -0.053044
v 0.066533 0.536156 -0.047321
v 0.053291 0.545392 -0.042929
v 0.042779 0.552723 -0.036351
v 0.036032 0.557429 -0.028579
v 0.033690 0.559062 -0.020797
v 0.036034 0.557427 -0.014180
v 0.042781 0.552721 -0.009568
v 0.053303 0.545383 -0.007125
v 0.073357 0.531396 -0.004064
v 0.081213 0.525917 -0.014631
v 0.089068 0.520438 -0.004064
v 0.109122 0.506452 -0.007125
v 0.119644 0.499113 -0.009568
v 0.126391 0.494408 -0.014180
v 0.128735 0.492773 -0.020797
v 0.126394 0.494406 -0.028579
v 0.119646 0.499112 -0.036351
v 0.109135 0.506443 -0.042929
v 0.095892 0.515679 -0.047321
v 0.081213 0.525917 -0.048863
v 0.094943 0.565419 -0.033184
v 0.086555 0.571269 -0.029896
v 0.079789 0.575989 -0.024811
v 0.075421 0.579035 -0.018540
v 0.073915 0.580085 -0.011821
v 0.075421 0.579035 -0.005434
v 0.079779 0.575996 -0.000056
v 0.086524 0.571291 0.003874
v 0.099261 0.562408 0.008408
v 0.104241 0.558935 -0.001543
v 0.109220 0.555462 0.008408
v 0.121957 0.546579 0.003874
v 0.128702 0.541874 -0.000056
v 0.133060 0.538835 -0.005434
v 0.134566 0.537784 -0.011821
v 0.133060 0.538835 -0.018540
v 0.128693 0.541881 -0.024811
v 0.121926 0.546600 -0.029896
v 0.113538 0.552450 -0.033184
v 0.104241 0.558935 -0.034360
v 0.109179 0.578162 -0.023787
v 0.104030 0.581754 -0.021638
v 0.099938 0.584607 -0.018227
v 0.097314 0.586438 -0.014018
v 0.096412 0.587067 -0.009372
v 0.097324 0.586430 -0.004795
v 0.099951 0.584598 -0.000742
v 0.104038 0.581748 0.002409
v 0.111830 0.576313 0.004395
v 0.114878 0.574187 0.005072
v 0.117927 0.572061 0.004395
v 0.125718 0.566627 0.002409
v 0.129805 0.563777 -0.000742
v 0.132432 0.561944 -0.004795
v 0.133345 0.561308 -0.009372
v 0.132443 0.561937 -0.014018
v 0.129818 0.563768 -0.018227
v 0.125727 0.566621 -0.021638
v 0.120577 0.570213 -0.023787
v 0.114878 0.574187 -0.024542
v 0.118528 0.583561 -0.014177
v 0.116775 0.584784 -0.013422
v 0.115384 0.585754 -0.012247
v 0.114490 0.586377 -0.010766
v 0.114183 0.586592 -0.009124
v 0.114490 0.586377 -0.007482
v 0.115384 0.585754 -0.006001
v 0.116775 0.584784 -0.004826
v 0.119430 0.582932 -0.004071
v 0.120471 0.582206 -0.003811
v 0.121512 0.581480 -0.004071
v 0.124167 0.579628 -0.004826
v 0.125558 0.578658 -0.006001
v 0.126452 0.578035 -0.007482
v 0.126760 0.577820 -0.009124
v 0.126452 0.578035 -0.010766
v 0.125558 0.578658 -0.012247
v 0.124167 0.579628 -0.013422
v 0.122414 0.580851 -0.014177
v 0.120471 0.582206 -0.014437
v 0.005491 0.417348 -0.009124
v 0.121183 0.583227 -0.009124
v -0.019278 0.421779 -0.014177
v -0.020925 0.420418 -0.013422
v -0.022233 0.419337 -0.012247
v -0.023073 0.418644 -0.010766
v -0.023362 0.418405 -0.009124
v -0.023073 0.418644 -0.007482
v -0.022233 0.419337 -0.006001
v -0.020925 0.420418 -0.004826
v -0.018429 0.422480 -0.004071
v -0.017451 0.423288 -0.003811
v -0.016473 0.424096 -0.004071
v -0.013977 0.426158 -0.004826
v -0.012669 0.427238 -0.006001
v -0.011829 0.427932 -0.007482
v -0.011540 0.428170 -0.009124
v -0.011829 0.427932 -0.010766
v -0.012669 0.427238 -0.012247
v -0.013977 0.426158 -0.013422
v -0.015624 0.424797 -0.014177
v -0.017451 0.423288 -0.014437
v -0.029034 0.426400 -0.023787
v -0.033875 0.422401 -0.021638
v -0.037720 0.419224 -0.018227
v -0.040187 0.417187 -0.014018
v -0.041035 0.416486 -0.009372
v -0.040177 0.417195 -0.004795
v -0.037708 0.419235 -0.000742
v -0.033867 0.422408 0.002409
v -0.026543 0.428458 0.004395
v -0.023677 0.430825 0.005072
v -0.020812 0.433192 0.004395
v -0.013488 0.439242 0.002409
v -0.009647 0.442415 -0.000742
v -0.007177 0.444455 -0.004795
v -0.006319 0.445164 -0.009372
v -0.007167 0.444463 -0.014018
v -0.009634 0.442425 -0.018227
v -0.013480 0.439249 -0.021638
v -0.018321 0.435250 -0.023787
v -0.023677 0.430825 -0.024542
v -0.044260 0.437942 -0.033184
v -0.052144 0.431430 -0.029896
v -0.058505 0.426175 -0.024811
v -0.062610 0.422784 -0.018540
v -0.064026 0.421615 -0.011821
v -0.062610 0.422784 -0.005434
v -0.058513 0.426168 -0.000056
v -0.052173 0.431406 0.003874
v -0.040201 0.441295 0.008408
v -0.035521 0.445162 -0.001543
v -0.030840 0.449028 0.008408
v -0.018868 0.458918 0.003874
v -0.012528 0.464156 -0.000056
v -0.008431 0.467539 -0.005434
v -0.007016 0.468709 -0.011821
v -0.008431 0.467539 -0.018540
v -0.012537 0.464148 -0.024811
v -0.018897 0.458894 -0.029896
v -0.026781 0.452381 -0.033184
v -0.035521 0.445162 -0.034360
v -0.074956 0.464799 -0.047321
v -0.087403 0.454516 -0.042929
v -0.097283 0.446354 -0.036351
v -0.103626 0.441115 -0.028579
v -0.105827 0.439297 -0.020797
v -0.103624 0.441117 -0.014179
v -0.097282 0.446356 -0.009568
v -0.087391 0.454526 -0.007125
v -0.068542 0.470097 -0.004064
v -0.061158 0.476197 -0.014631
v -0.053774 0.482297 -0.004064
v -0.034924 0.497867 -0.007125
v -0.025034 0.506038 -0.009568
v -0.018692 0.511277 -0.014179
v -0.016489 0.513096 -0.020797
v -0.018690 0.511279 -0.028579
v -0.025032 0.506039 -0.036351
v -0.034912 0.497877 -0.042929
v -0.047360 0.487595 -0.047321
v -0.061158 0.476197 -0.048863
v -0.096322 0.487679 -0.051411
v -0.110091 0.476305 -0.046783
v -0.121018 0.467278 -0.039914
v -0.128034 0.461483 -0.031917
v -0.130451 0.459486 -0.024108
v -0.128034 0.461483 -0.017765
v -0.121018 0.467278 -0.013754
v -0.110091 0.476305 -0.012112
v -0.089233 0.493535 -0.009757
v -0.081059 0.500288 -0.020609
v -0.072884 0.507040 -0.009757
v -0.052026 0.524270 -0.012112
v -0.041099 0.533297 -0.013754
v -0.034084 0.539092 -0.017765
v -0.031666 0.541089 -0.024108
v -0.034084 0.539092 -0.031917
v -0.041099 0.533297 -0.039914
v -0.052026 0.524270 -0.046783
v -0.065795 0.512896 -0.051411
v -0.081059 0.500288 -0.053044
v -0.114757 0.512980 -0.047321
v -0.127205 0.502698 -0.042929
v -0.137085 0.494536 -0.036351
v -0.143428 0.489297 -0.028579
v -0.145628 0.487479 -0.020797
v -0.143426 0.489298 -0.014180
v -0.137083 0.494538 -0.009568
v -0.127193 0.502708 -0.007125
v -0.108344 0.518279 -0.004064
v -0.100959 0.524379 -0.014631
v -0.093575 0.530478 -0.004064
v -0.074726 0.546049 -0.007125
v -0.064836 0.554219 -0.009568
v -0.058493 0.559459 -0.014180
v -0.056290 0.561278 -0.020797
v -0.058491 0.559460 -0.028579
v -0.064834 0.554221 -0.036351
v -0.074714 0.546059 -0.042929
v -0.087161 0.535777 -0.047321
v -0.100959 0.524379 -0.048863
v -0.135336 0.548194 -0.033184
v -0.143220 0.541682 -0.029896
v -0.149580 0.536427 -0.024811
v -0.153686 0.533036 -0.018540
v -0.155102 0.531866 -0.011821
v -0.153686 0.533036 -0.005434
v -0.149589 0.536420 -0.000056
v -0.143249 0.541657 0.003874
v -0.131277 0.551547 0.008408
v -0.126597 0.555414 -0.001543
v -0.121916 0.559280 0.008408
v -0.109944 0.569170 0.003874
v -0.103604 0.574407 -0.000056
v -0.099507 0.577791 -0.005434
v -0.098092 0.578961 -0.011821
v -0.099507 0.577791 -0.018540
v -0.103613 0.574400 -0.024811
v -0.109973 0.569146 -0.029896
v -0.117857 0.562633 -0.033184
v -0.126596 0.555414 -0.034360
v -0.143797 0.565325 -0.023787
v -0.148637 0.561327 -0.021638
v -0.152483 0.558150 -0.018227
v -0.154950 0.556112 -0.014018
v -0.155798 0.555411 -0.009372
v -0.154940 0.556120 -0.004795
v -0.152471 0.558160 -0.000742
v -0.148629 0.561333 0.002409
v -0.141305 0.567383 0.004395
v -0.138440 0.569750 0.005072
v -0.135574 0.572117 0.004395
v -0.128251 0.578167 0.002409
v -0.124409 0.581341 -0.000742
v -0.121940 0.583380 -0.004795
v -0.121082 0.584089 -0.009372
v -0.121930 0.583389 -0.014018
v -0.124397 0.581351 -0.018227
v -0.128242 0.578174 -0.021638
v -0.133083 0.574175 -0.023787
v -0.138440 0.569750 -0.024542
v -0.146493 0.575779 -0.014177
v -0.148141 0.574418 -0.013422
v -0.149448 0.573337 -0.012247
v -0.150288 0.572644 -0.010766
v -0.150577 0.572405 -0.009124
v -0.150288 0.572644 -0.007482
v -0.149448 0.573337 -0.006001
v -0.148141 0.574418 -0.004826
v -0.145644 0.576479 -0.004071
v -0.144666 0.577288 -0.003811
v -0.143688 0.578096 -0.004071
v -0.141192 0.580158 -0.004826
v -0.139884 0.581238 -0.006001
v -0.139045 0.581932 -0.007482
v -0.138755 0.582170 -0.009124
v -0.139045 0.581932 -0.010766
v -0.139884 0.581238 -0.012247
v -0.141192 0.580158 -0.013422
v -0.142839 0.578797 -0.014177
v -0.144666 0.577288 -0.014437
v -0.016658 0.422328 -0.009124
v -0.145459 0.578247 -0.009124
vt 0.648603 0.107966
vt 0.626409 0.064408
vt 0.500000 -0.000000
vt 0.408159 0.029841
vt 0.351397 0.107966
vt 0.343750 0.156250
vt 0.373591 0.248091
vt 0.500000 0.312500
vt 0.591841 0.282659
vt 0.521539 0.523011
vt 0.524728 0.523011
vt 0.534295 0.523011
vt 0.540673 0.523011
vt 0.547052 0.523011
vt 0.550241 0.523011
vt 0.556619 0.523011
vt 0.566186 0.523011
vt 0.572564 0.523011
vt 0.578942 0.523011
vt 0.585320 0.523011
vt 0.521539 0.618682
vt 0.524728 0.618682
vt 0.534295 0.618682
vt 0.540673 0.618682
vt 0.547052 0.618682
vt 0.550241 0.618682
vt 0.556619 0.618682
vt 0.566186 0.618682
vt 0.572564 0.618682
vt 0.578942 0.618682
vt 0.585320 0.618682
vt 0.592317 0.558528
vt 0.577836 0.538597
vt 0.554405 0.530984
vt 0.522155 0.547416
vt 0.514542 0.570847
vt 0.516493 0.583165
vt 0.530974 0.603096
vt 0.554405 0.610709
vt 0.586655 0.594277
vt 0.592317 0.583165
vt 0.648603 0.204534
vt 0.585320 0.543560
vt 0.521539 0.543560
vt 0.578942 0.543560
vt 0.572564 0.543560
vt 0.566186 0.543560
vt 0.556619 0.543560
vt 0.550241 0.543560
vt 0.547052 0.543560
vt 0.540673 0.543560
vt 0.534295 0.543560
vt 0.524728 0.543560
vt 0.585320 0.561875
vt 0.521539 0.561875
vt 0.578942 0.561875
vt 0.572564 0.561875
vt 0.566186 0.561875
vt 0.556619 0.561875
vt 0.550241 0.561875
vt 0.547052 0.561875
vt 0.540673 0.561875
vt 0.534295 0.561875
vt 0.524728 0.561875
vt 0.585320 0.580847
vt 0.521539 0.580847
vt 0.578942 0.580847
vt 0.572564 0.580847
vt 0.566186 0.580847
vt 0.556619 0.580847
vt 0.550241 0.580847
vt 0.547052 0.580847
vt 0.540673 0.580847
vt 0.534295 0.580847
vt 0.524728 0.580847
vt 0.585320 0.600819
vt 0.521539 0.600819
vt 0.578942 0.600819
vt 0.572564 0.600819
vt 0.566186 0.600819
vt 0.556619 0.600819
vt 0.550241 0.600819
vt 0.547052 0.600819
vt 0.540673 0.600819
vt 0.534295 0.600819
vt 0.524728 0.600819
vt 0.509463 0.445065
vt 0.513280 0.445065
vt 0.513280 0.452700
vt 0.509463 0.452700
vt 0.517098 0.445065
vt 0.517098 0.452700
vt 0.520915 0.445065
vt 0.520915 0.452700
vt 0.524733 0.445065
vt 0.524733 0.452700
vt 0.528550 0.445065
vt 0.528550 0.452700
vt 0.532368 0.445065
vt 0.532368 0.452700
vt 0.536185 0.445065
vt 0.536185 0.452700
vt 0.540003 0.445065
vt 0.540003 0.452700
vt 0.543820 0.445065
vt 0.543820 0.452700
vt 0.547638 0.445065
vt 0.547638 0.452700
vt 0.551455 0.445065
vt 0.551455 0.452700
vt 0.555273 0.445065
vt 0.555273 0.452700
vt 0.559090 0.445065
vt 0.559090 0.452700
vt 0.562908 0.445065
vt 0.562908 0.452700
vt 0.566725 0.445065
vt 0.566725 0.452700
vt 0.570543 0.445065
vt 0.570543 0.452700
vt 0.574360 0.445065
vt 0.574360 0.452700
vt 0.578178 0.445065
vt 0.578178 0.452700
vt 0.581995 0.445065
vt 0.581995 0.452700
vt 0.585813 0.445065
vt 0.585813 0.452700
vt 0.513280 0.460335
vt 0.509463 0.460335
vt 0.517098 0.460335
vt 0.520915 0.460335
vt 0.524733 0.460335
vt 0.528550 0.460335
vt 0.532368 0.460335
vt 0.536185 0.460335
vt 0.540003 0.460335
vt 0.543820 0.460335
vt 0.547638 0.460335
vt 0.551455 0.460335
vt 0.555273 0.460335
vt 0.559090 0.460335
vt 0.562908 0.460335
vt 0.566725 0.460335
vt 0.570543 0.460335
vt 0.574360 0.460335
vt 0.578178 0.460335
vt 0.581995 0.460335
vt 0.585813 0.460335
vt 0.513280 0.471788
vt 0.509463 0.471788
vt 0.517098 0.471788
vt 0.520915 0.471788
vt 0.524733 0.471788
vt 0.528550 0.471788
vt 0.532368 0.471788
vt 0.536185 0.471788
vt 0.540003 0.471788
vt 0.543820 0.471788
vt 0.547638 0.471788
vt 0.551455 0.471788
vt 0.555273 0.471788
vt 0.559090 0.471788
vt 0.562908 0.471788
vt 0.566725 0.471788
vt 0.570543 0.471788
vt 0.574360 0.471788
vt 0.578178 0.471788
vt 0.581995 0.471788
vt 0.585813 0.471788
vt 0.513280 0.479423
vt 0.509463 0.479423
vt 0.517098 0.479423
vt 0.520915 0.479423
vt 0.524733 0.479423
vt 0.528550 0.479423
vt 0.532368 0.479423
vt 0.536185 0.479423
vt 0.540003 0.479423
vt 0.543820 0.479423
vt 0.547638 0.479423
vt 0.551455 0.479423
vt 0.555273 0.479423
vt 0.559090 0.479423
vt 0.562908 0.479423
vt 0.566725 0.479423
vt 0.570543 0.479423
vt 0.574360 0.479423
vt 0.578178 0.479423
vt 0.581995 0.479423
vt 0.585813 0.479423
vt 0.513280 0.487058
vt 0.509463 0.487058
vt 0.517098 0.487058
vt 0.520915 0.487058
vt 0.524733 0.487058
vt 0.528550 0.487058
vt 0.532368 0.487058
vt 0.536185 0.487058
vt 0.540003 0.487058
vt 0.543820 0.487058
vt 0.547638 0.487058
vt 0.551455 0.487058
vt 0.555273 0.487058
vt 0.559090 0.487058
vt 0.562908 0.487058
vt 0.566725 0.487058
vt 0.570543 0.487058
vt 0.574360 0.487058
vt 0.578178 0.487058
vt 0.581995 0.487058
vt 0.585813 0.487058
vt 0.513280 0.498510
vt 0.509463 0.498510
vt 0.517098 0.498510
vt 0.520915 0.498510
vt 0.524733 0.498510
vt 0.528550 0.498510
vt 0.532368 0.498510
vt 0.536185 0.498510
vt 0.540003 0.498510
vt 0.543820 0.498510
vt 0.547638 0.498510
vt 0.551455 0.498510
vt 0.555273 0.498510
vt 0.559090 0.498510
vt 0.562908 0.498510
vt 0.566725 0.498510
vt 0.570543 0.498510
vt 0.574360 0.498510
vt 0.578178 0.498510
vt 0.581995 0.498510
vt 0.585813 0.498510
vt 0.513280 0.506145
vt 0.509463 0.506145
vt 0.517098 0.506145
vt 0.520915 0.506145
vt 0.524733 0.506145
vt 0.528550 0.506145
vt 0.532368 0.506145
vt 0.536185 0.506145
vt 0.540003 0.506145
vt 0.543820 0.506145
vt 0.547638 0.506145
vt 0.551455 0.506145
vt 0.555273 0.506145
vt 0.559090 0.506145
vt 0.562908 0.506145
vt 0.566725 0.506145
vt 0.570543 0.506145
vt 0.574360 0.506145
vt 0.578178 0.506145
vt 0.581995 0.506145
vt 0.585813 0.506145
vt 0.513280 0.513780
vt 0.509463 0.513780
vt 0.517098 0.513780
vt 0.520915 0.513780
vt 0.524733 0.513780
vt 0.528550 0.513780
vt 0.532368 0.513780
vt 0.536185 0.513780
vt 0.540003 0.513780
vt 0.543820 0.513780
vt 0.547638 0.513780
vt 0.551455 0.513780
vt 0.555273 0.513780
vt 0.559090 0.513780
vt 0.562908 0.513780
vt 0.566725 0.513780
vt 0.570543 0.513780
vt 0.574360 0.513780
vt 0.578178 0.513780
vt 0.581995 0.513780
vt 0.585813 0.513780
vt 0.511371 0.441248
vt 0.515189 0.441248
vt 0.519006 0.441248
vt 0.522824 0.441248
vt 0.526641 0.441248
vt 0.530459 0.441248
vt 0.534276 0.441248
vt 0.538094 0.441248
vt 0.541911 0.441248
vt 0.545729 0.441248
vt 0.549546 0.441248
vt 0.553364 0.441248
vt 0.557181 0.441248
vt 0.560999 0.441248
vt 0.564816 0.441248
vt 0.568634 0.441248
vt 0.572451 0.441248
vt 0.576269 0.441248
vt 0.580086 0.441248
vt 0.583904 0.441248
vt 0.511371 0.517598
vt 0.515189 0.517598
vt 0.519006 0.517598
vt 0.522824 0.517598
vt 0.526641 0.517598
vt 0.530459 0.517598
vt 0.534276 0.517598
vt 0.538094 0.517598
vt 0.541911 0.517598
vt 0.545729 0.517598
vt 0.549546 0.517598
vt 0.553364 0.517598
vt 0.557181 0.517598
vt 0.560999 0.517598
vt 0.564816 0.517598
vt 0.568634 0.517598
vt 0.572451 0.517598
vt 0.576269 0.517598
vt 0.580086 0.517598
vt 0.583904 0.517598
vt 0.509463 0.445065
vt 0.513280 0.445065
vt 0.513280 0.452700
vt 0.509463 0.452700
vt 0.517098 0.445065
vt 0.517098 0.452700
vt 0.520915 0.445065
vt 0.520915 0.452700
vt 0.524733 0.445065
vt 0.524733 0.452700
vt 0.528550 0.445065
vt 0.528550 0.452700
vt 0.532368 0.445065
vt 0.532368 0.452700
vt 0.536185 0.445065
vt 0.536185 0.452700
vt 0.540003 0.445065
vt 0.540003 0.452700
vt 0.543820 0.445065
vt 0.543820 0.452700
vt 0.547638 0.445065
vt 0.547638 0.452700
vt 0.551455 0.445065
vt 0.551455 0.452700
vt 0.555273 0.445065
vt 0.555273 0.452700
vt 0.559090 0.445065
vt 0.559090 0.452700
vt 0.562908 0.445065
vt 0.562908 0.452700
vt 0.566725 0.445065
vt 0.566725 0.452700
vt 0.570543 0.445065
vt 0.570543 0.452700
vt 0.574360 0.445065
vt 0.574360 0.452700
vt 0.578178 0.445065
vt 0.578178 0.452700
vt 0.581995 0.445065
vt 0.581995 0.452700
vt 0.585813 0.445065
vt 0.585813 0.452700
vt 0.513280 0.460335
vt 0.509463 0.460335
vt 0.517098 0.460335
vt 0.520915 0.460335
vt 0.524733 0.460335
vt 0.528550 0.460335
vt 0.532368 0.460335
vt 0.536185 0.460335
vt 0.540003 0.460335
vt 0.543820 0.460335
vt 0.547638 0.460335
vt 0.551455 0.460335
vt 0.555273 0.460335
vt 0.559090 0.460335
vt 0.562908 0.460335
vt 0.566725 0.460335
vt 0.570543 0.460335
vt 0.574360 0.460335
vt 0.578178 0.460335
vt 0.581995 0.460335
vt 0.585813 0.460335
vt 0.513280 0.471788
vt 0.509463 0.471788
vt 0.517098 0.471788
vt 0.520915 0.471788
vt 0.524733 0.471788
vt 0.528550 0.471788
vt 0.532368 0.471788
vt 0.536185 0.471788
vt 0.540003 0.471788
vt 0.543820 0.471788
vt 0.547638 0.471788
vt 0.551455 0.471788
vt 0.555273 0.471788
vt 0.559090 0.471788
vt 0.562908 0.471788
vt 0.566725 0.471788
vt 0.570543 0.471788
vt 0.574360 0.471788
vt 0.578178 0.471788
vt 0.581995 0.471788
vt 0.585813 0.471788
vt 0.513280 0.479423
vt 0.509463 0.479423
vt 0.517098 0.479423
vt 0.520915 0.479423
vt 0.524733 0.479423
vt 0.528550 0.479423
vt 0.532368 0.479423
vt 0.536185 0.479423
vt 0.540003 0.479423
vt 0.543820 0.479423
vt 0.547638 0.479423
vt 0.551455 0.479423
vt 0.555273 0.479423
vt 0.559090 0.479423
vt 0.562908 0.479423
vt 0.566725 0.479423
vt 0.570543 0.479423
vt 0.574360 0.479423
vt 0.578178 0.479423
vt 0.581995 0.479423
vt 0.585813 0.479423
vt 0.513280 0.487058
vt 0.509463 0.487058
vt 0.517098 0.487058
vt 0.520915 0.487058
vt 0.524733 0.487058
vt 0.528550 0.487058
vt 0.532368 0.487058
vt 0.536185 0.487058
vt 0.540003 0.487058
vt 0.543820 0.487058
vt 0.547638 0.487058
vt 0.551455 0.487058
vt 0.555273 0.487058
vt 0.559090 0.487058
vt 0.562908 0.487058
vt 0.566725 0.487058
vt 0.570543 0.487058
vt 0.574360 0.487058
vt 0.578178 0.487058
vt 0.581995 0.487058
vt 0.585813 0.487058
vt 0.513280 0.498510
vt 0.509463 0.498510
vt 0.517098 0.498510
vt 0.520915 0.498510
vt 0.524733 0.498510
vt 0.528550 0.498510
vt 0.532368 0.498510
vt 0.536185 0.498510
vt 0.540003 0.498510
vt 0.543820 0.498510
vt 0.547638 0.498510
vt 0.551455 0.498510
vt 0.555273 0.498510
vt 0.559090 0.498510
vt 0.562908 0.498510
vt 0.566725 0.498510
vt 0.570543 0.498510
vt 0.574360 0.498510
vt 0.578178 0.498510
vt 0.581995 0.498510
vt 0.585813 0.498510
vt 0.513280 0.506145
vt 0.509463 0.506145
vt 0.517098 0.506145
vt 0.520915 0.506145
vt 0.524733 0.506145
vt 0.528550 0.506145
vt 0.532368 0.506145
vt 0.536185 0.506145
vt 0.540003 0.506145
vt 0.543820 0.506145
vt 0.547638 0.506145
vt 0.551455 0.506145
vt 0.555273 0.506145
vt 0.559090 0.506145
vt 0.562908 0.506145
vt 0.566725 0.506145
vt 0.570543 0.506145
vt 0.574360 0.506145
vt 0.578178 0.506145
vt 0.581995 0.506145
vt 0.585813 0.506145
vt 0.513280 0.513780
vt 0.509463 0.513780
vt 0.517098 0.513780
vt 0.520915 0.513780
vt 0.524733 0.513780
vt 0.528550 0.513780
vt 0.532368 0.513780
vt 0.536185 0.513780
vt 0.540003 0.513780
vt 0.543820 0.513780
vt 0.547638 0.513780
vt 0.551455 0.513780
vt 0.555273 0.513780
vt 0.559090 0.513780
vt 0.562908 0.513780
vt 0.566725 0.513780
vt 0.570543 0.513780
vt 0.574360 0.513780
vt 0.578178 0.513780
vt 0.581995 0.513780
vt 0.585813 0.513780
vt 0.511371 0.441248
vt 0.515189 0.441248
vt 0.519006 0.441248
vt 0.522824 0.441248
vt 0.526641 0.441248
vt 0.530459 0.441248
vt 0.534276 0.441248
vt 0.538094 0.441248
vt 0.541911 0.441248
vt 0.545729 0.441248
vt 0.549546 0.441248
vt 0.553364 0.441248
vt 0.557181 0.441248
vt 0.560999 0.441248
vt 0.564816 0.441248
vt 0.568634 0.441248
vt 0.572451 0.441248
vt 0.576269 0.441248
vt 0.580086 0.441248
vt 0.583904 0.441248
vt 0.511371 0.517598
vt 0.515189 0.517598
vt 0.519006 0.517598
vt 0.522824 0.517598
vt 0.526641 0.517598
vt 0.530459 0.517598
vt 0.534276 0.517598
vt 0.538094 0.517598
vt 0.541911 0.517598
vt 0.545729 0.517598
vt 0.549546 0.517598
vt 0.553364 0.517598
vt 0.557181 0.517598
vt 0.560999 0.517598
vt 0.564816 0.517598
vt 0.568634 0.517598
vt 0.572451 0.517598
vt 0.576269 0.517598
vt 0.580086 0.517598
vt 0.583904 0.517598
vn 0.949833 -0.142766 -0.278272
vn 0.380941 -0.022837 -0.924317
vn 0.416554 -0.024014 -0.908794
vn 0.970837 0.002618 -0.239727
vn 0.069529 0.031419 -0.997085
vn 0.119531 -0.029633 -0.992388
vn -0.415456 0.106996 -0.903298
vn -0.380891 -0.033172 -0.924025
vn -0.762751 0.151766 -0.628632
vn -0.763150 -0.027212 -0.645648
vn -0.959245 0.144270 0.242973
vn -0.959977 0.000817 0.280078
vn -0.548459 0.050194 0.834670
vn -0.487979 0.026125 0.872464
vn -0.120249 -0.026646 0.992386
vn -0.068118 0.031887 0.997168
vn 0.386119 -0.105122 0.916440
vn 0.421831 0.031344 0.906132
vn 0.868437 -0.162523 0.468405
vn 0.883802 0.021013 0.467389
vn 0.000000 -1.000000 0.000000
vn 0.000000 -1.000000 0.000000
vn 0.000000 -1.000000 0.000000
vn 0.000000 -1.000000 0.000000
vn 0.000000 -1.000000 0.000000
vn 0.000000 -1.000000 0.000000
vn 0.000000 -1.000000 0.000000
vn 0.000000 -1.000000 0.000000
vn 0.000000 -1.000000 -0.000000
vn 0.000000 -1.000000 0.000000
vn 0.000000 1.000000 0.000000
vn 0.000000 1.000000 0.000000
vn 0.000000 1.000000 -0.000000
vn 0.000000 1.000000 -0.000000
vn 0.000000 1.000000 -0.000018
vn 0.000000 1.000000 0.000003
vn 0.000000 1.000000 0.000000
vn 0.000000 1.000000 0.000008
vn 0.000000 1.000000 -0.000004
vn 0.000000 1.000000 -0.000003
vn 0.945033 0.162832 -0.283548
vn 0.882598 0.166302 0.439732
vn 0.406916 0.087034 0.909310
vn -0.096777 -0.002829 0.995302
vn -0.523923 -0.088960 0.847108
vn -0.954743 -0.168346 0.245206
vn -0.750646 -0.136192 -0.646515
vn -0.393776 -0.077732 -0.915914
vn 0.091709 0.005648 -0.995770
vn 0.389389 0.051152 -0.919652
vn 0.963516 -0.032801 -0.265631
vn 0.864576 -0.055905 0.499383
vn 0.371687 -0.046401 0.927198
vn -0.125664 -0.026754 0.991712
vn -0.538762 -0.006995 0.842429
vn -0.963173 0.027565 0.267466
vn -0.780581 0.052726 -0.622827
vn -0.430669 0.048262 -0.901219
vn 0.063817 0.030947 -0.997482
vn 0.386362 0.010634 -0.922286
vn 0.964826 -0.099054 -0.243514
vn 0.888440 -0.082272 0.451559
vn 0.423808 -0.033021 0.905150
vn -0.070719 0.017594 0.997341
vn -0.496148 0.063085 0.865943
vn -0.961656 0.104978 0.253374
vn -0.752957 0.070877 -0.654242
vn -0.380588 0.025361 -0.924397
vn 0.119031 -0.027429 -0.992512
vn 0.416249 -0.052304 -0.907745
vn 0.964291 0.062040 -0.257476
vn 0.876118 0.057279 0.478683
vn 0.393831 0.026649 0.918796
vn -0.104903 -0.005512 0.994467
vn -0.526185 -0.032945 0.849732
vn -0.965934 -0.062154 0.251214
vn -0.767100 -0.050434 -0.639542
vn -0.410229 -0.027700 -0.911562
vn 0.085567 0.004259 -0.996323
vn 0.396435 0.024466 -0.917736
vn -0.542622 -0.541856 -0.641836
vn -0.664947 -0.484114 -0.568752
vn -0.612342 -0.272501 -0.742146
vn -0.452339 -0.346298 -0.821868
vn -0.783911 -0.440028 -0.438017
vn -0.777521 -0.213935 -0.591349
vn -0.877715 -0.412357 -0.244086
vn -0.923880 -0.167444 -0.344105
vn -0.916156 -0.400820 0.001479
vn -0.991435 -0.130246 0.009619
vn -0.877977 -0.405973 0.253660
vn -0.910518 -0.104044 0.400164
vn -0.777156 -0.426780 0.462479
vn -0.705883 -0.094163 0.702042
vn -0.592857 -0.474473 0.650688
vn -0.452676 -0.115948 0.884104
vn -0.523392 -0.499735 0.690164
vn -0.130328 -0.248880 0.959726
vn -0.403749 -0.578897 0.708424
vn -0.047240 -0.067731 0.996585
vn -0.288129 -0.663820 0.690163
vn -0.188526 -0.208291 0.959726
vn -0.240424 -0.720279 0.650688
vn 0.047592 -0.464858 0.884105
vn -0.131991 -0.876750 0.462480
vn 0.155518 -0.694946 0.702043
vn -0.077631 -0.964174 0.253658
vn 0.216947 -0.890396 0.400161
vn -0.059604 -0.998221 0.001486
vn 0.220315 -0.975381 0.009622
vn -0.083714 -0.966133 -0.244087
vn 0.162068 -0.924839 -0.344104
vn -0.142089 -0.887664 -0.438022
vn 0.067873 -0.803553 -0.591351
vn -0.224562 -0.791262 -0.568750
vn -0.044156 -0.668782 -0.742146
vn -0.321010 -0.696419 -0.641836
vn -0.168689 -0.544130 -0.821868
vn -0.427429 -0.612848 -0.664622
vn -0.304575 -0.436700 -0.846479
vn -0.523885 -0.139896 -0.840222
vn -0.359944 -0.214280 -0.908033
vn -0.706190 -0.073105 -0.704238
vn -0.894678 -0.001010 -0.446711
vn -0.995413 0.093129 0.021900
vn -0.782298 0.184483 0.594959
vn -0.393140 0.219349 0.892932
vn -0.129371 0.237896 0.962636
vn 0.241727 0.048909 0.969111
vn 0.181031 0.259561 0.948607
vn -0.037620 0.243739 0.969111
vn 0.267944 -0.039211 0.962636
vn 0.341671 -0.293144 0.892932
vn 0.443406 -0.670384 0.594959
vn 0.431309 -0.901938 0.021901
vn 0.308164 -0.839931 -0.446712
vn 0.175386 -0.687960 -0.704237
vn 0.049721 -0.539958 -0.840222
vn -0.076723 -0.411812 -0.908033
vn -0.211984 -0.303942 -0.928807
vn -0.445241 -0.025341 -0.895052
vn -0.283521 -0.106177 -0.953070
vn -0.629841 0.054813 -0.774787
vn -0.835891 0.149392 -0.528175
vn -0.965603 0.259784 -0.011142
vn -0.701130 0.292336 0.650352
vn -0.273148 0.251298 0.928568
vn -0.042585 0.239310 0.970009
vn 0.305542 0.059188 0.950337
vn 0.153719 0.220403 0.963220
vn -0.050022 0.307176 0.950337
vn 0.239286 0.042719 0.970009
vn 0.330195 -0.169504 0.928569
vn 0.516573 -0.556951 0.650352
vn 0.577401 -0.816384 -0.011142
vn 0.428992 -0.732800 -0.528176
vn 0.269048 -0.572117 -0.774787
vn 0.130051 -0.426578 -0.895052
vn -0.001681 -0.302746 -0.953070
vn -0.137474 -0.197111 -0.970695
vn -0.286758 0.199998 -0.936894
vn -0.139240 0.097112 -0.985485
vn -0.455575 0.317740 -0.831560
vn -0.659687 0.460098 -0.594241
vn -0.819886 0.571829 -0.028250
vn -0.583424 0.406909 0.702881
vn -0.240222 0.167543 0.956150
vn -0.099959 0.069717 0.992546
vn 0.185099 -0.129097 0.974204
vn 0.000000 -0.000000 1.000000
vn -0.185098 0.129097 0.974204
vn 0.099960 -0.069716 0.992546
vn 0.240222 -0.167542 0.956150
vn 0.583423 -0.406908 0.702882
vn 0.819886 -0.571830 -0.028253
vn 0.659686 -0.460098 -0.594243
vn 0.455575 -0.317741 -0.831560
vn 0.286757 -0.199999 -0.936894
vn 0.139240 -0.097113 -0.985485
vn 0.000000 -0.000001 -1.000000
vn -0.130050 0.426577 -0.895053
vn 0.001681 0.302745 -0.953070
vn -0.269048 0.572117 -0.774787
vn -0.428993 0.732801 -0.528174
vn -0.577401 0.816385 -0.011143
vn -0.516574 0.556953 0.650350
vn -0.330197 0.169506 0.928567
vn -0.239284 -0.042719 0.970009
vn 0.050020 -0.307174 0.950338
vn -0.153719 -0.220402 0.963220
vn -0.305540 -0.059189 0.950338
vn 0.042584 -0.239308 0.970009
vn 0.273149 -0.251299 0.928568
vn 0.701128 -0.292335 0.650353
vn 0.965602 -0.259784 -0.011143
vn 0.835890 -0.149392 -0.528175
vn 0.629841 -0.054814 -0.774787
vn 0.445239 0.025341 -0.895053
vn 0.283521 0.106176 -0.953070
vn 0.137475 0.197110 -0.970695
vn -0.049720 0.539957 -0.840223
vn 0.076723 0.411811 -0.908033
vn -0.175386 0.687963 -0.704235
vn -0.308164 0.839932 -0.446710
vn -0.431309 0.901939 0.021896
vn -0.443409 0.670384 0.594956
vn -0.341673 0.293147 0.892930
vn -0.267941 0.039208 0.962637
vn 0.037617 -0.243738 0.969111
vn -0.181030 -0.259560 0.948608
vn -0.241725 -0.048911 0.969111
vn 0.129368 -0.237895 0.962637
vn 0.393142 -0.219349 0.892931
vn 0.782295 -0.184483 0.594963
vn 0.995413 -0.093128 0.021901
vn 0.894678 0.001009 -0.446710
vn 0.706191 0.073105 -0.704237
vn 0.523882 0.139897 -0.840224
vn 0.359944 0.214280 -0.908033
vn 0.211985 0.303942 -0.928807
vn 0.044160 0.668779 -0.742148
vn 0.168688 0.544127 -0.821870
vn -0.067878 0.803560 -0.591341
vn -0.162072 0.924841 -0.344096
vn -0.220319 0.975381 0.009609
vn -0.216949 0.890397 0.400158
vn -0.155520 0.694940 0.702048
vn -0.047591 0.464858 0.884105
vn 0.188520 0.208293 0.959726
vn 0.047237 0.067725 0.996585
vn 0.130333 0.248876 0.959726
vn 0.452677 0.115947 0.884104
vn 0.705882 0.094163 0.702043
vn 0.910516 0.104049 0.400167
vn 0.991435 0.130247 0.009622
vn 0.923882 0.167443 -0.344100
vn 0.777521 0.213936 -0.591348
vn 0.612337 0.272505 -0.742148
vn 0.452337 0.346297 -0.821869
vn 0.304576 0.436700 -0.846479
vn 0.224575 0.791255 -0.568755
vn 0.321009 0.696418 -0.641837
vn 0.142086 0.887670 -0.438012
vn 0.083706 0.966139 -0.244066
vn 0.059600 0.998221 0.001467
vn 0.077632 0.964174 0.253657
vn 0.131985 0.876747 0.462487
vn 0.240427 0.720279 0.650687
vn 0.288130 0.663815 0.690167
vn 0.403750 0.578900 0.708421
vn 0.523388 0.499735 0.690166
vn 0.592861 0.474476 0.650683
vn 0.777159 0.426777 0.462477
vn 0.877973 0.405974 0.253670
vn 0.916158 0.400816 0.001481
vn 0.877715 0.412359 -0.244081
vn 0.783910 0.440032 -0.438016
vn 0.664941 0.484122 -0.568753
vn 0.542623 0.541852 -0.641839
vn 0.427432 0.612849 -0.664618
vn -0.572033 -0.820178 0.009287
vn 0.572033 0.820178 0.009287
vn 0.376593 -0.668001 -0.641835
vn 0.288177 -0.770376 -0.568748
vn 0.098406 -0.662975 -0.742146
vn 0.212388 -0.528607 -0.821867
vn 0.213816 -0.873169 -0.438016
vn -0.002292 -0.806413 -0.591348
vn 0.162016 -0.956127 -0.244075
vn -0.086310 -0.934957 -0.344103
vn 0.140597 -0.990066 0.001485
vn -0.140252 -0.990069 0.009616
vn 0.155796 -0.954666 0.253655
vn -0.143807 -0.905090 0.400164
vn 0.202866 -0.863109 0.462481
vn -0.098479 -0.705293 0.702043
vn 0.298211 -0.698338 0.650687
vn -0.009624 -0.467190 0.884105
vn 0.341167 -0.638186 0.690162
vn 0.204842 -0.192268 0.959725
vn 0.449495 -0.544142 0.708423
vn 0.052589 -0.063665 0.996585
vn 0.562304 -0.455511 0.690162
vn 0.150139 -0.237455 0.959725
vn 0.629487 -0.424683 0.650685
vn 0.460607 -0.078746 0.884104
vn 0.809293 -0.362156 0.462480
vn 0.711202 -0.036438 0.702043
vn 0.908087 -0.333217 0.253663
vn 0.915964 -0.029643 0.400164
vn 0.945721 -0.324976 0.001478
vn 0.998744 -0.049176 0.009618
vn 0.908347 -0.339600 -0.244085
vn 0.934438 -0.091745 -0.344105
vn 0.817104 -0.374810 -0.438017
vn 0.792345 -0.149986 -0.591349
vn 0.702120 -0.428426 -0.568752
vn 0.632476 -0.221793 -0.742147
vn 0.584896 -0.495925 -0.641837
vn 0.479007 -0.308359 -0.821868
vn 0.475860 -0.576050 -0.664623
vn 0.339086 -0.410480 -0.846479
vn -0.005639 -0.542212 -0.840223
vn 0.109964 -0.404207 -0.908033
vn -0.118849 -0.699946 -0.704237
vn -0.238827 -0.862213 -0.446711
vn -0.356521 -0.934031 0.021897
vn -0.387412 -0.704228 0.594958
vn -0.316696 -0.319963 0.892932
vn -0.263867 -0.060875 0.962636
vn 0.017671 0.245991 0.969111
vn -0.201543 0.243978 0.948607
vn -0.244905 0.029086 0.969111
vn 0.109593 0.247630 0.962636
vn 0.373996 0.250598 0.892932
vn 0.764701 0.247500 0.594959
vn 0.984541 0.173782 0.021899
vn 0.891795 0.071763 -0.446712
vn 0.709796 -0.015425 -0.704238
vn 0.533527 -0.096822 -0.840223
vn 0.376180 -0.184293 -0.908033
vn 0.236003 -0.285693 -0.928807
vn -0.094924 -0.435742 -0.895052
vn 0.026300 -0.301605 -0.953070
vn -0.221623 -0.592105 -0.774787
vn -0.367969 -0.765265 -0.528174
vn -0.509088 -0.860642 -0.011143
vn -0.469563 -0.597122 0.650351
vn -0.315315 -0.195799 0.928568
vn -0.241967 0.023115 0.970009
vn 0.024872 0.310227 0.950337
vn -0.171137 0.207170 0.963220
vn -0.309344 0.034140 0.950337
vn 0.022980 0.241980 0.970009
vn 0.251804 0.272681 0.928569
vn 0.675029 0.348393 0.650352
vn 0.941274 0.337460 -0.011142
vn 0.820970 0.216885 -0.528175
vn 0.623296 0.105859 -0.774788
vn 0.445827 0.010957 -0.895052
vn 0.291218 -0.082764 -0.953070
vn 0.153052 -0.185276 -0.970695
vn -0.269540 -0.222660 -0.936894
vn -0.130880 -0.108116 -0.985485
vn -0.428222 -0.353743 -0.831560
vn -0.620079 -0.512230 -0.594241
vn -0.770659 -0.636621 -0.028252
vn -0.548395 -0.453013 0.702881
vn -0.225799 -0.186525 0.956150
vn -0.093958 -0.077615 0.992546
vn 0.173985 0.143724 0.974204
vn 0.000001 0.000001 1.000000
vn -0.173985 -0.143724 0.974204
vn 0.093958 0.077616 0.992546
vn 0.225799 0.186526 0.956150
vn 0.548395 0.453014 0.702881
vn 0.770660 0.636620 -0.028253
vn 0.620079 0.512229 -0.594241
vn 0.428223 0.353742 -0.831560
vn 0.269541 0.222659 -0.936894
vn 0.130880 0.108116 -0.985485
vn 0.000001 0.000000 -1.000000
vn -0.445826 -0.010956 -0.895053
vn -0.291218 0.082765 -0.953070
vn -0.623296 -0.105860 -0.774787
vn -0.820971 -0.216885 -0.528175
vn -0.941274 -0.337460 -0.011142
vn -0.675029 -0.348393 0.650352
vn -0.251805 -0.272682 0.928568
vn -0.022979 -0.241979 0.970009
vn 0.309341 -0.034142 0.950338
vn 0.171137 -0.207169 0.963220
vn -0.024870 -0.310225 0.950338
vn 0.241966 -0.023115 0.970009
vn 0.315315 0.195800 0.928568
vn 0.469562 0.597121 0.650353
vn 0.509088 0.860642 -0.011143
vn 0.367970 0.765265 -0.528175
vn 0.221624 0.592105 -0.774787
vn 0.094923 0.435741 -0.895053
vn -0.026299 0.301606 -0.953070
vn -0.153051 0.185276 -0.970695
vn -0.533526 0.096823 -0.840223
vn -0.376180 0.184294 -0.908033
vn -0.709798 0.015425 -0.704236
vn -0.891795 -0.071763 -0.446711
vn -0.984541 -0.173782 0.021898
vn -0.764700 -0.247501 0.594960
vn -0.373997 -0.250599 0.892931
vn -0.109590 -0.247629 0.962637
vn 0.244902 -0.029088 0.969111
vn 0.201542 -0.243976 0.948608
vn -0.017668 -0.245990 0.969111
vn 0.263865 0.060872 0.962637
vn 0.316696 0.319965 0.892931
vn 0.387411 0.704225 0.594963
vn 0.356520 0.934031 0.021900
vn 0.238828 0.862213 -0.446710
vn 0.118849 0.699947 -0.704236
vn 0.005637 0.542210 -0.840224
vn -0.109964 0.404207 -0.908033
vn -0.236003 0.285694 -0.928806
vn -0.632474 0.221796 -0.742148
vn -0.479005 0.308359 -0.821869
vn -0.792348 0.149983 -0.591346
vn -0.934440 0.091744 -0.344101
vn -0.998744 0.049174 0.009610
vn -0.915965 0.029642 0.400161
vn -0.711198 0.036435 0.702047
vn -0.460607 0.078746 0.884104
vn -0.150143 0.237451 0.959726
vn -0.052587 0.063661 0.996585
vn -0.204837 0.192269 0.959726
vn 0.009626 0.467191 0.884104
vn 0.098478 0.705290 0.702046
vn 0.143803 0.905089 0.400168
vn 0.140251 0.990069 0.009620
vn 0.086310 0.934958 -0.344100
vn 0.002289 0.806412 -0.591349
vn -0.098410 0.662971 -0.742149
vn -0.212387 0.528604 -0.821870
vn -0.339086 0.410480 -0.846479
vn -0.702112 0.428438 -0.568753
vn -0.584897 0.495923 -0.641837
vn -0.817106 0.374808 -0.438014
vn -0.908351 0.339598 -0.244072
vn -0.945722 0.324973 0.001470
vn -0.908089 0.333219 0.253653
vn -0.809296 0.362152 0.462479
vn -0.629483 0.424685 0.650687
vn -0.562299 0.455511 0.690167
vn -0.449499 0.544141 0.708421
vn -0.341165 0.638182 0.690167
vn -0.298212 0.698345 0.650679
vn -0.202861 0.863107 0.462486
vn -0.155798 0.954657 0.253685
vn -0.140593 0.990066 0.001484
vn -0.162019 0.956125 -0.244081
vn -0.213819 0.873168 -0.438017
vn -0.288184 0.770371 -0.568752
vn -0.376587 0.667998 -0.641842
vn -0.475861 0.576051 -0.664621
vn 0.636847 -0.770934 0.009286
vn -0.636846 0.770935 0.009289
s 1
g pCylinder2
usemtl lambert3SG
f 1/10/1 2/11/2 30/53/3 21/44/4
f 2/11/2 3/12/5 29/52/6 30/53/3
f 3/12/5 4/13/7 28/51/8 29/52/6
f 4/13/7 5/14/9 27/50/10 28/51/8
f 5/14/9 6/15/11 26/49/12 27/50/10
f 6/15/11 7/16/13 25/48/14 26/49/12
f 7/16/13 8/17/15 24/47/16 25/48/14
f 8/17/15 9/18/17 23/46/18 24/47/16
f 9/18/17 20/19/19 22/45/20 23/46/18
f 20/19/19 1/20/1 21/43/4 22/45/20
s 2
f 2/2/21 1/1/22 20/42/23
f 3/3/24 2/2/21 20/42/23
f 4/4/25 3/3/24 20/42/23
f 5/5/26 4/4/25 20/42/23
f 6/6/27 5/5/26 20/42/23
f 7/7/28 6/6/27 20/42/23
f 8/8/29 7/7/28 20/42/23
f 9/9/30 8/8/29 20/42/23
s 3
f 10/41/31 11/40/32 14/37/33
f 11/40/32 12/39/34 14/37/33
f 12/39/34 13/38/35 14/37/33
f 15/36/36 16/35/37 14/37/33
f 16/35/37 17/34/38 14/37/33
f 17/34/38 18/33/39 14/37/33
f 18/33/39 19/32/40 14/37/33
f 19/32/40 10/41/31 14/37/33
s 1
f 22/45/20 21/43/4 31/54/41 32/56/42
f 23/46/18 22/45/20 32/56/42 33/57/43
f 24/47/16 23/46/18 33/57/43 34/58/44
f 25/48/14 24/47/16 34/58/44 35/59/45
f 26/49/12 25/48/14 35/59/45 36/60/46
f 27/50/10 26/49/12 36/60/46 37/61/47
f 28/51/8 27/50/10 37/61/47 38/62/48
f 29/52/6 28/51/8 38/62/48 39/63/49
f 30/53/3 29/52/6 39/63/49 40/64/50
f 21/44/4 30/53/3 40/64/50 31/55/41
f 32/56/42 31/54/41 41/65/51 42/67/52
f 33/57/43 32/56/42 42/67/52 43/68/53
f 34/58/44 33/57/43 43/68/53 44/69/54
f 35/59/45 34/58/44 44/69/54 45/70/55
f 36/60/46 35/59/45 45/70/55 46/71/56
f 37/61/47 36/60/46 46/71/56 47/72/57
f 38/62/48 37/61/47 47/72/57 48/73/58
f 39/63/49 38/62/48 48/73/58 49/74/59
f 40/64/50 39/63/49 49/74/59 50/75/60
f 31/55/41 40/64/50 50/75/60 41/66/51
f 42/67/52 41/65/51 51/76/61 52/78/62
f 43/68/53 42/67/52 52/78/62 53/79/63
f 44/69/54 43/68/53 53/79/63 54/80/64
f 45/70/55 44/69/54 54/80/64 55/81/65
f 46/71/56 45/70/55 55/81/65 56/82/66
f 47/72/57 46/71/56 56/82/66 57/83/67
f 48/73/58 47/72/57 57/83/67 58/84/68
f 49/74/59 48/73/58 58/84/68 59/85/69
f 50/75/60 49/74/59 59/85/69 60/86/70
f 41/66/51 50/75/60 60/86/70 51/77/61
f 52/78/62 51/76/61 10/31/71 19/30/72
f 53/79/63 52/78/62 19/30/72 18/29/73
f 54/80/64 53/79/63 18/29/73 17/28/74
f 55/81/65 54/80/64 17/28/74 16/27/75
f 56/82/66 55/81/65 16/27/75 15/26/76
f 57/83/67 56/82/66 15/26/76 14/25/77
f 58/84/68 57/83/67 14/25/77 13/24/78
f 59/85/69 58/84/68 13/24/78 12/23/79
f 60/86/70 59/85/69 12/23/79 11/22/80
f 51/77/61 60/86/70 11/22/80 10/21/71
s 5
usemtl lambert4SG
f 61/87/81 62/88/82 82/89/83 81/90/84
f 62/88/82 63/91/85 83/92/86 82/89/83
f 63/91/85 64/93/87 84/94/88 83/92/86
f 64/93/87 65/95/89 85/96/90 84/94/88
f 65/95/89 66/97/91 86/98/92 85/96/90
f 66/97/91 67/99/93 87/100/94 86/98/92
f 67/99/93 68/101/95 88/102/96 87/100/94
f 68/101/95 69/103/97 89/104/98 88/102/96
f 69/103/97 70/105/99 90/106/100 89/104/98
f 70/105/99 71/107/101 91/108/102 90/106/100
f 71/107/101 72/109/103 92/110/104 91/108/102
f 72/109/103 73/111/105 93/112/106 92/110/104
f 73/111/105 74/113/107 94/114/108 93/112/106
f 74/113/107 75/115/109 95/116/110 94/114/108
f 75/115/109 76/117/111 96/118/112 95/116/110
f 76/117/111 77/119/113 97/120/114 96/118/112
f 77/119/113 78/121/115 98/122/116 97/120/114
f 78/121/115 79/123/117 99/124/118 98/122/116
f 79/123/117 80/125/119 100/126/120 99/124/118
f 80/125/119 61/127/81 81/128/84 100/126/120
f 81/90/84 82/89/83 102/129/121 101/130/122
f 82/89/83 83/92/86 103/131/123 102/129/121
f 83/92/86 84/94/88 104/132/124 103/131/123
f 84/94/88 85/96/90 105/133/125 104/132/124
f 85/96/90 86/98/92 106/134/126 105/133/125
f 86/98/92 87/100/94 107/135/127 106/134/126
f 87/100/94 88/102/96 108/136/128 107/135/127
f 88/102/96 89/104/98 109/137/129 108/136/128
f 89/104/98 90/106/100 110/138/130 109/137/129
f 90/106/100 91/108/102 111/139/131 110/138/130
f 91/108/102 92/110/104 112/140/132 111/139/131
f 92/110/104 93/112/106 113/141/133 112/140/132
f 93/112/106 94/114/108 114/142/134 113/141/133
f 94/114/108 95/116/110 115/143/135 114/142/134
f 95/116/110 96/118/112 116/144/136 115/143/135
f 96/118/112 97/120/114 117/145/137 116/144/136
f 97/120/114 98/122/116 118/146/138 117/145/137
f 98/122/116 99/124/118 119/147/139 118/146/138
f 99/124/118 100/126/120 120/148/140 119/147/139
f 100/126/120 81/128/84 101/149/122 120/148/140
f 101/130/122 102/129/121 122/150/141 121/151/142
f 102/129/121 103/131/123 123/152/143 122/150/141
f 103/131/123 104/132/124 124/153/144 123/152/143
f 104/132/124 105/133/125 125/154/145 124/153/144
f 105/133/125 106/134/126 126/155/146 125/154/145
f 106/134/126 107/135/127 127/156/147 126/155/146
f 107/135/127 108/136/128 128/157/148 127/156/147
f 108/136/128 109/137/129 129/158/149 128/157/148
f 109/137/129 110/138/130 130/159/150 129/158/149
f 110/138/130 111/139/131 131/160/151 130/159/150
f 111/139/131 112/140/132 132/161/152 131/160/151
f 112/140/132 113/141/133 133/162/153 132/161/152
f 113/141/133 114/142/134 134/163/154 133/162/153
f 114/142/134 115/143/135 135/164/155 134/163/154
f 115/143/135 116/144/136 136/165/156 135/164/155
f 116/144/136 117/145/137 137/166/157 136/165/156
f 117/145/137 118/146/138 138/167/158 137/166/157
f 118/146/138 119/147/139 139/168/159 138/167/158
f 119/147/139 120/148/140 140/169/160 139/168/159
f 120/148/140 101/149/122 121/170/142 140/169/160
f 121/151/142 122/150/141 142/171/161 141/172/162
f 122/150/141 123/152/143 143/173/163 142/171/161
f 123/152/143 124/153/144 144/174/164 143/173/163
f 124/153/144 125/154/145 145/175/165 144/174/164
f 125/154/145 126/155/146 146/176/166 145/175/165
f 126/155/146 127/156/147 147/177/167 146/176/166
f 127/156/147 128/157/148 148/178/168 147/177/167
f 128/157/148 129/158/149 149/179/169 148/178/168
f 129/158/149 130/159/150 150/180/170 149/179/169
f 130/159/150 131/160/151 151/181/171 150/180/170
f 131/160/151 132/161/152 152/182/172 151/181/171
f 132/161/152 133/162/153 153/183/173 152/182/172
f 133/162/153 134/163/154 154/184/174 153/183/173
f 134/163/154 135/164/155 155/185/175 154/184/174
f 135/164/155 136/165/156 156/186/176 155/185/175
f 136/165/156 137/166/157 157/187/177 156/186/176
f 137/166/157 138/167/158 158/188/178 157/187/177
f 138/167/158 139/168/159 159/189/179 158/188/178
f 139/168/159 140/169/160 160/190/180 159/189/179
f 140/169/160 121/170/142 141/191/162 160/190/180
f 141/172/162 142/171/161 162/192/181 161/193/182
f 142/171/161 143/173/163 163/194/183 162/192/181
f 143/173/163 144/174/164 164/195/184 163/194/183
f 144/174/164 145/175/165 165/196/185 164/195/184
f 145/175/165 146/176/166 166/197/186 165/196/185
f 146/176/166 147/177/167 167/198/187 166/197/186
f 147/177/167 148/178/168 168/199/188 167/198/187
f 148/178/168 149/179/169 169/200/189 168/199/188
f 149/179/169 150/180/170 170/201/190 169/200/189
f 150/180/170 151/181/171 171/202/191 170/201/190
f 151/181/171 152/182/172 172/203/192 171/202/191
f 152/182/172 153/183/173 173/204/193 172/203/192
f 153/183/173 154/184/174 174/205/194 173/204/193
f 154/184/174 155/185/175 175/206/195 174/205/194
f 155/185/175 156/186/176 176/207/196 175/206/195
f 156/186/176 157/187/177 177/208/197 176/207/196
f 157/187/177 158/188/178 178/209/198 177/208/197
f 158/188/178 159/189/179 179/210/199 178/209/198
f 159/189/179 160/190/180 180/211/200 179/210/199
f 160/190/180 141/191/162 161/212/182 180/211/200
f 161/193/182 162/192/181 182/213/201 181/214/202
f 162/192/181 163/194/183 183/215/203 182/213/201
f 163/194/183 164/195/184 184/216/204 183/215/203
f 164/195/184 165/196/185 185/217/205 184/216/204
f 165/196/185 166/197/186 186/218/206 185/217/205
f 166/197/186 167/198/187 187/219/207 186/218/206
f 167/198/187 168/199/188 188/220/208 187/219/207
f 168/199/188 169/200/189 189/221/209 188/220/208
f 169/200/189 170/201/190 190/222/210 189/221/209
f 170/201/190 171/202/191 191/223/211 190/222/210
f 171/202/191 172/203/192 192/224/212 191/223/211
f 172/203/192 173/204/193 193/225/213 192/224/212
f 173/204/193 174/205/194 194/226/214 193/225/213
f 174/205/194 175/206/195 195/227/215 194/226/214
f 175/206/195 176/207/196 196/228/216 195/227/215
f 176/207/196 177/208/197 197/229/217 196/228/216
f 177/208/197 178/209/198 198/230/218 197/229/217
f 178/209/198 179/210/199 199/231/219 198/230/218
f 179/210/199 180/211/200 200/232/220 199/231/219
f 180/211/200 161/212/182 181/233/202 200/232/220
f 181/214/202 182/213/201 202/234/221 201/235/222
f 182/213/201 183/215/203 203/236/223 202/234/221
f 183/215/203 184/216/204 204/237/224 203/236/223
f 184/216/204 185/217/205 205/238/225 204/237/224
f 185/217/205 186/218/206 206/239/226 205/238/225
f 186/218/206 187/219/207 207/240/227 206/239/226
f 187/219/207 188/220/208 208/241/228 207/240/227
f 188/220/208 189/221/209 209/242/229 208/241/228
f 189/221/209 190/222/210 210/243/230 209/242/229
f 190/222/210 191/223/211 211/244/231 210/243/230
f 191/223/211 192/224/212 212/245/232 211/244/231
f 192/224/212 193/225/213 213/246/233 212/245/232
f 193/225/213 194/226/214 214/247/234 213/246/233
f 194/226/214 195/227/215 215/248/235 214/247/234
f 195/227/215 196/228/216 216/249/236 215/248/235
f 196/228/216 197/229/217 217/250/237 216/249/236
f 197/229/217 198/230/218 218/251/238 217/250/237
f 198/230/218 199/231/219 219/252/239 218/251/238
f 199/231/219 200/232/220 220/253/240 219/252/239
f 200/232/220 181/233/202 201/254/222 220/253/240
f 201/235/222 202/234/221 222/255/241 221/256/242
f 202/234/221 203/236/223 223/257/243 222/255/241
f 203/236/223 204/237/224 224/258/244 223/257/243
f 204/237/224 205/238/225 225/259/245 224/258/244
f 205/238/225 206/239/226 226/260/246 225/259/245
f 206/239/226 207/240/227 227/261/247 226/260/246
f 207/240/227 208/241/228 228/262/248 227/261/247
f 208/241/228 209/242/229 229/263/249 228/262/248
f 209/242/229 210/243/230 230/264/250 229/263/249
f 210/243/230 211/244/231 231/265/251 230/264/250
f 211/244/231 212/245/232 232/266/252 231/265/251
f 212/245/232 213/246/233 233/267/253 232/266/252
f 213/246/233 214/247/234 234/268/254 233/267/253
f 214/247/234 215/248/235 235/269/255 234/268/254
f 215/248/235 216/249/236 236/270/256 235/269/255
f 216/249/236 217/250/237 237/271/257 236/270/256
f 217/250/237 218/251/238 238/272/258 237/271/257
f 218/251/238 219/252/239 239/273/259 238/272/258
f 219/252/239 220/253/240 240/274/260 239/273/259
f 220/253/240 201/254/222 221/275/242 240/274/260
f 62/88/82 61/87/81 241/276/261
f 63/91/85 62/88/82 241/277/261
f 64/93/87 63/91/85 241/278/261
f 65/95/89 64/93/87 241/279/261
f 66/97/91 65/95/89 241/280/261
f 67/99/93 66/97/91 241/281/261
f 68/101/95 67/99/93 241/282/261
f 69/103/97 68/101/95 241/283/261
f 70/105/99 69/103/97 241/284/261
f 71/107/101 70/105/99 241/285/261
f 72/109/103 71/107/101 241/286/261
f 73/111/105 72/109/103 241/287/261
f 74/113/107 73/111/105 241/288/261
f 75/115/109 74/113/107 241/289/261
f 76/117/111 75/115/109 241/290/261
f 77/119/113 76/117/111 241/291/261
f 78/121/115 77/119/113 241/292/261
f 79/123/117 78/121/115 241/293/261
f 80/125/119 79/123/117 241/294/261
f 61/127/81 80/125/119 241/295/261
f 221/256/242 222/255/241 242/296/262
f 222/255/241 223/257/243 242/297/262
f 223/257/243 224/258/244 242/298/262
f 224/258/244 225/259/245 242/299/262
f 225/259/245 226/260/246 242/300/262
f 226/260/246 227/261/247 242/301/262
f 227/261/247 228/262/248 242/302/262
f 228/262/248 229/263/249 242/303/262
f 229/263/249 230/264/250 242/304/262
f 230/264/250 231/265/251 242/305/262
f 231/265/251 232/266/252 242/306/262
f 232/266/252 233/267/253 242/307/262
f 233/267/253 234/268/254 242/308/262
f 234/268/254 235/269/255 242/309/262
f 235/269/255 236/270/256 242/310/262
f 236/270/256 237/271/257 242/311/262
f 237/271/257 238/272/258 242/312/262
f 238/272/258 239/273/259 242/313/262
f 239/273/259 240/274/260 242/314/262
f 240/274/260 221/275/242 242/315/262
s 6
f 243/316/263 244/317/264 264/318/265 263/319/266
f 244/317/264 245/320/267 265/321/268 264/318/265
f 245/320/267 246/322/269 266/323/270 265/321/268
f 246/322/269 247/324/271 267/325/272 266/323/270
f 247/324/271 248/326/273 268/327/274 267/325/272
f 248/326/273 249/328/275 269/329/276 268/327/274
f 249/328/275 250/330/277 270/331/278 269/329/276
f 250/330/277 251/332/279 271/333/280 270/331/278
f 251/332/279 252/334/281 272/335/282 271/333/280
f 252/334/281 253/336/283 273/337/284 272/335/282
f 253/336/283 254/338/285 274/339/286 273/337/284
f 254/338/285 255/340/287 275/341/288 274/339/286
f 255/340/287 256/342/289 276/343/290 275/341/288
f 256/342/289 257/344/291 277/345/292 276/343/290
f 257/344/291 258/346/293 278/347/294 277/345/292
f 258/346/293 259/348/295 279/349/296 278/347/294
f 259/348/295 260/350/297 280/351/298 279/349/296
f 260/350/297 261/352/299 281/353/300 280/351/298
f 261/352/299 262/354/301 282/355/302 281/353/300
f 262/354/301 243/356/263 263/357/266 282/355/302
f 263/319/266 264/318/265 284/358/303 283/359/304
f 264/318/265 265/321/268 285/360/305 284/358/303
f 265/321/268 266/323/270 286/361/306 285/360/305
f 266/323/270 267/325/272 287/362/307 286/361/306
f 267/325/272 268/327/274 288/363/308 287/362/307
f 268/327/274 269/329/276 289/364/309 288/363/308
f 269/329/276 270/331/278 290/365/310 289/364/309
f 270/331/278 271/333/280 291/366/311 290/365/310
f 271/333/280 272/335/282 292/367/312 291/366/311
f 272/335/282 273/337/284 293/368/313 292/367/312
f 273/337/284 274/339/286 294/369/314 293/368/313
f 274/339/286 275/341/288 295/370/315 294/369/314
f 275/341/288 276/343/290 296/371/316 295/370/315
f 276/343/290 277/345/292 297/372/317 296/371/316
f 277/345/292 278/347/294 298/373/318 297/372/317
f 278/347/294 279/349/296 299/374/319 298/373/318
f 279/349/296 280/351/298 300/375/320 299/374/319
f 280/351/298 281/353/300 301/376/321 300/375/320
f 281/353/300 282/355/302 302/377/322 301/376/321
f 282/355/302 263/357/266 283/378/304 302/377/322
f 283/359/304 284/358/303 304/379/323 303/380/324
f 284/358/303 285/360/305 305/381/325 304/379/323
f 285/360/305 286/361/306 306/382/326 305/381/325
f 286/361/306 287/362/307 307/383/327 306/382/326
f 287/362/307 288/363/308 308/384/328 307/383/327
f 288/363/308 289/364/309 309/385/329 308/384/328
f 289/364/309 290/365/310 310/386/330 309/385/329
f 290/365/310 291/366/311 311/387/331 310/386/330
f 291/366/311 292/367/312 312/388/332 311/387/331
f 292/367/312 293/368/313 313/389/333 312/388/332
f 293/368/313 294/369/314 314/390/334 313/389/333
f 294/369/314 295/370/315 315/391/335 314/390/334
f 295/370/315 296/371/316 316/392/336 315/391/335
f 296/371/316 297/372/317 317/393/337 316/392/336
f 297/372/317 298/373/318 318/394/338 317/393/337
f 298/373/318 299/374/319 319/395/339 318/394/338
f 299/374/319 300/375/320 320/396/340 319/395/339
f 300/375/320 301/376/321 321/397/341 320/396/340
f 301/376/321 302/377/322 322/398/342 321/397/341
f 302/377/322 283/378/304 303/399/324 322/398/342
f 303/380/324 304/379/323 324/400/343 323/401/344
f 304/379/323 305/381/325 325/402/345 324/400/343
f 305/381/325 306/382/326 326/403/346 325/402/345
f 306/382/326 307/383/327 327/404/347 326/403/346
f 307/383/327 308/384/328 328/405/348 327/404/347
f 308/384/328 309/385/329 329/406/349 328/405/348
f 309/385/329 310/386/330 330/407/350 329/406/349
f 310/386/330 311/387/331 331/408/351 330/407/350
f 311/387/331 312/388/332 332/409/352 331/408/351
f 312/388/332 313/389/333 333/410/353 332/409/352
f 313/389/333 314/390/334 334/411/354 333/410/353
f 314/390/334 315/391/335 335/412/355 334/411/354
f 315/391/335 316/392/336 336/413/356 335/412/355
f 316/392/336 317/393/337 337/414/357 336/413/356
f 317/393/337 318/394/338 338/415/358 337/414/357
f 318/394/338 319/395/339 339/416/359 338/415/358
f 319/395/339 320/396/340 340/417/360 339/416/359
f 320/396/340 321/397/341 341/418/361 340/417/360
f 321/397/341 322/398/342 342/419/362 341/418/361
f 322/398/342 303/399/324 323/420/344 342/419/362
f 323/401/344 324/400/343 344/421/363 343/422/364
f 324/400/343 325/402/345 345/423/365 344/421/363
f 325/402/345 326/403/346 346/424/366 345/423/365
f 326/403/346 327/404/347 347/425/367 346/424/366
f 327/404/347 328/405/348 348/426/368 347/425/367
f 328/405/348 329/406/349 349/427/369 348/426/368
f 329/406/349 330/407/350 350/428/370 349/427/369
f 330/407/350 331/408/351 351/429/371 350/428/370
f 331/408/351 332/409/352 352/430/372 351/429/371
f 332/409/352 333/410/353 353/431/373 352/430/372
f 333/410/353 334/411/354 354/432/374 353/431/373
f 334/411/354 335/412/355 355/433/375 354/432/374
f 335/412/355 336/413/356 356/434/376 355/433/375
f 336/413/356 337/414/357 357/435/377 356/434/376
f 337/414/357 338/415/358 358/436/378 357/435/377
f 338/415/358 339/416/359 359/437/379 358/436/378
f 339/416/359 340/417/360 360/438/380 359/437/379
f 340/417/360 341/418/361 361/439/381 360/438/380
f 341/418/361 342/419/362 362/440/382 361/439/381
f 342/419/362 323/420/344 343/441/364 362/440/382
f 343/422/364 344/421/363 364/442/383 363/443/384
f 344/421/363 345/423/365 365/444/385 364/442/383
f 345/423/365 346/424/366 366/445/386 365/444/385
f 346/424/366 347/425/367 367/446/387 366/445/386
f 347/425/367 348/426/368 368/447/388 367/446/387
f 348/426/368 349/427/369 369/448/389 368/447/388
f 349/427/369 350/428/370 370/449/390 369/448/389
f 350/428/370 351/429/371 371/450/391 370/449/390
f 351/429/371 352/430/372 372/451/392 371/450/391
f 352/430/372 353/431/373 373/452/393 372/451/392
f 353/431/373 354/432/374 374/453/394 373/452/393
f 354/432/374 355/433/375 375/454/395 374/453/394
f 355/433/375 356/434/376 376/455/396 375/454/395
f 356/434/376 357/435/377 377/456/397 376/455/396
f 357/435/377 358/436/378 378/457/398 377/456/397
f 358/436/378 359/437/379 379/458/399 378/457/398
f 359/437/379 360/438/380 380/459/400 379/458/399
f 360/438/380 361/439/381 381/460/401 380/459/400
f 361/439/381 362/440/382 382/461/402 381/460/401
f 362/440/382 343/441/364 363/462/384 382/461/402
f 363/443/384 364/442/383 384/463/403 383/464/404
f 364/442/383 365/444/385 385/465/405 384/463/403
f 365/444/385 366/445/386 386/466/406 385/465/405
f 366/445/386 367/446/387 387/467/407 386/466/406
f 367/446/387 368/447/388 388/468/408 387/467/407
f 368/447/388 369/448/389 389/469/409 388/468/408
f 369/448/389 370/449/390 390/470/410 389/469/409
f 370/449/390 371/450/391 391/471/411 390/470/410
f 371/450/391 372/451/392 392/472/412 391/471/411
f 372/451/392 373/452/393 393/473/413 392/472/412
f 373/452/393 374/453/394 394/474/414 393/473/413
f 374/453/394 375/454/395 395/475/415 394/474/414
f 375/454/395 376/455/396 396/476/416 395/475/415
f 376/455/396 377/456/397 397/477/417 396/476/416
f 377/456/397 378/457/398 398/478/418 397/477/417
f 378/457/398 379/458/399 399/479/419 398/478/418
f 379/458/399 380/459/400 400/480/420 399/479/419
f 380/459/400 381/460/401 401/481/421 400/480/420
f 381/460/401 382/461/402 402/482/422 401/481/421
f 382/461/402 363/462/384 383/483/404 402/482/422
f 383/464/404 384/463/403 404/484/423 403/485/424
f 384/463/403 385/465/405 405/486/425 404/484/423
f 385/465/405 386/466/406 406/487/426 405/486/425
f 386/466/406 387/467/407 407/488/427 406/487/426
f 387/467/407 388/468/408 408/489/428 407/488/427
f 388/468/408 389/469/409 409/490/429 408/489/428
f 389/469/409 390/470/410 410/491/430 409/490/429
f 390/470/410 391/471/411 411/492/431 410/491/430
f 391/471/411 392/472/412 412/493/432 411/492/431
f 392/472/412 393/473/413 413/494/433 412/493/432
f 393/473/413 394/474/414 414/495/434 413/494/433
f 394/474/414 395/475/415 415/496/435 414/495/434
f 395/475/415 396/476/416 416/497/436 415/496/435
f 396/476/416 397/477/417 417/498/437 416/497/436
f 397/477/417 398/478/418 418/499/438 417/498/437
f 398/478/418 399/479/419 419/500/439 418/499/438
f 399/479/419 400/480/420 420/501/440 419/500/439
f 400/480/420 401/481/421 421/502/441 420/501/440
f 401/481/421 402/482/422 422/503/442 421/502/441
f 402/482/422 383/483/404 403/504/424 422/503/442
f 244/317/264 243/316/263 423/505/443
f 245/320/267 244/317/264 423/506/443
f 246/322/269 245/320/267 423/507/443
f 247/324/271 246/322/269 423/508/443
f 248/326/273 247/324/271 423/509/443
f 249/328/275 248/326/273 423/510/443
f 250/330/277 249/328/275 423/511/443
f 251/332/279 250/330/277 423/512/443
f 252/334/281 251/332/279 423/513/443
f 253/336/283 252/334/281 423/514/443
f 254/338/285 253/336/283 423/515/443
f 255/340/287 254/338/285 423/516/443
f 256/342/289 255/340/287 423/517/443
f 257/344/291 256/342/289 423/518/443
f 258/346/293 257/344/291 423/519/443
f 259/348/295 258/346/293 423/520/443
f 260/350/297 259/348/295 423/521/443
f 261/352/299 260/350/297 423/522/443
f 262/354/301 261/352/299 423/523/443
f 243/356/263 262/354/301 423/524/443
f 403/485/424 404/484/423 424/525/444
f 404/484/423 405/486/425 424/526/444
f 405/486/425 406/487/426 424/527/444
f 406/487/426 407/488/427 424/528/444
f 407/488/427 408/489/428 424/529/444
f 408/489/428 409/490/429 424/530/444
f 409/490/429 410/491/430 424/531/444
f 410/491/430 411/492/431 424/532/444
f 411/492/431 412/493/432 424/533/444
f 412/493/432 413/494/433 424/534/444
f 413/494/433 414/495/434 424/535/444
f 414/495/434 415/496/435 424/536/444
f 415/496/435 416/497/436 424/537/444
f 416/497/436 417/498/437 424/538/444
f 417/498/437 418/499/438 424/539/444
f 418/499/438 419/500/439 424/540/444
f 419/500/439 420/501/440 424/541/444
f 420/501/440 421/502/441 424/542/444
f 421/502/441 422/503/442 424/543/444
f 422/503/442 403/504/424 424/544/444
