# This file uses centimeters as units for non-parametric coordinates.

mtllib SproutV2.mtl
g default
v -0.038823 0.358409 -0.032244
v -0.037261 0.357333 -0.032184
v -0.034945 0.355607 -0.032285
v -0.032086 0.353516 -0.032507
v -0.029070 0.351034 -0.032905
v -0.025812 0.348834 -0.033302
v -0.022863 0.346865 -0.033750
v -0.020514 0.345239 -0.034222
v -0.019113 0.344104 -0.034676
v -0.018795 0.343596 -0.035050
v -0.019650 0.343705 -0.035325
v -0.021546 0.344467 -0.035463
v -0.024282 0.345805 -0.035456
v -0.027485 0.347585 -0.035309
v -0.030831 0.349732 -0.035010
v -0.033759 0.352298 -0.034501
v -0.036357 0.354596 -0.033972
v -0.038288 0.356604 -0.033408
v -0.039362 0.358030 -0.032886
v -0.039537 0.358658 -0.032483
v -0.040997 0.374365 -0.035825
v -0.038295 0.372011 -0.035780
v -0.034340 0.368565 -0.035980
v -0.029310 0.364703 -0.036306
v -0.023728 0.360809 -0.036745
v -0.017640 0.357600 -0.037146
v -0.011842 0.354676 -0.037723
v -0.007104 0.351991 -0.038526
v -0.004121 0.349873 -0.039417
v -0.003403 0.348844 -0.040166
v -0.005104 0.349171 -0.040632
v -0.008979 0.350599 -0.040860
v -0.014411 0.352704 -0.040958
v -0.020670 0.355278 -0.040952
v -0.026940 0.358450 -0.040711
v -0.032390 0.362553 -0.040038
v -0.036965 0.366767 -0.039142
v -0.040204 0.370727 -0.038068
v -0.042006 0.373697 -0.037024
v -0.042269 0.375002 -0.036236
v -0.039485 0.391317 -0.043520
v -0.036024 0.387059 -0.043702
v -0.031316 0.381642 -0.044101
v -0.025529 0.376857 -0.044251
v -0.018816 0.373333 -0.044109
v -0.010928 0.371129 -0.043837
v -0.002783 0.368616 -0.044143
v 0.004602 0.364851 -0.045380
v 0.009838 0.360830 -0.047097
v 0.011365 0.358830 -0.048369
v 0.008495 0.360082 -0.048682
v 0.002113 0.363248 -0.048470
v -0.006107 0.366032 -0.048559
v -0.014751 0.367775 -0.049168
v -0.022849 0.369856 -0.049696
v -0.029460 0.373862 -0.049434
v -0.034751 0.379374 -0.048388
v -0.038548 0.385453 -0.046799
v -0.040824 0.390470 -0.045148
v -0.041217 0.392721 -0.043950
v -0.035464 0.406642 -0.054953
v -0.031365 0.398903 -0.055968
v -0.026457 0.390737 -0.056924
v -0.020754 0.385240 -0.057106
v -0.013959 0.382282 -0.056706
v -0.005472 0.381071 -0.055904
v 0.004053 0.379199 -0.055803
v 0.013899 0.374611 -0.057394
v 0.022093 0.367816 -0.060255
v 0.024798 0.364333 -0.062199
v 0.020606 0.366927 -0.062127
v 0.011203 0.372340 -0.061199
v 0.000452 0.375166 -0.061454
v -0.009712 0.375842 -0.062835
v -0.018578 0.377155 -0.063882
v -0.025309 0.381212 -0.063521
v -0.030407 0.388037 -0.061997
v -0.034245 0.397153 -0.059567
v -0.036978 0.405672 -0.056859
v -0.037616 0.409442 -0.055119
v -0.028604 0.418194 -0.069074
v -0.023740 0.408014 -0.071717
v -0.018083 0.398439 -0.074976
v -0.011925 0.393450 -0.076489
v -0.005584 0.391508 -0.076287
v 0.001614 0.391169 -0.074933
v 0.010049 0.390154 -0.073418
v 0.020298 0.385656 -0.073211
v 0.030034 0.377223 -0.075442
v 0.033524 0.372813 -0.077415
v 0.028423 0.376481 -0.077349
v 0.017399 0.383534 -0.077243
v 0.006318 0.386064 -0.079708
v -0.002727 0.385988 -0.082739
v -0.010337 0.386668 -0.084342
v -0.016711 0.389811 -0.083626
v -0.022319 0.396054 -0.080488
v -0.026836 0.406465 -0.075461
v -0.030212 0.417252 -0.071055
v -0.031177 0.422034 -0.068919
v -0.017963 0.425350 -0.087991
v -0.012581 0.418826 -0.091700
v -0.005818 0.414364 -0.094877
v 0.000890 0.412504 -0.095965
v 0.006376 0.411238 -0.095799
v 0.011756 0.409843 -0.095078
v 0.017784 0.407186 -0.094084
v 0.025163 0.401958 -0.093220
v 0.032531 0.394275 -0.093616
v 0.035451 0.389907 -0.094794
v 0.031240 0.393455 -0.095579
v 0.022962 0.399909 -0.097353
v 0.015045 0.404035 -0.100233
v 0.008640 0.406279 -0.102510
v 0.002996 0.407883 -0.103547
v -0.002556 0.409835 -0.103019
v -0.009091 0.412572 -0.100386
v -0.015213 0.417737 -0.095328
v -0.019420 0.424674 -0.089839
v -0.020483 0.428225 -0.087046
v -0.001409 0.436857 -0.108397
v 0.003553 0.436821 -0.109780
v 0.009606 0.437513 -0.110686
v 0.015282 0.437646 -0.110834
v 0.019545 0.436409 -0.110792
v 0.023529 0.434299 -0.110732
v 0.027560 0.430548 -0.110833
v 0.031852 0.424586 -0.111166
v 0.035504 0.418051 -0.111827
v 0.036767 0.414898 -0.112675
v 0.034551 0.417407 -0.113538
v 0.030237 0.423338 -0.114553
v 0.025544 0.428817 -0.115671
v 0.021224 0.432275 -0.116535
v 0.017064 0.434328 -0.116914
v 0.012721 0.435716 -0.116580
v 0.007163 0.435925 -0.115401
v 0.001613 0.435737 -0.113023
v -0.002523 0.436292 -0.110029
v -0.003707 0.436994 -0.108150
v 0.017916 0.447973 -0.125010
v 0.021463 0.447656 -0.125476
v 0.025916 0.446778 -0.126123
v 0.030092 0.445426 -0.126602
v 0.033289 0.443623 -0.126946
v 0.036276 0.441584 -0.127219
v 0.038810 0.439185 -0.127487
v 0.040919 0.436477 -0.127760
v 0.042267 0.434078 -0.128102
v 0.042549 0.432842 -0.128659
v 0.041656 0.433307 -0.129453
v 0.039774 0.435005 -0.130354
v 0.037256 0.437118 -0.131108
v 0.034443 0.439132 -0.131512
v 0.031317 0.441046 -0.131469
v 0.028125 0.443020 -0.130877
v 0.024166 0.444796 -0.129673
v 0.020121 0.446255 -0.128016
v 0.017173 0.447255 -0.126320
v 0.016334 0.447824 -0.125222
v 0.033875 0.446255 -0.137700
v 0.035164 0.445883 -0.137676
v 0.036823 0.445167 -0.137791
v 0.038605 0.444229 -0.137962
v 0.040049 0.443013 -0.138184
v 0.041598 0.441820 -0.138398
v 0.042827 0.440601 -0.138631
v 0.043722 0.439514 -0.138886
v 0.044200 0.438688 -0.139175
v 0.044188 0.438241 -0.139504
v 0.043747 0.438276 -0.139840
v 0.042857 0.438724 -0.140170
v 0.041660 0.439522 -0.140399
v 0.040194 0.440539 -0.140482
v 0.038579 0.441677 -0.140373
v 0.037198 0.442983 -0.140034
v 0.035617 0.444110 -0.139539
v 0.034265 0.445114 -0.138934
v 0.033396 0.445853 -0.138361
v 0.033255 0.446257 -0.137925
v 0.041019 0.442332 -0.142374
v -0.023799 0.349648 0.061837
v -0.024934 0.350578 0.060970
v -0.026772 0.351929 0.059846
v -0.029043 0.353612 0.058588
v -0.031692 0.355319 0.057328
v -0.034193 0.357293 0.056138
v -0.036469 0.359089 0.055171
v -0.038360 0.360509 0.054509
v -0.039664 0.361318 0.054239
v -0.040229 0.361446 0.054380
v -0.040036 0.360816 0.054923
v -0.039077 0.359542 0.055813
v -0.037453 0.357761 0.056966
v -0.035352 0.355727 0.058249
v -0.032901 0.353674 0.059547
v -0.030175 0.352054 0.060698
v -0.027716 0.350620 0.061639
v -0.025615 0.349627 0.062273
v -0.024154 0.349150 0.062521
v -0.023525 0.349167 0.062369
v -0.008906 0.351856 0.070399
v -0.011721 0.353633 0.069074
v -0.015946 0.356247 0.067379
v -0.020890 0.359746 0.065472
v -0.026061 0.363761 0.063562
v -0.030760 0.368476 0.061770
v -0.035195 0.373019 0.060289
v -0.039206 0.376652 0.059281
v -0.042255 0.378820 0.058852
v -0.043651 0.379200 0.059061
v -0.043061 0.377726 0.059896
v -0.040795 0.374548 0.061268
v -0.037444 0.370118 0.063023
v -0.033406 0.365054 0.064987
v -0.028750 0.360163 0.066946
v -0.023342 0.356329 0.068690
v -0.017998 0.353345 0.070116
v -0.013188 0.351530 0.071062
v -0.009668 0.350747 0.071445
v -0.008143 0.350886 0.071217
v 0.002593 0.359228 0.083139
v -0.002198 0.361110 0.081230
v -0.008444 0.363800 0.078902
v -0.014345 0.367701 0.076381
v -0.019289 0.372875 0.073871
v -0.023357 0.379582 0.071501
v -0.027991 0.386461 0.069510
v -0.033867 0.392260 0.068072
v -0.039545 0.395974 0.067355
v -0.042224 0.396826 0.067569
v -0.040431 0.394544 0.068786
v -0.035759 0.389547 0.070787
v -0.031018 0.382707 0.073249
v -0.027271 0.375153 0.075899
v -0.023350 0.368221 0.078499
v -0.017857 0.363281 0.080786
v -0.011113 0.360038 0.082651
v -0.004085 0.358363 0.083956
v 0.001602 0.357771 0.084573
v 0.004152 0.358076 0.084321
v 0.010513 0.368628 0.098326
v 0.002163 0.370015 0.095862
v -0.006769 0.372024 0.093056
v -0.013284 0.375615 0.090330
v -0.017655 0.381038 0.087766
v -0.020817 0.388608 0.085150
v -0.025122 0.396977 0.082772
v -0.032556 0.404848 0.080952
v -0.041949 0.410503 0.079815
v -0.046523 0.412016 0.079929
v -0.043029 0.408906 0.081485
v -0.035251 0.401758 0.084128
v -0.029819 0.392552 0.087190
v -0.026875 0.383254 0.090442
v -0.023611 0.375373 0.093384
v -0.018000 0.370331 0.095618
v -0.009973 0.367676 0.097467
v 0.000057 0.366912 0.099062
v 0.009357 0.366981 0.100004
v 0.013518 0.367523 0.099824
v 0.013279 0.379612 0.114189
v 0.001941 0.381007 0.112243
v -0.009328 0.383379 0.110939
v -0.016038 0.387635 0.109539
v -0.019463 0.392972 0.107590
v -0.021281 0.399582 0.104990
v -0.023981 0.407131 0.101794
v -0.030758 0.415318 0.098279
v -0.041783 0.421860 0.095728
v -0.047406 0.423812 0.095410
v -0.042712 0.420196 0.097502
v -0.033352 0.412097 0.101752
v -0.028937 0.402597 0.106805
v -0.027606 0.394195 0.111122
v -0.025468 0.387320 0.114140
v -0.020624 0.382297 0.115668
v -0.012343 0.378886 0.115913
v 0.000017 0.377771 0.115684
v 0.012144 0.377888 0.115962
v 0.017440 0.378433 0.115825
v 0.009265 0.392972 0.132291
v 0.000581 0.396107 0.132513
v -0.006478 0.401193 0.132726
v -0.010433 0.406969 0.131931
v -0.013036 0.411723 0.130397
v -0.015509 0.416305 0.128323
v -0.019170 0.421071 0.125448
v -0.025521 0.426278 0.121565
v -0.034510 0.430736 0.117990
v -0.039628 0.432123 0.117053
v -0.035620 0.429352 0.119734
v -0.028287 0.423745 0.125037
v -0.023528 0.417773 0.130486
v -0.020617 0.412583 0.134464
v -0.018007 0.407836 0.136947
v -0.014515 0.403209 0.138092
v -0.009245 0.397802 0.137740
v -0.001026 0.393455 0.135927
v 0.008373 0.391471 0.134009
v 0.012868 0.391486 0.132855
v 0.006823 0.413412 0.152268
v 0.004853 0.418154 0.152680
v 0.003395 0.424138 0.152719
v 0.001845 0.429545 0.151929
v -0.000433 0.433160 0.150728
v -0.003392 0.436225 0.149254
v -0.007869 0.438807 0.147349
v -0.014451 0.440922 0.144842
v -0.021481 0.442264 0.142547
v -0.024934 0.442467 0.142014
v -0.022435 0.441242 0.144063
v -0.016392 0.439165 0.147806
v -0.010680 0.436589 0.151550
v -0.006751 0.433689 0.154292
v -0.003914 0.430455 0.156069
v -0.001335 0.426794 0.156990
v 0.000878 0.421558 0.156929
v 0.003202 0.416137 0.155623
v 0.006015 0.412261 0.153766
v 0.007690 0.411276 0.152483
v 0.004713 0.436143 0.168139
v 0.003249 0.439410 0.167850
v 0.000966 0.443357 0.167378
v -0.001590 0.446880 0.166632
v -0.004212 0.449325 0.165772
v -0.006954 0.451490 0.164801
v -0.009883 0.453109 0.163778
v -0.012965 0.454226 0.162724
v -0.015586 0.454731 0.161972
v -0.016966 0.454622 0.162007
v -0.016609 0.453972 0.163053
v -0.014932 0.452799 0.164798
v -0.012652 0.451153 0.166661
v -0.010241 0.449179 0.168217
v -0.007658 0.446854 0.169380
v -0.004791 0.444458 0.170069
v -0.001645 0.441242 0.170257
v 0.001422 0.437817 0.169933
v 0.003788 0.435274 0.169223
v 0.004948 0.434612 0.168553
v -0.006206 0.451294 0.176499
v -0.006889 0.452388 0.176126
v -0.008032 0.453725 0.175698
v -0.009427 0.455108 0.175224
v -0.010990 0.456084 0.174757
v -0.012559 0.457166 0.174273
v -0.014068 0.457940 0.173852
v -0.015375 0.458441 0.173555
v -0.016347 0.458636 0.173451
v -0.016863 0.458496 0.173600
v -0.016836 0.458109 0.173998
v -0.016318 0.457433 0.174610
v -0.015365 0.456576 0.175305
v -0.014089 0.455530 0.175987
v -0.012590 0.454374 0.176561
v -0.010921 0.453480 0.176940
v -0.009291 0.452331 0.177148
v -0.007794 0.451353 0.177172
v -0.006677 0.450745 0.177050
v -0.006116 0.450722 0.176813
v -0.013476 0.456993 0.178214
v 0.015123 0.000136 -0.010835
v 0.005646 0.000136 -0.017720
v -0.006068 0.000136 -0.017720
v -0.015544 0.000136 -0.010835
v -0.019253 0.000136 0.000306
v -0.015775 0.000136 0.011446
v -0.006440 0.000136 0.018331
v 0.005274 0.000136 0.018331
v 0.014892 0.000136 0.011446
v 0.018654 0.000136 0.000306
v -0.015608 0.283780 -0.007045
v -0.024774 0.283780 -0.013852
v -0.036770 0.283780 -0.013852
v -0.046275 0.283780 -0.007045
v -0.049703 0.283780 0.004096
v -0.045764 0.283780 0.015314
v -0.036257 0.283780 0.022200
v -0.024543 0.283780 0.022200
v -0.015413 0.283780 0.015314
v -0.011974 0.283780 0.004096
v -0.000211 0.000136 0.001060
v -0.030998 0.283780 0.004337
v 0.016071 0.048389 -0.026758
v 0.019875 0.048389 -0.015667
v 0.016371 0.048389 -0.004572
v 0.006894 0.048389 0.002314
v -0.004843 0.048389 0.002314
v -0.014296 0.048389 -0.004572
v -0.018032 0.048389 -0.015667
v -0.014596 0.048389 -0.026758
v -0.005326 0.048389 -0.033608
v 0.006411 0.048389 -0.033608
v 0.009141 0.091075 -0.036147
v 0.013135 0.091075 -0.025316
v 0.009726 0.091075 -0.014451
v 0.000337 0.091075 -0.007693
v -0.011299 0.091075 -0.007693
v -0.020821 0.091075 -0.014451
v -0.024877 0.091075 -0.025316
v -0.021668 0.091075 -0.036147
v -0.012408 0.091075 -0.042805
v -0.000630 0.091075 -0.042805
v -0.000735 0.129166 -0.039274
v 0.003219 0.129166 -0.028604
v -0.000201 0.129166 -0.017863
v -0.009511 0.129166 -0.011146
v -0.021042 0.129166 -0.011146
v -0.030706 0.129166 -0.017863
v -0.034843 0.129166 -0.028604
v -0.031628 0.129166 -0.039274
v -0.022291 0.129166 -0.045797
v -0.010547 0.129166 -0.045797
v -0.011636 0.170382 -0.036204
v -0.007754 0.170382 -0.025368
v -0.011236 0.170382 -0.014533
v -0.020582 0.170382 -0.007534
v -0.032174 0.170382 -0.007534
v -0.041796 0.170382 -0.014533
v -0.045768 0.170382 -0.025368
v -0.042405 0.170382 -0.036204
v -0.033052 0.170382 -0.042789
v -0.021338 0.170382 -0.042789
v -0.018512 0.208961 -0.027767
v -0.014774 0.208961 -0.016782
v -0.018314 0.208961 -0.005641
v -0.027791 0.208961 0.001400
v -0.039504 0.208961 0.001400
v -0.048981 0.208961 -0.005641
v -0.052681 0.208961 -0.016782
v -0.049179 0.208961 -0.027767
v -0.039816 0.208961 -0.034622
v -0.028102 0.208961 -0.034622
v -0.019944 0.241492 -0.018388
v -0.016398 0.241492 -0.007248
v -0.019944 0.241492 0.003893
v -0.029382 0.241492 0.010778
v -0.041096 0.241492 0.010778
v -0.050532 0.241492 0.003893
v -0.054220 0.241492 -0.007248
v -0.050694 0.241492 -0.018388
v -0.041167 0.241492 -0.025274
v -0.029373 0.241492 -0.025274
v -0.049703 0.315915 0.018330
v -0.045764 0.315915 0.029549
v -0.030998 0.315915 0.018572
v -0.036257 0.315915 0.036434
v -0.024543 0.315915 0.036434
v -0.015413 0.315915 0.029549
v -0.011974 0.315915 0.018330
v -0.040254 0.363016 0.056209
v -0.039404 0.361649 0.059424
v -0.032123 0.356090 0.059235
v -0.035794 0.358184 0.062523
v -0.030690 0.353845 0.064383
v -0.026180 0.350408 0.064244
v -0.023816 0.349043 0.062200
v -0.015608 0.317024 -0.017689
v -0.024774 0.317024 -0.024496
v -0.030998 0.317024 -0.006307
v -0.036770 0.317024 -0.024496
v -0.046275 0.317024 -0.017689
v -0.049703 0.317024 -0.006549
v -0.011974 0.317024 -0.006549
v -0.019865 0.345241 -0.037354
v -0.025808 0.349673 -0.039279
v -0.028155 0.350493 -0.032688
v -0.032927 0.354619 -0.038715
v -0.038063 0.357884 -0.035910
v -0.039272 0.358227 -0.031892
v -0.016884 0.342674 -0.033667
vt 0.601554 0.559084
vt 0.605712 0.559084
vt 0.609869 0.559084
vt 0.614027 0.559084
vt 0.618184 0.559084
vt 0.622342 0.559084
vt 0.626499 0.559084
vt 0.630657 0.559084
vt 0.634814 0.559084
vt 0.638972 0.559084
vt 0.643129 0.559084
vt 0.647287 0.559084
vt 0.651444 0.559084
vt 0.655602 0.559084
vt 0.659759 0.559084
vt 0.663917 0.559084
vt 0.668074 0.559084
vt 0.672232 0.559084
vt 0.676389 0.559084
vt 0.680547 0.559084
vt 0.684704 0.559084
vt 0.601554 0.567399
vt 0.605712 0.567399
vt 0.609869 0.567399
vt 0.614027 0.567399
vt 0.618184 0.567399
vt 0.622342 0.567399
vt 0.626499 0.567399
vt 0.630657 0.567399
vt 0.634814 0.567399
vt 0.638972 0.567399
vt 0.643129 0.567399
vt 0.647287 0.567399
vt 0.651444 0.567399
vt 0.655602 0.567399
vt 0.659759 0.567399
vt 0.663917 0.567399
vt 0.668074 0.567399
vt 0.672232 0.567399
vt 0.676389 0.567399
vt 0.680547 0.567399
vt 0.684704 0.567399
vt 0.601554 0.575714
vt 0.605712 0.575714
vt 0.609869 0.575714
vt 0.614027 0.575714
vt 0.618184 0.575714
vt 0.622342 0.575714
vt 0.626499 0.575714
vt 0.630657 0.575714
vt 0.634814 0.575714
vt 0.638972 0.575714
vt 0.643129 0.575714
vt 0.647287 0.575714
vt 0.651444 0.575714
vt 0.655602 0.575714
vt 0.659759 0.575714
vt 0.663917 0.575714
vt 0.668074 0.575714
vt 0.672232 0.575714
vt 0.676389 0.575714
vt 0.680547 0.575714
vt 0.684704 0.575714
vt 0.601554 0.584029
vt 0.605712 0.584029
vt 0.609869 0.584029
vt 0.614027 0.584029
vt 0.618184 0.584029
vt 0.622342 0.584029
vt 0.626499 0.584029
vt 0.630657 0.584029
vt 0.634814 0.584029
vt 0.638972 0.584029
vt 0.643129 0.584029
vt 0.647287 0.584029
vt 0.651444 0.584029
vt 0.655602 0.584029
vt 0.659759 0.584029
vt 0.663917 0.584029
vt 0.668074 0.584029
vt 0.672232 0.584029
vt 0.676389 0.584029
vt 0.680547 0.584029
vt 0.684704 0.584029
vt 0.601554 0.592345
vt 0.605712 0.592345
vt 0.609869 0.592345
vt 0.614027 0.592345
vt 0.618184 0.592345
vt 0.622342 0.592345
vt 0.626499 0.592345
vt 0.630657 0.592345
vt 0.634814 0.592345
vt 0.638972 0.592345
vt 0.643129 0.592345
vt 0.647287 0.592345
vt 0.651444 0.592345
vt 0.655602 0.592345
vt 0.659759 0.592345
vt 0.663917 0.592345
vt 0.668074 0.592345
vt 0.672232 0.592345
vt 0.676389 0.592345
vt 0.680547 0.592345
vt 0.684704 0.592345
vt 0.601554 0.600659
vt 0.605712 0.600659
vt 0.609869 0.600659
vt 0.614027 0.600659
vt 0.618184 0.600659
vt 0.622342 0.600659
vt 0.626499 0.600659
vt 0.630657 0.600659
vt 0.634814 0.600659
vt 0.638972 0.600659
vt 0.643129 0.600659
vt 0.647287 0.600659
vt 0.651444 0.600659
vt 0.655602 0.600659
vt 0.659759 0.600659
vt 0.663917 0.600659
vt 0.668074 0.600659
vt 0.672232 0.600659
vt 0.676389 0.600659
vt 0.680547 0.600659
vt 0.684704 0.600659
vt 0.601554 0.608975
vt 0.605712 0.608975
vt 0.609869 0.608975
vt 0.614027 0.608975
vt 0.618184 0.608975
vt 0.622342 0.608975
vt 0.626499 0.608975
vt 0.630657 0.608975
vt 0.634814 0.608975
vt 0.638972 0.608975
vt 0.643129 0.608975
vt 0.647287 0.608975
vt 0.651444 0.608975
vt 0.655602 0.608975
vt 0.659759 0.608975
vt 0.663917 0.608975
vt 0.668074 0.608975
vt 0.672232 0.608975
vt 0.676389 0.608975
vt 0.680547 0.608975
vt 0.684704 0.608975
vt 0.601554 0.617290
vt 0.605712 0.617290
vt 0.609869 0.617290
vt 0.614027 0.617290
vt 0.618184 0.617290
vt 0.622342 0.617290
vt 0.626499 0.617290
vt 0.630657 0.617290
vt 0.634814 0.617290
vt 0.638972 0.617290
vt 0.643129 0.617290
vt 0.647287 0.617290
vt 0.651444 0.617290
vt 0.655602 0.617290
vt 0.659759 0.617290
vt 0.663917 0.617290
vt 0.668074 0.617290
vt 0.672232 0.617290
vt 0.676389 0.617290
vt 0.680547 0.617290
vt 0.684704 0.617290
vt 0.601554 0.625605
vt 0.605712 0.625605
vt 0.609869 0.625605
vt 0.614027 0.625605
vt 0.618184 0.625605
vt 0.622342 0.625605
vt 0.626499 0.625605
vt 0.630657 0.625605
vt 0.634814 0.625605
vt 0.638972 0.625605
vt 0.643129 0.625605
vt 0.647287 0.625605
vt 0.651444 0.625605
vt 0.655602 0.625605
vt 0.659759 0.625605
vt 0.663917 0.625605
vt 0.668074 0.625605
vt 0.672232 0.625605
vt 0.676389 0.625605
vt 0.680547 0.625605
vt 0.684704 0.625605
vt 0.603633 0.633920
vt 0.607790 0.633920
vt 0.611948 0.633920
vt 0.616105 0.633920
vt 0.620263 0.633920
vt 0.624421 0.633920
vt 0.628578 0.633920
vt 0.632736 0.633920
vt 0.636893 0.633920
vt 0.641051 0.633920
vt 0.645208 0.633920
vt 0.649366 0.633920
vt 0.653523 0.633920
vt 0.657681 0.633920
vt 0.661838 0.633920
vt 0.665996 0.633920
vt 0.670153 0.633920
vt 0.674311 0.633920
vt 0.678468 0.633920
vt 0.682626 0.633920
vt 0.601554 0.559084
vt 0.605712 0.559084
vt 0.605712 0.567399
vt 0.601554 0.567399
vt 0.609869 0.559084
vt 0.609869 0.567399
vt 0.614027 0.559084
vt 0.614027 0.567399
vt 0.618184 0.559084
vt 0.618184 0.567399
vt 0.622342 0.559084
vt 0.622342 0.567399
vt 0.626499 0.559084
vt 0.626499 0.567399
vt 0.630657 0.559084
vt 0.630657 0.567399
vt 0.634814 0.559084
vt 0.634814 0.567399
vt 0.638972 0.559084
vt 0.638972 0.567399
vt 0.643129 0.559084
vt 0.643129 0.567399
vt 0.647287 0.559084
vt 0.647287 0.567399
vt 0.651444 0.559084
vt 0.651444 0.567399
vt 0.655602 0.559084
vt 0.655602 0.567399
vt 0.659759 0.559084
vt 0.659759 0.567399
vt 0.663917 0.559084
vt 0.663917 0.567399
vt 0.668074 0.559084
vt 0.668074 0.567399
vt 0.672232 0.559084
vt 0.672232 0.567399
vt 0.676389 0.559084
vt 0.676389 0.567399
vt 0.680547 0.559084
vt 0.680547 0.567399
vt 0.684704 0.559084
vt 0.684704 0.567399
vt 0.605712 0.575714
vt 0.601554 0.575714
vt 0.609869 0.575714
vt 0.614027 0.575714
vt 0.618184 0.575714
vt 0.622342 0.575714
vt 0.626499 0.575714
vt 0.630657 0.575714
vt 0.634814 0.575714
vt 0.638972 0.575714
vt 0.643129 0.575714
vt 0.647287 0.575714
vt 0.651444 0.575714
vt 0.655602 0.575714
vt 0.659759 0.575714
vt 0.663917 0.575714
vt 0.668074 0.575714
vt 0.672232 0.575714
vt 0.676389 0.575714
vt 0.680547 0.575714
vt 0.684704 0.575714
vt 0.605712 0.584029
vt 0.601554 0.584029
vt 0.609869 0.584029
vt 0.614027 0.584029
vt 0.618184 0.584029
vt 0.622342 0.584029
vt 0.626499 0.584029
vt 0.630657 0.584029
vt 0.634814 0.584029
vt 0.638972 0.584029
vt 0.643129 0.584029
vt 0.647287 0.584029
vt 0.651444 0.584029
vt 0.655602 0.584029
vt 0.659759 0.584029
vt 0.663917 0.584029
vt 0.668074 0.584029
vt 0.672232 0.584029
vt 0.676389 0.584029
vt 0.680547 0.584029
vt 0.684704 0.584029
vt 0.605712 0.592345
vt 0.601554 0.592345
vt 0.609869 0.592345
vt 0.614027 0.592345
vt 0.618184 0.592345
vt 0.622342 0.592345
vt 0.626499 0.592345
vt 0.630657 0.592345
vt 0.634814 0.592345
vt 0.638972 0.592345
vt 0.643129 0.592345
vt 0.647287 0.592345
vt 0.651444 0.592345
vt 0.655602 0.592345
vt 0.659759 0.592345
vt 0.663917 0.592345
vt 0.668074 0.592345
vt 0.672232 0.592345
vt 0.676389 0.592345
vt 0.680547 0.592345
vt 0.684704 0.592345
vt 0.605712 0.600659
vt 0.601554 0.600659
vt 0.609869 0.600659
vt 0.614027 0.600659
vt 0.618184 0.600659
vt 0.622342 0.600659
vt 0.626499 0.600659
vt 0.630657 0.600659
vt 0.634814 0.600659
vt 0.638972 0.600659
vt 0.643129 0.600659
vt 0.647287 0.600659
vt 0.651444 0.600659
vt 0.655602 0.600659
vt 0.659759 0.600659
vt 0.663917 0.600659
vt 0.668074 0.600659
vt 0.672232 0.600659
vt 0.676389 0.600659
vt 0.680547 0.600659
vt 0.684704 0.600659
vt 0.605712 0.608975
vt 0.601554 0.608975
vt 0.609869 0.608975
vt 0.614027 0.608975
vt 0.618184 0.608975
vt 0.622342 0.608975
vt 0.626499 0.608975
vt 0.630657 0.608975
vt 0.634814 0.608975
vt 0.638972 0.608975
vt 0.643129 0.608975
vt 0.647287 0.608975
vt 0.651444 0.608975
vt 0.655602 0.608975
vt 0.659759 0.608975
vt 0.663917 0.608975
vt 0.668074 0.608975
vt 0.672232 0.608975
vt 0.676389 0.608975
vt 0.680547 0.608975
vt 0.684704 0.608975
vt 0.605712 0.617290
vt 0.601554 0.617290
vt 0.609869 0.617290
vt 0.614027 0.617290
vt 0.618184 0.617290
vt 0.622342 0.617290
vt 0.626499 0.617290
vt 0.630657 0.617290
vt 0.634814 0.617290
vt 0.638972 0.617290
vt 0.643129 0.617290
vt 0.647287 0.617290
vt 0.651444 0.617290
vt 0.655602 0.617290
vt 0.659759 0.617290
vt 0.663917 0.617290
vt 0.668074 0.617290
vt 0.672232 0.617290
vt 0.676389 0.617290
vt 0.680547 0.617290
vt 0.684704 0.617290
vt 0.605712 0.625605
vt 0.601554 0.625605
vt 0.609869 0.625605
vt 0.614027 0.625605
vt 0.618184 0.625605
vt 0.622342 0.625605
vt 0.626499 0.625605
vt 0.630657 0.625605
vt 0.634814 0.625605
vt 0.638972 0.625605
vt 0.643129 0.625605
vt 0.647287 0.625605
vt 0.651444 0.625605
vt 0.655602 0.625605
vt 0.659759 0.625605
vt 0.663917 0.625605
vt 0.668074 0.625605
vt 0.672232 0.625605
vt 0.676389 0.625605
vt 0.680547 0.625605
vt 0.684704 0.625605
vt 0.603633 0.633920
vt 0.607790 0.633920
vt 0.611948 0.633920
vt 0.616105 0.633920
vt 0.620263 0.633920
vt 0.624421 0.633920
vt 0.628578 0.633920
vt 0.632736 0.633920
vt 0.636893 0.633920
vt 0.641051 0.633920
vt 0.645208 0.633920
vt 0.649366 0.633920
vt 0.653523 0.633920
vt 0.657681 0.633920
vt 0.661838 0.633920
vt 0.665996 0.633920
vt 0.670153 0.633920
vt 0.674311 0.633920
vt 0.678468 0.633920
vt 0.682626 0.633920
vt 0.632736 0.580911
vt 0.634814 0.580911
vt 0.634814 0.586216
vt 0.632736 0.586216
vt 0.636893 0.580911
vt 0.636893 0.586216
vt 0.638972 0.580911
vt 0.638972 0.586216
vt 0.641051 0.580911
vt 0.641051 0.586216
vt 0.643129 0.580911
vt 0.643129 0.586216
vt 0.645208 0.580911
vt 0.645208 0.586216
vt 0.647287 0.580911
vt 0.647287 0.586216
vt 0.649366 0.580911
vt 0.649366 0.586216
vt 0.651444 0.580911
vt 0.651444 0.586216
vt 0.653523 0.580911
vt 0.653523 0.586216
vt 0.647144 0.584146
vt 0.653640 0.588865
vt 0.643129 0.596502
vt 0.639115 0.584146
vt 0.632618 0.588865
vt 0.630137 0.596502
vt 0.632618 0.604139
vt 0.639115 0.608858
vt 0.647144 0.608858
vt 0.653640 0.604139
vt 0.656122 0.596502
vt 0.653640 0.604139
vt 0.647144 0.608858
vt 0.643129 0.596502
vt 0.639115 0.608858
vt 0.632618 0.604139
vt 0.630137 0.596502
vt 0.630137 0.596502
vt 0.632618 0.588865
vt 0.643129 0.596502
vt 0.639115 0.584146
vt 0.647144 0.584146
vt 0.653640 0.588865
vt 0.656122 0.596502
vt 0.656122 0.596502
vt 0.653523 0.590908
vt 0.651444 0.590908
vt 0.649366 0.590908
vt 0.647287 0.590908
vt 0.645208 0.590908
vt 0.643129 0.590908
vt 0.641051 0.590908
vt 0.638972 0.590908
vt 0.636893 0.590908
vt 0.634814 0.590908
vt 0.632736 0.590908
vt 0.653523 0.595096
vt 0.651444 0.595096
vt 0.649366 0.595096
vt 0.647287 0.595096
vt 0.645208 0.595096
vt 0.643129 0.595096
vt 0.641051 0.595096
vt 0.638972 0.595096
vt 0.636893 0.595096
vt 0.634814 0.595096
vt 0.632736 0.595096
vt 0.653523 0.599627
vt 0.651444 0.599627
vt 0.649366 0.599627
vt 0.647287 0.599627
vt 0.645208 0.599627
vt 0.643129 0.599627
vt 0.641051 0.599627
vt 0.638972 0.599627
vt 0.636893 0.599627
vt 0.634814 0.599627
vt 0.632736 0.599627
vt 0.653523 0.603868
vt 0.651444 0.603868
vt 0.649366 0.603868
vt 0.647287 0.603868
vt 0.645208 0.603868
vt 0.643129 0.603868
vt 0.641051 0.603868
vt 0.638972 0.603868
vt 0.636893 0.603868
vt 0.634814 0.603868
vt 0.632736 0.603868
vt 0.653523 0.607444
vt 0.651444 0.607444
vt 0.649366 0.607444
vt 0.647287 0.607444
vt 0.645208 0.607444
vt 0.643129 0.607444
vt 0.641051 0.607444
vt 0.638972 0.607444
vt 0.636893 0.607444
vt 0.634814 0.607444
vt 0.632736 0.607444
vt 0.653523 0.612093
vt 0.651444 0.612093
vt 0.649366 0.612093
vt 0.647287 0.612093
vt 0.645208 0.612093
vt 0.643129 0.612093
vt 0.641051 0.612093
vt 0.638972 0.612093
vt 0.636893 0.612093
vt 0.634814 0.612093
vt 0.632736 0.612093
vt 0.630137 0.596502
vt 0.632618 0.588865
vt 0.632618 0.588865
vt 0.630137 0.596502
vt 0.643129 0.596502
vt 0.643129 0.596502
vt 0.639115 0.584146
vt 0.639115 0.584146
vt 0.647144 0.584146
vt 0.647144 0.584146
vt 0.653640 0.588865
vt 0.653640 0.588865
vt 0.656122 0.596502
vt 0.656122 0.596502
vt 0.653640 0.604139
vt 0.647144 0.608858
vt 0.647144 0.608858
vt 0.653640 0.604139
vt 0.639115 0.608858
vt 0.639115 0.608858
vt 0.632618 0.604139
vt 0.632618 0.604139
vt 0.630137 0.596502
vt 0.643129 0.596502
vt 0.656122 0.596502
vn 0.096562 0.233384 0.967578
vn 0.234039 0.248740 0.939869
vn 0.365744 0.338316 0.867049
vn 0.241016 0.340506 0.908827
vn 0.254910 0.252751 0.933348
vn 0.351478 0.356440 0.865687
vn 0.262935 0.243126 0.933678
vn 0.299626 0.364360 0.881740
vn 0.239637 0.235885 0.941771
vn 0.227298 0.352656 0.907728
vn 0.218635 0.217533 0.951251
vn 0.192848 0.316825 0.928672
vn 0.231078 0.171295 0.957738
vn 0.234890 0.248803 0.939640
vn 0.263788 0.094813 0.959910
vn 0.313048 0.162505 0.935732
vn 0.324800 -0.065848 0.943488
vn 0.417953 0.020198 0.908244
vn 0.350480 -0.932376 0.088537
vn 0.498376 -0.865631 -0.048010
vn -0.108092 -0.530607 -0.840698
vn -0.131497 -0.487203 -0.863332
vn -0.164634 -0.449496 -0.877980
vn -0.151553 -0.430675 -0.889691
vn -0.199528 -0.431704 -0.879671
vn -0.140015 -0.447445 -0.883283
vn -0.249998 -0.421973 -0.871458
vn -0.173238 -0.476229 -0.862088
vn -0.339999 -0.399372 -0.851412
vn -0.301425 -0.475185 -0.826645
vn -0.440126 -0.371390 -0.817532
vn -0.463953 -0.437688 -0.770180
vn -0.518858 -0.354765 -0.777771
vn -0.599152 -0.376561 -0.706553
vn -0.637984 -0.322218 -0.699394
vn -0.725610 -0.297140 -0.620643
vn -0.806005 -0.279133 -0.521958
vn -0.867360 -0.202595 -0.454580
vn -0.799396 0.003816 0.600792
vn -0.814242 0.227395 0.534136
vn 0.588209 0.390756 0.708039
vn 0.512155 0.392558 0.763934
vn 0.532226 0.466042 0.706782
vn 0.391874 0.557177 0.732113
vn 0.225233 0.599277 0.768204
vn 0.166695 0.575573 0.800580
vn 0.268681 0.491912 0.828150
vn 0.420386 0.377050 0.825293
vn 0.554857 0.239430 0.796748
vn 0.525765 -0.846050 0.088152
vn -0.299907 -0.588416 -0.750881
vn -0.236714 -0.592962 -0.769651
vn -0.124272 -0.658266 -0.742457
vn -0.111795 -0.704381 -0.700963
vn -0.295983 -0.680218 -0.670595
vn -0.555003 -0.551270 -0.622955
vn -0.724785 -0.384006 -0.572037
vn -0.816570 -0.247957 -0.521278
vn -0.894290 -0.132809 -0.427325
vn -0.788835 0.422403 0.446447
vn 0.739416 0.337351 0.582631
vn 0.685536 0.346013 0.640558
vn 0.674257 0.471286 0.568566
vn 0.458094 0.686676 0.564469
vn 0.185236 0.814652 0.549573
vn 0.099669 0.814354 0.571747
vn 0.261595 0.723121 0.639268
vn 0.488049 0.561256 0.668430
vn 0.641513 0.394404 0.657957
vn 0.582784 -0.811546 -0.041900
vn -0.411192 -0.649281 -0.639809
vn -0.289063 -0.718571 -0.632533
vn -0.071039 -0.826365 -0.558636
vn -0.022634 -0.870637 -0.491404
vn -0.266563 -0.820615 -0.505505
vn -0.616742 -0.591796 -0.519043
vn -0.802271 -0.329167 -0.498006
vn -0.859586 -0.173641 -0.480583
vn -0.892878 -0.077887 -0.443511
vn -0.727624 0.609055 0.315618
vn 0.759226 0.302328 0.576345
vn 0.745357 0.324520 0.582348
vn 0.643846 0.447115 0.620926
vn 0.375760 0.661419 0.649099
vn 0.106094 0.784295 0.611249
vn 0.043624 0.801860 0.595918
vn 0.228896 0.744762 0.626847
vn 0.490793 0.610201 0.621914
vn 0.668273 0.467863 0.578373
vn 0.727632 -0.634653 -0.260322
vn -0.421681 -0.643187 -0.639136
vn -0.266903 -0.722185 -0.638131
vn -0.004344 -0.802054 -0.597235
vn 0.050000 -0.810095 -0.584163
vn -0.188218 -0.738486 -0.647467
vn -0.540361 -0.519179 -0.662165
vn -0.760205 -0.274462 -0.588863
vn -0.841563 -0.126741 -0.525080
vn -0.872120 -0.038699 -0.487758
vn -0.590362 0.796401 0.131218
vn 0.647170 0.332083 0.686216
vn 0.696710 0.347655 0.627480
vn 0.447228 0.440811 0.778250
vn 0.207724 0.537712 0.817139
vn 0.080745 0.594899 0.799735
vn 0.099307 0.618881 0.779182
vn 0.270279 0.600442 0.752608
vn 0.489455 0.539640 0.684998
vn 0.669796 0.455932 0.586088
vn 0.774119 -0.477774 -0.415297
vn -0.373341 -0.600685 -0.706961
vn -0.229899 -0.633010 -0.739219
vn -0.024585 -0.649056 -0.760343
vn 0.029241 -0.615673 -0.787459
vn -0.125069 -0.529313 -0.839158
vn -0.372513 -0.392503 -0.840937
vn -0.608576 -0.245642 -0.754517
vn -0.760429 -0.113438 -0.639436
vn -0.825982 -0.006169 -0.563662
vn -0.515907 0.856633 0.004373
vn 0.362087 0.490951 0.792376
vn 0.478232 0.477284 0.737221
vn 0.190078 0.573412 0.796912
vn 0.150257 0.596714 0.788261
vn 0.198319 0.566436 0.799887
vn 0.284515 0.536926 0.794205
vn 0.415460 0.478152 0.773798
vn 0.545917 0.421900 0.723861
vn 0.682049 0.357501 0.637967
vn 0.824141 -0.413819 -0.386712
vn -0.330460 -0.536504 -0.776505
vn -0.279445 -0.540502 -0.793579
vn -0.190432 -0.559760 -0.806477
vn -0.149043 -0.557326 -0.816807
vn -0.201672 -0.501516 -0.841315
vn -0.287200 -0.441666 -0.849969
vn -0.411145 -0.332758 -0.848665
vn -0.598948 -0.158485 -0.784949
vn -0.734935 0.026440 -0.677622
vn -0.537467 0.842234 -0.042084
vn 0.139151 0.851524 0.505514
vn 0.129210 0.836742 0.532135
vn 0.178394 0.860904 0.476466
vn 0.311041 0.805359 0.504629
vn 0.434915 0.717933 0.543527
vn 0.533316 0.630123 0.564374
vn 0.629284 0.508749 0.587517
vn 0.699833 0.406229 0.587548
vn 0.782122 0.289283 0.551906
vn 0.832159 -0.507451 -0.223618
vn -0.381829 -0.611257 -0.693232
vn -0.449860 -0.611860 -0.650580
vn -0.437237 -0.653501 -0.617868
vn -0.405829 -0.693509 -0.595271
vn -0.405353 -0.674775 -0.616739
vn -0.401370 -0.645006 -0.650284
vn -0.381258 -0.604885 -0.699111
vn -0.464833 -0.401994 -0.788880
vn -0.600813 0.007716 -0.799353
vn -0.473452 0.876184 -0.090251
vn 0.248625 0.965560 0.076678
vn 0.114856 0.992296 -0.046433
vn 0.352891 0.923898 0.147923
vn 0.498949 0.834121 0.235142
vn 0.575311 0.771987 0.270282
vn 0.645601 0.707890 0.286515
vn 0.732095 0.609595 0.304023
vn 0.812797 0.501055 0.297162
vn 0.924451 0.302901 0.231606
vn 0.752210 -0.604752 -0.261641
vn -0.283084 -0.821369 -0.495193
vn -0.434271 -0.768512 -0.469892
vn -0.473507 -0.752387 -0.457935
vn -0.485458 -0.741626 -0.462948
vn -0.519196 -0.692561 -0.500795
vn -0.551600 -0.625607 -0.551683
vn -0.521930 -0.636285 -0.568094
vn -0.538585 -0.534402 -0.651415
vn -0.574878 -0.064881 -0.815663
vn -0.192188 0.894286 -0.404124
vn 0.416549 0.548751 -0.724817
vn 0.509948 -0.036073 -0.859448
vn 0.503091 0.141250 -0.852612
vn 0.527217 0.382087 -0.758981
vn 0.574610 0.259732 -0.776120
vn 0.512377 0.199307 -0.835312
vn 0.550293 0.379682 -0.743652
vn 0.515446 0.237358 -0.823394
vn 0.581841 0.340465 -0.738609
vn 0.534362 0.240121 -0.810431
vn 0.606896 0.277383 -0.744806
vn 0.540394 0.239173 -0.806704
vn 0.596842 0.242221 -0.764924
vn 0.509283 0.255554 -0.821780
vn 0.530334 0.265251 -0.805225
vn 0.435672 0.274307 -0.857290
vn 0.427136 0.312409 -0.848502
vn 0.255816 0.279849 -0.925334
vn 0.250326 0.361707 -0.898056
vn -0.845687 -0.017707 -0.533386
vn -0.926424 0.174187 -0.333764
vn -0.824805 -0.286451 0.487485
vn -0.740307 -0.253118 0.622797
vn -0.747366 -0.300305 0.592673
vn -0.696538 -0.251744 0.671907
vn -0.712604 -0.310103 0.629311
vn -0.710525 -0.242275 0.660649
vn -0.674240 -0.334428 0.658452
vn -0.714984 -0.276436 0.642169
vn -0.611805 -0.390531 0.687881
vn -0.660905 -0.390651 0.640779
vn -0.535493 -0.461406 0.707355
vn -0.556120 -0.531899 0.638604
vn -0.479622 -0.520457 0.706462
vn -0.435712 -0.645625 0.627154
vn -0.386295 -0.636746 0.667331
vn -0.293847 -0.749983 0.592604
vn -0.224925 -0.834428 0.503129
vn -0.106615 -0.868908 0.483355
vn 0.365648 -0.800747 -0.474453
vn 0.621340 -0.731052 -0.281956
vn 0.448987 0.646234 -0.617083
vn 0.493650 0.572176 -0.654923
vn 0.530501 0.618114 -0.580089
vn 0.660090 0.514201 -0.547612
vn 0.758205 0.368882 -0.537635
vn 0.766445 0.304218 -0.565697
vn 0.674663 0.371641 -0.637741
vn 0.529665 0.477338 -0.701144
vn 0.359677 0.560657 -0.745853
vn -0.858238 0.214652 -0.466210
vn -0.720827 -0.436680 0.538256
vn -0.749961 -0.377573 0.543136
vn -0.828730 -0.294259 0.476044
vn -0.856799 -0.299723 0.419597
vn -0.771665 -0.467173 0.431605
vn -0.566631 -0.671832 0.477044
vn -0.351985 -0.779923 0.517520
vn -0.186929 -0.824630 0.533894
vn -0.027592 -0.865141 0.500770
vn 0.766513 -0.629145 -0.128974
vn 0.310936 0.777912 -0.546051
vn 0.356119 0.726914 -0.587176
vn 0.441634 0.760989 -0.475242
vn 0.690525 0.627731 -0.359346
vn 0.874554 0.412933 -0.254248
vn 0.907088 0.330954 -0.260118
vn 0.807039 0.450387 -0.381890
vn 0.611891 0.609575 -0.503992
vn 0.417800 0.700314 -0.578796
vn -0.894157 0.286469 -0.344121
vn -0.699978 -0.567344 0.433764
vn -0.792662 -0.475164 0.381977
vn -0.920708 -0.308550 0.238943
vn -0.947437 -0.280844 0.153263
vn -0.839770 -0.493898 0.225502
vn -0.544723 -0.748721 0.377748
vn -0.253353 -0.838918 0.481694
vn -0.093795 -0.843003 0.529668
vn 0.014017 -0.844997 0.534588
vn 0.862735 -0.503546 0.046152
vn 0.272139 0.785469 -0.555860
vn 0.297873 0.779334 -0.551280
vn 0.449181 0.721679 -0.526702
vn 0.724261 0.537405 -0.432021
vn 0.894071 0.325136 -0.308097
vn 0.921308 0.272735 -0.277140
vn 0.830535 0.427259 -0.357297
vn 0.636196 0.630587 -0.444539
vn 0.444098 0.753717 -0.484445
vn -0.863934 0.492318 -0.106029
vn -0.691393 -0.575282 0.437066
vn -0.804274 -0.455148 0.382078
vn -0.933123 -0.235670 0.271553
vn -0.950561 -0.187703 0.247392
vn -0.844493 -0.385758 0.371514
vn -0.557691 -0.645487 0.521851
vn -0.252205 -0.776625 0.577275
vn -0.074840 -0.808348 0.583929
vn 0.025519 -0.810299 0.585460
vn 0.917382 -0.303195 0.257841
vn 0.372336 0.683795 -0.627527
vn 0.349358 0.738671 -0.576467
vn 0.559949 0.525965 -0.640171
vn 0.727933 0.329684 -0.601184
vn 0.807462 0.229489 -0.543451
vn 0.815353 0.255915 -0.519334
vn 0.740454 0.412572 -0.530576
vn 0.598884 0.602971 -0.527034
vn 0.436157 0.750850 -0.495975
vn -0.798980 0.595534 0.083487
vn -0.693877 -0.512254 0.506094
vn -0.775353 -0.385823 0.499968
vn -0.855789 -0.196262 0.478650
vn -0.852167 -0.133150 0.506046
vn -0.752466 -0.247810 0.610234
vn -0.562833 -0.436418 0.701968
vn -0.333649 -0.615559 0.713979
vn -0.130178 -0.721527 0.680038
vn 0.011792 -0.752196 0.658835
vn 0.900350 -0.206673 0.382958
vn 0.633565 0.461310 -0.621119
vn 0.567399 0.569272 -0.594969
vn 0.756507 0.325766 -0.567075
vn 0.784933 0.296263 -0.544159
vn 0.749188 0.331102 -0.573662
vn 0.696643 0.403067 -0.593486
vn 0.600040 0.508440 -0.617609
vn 0.494423 0.615705 -0.613558
vn 0.366199 0.727517 -0.580187
vn -0.745984 0.662183 0.070860
vn -0.676432 -0.447195 0.585198
vn -0.700980 -0.399486 0.590795
vn -0.748096 -0.321135 0.580710
vn -0.761670 -0.280753 0.583984
vn -0.707163 -0.310878 0.635040
vn -0.633679 -0.371543 0.678533
vn -0.502380 -0.452918 0.736532
vn -0.271541 -0.576379 0.770748
vn -0.029249 -0.649723 0.759608
vn 0.875933 -0.229322 0.424444
vn 0.903046 0.383797 -0.192895
vn 0.903128 0.368203 -0.220876
vn 0.888977 0.425396 -0.169582
vn 0.813424 0.530915 -0.237636
vn 0.716488 0.617171 -0.325185
vn 0.619490 0.680205 -0.391860
vn 0.494583 0.729837 -0.471937
vn 0.384549 0.762850 -0.519791
vn 0.244782 0.804067 -0.541811
vn -0.767722 0.630665 -0.113421
vn -0.695472 -0.524432 0.491213
vn -0.660293 -0.591024 0.463361
vn -0.687855 -0.594433 0.416539
vn -0.723202 -0.579062 0.376386
vn -0.715144 -0.571371 0.402622
vn -0.703040 -0.556136 0.443225
vn -0.692299 -0.521508 0.498751
vn -0.524953 -0.529323 0.666515
vn -0.130578 -0.523004 0.842268
vn 0.869068 -0.155317 0.469678
vn 0.807090 0.546590 0.223262
vn 0.821119 0.435500 0.368922
vn 0.768368 0.627642 0.125202
vn 0.681673 0.731566 -0.011497
vn 0.618981 0.781462 -0.078615
vn 0.549002 0.825969 -0.127954
vn 0.444882 0.874509 -0.193171
vn 0.324026 0.915488 -0.238514
vn 0.093091 0.959384 -0.266301
vn -0.845148 0.525362 -0.098594
vn -0.831780 -0.510265 0.218565
vn -0.732752 -0.636925 0.239587
vn -0.702862 -0.669287 0.240913
vn -0.691952 -0.676783 0.251332
vn -0.653857 -0.690602 0.309094
vn -0.605451 -0.696635 0.384875
vn -0.629561 -0.671290 0.391181
vn -0.567424 -0.649353 0.506331
vn -0.207959 -0.521425 0.827568
vn 0.684384 0.132225 0.717033
vn 0.084872 0.610090 0.787773
vn 0.561759 -0.267969 -0.782700
vn 0.561759 -0.267969 -0.782700
vn 0.567894 -0.172147 -0.804898
vn 0.566860 -0.196614 -0.800008
vn 0.000000 -0.312741 -0.949839
vn 0.000000 -0.312741 -0.949839
vn -0.000000 -0.263595 -0.964633
vn -0.000000 -0.268312 -0.963332
vn -0.572597 -0.247598 -0.781555
vn -0.572597 -0.247598 -0.781555
vn -0.570685 -0.254732 -0.780660
vn -0.570409 -0.255752 -0.780529
vn -0.949050 -0.079457 -0.304943
vn -0.949050 -0.079457 -0.304943
vn -0.945441 -0.133964 -0.296978
vn -0.943334 -0.154390 -0.293743
vn -0.943408 0.127834 0.306006
vn -0.943408 0.127834 0.306006
vn -0.946643 0.052326 0.318007
vn -0.946264 0.017239 0.322935
vn -0.568268 0.275496 0.775354
vn -0.568268 0.275496 0.775354
vn -0.575447 0.206946 0.791223
vn -0.577204 0.183813 0.795643
vn 0.000000 0.315049 0.949076
vn 0.000000 0.315049 0.949075
vn 0.000000 0.276895 0.960900
vn 0.000000 0.273704 0.961814
vn 0.567400 0.242952 0.786786
vn 0.567400 0.242952 0.786786
vn 0.565929 0.256185 0.783641
vn 0.566142 0.254334 0.784090
vn 0.947774 0.076150 0.309718
vn 0.947774 0.076150 0.309718
vn 0.941299 0.151935 0.301449
vn 0.943647 0.131008 0.303919
vn 0.942313 -0.123948 -0.310940
vn 0.942313 -0.123948 -0.310940
vn 0.945454 -0.012940 -0.325498
vn 0.945745 -0.048004 -0.321344
vn 0.000000 -1.000000 -0.000000
vn 0.000000 -1.000000 0.000000
vn 0.000000 -1.000000 -0.000000
vn 0.000000 -1.000000 -0.000000
vn 0.000000 -1.000000 -0.000000
vn 0.000000 -1.000000 -0.000000
vn 0.000000 -1.000000 0.000000
vn 0.000000 -1.000000 -0.000000
vn 0.000000 -1.000000 0.000000
vn 0.000000 -1.000000 0.000000
vn 0.000000 -1.000000 0.000000
vn 0.573020 0.813053 0.102923
vn 0.573019 0.813053 0.102926
vn 0.573020 0.813053 0.102925
vn 0.573020 0.813052 0.102926
vn 0.573020 0.813053 0.102926
vn 0.573020 0.813053 0.102925
vn 0.600446 0.780653 0.173335
vn 0.600447 0.780654 0.173330
vn 0.600449 0.780655 0.173317
vn 0.600450 0.780655 0.173313
vn 0.600447 0.780655 0.173323
vn 0.600447 0.780657 0.173313
vn 0.600448 0.780658 0.173308
vn 0.573020 0.813053 0.102922
vn 0.929474 0.148715 -0.337583
vn 0.932414 0.130738 -0.336914
vn 0.926000 0.239163 0.292105
vn 0.926678 0.236337 0.292254
vn 0.567239 0.247214 0.785573
vn 0.567515 0.244960 0.786080
vn 0.000000 0.173627 0.984812
vn 0.000000 0.156200 0.987725
vn -0.579959 0.031754 0.814026
vn -0.578799 0.003624 0.815462
vn -0.931892 -0.127100 0.339740
vn -0.928462 -0.145881 0.341582
vn -0.930123 -0.237481 -0.280131
vn -0.929560 -0.240123 -0.279747
vn -0.566931 -0.238102 -0.788604
vn -0.567086 -0.240887 -0.787647
vn -0.000000 -0.140685 -0.990055
vn -0.000000 -0.158075 -0.987427
vn 0.563943 0.004995 -0.825799
vn 0.565809 -0.021241 -0.824262
vn 0.911237 0.240745 -0.334199
vn 0.911901 0.237481 -0.334724
vn 0.923943 0.244971 0.293800
vn 0.924355 0.243054 0.294096
vn 0.580384 0.162078 0.798050
vn 0.582931 0.145145 0.799453
vn 0.000000 0.012768 0.999919
vn 0.000000 -0.016272 0.999868
vn -0.571150 -0.141632 0.808535
vn -0.570055 -0.161222 0.805633
vn -0.908764 -0.237586 0.343077
vn -0.907983 -0.241236 0.342597
vn -0.928521 -0.242703 -0.280971
vn -0.928161 -0.244536 -0.280570
vn -0.570122 -0.140912 -0.809385
vn -0.569259 -0.156956 -0.807037
vn -0.000000 0.012246 -0.999925
vn -0.000000 -0.012251 -0.999925
vn 0.551378 0.152750 -0.820152
vn 0.552867 0.135698 -0.822146
vn 0.911335 0.251881 -0.325613
vn 0.911799 0.250699 -0.325228
vn 0.937834 0.174750 0.299882
vn 0.940402 0.158900 0.300657
vn 0.594408 0.024463 0.803792
vn 0.595523 -0.003783 0.803329
vn 0.000000 -0.146101 0.989270
vn 0.000000 -0.165693 0.986177
vn -0.566814 -0.249898 0.785031
vn -0.566942 -0.253650 0.783734
vn -0.909414 -0.253843 0.329438
vn -0.908816 -0.254979 0.330210
vn -0.943010 -0.157814 -0.292962
vn -0.940818 -0.173344 -0.291227
vn -0.579346 0.002331 -0.815078
vn -0.577703 -0.023960 -0.815895
vn 0.000000 0.148020 -0.988984
vn 0.000000 0.129805 -0.991540
vn 0.548786 0.236972 -0.801672
vn 0.548481 0.232989 -0.803047
vn 0.927960 0.196463 -0.316689
vn 0.931013 0.183694 -0.315391
vn 0.951503 0.050194 0.303518
vn 0.952482 0.024787 0.303584
vn 0.591406 -0.123495 0.796861
vn 0.589092 -0.142933 0.795325
vn 0.000000 -0.247686 0.968840
vn 0.000000 -0.251419 0.967878
vn -0.570474 -0.270610 0.775455
vn -0.570258 -0.271759 0.775211
vn -0.930201 -0.186402 0.316198
vn -0.927071 -0.199765 0.317228
vn -0.953207 -0.022892 -0.301451
vn -0.952506 -0.047833 -0.300739
vn -0.579904 0.143113 -0.802017
vn -0.580696 0.124027 -0.804618
vn 0.000000 0.241632 -0.970368
vn 0.000000 0.237054 -0.971496
vn 0.557984 0.259648 -0.788186
vn 0.558556 0.259017 -0.787988
vn 0.948933 0.062450 -0.309236
vn 0.950458 0.037157 -0.308626
vn 0.948057 -0.108786 0.298920
vn 0.945818 -0.130379 0.297371
vn 0.577215 -0.238285 0.781053
vn 0.576546 -0.244367 0.779666
vn 0.000000 -0.267695 0.963504
vn 0.000000 -0.268017 0.963414
vn -0.579103 -0.190386 0.792713
vn -0.578225 -0.202549 0.790335
vn -0.946761 -0.037225 0.319777
vn -0.945991 -0.063058 0.318001
vn -0.945866 0.130822 -0.297023
vn -0.948064 0.109772 -0.298538
vn -0.568010 0.243501 -0.786175
vn -0.569164 0.237937 -0.787044
vn -0.000000 0.267599 -0.963530
vn -0.000000 0.267292 -0.963616
vn 0.577197 0.201651 -0.791316
vn 0.579359 0.190353 -0.792533
vn 0.951671 -0.016300 -0.306685
vn 0.951671 -0.016300 -0.306685
vn 0.939194 -0.178416 0.293400
vn 0.939194 -0.178416 0.293400
vn 0.573169 -0.272256 0.772886
vn 0.573169 -0.272256 0.772886
vn 0.000000 -0.260751 0.965406
vn 0.000000 -0.260751 0.965406
vn -0.581368 -0.149960 0.799702
vn -0.581368 -0.149960 0.799702
vn -0.946314 0.017003 0.322802
vn -0.946314 0.017003 0.322802
vn -0.939377 0.177890 -0.293133
vn -0.939377 0.177890 -0.293133
vn -0.562443 0.269069 -0.781831
vn -0.562443 0.269069 -0.781831
vn -0.000000 0.260750 -0.965406
vn -0.000000 0.260750 -0.965406
vn 0.586040 0.152299 -0.795840
vn 0.586040 0.152299 -0.795840
vn -0.933544 -0.145177 0.327748
vn -0.933544 -0.145177 0.327748
vn -0.933544 -0.145177 0.327748
vn -0.933544 -0.145177 0.327748
vn 0.011819 0.404972 -0.914253
vn 0.011819 0.404972 -0.914253
vn 0.011819 0.404972 -0.914253
vn 0.011819 0.404972 -0.914253
vn -0.552124 -0.337673 0.762322
vn -0.552124 -0.337673 0.762323
vn -0.552124 -0.337673 0.762322
vn -0.552124 -0.337673 0.762323
vn 0.000000 -0.405000 0.914317
vn 0.000000 -0.405000 0.914317
vn 0.000000 -0.405000 0.914317
vn 0.000000 -0.405000 0.914317
vn 0.567619 -0.333433 0.752749
vn 0.567619 -0.333433 0.752749
vn 0.567619 -0.333433 0.752749
vn 0.567619 -0.333433 0.752749
vn 0.948156 -0.128711 0.290574
vn 0.948156 -0.128711 0.290574
vn 0.948156 -0.128711 0.290574
vn 0.948156 -0.128711 0.290574
vn -0.011621 0.404973 -0.914255
vn -0.011621 0.404973 -0.914255
vn -0.011621 0.404973 -0.914255
vn -0.011621 0.404973 -0.914255
vn -0.948994 -0.063760 0.308779
vn -0.948994 -0.063760 0.308779
vn -0.948994 -0.063760 0.308779
vn -0.948994 -0.063760 0.308779
vn 0.252604 0.633815 -0.731075
vn 0.252604 0.633815 -0.731075
vn 0.252604 0.633815 -0.731075
vn 0.252604 0.633815 -0.731075
vn -0.621169 -0.385680 0.682203
vn -0.621169 -0.385680 0.682203
vn -0.621169 -0.385680 0.682203
vn -0.621169 -0.385680 0.682203
vn -0.231522 -0.554838 0.799094
vn -0.231522 -0.554838 0.799094
vn -0.231522 -0.554838 0.799094
vn -0.231522 -0.554838 0.799094
vn 0.240211 -0.602348 0.761233
vn 0.240211 -0.602348 0.761233
vn 0.240211 -0.602348 0.761233
vn 0.240211 -0.602348 0.761233
vn 0.894913 -0.176810 0.409717
vn 0.894913 -0.176810 0.409717
vn 0.894913 -0.176810 0.409717
vn 0.894913 -0.176810 0.409717
vn 0.254202 0.749649 -0.611071
vn 0.254202 0.749649 -0.611071
vn 0.254202 0.749649 -0.611071
vn 0.254202 0.749649 -0.611071
vn 0.577446 -0.248962 -0.777544
vn 0.577445 -0.248962 -0.777544
vn 0.577445 -0.248962 -0.777544
vn 0.577445 -0.248962 -0.777544
vn -0.000000 -0.304940 -0.952371
vn -0.000000 -0.304940 -0.952371
vn -0.000000 -0.304940 -0.952371
vn -0.000000 -0.304940 -0.952371
vn -0.563456 -0.251925 -0.786798
vn -0.563456 -0.251925 -0.786798
vn -0.563456 -0.251925 -0.786798
vn -0.563456 -0.251925 -0.786798
vn -0.951583 -0.093736 -0.292750
vn -0.951583 -0.093736 -0.292750
vn -0.951583 -0.093736 -0.292750
vn -0.951583 -0.093736 -0.292750
vn -0.012311 0.304917 0.952299
vn -0.012311 0.304917 0.952299
vn -0.012311 0.304917 0.952299
vn -0.012311 0.304917 0.952299
vn 0.946061 -0.098797 -0.308557
vn 0.946061 -0.098797 -0.308557
vn 0.946061 -0.098797 -0.308557
vn 0.946061 -0.098797 -0.308557
vn 0.012105 0.304918 0.952302
vn 0.012105 0.304918 0.952302
vn 0.012105 0.304918 0.952302
vn 0.012105 0.304918 0.952302
vn 0.350015 -0.438150 -0.827958
vn 0.350015 -0.438150 -0.827958
vn 0.350015 -0.438150 -0.827958
vn 0.350015 -0.438150 -0.827958
vn -0.124019 -0.374433 -0.918923
vn -0.124019 -0.374433 -0.918923
vn -0.124019 -0.374433 -0.918923
vn -0.124019 -0.374433 -0.918923
vn -0.569532 -0.237817 -0.786814
vn -0.569532 -0.237817 -0.786814
vn -0.569532 -0.237817 -0.786814
vn -0.569532 -0.237817 -0.786814
vn -0.954101 0.061106 -0.293185
vn -0.954101 0.061106 -0.293185
vn -0.954101 0.061106 -0.293185
vn -0.954101 0.061106 -0.293185
vn 0.156299 0.543494 0.824733
vn 0.156299 0.543494 0.824733
vn 0.156299 0.543494 0.824733
vn 0.156299 0.543494 0.824733
vn 0.875090 -0.223762 -0.429126
vn 0.875090 -0.223762 -0.429126
vn 0.875090 -0.223762 -0.429126
vn 0.875090 -0.223762 -0.429126
vn 0.199825 0.661291 0.723024
vn 0.199825 0.661291 0.723024
vn 0.199825 0.661291 0.723024
vn 0.199825 0.661291 0.723024
s 1
g pSphere8
usemtl lambert2SG
f 1/1/1 2/2/2 22/23/3 21/22/4
f 2/2/2 3/3/5 23/24/6 22/23/3
f 3/3/5 4/4/7 24/25/8 23/24/6
f 4/4/7 5/5/9 25/26/10 24/25/8
f 5/5/9 6/6/11 26/27/12 25/26/10
f 6/6/11 7/7/13 27/28/14 26/27/12
f 7/7/13 8/8/15 28/29/16 27/28/14
f 8/8/15 9/9/17 29/30/18 28/29/16
f 9/9/17 10/10/19 30/31/20 29/30/18
f 10/10/19 11/11/21 31/32/22 30/31/20
f 11/11/21 12/12/23 32/33/24 31/32/22
f 12/12/23 13/13/25 33/34/26 32/33/24
f 13/13/25 14/14/27 34/35/28 33/34/26
f 14/14/27 15/15/29 35/36/30 34/35/28
f 15/15/29 16/16/31 36/37/32 35/36/30
f 16/16/31 17/17/33 37/38/34 36/37/32
f 17/17/33 18/18/35 38/39/36 37/38/34
f 18/18/35 19/19/37 39/40/38 38/39/36
f 19/19/37 20/20/39 40/41/40 39/40/38
f 20/20/39 1/21/1 21/42/4 40/41/40
f 21/22/4 22/23/3 42/44/41 41/43/42
f 22/23/3 23/24/6 43/45/43 42/44/41
f 23/24/6 24/25/8 44/46/44 43/45/43
f 24/25/8 25/26/10 45/47/45 44/46/44
f 25/26/10 26/27/12 46/48/46 45/47/45
f 26/27/12 27/28/14 47/49/47 46/48/46
f 27/28/14 28/29/16 48/50/48 47/49/47
f 28/29/16 29/30/18 49/51/49 48/50/48
f 29/30/18 30/31/20 50/52/50 49/51/49
f 30/31/20 31/32/22 51/53/51 50/52/50
f 31/32/22 32/33/24 52/54/52 51/53/51
f 32/33/24 33/34/26 53/55/53 52/54/52
f 33/34/26 34/35/28 54/56/54 53/55/53
f 34/35/28 35/36/30 55/57/55 54/56/54
f 35/36/30 36/37/32 56/58/56 55/57/55
f 36/37/32 37/38/34 57/59/57 56/58/56
f 37/38/34 38/39/36 58/60/58 57/59/57
f 38/39/36 39/40/38 59/61/59 58/60/58
f 39/40/38 40/41/40 60/62/60 59/61/59
f 40/41/40 21/42/4 41/63/42 60/62/60
f 41/43/42 42/44/41 62/65/61 61/64/62
f 42/44/41 43/45/43 63/66/63 62/65/61
f 43/45/43 44/46/44 64/67/64 63/66/63
f 44/46/44 45/47/45 65/68/65 64/67/64
f 45/47/45 46/48/46 66/69/66 65/68/65
f 46/48/46 47/49/47 67/70/67 66/69/66
f 47/49/47 48/50/48 68/71/68 67/70/67
f 48/50/48 49/51/49 69/72/69 68/71/68
f 49/51/49 50/52/50 70/73/70 69/72/69
f 50/52/50 51/53/51 71/74/71 70/73/70
f 51/53/51 52/54/52 72/75/72 71/74/71
f 52/54/52 53/55/53 73/76/73 72/75/72
f 53/55/53 54/56/54 74/77/74 73/76/73
f 54/56/54 55/57/55 75/78/75 74/77/74
f 55/57/55 56/58/56 76/79/76 75/78/75
f 56/58/56 57/59/57 77/80/77 76/79/76
f 57/59/57 58/60/58 78/81/78 77/80/77
f 58/60/58 59/61/59 79/82/79 78/81/78
f 59/61/59 60/62/60 80/83/80 79/82/79
f 60/62/60 41/63/42 61/84/62 80/83/80
f 61/64/62 62/65/61 82/86/81 81/85/82
f 62/65/61 63/66/63 83/87/83 82/86/81
f 63/66/63 64/67/64 84/88/84 83/87/83
f 64/67/64 65/68/65 85/89/85 84/88/84
f 65/68/65 66/69/66 86/90/86 85/89/85
f 66/69/66 67/70/67 87/91/87 86/90/86
f 67/70/67 68/71/68 88/92/88 87/91/87
f 68/71/68 69/72/69 89/93/89 88/92/88
f 69/72/69 70/73/70 90/94/90 89/93/89
f 70/73/70 71/74/71 91/95/91 90/94/90
f 71/74/71 72/75/72 92/96/92 91/95/91
f 72/75/72 73/76/73 93/97/93 92/96/92
f 73/76/73 74/77/74 94/98/94 93/97/93
f 74/77/74 75/78/75 95/99/95 94/98/94
f 75/78/75 76/79/76 96/100/96 95/99/95
f 76/79/76 77/80/77 97/101/97 96/100/96
f 77/80/77 78/81/78 98/102/98 97/101/97
f 78/81/78 79/82/79 99/103/99 98/102/98
f 79/82/79 80/83/80 100/104/100 99/103/99
f 80/83/80 61/84/62 81/105/82 100/104/100
f 81/85/82 82/86/81 102/107/101 101/106/102
f 82/86/81 83/87/83 103/108/103 102/107/101
f 83/87/83 84/88/84 104/109/104 103/108/103
f 84/88/84 85/89/85 105/110/105 104/109/104
f 85/89/85 86/90/86 106/111/106 105/110/105
f 86/90/86 87/91/87 107/112/107 106/111/106
f 87/91/87 88/92/88 108/113/108 107/112/107
f 88/92/88 89/93/89 109/114/109 108/113/108
f 89/93/89 90/94/90 110/115/110 109/114/109
f 90/94/90 91/95/91 111/116/111 110/115/110
f 91/95/91 92/96/92 112/117/112 111/116/111
f 92/96/92 93/97/93 113/118/113 112/117/112
f 93/97/93 94/98/94 114/119/114 113/118/113
f 94/98/94 95/99/95 115/120/115 114/119/114
f 95/99/95 96/100/96 116/121/116 115/120/115
f 96/100/96 97/101/97 117/122/117 116/121/116
f 97/101/97 98/102/98 118/123/118 117/122/117
f 98/102/98 99/103/99 119/124/119 118/123/118
f 99/103/99 100/104/100 120/125/120 119/124/119
f 100/104/100 81/105/82 101/126/102 120/125/120
f 101/106/102 102/107/101 122/128/121 121/127/122
f 102/107/101 103/108/103 123/129/123 122/128/121
f 103/108/103 104/109/104 124/130/124 123/129/123
f 104/109/104 105/110/105 125/131/125 124/130/124
f 105/110/105 106/111/106 126/132/126 125/131/125
f 106/111/106 107/112/107 127/133/127 126/132/126
f 107/112/107 108/113/108 128/134/128 127/133/127
f 108/113/108 109/114/109 129/135/129 128/134/128
f 109/114/109 110/115/110 130/136/130 129/135/129
f 110/115/110 111/116/111 131/137/131 130/136/130
f 111/116/111 112/117/112 132/138/132 131/137/131
f 112/117/112 113/118/113 133/139/133 132/138/132
f 113/118/113 114/119/114 134/140/134 133/139/133
f 114/119/114 115/120/115 135/141/135 134/140/134
f 115/120/115 116/121/116 136/142/136 135/141/135
f 116/121/116 117/122/117 137/143/137 136/142/136
f 117/122/117 118/123/118 138/144/138 137/143/137
f 118/123/118 119/124/119 139/145/139 138/144/138
f 119/124/119 120/125/120 140/146/140 139/145/139
f 120/125/120 101/126/102 121/147/122 140/146/140
f 121/127/122 122/128/121 142/149/141 141/148/142
f 122/128/121 123/129/123 143/150/143 142/149/141
f 123/129/123 124/130/124 144/151/144 143/150/143
f 124/130/124 125/131/125 145/152/145 144/151/144
f 125/131/125 126/132/126 146/153/146 145/152/145
f 126/132/126 127/133/127 147/154/147 146/153/146
f 127/133/127 128/134/128 148/155/148 147/154/147
f 128/134/128 129/135/129 149/156/149 148/155/148
f 129/135/129 130/136/130 150/157/150 149/156/149
f 130/136/130 131/137/131 151/158/151 150/157/150
f 131/137/131 132/138/132 152/159/152 151/158/151
f 132/138/132 133/139/133 153/160/153 152/159/152
f 133/139/133 134/140/134 154/161/154 153/160/153
f 134/140/134 135/141/135 155/162/155 154/161/154
f 135/141/135 136/142/136 156/163/156 155/162/155
f 136/142/136 137/143/137 157/164/157 156/163/156
f 137/143/137 138/144/138 158/165/158 157/164/157
f 138/144/138 139/145/139 159/166/159 158/165/158
f 139/145/139 140/146/140 160/167/160 159/166/159
f 140/146/140 121/147/122 141/168/142 160/167/160
f 141/148/142 142/149/141 162/170/161 161/169/162
f 142/149/141 143/150/143 163/171/163 162/170/161
f 143/150/143 144/151/144 164/172/164 163/171/163
f 144/151/144 145/152/145 165/173/165 164/172/164
f 145/152/145 146/153/146 166/174/166 165/173/165
f 146/153/146 147/154/147 167/175/167 166/174/166
f 147/154/147 148/155/148 168/176/168 167/175/167
f 148/155/148 149/156/149 169/177/169 168/176/168
f 149/156/149 150/157/150 170/178/170 169/177/169
f 150/157/150 151/158/151 171/179/171 170/178/170
f 151/158/151 152/159/152 172/180/172 171/179/171
f 152/159/152 153/160/153 173/181/173 172/180/172
f 153/160/153 154/161/154 174/182/174 173/181/173
f 154/161/154 155/162/155 175/183/175 174/182/174
f 155/162/155 156/163/156 176/184/176 175/183/175
f 156/163/156 157/164/157 177/185/177 176/184/176
f 157/164/157 158/165/158 178/186/178 177/185/177
f 158/165/158 159/166/159 179/187/179 178/186/178
f 159/166/159 160/167/160 180/188/180 179/187/179
f 160/167/160 141/168/142 161/189/162 180/188/180
f 161/169/162 162/170/161 181/190/181
f 162/170/161 163/171/163 181/191/181
f 163/171/163 164/172/164 181/192/181
f 164/172/164 165/173/165 181/193/181
f 165/173/165 166/174/166 181/194/181
f 166/174/166 167/175/167 181/195/181
f 167/175/167 168/176/168 181/196/181
f 168/176/168 169/177/169 181/197/181
f 169/177/169 170/178/170 181/198/181
f 170/178/170 171/179/171 181/199/181
f 171/179/171 172/180/172 181/200/181
f 172/180/172 173/181/173 181/201/181
f 173/181/173 174/182/174 181/202/181
f 174/182/174 175/183/175 181/203/181
f 175/183/175 176/184/176 181/204/181
f 176/184/176 177/185/177 181/205/181
f 177/185/177 178/186/178 181/206/181
f 178/186/178 179/187/179 181/207/181
f 179/187/179 180/188/180 181/208/181
f 180/188/180 161/189/162 181/209/181
s 2
f 182/210/182 183/211/183 203/212/184 202/213/185
f 183/211/183 184/214/186 204/215/187 203/212/184
f 184/214/186 185/216/188 205/217/189 204/215/187
f 185/216/188 186/218/190 206/219/191 205/217/189
f 186/218/190 187/220/192 207/221/193 206/219/191
f 187/220/192 188/222/194 208/223/195 207/221/193
f 188/222/194 189/224/196 209/225/197 208/223/195
f 189/224/196 190/226/198 210/227/199 209/225/197
f 190/226/198 191/228/200 211/229/201 210/227/199
f 191/228/200 192/230/202 212/231/203 211/229/201
f 192/230/202 193/232/204 213/233/205 212/231/203
f 193/232/204 194/234/206 214/235/207 213/233/205
f 194/234/206 195/236/208 215/237/209 214/235/207
f 195/236/208 196/238/210 216/239/211 215/237/209
f 196/238/210 197/240/212 217/241/213 216/239/211
f 197/240/212 198/242/214 218/243/215 217/241/213
f 198/242/214 199/244/216 219/245/217 218/243/215
f 199/244/216 200/246/218 220/247/219 219/245/217
f 200/246/218 201/248/220 221/249/221 220/247/219
f 201/248/220 182/250/182 202/251/185 221/249/221
f 202/213/185 203/212/184 223/252/222 222/253/223
f 203/212/184 204/215/187 224/254/224 223/252/222
f 204/215/187 205/217/189 225/255/225 224/254/224
f 205/217/189 206/219/191 226/256/226 225/255/225
f 206/219/191 207/221/193 227/257/227 226/256/226
f 207/221/193 208/223/195 228/258/228 227/257/227
f 208/223/195 209/225/197 229/259/229 228/258/228
f 209/225/197 210/227/199 230/260/230 229/259/229
f 210/227/199 211/229/201 231/261/231 230/260/230
f 211/229/201 212/231/203 232/262/232 231/261/231
f 212/231/203 213/233/205 233/263/233 232/262/232
f 213/233/205 214/235/207 234/264/234 233/263/233
f 214/235/207 215/237/209 235/265/235 234/264/234
f 215/237/209 216/239/211 236/266/236 235/265/235
f 216/239/211 217/241/213 237/267/237 236/266/236
f 217/241/213 218/243/215 238/268/238 237/267/237
f 218/243/215 219/245/217 239/269/239 238/268/238
f 219/245/217 220/247/219 240/270/240 239/269/239
f 220/247/219 221/249/221 241/271/241 240/270/240
f 221/249/221 202/251/185 222/272/223 241/271/241
f 222/253/223 223/252/222 243/273/242 242/274/243
f 223/252/222 224/254/224 244/275/244 243/273/242
f 224/254/224 225/255/225 245/276/245 244/275/244
f 225/255/225 226/256/226 246/277/246 245/276/245
f 226/256/226 227/257/227 247/278/247 246/277/246
f 227/257/227 228/258/228 248/279/248 247/278/247
f 228/258/228 229/259/229 249/280/249 248/279/248
f 229/259/229 230/260/230 250/281/250 249/280/249
f 230/260/230 231/261/231 251/282/251 250/281/250
f 231/261/231 232/262/232 252/283/252 251/282/251
f 232/262/232 233/263/233 253/284/253 252/283/252
f 233/263/233 234/264/234 254/285/254 253/284/253
f 234/264/234 235/265/235 255/286/255 254/285/254
f 235/265/235 236/266/236 256/287/256 255/286/255
f 236/266/236 237/267/237 257/288/257 256/287/256
f 237/267/237 238/268/238 258/289/258 257/288/257
f 238/268/238 239/269/239 259/290/259 258/289/258
f 239/269/239 240/270/240 260/291/260 259/290/259
f 240/270/240 241/271/241 261/292/261 260/291/260
f 241/271/241 222/272/223 242/293/243 261/292/261
f 242/274/243 243/273/242 263/294/262 262/295/263
f 243/273/242 244/275/244 264/296/264 263/294/262
f 244/275/244 245/276/245 265/297/265 264/296/264
f 245/276/245 246/277/246 266/298/266 265/297/265
f 246/277/246 247/278/247 267/299/267 266/298/266
f 247/278/247 248/279/248 268/300/268 267/299/267
f 248/279/248 249/280/249 269/301/269 268/300/268
f 249/280/249 250/281/250 270/302/270 269/301/269
f 250/281/250 251/282/251 271/303/271 270/302/270
f 251/282/251 252/283/252 272/304/272 271/303/271
f 252/283/252 253/284/253 273/305/273 272/304/272
f 253/284/253 254/285/254 274/306/274 273/305/273
f 254/285/254 255/286/255 275/307/275 274/306/274
f 255/286/255 256/287/256 276/308/276 275/307/275
f 256/287/256 257/288/257 277/309/277 276/308/276
f 257/288/257 258/289/258 278/310/278 277/309/277
f 258/289/258 259/290/259 279/311/279 278/310/278
f 259/290/259 260/291/260 280/312/280 279/311/279
f 260/291/260 261/292/261 281/313/281 280/312/280
f 261/292/261 242/293/243 262/314/263 281/313/281
f 262/295/263 263/294/262 283/315/282 282/316/283
f 263/294/262 264/296/264 284/317/284 283/315/282
f 264/296/264 265/297/265 285/318/285 284/317/284
f 265/297/265 266/298/266 286/319/286 285/318/285
f 266/298/266 267/299/267 287/320/287 286/319/286
f 267/299/267 268/300/268 288/321/288 287/320/287
f 268/300/268 269/301/269 289/322/289 288/321/288
f 269/301/269 270/302/270 290/323/290 289/322/289
f 270/302/270 271/303/271 291/324/291 290/323/290
f 271/303/271 272/304/272 292/325/292 291/324/291
f 272/304/272 273/305/273 293/326/293 292/325/292
f 273/305/273 274/306/274 294/327/294 293/326/293
f 274/306/274 275/307/275 295/328/295 294/327/294
f 275/307/275 276/308/276 296/329/296 295/328/295
f 276/308/276 277/309/277 297/330/297 296/329/296
f 277/309/277 278/310/278 298/331/298 297/330/297
f 278/310/278 279/311/279 299/332/299 298/331/298
f 279/311/279 280/312/280 300/333/300 299/332/299
f 280/312/280 281/313/281 301/334/301 300/333/300
f 281/313/281 262/314/263 282/335/283 301/334/301
f 282/316/283 283/315/282 303/336/302 302/337/303
f 283/315/282 284/317/284 304/338/304 303/336/302
f 284/317/284 285/318/285 305/339/305 304/338/304
f 285/318/285 286/319/286 306/340/306 305/339/305
f 286/319/286 287/320/287 307/341/307 306/340/306
f 287/320/287 288/321/288 308/342/308 307/341/307
f 288/321/288 289/322/289 309/343/309 308/342/308
f 289/322/289 290/323/290 310/344/310 309/343/309
f 290/323/290 291/324/291 311/345/311 310/344/310
f 291/324/291 292/325/292 312/346/312 311/345/311
f 292/325/292 293/326/293 313/347/313 312/346/312
f 293/326/293 294/327/294 314/348/314 313/347/313
f 294/327/294 295/328/295 315/349/315 314/348/314
f 295/328/295 296/329/296 316/350/316 315/349/315
f 296/329/296 297/330/297 317/351/317 316/350/316
f 297/330/297 298/331/298 318/352/318 317/351/317
f 298/331/298 299/332/299 319/353/319 318/352/318
f 299/332/299 300/333/300 320/354/320 319/353/319
f 300/333/300 301/334/301 321/355/321 320/354/320
f 301/334/301 282/335/283 302/356/303 321/355/321
f 302/337/303 303/336/302 323/357/322 322/358/323
f 303/336/302 304/338/304 324/359/324 323/357/322
f 304/338/304 305/339/305 325/360/325 324/359/324
f 305/339/305 306/340/306 326/361/326 325/360/325
f 306/340/306 307/341/307 327/362/327 326/361/326
f 307/341/307 308/342/308 328/363/328 327/362/327
f 308/342/308 309/343/309 329/364/329 328/363/328
f 309/343/309 310/344/310 330/365/330 329/364/329
f 310/344/310 311/345/311 331/366/331 330/365/330
f 311/345/311 312/346/312 332/367/332 331/366/331
f 312/346/312 313/347/313 333/368/333 332/367/332
f 313/347/313 314/348/314 334/369/334 333/368/333
f 314/348/314 315/349/315 335/370/335 334/369/334
f 315/349/315 316/350/316 336/371/336 335/370/335
f 316/350/316 317/351/317 337/372/337 336/371/336
f 317/351/317 318/352/318 338/373/338 337/372/337
f 318/352/318 319/353/319 339/374/339 338/373/338
f 319/353/319 320/354/320 340/375/340 339/374/339
f 320/354/320 321/355/321 341/376/341 340/375/340
f 321/355/321 302/356/303 322/377/323 341/376/341
f 322/358/323 323/357/322 343/378/342 342/379/343
f 323/357/322 324/359/324 344/380/344 343/378/342
f 324/359/324 325/360/325 345/381/345 344/380/344
f 325/360/325 326/361/326 346/382/346 345/381/345
f 326/361/326 327/362/327 347/383/347 346/382/346
f 327/362/327 328/363/328 348/384/348 347/383/347
f 328/363/328 329/364/329 349/385/349 348/384/348
f 329/364/329 330/365/330 350/386/350 349/385/349
f 330/365/330 331/366/331 351/387/351 350/386/350
f 331/366/331 332/367/332 352/388/352 351/387/351
f 332/367/332 333/368/333 353/389/353 352/388/352
f 333/368/333 334/369/334 354/390/354 353/389/353
f 334/369/334 335/370/335 355/391/355 354/390/354
f 335/370/335 336/371/336 356/392/356 355/391/355
f 336/371/336 337/372/337 357/393/357 356/392/356
f 337/372/337 338/373/338 358/394/358 357/393/357
f 338/373/338 339/374/339 359/395/359 358/394/358
f 339/374/339 340/375/340 360/396/360 359/395/359
f 340/375/340 341/376/341 361/397/361 360/396/360
f 341/376/341 322/377/323 342/398/343 361/397/361
f 342/379/343 343/378/342 362/399/362
f 343/378/342 344/380/344 362/400/362
f 344/380/344 345/381/345 362/401/362
f 345/381/345 346/382/346 362/402/362
f 346/382/346 347/383/347 362/403/362
f 347/383/347 348/384/348 362/404/362
f 348/384/348 349/385/349 362/405/362
f 349/385/349 350/386/350 362/406/362
f 350/386/350 351/387/351 362/407/362
f 351/387/351 352/388/352 362/408/362
f 352/388/352 353/389/353 362/409/362
f 353/389/353 354/390/354 362/410/362
f 354/390/354 355/391/355 362/411/362
f 355/391/355 356/392/356 362/412/362
f 356/392/356 357/393/357 362/413/362
f 357/393/357 358/394/358 362/414/362
f 358/394/358 359/395/359 362/415/362
f 359/395/359 360/396/360 362/416/362
f 360/396/360 361/397/361 362/417/362
f 361/397/361 342/398/343 362/418/362
s 3
f 363/419/363 364/420/364 394/421/365 385/422/366
s 4
f 364/420/367 365/423/368 393/424/369 394/421/370
s 5
f 365/423/371 366/425/372 392/426/373 393/424/374
s 6
f 366/425/375 367/427/376 391/428/377 392/426/378
s 7
f 367/427/379 368/429/380 390/430/381 391/428/382
s 8
f 368/429/383 369/431/384 389/432/385 390/430/386
s 9
f 369/431/387 370/433/388 388/434/389 389/432/390
s 10
f 370/433/391 371/435/392 387/436/393 388/434/394
s 11
f 371/435/395 372/437/396 386/438/397 387/436/398
s 12
f 372/437/399 363/439/400 385/440/401 386/438/402
s 13
f 364/441/403 363/442/404 383/443/405
f 365/444/406 364/441/403 383/443/405
f 366/445/407 365/444/406 383/443/405
f 367/446/408 366/445/407 383/443/405
f 368/447/409 367/446/408 383/443/405
f 369/448/410 368/447/409 383/443/405
f 370/449/411 369/448/410 383/443/405
f 371/450/412 370/449/411 383/443/405
f 372/451/413 371/450/412 383/443/405
f 363/442/404 372/451/413 383/443/405
s 14
f 466/452/414 467/453/415 468/454/416
f 467/453/415 469/455/417 468/454/416
f 469/455/417 470/456/418 468/454/416
f 470/456/418 471/457/419 468/454/416
s 15
f 452/458/420 453/459/421 454/460/422
f 453/459/421 455/461/423 454/460/422
f 455/461/423 456/462/424 454/460/422
f 456/462/424 457/463/425 454/460/422
f 457/463/425 458/464/426 454/460/422
s 14
f 472/465/427 466/452/414 468/454/416
s 12
f 386/438/402 385/440/401 395/466/428 396/467/429
s 11
f 387/436/398 386/438/397 396/467/430 397/468/431
s 10
f 388/434/394 387/436/393 397/468/432 398/469/433
s 9
f 389/432/390 388/434/389 398/469/434 399/470/435
s 8
f 390/430/386 389/432/385 399/470/436 400/471/437
s 7
f 391/428/382 390/430/381 400/471/438 401/472/439
s 6
f 392/426/378 391/428/377 401/472/440 402/473/441
s 5
f 393/424/374 392/426/373 402/473/442 403/474/443
s 4
f 394/421/370 393/424/369 403/474/444 404/475/445
s 3
f 385/422/366 394/421/365 404/475/446 395/476/447
s 12
f 396/467/429 395/466/428 405/477/448 406/478/449
s 11
f 397/468/431 396/467/430 406/478/450 407/479/451
s 10
f 398/469/433 397/468/432 407/479/452 408/480/453
s 9
f 399/470/435 398/469/434 408/480/454 409/481/455
s 8
f 400/471/437 399/470/436 409/481/456 410/482/457
s 7
f 401/472/439 400/471/438 410/482/458 411/483/459
s 6
f 402/473/441 401/472/440 411/483/460 412/484/461
s 5
f 403/474/443 402/473/442 412/484/462 413/485/463
s 4
f 404/475/445 403/474/444 413/485/464 414/486/465
s 3
f 395/476/447 404/475/446 414/486/466 405/487/467
s 12
f 406/478/449 405/477/448 415/488/468 416/489/469
s 11
f 407/479/451 406/478/450 416/489/470 417/490/471
s 10
f 408/480/453 407/479/452 417/490/472 418/491/473
s 9
f 409/481/455 408/480/454 418/491/474 419/492/475
s 8
f 410/482/457 409/481/456 419/492/476 420/493/477
s 7
f 411/483/459 410/482/458 420/493/478 421/494/479
s 6
f 412/484/461 411/483/460 421/494/480 422/495/481
s 5
f 413/485/463 412/484/462 422/495/482 423/496/483
s 4
f 414/486/465 413/485/464 423/496/484 424/497/485
s 3
f 405/487/467 414/486/466 424/497/486 415/498/487
s 12
f 416/489/469 415/488/468 425/499/488 426/500/489
s 11
f 417/490/471 416/489/470 426/500/490 427/501/491
s 10
f 418/491/473 417/490/472 427/501/492 428/502/493
s 9
f 419/492/475 418/491/474 428/502/494 429/503/495
s 8
f 420/493/477 419/492/476 429/503/496 430/504/497
s 7
f 421/494/479 420/493/478 430/504/498 431/505/499
s 6
f 422/495/481 421/494/480 431/505/500 432/506/501
s 5
f 423/496/483 422/495/482 432/506/502 433/507/503
s 4
f 424/497/485 423/496/484 433/507/504 434/508/505
s 3
f 415/498/487 424/497/486 434/508/506 425/509/507
s 12
f 426/500/489 425/499/488 435/510/508 436/511/509
s 11
f 427/501/491 426/500/490 436/511/510 437/512/511
s 10
f 428/502/493 427/501/492 437/512/512 438/513/513
s 9
f 429/503/495 428/502/494 438/513/514 439/514/515
s 8
f 430/504/497 429/503/496 439/514/516 440/515/517
s 7
f 431/505/499 430/504/498 440/515/518 441/516/519
s 6
f 432/506/501 431/505/500 441/516/520 442/517/521
s 5
f 433/507/503 432/506/502 442/517/522 443/518/523
s 4
f 434/508/505 433/507/504 443/518/524 444/519/525
s 3
f 425/509/507 434/508/506 444/519/526 435/520/527
s 12
f 436/511/509 435/510/508 373/521/528 382/522/529
s 11
f 437/512/511 436/511/510 382/522/530 381/523/531
s 10
f 438/513/513 437/512/512 381/523/532 380/524/533
s 9
f 439/514/515 438/513/514 380/524/534 379/525/535
s 8
f 440/515/517 439/514/516 379/525/536 378/526/537
s 7
f 441/516/519 440/515/518 378/526/538 377/527/539
s 6
f 442/517/521 441/516/520 377/527/540 376/528/541
s 5
f 443/518/523 442/517/522 376/528/542 375/529/543
s 4
f 444/519/525 443/518/524 375/529/544 374/530/545
s 3
f 435/520/527 444/519/526 374/530/546 373/531/547
s off
f 377/532/548 378/533/549 446/534/550 445/535/551
f 384/536/552 377/532/553 445/535/554 447/537/555
f 378/533/556 379/538/557 448/539/558 446/534/559
f 379/538/560 380/540/561 449/541/562 448/539/563
f 380/540/564 381/542/565 450/543/566 449/541/567
f 381/542/568 382/544/569 451/545/570 450/543/571
f 382/544/572 384/536/573 447/537/574 451/545/575
f 445/535/576 446/534/577 453/459/578 452/458/579
f 447/537/580 445/535/581 452/458/582 454/460/583
f 446/534/584 448/539/585 455/461/586 453/459/587
f 448/539/588 449/541/589 456/462/590 455/461/591
f 449/541/592 450/543/593 457/463/594 456/462/595
f 450/543/596 451/545/597 458/464/598 457/463/599
f 451/545/600 447/537/601 454/460/602 458/464/603
f 373/546/604 374/547/605 460/548/606 459/549/607
f 374/547/608 375/550/609 462/551/610 460/548/611
f 375/550/612 376/552/613 463/553/614 462/551/615
f 376/552/616 377/532/617 464/554/618 463/553/619
f 377/532/620 384/536/621 461/555/622 464/554/623
f 382/544/624 373/546/625 459/549/626 465/556/627
f 384/536/628 382/544/629 465/556/630 461/555/631
f 459/549/632 460/548/633 467/453/634 466/452/635
f 460/548/636 462/551/637 469/455/638 467/453/639
f 462/551/640 463/553/641 470/456/642 469/455/643
f 463/553/644 464/554/645 471/457/646 470/456/647
f 464/554/648 461/555/649 468/454/650 471/457/651
f 465/556/652 459/549/653 466/452/654 472/465/655
f 461/555/656 465/556/657 472/465/658 468/454/659
